<svg width="83" height="84" viewBox="0 0 83 84" fill="none" xmlns="http://www.w3.org/2000/svg">
<g clip-path="url(#clip0_443_1770)">
<path d="M59.915 27.9375H24.4775V53.25H59.915V27.9375Z" fill="#30ACC2"/>
<path d="M13.6944 72.6281C15.5169 61.4062 24.3256 53.25 34.5772 53.25H49.7647C60.0162 53.25 68.825 61.4062 70.6475 72.6281L72.5459 84.1875H11.8212L13.7197 72.6281H13.6944Z" fill="#A1D8DF"/>
<path d="M49.79 53.25L52.3212 61.6875H47.2587L42.1962 72.9375L37.1337 61.6875H32.0712L34.6025 53.25H49.79Z" fill="#68C7D3"/>
<path d="M47.2587 47.625V53.25L46.2462 55.4156L42.1962 64.5L38.1209 55.4156L37.1337 53.25V47.625H47.2587Z" fill="#D1E6E9"/>
<path d="M27.0087 25.125C24.2244 25.125 21.9462 27.6562 21.9462 30.75C21.9462 33.8438 24.2244 36.375 27.0087 36.375H57.3837C60.1681 36.375 62.4462 33.8438 62.4462 30.75C62.4462 27.6562 60.1681 25.125 57.3837 25.125H27.0087Z" fill="#D1E6E9"/>
<path d="M27.0087 19.5H57.3837V33.5625C57.3837 42.8719 50.5747 50.4375 42.1962 50.4375C33.8178 50.4375 27.0087 42.8719 27.0087 33.5625V19.5V19.5Z" fill="#D1E6E9"/>
<path d="M32.0712 11.0625H42.1962C42.1962 20.3719 35.3872 27.9375 27.0087 27.9375H24.4775V19.5C24.4775 14.8313 27.8694 11.0625 32.0712 11.0625Z" fill="#30ACC2"/>
<path d="M59.915 27.9375H52.3212C43.9428 27.9375 37.1337 20.3719 37.1337 11.0625H52.3212C56.5231 11.0625 59.915 14.8313 59.915 19.5V27.9375Z" fill="#30ACC2"/>
<path d="M42.1962 -0.1875C31.0081 -0.1875 21.9462 3.58125 21.9462 8.25L27.0087 22.3125H57.3837L62.4462 8.25C62.4462 3.58125 53.3844 -0.1875 42.1962 -0.1875V-0.1875Z" fill="#A1D8DF"/>
<path d="M44.7275 2.625H39.665V19.5H44.7275V2.625Z" fill="#30ACC2"/>
<path d="M49.79 8.25H34.6025V13.875H49.79V8.25Z" fill="#30ACC2"/>
<path d="M34.6025 70.125H21.9462V75.75H34.6025V70.125Z" fill="#D1E6E9"/>
</g>
<defs>
<clipPath id="clip0_443_1770">
<rect width="83" height="84" fill="white"/>
</clipPath>
</defs>
</svg>
