<svg width="65" height="65" viewBox="0 0 65 65" fill="none" xmlns="http://www.w3.org/2000/svg">
<g clip-path="url(#clip0_310_40)">
<rect x="65" width="65" height="65" rx="32.5" transform="rotate(90 65 0)" fill="#1F1E1C"/>
<path d="M3.1768 32.8897C3.1768 28.9031 3.92791 25.2053 5.43013 21.7964C6.99013 18.3875 9.04124 15.4408 11.5835 12.9564L16.6101 17.2897C14.4724 19.312 12.739 21.6809 11.4101 24.3964C10.139 27.1697 9.50346 30.0297 9.50346 32.9764C9.50346 36.732 10.3412 39.6497 12.0168 41.7297C13.7501 43.8097 16.0035 44.8497 18.7768 44.8497C20.7412 44.8497 22.3012 44.4164 23.4568 43.5497C24.6124 42.7409 25.5946 41.6142 26.4035 40.1697C27.2124 38.7831 28.0212 37.1942 28.8301 35.4031L32.3835 27.2564C33.1346 25.4653 34.1168 23.6742 35.3301 21.8831C36.5435 20.1497 38.1035 18.6764 40.0101 17.4631C41.9168 16.3075 44.2568 15.7297 47.0301 15.7297C49.919 15.7297 52.4901 16.4809 54.7435 17.9831C57.0546 19.5431 58.8457 21.6809 60.1168 24.3964C61.4457 27.112 62.1101 30.1742 62.1101 33.5831C62.1101 36.992 61.4457 40.1409 60.1168 43.0297C58.8457 45.9186 57.1701 48.3742 55.0901 50.3964L50.4101 46.4964C52.0857 44.7631 53.3857 42.8275 54.3101 40.6897C55.2924 38.6097 55.7835 36.2409 55.7835 33.5831C55.7835 30.4053 55.0324 27.8342 53.5301 25.8697C52.0279 23.9631 50.0057 23.0097 47.4635 23.0097C45.6724 23.0097 44.1701 23.472 42.9568 24.3964C41.8013 25.3786 40.8479 26.592 40.0968 28.0364C39.3457 29.4809 38.6524 30.9542 38.0168 32.4564L34.5501 40.5164C33.6257 42.712 32.499 44.6764 31.1701 46.4097C29.899 48.2009 28.3101 49.6164 26.4035 50.6564C24.5546 51.6964 22.2146 52.2164 19.3835 52.2164C16.379 52.2164 13.6346 51.4364 11.1501 49.8764C8.72346 48.3164 6.78791 46.092 5.34346 43.2031C3.89902 40.3142 3.1768 36.8764 3.1768 32.8897Z" fill="white"/>
<path d="M18.304 39.984C17.407 39.984 16.575 39.815 15.808 39.477C15.041 39.126 14.378 38.6645 13.819 38.0925L14.794 36.9615C15.249 37.4425 15.782 37.8325 16.393 38.1315C17.017 38.4175 17.6605 38.5605 18.3235 38.5605C19.1685 38.5605 19.825 38.372 20.293 37.995C20.761 37.605 20.995 37.098 20.995 36.474C20.995 36.032 20.8975 35.681 20.7025 35.421C20.5205 35.161 20.267 34.94 19.942 34.758C19.63 34.576 19.2725 34.394 18.8695 34.212L17.0365 33.4125C16.6335 33.2435 16.2305 33.0225 15.8275 32.7495C15.4375 32.4765 15.106 32.1255 14.833 31.6965C14.573 31.2675 14.443 30.741 14.443 30.117C14.443 29.467 14.612 28.8885 14.95 28.3815C15.301 27.8615 15.782 27.4585 16.393 27.1725C17.004 26.8735 17.693 26.724 18.46 26.724C19.227 26.724 19.9355 26.8735 20.5855 27.1725C21.2355 27.4585 21.788 27.8355 22.243 28.3035L21.3655 29.3565C20.9755 28.9795 20.54 28.687 20.059 28.479C19.591 28.258 19.058 28.1475 18.46 28.1475C17.745 28.1475 17.1665 28.3165 16.7245 28.6545C16.2955 28.9925 16.081 29.4475 16.081 30.0195C16.081 30.4225 16.185 30.7605 16.393 31.0335C16.614 31.2935 16.887 31.508 17.212 31.677C17.537 31.846 17.8685 32.002 18.2065 32.145L20.02 32.925C20.514 33.133 20.956 33.3865 21.346 33.6855C21.749 33.9715 22.0675 34.329 22.3015 34.758C22.5355 35.174 22.6525 35.7005 22.6525 36.3375C22.6525 37.0135 22.477 37.631 22.126 38.19C21.775 38.736 21.2745 39.1715 20.6245 39.4965C19.9745 39.8215 19.201 39.984 18.304 39.984Z" fill="white"/>
<path d="M46.7738 39.984C45.7078 39.984 44.7588 39.711 43.9268 39.165C43.1078 38.619 42.4643 37.8455 41.9963 36.8445C41.5413 35.8435 41.3138 34.6605 41.3138 33.2955C41.3138 31.9305 41.5413 30.7605 41.9963 29.7855C42.4643 28.7975 43.1078 28.0435 43.9268 27.5235C44.7588 26.9905 45.7078 26.724 46.7738 26.724C47.8528 26.724 48.8018 26.9905 49.6208 27.5235C50.4398 28.0435 51.0833 28.7975 51.5513 29.7855C52.0193 30.7605 52.2533 31.9305 52.2533 33.2955C52.2533 34.6605 52.0193 35.8435 51.5513 36.8445C51.0833 37.8455 50.4398 38.619 49.6208 39.165C48.8018 39.711 47.8528 39.984 46.7738 39.984ZM46.7738 38.5605C47.5408 38.5605 48.2038 38.346 48.7628 37.917C49.3348 37.475 49.7768 36.864 50.0888 36.084C50.4008 35.291 50.5568 34.3615 50.5568 33.2955C50.5568 31.7095 50.2123 30.455 49.5233 29.532C48.8343 28.609 47.9178 28.1475 46.7738 28.1475C45.6298 28.1475 44.7133 28.609 44.0243 29.532C43.3353 30.455 42.9908 31.7095 42.9908 33.2955C42.9908 34.3615 43.1468 35.291 43.4588 36.084C43.7708 36.864 44.2128 37.475 44.7848 37.917C45.3568 38.346 46.0198 38.5605 46.7738 38.5605Z" fill="white"/>
</g>
<defs>
<clipPath id="clip0_310_40">
<rect x="65" width="65" height="65" rx="32.5" transform="rotate(90 65 0)" fill="white"/>
</clipPath>
</defs>
</svg>
