<svg width="128" height="81" viewBox="0 0 128 81" fill="none" xmlns="http://www.w3.org/2000/svg">
<g clip-path="url(#clip0_18_114)">
<path d="M123.589 11.9115L119.725 9.11987L97.4799 39.8972L101.345 42.6888L123.589 11.9115Z" fill="#D1E6E9"/>
<path d="M97.7689 44.1169L99.9404 40.01L74.3271 26.4753L72.1556 30.5823L97.7689 44.1169Z" fill="#D1E6E9"/>
<path d="M55.1095 53.0172L54.5996 48.3999L17.4093 52.5045L17.9192 57.1218L55.1095 53.0172Z" fill="#D1E6E9"/>
<path d="M76.0653 28.8525L72.5293 25.8386L53.7331 47.8785L57.2692 50.8923L76.0653 28.8525Z" fill="#D1E6E9"/>
<path d="M18.6941 55.9523L14.6699 53.6296L0.184239 78.7121L4.20843 81.0348L18.6941 55.9523Z" fill="#D1E6E9"/>
<path d="M99.0864 45.3228C101.073 45.3228 102.683 43.7132 102.683 41.7277C102.683 39.7421 101.073 38.1326 99.0864 38.1326C97.1003 38.1326 95.4902 39.7421 95.4902 41.7277C95.4902 43.7132 97.1003 45.3228 99.0864 45.3228Z" fill="#A1D8DF"/>
<path d="M73.6303 32.3159C75.6165 32.3159 77.2265 30.7064 77.2265 28.7208C77.2265 26.7353 75.6165 25.1257 73.6303 25.1257C71.6442 25.1257 70.0342 26.7353 70.0342 28.7208C70.0342 30.7064 71.6442 32.3159 73.6303 32.3159Z" fill="#A1D8DF"/>
<path d="M16.8598 58.4915C18.8459 58.4915 20.456 56.8819 20.456 54.8964C20.456 52.9108 18.8459 51.3013 16.8598 51.3013C14.8737 51.3013 13.2637 52.9108 13.2637 54.8964C13.2637 56.8819 14.8737 58.4915 16.8598 58.4915Z" fill="#A1D8DF"/>
<path d="M54.3569 54.3711C56.343 54.3711 57.9531 52.7615 57.9531 50.776C57.9531 48.7905 56.343 47.1809 54.3569 47.1809C52.3708 47.1809 50.7607 48.7905 50.7607 50.776C50.7607 52.7615 52.3708 54.3711 54.3569 54.3711Z" fill="#A1D8DF"/>
<path d="M128.058 0.485107L117.27 8.52359L125.553 13.6941L128.058 0.485107Z" fill="#30ACC2"/>
</g>
<defs>
<clipPath id="clip0_18_114">
<rect width="128" height="81" fill="white"/>
</clipPath>
</defs>
</svg>
