<svg width="50" height="50" viewBox="0 0 50 50" fill="none" xmlns="http://www.w3.org/2000/svg">
<path d="M36.28 17.0601H14.04V31.3601H36.28V17.0601Z" fill="#30ACC2"/>
<path d="M7.21043 42.31C8.32043 35.96 13.8804 31.35 20.2304 31.35H29.7604C36.2704 31.35 41.6704 35.96 42.7804 42.31L44.0504 48.82H5.94043L7.21043 42.31V42.31Z" fill="#A1D8DF"/>
<path d="M29.9296 31.35L31.5096 36.12H28.3396L25.1596 42.47L21.9796 36.12H18.8096L20.3996 31.35H29.9296Z" fill="#68C7D3"/>
<path d="M28.3405 28.1699V31.3499L27.7005 32.6199L25.1605 37.6999L22.6205 32.6199L21.9805 31.3499V28.1699H28.3405Z" fill="#D1E6E9"/>
<path d="M15.6302 15.47C13.8802 15.47 12.4502 16.9 12.4502 18.65C12.4502 20.4 13.8802 21.83 15.6302 21.83H34.6902C36.4402 21.83 37.8702 20.4 37.8702 18.65C37.8702 16.9 36.4402 15.47 34.6902 15.47H15.6302V15.47Z" fill="#D1E6E9"/>
<path d="M15.6299 12.29H34.6899V20.23C34.6899 25.47 30.3999 29.76 25.1599 29.76C19.9199 29.76 15.6299 25.47 15.6299 20.23V12.29V12.29Z" fill="#D1E6E9"/>
<path d="M18.81 7.53002H25.16C25.16 12.77 20.87 17.06 15.63 17.06H14.04V12.29C14.04 9.59002 16.1 7.52002 18.81 7.52002V7.53002Z" fill="#30ACC2"/>
<path d="M36.2805 17.06H31.5105C26.2705 17.06 21.9805 12.77 21.9805 7.53003H31.5105C34.2105 7.53003 36.2805 9.59003 36.2805 12.3V17.07V17.06Z" fill="#30ACC2"/>
<path d="M25.1602 1.17004C18.1702 1.17004 12.4502 3.23004 12.4502 5.94004L15.6302 13.88H34.6902L37.8702 5.94004C37.8702 3.24004 32.1502 1.17004 25.1602 1.17004V1.17004Z" fill="#A1D8DF"/>
<path d="M26.7503 2.76001H23.5703V12.29H26.7503V2.76001Z" fill="#30ACC2"/>
<path d="M29.9304 5.93994H20.4004V9.11994H29.9304V5.93994Z" fill="#30ACC2"/>
<path d="M20.3902 40.88H12.4502V44.06H20.3902V40.88Z" fill="#D1E6E9"/>
</svg>
