<svg width="732" height="1144" viewBox="0 0 732 1144" fill="none" xmlns="http://www.w3.org/2000/svg">
<path opacity="0.5" d="M492.15 0.850098L492.21 0.880096L519.7 16.4501V47.6601L519.64 47.6901L492.15 63.2601L492.09 63.2301L464.6 47.6601V16.4501L464.66 16.4201L492.15 0.850098ZM519.47 16.5901L492.15 1.12009L464.83 16.5901V47.5301L492.15 63.0001L519.47 47.5301V16.5901Z" stroke="white" stroke-width="0.75" stroke-miterlimit="10"/>
<path opacity="0.5" d="M574.33 47.2798L574.39 47.3098L601.88 62.8798V94.0898L601.82 94.1198L574.33 109.69L574.27 109.66L546.78 94.0898V62.8798L546.84 62.8498L574.33 47.2798V47.2798ZM601.65 63.0198L574.33 47.5498L547.01 63.0198V93.9598L574.33 109.43L601.65 93.9598V63.0198Z" stroke="white" stroke-width="0.75" stroke-miterlimit="10"/>
<path opacity="0.5" d="M492.38 94.0698L492.44 94.0999L519.93 109.67V140.88L519.87 140.91L492.38 156.48L492.32 156.45L464.83 140.88V109.67L464.89 109.64L492.38 94.0698ZM519.7 109.81L492.38 94.3398L465.06 109.81V140.75L492.38 156.22L519.7 140.75V109.81Z" stroke="white" stroke-width="0.75" stroke-miterlimit="10"/>
<path opacity="0.5" d="M602.13 93.8501L602.19 93.8801L629.68 109.45V140.66L629.62 140.69L602.13 156.26L602.07 156.23L574.58 140.66V109.45L574.64 109.42L602.13 93.8501ZM629.45 109.59L602.13 94.1201L574.81 109.59V140.53L602.13 156L629.45 140.53V109.59Z" stroke="white" stroke-width="0.75" stroke-miterlimit="10"/>
<path opacity="0.5" d="M629.39 140.92L629.45 140.95L656.94 156.52V187.73L656.88 187.76L629.39 203.33L629.33 203.3L601.84 187.73V156.52L601.9 156.49L629.39 140.92ZM656.71 156.66L629.39 141.19L602.07 156.66V187.6L629.39 203.07L656.71 187.6V156.66Z" stroke="white" stroke-width="0.75" stroke-miterlimit="10"/>
<path opacity="0.5" d="M520.02 140.92L520.08 140.95L547.57 156.52V187.73L547.51 187.76L520.02 203.33L519.96 203.3L492.47 187.73V156.52L492.53 156.49L520.02 140.92ZM547.34 156.66L520.02 141.19L492.7 156.66V187.6L520.02 203.07L547.34 187.6V156.66Z" stroke="white" stroke-width="0.75" stroke-miterlimit="10"/>
<path opacity="0.5" d="M492.47 187.71L492.53 187.74L520.02 203.31V234.52L519.96 234.55L492.47 250.12L492.41 250.09L464.92 234.52V203.31L464.98 203.28L492.47 187.71ZM519.79 203.45L492.47 187.98L465.15 203.45V234.39L492.47 249.86L519.79 234.39V203.45Z" stroke="white" stroke-width="0.75" stroke-miterlimit="10"/>
<path opacity="0.5" d="M547.34 187.78L547.4 187.81L574.89 203.38V234.59L574.83 234.62L547.34 250.19L547.28 250.16L519.79 234.59V203.38L519.85 203.35L547.34 187.78ZM574.66 203.52L547.34 188.05L520.02 203.52V234.46L547.34 249.93L574.66 234.46V203.52Z" stroke="white" stroke-width="0.75" stroke-miterlimit="10"/>
<path opacity="0.5" d="M602.08 187.78L602.14 187.81L629.63 203.38V234.59L629.57 234.62L602.08 250.19L602.02 250.16L574.53 234.59V203.38L574.59 203.35L602.08 187.78ZM629.4 203.52L602.08 188.05L574.76 203.52V234.46L602.08 249.93L629.4 234.46V203.52Z" stroke="white" stroke-width="0.75" stroke-miterlimit="10"/>
<path opacity="0.3" d="M209.6 652.73L209.47 652.66L151.43 619.79V553.9L151.56 553.83L209.6 520.96L209.73 521.03L267.77 553.9V619.79L267.64 619.86L209.6 652.73ZM151.93 619.5L209.6 652.16L267.27 619.5V554.18L209.6 521.52L151.93 554.18V619.5Z" stroke="#A1D8DF" stroke-miterlimit="10"/>
<path d="M671.94 652.16L671.81 652.09L613.77 619.22V553.33L613.9 553.26L671.94 520.39L672.07 520.46L730.11 553.33V619.22L729.98 619.29L671.94 652.16ZM614.27 618.93L671.94 651.59L729.61 618.93V553.61L671.94 520.95L614.27 553.61V618.93Z" stroke="#A1D8DF" stroke-miterlimit="10"/>
<path d="M633.05 364.28L669.34 384.83V425.93L633.05 446.48L596.76 425.93V384.83L633.05 364.28ZM668.1 385.53L633.05 365.68L598 385.53V425.23L633.05 445.08L668.1 425.23V385.53Z" stroke="white" stroke-width="0.75" stroke-miterlimit="10"/>
<path d="M561.71 364.28L598 384.83V425.93L561.71 446.48L525.42 425.93V384.83L561.71 364.28ZM596.76 385.53L561.71 365.68L526.66 385.53V425.23L561.71 445.08L596.76 425.23V385.53Z" stroke="white" stroke-width="0.75" stroke-miterlimit="10"/>
<path opacity="0.5" d="M636.19 176.25L672.48 196.8V237.9L636.19 258.45L599.9 237.9V196.8L636.19 176.25ZM671.24 197.5L636.19 177.65L601.14 197.5V237.2L636.19 257.05L671.24 237.2V197.5Z" stroke="white" stroke-width="0.75" stroke-miterlimit="10"/>
<path d="M495.56 336.87L495.62 336.9L523.11 352.47V383.68L523.05 383.71L495.56 399.28L495.5 399.25L468.01 383.68V352.47L468.07 352.44L495.56 336.87ZM522.88 352.61L495.56 337.14L468.24 352.61V383.55L495.56 399.02L522.88 383.55V352.61Z" stroke="#D1E6E9" stroke-miterlimit="10"/>
<path d="M523.12 383.63L523.18 383.66L550.67 399.23V430.44L550.61 430.47L523.12 446.04L523.06 446.01L495.57 430.44V399.23L495.63 399.2L523.12 383.63ZM550.44 399.37L523.12 383.9L495.8 399.37V430.31L523.12 445.78L550.44 430.31V399.37Z" stroke="#D1E6E9" stroke-miterlimit="10"/>
<path d="M468.25 383.9L468.31 383.93L495.8 399.5V430.71L495.74 430.74L468.25 446.31L468.19 446.28L440.7 430.71V399.5L440.76 399.47L468.25 383.9ZM495.57 399.64L468.25 384.17L440.93 399.64V430.58L468.25 446.05L495.57 430.58V399.64Z" stroke="#D1E6E9" stroke-miterlimit="10"/>
<path d="M413.38 383.63L413.44 383.66L440.93 399.23V430.44L440.87 430.47L413.38 446.04L413.32 446.01L385.83 430.44V399.23L385.89 399.2L413.38 383.63ZM440.7 399.37L413.38 383.9L386.06 399.37V430.31L413.38 445.78L440.7 430.31V399.37Z" stroke="#D1E6E9" stroke-miterlimit="10"/>
<path d="M385.82 430.09L385.88 430.12L413.37 445.69V476.9L413.31 476.93L385.82 492.5L385.76 492.47L358.27 476.9V445.69L358.33 445.66L385.82 430.09ZM413.14 445.83L385.82 430.36L358.5 445.83V476.77L385.82 492.24L413.14 476.77V445.83Z" stroke="#D1E6E9" stroke-miterlimit="10"/>
<path d="M330.96 430.09L331.02 430.12L358.51 445.69V476.9L358.45 476.93L330.96 492.5L330.9 492.47L303.41 476.9V445.69L303.47 445.66L330.96 430.09ZM358.28 445.83L330.96 430.36L303.64 445.83V476.77L330.96 492.24L358.28 476.77V445.83Z" stroke="#D1E6E9" stroke-miterlimit="10"/>
<path opacity="0.6" d="M358.51 383.9L358.57 383.93L386.06 399.5V430.71L386 430.74L358.51 446.31L358.45 446.28L330.96 430.71V399.5L331.02 399.47L358.51 383.9ZM385.83 399.64L358.51 384.17L331.19 399.64V430.58L358.51 446.05L385.83 430.58V399.64Z" stroke="#D1E6E9" stroke-miterlimit="10"/>
<path opacity="0.6" d="M385.71 336.79L385.77 336.82L413.26 352.39V383.6L413.2 383.63L385.71 399.2L385.65 399.17L358.16 383.6V352.39L358.22 352.36L385.71 336.79ZM413.03 352.53L385.71 337.06L358.39 352.53V383.47L385.71 398.94L413.03 383.47V352.53Z" stroke="#D1E6E9" stroke-miterlimit="10"/>
<path d="M193.66 476.29L193.72 476.32L221.21 491.89V523.1L221.15 523.13L193.66 538.7L193.6 538.67L166.11 523.1V491.89L166.17 491.86L193.66 476.29ZM220.98 492.03L193.66 476.56L166.34 492.03V522.97L193.66 538.44L220.98 522.97V492.03Z" stroke="#D1E6E9" stroke-miterlimit="10"/>
<path d="M138.8 476.29L138.86 476.32L166.35 491.89V523.1L166.29 523.13L138.8 538.7L138.74 538.67L111.25 523.1V491.89L111.31 491.86L138.8 476.29ZM166.12 492.03L138.8 476.56L111.48 492.03V522.97L138.8 538.44L166.12 522.97V492.03Z" stroke="#D1E6E9" stroke-miterlimit="10"/>
<path d="M83.9303 476.29L83.9904 476.32L111.48 491.89V523.1L111.42 523.13L83.9303 538.7L83.8704 538.67L56.3804 523.1V491.89L56.4403 491.86L83.9303 476.29ZM111.25 492.03L83.9303 476.56L56.6104 492.03V522.97L83.9303 538.44L111.25 522.97V492.03Z" stroke="#D1E6E9" stroke-miterlimit="10"/>
<path d="M28.8199 476.29L28.88 476.32L56.37 491.89V523.1L56.3099 523.13L28.8199 538.7L28.76 538.67L1.27002 523.1V491.89L1.32996 491.86L28.8199 476.29ZM56.14 492.03L28.8199 476.56L1.5 492.03V522.97L28.8199 538.44L56.14 522.97V492.03Z" stroke="#D1E6E9" stroke-miterlimit="10"/>
<path opacity="0.5" d="M330.84 336.79L330.9 336.82L358.39 352.39V383.6L358.33 383.63L330.84 399.2L330.78 399.17L303.29 383.6V352.39L303.35 352.36L330.84 336.79ZM358.16 352.53L330.84 337.06L303.52 352.53V383.47L330.84 398.94L358.16 383.47V352.53Z" stroke="#D1E6E9" stroke-miterlimit="10"/>
<path opacity="0.5" d="M166.35 430.09L166.41 430.12L193.9 445.69V476.9L193.84 476.93L166.35 492.5L166.29 492.47L138.8 476.9V445.69L138.86 445.66L166.35 430.09ZM193.67 445.83L166.35 430.36L139.03 445.83V476.77L166.35 492.24L193.67 476.77V445.83Z" stroke="#D1E6E9" stroke-miterlimit="10"/>
<path opacity="0.5" d="M111.24 429.82L111.3 429.85L138.79 445.42V476.63L138.73 476.66L111.24 492.23L111.18 492.2L83.6899 476.63V445.42L83.75 445.39L111.24 429.82ZM138.56 445.56L111.24 430.09L83.9199 445.56V476.5L111.24 491.97L138.56 476.5V445.56Z" stroke="#D1E6E9" stroke-miterlimit="10"/>
<path opacity="0.5" d="M56.3699 429.82L56.4298 429.85L83.9198 445.42V476.63L83.8599 476.66L56.3699 492.23L56.3098 492.2L28.8198 476.63V445.42L28.8799 445.39L56.3699 429.82ZM83.6898 445.56L56.3699 430.09L29.0498 445.56V476.5L56.3699 491.97L83.6898 476.5V445.56Z" stroke="#D1E6E9" stroke-miterlimit="10"/>
<path opacity="0.6" d="M358.39 290.6L358.45 290.63L385.94 306.2V337.41L385.88 337.44L358.39 353.01L358.33 352.98L330.84 337.41V306.2L330.9 306.17L358.39 290.6ZM385.71 306.34L358.39 290.87L331.07 306.34V337.28L358.39 352.75L385.71 337.28V306.34Z" stroke="#D1E6E9" stroke-miterlimit="10"/>
<path opacity="0.6" d="M331.07 244.09L331.13 244.12L358.62 259.69V290.9L358.56 290.93L331.07 306.5L331.01 306.47L303.52 290.9V259.69L303.58 259.66L331.07 244.09ZM358.39 259.83L331.07 244.36L303.75 259.83V290.77L331.07 306.24L358.39 290.77V259.83Z" stroke="#D1E6E9" stroke-miterlimit="10"/>
<path d="M248.77 476.29L248.83 476.32L276.32 491.89V523.1L276.26 523.13L248.77 538.7L248.71 538.67L221.22 523.1V491.89L221.28 491.86L248.77 476.29ZM276.09 492.03L248.77 476.56L221.45 492.03V522.97L248.77 538.44L276.09 522.97V492.03Z" stroke="#D1E6E9" stroke-miterlimit="10"/>
<path d="M414.1 476.29L414.16 476.32L441.65 491.89V523.1L441.59 523.13L414.1 538.7L414.04 538.67L386.55 523.1V491.89L386.61 491.86L414.1 476.29ZM441.42 492.03L414.1 476.56L386.78 492.03V522.97L414.1 538.44L441.42 522.97V492.03Z" stroke="#D1E6E9" stroke-miterlimit="10"/>
<path d="M440.69 522.65L440.75 522.68L468.24 538.25V569.46L468.18 569.49L440.69 585.06L440.63 585.03L413.14 569.46V538.25L413.2 538.22L440.69 522.65ZM468.01 538.39L440.69 522.92L413.37 538.39V569.33L440.69 584.8L468.01 569.33V538.39Z" stroke="#D1E6E9" stroke-miterlimit="10"/>
<path d="M495.8 522.08L495.86 522.11L523.35 537.68V568.89L523.29 568.92L495.8 584.49L495.74 584.46L468.25 568.89V537.68L468.31 537.65L495.8 522.08ZM523.12 537.82L495.8 522.35L468.48 537.82V568.76L495.8 584.23L523.12 568.76V537.82Z" stroke="#D1E6E9" stroke-miterlimit="10"/>
<path opacity="0.6" d="M276.32 430.09L276.38 430.12L303.87 445.69V476.9L303.81 476.93L276.32 492.5L276.26 492.47L248.77 476.9V445.69L248.83 445.66L276.32 430.09ZM303.64 445.83L276.32 430.36L249 445.83V476.77L276.32 492.24L303.64 476.77V445.83Z" stroke="#D1E6E9" stroke-miterlimit="10"/>
<path d="M615.28 422.08L615.41 422.15L673.45 455.02V520.91L673.32 520.98L615.28 553.85L615.15 553.78L557.11 520.91V455.02L557.24 454.95L615.28 422.08ZM672.95 455.31L615.28 422.65L557.61 455.31V520.63L615.28 553.29L672.95 520.63V455.31Z" stroke="#A1D8DF" stroke-miterlimit="10"/>
<path d="M556.61 520.39L556.74 520.46L614.78 553.33V619.22L614.65 619.29L556.61 652.16L556.48 652.09L498.44 619.22V553.33L498.57 553.26L556.61 520.39V520.39ZM614.28 553.62L556.61 520.96L498.94 553.62V618.94L556.61 651.6L614.28 618.94V553.62Z" stroke="#A1D8DF" stroke-miterlimit="10"/>
<path d="M498.94 422.08L499.07 422.15L557.11 455.02V520.91L556.98 520.98L498.94 553.85L498.81 553.78L440.77 520.91V455.02L440.9 454.95L498.94 422.08ZM556.61 455.31L498.94 422.65L441.27 455.31V520.63L498.94 553.29L556.61 520.63V455.31Z" stroke="#A1D8DF" stroke-miterlimit="10"/>
<path opacity="0.6" d="M324.94 323.73L325.07 323.8L383.11 356.67V422.56L382.98 422.63L324.94 455.5L324.81 455.43L266.77 422.56V356.67L266.9 356.6L324.94 323.73ZM382.61 356.96L324.94 324.3L267.27 356.96V422.28L324.94 454.94L382.61 422.28V356.96V356.96Z" stroke="#A1D8DF" stroke-miterlimit="10"/>
<path opacity="0.6" d="M499.45 224.71L499.58 224.78L557.62 257.65V323.54L557.49 323.61L499.45 356.48L499.32 356.41L441.28 323.54V257.65L441.41 257.58L499.45 224.71ZM557.12 257.94L499.45 225.28L441.78 257.94V323.26L499.45 355.92L557.12 323.26V257.94V257.94Z" stroke="#A1D8DF" stroke-miterlimit="10"/>
<path d="M629.08 327.74L629.14 327.77L656.63 343.34V374.55L656.57 374.58L629.08 390.15L629.02 390.12L601.53 374.55V343.34L601.59 343.31L629.08 327.74ZM656.4 343.48L629.08 328.01L601.76 343.48V374.42L629.08 389.89L656.4 374.42V343.48Z" stroke="white" stroke-miterlimit="10"/>
<path d="M601.88 281.37L601.94 281.4L629.43 296.97V328.18L629.37 328.21L601.88 343.78L601.82 343.75L574.33 328.18V296.97L574.39 296.94L601.88 281.37ZM629.2 297.11L601.88 281.64L574.56 297.11V328.05L601.88 343.52L629.2 328.05V297.11Z" stroke="white" stroke-miterlimit="10"/>
<path opacity="0.6" d="M546.54 281.37L546.6 281.4L574.09 296.97V328.18L574.03 328.21L546.54 343.78L546.48 343.75L518.99 328.18V296.97L519.05 296.94L546.54 281.37ZM573.86 297.11L546.54 281.64L519.22 297.11V328.05L546.54 343.52L573.86 328.05V297.11Z" stroke="white" stroke-miterlimit="10"/>
<path d="M464.59 327.74L464.65 327.77L492.14 343.34V374.55L492.08 374.58L464.59 390.15L464.53 390.12L437.04 374.55V343.34L437.1 343.31L464.59 327.74ZM491.91 343.48L464.59 328.01L437.27 343.48V374.42L464.59 389.89L491.91 374.42V343.48Z" stroke="white" stroke-miterlimit="10"/>
<path d="M437.28 374.17L437.34 374.2L464.83 389.77V420.98L464.77 421.01L437.28 436.58L437.22 436.55L409.73 420.98V389.77L409.79 389.74L437.28 374.17ZM464.6 389.91L437.28 374.44L409.96 389.91V420.85L437.28 436.32L464.6 420.85V389.91Z" stroke="white" stroke-miterlimit="10"/>
<path opacity="0.3" d="M409.72 327.74L409.78 327.77L437.27 343.34V374.55L437.21 374.58L409.72 390.15L409.66 390.12L382.17 374.55V343.34L382.23 343.31L409.72 327.74ZM437.04 343.48L409.72 328.01L382.4 343.48V374.42L409.72 389.89L437.04 374.42V343.48Z" stroke="white" stroke-miterlimit="10"/>
<path opacity="0.5" d="M436.56 281.37L436.62 281.4L464.11 296.97V328.18L464.05 328.21L436.56 343.78L436.5 343.75L409.01 328.18V296.97L409.07 296.94L436.56 281.37ZM463.88 297.11L436.56 281.64L409.24 297.11V328.05L436.56 343.52L463.88 328.05V297.11Z" stroke="white" stroke-miterlimit="10"/>
<path opacity="0.3" d="M381.46 281.37L381.52 281.4L409.01 296.97V328.18L408.95 328.21L381.46 343.78L381.4 343.75L353.91 328.18V296.97L353.97 296.94L381.46 281.37ZM408.78 297.11L381.46 281.64L354.14 297.11V328.05L381.46 343.52L408.78 328.05V297.11Z" stroke="white" stroke-miterlimit="10"/>
<path opacity="0.3" d="M519.7 234.59L519.76 234.62L547.25 250.19V281.4L547.19 281.43L519.7 297L519.64 296.97L492.15 281.4V250.19L492.21 250.16L519.7 234.59ZM547.02 250.33L519.7 234.86L492.38 250.33V281.27L519.7 296.74L547.02 281.27V250.33Z" stroke="white" stroke-miterlimit="10"/>
<path d="M605.54 430.16L605.6 430.19L633.09 445.76V476.97L633.03 477L605.54 492.57L605.48 492.54L577.99 476.97V445.76L578.05 445.73L605.54 430.16ZM632.86 445.9L605.54 430.43L578.22 445.9V476.84L605.54 492.31L632.86 476.84V445.9Z" stroke="#D1E6E9" stroke-miterlimit="10"/>
<path d="M633.09 476.29L633.15 476.32L660.64 491.89V523.1L660.58 523.13L633.09 538.7L633.03 538.67L605.54 523.1V491.89L605.6 491.86L633.09 476.29ZM660.41 492.03L633.09 476.56L605.77 492.03V522.97L633.09 538.44L660.41 522.97V492.03Z" stroke="#D1E6E9" stroke-miterlimit="10"/>
<path d="M605.3 522.65L605.36 522.68L632.85 538.25V569.46L632.79 569.49L605.3 585.06L605.24 585.03L577.75 569.46V538.25L577.81 538.22L605.3 522.65ZM632.62 538.39L605.3 522.92L577.98 538.39V569.33L605.3 584.8L632.62 569.33V538.39Z" stroke="#D1E6E9" stroke-miterlimit="10"/>
<path d="M577.98 383.48L578.04 383.51L605.53 399.08V430.29L605.47 430.32L577.98 445.89L577.92 445.86L550.43 430.29V399.08L550.49 399.05L577.98 383.48ZM605.3 399.22L577.98 383.75L550.66 399.22V430.16L577.98 445.63L605.3 430.16V399.22Z" stroke="#D1E6E9" stroke-miterlimit="10"/>
<path d="M605.3 337.11L605.36 337.14L632.85 352.71V383.92L632.79 383.95L605.3 399.52L605.24 399.49L577.75 383.92V352.71L577.81 352.68L605.3 337.11ZM632.62 352.85L605.3 337.38L577.98 352.85V383.79L605.3 399.26L632.62 383.79V352.85Z" stroke="#D1E6E9" stroke-miterlimit="10"/>
<path d="M577.75 290.33L577.81 290.36L605.3 305.93V337.14L605.24 337.17L577.75 352.74L577.69 352.71L550.2 337.14V305.93L550.26 305.9L577.75 290.33ZM605.07 306.07L577.75 290.6L550.43 306.07V337.01L577.75 352.48L605.07 337.01V306.07Z" stroke="#D1E6E9" stroke-miterlimit="10"/>
<path d="M632.61 290.33L632.67 290.36L660.16 305.93V337.14L660.1 337.17L632.61 352.74L632.55 352.71L605.06 337.14V305.93L605.12 305.9L632.61 290.33ZM659.93 306.07L632.61 290.6L605.29 306.07V337.01L632.61 352.48L659.93 337.01V306.07Z" stroke="#D1E6E9" stroke-miterlimit="10"/>
<path d="M605.3 243.59L605.36 243.62L632.85 259.19V290.4L632.79 290.43L605.3 306L605.24 305.97L577.75 290.4V259.19L577.81 259.16L605.3 243.59ZM632.62 259.33L605.3 243.86L577.98 259.33V290.27L605.3 305.74L632.62 290.27V259.33Z" stroke="#D1E6E9" stroke-miterlimit="10"/>
<path d="M557.11 324.27L557.24 324.34L615.28 357.21V423.1L615.15 423.17L557.11 456.04L556.98 455.97L498.94 423.1V357.21L499.07 357.14L557.11 324.27ZM614.78 357.5L557.11 324.84L499.44 357.5V422.82L557.11 455.48L614.78 422.82V357.5V357.5Z" stroke="#A1D8DF" stroke-miterlimit="10"/>
<path d="M440.93 323.73L441.06 323.8L499.1 356.67V422.56L498.97 422.63L440.93 455.5L440.8 455.43L382.76 422.56V356.67L382.89 356.6L440.93 323.73ZM498.6 356.96L440.93 324.3L383.26 356.96V422.28L440.93 454.94L498.6 422.28V356.96V356.96Z" stroke="#A1D8DF" stroke-miterlimit="10"/>
<path d="M615.28 226.14L615.41 226.21L673.45 259.08V324.97L673.32 325.04L615.28 357.91L615.15 357.84L557.11 324.97V259.08L557.24 259.01L615.28 226.14ZM672.95 259.37L615.28 226.71L557.61 259.37V324.69L615.28 357.35L672.95 324.69V259.37Z" stroke="#A1D8DF" stroke-miterlimit="10"/>
<path opacity="0.6" d="M253.6 428.92L289.89 449.47V490.57L253.6 511.12L217.31 490.57V449.47L253.6 428.92ZM288.65 450.17L253.6 430.32L218.55 450.17V489.87L230.41 496.59L253.6 509.73L288.65 489.88V450.18V450.17Z" stroke="white" stroke-width="0.75" stroke-miterlimit="10"/>
<path opacity="0.6" d="M324.94 428.92L361.23 449.47V490.57L324.94 511.12L288.65 490.57V449.47L324.94 428.92ZM359.99 450.17L324.94 430.32L289.89 450.17V489.87L301.75 496.59L324.94 509.73L359.99 489.88V450.18V450.17Z" stroke="white" stroke-width="0.75" stroke-miterlimit="10"/>
<path opacity="0.3" d="M289.15 368.35L325.44 388.9V430L289.15 450.55L252.86 430V388.9L289.15 368.35ZM324.2 389.6L289.15 369.75L254.1 389.6V429.3L265.96 436.02L289.15 449.16L324.2 429.31V389.61V389.6Z" stroke="white" stroke-width="0.75" stroke-miterlimit="10"/>
<path opacity="0.3" d="M360.66 368.93L396.95 389.48V430.58L360.66 451.13L324.37 430.58V389.48L360.66 368.93ZM395.71 390.18L360.66 370.33L325.61 390.18V429.88L337.47 436.6L360.66 449.74L395.71 429.89V390.19V390.18Z" stroke="white" stroke-width="0.75" stroke-miterlimit="10"/>
<path opacity="0.3" d="M182.26 428.92L218.55 449.47V490.57L182.26 511.12L145.97 490.57V449.47L182.26 428.92ZM217.31 450.17L182.26 430.32L147.21 450.17V489.87L159.07 496.59L182.26 509.73L217.31 489.88V450.18V450.17Z" stroke="white" stroke-width="0.75" stroke-miterlimit="10"/>
<path opacity="0.3" d="M111.24 428.92L147.53 449.47V490.57L111.24 511.12L74.9502 490.57V449.47L111.24 428.92ZM146.29 450.17L111.24 430.32L76.1902 450.17V489.87L88.0502 496.59L111.24 509.73L146.29 489.88V450.18V450.17Z" stroke="white" stroke-width="0.75" stroke-miterlimit="10"/>
<path opacity="0.6" d="M209.1 323.73L209.23 323.8L267.27 356.67V422.56L267.14 422.63L209.1 455.5L208.97 455.43L150.93 422.56V356.67L151.06 356.6L209.1 323.73ZM266.77 356.96L209.1 324.3L151.43 356.96V422.28L209.1 454.94L266.77 422.28V356.96V356.96Z" stroke="#A1D8DF" stroke-miterlimit="10"/>
<path d="M383.11 422.08L383.24 422.15L441.28 455.02V520.91L441.15 520.98L383.11 553.85L382.98 553.78L324.94 520.91V455.02L325.07 454.95L383.11 422.08ZM440.78 455.31L383.11 422.65L325.44 455.31V520.63L383.11 553.29L440.78 520.63V455.31Z" stroke="#A1D8DF" stroke-miterlimit="10"/>
<path opacity="0.6" d="M440.69 520.39L440.82 520.46L498.86 553.33V619.22L498.73 619.29L440.69 652.16L440.56 652.09L382.52 619.22V553.33L382.65 553.26L440.69 520.39V520.39ZM498.36 553.62L440.69 520.96L383.02 553.62V618.94L440.69 651.6L498.36 618.94V553.62Z" stroke="#A1D8DF" stroke-miterlimit="10"/>
<path opacity="0.6" d="M267.27 422.08L267.4 422.15L325.44 455.02V520.91L325.31 520.98L267.27 553.85L267.14 553.78L209.1 520.91V455.02L209.23 454.95L267.27 422.08ZM324.94 455.31L267.27 422.65L209.6 455.31V520.63L267.27 553.29L324.94 520.63V455.31Z" stroke="#A1D8DF" stroke-miterlimit="10"/>
<path opacity="0.5" d="M481.92 731.12L481.98 731.15L509.67 746.36L510.07 777.57L510.01 777.6L482.72 793.53L482.66 793.5L454.97 778.29L454.57 747.08L454.63 747.05L481.92 731.12ZM509.44 746.5L481.93 731.39L454.82 747.21L455.22 778.15L482.73 793.26L509.84 777.44L509.44 746.5V746.5Z" stroke="white" stroke-width="0.75" stroke-miterlimit="10"/>
<path opacity="0.5" d="M453.63 684.91L453.69 684.94L481.38 700.15L481.78 731.36L481.72 731.39L454.43 747.32L454.37 747.29L426.68 732.08L426.28 700.87L426.34 700.84L453.63 684.91ZM481.15 700.29L453.64 685.18L426.53 701L426.93 731.94L454.44 747.05L481.55 731.23L481.15 700.29Z" stroke="white" stroke-width="0.75" stroke-miterlimit="10"/>
<path opacity="0.5" d="M452.79 591.12L452.85 591.15L480.54 606.36L480.94 637.57L480.88 637.6L453.59 653.53L453.53 653.5L425.84 638.29L425.44 607.08L425.5 607.05L452.79 591.12V591.12ZM480.31 606.5L452.8 591.39L425.69 607.21L426.09 638.15L453.6 653.26L480.71 637.44L480.31 606.5Z" stroke="white" stroke-width="0.75" stroke-miterlimit="10"/>
<path opacity="0.5" d="M509.9 777.82L509.96 777.85L537.65 793.06L538.05 824.27L537.99 824.3L510.7 840.23L510.64 840.2L482.95 824.99L482.55 793.78L482.61 793.75L509.9 777.82V777.82ZM537.42 793.2L509.91 778.09L482.8 793.91L483.2 824.85L510.71 839.96L537.82 824.14L537.42 793.2Z" stroke="white" stroke-width="0.75" stroke-miterlimit="10"/>
<path opacity="0.6" d="M469.58 754.71L469.64 754.74L497.33 769.95L497.73 801.16L497.67 801.19L470.38 817.12L470.32 817.09L442.63 801.88L442.23 770.67L442.29 770.64L469.58 754.71ZM497.1 770.09L469.59 754.98L442.48 770.8L442.88 801.74L470.39 816.85L497.5 801.03L497.1 770.09Z" stroke="#D1E6E9" stroke-miterlimit="10"/>
<path d="M524.44 754.18L524.5 754.21L552.19 769.42L552.59 800.63L552.53 800.66L525.24 816.59L525.18 816.56L497.49 801.35L497.09 770.14L497.15 770.11L524.44 754.18V754.18ZM551.96 769.56L524.45 754.45L497.34 770.27L497.74 801.21L525.25 816.32L552.36 800.5L551.96 769.56V769.56Z" stroke="#D1E6E9" stroke-miterlimit="10"/>
<path opacity="0.6" d="M443.11 802.14L443.17 802.17L470.86 817.38L471.26 848.59L471.2 848.62L443.91 864.55L443.85 864.52L416.16 849.31L415.76 818.1L415.82 818.07L443.11 802.14ZM470.63 817.52L443.12 802.41L416.01 818.23L416.41 849.17L443.92 864.28L471.03 848.46L470.63 817.52Z" stroke="#D1E6E9" stroke-miterlimit="10"/>
<path opacity="0.3" d="M416.41 849.54L416.47 849.57L444.16 864.78L444.56 895.99L444.5 896.02L417.21 911.95L417.15 911.92L389.46 896.71L389.06 865.5L389.12 865.47L416.41 849.54ZM443.93 864.92L416.42 849.81L389.31 865.63L389.71 896.57L417.22 911.68L444.33 895.86L443.93 864.92Z" stroke="#D1E6E9" stroke-miterlimit="10"/>
<path d="M441.42 708.21L441.48 708.24L469.17 723.45L469.57 754.66L469.51 754.69L442.22 770.62L442.16 770.59L414.47 755.38L414.07 724.17L414.13 724.14L441.42 708.21ZM468.94 723.59L441.43 708.48L414.32 724.3L414.72 755.24L442.23 770.35L469.34 754.53L468.94 723.59Z" stroke="#D1E6E9" stroke-miterlimit="10"/>
<path d="M550.39 613.63L550.45 613.66L578.14 628.87L578.54 660.08L578.48 660.11L551.19 676.04L551.13 676.01L523.44 660.8L523.04 629.59L523.1 629.56L550.39 613.63ZM577.91 629.01L550.4 613.9L523.29 629.72L523.69 660.66L551.2 675.77L578.31 659.95L577.91 629.01V629.01Z" stroke="#D1E6E9" stroke-miterlimit="10"/>
<path d="M496.52 707.49L496.58 707.52L524.27 722.73L524.67 753.94L524.61 753.97L497.32 769.9L497.26 769.87L469.57 754.66L469.17 723.45L469.23 723.42L496.52 707.49ZM524.04 722.87L496.53 707.76L469.42 723.58L469.82 754.52L497.33 769.63L524.44 753.81L524.04 722.87Z" stroke="#D1E6E9" stroke-miterlimit="10"/>
<path d="M468.6 661.21L468.66 661.24L496.35 676.45L496.75 707.66L496.69 707.69L469.4 723.62L469.34 723.59L441.65 708.38L441.25 677.17L441.31 677.14L468.6 661.21V661.21ZM496.12 676.59L468.61 661.48L441.5 677.3L441.9 708.24L469.41 723.35L496.52 707.53L496.12 676.59Z" stroke="#D1E6E9" stroke-miterlimit="10"/>
<path d="M495.08 614.62L495.14 614.65L522.83 629.86L523.23 661.07L523.17 661.1L495.88 677.03L495.82 677L468.13 661.79L467.73 630.58L467.79 630.55L495.08 614.62V614.62ZM522.6 630L495.09 614.89L467.98 630.71L468.38 661.65L495.89 676.76L523 660.94L522.6 630V630Z" stroke="#D1E6E9" stroke-miterlimit="10"/>
<path d="M440.21 615.33L440.27 615.36L467.96 630.57L468.36 661.78L468.3 661.81L441.01 677.74L440.95 677.71L413.26 662.5L412.86 631.29L412.92 631.26L440.21 615.33V615.33ZM467.73 630.71L440.22 615.6L413.11 631.42L413.51 662.36L441.02 677.47L468.13 661.65L467.73 630.71V630.71Z" stroke="#D1E6E9" stroke-miterlimit="10"/>
<path opacity="0.6" d="M672.44 1044.76L672.31 1044.69L614.27 1011.82V945.93L614.4 945.86L672.44 912.99L672.57 913.06L730.61 945.93V1011.82L730.48 1011.89L672.44 1044.76ZM614.77 1011.53L672.44 1044.19L730.11 1011.53V946.21L672.44 913.55L614.77 946.21V1011.53Z" stroke="#A1D8DF" stroke-miterlimit="10"/>
<path opacity="0.6" d="M557.61 1044.89L557.48 1044.82L499.44 1011.95V946.06L499.57 945.99L557.61 913.12L557.74 913.19L615.78 946.06V1011.95L615.65 1012.02L557.61 1044.89ZM499.94 1011.66L557.61 1044.32L615.28 1011.66V946.34L557.61 913.68L499.94 946.34V1011.66Z" stroke="#A1D8DF" stroke-miterlimit="10"/>
<path opacity="0.3" d="M500.28 1143.42L500.15 1143.35L442.11 1110.48V1044.59L442.24 1044.52L500.28 1011.65L500.41 1011.72L558.45 1044.59V1110.48L558.32 1110.55L500.28 1143.42ZM442.61 1110.19L500.28 1142.85L557.95 1110.19V1044.87L500.28 1012.21L442.61 1044.87V1110.19V1110.19Z" stroke="#A1D8DF" stroke-miterlimit="10"/>
<path opacity="0.3" d="M615.78 1143.42L615.65 1143.35L557.61 1110.48V1044.59L557.74 1044.52L615.78 1011.65L615.91 1011.72L673.95 1044.59V1110.48L673.82 1110.55L615.78 1143.42ZM558.11 1110.19L615.78 1142.85L673.45 1110.19V1044.87L615.78 1012.21L558.11 1044.87V1110.19V1110.19Z" stroke="#A1D8DF" stroke-miterlimit="10"/>
<path opacity="0.3" d="M382.52 749.94L382.39 749.87L324.35 717V651.11L324.48 651.04L382.52 618.17L382.65 618.24L440.69 651.11V717L440.56 717.07L382.52 749.94V749.94ZM324.85 716.71L382.52 749.37L440.19 716.71V651.4L382.52 618.74L324.85 651.4V716.72V716.71Z" stroke="#A1D8DF" stroke-miterlimit="10"/>
<path opacity="0.3" d="M209.6 652.09L209.47 652.02L151.43 619.15V553.25L151.56 553.18L209.6 520.31L209.73 520.38L267.77 553.25V619.14L267.64 619.21L209.6 652.08V652.09ZM151.93 618.86L209.6 651.52L267.27 618.86V553.54L209.6 520.88L151.93 553.54V618.86V618.86Z" stroke="#A1D8DF" stroke-miterlimit="10"/>
<path d="M671.94 651.51L671.81 651.44L613.77 618.57V552.68L613.9 552.61L671.94 519.74L672.07 519.81L730.11 552.68V618.57L729.98 618.64L671.94 651.51ZM614.27 618.28L671.94 650.94L729.61 618.28V552.97L671.94 520.31L614.27 552.97V618.29V618.28Z" stroke="#A1D8DF" stroke-miterlimit="10"/>
<path d="M614.28 946.68L614.15 946.61L556.11 913.74V847.85L556.24 847.78L614.28 814.91L614.41 814.98L672.45 847.85V913.74L672.32 913.81L614.28 946.68ZM556.61 913.45L614.28 946.11L671.95 913.45V848.13L614.28 815.47L556.61 848.13V913.45Z" stroke="#A1D8DF" stroke-miterlimit="10"/>
<path d="M671.94 848.2L671.81 848.13L613.77 815.26V749.37L613.9 749.3L671.94 716.43L672.07 716.5L730.11 749.37V815.26L729.98 815.33L671.94 848.2ZM614.27 814.97L671.94 847.63L729.61 814.97V749.65L671.94 716.99L614.27 749.65V814.97Z" stroke="#A1D8DF" stroke-miterlimit="10"/>
<path opacity="0.5" d="M555.17 863.13V863.2L556.61 894.76L530.18 911.36L530.12 911.33L502.31 896.33V896.26L500.87 864.7L527.3 848.1L527.36 848.13L555.17 863.13ZM556.37 894.63L554.94 863.27L527.31 848.37L501.11 864.83L502.54 896.19L530.17 911.09L556.37 894.63Z" stroke="#D1E6E9" stroke-miterlimit="10"/>
<path opacity="0.5" d="M579.99 815.32V815.39L581.43 846.95L555 863.55L554.94 863.52L527.13 848.52V848.45L525.69 816.89L552.12 800.29L552.18 800.32L579.99 815.32ZM581.19 846.82L579.76 815.46L552.13 800.56L525.93 817.02L527.36 848.38L554.99 863.28L581.19 846.82Z" stroke="#D1E6E9" stroke-miterlimit="10"/>
<path d="M193.66 475.64L193.72 475.67L221.21 491.24V522.45L221.15 522.48L193.66 538.05L193.6 538.02L166.11 522.45V491.24L166.17 491.21L193.66 475.64ZM220.98 491.38L193.66 475.91L166.34 491.38V522.32L193.66 537.79L220.98 522.32V491.38Z" stroke="#D1E6E9" stroke-miterlimit="10"/>
<path d="M138.8 475.64L138.86 475.67L166.35 491.24V522.45L166.29 522.48L138.8 538.05L138.74 538.02L111.25 522.45V491.24L111.31 491.21L138.8 475.64ZM166.12 491.38L138.8 475.91L111.48 491.38V522.32L138.8 537.79L166.12 522.32V491.38Z" stroke="#D1E6E9" stroke-miterlimit="10"/>
<path d="M83.9303 475.64L83.9904 475.67L111.48 491.24V522.45L111.42 522.48L83.9303 538.05L83.8704 538.02L56.3804 522.45V491.24L56.4403 491.21L83.9303 475.64ZM111.25 491.38L83.9303 475.91L56.6104 491.38V522.32L83.9303 537.79L111.25 522.32V491.38Z" stroke="#D1E6E9" stroke-miterlimit="10"/>
<path d="M28.8199 475.64L28.88 475.67L56.37 491.24V522.45L56.3099 522.48L28.8199 538.05L28.76 538.02L1.27002 522.45V491.24L1.32996 491.21L28.8199 475.64ZM56.14 491.38L28.8199 475.91L1.5 491.38V522.32L28.8199 537.79L56.14 522.32V491.38Z" stroke="#D1E6E9" stroke-miterlimit="10"/>
<path d="M248.77 475.64L248.83 475.67L276.32 491.24V522.45L276.26 522.48L248.77 538.05L248.71 538.02L221.22 522.45V491.24L221.28 491.21L248.77 475.64ZM276.09 491.38L248.77 475.91L221.45 491.38V522.32L248.77 537.79L276.09 522.32V491.38Z" stroke="#D1E6E9" stroke-miterlimit="10"/>
<path d="M414.1 475.64L414.16 475.67L441.65 491.24V522.45L441.59 522.48L414.1 538.05L414.04 538.02L386.55 522.45V491.24L386.61 491.21L414.1 475.64ZM441.42 491.38L414.1 475.91L386.78 491.38V522.32L414.1 537.79L441.42 522.32V491.38Z" stroke="#D1E6E9" stroke-miterlimit="10"/>
<path d="M440.69 522L440.75 522.03L468.24 537.6V568.81L468.18 568.84L440.69 584.41L440.63 584.38L413.14 568.81V537.6L413.2 537.57L440.69 522ZM468.01 537.74L440.69 522.27L413.37 537.74V568.68L440.69 584.15L468.01 568.68V537.74V537.74Z" stroke="#D1E6E9" stroke-miterlimit="10"/>
<path opacity="0.6" d="M413.14 568.3L413.2 568.33L440.69 583.9V615.11L440.63 615.14L413.14 630.71L413.08 630.68L385.59 615.11V583.9L385.65 583.87L413.14 568.3V568.3ZM440.46 584.04L413.14 568.57L385.82 584.04V614.98L413.14 630.45L440.46 614.98V584.04V584.04Z" stroke="#D1E6E9" stroke-miterlimit="10"/>
<path d="M495.8 521.43L495.86 521.46L523.35 537.03V568.24L523.29 568.27L495.8 583.84L495.74 583.81L468.25 568.24V537.03L468.31 537L495.8 521.43ZM523.12 537.17L495.8 521.7L468.48 537.17V568.11L495.8 583.58L523.12 568.11V537.17V537.17Z" stroke="#D1E6E9" stroke-miterlimit="10"/>
<path opacity="0.6" d="M467.72 568.3L467.78 568.33L495.27 583.9V615.11L495.21 615.14L467.72 630.71L467.66 630.68L440.17 615.11V583.9L440.23 583.87L467.72 568.3V568.3ZM495.04 584.04L467.72 568.57L440.4 584.04V614.98L467.72 630.45L495.04 614.98V584.04V584.04Z" stroke="#D1E6E9" stroke-miterlimit="10"/>
<path d="M615.28 421.43L615.41 421.5L673.45 454.37V520.26L673.32 520.33L615.28 553.2L615.15 553.13L557.11 520.26V454.38L557.24 454.31L615.28 421.44V421.43ZM672.95 454.66L615.28 422L557.61 454.66V519.98L615.28 552.64L672.95 519.98V454.66Z" stroke="#A1D8DF" stroke-miterlimit="10"/>
<path d="M556.61 519.74L556.74 519.81L614.78 552.68V618.57L614.65 618.64L556.61 651.51L556.48 651.44L498.44 618.57V552.68L498.57 552.61L556.61 519.74ZM614.28 552.97L556.61 520.31L498.94 552.97V618.29L556.61 650.95L614.28 618.29V552.97V552.97Z" stroke="#A1D8DF" stroke-miterlimit="10"/>
<path d="M614.27 618.17L614.4 618.24L672.44 651.11V717L672.31 717.07L614.27 749.94L614.14 749.87L556.1 717V651.11L556.23 651.04L614.27 618.17V618.17ZM671.94 651.4L614.27 618.74L556.6 651.4V716.72L614.27 749.38L671.94 716.72V651.4V651.4Z" stroke="#A1D8DF" stroke-miterlimit="10"/>
<path d="M498.94 421.43L499.07 421.5L557.11 454.37V520.26L556.98 520.33L498.94 553.2L498.81 553.13L440.77 520.26V454.38L440.9 454.31L498.94 421.44V421.43ZM556.61 454.66L498.94 422L441.27 454.66V519.98L498.94 552.64L556.61 519.98V454.66Z" stroke="#A1D8DF" stroke-miterlimit="10"/>
<path d="M633.09 475.64L633.15 475.67L660.64 491.24V522.45L660.58 522.48L633.09 538.05L633.03 538.02L605.54 522.45V491.24L605.6 491.21L633.09 475.64ZM660.41 491.38L633.09 475.91L605.77 491.38V522.32L633.09 537.79L660.41 522.32V491.38Z" stroke="#D1E6E9" stroke-miterlimit="10"/>
<path d="M605.3 522L605.36 522.03L632.85 537.6V568.81L632.79 568.84L605.3 584.41L605.24 584.38L577.75 568.81V537.6L577.81 537.57L605.3 522ZM632.62 537.74L605.3 522.27L577.98 537.74V568.68L605.3 584.15L632.62 568.68V537.74V537.74Z" stroke="#D1E6E9" stroke-miterlimit="10"/>
<path d="M633.09 568.3L633.15 568.33L660.64 583.9V615.11L660.58 615.14L633.09 630.71L633.03 630.68L605.54 615.11V583.9L605.6 583.87L633.09 568.3V568.3ZM660.41 584.04L633.09 568.57L605.77 584.04V614.98L633.09 630.45L660.41 614.98V584.04V584.04Z" stroke="#D1E6E9" stroke-miterlimit="10"/>
<path d="M383.11 421.43L383.24 421.5L441.28 454.37V520.26L441.15 520.33L383.11 553.2L382.98 553.13L324.94 520.26V454.38L325.07 454.31L383.11 421.44V421.43ZM440.78 454.66L383.11 422L325.44 454.66V519.98L383.11 552.64L440.78 519.98V454.66Z" stroke="#A1D8DF" stroke-miterlimit="10"/>
<path opacity="0.6" d="M440.69 519.74L440.82 519.81L498.86 552.68V618.57L498.73 618.64L440.69 651.51L440.56 651.44L382.52 618.57V552.68L382.65 552.61L440.69 519.74ZM498.36 552.97L440.69 520.31L383.02 552.97V618.29L440.69 650.95L498.36 618.29V552.97V552.97Z" stroke="#A1D8DF" stroke-miterlimit="10"/>
<path opacity="0.6" d="M267.27 421.43L267.4 421.5L325.44 454.37V520.26L325.31 520.33L267.27 553.2L267.14 553.13L209.1 520.26V454.38L209.23 454.31L267.27 421.44V421.43ZM324.94 454.66L267.27 422L209.6 454.66V519.98L267.27 552.64L324.94 519.98V454.66Z" stroke="#A1D8DF" stroke-miterlimit="10"/>
</svg>
