<svg width="50" height="50" viewBox="0 0 50 50" fill="none" xmlns="http://www.w3.org/2000/svg">
<path d="M23.4602 44.7701L18.7402 42.5401L19.3702 41.3601C21.9202 36.2101 27.9602 33.9901 33.1202 36.5401L37.8402 38.7701L37.2102 39.9501C34.8102 45.1101 28.6202 47.1701 23.4602 44.7701Z" fill="#A1D8DF"/>
<path d="M25.15 41.0099L20.31 41.3299L20.25 40.1599C19.97 34.7499 24.03 30.1599 29.39 30.0099L34.23 29.6899L34.29 30.8599C34.61 36.1399 30.55 40.7299 25.15 41.0099V41.0099Z" fill="#D1E6E9"/>
<path d="M23.0402 45.78H13.5802V12.45L2.24023 15.76V8.67003L21.8602 2.28003H22.8102V45.78H23.0502H23.0402Z" fill="#30ACC2"/>
</svg>
