<svg width="50" height="50" viewBox="0 0 50 50" fill="none" xmlns="http://www.w3.org/2000/svg">
<path d="M31.3202 45.48L26.4902 43.5L27.0602 42.29C29.3202 37.01 35.2402 34.47 40.5302 36.74L45.3602 38.72L44.7902 39.93C42.6802 45.21 36.6102 47.6 31.3202 45.48Z" fill="#A1D8DF"/>
<path d="M31.66 43.1499L26.96 43.5999L26.87 42.4699C26.44 37.2199 30.25 32.6399 35.47 32.3299L40.17 31.8799L40.26 33.0099C40.73 38.1299 36.91 42.7199 31.66 43.1499V43.1499Z" fill="#D1E6E9"/>
<path d="M33.9296 46.7199H2.23957V40.9399L17.2796 26.1399C19.3596 24.0599 20.9796 22.2099 21.9096 20.8199C22.8396 19.1999 23.2996 17.8099 23.2996 16.4199C23.2996 14.5699 22.8396 12.9499 21.6796 12.0199C20.5196 10.8599 19.1396 10.3999 17.2796 10.3999C15.1996 10.3999 13.5796 11.0899 12.4196 12.4799C11.2596 13.8699 10.5696 15.4899 10.5696 17.7999H1.30957C1.30957 15.2599 1.99957 12.7099 3.38957 10.6299C4.77957 8.54994 6.62957 6.69994 9.16957 5.53994C11.7096 4.37994 14.4896 3.68994 17.4996 3.68994C22.3596 3.68994 26.0596 4.84994 28.5996 6.92994C31.1396 9.00994 32.5296 12.0199 32.5296 15.9499C32.5296 18.0299 31.8396 20.1099 30.6796 22.4299C29.5196 24.7499 27.4396 27.2899 24.6696 30.0599L14.0296 40.2399H33.9196V46.7199H33.9296Z" fill="#30ACC2"/>
</svg>
