<svg width="50" height="50" viewBox="0 0 50 50" fill="none" xmlns="http://www.w3.org/2000/svg">
<path d="M33.8097 12.99L32.2197 9.50001L33.1697 9.34001C34.4397 3.00001 42.0497 11.56 44.1097 15.37L45.6997 18.86L44.7497 19.02C40.4697 19.65 35.5497 16.96 33.8097 12.99V12.99Z" fill="#30ACC2"/>
<path d="M6.85984 40.9C7.96984 33.13 13.5198 27.58 19.8598 27.58H29.3698C35.8698 27.58 41.2598 33.13 42.3698 40.9L43.6398 48.83H5.58984L6.85984 40.9V40.9Z" fill="#A1D8DF"/>
<path d="M29.5297 27.4199L31.1197 32.1699H27.9497L24.7697 38.5199L21.5997 32.1699H18.4297L20.0197 27.4199H29.5297Z" fill="#68C7D3"/>
<path d="M27.9496 24.25V27.42L27.3096 28.69L24.7696 33.76L22.2396 28.69L21.5996 27.42V24.25H27.9496Z" fill="#D1E6E9"/>
<path d="M15.2598 11.5601C13.5198 11.5601 12.0898 12.9901 12.0898 14.7301C12.0898 16.4701 13.5198 17.9001 15.2598 17.9001H34.2898C36.0298 17.9001 37.4598 16.4701 37.4598 14.7301C37.4598 12.9901 36.0298 11.5601 34.2898 11.5601H15.2598V11.5601Z" fill="#D1E6E9"/>
<path d="M15.2598 8.39001H34.2898V16.32C34.2898 21.55 30.0098 25.83 24.7798 25.83C19.5498 25.83 15.2698 21.55 15.2698 16.32V8.39001H15.2598Z" fill="#D1E6E9"/>
<path d="M28.1005 1.26L23.9805 4.43C23.9805 9.66 28.7405 12.67 33.4905 13.94H35.0805V9.18C35.0805 6.48 30.6405 1.25 28.1005 1.25V1.26Z" fill="#30ACC2"/>
<path d="M14.79 13.15H19.55C21.77 13.15 24.78 11.88 26.53 10.14C31.76 4.91001 32.08 3.80001 28.12 1.26001H23.2C18.6 1.26001 14.8 5.07001 14.8 9.66001V13.15H14.79Z" fill="#30ACC2"/>
<path d="M32.0704 47.24C33.3849 47.24 34.4504 46.1744 34.4504 44.86C34.4504 43.5455 33.3849 42.48 32.0704 42.48C30.756 42.48 29.6904 43.5455 29.6904 44.86C29.6904 46.1744 30.756 47.24 32.0704 47.24Z" fill="#D1E6E9"/>
<path d="M15.2599 38.52C16.5743 38.52 17.6399 37.4544 17.6399 36.14C17.6399 34.8256 16.5743 33.76 15.2599 33.76C13.9454 33.76 12.8799 34.8256 12.8799 36.14C12.8799 37.4544 13.9454 38.52 15.2599 38.52Z" fill="#D1E6E9"/>
<path d="M24.7696 40.9C26.0841 40.9 27.1496 39.8345 27.1496 38.52C27.1496 37.2056 26.0841 36.14 24.7696 36.14C23.4552 36.14 22.3896 37.2056 22.3896 38.52C22.3896 39.8345 23.4552 40.9 24.7696 40.9Z" fill="#A1D8DF"/>
<path d="M36.0304 37.73C37.3448 37.73 38.4104 36.6644 38.4104 35.35C38.4104 34.0355 37.3448 32.97 36.0304 32.97C34.716 32.97 33.6504 34.0355 33.6504 35.35C33.6504 36.6644 34.716 37.73 36.0304 37.73Z" fill="#30ACC2"/>
<path d="M39.84 45.66C40.7181 45.66 41.43 44.9481 41.43 44.07C41.43 43.1918 40.7181 42.48 39.84 42.48C38.9619 42.48 38.25 43.1918 38.25 44.07C38.25 44.9481 38.9619 45.66 39.84 45.66Z" fill="#D1E6E9"/>
<path d="M21.7599 42.4901C22.6381 42.4901 23.3499 41.7782 23.3499 40.9001C23.3499 40.0219 22.6381 39.3101 21.7599 39.3101C20.8818 39.3101 20.1699 40.0219 20.1699 40.9001C20.1699 41.7782 20.8818 42.4901 21.7599 42.4901Z" fill="#30ACC2"/>
<path d="M9.71012 44.8601C10.5883 44.8601 11.3001 44.1482 11.3001 43.2701C11.3001 42.3919 10.5883 41.6801 9.71012 41.6801C8.83198 41.6801 8.12012 42.3919 8.12012 43.2701C8.12012 44.1482 8.83198 44.8601 9.71012 44.8601Z" fill="#30ACC2"/>
<path d="M16.3703 47.2401C17.2484 47.2401 17.9603 46.5282 17.9603 45.6501C17.9603 44.7719 17.2484 44.0601 16.3703 44.0601C15.4921 44.0601 14.7803 44.7719 14.7803 45.6501C14.7803 46.5282 15.4921 47.2401 16.3703 47.2401Z" fill="#D1E6E9"/>
<path d="M33.6504 8.71006C33.6504 7.76006 33.8104 6.97006 34.2804 6.81006C34.7604 6.81006 35.2304 7.44006 35.3904 8.40006C35.5504 9.35006 35.5504 11.1001 35.3904 11.5701C34.6004 13.7901 33.6504 10.4601 33.6504 8.72006V8.71006Z" fill="#A1D8DF"/>
</svg>
