<svg width="61" height="61" viewBox="0 0 61 61" fill="none" xmlns="http://www.w3.org/2000/svg">
<path d="M60.9328 30.4574C60.9328 35.8298 59.4378 41.0811 56.6497 45.6861C53.9829 50.2102 50.2251 54.0073 45.6996 56.633C41.0933 59.3798 35.8404 60.8744 30.4664 60.9148C13.6573 60.9148 0 47.2615 0 30.4574C0 25.0849 1.49504 19.8337 4.28308 15.2287C6.9499 10.7045 10.7077 6.90744 15.2332 4.28181C19.8395 1.53499 25.0924 0.0403944 30.4664 0C47.2754 0 60.9328 13.6533 60.9328 30.4574V30.4574Z" fill="#68C7D3"/>
<path d="M30.4662 54.7748C43.9004 54.7748 54.7909 43.8875 54.7909 30.4573C54.7909 17.0272 43.9004 6.13989 30.4662 6.13989C17.0321 6.13989 6.1416 17.0272 6.1416 30.4573C6.1416 43.8875 17.0321 54.7748 30.4662 54.7748Z" fill="white"/>
<path d="M30.4665 47.8271C40.2409 47.8271 48.1645 40.0504 48.1645 30.4575C48.1645 20.8645 40.2409 13.0879 30.4665 13.0879C20.6922 13.0879 12.7686 20.8645 12.7686 30.4575C12.7686 40.0504 20.6922 47.8271 30.4665 47.8271Z" fill="#68C7D3"/>
<path d="M30.466 42.616C37.1831 42.616 42.6284 37.1724 42.6284 30.4573C42.6284 23.7422 37.1831 18.2986 30.466 18.2986C23.749 18.2986 18.3037 23.7422 18.3037 30.4573C18.3037 37.1724 23.749 42.616 30.466 42.616Z" fill="white"/>
<path d="M37.538 27.9932H22.8301V32.8809H37.538V27.9932Z" fill="#68C7D3"/>
<path d="M32.648 23.1055H27.7588V37.809H32.648V23.1055Z" fill="#68C7D3"/>
</svg>
