<svg width="311" height="230" viewBox="0 0 311 230" fill="none" xmlns="http://www.w3.org/2000/svg">
<path d="M19.2693 50.1455L11.502 57.4541L69.7622 119.262L77.5296 111.954L19.2693 50.1455Z" fill="#D1E6E9"/>
<path d="M132.013 92.2061L127.28 82.9575L69.5595 112.45L74.2921 121.699L132.013 92.2061Z" fill="#D1E6E9"/>
<path d="M261.479 146.068L263 135.792L180.179 123.57L178.658 133.847L261.479 146.068Z" fill="#D1E6E9"/>
<path d="M178.262 132.275L184.711 124.125L133.861 83.9639L127.412 92.1139L178.262 132.275Z" fill="#D1E6E9"/>
<path d="M268.752 140.403L260.763 147.052L302.246 196.813L310.236 190.164L268.752 140.403Z" fill="#D1E6E9"/>
<path d="M75.0968 124.132C79.5108 123.616 82.6709 119.622 82.155 115.212C81.6391 110.802 77.6426 107.646 73.2286 108.162C68.8146 108.679 65.6545 112.672 66.1704 117.082C66.6863 121.492 70.6828 124.649 75.0968 124.132Z" fill="#A1D8DF"/>
<path d="M131.345 95.2705C135.759 94.7542 138.919 90.7606 138.403 86.3506C137.887 81.9407 133.891 78.7843 129.477 79.3006C125.063 79.817 121.903 83.8106 122.418 88.2205C122.934 92.6305 126.931 95.7869 131.345 95.2705Z" fill="#A1D8DF"/>
<path d="M263.717 149.086C268.131 148.57 271.291 144.576 270.775 140.166C270.259 135.756 266.263 132.6 261.849 133.116C257.435 133.633 254.275 137.626 254.791 142.036C255.306 146.446 259.303 149.603 263.717 149.086Z" fill="#A1D8DF"/>
<path d="M182.971 136.614C187.385 136.098 190.545 132.104 190.029 127.694C189.513 123.284 185.517 120.128 181.103 120.644C176.689 121.161 173.529 125.154 174.044 129.564C174.56 133.974 178.557 137.13 182.971 136.614Z" fill="#A1D8DF"/>
<path d="M0.331055 34.3838L26.386 49.3432L9.33074 63.0704L0.331055 34.3838Z" fill="#30ACC2"/>
</svg>
