<svg width="166" height="104" viewBox="0 0 166 104" fill="none" xmlns="http://www.w3.org/2000/svg">
<path d="M160.199 14.753L155.182 11.1487L126.305 50.8861L131.322 54.4904L160.199 14.753Z" fill="#D1E6E9"/>
<path d="M126.68 56.3344L129.499 51.0318L96.2484 33.5568L93.4295 38.8594L126.68 56.3344Z" fill="#D1E6E9"/>
<path d="M71.3016 67.8256L70.6396 61.8641L22.3608 67.1637L23.0228 73.1252L71.3016 67.8256Z" fill="#D1E6E9"/>
<path d="M98.5059 36.6259L93.9155 32.7346L69.5152 61.1909L74.1055 65.0821L98.5059 36.6259Z" fill="#D1E6E9"/>
<path d="M24.0287 71.6153L18.8047 68.6165L2.87002e-05 101.001L5.22405 104L24.0287 71.6153Z" fill="#D1E6E9"/>
<path d="M128.391 57.8913C130.969 57.8913 133.059 55.8131 133.059 53.2495C133.059 50.686 130.969 48.6078 128.391 48.6078C125.812 48.6078 123.722 50.686 123.722 53.2495C123.722 55.8131 125.812 57.8913 128.391 57.8913Z" fill="#A1D8DF"/>
<path d="M95.3449 41.0976C97.9232 41.0976 100.013 39.0194 100.013 36.4558C100.013 33.8923 97.9232 31.8141 95.3449 31.8141C92.7666 31.8141 90.6765 33.8923 90.6765 36.4558C90.6765 39.0194 92.7666 41.0976 95.3449 41.0976Z" fill="#A1D8DF"/>
<path d="M21.6474 74.8935C24.2257 74.8935 26.3158 72.8154 26.3158 70.2518C26.3158 67.6882 24.2257 65.6101 21.6474 65.6101C19.0691 65.6101 16.979 67.6882 16.979 70.2518C16.979 72.8154 19.0691 74.8935 21.6474 74.8935Z" fill="#A1D8DF"/>
<path d="M70.3244 69.5738C72.9027 69.5738 74.9928 67.4957 74.9928 64.9321C74.9928 62.3685 72.9027 60.2904 70.3244 60.2904C67.7461 60.2904 65.656 62.3685 65.656 64.9321C65.656 67.4957 67.7461 69.5738 70.3244 69.5738Z" fill="#A1D8DF"/>
<path d="M166 0L151.995 10.3787L162.748 17.0544L166 0Z" fill="#30ACC2"/>
</svg>
