<svg width="87" height="51" viewBox="0 0 87 51" fill="none" xmlns="http://www.w3.org/2000/svg">
<g clip-path="url(#clip0_208_537)">
<path d="M10.9692 11.2585L6.04297 14.9918L21.2636 35.89L26.1898 32.1567L10.9692 11.2585Z" fill="#D1E6E9"/>
<path d="M58.4937 23.8987L56.408 18.1808L21.4589 31.4461L23.5446 37.1641L58.4937 23.8987Z" fill="#D1E6E9"/>
<path d="M82.2391 50.4281L86.4683 46.1141L60.1001 19.2169L55.871 23.5309L82.2391 50.4281Z" fill="#D1E6E9"/>
<path d="M23.8414 38.6384C26.3978 38.6384 28.4702 36.5245 28.4702 33.9168C28.4702 31.3091 26.3978 29.1951 23.8414 29.1951C21.285 29.1951 19.2126 31.3091 19.2126 33.9168C19.2126 36.5245 21.285 38.6384 23.8414 38.6384Z" fill="#A1D8DF"/>
<path d="M57.9071 25.6406C60.4635 25.6406 62.5358 23.5266 62.5358 20.9189C62.5358 18.3112 60.4635 16.1973 57.9071 16.1973C55.3507 16.1973 53.2783 18.3112 53.2783 20.9189C53.2783 23.5266 55.3507 25.6406 57.9071 25.6406Z" fill="#A1D8DF"/>
<path d="M1.2019 0.771759L15.0882 11.2761L4.42644 18.1198L1.2019 0.771759Z" fill="#30ACC2"/>
</g>
<defs>
<clipPath id="clip0_208_537">
<rect width="86" height="50" fill="white" transform="translate(0.790039 0.733704)"/>
</clipPath>
</defs>
</svg>
