<svg width="615" height="1142" viewBox="0 0 615 1142" fill="none" xmlns="http://www.w3.org/2000/svg">
<g clip-path="url(#clip0_154_775)">
<path opacity="0.5" d="M491.15 -0.149902L491.21 -0.119904L518.7 15.4501V46.6601L518.64 46.6901L491.15 62.2601L491.09 62.2301L463.6 46.6601V15.4501L463.66 15.4201L491.15 -0.149902ZM518.47 15.5901L491.15 0.120087L463.83 15.5901V46.5301L491.15 62.0001L518.47 46.5301V15.5901Z" stroke="white" stroke-width="0.75" stroke-miterlimit="10"/>
<path opacity="0.5" d="M573.33 46.2798L573.39 46.3098L600.88 61.8798V93.0898L600.82 93.1198L573.33 108.69L573.27 108.66L545.78 93.0898V61.8798L545.84 61.8498L573.33 46.2798V46.2798ZM600.65 62.0198L573.33 46.5498L546.01 62.0198V92.9598L573.33 108.43L600.65 92.9598V62.0198Z" stroke="white" stroke-width="0.75" stroke-miterlimit="10"/>
<path opacity="0.5" d="M491.38 93.0698L491.44 93.0999L518.93 108.67V139.88L518.87 139.91L491.38 155.48L491.32 155.45L463.83 139.88V108.67L463.89 108.64L491.38 93.0698ZM518.7 108.81L491.38 93.3398L464.06 108.81V139.75L491.38 155.22L518.7 139.75V108.81Z" stroke="white" stroke-width="0.75" stroke-miterlimit="10"/>
<path opacity="0.5" d="M601.13 92.8501L601.19 92.8801L628.68 108.45V139.66L628.62 139.69L601.13 155.26L601.07 155.23L573.58 139.66V108.45L573.64 108.42L601.13 92.8501ZM628.45 108.59L601.13 93.1201L573.81 108.59V139.53L601.13 155L628.45 139.53V108.59Z" stroke="white" stroke-width="0.75" stroke-miterlimit="10"/>
<path opacity="0.5" d="M628.39 139.92L628.45 139.95L655.94 155.52V186.73L655.88 186.76L628.39 202.33L628.33 202.3L600.84 186.73V155.52L600.9 155.49L628.39 139.92ZM655.71 155.66L628.39 140.19L601.07 155.66V186.6L628.39 202.07L655.71 186.6V155.66Z" stroke="white" stroke-width="0.75" stroke-miterlimit="10"/>
<path opacity="0.5" d="M519.02 139.92L519.08 139.95L546.57 155.52V186.73L546.51 186.76L519.02 202.33L518.96 202.3L491.47 186.73V155.52L491.53 155.49L519.02 139.92ZM546.34 155.66L519.02 140.19L491.7 155.66V186.6L519.02 202.07L546.34 186.6V155.66Z" stroke="white" stroke-width="0.75" stroke-miterlimit="10"/>
<path opacity="0.5" d="M491.47 186.71L491.53 186.74L519.02 202.31V233.52L518.96 233.55L491.47 249.12L491.41 249.09L463.92 233.52V202.31L463.98 202.28L491.47 186.71ZM518.79 202.45L491.47 186.98L464.15 202.45V233.39L491.47 248.86L518.79 233.39V202.45Z" stroke="white" stroke-width="0.75" stroke-miterlimit="10"/>
<path opacity="0.5" d="M546.34 186.78L546.4 186.81L573.89 202.38V233.59L573.83 233.62L546.34 249.19L546.28 249.16L518.79 233.59V202.38L518.85 202.35L546.34 186.78ZM573.66 202.52L546.34 187.05L519.02 202.52V233.46L546.34 248.93L573.66 233.46V202.52Z" stroke="white" stroke-width="0.75" stroke-miterlimit="10"/>
<path opacity="0.5" d="M601.08 186.78L601.14 186.81L628.63 202.38V233.59L628.57 233.62L601.08 249.19L601.02 249.16L573.53 233.59V202.38L573.59 202.35L601.08 186.78ZM628.4 202.52L601.08 187.05L573.76 202.52V233.46L601.08 248.93L628.4 233.46V202.52Z" stroke="white" stroke-width="0.75" stroke-miterlimit="10"/>
<path opacity="0.3" d="M208.6 651.73L208.47 651.66L150.43 618.79V552.9L150.56 552.83L208.6 519.96L208.73 520.03L266.77 552.9V618.79L266.64 618.86L208.6 651.73ZM150.93 618.5L208.6 651.16L266.27 618.5V553.18L208.6 520.52L150.93 553.18V618.5Z" stroke="#A1D8DF" stroke-miterlimit="10"/>
<path d="M670.94 651.16L670.81 651.09L612.77 618.22V552.33L612.9 552.26L670.94 519.39L671.07 519.46L729.11 552.33V618.22L728.98 618.29L670.94 651.16ZM613.27 617.93L670.94 650.59L728.61 617.93V552.61L670.94 519.95L613.27 552.61V617.93Z" stroke="#A1D8DF" stroke-miterlimit="10"/>
<path d="M632.05 363.28L668.34 383.83V424.93L632.05 445.48L595.76 424.93V383.83L632.05 363.28ZM667.1 384.53L632.05 364.68L597 384.53V424.23L632.05 444.08L667.1 424.23V384.53Z" stroke="white" stroke-width="0.75" stroke-miterlimit="10"/>
<path d="M560.71 363.28L597 383.83V424.93L560.71 445.48L524.42 424.93V383.83L560.71 363.28ZM595.76 384.53L560.71 364.68L525.66 384.53V424.23L560.71 444.08L595.76 424.23V384.53Z" stroke="white" stroke-width="0.75" stroke-miterlimit="10"/>
<path opacity="0.5" d="M635.19 175.25L671.48 195.8V236.9L635.19 257.45L598.9 236.9V195.8L635.19 175.25ZM670.24 196.5L635.19 176.65L600.14 196.5V236.2L635.19 256.05L670.24 236.2V196.5Z" stroke="white" stroke-width="0.75" stroke-miterlimit="10"/>
<path d="M494.56 335.87L494.62 335.9L522.11 351.47V382.68L522.05 382.71L494.56 398.28L494.5 398.25L467.01 382.68V351.47L467.07 351.44L494.56 335.87ZM521.88 351.61L494.56 336.14L467.24 351.61V382.55L494.56 398.02L521.88 382.55V351.61Z" stroke="#D1E6E9" stroke-miterlimit="10"/>
<path d="M522.12 382.63L522.18 382.66L549.67 398.23V429.44L549.61 429.47L522.12 445.04L522.06 445.01L494.57 429.44V398.23L494.63 398.2L522.12 382.63ZM549.44 398.37L522.12 382.9L494.8 398.37V429.31L522.12 444.78L549.44 429.31V398.37Z" stroke="#D1E6E9" stroke-miterlimit="10"/>
<path d="M467.25 382.9L467.31 382.93L494.8 398.5V429.71L494.74 429.74L467.25 445.31L467.19 445.28L439.7 429.71V398.5L439.76 398.47L467.25 382.9ZM494.57 398.64L467.25 383.17L439.93 398.64V429.58L467.25 445.05L494.57 429.58V398.64Z" stroke="#D1E6E9" stroke-miterlimit="10"/>
<path d="M412.38 382.63L412.44 382.66L439.93 398.23V429.44L439.87 429.47L412.38 445.04L412.32 445.01L384.83 429.44V398.23L384.89 398.2L412.38 382.63ZM439.7 398.37L412.38 382.9L385.06 398.37V429.31L412.38 444.78L439.7 429.31V398.37Z" stroke="#D1E6E9" stroke-miterlimit="10"/>
<path d="M384.82 429.09L384.88 429.12L412.37 444.69V475.9L412.31 475.93L384.82 491.5L384.76 491.47L357.27 475.9V444.69L357.33 444.66L384.82 429.09ZM412.14 444.83L384.82 429.36L357.5 444.83V475.77L384.82 491.24L412.14 475.77V444.83Z" stroke="#D1E6E9" stroke-miterlimit="10"/>
<path d="M329.96 429.09L330.02 429.12L357.51 444.69V475.9L357.45 475.93L329.96 491.5L329.9 491.47L302.41 475.9V444.69L302.47 444.66L329.96 429.09ZM357.28 444.83L329.96 429.36L302.64 444.83V475.77L329.96 491.24L357.28 475.77V444.83Z" stroke="#D1E6E9" stroke-miterlimit="10"/>
<path opacity="0.6" d="M357.51 382.9L357.57 382.93L385.06 398.5V429.71L385 429.74L357.51 445.31L357.45 445.28L329.96 429.71V398.5L330.02 398.47L357.51 382.9ZM384.83 398.64L357.51 383.17L330.19 398.64V429.58L357.51 445.05L384.83 429.58V398.64Z" stroke="#D1E6E9" stroke-miterlimit="10"/>
<path opacity="0.6" d="M384.71 335.79L384.77 335.82L412.26 351.39V382.6L412.2 382.63L384.71 398.2L384.65 398.17L357.16 382.6V351.39L357.22 351.36L384.71 335.79ZM412.03 351.53L384.71 336.06L357.39 351.53V382.47L384.71 397.94L412.03 382.47V351.53Z" stroke="#D1E6E9" stroke-miterlimit="10"/>
<path d="M192.66 475.29L192.72 475.32L220.21 490.89V522.1L220.15 522.13L192.66 537.7L192.6 537.67L165.11 522.1V490.89L165.17 490.86L192.66 475.29ZM219.98 491.03L192.66 475.56L165.34 491.03V521.97L192.66 537.44L219.98 521.97V491.03Z" stroke="#D1E6E9" stroke-miterlimit="10"/>
<path d="M137.8 475.29L137.86 475.32L165.35 490.89V522.1L165.29 522.13L137.8 537.7L137.74 537.67L110.25 522.1V490.89L110.31 490.86L137.8 475.29ZM165.12 491.03L137.8 475.56L110.48 491.03V521.97L137.8 537.44L165.12 521.97V491.03Z" stroke="#D1E6E9" stroke-miterlimit="10"/>
<path d="M82.9303 475.29L82.9904 475.32L110.48 490.89V522.1L110.42 522.13L82.9303 537.7L82.8704 537.67L55.3804 522.1V490.89L55.4403 490.86L82.9303 475.29ZM110.25 491.03L82.9303 475.56L55.6104 491.03V521.97L82.9303 537.44L110.25 521.97V491.03Z" stroke="#D1E6E9" stroke-miterlimit="10"/>
<path d="M27.8199 475.29L27.88 475.32L55.37 490.89V522.1L55.3099 522.13L27.8199 537.7L27.76 537.67L0.27002 522.1V490.89L0.329956 490.86L27.8199 475.29ZM55.14 491.03L27.8199 475.56L0.5 491.03V521.97L27.8199 537.44L55.14 521.97V491.03Z" stroke="#D1E6E9" stroke-miterlimit="10"/>
<path opacity="0.5" d="M329.84 335.79L329.9 335.82L357.39 351.39V382.6L357.33 382.63L329.84 398.2L329.78 398.17L302.29 382.6V351.39L302.35 351.36L329.84 335.79ZM357.16 351.53L329.84 336.06L302.52 351.53V382.47L329.84 397.94L357.16 382.47V351.53Z" stroke="#D1E6E9" stroke-miterlimit="10"/>
<path opacity="0.5" d="M165.35 429.09L165.41 429.12L192.9 444.69V475.9L192.84 475.93L165.35 491.5L165.29 491.47L137.8 475.9V444.69L137.86 444.66L165.35 429.09ZM192.67 444.83L165.35 429.36L138.03 444.83V475.77L165.35 491.24L192.67 475.77V444.83Z" stroke="#D1E6E9" stroke-miterlimit="10"/>
<path opacity="0.5" d="M110.24 428.82L110.3 428.85L137.79 444.42V475.63L137.73 475.66L110.24 491.23L110.18 491.2L82.6899 475.63V444.42L82.75 444.39L110.24 428.82ZM137.56 444.56L110.24 429.09L82.9199 444.56V475.5L110.24 490.97L137.56 475.5V444.56Z" stroke="#D1E6E9" stroke-miterlimit="10"/>
<path opacity="0.5" d="M55.3699 428.82L55.4298 428.85L82.9198 444.42V475.63L82.8599 475.66L55.3699 491.23L55.3098 491.2L27.8198 475.63V444.42L27.8799 444.39L55.3699 428.82ZM82.6898 444.56L55.3699 429.09L28.0498 444.56V475.5L55.3699 490.97L82.6898 475.5V444.56Z" stroke="#D1E6E9" stroke-miterlimit="10"/>
<path opacity="0.6" d="M357.39 289.6L357.45 289.63L384.94 305.2V336.41L384.88 336.44L357.39 352.01L357.33 351.98L329.84 336.41V305.2L329.9 305.17L357.39 289.6ZM384.71 305.34L357.39 289.87L330.07 305.34V336.28L357.39 351.75L384.71 336.28V305.34Z" stroke="#D1E6E9" stroke-miterlimit="10"/>
<path opacity="0.6" d="M330.07 243.09L330.13 243.12L357.62 258.69V289.9L357.56 289.93L330.07 305.5L330.01 305.47L302.52 289.9V258.69L302.58 258.66L330.07 243.09ZM357.39 258.83L330.07 243.36L302.75 258.83V289.77L330.07 305.24L357.39 289.77V258.83Z" stroke="#D1E6E9" stroke-miterlimit="10"/>
<path d="M247.77 475.29L247.83 475.32L275.32 490.89V522.1L275.26 522.13L247.77 537.7L247.71 537.67L220.22 522.1V490.89L220.28 490.86L247.77 475.29ZM275.09 491.03L247.77 475.56L220.45 491.03V521.97L247.77 537.44L275.09 521.97V491.03Z" stroke="#D1E6E9" stroke-miterlimit="10"/>
<path d="M413.1 475.29L413.16 475.32L440.65 490.89V522.1L440.59 522.13L413.1 537.7L413.04 537.67L385.55 522.1V490.89L385.61 490.86L413.1 475.29ZM440.42 491.03L413.1 475.56L385.78 491.03V521.97L413.1 537.44L440.42 521.97V491.03Z" stroke="#D1E6E9" stroke-miterlimit="10"/>
<path d="M439.69 521.65L439.75 521.68L467.24 537.25V568.46L467.18 568.49L439.69 584.06L439.63 584.03L412.14 568.46V537.25L412.2 537.22L439.69 521.65ZM467.01 537.39L439.69 521.92L412.37 537.39V568.33L439.69 583.8L467.01 568.33V537.39Z" stroke="#D1E6E9" stroke-miterlimit="10"/>
<path d="M494.8 521.08L494.86 521.11L522.35 536.68V567.89L522.29 567.92L494.8 583.49L494.74 583.46L467.25 567.89V536.68L467.31 536.65L494.8 521.08ZM522.12 536.82L494.8 521.35L467.48 536.82V567.76L494.8 583.23L522.12 567.76V536.82Z" stroke="#D1E6E9" stroke-miterlimit="10"/>
<path opacity="0.6" d="M275.32 429.09L275.38 429.12L302.87 444.69V475.9L302.81 475.93L275.32 491.5L275.26 491.47L247.77 475.9V444.69L247.83 444.66L275.32 429.09ZM302.64 444.83L275.32 429.36L248 444.83V475.77L275.32 491.24L302.64 475.77V444.83Z" stroke="#D1E6E9" stroke-miterlimit="10"/>
<path d="M614.28 421.08L614.41 421.15L672.45 454.02V519.91L672.32 519.98L614.28 552.85L614.15 552.78L556.11 519.91V454.02L556.24 453.95L614.28 421.08ZM671.95 454.31L614.28 421.65L556.61 454.31V519.63L614.28 552.29L671.95 519.63V454.31Z" stroke="#A1D8DF" stroke-miterlimit="10"/>
<path d="M555.61 519.39L555.74 519.46L613.78 552.33V618.22L613.65 618.29L555.61 651.16L555.48 651.09L497.44 618.22V552.33L497.57 552.26L555.61 519.39V519.39ZM613.28 552.62L555.61 519.96L497.94 552.62V617.94L555.61 650.6L613.28 617.94V552.62Z" stroke="#A1D8DF" stroke-miterlimit="10"/>
<path d="M497.94 421.08L498.07 421.15L556.11 454.02V519.91L555.98 519.98L497.94 552.85L497.81 552.78L439.77 519.91V454.02L439.9 453.95L497.94 421.08ZM555.61 454.31L497.94 421.65L440.27 454.31V519.63L497.94 552.29L555.61 519.63V454.31Z" stroke="#A1D8DF" stroke-miterlimit="10"/>
<path opacity="0.6" d="M323.94 322.73L324.07 322.8L382.11 355.67V421.56L381.98 421.63L323.94 454.5L323.81 454.43L265.77 421.56V355.67L265.9 355.6L323.94 322.73ZM381.61 355.96L323.94 323.3L266.27 355.96V421.28L323.94 453.94L381.61 421.28V355.96V355.96Z" stroke="#A1D8DF" stroke-miterlimit="10"/>
<path opacity="0.6" d="M498.45 223.71L498.58 223.78L556.62 256.65V322.54L556.49 322.61L498.45 355.48L498.32 355.41L440.28 322.54V256.65L440.41 256.58L498.45 223.71ZM556.12 256.94L498.45 224.28L440.78 256.94V322.26L498.45 354.92L556.12 322.26V256.94V256.94Z" stroke="#A1D8DF" stroke-miterlimit="10"/>
<path d="M628.08 326.74L628.14 326.77L655.63 342.34V373.55L655.57 373.58L628.08 389.15L628.02 389.12L600.53 373.55V342.34L600.59 342.31L628.08 326.74ZM655.4 342.48L628.08 327.01L600.76 342.48V373.42L628.08 388.89L655.4 373.42V342.48Z" stroke="white" stroke-miterlimit="10"/>
<path d="M600.88 280.37L600.94 280.4L628.43 295.97V327.18L628.37 327.21L600.88 342.78L600.82 342.75L573.33 327.18V295.97L573.39 295.94L600.88 280.37ZM628.2 296.11L600.88 280.64L573.56 296.11V327.05L600.88 342.52L628.2 327.05V296.11Z" stroke="white" stroke-miterlimit="10"/>
<path opacity="0.6" d="M545.54 280.37L545.6 280.4L573.09 295.97V327.18L573.03 327.21L545.54 342.78L545.48 342.75L517.99 327.18V295.97L518.05 295.94L545.54 280.37ZM572.86 296.11L545.54 280.64L518.22 296.11V327.05L545.54 342.52L572.86 327.05V296.11Z" stroke="white" stroke-miterlimit="10"/>
<path d="M463.59 326.74L463.65 326.77L491.14 342.34V373.55L491.08 373.58L463.59 389.15L463.53 389.12L436.04 373.55V342.34L436.1 342.31L463.59 326.74ZM490.91 342.48L463.59 327.01L436.27 342.48V373.42L463.59 388.89L490.91 373.42V342.48Z" stroke="white" stroke-miterlimit="10"/>
<path d="M436.28 373.17L436.34 373.2L463.83 388.77V419.98L463.77 420.01L436.28 435.58L436.22 435.55L408.73 419.98V388.77L408.79 388.74L436.28 373.17ZM463.6 388.91L436.28 373.44L408.96 388.91V419.85L436.28 435.32L463.6 419.85V388.91Z" stroke="white" stroke-miterlimit="10"/>
<path opacity="0.3" d="M408.72 326.74L408.78 326.77L436.27 342.34V373.55L436.21 373.58L408.72 389.15L408.66 389.12L381.17 373.55V342.34L381.23 342.31L408.72 326.74ZM436.04 342.48L408.72 327.01L381.4 342.48V373.42L408.72 388.89L436.04 373.42V342.48Z" stroke="white" stroke-miterlimit="10"/>
<path opacity="0.5" d="M435.56 280.37L435.62 280.4L463.11 295.97V327.18L463.05 327.21L435.56 342.78L435.5 342.75L408.01 327.18V295.97L408.07 295.94L435.56 280.37ZM462.88 296.11L435.56 280.64L408.24 296.11V327.05L435.56 342.52L462.88 327.05V296.11Z" stroke="white" stroke-miterlimit="10"/>
<path opacity="0.3" d="M380.46 280.37L380.52 280.4L408.01 295.97V327.18L407.95 327.21L380.46 342.78L380.4 342.75L352.91 327.18V295.97L352.97 295.94L380.46 280.37ZM407.78 296.11L380.46 280.64L353.14 296.11V327.05L380.46 342.52L407.78 327.05V296.11Z" stroke="white" stroke-miterlimit="10"/>
<path opacity="0.3" d="M518.7 233.59L518.76 233.62L546.25 249.19V280.4L546.19 280.43L518.7 296L518.64 295.97L491.15 280.4V249.19L491.21 249.16L518.7 233.59ZM546.02 249.33L518.7 233.86L491.38 249.33V280.27L518.7 295.74L546.02 280.27V249.33Z" stroke="white" stroke-miterlimit="10"/>
<path d="M604.54 429.16L604.6 429.19L632.09 444.76V475.97L632.03 476L604.54 491.57L604.48 491.54L576.99 475.97V444.76L577.05 444.73L604.54 429.16ZM631.86 444.9L604.54 429.43L577.22 444.9V475.84L604.54 491.31L631.86 475.84V444.9Z" stroke="#D1E6E9" stroke-miterlimit="10"/>
<path d="M632.09 475.29L632.15 475.32L659.64 490.89V522.1L659.58 522.13L632.09 537.7L632.03 537.67L604.54 522.1V490.89L604.6 490.86L632.09 475.29ZM659.41 491.03L632.09 475.56L604.77 491.03V521.97L632.09 537.44L659.41 521.97V491.03Z" stroke="#D1E6E9" stroke-miterlimit="10"/>
<path d="M604.3 521.65L604.36 521.68L631.85 537.25V568.46L631.79 568.49L604.3 584.06L604.24 584.03L576.75 568.46V537.25L576.81 537.22L604.3 521.65ZM631.62 537.39L604.3 521.92L576.98 537.39V568.33L604.3 583.8L631.62 568.33V537.39Z" stroke="#D1E6E9" stroke-miterlimit="10"/>
<path d="M576.98 382.48L577.04 382.51L604.53 398.08V429.29L604.47 429.32L576.98 444.89L576.92 444.86L549.43 429.29V398.08L549.49 398.05L576.98 382.48ZM604.3 398.22L576.98 382.75L549.66 398.22V429.16L576.98 444.63L604.3 429.16V398.22Z" stroke="#D1E6E9" stroke-miterlimit="10"/>
<path d="M604.3 336.11L604.36 336.14L631.85 351.71V382.92L631.79 382.95L604.3 398.52L604.24 398.49L576.75 382.92V351.71L576.81 351.68L604.3 336.11ZM631.62 351.85L604.3 336.38L576.98 351.85V382.79L604.3 398.26L631.62 382.79V351.85Z" stroke="#D1E6E9" stroke-miterlimit="10"/>
<path d="M576.75 289.33L576.81 289.36L604.3 304.93V336.14L604.24 336.17L576.75 351.74L576.69 351.71L549.2 336.14V304.93L549.26 304.9L576.75 289.33ZM604.07 305.07L576.75 289.6L549.43 305.07V336.01L576.75 351.48L604.07 336.01V305.07Z" stroke="#D1E6E9" stroke-miterlimit="10"/>
<path d="M631.61 289.33L631.67 289.36L659.16 304.93V336.14L659.1 336.17L631.61 351.74L631.55 351.71L604.06 336.14V304.93L604.12 304.9L631.61 289.33ZM658.93 305.07L631.61 289.6L604.29 305.07V336.01L631.61 351.48L658.93 336.01V305.07Z" stroke="#D1E6E9" stroke-miterlimit="10"/>
<path d="M604.3 242.59L604.36 242.62L631.85 258.19V289.4L631.79 289.43L604.3 305L604.24 304.97L576.75 289.4V258.19L576.81 258.16L604.3 242.59ZM631.62 258.33L604.3 242.86L576.98 258.33V289.27L604.3 304.74L631.62 289.27V258.33Z" stroke="#D1E6E9" stroke-miterlimit="10"/>
<path d="M556.11 323.27L556.24 323.34L614.28 356.21V422.1L614.15 422.17L556.11 455.04L555.98 454.97L497.94 422.1V356.21L498.07 356.14L556.11 323.27ZM613.78 356.5L556.11 323.84L498.44 356.5V421.82L556.11 454.48L613.78 421.82V356.5V356.5Z" stroke="#A1D8DF" stroke-miterlimit="10"/>
<path d="M439.93 322.73L440.06 322.8L498.1 355.67V421.56L497.97 421.63L439.93 454.5L439.8 454.43L381.76 421.56V355.67L381.89 355.6L439.93 322.73ZM497.6 355.96L439.93 323.3L382.26 355.96V421.28L439.93 453.94L497.6 421.28V355.96V355.96Z" stroke="#A1D8DF" stroke-miterlimit="10"/>
<path d="M614.28 225.14L614.41 225.21L672.45 258.08V323.97L672.32 324.04L614.28 356.91L614.15 356.84L556.11 323.97V258.08L556.24 258.01L614.28 225.14ZM671.95 258.37L614.28 225.71L556.61 258.37V323.69L614.28 356.35L671.95 323.69V258.37Z" stroke="#A1D8DF" stroke-miterlimit="10"/>
<path opacity="0.6" d="M252.6 427.92L288.89 448.47V489.57L252.6 510.12L216.31 489.57V448.47L252.6 427.92ZM287.65 449.17L252.6 429.32L217.55 449.17V488.87L229.41 495.59L252.6 508.73L287.65 488.88V449.18V449.17Z" stroke="white" stroke-width="0.75" stroke-miterlimit="10"/>
<path opacity="0.6" d="M323.94 427.92L360.23 448.47V489.57L323.94 510.12L287.65 489.57V448.47L323.94 427.92ZM358.99 449.17L323.94 429.32L288.89 449.17V488.87L300.75 495.59L323.94 508.73L358.99 488.88V449.18V449.17Z" stroke="white" stroke-width="0.75" stroke-miterlimit="10"/>
<path opacity="0.3" d="M288.15 367.35L324.44 387.9V429L288.15 449.55L251.86 429V387.9L288.15 367.35ZM323.2 388.6L288.15 368.75L253.1 388.6V428.3L264.96 435.02L288.15 448.16L323.2 428.31V388.61V388.6Z" stroke="white" stroke-width="0.75" stroke-miterlimit="10"/>
<path opacity="0.3" d="M359.66 367.93L395.95 388.48V429.58L359.66 450.13L323.37 429.58V388.48L359.66 367.93ZM394.71 389.18L359.66 369.33L324.61 389.18V428.88L336.47 435.6L359.66 448.74L394.71 428.89V389.19V389.18Z" stroke="white" stroke-width="0.75" stroke-miterlimit="10"/>
<path opacity="0.3" d="M181.26 427.92L217.55 448.47V489.57L181.26 510.12L144.97 489.57V448.47L181.26 427.92ZM216.31 449.17L181.26 429.32L146.21 449.17V488.87L158.07 495.59L181.26 508.73L216.31 488.88V449.18V449.17Z" stroke="white" stroke-width="0.75" stroke-miterlimit="10"/>
<path opacity="0.3" d="M110.24 427.92L146.53 448.47V489.57L110.24 510.12L73.9502 489.57V448.47L110.24 427.92ZM145.29 449.17L110.24 429.32L75.1902 449.17V488.87L87.0502 495.59L110.24 508.73L145.29 488.88V449.18V449.17Z" stroke="white" stroke-width="0.75" stroke-miterlimit="10"/>
<path opacity="0.6" d="M208.1 322.73L208.23 322.8L266.27 355.67V421.56L266.14 421.63L208.1 454.5L207.97 454.43L149.93 421.56V355.67L150.06 355.6L208.1 322.73ZM265.77 355.96L208.1 323.3L150.43 355.96V421.28L208.1 453.94L265.77 421.28V355.96V355.96Z" stroke="#A1D8DF" stroke-miterlimit="10"/>
<path d="M382.11 421.08L382.24 421.15L440.28 454.02V519.91L440.15 519.98L382.11 552.85L381.98 552.78L323.94 519.91V454.02L324.07 453.95L382.11 421.08ZM439.78 454.31L382.11 421.65L324.44 454.31V519.63L382.11 552.29L439.78 519.63V454.31Z" stroke="#A1D8DF" stroke-miterlimit="10"/>
<path opacity="0.6" d="M439.69 519.39L439.82 519.46L497.86 552.33V618.22L497.73 618.29L439.69 651.16L439.56 651.09L381.52 618.22V552.33L381.65 552.26L439.69 519.39V519.39ZM497.36 552.62L439.69 519.96L382.02 552.62V617.94L439.69 650.6L497.36 617.94V552.62Z" stroke="#A1D8DF" stroke-miterlimit="10"/>
<path opacity="0.6" d="M266.27 421.08L266.4 421.15L324.44 454.02V519.91L324.31 519.98L266.27 552.85L266.14 552.78L208.1 519.91V454.02L208.23 453.95L266.27 421.08ZM323.94 454.31L266.27 421.65L208.6 454.31V519.63L266.27 552.29L323.94 519.63V454.31Z" stroke="#A1D8DF" stroke-miterlimit="10"/>
<path opacity="0.5" d="M480.92 730.12L480.98 730.15L508.67 745.36L509.07 776.57L509.01 776.6L481.72 792.53L481.66 792.5L453.97 777.29L453.57 746.08L453.63 746.05L480.92 730.12ZM508.44 745.5L480.93 730.39L453.82 746.21L454.22 777.15L481.73 792.26L508.84 776.44L508.44 745.5V745.5Z" stroke="white" stroke-width="0.75" stroke-miterlimit="10"/>
<path opacity="0.5" d="M452.63 683.91L452.69 683.94L480.38 699.15L480.78 730.36L480.72 730.39L453.43 746.32L453.37 746.29L425.68 731.08L425.28 699.87L425.34 699.84L452.63 683.91ZM480.15 699.29L452.64 684.18L425.53 700L425.93 730.94L453.44 746.05L480.55 730.23L480.15 699.29Z" stroke="white" stroke-width="0.75" stroke-miterlimit="10"/>
<path opacity="0.5" d="M451.79 590.12L451.85 590.15L479.54 605.36L479.94 636.57L479.88 636.6L452.59 652.53L452.53 652.5L424.84 637.29L424.44 606.08L424.5 606.05L451.79 590.12V590.12ZM479.31 605.5L451.8 590.39L424.69 606.21L425.09 637.15L452.6 652.26L479.71 636.44L479.31 605.5Z" stroke="white" stroke-width="0.75" stroke-miterlimit="10"/>
<path opacity="0.5" d="M508.9 776.82L508.96 776.85L536.65 792.06L537.05 823.27L536.99 823.3L509.7 839.23L509.64 839.2L481.95 823.99L481.55 792.78L481.61 792.75L508.9 776.82V776.82ZM536.42 792.2L508.91 777.09L481.8 792.91L482.2 823.85L509.71 838.96L536.82 823.14L536.42 792.2Z" stroke="white" stroke-width="0.75" stroke-miterlimit="10"/>
<path opacity="0.6" d="M468.58 753.71L468.64 753.74L496.33 768.95L496.73 800.16L496.67 800.19L469.38 816.12L469.32 816.09L441.63 800.88L441.23 769.67L441.29 769.64L468.58 753.71ZM496.1 769.09L468.59 753.98L441.48 769.8L441.88 800.74L469.39 815.85L496.5 800.03L496.1 769.09Z" stroke="#D1E6E9" stroke-miterlimit="10"/>
<path d="M523.44 753.18L523.5 753.21L551.19 768.42L551.59 799.63L551.53 799.66L524.24 815.59L524.18 815.56L496.49 800.35L496.09 769.14L496.15 769.11L523.44 753.18V753.18ZM550.96 768.56L523.45 753.45L496.34 769.27L496.74 800.21L524.25 815.32L551.36 799.5L550.96 768.56V768.56Z" stroke="#D1E6E9" stroke-miterlimit="10"/>
<path opacity="0.6" d="M442.11 801.14L442.17 801.17L469.86 816.38L470.26 847.59L470.2 847.62L442.91 863.55L442.85 863.52L415.16 848.31L414.76 817.1L414.82 817.07L442.11 801.14ZM469.63 816.52L442.12 801.41L415.01 817.23L415.41 848.17L442.92 863.28L470.03 847.46L469.63 816.52Z" stroke="#D1E6E9" stroke-miterlimit="10"/>
<path opacity="0.3" d="M415.41 848.54L415.47 848.57L443.16 863.78L443.56 894.99L443.5 895.02L416.21 910.95L416.15 910.92L388.46 895.71L388.06 864.5L388.12 864.47L415.41 848.54ZM442.93 863.92L415.42 848.81L388.31 864.63L388.71 895.57L416.22 910.68L443.33 894.86L442.93 863.92Z" stroke="#D1E6E9" stroke-miterlimit="10"/>
<path d="M440.42 707.21L440.48 707.24L468.17 722.45L468.57 753.66L468.51 753.69L441.22 769.62L441.16 769.59L413.47 754.38L413.07 723.17L413.13 723.14L440.42 707.21ZM467.94 722.59L440.43 707.48L413.32 723.3L413.72 754.24L441.23 769.35L468.34 753.53L467.94 722.59Z" stroke="#D1E6E9" stroke-miterlimit="10"/>
<path d="M549.39 612.63L549.45 612.66L577.14 627.87L577.54 659.08L577.48 659.11L550.19 675.04L550.13 675.01L522.44 659.8L522.04 628.59L522.1 628.56L549.39 612.63ZM576.91 628.01L549.4 612.9L522.29 628.72L522.69 659.66L550.2 674.77L577.31 658.95L576.91 628.01V628.01Z" stroke="#D1E6E9" stroke-miterlimit="10"/>
<path d="M495.52 706.49L495.58 706.52L523.27 721.73L523.67 752.94L523.61 752.97L496.32 768.9L496.26 768.87L468.57 753.66L468.17 722.45L468.23 722.42L495.52 706.49ZM523.04 721.87L495.53 706.76L468.42 722.58L468.82 753.52L496.33 768.63L523.44 752.81L523.04 721.87Z" stroke="#D1E6E9" stroke-miterlimit="10"/>
<path d="M467.6 660.21L467.66 660.24L495.35 675.45L495.75 706.66L495.69 706.69L468.4 722.62L468.34 722.59L440.65 707.38L440.25 676.17L440.31 676.14L467.6 660.21V660.21ZM495.12 675.59L467.61 660.48L440.5 676.3L440.9 707.24L468.41 722.35L495.52 706.53L495.12 675.59Z" stroke="#D1E6E9" stroke-miterlimit="10"/>
<path d="M494.08 613.62L494.14 613.65L521.83 628.86L522.23 660.07L522.17 660.1L494.88 676.03L494.82 676L467.13 660.79L466.73 629.58L466.79 629.55L494.08 613.62V613.62ZM521.6 629L494.09 613.89L466.98 629.71L467.38 660.65L494.89 675.76L522 659.94L521.6 629V629Z" stroke="#D1E6E9" stroke-miterlimit="10"/>
<path d="M439.21 614.33L439.27 614.36L466.96 629.57L467.36 660.78L467.3 660.81L440.01 676.74L439.95 676.71L412.26 661.5L411.86 630.29L411.92 630.26L439.21 614.33V614.33ZM466.73 629.71L439.22 614.6L412.11 630.42L412.51 661.36L440.02 676.47L467.13 660.65L466.73 629.71V629.71Z" stroke="#D1E6E9" stroke-miterlimit="10"/>
<path opacity="0.6" d="M671.44 1043.76L671.31 1043.69L613.27 1010.82V944.93L613.4 944.86L671.44 911.99L671.57 912.06L729.61 944.93V1010.82L729.48 1010.89L671.44 1043.76ZM613.77 1010.53L671.44 1043.19L729.11 1010.53V945.21L671.44 912.55L613.77 945.21V1010.53Z" stroke="#A1D8DF" stroke-miterlimit="10"/>
<path opacity="0.6" d="M556.61 1043.89L556.48 1043.82L498.44 1010.95V945.06L498.57 944.99L556.61 912.12L556.74 912.19L614.78 945.06V1010.95L614.65 1011.02L556.61 1043.89ZM498.94 1010.66L556.61 1043.32L614.28 1010.66V945.34L556.61 912.68L498.94 945.34V1010.66Z" stroke="#A1D8DF" stroke-miterlimit="10"/>
<path opacity="0.3" d="M499.28 1142.42L499.15 1142.35L441.11 1109.48V1043.59L441.24 1043.52L499.28 1010.65L499.41 1010.72L557.45 1043.59V1109.48L557.32 1109.55L499.28 1142.42ZM441.61 1109.19L499.28 1141.85L556.95 1109.19V1043.87L499.28 1011.21L441.61 1043.87V1109.19V1109.19Z" stroke="#A1D8DF" stroke-miterlimit="10"/>
<path opacity="0.3" d="M614.78 1142.42L614.65 1142.35L556.61 1109.48V1043.59L556.74 1043.52L614.78 1010.65L614.91 1010.72L672.95 1043.59V1109.48L672.82 1109.55L614.78 1142.42ZM557.11 1109.19L614.78 1141.85L672.45 1109.19V1043.87L614.78 1011.21L557.11 1043.87V1109.19V1109.19Z" stroke="#A1D8DF" stroke-miterlimit="10"/>
<path opacity="0.3" d="M381.52 748.94L381.39 748.87L323.35 716V650.11L323.48 650.04L381.52 617.17L381.65 617.24L439.69 650.11V716L439.56 716.07L381.52 748.94V748.94ZM323.85 715.71L381.52 748.37L439.19 715.71V650.4L381.52 617.74L323.85 650.4V715.72V715.71Z" stroke="#A1D8DF" stroke-miterlimit="10"/>
<path opacity="0.3" d="M208.6 651.09L208.47 651.02L150.43 618.15V552.25L150.56 552.18L208.6 519.31L208.73 519.38L266.77 552.25V618.14L266.64 618.21L208.6 651.08V651.09ZM150.93 617.86L208.6 650.52L266.27 617.86V552.54L208.6 519.88L150.93 552.54V617.86V617.86Z" stroke="#A1D8DF" stroke-miterlimit="10"/>
<path d="M670.94 650.51L670.81 650.44L612.77 617.57V551.68L612.9 551.61L670.94 518.74L671.07 518.81L729.11 551.68V617.57L728.98 617.64L670.94 650.51ZM613.27 617.28L670.94 649.94L728.61 617.28V551.97L670.94 519.31L613.27 551.97V617.29V617.28Z" stroke="#A1D8DF" stroke-miterlimit="10"/>
<path d="M613.28 945.68L613.15 945.61L555.11 912.74V846.85L555.24 846.78L613.28 813.91L613.41 813.98L671.45 846.85V912.74L671.32 912.81L613.28 945.68ZM555.61 912.45L613.28 945.11L670.95 912.45V847.13L613.28 814.47L555.61 847.13V912.45Z" stroke="#A1D8DF" stroke-miterlimit="10"/>
<path d="M670.94 847.2L670.81 847.13L612.77 814.26V748.37L612.9 748.3L670.94 715.43L671.07 715.5L729.11 748.37V814.26L728.98 814.33L670.94 847.2ZM613.27 813.97L670.94 846.63L728.61 813.97V748.65L670.94 715.99L613.27 748.65V813.97Z" stroke="#A1D8DF" stroke-miterlimit="10"/>
<path opacity="0.5" d="M554.17 862.13V862.2L555.61 893.76L529.18 910.36L529.12 910.33L501.31 895.33V895.26L499.87 863.7L526.3 847.1L526.36 847.13L554.17 862.13ZM555.37 893.63L553.94 862.27L526.31 847.37L500.11 863.83L501.54 895.19L529.17 910.09L555.37 893.63Z" stroke="#D1E6E9" stroke-miterlimit="10"/>
<path opacity="0.5" d="M578.99 814.32V814.39L580.43 845.95L554 862.55L553.94 862.52L526.13 847.52V847.45L524.69 815.89L551.12 799.29L551.18 799.32L578.99 814.32ZM580.19 845.82L578.76 814.46L551.13 799.56L524.93 816.02L526.36 847.38L553.99 862.28L580.19 845.82Z" stroke="#D1E6E9" stroke-miterlimit="10"/>
<path d="M192.66 474.64L192.72 474.67L220.21 490.24V521.45L220.15 521.48L192.66 537.05L192.6 537.02L165.11 521.45V490.24L165.17 490.21L192.66 474.64ZM219.98 490.38L192.66 474.91L165.34 490.38V521.32L192.66 536.79L219.98 521.32V490.38Z" stroke="#D1E6E9" stroke-miterlimit="10"/>
<path d="M137.8 474.64L137.86 474.67L165.35 490.24V521.45L165.29 521.48L137.8 537.05L137.74 537.02L110.25 521.45V490.24L110.31 490.21L137.8 474.64ZM165.12 490.38L137.8 474.91L110.48 490.38V521.32L137.8 536.79L165.12 521.32V490.38Z" stroke="#D1E6E9" stroke-miterlimit="10"/>
<path d="M82.9303 474.64L82.9904 474.67L110.48 490.24V521.45L110.42 521.48L82.9303 537.05L82.8704 537.02L55.3804 521.45V490.24L55.4403 490.21L82.9303 474.64ZM110.25 490.38L82.9303 474.91L55.6104 490.38V521.32L82.9303 536.79L110.25 521.32V490.38Z" stroke="#D1E6E9" stroke-miterlimit="10"/>
<path d="M27.8199 474.64L27.88 474.67L55.37 490.24V521.45L55.3099 521.48L27.8199 537.05L27.76 537.02L0.27002 521.45V490.24L0.329956 490.21L27.8199 474.64ZM55.14 490.38L27.8199 474.91L0.5 490.38V521.32L27.8199 536.79L55.14 521.32V490.38Z" stroke="#D1E6E9" stroke-miterlimit="10"/>
<path d="M247.77 474.64L247.83 474.67L275.32 490.24V521.45L275.26 521.48L247.77 537.05L247.71 537.02L220.22 521.45V490.24L220.28 490.21L247.77 474.64ZM275.09 490.38L247.77 474.91L220.45 490.38V521.32L247.77 536.79L275.09 521.32V490.38Z" stroke="#D1E6E9" stroke-miterlimit="10"/>
<path d="M413.1 474.64L413.16 474.67L440.65 490.24V521.45L440.59 521.48L413.1 537.05L413.04 537.02L385.55 521.45V490.24L385.61 490.21L413.1 474.64ZM440.42 490.38L413.1 474.91L385.78 490.38V521.32L413.1 536.79L440.42 521.32V490.38Z" stroke="#D1E6E9" stroke-miterlimit="10"/>
<path d="M439.69 521L439.75 521.03L467.24 536.6V567.81L467.18 567.84L439.69 583.41L439.63 583.38L412.14 567.81V536.6L412.2 536.57L439.69 521ZM467.01 536.74L439.69 521.27L412.37 536.74V567.68L439.69 583.15L467.01 567.68V536.74V536.74Z" stroke="#D1E6E9" stroke-miterlimit="10"/>
<path opacity="0.6" d="M412.14 567.3L412.2 567.33L439.69 582.9V614.11L439.63 614.14L412.14 629.71L412.08 629.68L384.59 614.11V582.9L384.65 582.87L412.14 567.3V567.3ZM439.46 583.04L412.14 567.57L384.82 583.04V613.98L412.14 629.45L439.46 613.98V583.04V583.04Z" stroke="#D1E6E9" stroke-miterlimit="10"/>
<path d="M494.8 520.43L494.86 520.46L522.35 536.03V567.24L522.29 567.27L494.8 582.84L494.74 582.81L467.25 567.24V536.03L467.31 536L494.8 520.43ZM522.12 536.17L494.8 520.7L467.48 536.17V567.11L494.8 582.58L522.12 567.11V536.17V536.17Z" stroke="#D1E6E9" stroke-miterlimit="10"/>
<path opacity="0.6" d="M466.72 567.3L466.78 567.33L494.27 582.9V614.11L494.21 614.14L466.72 629.71L466.66 629.68L439.17 614.11V582.9L439.23 582.87L466.72 567.3V567.3ZM494.04 583.04L466.72 567.57L439.4 583.04V613.98L466.72 629.45L494.04 613.98V583.04V583.04Z" stroke="#D1E6E9" stroke-miterlimit="10"/>
<path d="M614.28 420.43L614.41 420.5L672.45 453.37V519.26L672.32 519.33L614.28 552.2L614.15 552.13L556.11 519.26V453.38L556.24 453.31L614.28 420.44V420.43ZM671.95 453.66L614.28 421L556.61 453.66V518.98L614.28 551.64L671.95 518.98V453.66Z" stroke="#A1D8DF" stroke-miterlimit="10"/>
<path d="M555.61 518.74L555.74 518.81L613.78 551.68V617.57L613.65 617.64L555.61 650.51L555.48 650.44L497.44 617.57V551.68L497.57 551.61L555.61 518.74ZM613.28 551.97L555.61 519.31L497.94 551.97V617.29L555.61 649.95L613.28 617.29V551.97V551.97Z" stroke="#A1D8DF" stroke-miterlimit="10"/>
<path d="M613.27 617.17L613.4 617.24L671.44 650.11V716L671.31 716.07L613.27 748.94L613.14 748.87L555.1 716V650.11L555.23 650.04L613.27 617.17V617.17ZM670.94 650.4L613.27 617.74L555.6 650.4V715.72L613.27 748.38L670.94 715.72V650.4V650.4Z" stroke="#A1D8DF" stroke-miterlimit="10"/>
<path d="M497.94 420.43L498.07 420.5L556.11 453.37V519.26L555.98 519.33L497.94 552.2L497.81 552.13L439.77 519.26V453.38L439.9 453.31L497.94 420.44V420.43ZM555.61 453.66L497.94 421L440.27 453.66V518.98L497.94 551.64L555.61 518.98V453.66Z" stroke="#A1D8DF" stroke-miterlimit="10"/>
<path d="M632.09 474.64L632.15 474.67L659.64 490.24V521.45L659.58 521.48L632.09 537.05L632.03 537.02L604.54 521.45V490.24L604.6 490.21L632.09 474.64ZM659.41 490.38L632.09 474.91L604.77 490.38V521.32L632.09 536.79L659.41 521.32V490.38Z" stroke="#D1E6E9" stroke-miterlimit="10"/>
<path d="M604.3 521L604.36 521.03L631.85 536.6V567.81L631.79 567.84L604.3 583.41L604.24 583.38L576.75 567.81V536.6L576.81 536.57L604.3 521ZM631.62 536.74L604.3 521.27L576.98 536.74V567.68L604.3 583.15L631.62 567.68V536.74V536.74Z" stroke="#D1E6E9" stroke-miterlimit="10"/>
<path d="M632.09 567.3L632.15 567.33L659.64 582.9V614.11L659.58 614.14L632.09 629.71L632.03 629.68L604.54 614.11V582.9L604.6 582.87L632.09 567.3V567.3ZM659.41 583.04L632.09 567.57L604.77 583.04V613.98L632.09 629.45L659.41 613.98V583.04V583.04Z" stroke="#D1E6E9" stroke-miterlimit="10"/>
<path d="M382.11 420.43L382.24 420.5L440.28 453.37V519.26L440.15 519.33L382.11 552.2L381.98 552.13L323.94 519.26V453.38L324.07 453.31L382.11 420.44V420.43ZM439.78 453.66L382.11 421L324.44 453.66V518.98L382.11 551.64L439.78 518.98V453.66Z" stroke="#A1D8DF" stroke-miterlimit="10"/>
<path opacity="0.6" d="M439.69 518.74L439.82 518.81L497.86 551.68V617.57L497.73 617.64L439.69 650.51L439.56 650.44L381.52 617.57V551.68L381.65 551.61L439.69 518.74ZM497.36 551.97L439.69 519.31L382.02 551.97V617.29L439.69 649.95L497.36 617.29V551.97V551.97Z" stroke="#A1D8DF" stroke-miterlimit="10"/>
<path opacity="0.6" d="M266.27 420.43L266.4 420.5L324.44 453.37V519.26L324.31 519.33L266.27 552.2L266.14 552.13L208.1 519.26V453.38L208.23 453.31L266.27 420.44V420.43ZM323.94 453.66L266.27 421L208.6 453.66V518.98L266.27 551.64L323.94 518.98V453.66Z" stroke="#A1D8DF" stroke-miterlimit="10"/>
</g>
<defs>
<clipPath id="clip0_154_775">
<rect width="615" height="1142" fill="white"/>
</clipPath>
</defs>
</svg>
