<svg width="580" height="623" viewBox="0 0 580 623" fill="none" xmlns="http://www.w3.org/2000/svg">
<g clip-path="url(#clip0_156_1199)">
<path opacity="0.5" d="M100.75 262.28L100.69 262.25L73.2002 246.68V215.47L73.2602 215.44L100.75 199.87L100.81 199.9L128.3 215.47V246.68L128.24 246.71L100.75 262.28V262.28ZM73.4302 246.54L100.75 262.01L128.07 246.54V215.61L100.75 200.14L73.4302 215.61V246.54V246.54Z" stroke="white" stroke-width="0.75" stroke-miterlimit="10"/>
<path opacity="0.6" d="M150.57 274.15L150.51 274.12L123.02 258.55V227.33L123.08 227.3L150.57 211.73L150.63 211.76L178.12 227.33V258.54L178.06 258.57L150.57 274.14V274.15ZM123.25 258.41L150.57 273.88L177.89 258.41V227.47L150.57 212L123.25 227.47V258.41V258.41Z" stroke="#D1E6E9" stroke-miterlimit="10"/>
<path d="M178.12 320.43L178.06 320.4L150.57 304.83V273.62L150.63 273.59L178.12 258.02L178.18 258.05L205.67 273.62V304.83L205.61 304.86L178.12 320.43V320.43ZM150.8 304.69L178.12 320.16L205.44 304.69V273.75L178.12 258.28L150.8 273.75V304.69Z" stroke="#D1E6E9" stroke-miterlimit="10"/>
<path opacity="0.6" d="M232.749 320.7L232.689 320.67L205.199 305.1V273.89L205.259 273.86L232.749 258.29L232.809 258.32L260.299 273.89V305.1L260.239 305.13L232.749 320.7ZM205.429 304.96L232.749 320.43L260.069 304.96V274.02L232.749 258.55L205.429 274.02V304.96Z" stroke="#D1E6E9" stroke-miterlimit="10"/>
<path opacity="0.5" d="M260.52 274.15L260.46 274.12L232.97 258.55V227.33L233.03 227.3L260.52 211.73L260.58 211.76L288.07 227.33V258.54L288.01 258.57L260.52 274.14V274.15ZM233.2 258.41L260.52 273.88L287.84 258.41V227.47L260.52 212L233.2 227.47V258.41V258.41Z" stroke="#D1E6E9" stroke-miterlimit="10"/>
<path opacity="0.5" d="M315.38 274.15L315.32 274.12L287.83 258.55V227.33L287.89 227.3L315.38 211.73L315.44 211.76L342.93 227.33V258.54L342.87 258.57L315.38 274.14V274.15ZM288.06 258.41L315.38 273.88L342.7 258.41V227.47L315.38 212L288.06 227.47V258.41V258.41Z" stroke="#D1E6E9" stroke-miterlimit="10"/>
<path d="M123.02 320.7L122.96 320.67L95.4697 305.1V273.89L95.5297 273.86L123.02 258.29L123.08 258.32L150.57 273.89V305.1L150.51 305.13L123.02 320.7ZM95.6997 304.96L123.02 320.43L150.34 304.96V274.02L123.02 258.55L95.6997 274.02V304.96Z" stroke="#D1E6E9" stroke-miterlimit="10"/>
<path d="M95.6994 274.15L95.6394 274.12L68.1494 258.55V227.33L68.2094 227.3L95.6994 211.73L95.7594 211.76L123.249 227.33V258.54L123.189 258.57L95.6994 274.14V274.15ZM68.3794 258.41L95.6994 273.88L123.019 258.41V227.47L95.6994 212L68.3794 227.47V258.41V258.41Z" stroke="#D1E6E9" stroke-miterlimit="10"/>
<path d="M67.9104 320.7L67.8504 320.67L40.3604 305.1V273.89L40.4204 273.86L67.9104 258.29L67.9703 258.32L95.4604 273.89V305.1L95.4003 305.13L67.9104 320.7ZM40.5904 304.96L67.9104 320.43L95.2304 304.96V274.02L67.9104 258.55L40.5904 274.02V304.96Z" stroke="#D1E6E9" stroke-miterlimit="10"/>
<path d="M95.4602 367.38L95.4002 367.35L67.9102 351.78V320.57L67.9702 320.54L95.4602 304.97L95.5202 305L123.01 320.57V351.78L122.95 351.81L95.4602 367.38V367.38ZM68.1402 351.64L95.4602 367.11L122.78 351.64V320.7L95.4602 305.23L68.1402 320.7V351.64Z" stroke="#D1E6E9" stroke-miterlimit="10"/>
<path d="M150.33 367.38L150.27 367.35L122.78 351.78V320.57L122.84 320.54L150.33 304.97L150.39 305L177.88 320.57V351.78L177.82 351.81L150.33 367.38V367.38ZM123.01 351.64L150.33 367.11L177.65 351.64V320.7L150.33 305.23L123.01 320.7V351.64Z" stroke="#D1E6E9" stroke-miterlimit="10"/>
<path d="M122.779 413.75L122.719 413.72L95.2295 398.15V366.94L95.2895 366.91L122.779 351.34L122.84 351.37L150.329 366.94V398.15L150.269 398.18L122.779 413.75ZM95.4595 398.01L122.779 413.48L150.099 398.01V367.07L122.779 351.6L95.4595 367.07V398.01Z" stroke="#D1E6E9" stroke-miterlimit="10"/>
<path d="M177.88 413.75L177.82 413.72L150.33 398.15V366.94L150.39 366.91L177.88 351.34L177.94 351.37L205.43 366.94V398.15L205.37 398.18L177.88 413.75ZM150.56 398.01L177.88 413.48L205.2 398.01V367.07L177.88 351.6L150.56 367.07V398.01Z" stroke="#D1E6E9" stroke-miterlimit="10"/>
<path d="M205.44 460.26L205.38 460.23L177.89 444.66V413.45L177.95 413.42L205.44 397.85L205.5 397.88L232.99 413.45V444.66L232.93 444.69L205.44 460.26ZM178.12 444.52L205.44 459.99L232.76 444.52V413.58L205.44 398.11L178.12 413.58V444.52Z" stroke="#D1E6E9" stroke-miterlimit="10"/>
<path d="M260.31 460.53L260.25 460.5L232.76 444.93V413.72L232.82 413.69L260.31 398.12L260.37 398.15L287.86 413.72V444.93L287.8 444.96L260.31 460.53ZM232.99 444.79L260.31 460.26L287.63 444.79V413.85L260.31 398.38L232.99 413.85V444.79Z" stroke="#D1E6E9" stroke-miterlimit="10"/>
<path d="M315.38 460.53L315.32 460.5L287.83 444.93V413.72L287.89 413.69L315.38 398.12L315.44 398.15L342.93 413.72V444.93L342.87 444.96L315.38 460.53ZM288.06 444.79L315.38 460.26L342.7 444.79V413.85L315.38 398.38L288.06 413.85V444.79Z" stroke="#D1E6E9" stroke-miterlimit="10"/>
<path opacity="0.3" d="M150.33 553.69L150.27 553.66L122.78 538.09V506.88L122.84 506.85L150.33 491.28L150.39 491.31L177.88 506.88V538.09L177.82 538.12L150.33 553.69V553.69ZM123.01 537.95L150.33 553.42L177.65 537.95V507.01L150.33 491.54L123.01 507.01V537.95Z" stroke="#D1E6E9" stroke-miterlimit="10"/>
<path opacity="0.3" d="M232.7 507.16L232.64 507.13L205.15 491.56V460.35L205.21 460.32L232.7 444.75L232.76 444.78L260.25 460.35V491.56L260.19 491.59L232.7 507.16V507.16ZM205.38 491.42L232.7 506.89L260.02 491.42V460.48L232.7 445.01L205.38 460.48V491.42V491.42Z" stroke="#D1E6E9" stroke-miterlimit="10"/>
<path opacity="0.3" d="M342.7 507.16L342.64 507.13L315.15 491.56V460.35L315.21 460.32L342.7 444.75L342.76 444.78L370.25 460.35V491.56L370.19 491.59L342.7 507.16V507.16ZM315.38 491.42L342.7 506.89L370.02 491.42V460.48L342.7 445.01L315.38 460.48V491.42V491.42Z" stroke="#D1E6E9" stroke-miterlimit="10"/>
<path opacity="0.3" d="M178.12 600.33L178.06 600.3L150.57 584.73V553.52L150.63 553.49L178.12 537.92L178.18 537.95L205.67 553.52V584.73L205.61 584.76L178.12 600.33ZM150.8 584.59L178.12 600.06L205.44 584.59V553.65L178.12 538.18L150.8 553.65V584.59Z" stroke="#D1E6E9" stroke-miterlimit="10"/>
<path opacity="0.3" d="M177.88 507.04L177.82 507.01L150.33 491.44V460.23L150.39 460.2L177.88 444.63L177.94 444.66L205.43 460.23V491.44L205.37 491.47L177.88 507.04V507.04ZM150.56 491.3L177.88 506.77L205.2 491.3V460.36L177.88 444.89L150.56 460.36V491.3V491.3Z" stroke="#D1E6E9" stroke-miterlimit="10"/>
<path opacity="0.6" d="M122.779 600.33L122.719 600.3L95.2295 584.73V553.52L95.2895 553.49L122.779 537.92L122.84 537.95L150.329 553.52V584.73L150.269 584.76L122.779 600.33ZM95.4595 584.59L122.779 600.06L150.099 584.59V553.65L122.779 538.18L95.4595 553.65V584.59Z" stroke="#D1E6E9" stroke-miterlimit="10"/>
<path d="M95.6994 553.69L95.6394 553.66L68.1494 538.09V506.88L68.2094 506.85L95.6994 491.28L95.7594 491.31L123.249 506.88V538.09L123.189 538.12L95.6994 553.69V553.69ZM68.3794 537.95L95.6994 553.42L123.019 537.95V507.01L95.6994 491.54L68.3794 507.01V537.95Z" stroke="#D1E6E9" stroke-miterlimit="10"/>
<path opacity="0.6" d="M342.7 413.91L342.64 413.88L315.15 398.31V367.1L315.21 367.07L342.7 351.5L342.76 351.53L370.25 367.1V398.31L370.19 398.34L342.7 413.91ZM315.38 398.17L342.7 413.64L370.02 398.17V367.23L342.7 351.76L315.38 367.23V398.17Z" stroke="#D1E6E9" stroke-miterlimit="10"/>
<path opacity="0.5" d="M397.57 413.91L397.51 413.88L370.02 398.31V367.1L370.08 367.07L397.57 351.5L397.63 351.53L425.12 367.1V398.31L425.06 398.34L397.57 413.91ZM370.25 398.17L397.57 413.64L424.89 398.17V367.23L397.57 351.76L370.25 367.23V398.17Z" stroke="#D1E6E9" stroke-miterlimit="10"/>
<path opacity="0.6" d="M232.749 413.75L232.689 413.72L205.199 398.15V366.94L205.259 366.91L232.749 351.34L232.809 351.37L260.299 366.94V398.15L260.239 398.18L232.749 413.75ZM205.429 398.01L232.749 413.48L260.069 398.01V367.07L232.749 351.6L205.429 367.07V398.01Z" stroke="#D1E6E9" stroke-miterlimit="10"/>
<path d="M68.1496 413.75L68.0896 413.72L40.5996 398.15V366.94L40.6596 366.91L68.1496 351.34L68.2096 351.37L95.6996 366.94V398.15L95.6396 398.18L68.1496 413.75ZM40.8296 398.01L68.1496 413.48L95.4696 398.01V367.07L68.1496 351.6L40.8296 367.07V398.01V398.01Z" stroke="#D1E6E9" stroke-miterlimit="10"/>
<path d="M150.33 460.26L150.27 460.23L122.78 444.66V413.45L122.84 413.42L150.33 397.85L150.39 397.88L177.88 413.45V444.66L177.82 444.69L150.33 460.26ZM123.01 444.52L150.33 459.99L177.65 444.52V413.58L150.33 398.11L123.01 413.58V444.52Z" stroke="#D1E6E9" stroke-miterlimit="10"/>
<path d="M123.25 507.16L123.19 507.13L95.7002 491.56V460.35L95.7602 460.32L123.25 444.75L123.31 444.78L150.8 460.35V491.56L150.74 491.59L123.25 507.16V507.16ZM95.9302 491.42L123.25 506.89L150.57 491.42V460.48L123.25 445.01L95.9302 460.48V491.42V491.42Z" stroke="#D1E6E9" stroke-miterlimit="10"/>
<path d="M95.6994 460.53L95.6394 460.5L68.1494 444.93V413.72L68.2094 413.69L95.6994 398.12L95.7594 398.15L123.249 413.72V444.93L123.189 444.96L95.6994 460.53V460.53ZM68.3794 444.79L95.6994 460.26L123.019 444.79V413.85L95.6994 398.38L68.3794 413.85V444.79Z" stroke="#D1E6E9" stroke-miterlimit="10"/>
<path d="M68.1496 507.16L68.0896 507.13L40.5996 491.56V460.35L40.6596 460.32L68.1496 444.75L68.2096 444.78L95.6996 460.35V491.56L95.6396 491.59L68.1496 507.16V507.16ZM40.8296 491.42L68.1496 506.89L95.4696 491.42V460.48L68.1496 445.01L40.8296 460.48V491.42V491.42Z" stroke="#D1E6E9" stroke-miterlimit="10"/>
<path d="M40.59 553.69L40.53 553.66L13.04 538.09V506.88L13.1 506.85L40.59 491.28L40.65 491.31L68.14 506.88V538.09L68.08 538.12L40.59 553.69V553.69ZM13.27 537.95L40.59 553.42L67.91 537.95V507.01L40.59 491.54L13.27 507.01V537.95Z" stroke="#D1E6E9" stroke-miterlimit="10"/>
<path d="M116.33 426.59L116.2 426.52L58.1602 393.65V327.76L58.2902 327.69L116.33 294.82L116.46 294.89L174.5 327.76V393.65L174.37 393.72L116.33 426.59V426.59ZM58.6602 393.36L116.33 426.02L174 393.36V328.04L116.33 295.38L58.6602 328.04V393.36Z" stroke="#A1D8DF" stroke-miterlimit="10"/>
<path d="M58.17 328.1L58.04 328.03L0 295.16V229.27L0.13 229.2L58.17 196.33L58.3 196.4L116.33 229.27V295.16L116.2 295.23L58.16 328.1H58.17ZM0.5 294.87L58.17 327.53L115.84 294.87V229.55L58.17 196.89L0.5 229.55V294.87Z" stroke="#A1D8DF" stroke-miterlimit="10"/>
<path d="M174.53 525.17L174.4 525.1L116.36 492.23V426.34L116.49 426.27L174.53 393.4L174.66 393.47L232.7 426.34V492.23L232.57 492.3L174.53 525.17ZM116.86 491.94L174.53 524.6L232.2 491.94V426.62L174.53 393.96L116.86 426.62V491.94V491.94Z" stroke="#A1D8DF" stroke-miterlimit="10"/>
<path d="M115.83 623.04L115.7 622.97L57.6602 590.1V524.21L57.7902 524.14L115.83 491.27L115.96 491.34L174 524.21V590.1L173.87 590.17L115.83 623.04V623.04ZM58.1602 589.81L115.83 622.47L173.5 589.81V524.49L115.83 491.83L58.1602 524.49V589.81Z" stroke="#A1D8DF" stroke-miterlimit="10"/>
<path d="M290.369 525.17L290.239 525.1L232.199 492.23V426.34L232.329 426.27L290.369 393.4L290.499 393.47L348.539 426.34V492.23L348.409 492.3L290.369 525.17ZM232.699 491.94L290.369 524.6L348.039 491.94V426.62L290.369 393.96L232.699 426.62V491.94Z" stroke="#A1D8DF" stroke-miterlimit="10"/>
<path opacity="0.6" d="M406.199 525.17L406.069 525.1L348.029 492.23V426.34L348.159 426.27L406.199 393.4L406.329 393.47L464.369 426.34V492.23L464.239 492.3L406.199 525.17ZM348.529 491.94L406.199 524.6L463.869 491.94V426.62L406.199 393.96L348.529 426.62V491.94Z" stroke="#A1D8DF" stroke-miterlimit="10"/>
<path opacity="0.6" d="M232.199 623.04L232.069 622.97L174.029 590.1V524.21L174.159 524.14L232.199 491.27L232.329 491.34L290.369 524.21V590.1L290.239 590.17L232.199 623.04V623.04ZM174.529 589.81L232.199 622.47L289.869 589.81V524.49L232.199 491.83L174.529 524.49V589.81Z" stroke="#A1D8DF" stroke-miterlimit="10"/>
<path opacity="0.3" d="M522.04 525.17L521.91 525.1L463.87 492.23V426.34L464 426.27L522.04 393.4L522.17 393.47L580.21 426.34V492.23L580.08 492.3L522.04 525.17ZM464.37 491.94L522.04 524.6L579.71 491.94V426.62L522.04 393.96L464.37 426.62V491.94Z" stroke="#A1D8DF" stroke-miterlimit="10"/>
<path opacity="0.5" d="M155.79 262.21L155.73 262.18L128.3 246.65V215.51L128.36 215.48L155.79 199.95L155.85 199.98L183.28 215.51V246.64L183.22 246.67L155.79 262.2V262.21ZM128.54 246.51L155.79 261.94L183.04 246.51V215.64L155.79 200.21L128.54 215.64V246.51Z" stroke="white" stroke-width="0.75" stroke-miterlimit="10"/>
<path opacity="0.5" d="M128.54 308.92L128.48 308.89L101.05 293.36V262.22L101.11 262.19L128.54 246.66L128.6 246.69L156.03 262.22V293.36L155.97 293.39L128.54 308.92ZM101.29 293.22L128.54 308.65L155.79 293.22V262.35L128.54 246.92L101.29 262.35V293.22Z" stroke="white" stroke-width="0.75" stroke-miterlimit="10"/>
<path opacity="0.5" d="M101.29 355.53L101.23 355.5L73.7998 339.97V308.83L73.8598 308.8L101.29 293.27L101.35 293.3L128.78 308.83V339.97L128.72 340L101.29 355.53ZM74.0398 339.83L101.29 355.26L128.54 339.83V308.96L101.29 293.53L74.0398 308.96V339.83Z" stroke="white" stroke-width="0.75" stroke-miterlimit="10"/>
<path opacity="0.5" d="M74.0398 308.92L73.9798 308.89L46.5498 293.36V262.22L46.6098 262.19L74.0398 246.66L74.0998 246.69L101.53 262.22V293.36L101.47 293.39L74.0398 308.92ZM46.7898 293.22L74.0398 308.65L101.29 293.22V262.35L74.0398 246.92L46.7898 262.35V293.22Z" stroke="white" stroke-width="0.75" stroke-miterlimit="10"/>
<path opacity="0.5" d="M210.599 355.53L210.539 355.5L183.109 339.97V308.83L183.169 308.8L210.599 293.27L210.659 293.3L238.089 308.83V339.97L238.029 340L210.599 355.53ZM183.349 339.83L210.599 355.26L237.849 339.83V308.96L210.599 293.53L183.349 308.96V339.83Z" stroke="white" stroke-width="0.75" stroke-miterlimit="10"/>
<path opacity="0.5" d="M156.469 355.34L156.409 355.31L128.979 339.78V308.64L129.039 308.61L156.469 293.08L156.529 293.11L183.959 308.64V339.78L183.899 339.81L156.469 355.34ZM129.219 339.64L156.469 355.07L183.719 339.64V308.77L156.469 293.34L129.219 308.77V339.64Z" stroke="white" stroke-width="0.75" stroke-miterlimit="10"/>
<path opacity="0.5" d="M183.719 308.92L183.659 308.89L156.229 293.36V262.22L156.289 262.19L183.719 246.66L183.779 246.69L211.209 262.22V293.36L211.149 293.39L183.719 308.92ZM156.469 293.22L183.719 308.65L210.969 293.22V262.35L183.719 246.92L156.469 262.35V293.22Z" stroke="white" stroke-width="0.75" stroke-miterlimit="10"/>
<path opacity="0.3" d="M238.89 308.92L238.83 308.89L211.4 293.36V262.22L211.46 262.19L238.89 246.66L238.95 246.69L266.38 262.22V293.36L266.32 293.39L238.89 308.92ZM211.64 293.22L238.89 308.65L266.14 293.22V262.35L238.89 246.92L211.64 262.35V293.22Z" stroke="white" stroke-width="0.75" stroke-miterlimit="10"/>
<path d="M98.6894 382.7L62.3994 362.15V321.05L98.6894 300.5L134.979 321.05V362.15L98.6894 382.7ZM63.6394 361.45L98.6894 381.3L133.739 361.45V321.75L98.6894 301.9L63.6394 321.75V361.45V361.45Z" stroke="white" stroke-width="0.75" stroke-miterlimit="10"/>
<path opacity="0.5" d="M205.729 321.94L169.439 301.39V260.29L205.729 239.73L242.019 260.28V301.39L205.729 321.94ZM170.679 300.69L205.729 320.54L240.779 300.69V260.99L205.729 241.14L170.679 260.99V300.69V300.69Z" stroke="white" stroke-width="0.75" stroke-miterlimit="10"/>
<path opacity="0.5" d="M241.37 382.7L205.08 362.15V321.05L241.37 300.5L277.66 321.05V362.15L241.37 382.7V382.7ZM206.32 361.45L241.37 381.3L276.42 361.45V321.75L241.37 301.9L206.32 321.75V361.45Z" stroke="white" stroke-width="0.75" stroke-miterlimit="10"/>
<path opacity="0.5" d="M312.71 382.1L276.42 361.55V320.45L312.71 299.9L349 320.45V361.55L312.71 382.1ZM277.66 360.85L312.71 380.7L347.76 360.85V321.15L312.71 301.3L277.66 321.15V360.85Z" stroke="white" stroke-width="0.75" stroke-miterlimit="10"/>
<path d="M206.319 442.91L170.029 422.36V381.26L206.319 360.71L242.609 381.26V422.36L206.319 442.91ZM171.269 421.66L206.319 441.51L241.369 421.66V381.96L206.319 362.11L171.269 381.96V421.66Z" stroke="white" stroke-width="0.75" stroke-miterlimit="10"/>
<path d="M134.979 443.49L98.6895 422.94V381.84L134.979 361.29L171.269 381.84V422.94L134.979 443.49ZM99.9295 422.24L134.979 442.09L170.029 422.24V382.54L134.979 362.69L99.9295 382.54V422.24V422.24Z" stroke="white" stroke-width="0.75" stroke-miterlimit="10"/>
<path d="M63.6396 443.49L27.3496 422.94V381.84L63.6396 361.29L99.9296 381.84V422.94L63.6396 443.49V443.49ZM28.5896 422.24L63.6396 442.09L98.6896 422.24V382.54L63.6396 362.69L28.5896 382.54V422.24Z" stroke="white" stroke-width="0.75" stroke-miterlimit="10"/>
<path opacity="0.6" d="M170.03 382.7L133.74 362.15V321.05L170.03 300.5L206.32 321.05V362.15L170.03 382.7ZM134.98 361.45L170.03 381.3L205.08 361.45V321.75L170.03 301.9L134.98 321.75V361.45Z" stroke="white" stroke-width="0.75" stroke-miterlimit="10"/>
<path d="M277.66 442.91L241.37 422.36V381.26L277.66 360.71L313.95 381.26V422.36L277.66 442.91ZM242.61 421.66L277.66 441.51L312.71 421.66V381.96L277.66 362.11L242.61 381.96V421.66Z" stroke="white" stroke-width="0.75" stroke-miterlimit="10"/>
<path opacity="0.5" d="M349 442.25L312.71 421.7V380.6L349 360.05L385.29 380.6V421.7L349 442.25ZM313.95 421L349 440.85L384.05 421V381.3L349 361.45L313.95 381.3V421V421Z" stroke="white" stroke-width="0.75" stroke-miterlimit="10"/>
<path opacity="0.3" d="M384.05 381.14L347.76 360.59V319.49L384.05 298.94L420.34 319.49V360.59L384.05 381.14ZM349 359.89L384.05 379.74L419.1 359.89V320.19L384.05 300.34L349 320.19V359.89Z" stroke="white" stroke-width="0.75" stroke-miterlimit="10"/>
<path opacity="0.5" d="M170.15 261.28L133.86 240.73V199.63L170.15 179.08L206.44 199.63V240.73L170.15 261.28V261.28ZM135.09 240.03L170.14 259.88L205.2 240.03V200.33L170.15 180.48L135.1 200.33V240.03H135.09Z" stroke="white" stroke-width="0.75" stroke-miterlimit="10"/>
<path opacity="0.5" d="M183.04 216.24L182.98 216.21L155.49 200.64V169.43L155.55 169.4L183.04 153.83L183.1 153.86L210.59 169.43V200.64L210.53 200.67L183.04 216.24ZM155.72 200.5L183.04 215.97L210.36 200.5V169.56L183.04 154.09L155.72 169.56V200.5Z" stroke="white" stroke-width="0.75" stroke-miterlimit="10"/>
<path opacity="0.3" d="M238.09 216.24L238.03 216.21L210.54 200.64V169.43L210.6 169.4L238.09 153.83L238.15 153.86L265.64 169.43V200.64L265.58 200.67L238.09 216.24V216.24ZM210.77 200.5L238.09 215.97L265.41 200.5V169.56L238.09 154.09L210.77 169.56V200.5V200.5Z" stroke="white" stroke-width="0.75" stroke-miterlimit="10"/>
<path opacity="0.5" d="M128.3 216.24L128.24 216.21L100.75 200.64V169.43L100.81 169.4L128.3 153.83L128.36 153.86L155.85 169.43V200.64L155.79 200.67L128.3 216.24ZM100.98 200.5L128.3 215.97L155.62 200.5V169.56L128.3 154.09L100.98 169.56V200.5Z" stroke="white" stroke-width="0.75" stroke-miterlimit="10"/>
<path opacity="0.5" d="M73.4396 216.24L73.3797 216.21L45.8896 200.64V169.43L45.9496 169.4L73.4396 153.83L73.4997 153.86L100.99 169.43V200.64L100.93 200.67L73.4396 216.24ZM46.1197 200.5L73.4396 215.97L100.76 200.5V169.56L73.4396 154.09L46.1197 169.56V200.5Z" stroke="white" stroke-width="0.75" stroke-miterlimit="10"/>
<path opacity="0.5" d="M100.75 169.6L100.69 169.57L73.2002 154V122.79L73.2602 122.76L100.75 107.19L100.81 107.22L128.3 122.79V154L128.24 154.03L100.75 169.6V169.6ZM73.4302 153.86L100.75 169.33L128.07 153.86V122.92L100.75 107.45L73.4302 122.92V153.86Z" stroke="white" stroke-width="0.75" stroke-miterlimit="10"/>
<path opacity="0.5" d="M45.8801 169.6L45.8201 169.57L18.3301 154V122.79L18.3901 122.76L45.8801 107.19L45.9401 107.22L73.4301 122.79V154L73.3701 154.03L45.8801 169.6ZM18.5601 153.86L45.8801 169.33L73.2001 153.86V122.92L45.8801 107.45L18.5601 122.92V153.86V153.86Z" stroke="white" stroke-width="0.75" stroke-miterlimit="10"/>
<path opacity="0.5" d="M73.4396 123.18L73.3797 123.15L45.8896 107.58V76.37L45.9496 76.34L73.4396 60.77L73.4997 60.8L100.99 76.37V107.58L100.93 107.61L73.4396 123.18ZM46.1197 107.44L73.4396 122.91L100.76 107.44V76.5L73.4396 61.03L46.1197 76.5V107.44V107.44Z" stroke="white" stroke-width="0.75" stroke-miterlimit="10"/>
<path opacity="0.5" d="M45.8801 76.8602L45.8201 76.8302L18.3301 61.2602V30.0502L18.3901 30.0202L45.8801 14.4502L45.9401 14.4802L73.4301 30.0502V61.2602L73.3701 61.2902L45.8801 76.8602ZM18.5601 61.1202L45.8801 76.5902L73.2001 61.1202V30.1802L45.8801 14.7102L18.5601 30.1802V61.1202V61.1202Z" stroke="white" stroke-width="0.75" stroke-miterlimit="10"/>
<path opacity="0.5" d="M100.75 262.8L100.69 262.77L73.2002 247.2V215.99L73.2602 215.96L100.75 200.39L100.81 200.42L128.3 215.99V247.2L128.24 247.23L100.75 262.8V262.8ZM73.4302 247.06L100.75 262.53L128.07 247.06V216.12L100.75 200.65L73.4302 216.12V247.06V247.06Z" stroke="white" stroke-width="0.75" stroke-miterlimit="10"/>
<path d="M123.02 228.17L122.96 228.14L95.4697 212.57V181.36L95.5297 181.33L123.02 165.76L123.08 165.79L150.57 181.36V212.57L150.51 212.6L123.02 228.17ZM95.6997 212.43L123.02 227.9L150.34 212.43V181.49L123.02 166.02L95.6997 181.49V212.43Z" stroke="#D1E6E9" stroke-miterlimit="10"/>
<path d="M95.4602 181.61L95.4002 181.58L67.9102 166.01V134.8L67.9702 134.77L95.4602 119.2L95.5202 119.23L123.01 134.8V166.01L122.95 166.04L95.4602 181.61ZM68.1402 165.87L95.4602 181.34L122.78 165.87V134.93L95.4602 119.46L68.1402 134.93V165.87Z" stroke="#D1E6E9" stroke-miterlimit="10"/>
<path opacity="0.6" d="M150.57 274.67L150.51 274.64L123.02 259.07V227.86L123.08 227.83L150.57 212.26L150.63 212.29L178.12 227.86V259.07L178.06 259.1L150.57 274.67ZM123.25 258.93L150.57 274.4L177.89 258.93V227.99L150.57 212.52L123.25 227.99V258.93Z" stroke="#D1E6E9" stroke-miterlimit="10"/>
<path opacity="0.5" d="M260.52 274.67L260.46 274.64L232.97 259.07V227.86L233.03 227.83L260.52 212.26L260.58 212.29L288.07 227.86V259.07L288.01 259.1L260.52 274.67ZM233.2 258.93L260.52 274.4L287.84 258.93V227.99L260.52 212.52L233.2 227.99V258.93Z" stroke="#D1E6E9" stroke-miterlimit="10"/>
<path opacity="0.5" d="M315.38 274.67L315.32 274.64L287.83 259.07V227.86L287.89 227.83L315.38 212.26L315.44 212.29L342.93 227.86V259.07L342.87 259.1L315.38 274.67ZM288.06 258.93L315.38 274.4L342.7 258.93V227.99L315.38 212.52L288.06 227.99V258.93Z" stroke="#D1E6E9" stroke-miterlimit="10"/>
<path d="M95.6994 274.67L95.6394 274.64L68.1494 259.07V227.86L68.2094 227.83L95.6994 212.26L95.7594 212.29L123.249 227.86V259.07L123.189 259.1L95.6994 274.67V274.67ZM68.3794 258.93L95.6994 274.4L123.019 258.93V227.99L95.6994 212.52L68.3794 227.99V258.93Z" stroke="#D1E6E9" stroke-miterlimit="10"/>
<path d="M58.17 328.62L58.04 328.55L0 295.68V229.79L0.13 229.72L58.17 196.85L58.3 196.92L116.34 229.79V295.68L116.21 295.75L58.17 328.62V328.62ZM0.5 295.39L58.17 328.05L115.84 295.39V230.07L58.17 197.41L0.5 230.07V295.39Z" stroke="#A1D8DF" stroke-miterlimit="10"/>
<path opacity="0.6" d="M116.33 230.14L116.2 230.07L58.1602 197.2V131.31L58.2902 131.24L116.33 98.3701L116.46 98.4401L174.5 131.31V197.2L174.37 197.27L116.33 230.14V230.14ZM58.6602 196.91L116.33 229.57L174 196.91V131.59L116.33 98.9301L58.6602 131.59V196.91Z" stroke="#A1D8DF" stroke-miterlimit="10"/>
<path opacity="0.3" d="M232.199 230.14L232.069 230.07L174.029 197.2V131.31L174.159 131.24L232.199 98.3701L232.329 98.4401L290.369 131.31V197.2L290.239 197.27L232.199 230.14V230.14ZM174.529 196.91L232.199 229.57L289.869 196.91V131.59L232.199 98.9301L174.529 131.59V196.91Z" stroke="#A1D8DF" stroke-miterlimit="10"/>
<path opacity="0.3" d="M58.67 131.77L58.54 131.7L0.5 98.83V32.94L0.63 32.87L58.67 0L58.8 0.0700002L116.84 32.94V98.83L116.71 98.9L58.67 131.77V131.77ZM1 98.55L58.67 131.21L116.34 98.55V33.23L58.67 0.57L1 33.23V98.55Z" stroke="#A1D8DF" stroke-miterlimit="10"/>
<path opacity="0.5" d="M155.79 262.73L155.73 262.7L128.3 247.17V216.03L128.36 216L155.79 200.47L155.85 200.5L183.28 216.03V247.17L183.22 247.2L155.79 262.73ZM128.54 247.03L155.79 262.46L183.04 247.03V216.16L155.79 200.73L128.54 216.16V247.03Z" stroke="white" stroke-width="0.75" stroke-miterlimit="10"/>
<path opacity="0.5" d="M205.729 322.46L169.439 301.91V260.81L205.729 240.26L242.019 260.81V301.91L205.729 322.46ZM170.679 301.21L205.729 321.06L240.779 301.21V261.51L205.729 241.66L170.679 261.51V301.21Z" stroke="white" stroke-width="0.75" stroke-miterlimit="10"/>
<path opacity="0.5" d="M170.15 261.8L133.86 241.25V200.15L170.15 179.6L206.44 200.15V241.25L170.15 261.8ZM135.1 240.55L170.15 260.4L205.2 240.55V200.85L170.15 181L135.1 200.85V240.55Z" stroke="white" stroke-width="0.75" stroke-miterlimit="10"/>
<path opacity="0.5" d="M95.1404 119.16V119.09L94.1104 87.51L120.75 71.25L120.81 71.28L148.42 86.64V86.71L149.45 118.29L122.81 134.55L122.75 134.52L95.1404 119.16ZM94.3503 87.64L95.3703 119.01L122.8 134.27L149.21 118.15L148.19 86.78L120.76 71.52L94.3503 87.64V87.64Z" stroke="#D1E6E9" stroke-miterlimit="10"/>
<path opacity="0.5" d="M149.07 117.74V117.67L148.04 86.0901L174.68 69.8301L174.74 69.8601L202.35 85.2201V85.2901L203.38 116.87L176.74 133.13L176.68 133.1L149.07 117.74V117.74ZM148.28 86.2201L149.3 117.59L176.73 132.85L203.14 116.73L202.12 85.3601L174.69 70.1001L148.28 86.2201Z" stroke="#D1E6E9" stroke-miterlimit="10"/>
<path opacity="0.5" d="M174.71 70.0599V69.9899L173.68 38.4099L200.32 22.1499L200.38 22.1799L227.99 37.5399V37.6099L229.02 69.1899L202.38 85.4499L202.32 85.4199L174.71 70.0599V70.0599ZM173.92 38.5399L174.94 69.9099L202.37 85.1699L228.78 69.0499L227.76 37.6799L200.33 22.4199L173.92 38.5399Z" stroke="#D1E6E9" stroke-miterlimit="10"/>
</g>
<defs>
<clipPath id="clip0_156_1199">
<rect width="580" height="623" fill="white"/>
</clipPath>
</defs>
</svg>
