<svg width="264" height="300" viewBox="0 0 264 300" fill="none" xmlns="http://www.w3.org/2000/svg">
<path fill-rule="evenodd" clip-rule="evenodd" d="M263.988 23.3047L145.283 137.834L138.122 241.215V242.229L134.03 300L138.122 275.675L139.147 274.661C139.147 271.621 140.166 264.526 141.19 261.485C142.215 257.432 143.239 253.377 143.239 248.31L144.263 247.296L145.283 239.188L146.307 238.174L163.705 143.915L263.988 23.3047Z" fill="#3C3293"/>
<path fill-rule="evenodd" clip-rule="evenodd" d="M0 21.2773C1.02437 23.3044 2.0487 24.318 4.09216 26.345C5.11653 27.3586 5.11653 28.3721 6.1409 28.3721C7.16526 29.3857 7.16523 30.3992 8.18432 31.4127C9.20868 32.4263 11.2574 35.4669 12.2818 36.4804C13.3009 38.5075 15.3497 40.5346 16.3741 41.5481C17.3985 42.5616 19.4419 45.6022 20.4663 46.6157L22.515 48.6428C22.515 49.6564 23.5341 50.6699 23.5341 51.6834C26.6072 54.7238 28.6506 58.7781 31.7237 61.8187C32.7481 63.8461 34.7915 64.8593 35.8159 66.8867C36.8402 68.9136 37.8647 69.9273 39.9082 71.9542C41.9569 74.9948 45.0247 79.0491 48.0978 82.0897C49.1169 83.1029 51.1656 85.1303 52.19 86.1434C53.2143 88.1709 54.2334 90.1978 56.2821 91.2115C58.3309 95.2652 61.3987 98.3063 63.4474 101.347C68.5587 108.441 74.6996 114.522 79.8162 121.617C82.8893 124.658 84.9327 128.712 88.0058 131.753C91.0736 134.793 93.1225 137.834 96.1903 141.888C99.2581 146.956 98.239 149.996 99.2581 156.078C100.282 160.132 101.307 166.213 102.331 171.281C102.331 174.321 103.356 176.349 103.356 179.389C104.375 182.43 104.375 184.457 104.375 187.497C105.399 191.552 107.448 197.633 107.448 202.7L108.472 203.714L117.681 259.458L123.822 295.945L114.608 135.807L0 21.2773Z" fill="#3C3293"/>
<path fill-rule="evenodd" clip-rule="evenodd" d="M111.555 4.05455L104.39 8.10872L101.322 11.1493C100.298 11.1493 96.2056 16.217 95.1812 17.2305C94.1568 18.244 91.0889 23.3117 91.0889 24.3253L93.1376 22.2982H95.1812H96.2056L99.2734 24.3253L101.322 26.3523L102.346 27.3659C103.371 27.3659 104.39 28.3794 104.39 29.393C104.39 34.4606 104.39 33.4471 105.414 37.5013H107.463C108.487 37.5013 108.487 36.4877 108.487 36.4877L112.58 42.5689L116.672 43.5824C118.72 42.5689 119.74 43.5824 120.764 44.596C121.788 45.6095 123.837 46.623 124.856 46.623L125.881 47.6366L126.905 48.6501L128.954 50.6772H129.973L130.997 51.6907H134.07C135.089 51.6907 135.089 53.7179 136.114 54.7311L137.138 55.7448H142.255L138.162 60.8123C138.162 62.8397 142.255 66.894 142.255 69.9346C142.255 70.9478 142.255 70.9478 142.255 71.9615L145.322 72.9752V70.9478H146.347V68.9209C144.303 67.9072 146.347 66.894 144.303 66.894V65.8803H143.279L142.255 63.8534V59.7991C142.255 58.7854 144.303 55.7448 145.322 55.7448H146.347C147.371 55.7448 148.396 56.7585 149.42 56.7585V55.7448C153.512 55.7448 152.488 57.7717 154.536 57.7717C157.604 57.7717 157.604 59.7991 158.629 60.8123L159.653 62.8397V65.8803H160.672C160.672 67.9072 163.745 66.894 163.745 67.9072V69.9346H164.77V70.9478V72.9752C163.745 72.9752 162.721 75.0021 162.721 77.029C161.696 78.0427 158.629 78.0427 158.629 80.0695H157.604C157.604 81.0833 155.556 84.1238 153.512 84.1238C152.488 86.1507 147.371 88.1781 147.371 89.1913H145.322C145.322 87.1644 145.322 85.1376 145.322 84.1238V82.097H143.279L144.303 80.0695H145.322V78.0427H146.347V75.0021L143.279 82.097V83.1101L139.187 91.2187L138.162 96.2862L137.138 99.3268L141.23 98.3131V97.2999C141.23 97.2999 140.206 97.2999 140.206 96.2862C140.206 95.2725 141.23 95.2725 142.255 94.2593C142.255 94.2593 142.255 94.2593 142.255 93.2456C142.255 92.2319 142.255 92.2319 143.279 92.2319L144.303 91.2187C145.322 92.2319 147.371 91.2187 147.371 90.205C148.396 89.1913 148.396 88.1782 150.439 87.1644C152.488 85.1376 154.536 84.1238 156.58 83.1101C161.696 80.0695 165.789 78.0427 165.789 69.9346C164.769 66.894 164.77 66.894 163.745 64.8666C162.721 63.8534 159.653 61.826 160.672 60.8123V58.7854C158.629 58.7854 160.672 57.7717 158.629 57.7717C157.604 57.7717 156.58 57.7717 156.58 56.7585V54.7311L155.556 53.7179H152.488C150.439 53.7179 149.42 51.6907 148.396 51.6907C146.347 51.6907 145.322 52.7042 142.255 52.7042H140.206C138.162 52.7042 138.162 51.6907 138.162 50.6772L137.138 47.6366H136.114C135.089 47.6366 135.089 47.6366 134.07 46.623C134.07 44.596 134.07 43.5824 133.046 44.596H132.021C132.021 44.596 132.021 45.6095 130.997 45.6095H129.973C128.954 45.6095 126.905 44.596 126.905 43.5824C126.905 41.5554 127.929 40.5418 128.954 39.5283H137.138L138.162 41.5554V42.5689H140.206H141.23H142.255C142.255 40.5418 141.23 38.5148 139.187 38.5148V37.5013L144.303 35.4742V34.4606L143.279 32.4336C144.303 32.4336 145.322 31.42 145.322 31.42C146.347 31.42 146.347 32.4336 147.371 32.4336C149.42 32.4336 146.347 29.393 149.42 28.3794C150.439 27.3659 152.488 27.3659 153.512 27.3659C154.536 27.3659 154.536 27.3659 155.556 28.3794C155.556 27.3659 153.512 26.3523 152.488 26.3523C151.463 25.3388 150.439 24.3253 150.439 23.3117C149.42 22.2982 146.347 19.2576 144.303 19.2576H143.279V18.244L136.114 17.2305C136.114 19.2576 140.206 23.3117 137.138 23.3117H135.089L132.021 21.2846C132.021 19.2576 127.929 19.2576 126.905 18.244V19.2576L128.954 21.2846L133.046 23.3117V25.3388C135.089 25.3388 134.07 25.3388 136.114 25.3388C138.162 25.3388 138.162 26.3523 138.162 24.3253C139.187 24.3253 140.206 23.3117 141.23 22.2982H143.279C144.303 22.2982 143.279 23.3117 145.322 23.3117L144.303 25.3388V27.3659C142.255 27.3659 142.255 30.4065 142.255 31.42C142.255 32.4336 140.206 35.4742 139.187 35.4742C139.187 37.5013 130.997 36.4877 128.954 36.4877V37.5013H127.929C126.905 39.5283 124.856 39.5283 121.788 39.5283C116.672 39.5283 116.672 37.5013 114.623 37.5013V36.4877C112.579 36.4877 109.506 36.4877 109.506 34.4606H108.487V30.4065L107.463 29.393V27.3659H106.439V26.3523H107.463H104.39V24.3253H103.371L101.322 22.2982L100.298 21.2846V18.244H101.322V17.2305C101.322 15.2034 102.346 14.1899 103.371 13.1764C104.39 12.1629 107.463 10.1358 108.487 10.1358H110.531V9.12221V10.1358C113.604 10.1358 115.647 10.1358 115.647 8.10872H117.696C118.72 8.10872 120.764 9.12221 121.788 10.1358L127.929 9.12221V8.10872H130.997C130.997 9.12221 132.021 8.10872 132.021 10.1358V13.1764C130.997 13.1764 128.954 14.1899 127.929 15.2034H124.856L125.881 16.217L123.837 17.2305V19.2576H124.856V18.244V16.217C125.881 16.217 128.954 17.2305 129.973 17.2305H132.021H133.046V14.1899V13.1764H134.07C136.114 13.1764 134.07 16.217 138.162 17.2305C140.206 17.2305 143.279 17.2305 145.322 18.244C146.347 18.244 146.347 17.2305 146.347 17.2305V15.2034C146.347 14.1899 146.347 14.1899 145.322 14.1899C146.347 14.1899 146.347 14.1899 146.347 14.1899H147.371V17.2305H149.42L151.463 18.244C153.512 20.2711 156.58 24.3253 157.604 24.3253H159.653V25.3388H161.696V26.3523H162.721L161.696 27.3659C161.696 27.3659 162.721 27.3659 162.721 28.3794V30.4065H163.745V27.3659L164.77 28.3794C164.77 29.393 165.789 32.4336 166.813 33.4471V37.5013H167.837V39.5283V37.5013V41.5554H168.862V46.623C168.862 47.6366 168.862 47.6366 168.862 47.6366H170.905L168.862 48.6501L173.978 49.6637H175.003H176.022V47.6366V41.5554H175.003V38.5148V37.5013H173.978V35.4742C173.978 34.4606 173.978 34.4606 172.954 34.4606V33.4471H171.93L170.905 32.4336V30.4065C170.905 29.393 169.886 28.3794 168.862 27.3659V28.3794C167.837 26.3523 164.769 25.3388 166.813 24.3253V22.2982C168.862 21.2846 166.813 20.2711 167.837 18.244L168.862 19.2576L171.93 21.2846V20.2711C170.905 18.244 170.905 17.2305 168.862 15.2034C167.837 14.1899 164.77 12.1629 163.745 12.1629L160.672 10.1358H159.653L153.512 7.09517H152.488C150.439 7.09517 145.322 5.06809 144.303 5.06809H143.279C142.255 5.06809 142.255 5.06809 142.255 6.08162H138.162C138.162 5.06809 139.187 5.06809 141.23 5.06809V4.05455C138.162 4.05455 133.046 3.04102 130.997 3.04102L122.813 4.05455H119.74C118.721 4.05455 118.72 4.05455 118.72 5.06809L114.623 6.08162L117.696 3.04102L111.555 4.05455Z" fill="#726435"/>
<path fill-rule="evenodd" clip-rule="evenodd" d="M126.912 18.2495H125.893V16.2224L127.937 15.2089L126.912 14.1953H129.986C129.986 13.1818 132.029 12.1683 134.078 12.1683V9.12768C134.078 8.11413 133.053 8.11413 133.053 7.10059H129.986V8.11413L123.845 9.12768C122.82 8.11413 120.777 7.10059 119.752 7.10059H117.704C114.636 10.1412 112.587 10.1412 110.544 10.1412V9.12768V10.1412H108.495C107.471 10.1412 104.403 12.1683 104.403 13.1818C102.354 14.1953 101.33 15.2089 101.33 17.236V18.2495H100.311V21.2901L101.33 22.3036L102.354 24.3307H103.378V25.3442H106.446H105.427V26.3577H106.446V28.3848V30.4119V34.4661H107.471C107.471 36.4931 110.544 36.4931 112.587 36.4931V37.5067C114.636 37.5067 113.611 39.5337 119.752 39.5337C122.82 39.5337 124.869 40.5473 125.893 37.5067H126.912V36.4931C128.961 36.4931 137.145 37.5067 137.145 35.4796C138.17 35.4796 140.219 32.439 140.219 31.4254C140.219 30.4119 140.219 27.3713 142.262 27.3713V25.3442L143.286 23.3171C141.243 22.3036 142.262 22.3036 141.243 22.3036H139.194C138.17 24.3307 137.146 24.3307 136.126 24.3307C136.126 26.3578 136.126 25.3442 134.078 25.3442C132.029 25.3442 133.053 25.3442 131.01 25.3442V23.3171L126.912 21.2901V18.2495Z" fill="#64542F"/>
<path fill-rule="evenodd" clip-rule="evenodd" d="M83.9345 50.6729L82.9102 51.6863H83.9345V52.7V59.7948H84.9589V60.808C84.9589 61.8217 84.9589 61.8217 85.9833 61.8217L87.0023 66.8892H88.0267V67.9029H89.051V68.9166C89.051 71.9572 92.1188 72.9704 92.1188 74.9978H93.1432V77.0247H94.1676V78.0384L95.1919 81.079V82.0927L99.2843 86.1465V87.1602C102.352 87.1602 102.352 89.1871 103.376 89.1871C104.401 91.2145 105.425 89.1871 105.425 91.2145C106.45 91.2145 109.517 91.2145 109.517 93.2414L113.609 94.2551C113.609 94.2551 113.609 95.2682 114.634 95.2682H116.683L117.702 96.2819H121.799H119.75V97.2957L124.867 98.3088H135.1V99.3225L138.168 97.2957L139.192 91.2145V90.2008L138.168 92.2276V91.2145H137.149V93.2414H133.051H120.775V92.2276L118.726 91.2145V89.1871H116.683V88.1739H114.634H112.585C111.566 88.1739 112.585 88.1739 111.566 88.1739C110.542 87.1602 110.542 86.1465 109.517 86.1465L107.469 85.1333V84.1196L105.425 83.1059C104.401 81.079 103.376 81.079 102.352 79.0516V78.0384L98.2599 74.9978V73.9841H100.309L103.376 74.9978V73.9841C101.333 72.9704 100.309 71.9572 97.2355 70.9435V69.9298H98.2599V68.9166H97.2355V67.9029H96.2163V66.8892L93.1432 64.8623V62.8354L92.1188 60.808H91.0998L90.0754 57.7674H89.051V56.7542V54.7268H88.0267V51.6863V50.6729H85.9833H83.9345Z" fill="#4C4828"/>
<path fill-rule="evenodd" clip-rule="evenodd" d="M145.314 72.9745V75.0014V78.042H144.289V80.0689H143.265V82.0963L144.289 81.0826V83.1095C143.265 84.1232 144.289 86.1501 144.289 88.1775H146.338C146.338 87.1638 152.474 85.1369 152.474 83.1095C154.523 83.1095 156.571 80.0689 156.571 79.0557H157.59C157.59 77.0283 160.664 78.042 161.688 76.0151C162.707 75.0014 162.707 71.9608 163.731 71.9608V69.9339V68.9202H162.707V66.8933C162.707 64.8659 160.664 65.8796 159.639 64.8659H158.615V61.8253L157.59 60.8121C156.571 60.8121 155.547 58.7847 153.498 57.7716C151.455 57.7716 152.474 55.7441 148.382 55.7441V56.7578C147.357 56.7578 146.338 55.7441 145.314 55.7441H144.289C142.241 55.7441 141.222 59.7984 141.222 59.7984V63.8527L143.265 65.8796H144.289V66.8933C146.338 66.8933 144.289 68.9202 146.338 68.9202V70.9471H145.314V72.9745Z" fill="#61512A"/>
<path fill-rule="evenodd" clip-rule="evenodd" d="M139.15 91.2177L141.199 83.1091V82.0959V83.1091H140.175L139.15 82.0959L138.126 83.1091H128.917H127.893L122.776 82.0959H120.733H117.66L115.616 80.0685L116.635 79.0553H117.66H116.635V78.0416H115.616V77.0279H116.635H115.616L116.635 76.0147V75.001H112.543H109.475H108.451C108.451 73.9873 105.383 73.9873 104.359 73.9873V75.001L100.267 73.9873H98.2178V75.001L102.31 79.0553V80.0685C104.359 81.0822 104.359 82.0959 105.383 84.1228L107.426 85.1365V86.1497L109.475 87.1634C110.5 87.1634 111.519 87.1634 111.519 89.1903C112.543 89.1903 111.519 89.1903 112.543 89.1903H113.567V90.204H115.616V91.2177H117.66H120.733V92.2314H133.009H137.101V90.204H138.126V92.2314L139.15 90.204V91.2177Z" fill="#494113"/>
<path fill-rule="evenodd" clip-rule="evenodd" d="M116.674 76.0189V77.0326H115.649V78.0458H116.674V79.0595H117.698H116.674L115.649 80.0732L117.698 82.1001H120.766V83.1138H122.815L129.98 84.127H130.999H140.213L141.232 83.1138L142.257 84.127H143.281V83.1138L146.349 76.0189V73.992L143.281 72.9783C143.281 71.9646 143.281 71.9646 143.281 70.9514C143.281 67.9103 139.189 63.8565 139.189 61.8291H138.164C138.164 62.8428 138.164 63.8565 137.14 63.8565H136.116V65.8834H133.048V67.9103V68.924H132.023V69.9377H129.98L128.956 70.9514H126.907H127.931C126.907 71.9646 126.907 72.9783 124.864 72.9783H123.839V73.992C122.815 73.992 119.747 73.992 119.747 75.0052H116.674V76.0189Z" fill="#493C02"/>
<path fill-rule="evenodd" clip-rule="evenodd" d="M140.168 41.5609V42.5744C139.144 42.5744 139.144 42.5744 139.144 43.588V44.6015L145.285 45.615H143.242H144.261V46.6285H143.242V47.6421H141.193C143.242 47.6421 146.309 47.6421 148.358 47.6421C152.45 47.6421 152.45 48.6556 155.518 48.6556V49.6691H159.61H168.824L163.708 48.6556V43.588H162.683V41.5609H160.635V37.5067H159.61V35.4797H158.591V33.4526H155.518V31.4255H152.45V29.3984H150.402C146.309 30.412 149.377 33.4526 148.358 33.4526C147.334 33.4526 147.334 32.4391 146.309 32.4391L144.261 33.4526L143.242 34.4661V35.4797L138.125 37.5067V38.5203C139.144 38.5203 141.193 40.5474 141.193 42.5744H140.168V41.5609Z" fill="#6E5D13"/>
<path fill-rule="evenodd" clip-rule="evenodd" d="M134.057 15.1988L136.1 16.2123V17.2259L143.265 18.2394V19.2529H144.29C146.333 19.2529 148.382 22.2936 150.425 23.3071C151.45 24.3206 151.45 25.3342 152.474 26.3477C153.499 27.3612 154.523 27.3612 155.542 28.3748C154.523 28.3748 154.523 27.3612 153.499 27.3612C151.45 27.3612 150.425 27.3612 149.406 28.3748H151.45V30.4019H154.523V32.4289H157.591V34.456H158.615V36.483H159.639V40.5372H161.683V42.5643H162.707V47.6319L167.824 48.6455H168.848H173.965L168.848 47.6319L170.892 46.6184H168.848C168.848 45.6049 168.848 45.6049 168.848 45.6049V41.5507H167.824V37.4966V39.5236V37.4966H166.799V33.4425C165.775 33.4425 164.756 30.4019 164.756 28.3748L163.732 27.3612V28.3748H162.707V27.3612C162.707 26.3477 162.707 26.3477 161.683 26.3477L162.707 25.3342H161.683V24.3206H159.639H157.591C156.566 24.3206 153.499 21.28 152.474 19.2529L150.425 18.2394H148.382V14.1853H147.358C146.333 14.1853 146.333 14.1853 146.333 14.1853C146.333 15.1988 147.358 14.1853 147.358 15.1988V16.2123C147.358 17.2259 146.333 17.2259 146.333 17.2259C144.29 17.2259 141.217 16.2123 139.173 16.2123C135.076 16.2123 138.149 12.1582 135.076 12.1582H133.032V13.1718L134.057 15.1988Z" fill="#706327"/>
<path fill-rule="evenodd" clip-rule="evenodd" d="M165.786 68.9204C165.786 77.0285 161.694 79.0559 156.577 82.0965C154.534 84.1234 152.485 85.1371 150.436 86.1502C149.417 87.164 148.393 87.1639 147.369 89.1908C147.369 90.2045 145.32 91.2183 144.301 91.2183L143.276 92.2314L144.301 91.2183H146.344H147.369C148.393 91.2183 151.461 90.2045 151.461 90.2045H153.51L154.534 89.1908H156.577C156.577 87.1639 157.602 88.1777 158.626 87.164L160.67 85.1371C161.694 84.1234 162.718 84.1234 162.718 84.1234C163.743 83.1096 163.743 83.1096 164.767 82.0965L163.743 81.0828L166.81 78.0422L168.859 77.0285V75.0016L170.903 71.961C170.903 70.9473 170.903 70.9473 171.927 69.9336L173.976 66.893H175V60.8118L176.019 54.7306H177.044V52.7037H178.068H177.044L178.068 50.6766L175 49.6631H173.976H168.859H170.903V51.6902H169.884V54.7306C169.884 55.7443 169.884 55.7443 168.859 55.7443V57.7712H167.835V61.8255H166.81V63.8524V62.8392V64.8661H165.786V68.9204Z" fill="#4A4520"/>
<path fill-rule="evenodd" clip-rule="evenodd" d="M81.8579 59.8026V54.7351V52.7082C81.8579 51.6945 82.8823 50.681 83.9067 50.681H84.931H89.0232H90.0476H89.0232V43.5862C89.0232 41.5592 90.0476 38.5185 90.0476 36.4915H91.0719V35.4779H92.091C92.091 33.4509 92.091 32.4373 93.1154 32.4373V30.4102C93.1154 30.4102 94.1397 30.4102 94.1397 29.3967V27.3696C96.1885 26.3561 96.1886 24.329 98.232 23.3155L96.1885 22.3019H95.1641V23.3155H93.1154L91.0719 24.329C91.0719 23.3155 94.1397 18.2478 95.1641 17.2343C96.1885 16.2208 100.281 12.1666 101.305 11.1531L104.373 9.12598C101.305 9.12598 97.2076 14.1937 95.1641 15.2072C92.091 18.2478 90.0476 22.3019 87.9988 25.3426C82.8823 32.4373 80.8389 41.5592 80.8389 52.7082V54.7351C80.8389 56.762 81.8579 58.7894 81.8579 59.8026Z" fill="#817A55"/>
<path fill-rule="evenodd" clip-rule="evenodd" d="M95.1904 49.6583H98.2584C101.331 49.6583 109.516 49.6583 110.54 48.6447H109.516C109.516 47.6312 110.54 45.6041 111.565 45.6041V43.577H112.589L107.472 37.4958C106.448 38.5093 107.472 38.5093 106.448 38.5093H104.399C103.375 34.4552 103.375 34.4552 103.375 30.4011C103.375 29.3875 102.356 29.3875 101.331 28.374H100.307C100.307 31.4146 95.1904 34.4552 95.1904 40.5364V41.5499V46.6176V49.6583Z" fill="#F9F06F"/>
<path fill-rule="evenodd" clip-rule="evenodd" d="M143.275 92.2314C143.275 92.2314 142.25 92.2314 142.25 93.2452C142.25 94.2589 142.25 93.2452 142.25 94.2589C141.231 95.272 140.207 96.2857 140.207 96.2857C140.207 97.2994 140.207 97.2995 141.231 97.2995H142.25V98.3126H144.299L148.392 97.2995H147.367C148.392 96.2857 151.465 95.272 153.508 94.2589C155.557 93.2452 157.6 92.2314 158.625 91.2183C160.673 90.2046 161.698 88.1777 163.741 87.164C165.79 85.1371 165.79 84.1234 167.833 82.0965C170.906 79.0559 171.931 76.0148 174.999 70.9473C176.023 68.9204 179.091 59.7986 181.14 58.7849V60.8118C181.14 62.8392 180.115 63.8524 180.115 66.893L183.183 55.7443V51.6902L180.115 50.6766L177.047 49.6631H176.023L178.067 50.6766L177.047 51.6902H178.067H177.047V53.7174H176.023V60.8118L174.999 66.893H173.974L172.95 69.9336C171.931 69.9336 171.931 70.9473 171.931 71.961L169.882 75.0016V76.0148L167.833 77.0285L163.741 81.0828V82.0965C162.717 83.1097 162.717 83.1097 161.698 84.1234C160.673 85.1371 160.673 85.1371 159.649 85.1371L157.6 87.164C156.581 88.1777 155.557 87.164 155.557 89.1909H153.508V90.2046H151.465C151.465 91.2183 148.392 91.2183 147.367 91.2183H146.348L143.275 92.2314Z" fill="#4F4A35"/>
<path fill-rule="evenodd" clip-rule="evenodd" d="M137.127 49.6631C138.151 50.6766 138.151 51.6902 139.17 51.6902H141.219C143.268 51.6902 145.311 50.6766 147.36 50.6766C148.385 50.6766 149.404 52.7037 151.452 52.7037H154.52L155.544 53.7174V55.7443C155.544 56.758 156.569 56.758 157.593 56.758C159.637 57.7712 158.618 57.7712 159.637 57.7712V59.7986C159.637 60.8118 162.71 62.8392 162.71 63.8524C163.734 65.8798 164.753 65.8798 164.753 68.9204H165.778V64.8661H166.802V62.8392V64.8661V62.8392H167.826V58.7849H168.851V56.758C169.87 56.758 169.87 56.758 169.87 55.7443V52.7037H170.894V49.6631H168.851H167.826H158.618H154.52V50.6766C152.477 50.6766 152.477 49.6631 147.36 49.6631C145.311 49.6631 142.243 49.6631 140.195 49.6631H137.127Z" fill="#483C04"/>
<path fill-rule="evenodd" clip-rule="evenodd" d="M55.2803 60.8116C58.3534 62.8385 60.3968 65.8791 62.4455 67.9065C64.4943 69.9334 67.562 72.974 69.6108 75.0009C74.7273 80.0689 78.8196 85.1363 83.9361 89.1906C87.004 92.2312 112.587 118.583 112.587 118.583C113.611 118.583 114.635 117.57 114.635 116.556L57.329 58.7842L55.2803 60.8116Z" fill="#3F3393"/>
<path fill-rule="evenodd" clip-rule="evenodd" d="M148.393 116.556L150.436 118.583L209.786 59.7979C209.786 59.7979 208.767 58.7842 207.743 58.7842C206.718 58.7842 180.111 85.1363 178.068 88.1769C172.951 93.2444 167.834 98.3124 163.742 102.367C160.669 104.394 151.46 114.529 148.393 116.556Z" fill="#3F3393"/>
<path fill-rule="evenodd" clip-rule="evenodd" d="M81.8496 59.7948C81.8496 61.8217 83.8983 66.8892 83.8983 68.9166C83.8983 69.9298 84.9174 71.9572 85.9418 72.9704C85.9418 72.9704 87.9905 76.011 87.9905 77.0247C89.0096 80.0653 96.175 87.1602 98.2237 89.1871C99.2428 90.2008 99.2428 90.2008 101.292 92.2277C102.316 91.2145 103.34 92.2277 104.359 92.2277C106.408 94.2551 109.476 95.2683 111.525 96.282C115.617 98.3089 123.806 100.336 129.942 100.336H134.04L143.248 99.3226H141.2V98.3089H140.175V99.3226L136.083 100.336L137.107 97.2957L134.04 99.3226V98.3089H123.807L118.69 97.2957V96.282H122.782H118.69L117.665 95.2683H115.617C114.592 95.2683 114.592 95.2683 114.592 94.2551L110.5 93.2414C109.476 91.2145 107.432 91.2145 105.384 91.2145C105.384 89.1871 103.34 90.2008 103.34 89.1871C102.316 88.1739 102.316 86.1465 99.2428 86.1465V85.1333L95.1506 81.079L93.107 78.0384V77.0247L92.0827 78.0384V76.011H91.0583C91.0583 73.9841 87.9905 72.9704 87.9905 69.9298V67.9029H86.9661V66.8892H85.9418L84.9174 61.8217C83.8983 61.8217 83.8983 61.8217 83.8983 60.808V59.7948H82.874V52.7V51.6863L83.8983 50.6729C82.874 50.6729 81.8496 51.6864 81.8496 52.7V54.7268V59.7948Z" fill="#59594F"/>
<path fill-rule="evenodd" clip-rule="evenodd" d="M120.778 69.9285C119.754 70.9417 118.729 69.9285 118.729 71.9554H116.686H117.705V72.9691H111.569L113.613 73.9823H112.588V74.996H116.686V76.0097H120.778C120.778 74.996 123.846 74.996 124.87 74.996V72.9691H125.895C127.938 72.9691 127.938 71.9554 128.963 70.9417H127.938H128.963L129.987 69.9285H132.03V67.9011H133.055V66.888V64.8605H135.103V62.8337H136.128C137.147 62.8337 137.147 61.82 137.147 60.8068H138.171L141.244 55.7388H136.128L135.103 54.7256L133.055 58.7794H132.03C133.055 59.7931 133.055 60.8068 131.011 60.8068V62.8337L126.914 65.8742V66.888H124.87V67.9011H123.846V68.9148C122.822 68.9148 122.822 68.9148 122.822 68.9148L120.778 69.9285Z" fill="#544606"/>
<path fill-rule="evenodd" clip-rule="evenodd" d="M111.569 4.05414L118.729 2.02707L115.662 5.06768L119.754 4.05414C120.778 4.05414 119.754 3.04061 120.778 3.04061H122.822L128.963 2.02707C131.011 2.02707 136.128 3.04061 139.196 3.04061V4.05414C138.171 4.05414 137.147 4.05414 136.128 5.06768H140.22C140.22 5.06768 140.22 4.05414 141.244 4.05414H142.263C144.312 4.05414 148.405 6.08124 150.453 6.08124H151.478L157.613 9.12183H158.638L162.73 11.1489C163.754 10.1354 157.613 7.09474 156.594 6.08124C155.57 6.08124 154.545 5.06768 154.545 5.06768C153.521 5.06768 153.521 4.05414 152.497 4.05414C150.453 3.04061 149.429 3.04061 147.38 2.02707L133.055 0H129.987C125.895 0 112.588 2.02707 111.569 4.05414Z" fill="#7E7B64"/>
<path fill-rule="evenodd" clip-rule="evenodd" d="M112.544 66.8892V67.9029H108.447L106.403 68.9166H108.447V69.9298H119.704H118.68H120.729H121.753V66.8892H123.796V64.8623H125.845V63.8486C128.913 63.8486 126.87 62.8354 128.913 61.8217C129.937 58.7811 130.962 59.7948 130.962 57.7674L133.01 55.7405L135.054 51.6863H131.986L129.937 50.6729H128.913H129.937H128.913V52.7H127.894V53.7137H126.87C126.87 57.7674 123.796 56.7542 123.796 58.7811H124.821L122.777 60.808C120.729 60.808 119.704 62.8354 116.636 62.8354V64.8623H114.588V65.876L112.544 66.8892Z" fill="#83711A"/>
<path fill-rule="evenodd" clip-rule="evenodd" d="M180.12 50.6753L182.163 51.6888V56.7566L183.187 51.6888V49.6618C183.187 36.4858 178.071 27.364 172.954 19.2557V20.2692L169.887 18.2422H168.862C168.862 19.2557 171.93 23.3098 172.954 23.3098L173.979 26.3505V27.364V29.3911L175.003 34.4587H176.027V36.4858C177.047 37.4993 177.046 41.5535 177.046 43.5806L178.071 44.5941V50.6753H180.12Z" fill="#7E7B68"/>
<path fill-rule="evenodd" clip-rule="evenodd" d="M148.362 97.3016C154.503 96.2879 163.712 90.2067 166.78 86.1524C167.804 85.1392 169.853 84.1255 170.877 82.0986C171.896 81.0849 172.921 79.058 173.945 78.0443C174.969 77.0306 179.062 69.9363 179.062 67.9089C179.062 64.8683 180.086 63.8551 180.086 61.8277V59.8008C179.062 59.8008 174.969 69.9363 173.945 71.9632C171.896 76.0175 169.853 79.058 166.78 83.1118C164.736 85.1392 164.736 86.1524 162.687 88.1798C161.663 89.193 159.62 91.2204 157.571 92.2336C155.527 93.2473 153.479 94.261 152.454 95.2742C151.43 96.2879 147.338 97.3016 146.313 98.3153H148.362V97.3016Z" fill="#2C2D25"/>
<path fill-rule="evenodd" clip-rule="evenodd" d="M107.475 54.7269H110.542L111.567 55.7406V56.7543H112.591C113.61 56.7543 113.61 56.7543 113.61 56.7543H114.635C114.635 55.7406 114.635 54.7269 116.683 54.7269V53.7137L117.708 51.6865H118.727V50.6729H119.751C119.751 48.6458 122.824 48.6458 124.868 48.6458L125.892 47.6323C124.868 46.6188 123.843 46.6188 121.8 45.6052C120.776 44.5917 119.751 43.5782 117.708 44.5917H116.683V45.6052H115.659H116.683C116.683 46.6188 116.683 46.6188 115.659 46.6188H114.635V47.6323H112.591V49.6594H110.542L109.518 50.6729V52.7H107.475V54.7269Z" fill="#FCEF46"/>
<path fill-rule="evenodd" clip-rule="evenodd" d="M103.331 73.9929C104.355 73.9929 107.423 73.9929 107.423 75.0061H108.447H111.52H113.564L111.52 73.9929H117.656V72.9792H116.637H118.68C118.68 70.9523 119.705 71.9655 120.729 70.9523H118.68H107.423H103.331C102.306 69.9386 100.263 70.9523 99.2385 68.9249H98.2142L97.1898 65.8843V66.898H96.1708L93.0977 62.8438V64.8706L96.1708 66.898V67.9112H97.1898V68.9249H98.2142L99.2385 69.9386H97.1898V70.9523C100.263 71.9655 101.287 72.9792 103.331 73.9929Z" fill="#675A1D"/>
<path fill-rule="evenodd" clip-rule="evenodd" d="M104.363 58.784L105.387 59.7972L104.363 60.8109H102.319L104.363 61.8246H105.387V62.8377H103.344L107.436 63.8515H114.596H113.577V62.8377H114.596V61.8246H115.62V60.8109C116.645 60.8109 120.737 57.7703 121.761 56.7566C122.786 56.7566 124.829 54.7297 124.829 53.716H125.854L126.878 52.7028L127.902 49.6619L126.878 48.6484V49.6619H124.829H125.854H124.829V50.6755L122.786 52.7028L120.737 55.7434C119.713 56.7566 119.712 56.7566 117.669 56.7566L116.645 57.7703V58.784C113.577 58.784 114.596 59.7972 110.504 59.7972C107.436 59.7972 107.436 59.7972 104.363 58.784Z" fill="#C7AC3A"/>
<path fill-rule="evenodd" clip-rule="evenodd" d="M177.004 49.6704L180.072 50.6839L179.053 49.6704V43.5891L178.028 42.5756C178.028 40.5485 178.028 35.4808 177.004 35.4808V33.4537H175.979L174.955 28.3861V26.359L173.936 25.3455L172.912 22.3049C171.887 22.3049 169.838 19.2643 168.819 17.2372H169.838L168.819 16.2236C167.795 18.2507 168.819 19.2643 167.795 20.2778V22.3049C166.77 22.3049 168.819 24.332 169.838 26.359V25.3455C170.863 25.3455 171.887 27.3726 171.887 28.3861V30.4132L172.912 31.4267H173.936V32.4403C173.936 32.4403 174.955 32.4403 174.955 33.4537V35.4808H175.979V36.4944V39.535H177.004V45.6162V49.6704Z" fill="#777148"/>
<path fill-rule="evenodd" clip-rule="evenodd" d="M107.436 64.8661L104.363 65.8798C103.344 65.8798 103.344 65.8798 102.319 65.8798V66.893H103.344V67.9067H107.436H112.552H114.596V66.893H116.645V63.8524C119.712 63.8524 119.713 61.8255 122.786 61.8255L124.829 59.7986H123.81C124.829 56.758 126.878 57.7712 126.878 54.7306H127.902V52.7037H128.927V50.6766H129.946H128.927L127.902 49.6631L126.878 52.7037L125.854 53.7174H124.829C124.829 54.7306 122.786 56.758 121.761 56.758C121.761 57.7712 117.669 60.8118 115.62 60.8118V62.8392H114.596V63.8524H113.577V64.8661H114.596H107.436Z" fill="#A48D21"/>
<path fill-rule="evenodd" clip-rule="evenodd" d="M93.1318 49.661H95.1805V46.6204V41.5527H96.2049V40.5391C96.2049 34.4579 100.297 31.4173 101.321 28.3767H102.34V27.3632L101.321 26.3496C99.2726 26.3496 99.2726 26.3496 99.2726 28.3767C97.2239 29.3903 97.224 29.3903 96.2049 30.4038C95.1805 30.4038 96.2049 30.4038 96.2049 31.4173C95.1805 32.4308 95.1805 31.4173 95.1805 32.4308C94.1561 33.4444 95.1805 33.4444 94.1561 35.4714L92.1074 40.5391V41.5527V47.6339C92.1074 48.6474 92.1074 48.6474 93.1318 49.661Z" fill="#D0BE6A"/>
<path fill-rule="evenodd" clip-rule="evenodd" d="M111.542 57.7652L104.377 58.7789C107.445 59.7921 107.445 59.7921 110.518 59.7921C114.61 59.7921 113.586 58.7789 116.659 58.7789V57.7652L117.678 56.7515C119.727 56.7515 119.727 55.7383 120.751 55.7383L122.794 52.6977L125.867 50.6705V49.6569H126.892H125.867H127.911V48.6434L126.892 47.6299L125.867 48.6434C123.819 48.6434 120.751 48.6434 120.751 50.6705H119.727V52.6977H118.702L117.678 54.7246V55.7383C115.634 55.7383 115.634 56.7515 115.634 57.7652H112.561C112.561 57.7652 112.561 57.7652 111.542 57.7652Z" fill="#E5C232"/>
<path fill-rule="evenodd" clip-rule="evenodd" d="M98.2178 49.6621L100.267 50.6757V52.7026H101.286L103.334 54.73L104.359 53.7163L107.426 54.73V52.7026H109.475V50.6757L110.5 49.6621H112.543V47.6351H113.567V46.6215H114.592C115.616 46.6215 115.616 46.6215 115.616 45.608H114.592H115.616V44.5945H116.635L112.543 42.5674H111.519V44.5945C110.499 44.5945 109.475 45.608 109.475 47.6351H110.5C109.475 49.6621 101.286 49.6621 98.2178 49.6621Z" fill="#FCEF57"/>
<path fill-rule="evenodd" clip-rule="evenodd" d="M92.076 49.6675H93.1004H92.076C92.076 48.6539 92.076 48.6539 92.076 47.6405V41.5592V40.5457L93.1004 35.478C94.1194 33.4509 94.1196 33.4509 94.1196 32.4374C95.1439 31.4239 95.1439 32.4374 95.1439 31.4239C96.1683 30.4103 95.1439 30.4103 96.1683 30.4103C97.1927 29.3968 97.1927 30.4103 98.217 28.3832C99.2361 27.3697 98.217 26.3562 100.26 26.3562L99.2361 24.3291C96.1683 24.3291 97.1927 27.3697 95.1439 28.3832V29.3968C94.1196 30.4103 94.1196 30.4103 94.1196 30.4103V31.4239C92.0761 32.4374 92.076 33.4509 92.076 35.478H91.0516V36.4915H90.0273C90.0273 38.5186 89.0029 40.5457 89.0029 43.5863V50.681H92.076V49.6675Z" fill="#AD9E5B"/>
<path fill-rule="evenodd" clip-rule="evenodd" d="M118.701 69.9407H120.75H121.774C122.799 69.9407 122.799 69.9407 122.799 69.9407V67.9138H123.818V66.9001H125.866V65.8869L129.959 62.8464V60.8189C133.032 60.8189 133.032 59.8058 133.032 58.7921H134.051L136.1 54.7378C136.1 53.7246 136.1 52.7109 134.051 51.6973L132.007 55.7515L129.959 57.7783C129.959 60.8189 127.915 59.8058 127.915 61.8326C125.866 61.8326 127.915 63.8595 124.842 63.8595V64.8732H122.799V65.8869H120.75V68.9275H119.726L118.701 69.9407Z" fill="#716010"/>
<path fill-rule="evenodd" clip-rule="evenodd" d="M107.431 67.9029H112.547V66.8892H107.431H103.339V65.876H102.314V64.8623L101.29 63.8486C99.2411 63.8486 96.1733 61.8217 96.1733 59.7948H95.1489V58.7811H94.1245L92.081 53.7137V50.6729H91.0566H90.0322V52.6999V55.7405C92.081 56.7542 92.081 56.7542 92.081 57.7674V58.7811H93.1053V60.808C95.1488 60.808 96.1733 62.8354 96.1733 63.8486C98.222 65.876 98.222 64.8623 99.2411 66.8892L107.431 67.9029Z" fill="#86753B"/>
<path fill-rule="evenodd" clip-rule="evenodd" d="M104.399 58.7849H110.54L111.564 57.7712H110.54V56.758L109.516 55.7443H106.448L103.375 54.7306L102.356 55.7443L101.331 52.7037H100.307V50.6766L98.2584 49.6631H95.1904H96.2148L99.2827 54.7306C100.307 54.7306 99.2827 54.7306 100.307 55.7443C100.307 55.7443 101.331 55.7443 102.356 55.7443C103.375 57.7712 101.331 58.7849 104.399 58.7849Z" fill="#E9CF58"/>
<path fill-rule="evenodd" clip-rule="evenodd" d="M91.0889 50.6729L92.1132 52.7H93.1376L95.1812 57.7674H96.2056V58.7811H97.2299C97.2299 60.808 100.298 62.8354 102.346 62.8354V64.8623C103.371 64.8623 103.371 64.8623 104.39 64.8623H107.463L103.371 63.8486H105.414V62.8354H104.39L103.371 60.808L101.322 59.7948H99.2734C99.2734 58.7811 97.2299 56.7542 96.2056 56.7542L95.1812 54.7268V52.7V50.6729H94.1568H93.1376H91.0889Z" fill="#A18C35"/>
<path fill-rule="evenodd" clip-rule="evenodd" d="M93.0959 62.8354L97.1882 66.8892H98.2126V65.876L99.237 67.9029H101.28C102.305 69.9298 103.329 68.9166 105.373 69.9298H109.47H107.421L109.47 68.9166H102.305C99.2369 65.876 99.237 66.8892 97.1882 64.8623C96.1639 63.8486 95.1394 61.8217 94.1203 61.8217V59.7948H92.0716V57.7674C92.0716 56.7543 92.0715 56.7542 91.0472 55.7405V52.7V50.6729H85.9307H87.9794V51.6863V54.7268H89.0038V56.7542H90.0228V57.7674H91.0472V60.808H92.0716L93.0959 62.8354Z" fill="#726435"/>
<path fill-rule="evenodd" clip-rule="evenodd" d="M125.854 18.2514C127.898 19.265 131.995 19.265 131.995 21.2921L135.063 23.3191H137.112C139.155 23.3191 136.087 19.265 136.087 17.2379V16.2244L134.039 15.2108H133.014H130.971C129.947 15.2108 127.898 15.2108 125.854 14.1973V18.2514Z" fill="#86752B"/>
<path fill-rule="evenodd" clip-rule="evenodd" d="M103.325 60.8118H105.374L106.398 59.7986H105.374V58.7849C102.301 58.7849 103.325 57.7712 102.301 56.758C101.282 56.758 100.257 56.758 100.257 56.758C99.2329 55.7443 100.257 56.758 99.2329 55.7443L96.1649 49.6631H95.1406H94.1162H95.1406V51.6902L96.1649 53.7174L97.1841 54.7306C98.2085 54.7306 100.257 56.758 100.257 57.7712H102.301L103.325 60.8118Z" fill="#BFAE55"/>
<path fill-rule="evenodd" clip-rule="evenodd" d="M132.026 44.5872L133.05 39.5195H129.982C128.958 40.5331 127.934 41.5466 127.934 43.5737C127.934 44.5872 129.982 45.6008 131.001 45.6008L132.026 44.5872C131.001 44.5872 132.026 44.5872 132.026 44.5872Z" fill="#E5C232"/>
<path fill-rule="evenodd" clip-rule="evenodd" d="M131.987 39.5195H134.036V43.5737H131.987V44.5872C134.036 44.5872 133.012 44.5872 133.012 46.6143C134.036 46.6143 134.036 47.6278 135.055 47.6278H136.079L137.104 50.6685V49.6549C137.104 48.6414 137.104 48.6414 137.104 47.6278C137.104 46.6143 137.104 46.6143 138.128 45.6008V43.5737H139.147V41.5466L138.128 39.5195H129.938H131.987Z" fill="#A48D21"/>
<path fill-rule="evenodd" clip-rule="evenodd" d="M137.132 49.6561H140.2H142.248V48.6426H143.267V46.6155H142.248H144.292L138.151 45.602V44.5885C138.151 43.5749 138.151 43.5749 139.175 43.5749V41.5479H137.132V43.5749H136.107V45.602C135.083 45.602 135.083 46.6155 135.083 47.6291C137.132 48.6426 137.132 48.6426 137.132 49.6561Z" fill="#826C14"/>
<path fill-rule="evenodd" clip-rule="evenodd" d="M132.014 44.5872H133.038V43.5737H135.081V39.5195H132.014V44.5872Z" fill="#B59D27"/>
</svg>
