<svg width="512" height="512" viewBox="0 0 512 512" fill="none" xmlns="http://www.w3.org/2000/svg">
<g clip-path="url(#clip0_179_79)">
<rect width="512" height="512" rx="256" fill="white"/>
<path d="M256 512.087C187.755 512.087 123.604 485.458 75.3526 437.105C27.1015 388.741 0.518555 324.444 0.518555 256.065C0.518555 187.687 27.1015 123.389 75.3526 75.0358C123.604 26.6718 187.755 0.043457 256 0.043457C324.245 0.043457 388.396 26.6718 436.647 75.0249C484.899 123.378 511.471 187.676 511.471 256.054C511.471 324.433 484.899 388.73 436.647 437.084C388.396 485.437 324.234 512.065 256 512.065V512.087ZM256 4.38409C188.911 4.38409 125.84 30.5686 78.4095 78.0991C30.9793 125.63 4.83923 188.834 4.83923 256.065C4.83923 323.296 30.9685 386.501 78.3987 434.031C125.829 481.562 188.911 507.746 255.989 507.746C323.068 507.746 386.15 481.562 433.58 434.031C481.01 386.501 507.139 323.285 507.139 256.065C507.139 188.845 481.01 125.63 433.58 78.0991C386.15 30.5686 323.089 4.37327 256 4.37327V4.38409Z" fill="black"/>
<path d="M213.744 474.32L216.779 468.496L222.526 469.752L209.823 492.375L202.607 490.795L200.339 464.903L206.409 466.223L206.863 472.805L213.755 474.309L213.744 474.32ZM206.755 477.048L207.176 482.568L207.349 487.504H207.382C208.127 486.162 208.818 484.354 209.488 483.001L212.07 478.217L206.755 477.059V477.048Z" fill="black"/>
<path d="M178.8 458.321C179.837 458.245 182.214 458.429 185.065 459.404C193.242 462.175 195.683 468.723 193.437 475.337C190.682 483.499 183.445 485.859 176.348 483.445C173.605 482.514 171.671 481.345 170.904 480.511L173.421 476.625C174.415 477.47 175.711 478.336 177.623 478.985C181.76 480.392 185.854 478.942 187.604 473.789C189.181 469.124 187.452 465.303 182.721 463.701C181.155 463.171 179.373 462.835 178.077 462.867L178.8 458.332V458.321Z" fill="black"/>
<path d="M157.845 448.795C158.882 448.828 161.226 449.272 163.959 450.538C171.79 454.175 173.508 460.941 170.581 467.284C166.962 475.099 159.52 476.669 152.725 473.508C150.09 472.285 148.297 470.921 147.627 470.001L150.543 466.407C151.44 467.349 152.639 468.355 154.464 469.21C158.429 471.051 162.652 470.055 164.942 465.119C167.016 460.648 165.698 456.665 161.161 454.565C159.66 453.872 157.921 453.342 156.636 453.233L157.835 448.806L157.845 448.795Z" fill="black"/>
<path d="M145.153 440.147C151.439 444.033 152.077 451.047 148.339 457.13C144.516 463.333 137.538 465.639 131.284 461.763C124.781 457.747 124.349 450.733 127.935 444.899C132.158 438.036 138.931 436.293 145.12 440.125L145.153 440.147V440.147ZM142.452 443.838C139.331 441.9 135.615 443.806 133.098 447.876C130.787 451.632 130.603 455.929 133.854 457.942C137.106 459.956 140.821 457.921 143.187 454.067C145.661 450.062 145.671 445.83 142.485 443.86L142.452 443.838V443.838Z" fill="black"/>
<path d="M110.739 446.977L123.409 431.26L116.723 425.848L104.053 441.565L99.624 437.982L112.37 422.189L110.577 420.5L117.252 412.696L120.536 415.359L117.101 420.197L130.722 431.238L115.135 450.56L110.739 446.999V446.977Z" fill="black"/>
<path d="M88.8338 427.699L94.0402 422.665C96.8919 419.905 99.8191 417.166 102.379 415.11L102.304 414.98C99.2466 415.943 95.7685 417.21 92.8737 418.022L82.3312 420.966L78.2266 416.701L96.0277 399.458L99.6787 403.246L94.5263 408.236C91.7827 410.899 89.2443 413.194 86.6951 415.153L86.7491 415.261C89.7304 414.06 93.1761 412.923 96.0493 412.144L105.857 409.654L110.297 414.255L92.4956 431.487L88.8446 427.699H88.8338Z" fill="black"/>
<path d="M83.6914 394.175L89.762 391.718L93.3157 396.405L69.0011 405.346L64.54 399.457L79.5868 378.295L83.3458 383.253L79.4248 388.546L83.6914 394.175V394.175ZM76.6055 391.707L73.3434 396.178L70.2757 400.042L70.2973 400.074C71.734 399.533 73.4298 398.613 74.8232 398.018L79.8892 396.058L76.6055 391.718V391.707Z" fill="black"/>
<path d="M53.026 382.29L70.4275 372.093L66.0961 364.657L48.6945 374.853L45.8213 369.928L63.32 359.677L62.2399 357.458L71.2377 352.533L73.3656 356.192L68.4508 359.493L77.2866 374.648L55.8885 387.183L53.0368 382.29H53.026Z" fill="black"/>
<path d="M39.3397 356.419L45.9936 353.572C49.6445 352.014 53.3495 350.498 56.4712 349.481L56.4496 349.329C53.2523 349.134 49.5581 349.08 46.5552 348.81L35.6563 347.803L33.334 342.358L56.0931 332.594L58.1563 337.433L51.5672 340.258C48.0567 341.763 44.8702 343.008 41.7917 343.928V344.047C45.0106 343.993 48.64 344.155 51.5996 344.447L61.6452 345.627L64.162 351.516L41.4028 361.279L39.3397 356.441V356.419Z" fill="black"/>
<path d="M54.7756 329.001C53.8682 328.773 52.7988 328.665 51.7943 328.622C48.8238 328.427 45.821 328.741 43.4662 327.409C42.9045 327.074 42.2888 326.533 41.7379 325.851L41.6299 325.883C41.9215 328.676 40.755 331.598 37.3308 332.605C35.1489 333.255 33.0534 332.757 31.5195 331.609C29.6184 330.213 28.3114 327.496 27.3825 324.357C26.6156 321.748 26.0323 319.15 25.8486 317.364L49.2667 310.415L50.8437 315.74L41.5435 318.501L41.954 319.875C42.2564 320.904 42.8073 321.586 43.585 322.04C45.4861 323.166 48.651 322.841 50.9086 322.971C51.6107 323.025 52.1723 323.101 53.0473 323.22L54.7539 329.011L54.7756 329.001ZM31.2387 321.553C31.3143 322.062 31.3791 322.82 31.6707 323.805C32.3621 326.132 33.8959 327.712 36.2183 327.02C38.3678 326.381 38.9079 324.075 38.1734 321.564C38.0005 320.969 37.7521 320.157 37.5361 319.681L31.2387 321.553Z" fill="black"/>
<path d="M18.1036 265.125L38.3244 263.696V261.218L48.5752 260.795L48.8668 264.984L42.9907 265.764L44.0061 280.193L49.9254 280.15L50.2171 284.371L40.0095 285.313L39.6854 283.343C37.8491 282.401 36.0452 281.795 34.0253 281.384C31.5193 280.821 28.8297 280.713 25.8592 280.929L19.227 281.394L18.082 265.125H18.1036ZM26.7126 275.582C29.5318 275.387 32.3835 275.549 34.8895 276.145C36.4233 276.448 38.0111 277.032 39.2209 277.498L38.6484 269.347L23.1156 270.44L23.4937 275.798L26.7126 275.571V275.582Z" fill="black"/>
<path d="M32.9236 241.344L32.5672 250.501L38.4433 250.729L38.8429 240.499L43.4337 240.683L42.8072 256.53L18.0713 255.556L18.6762 240.261L23.2993 240.445L22.9212 250.122L27.9872 250.317L28.3437 241.16L32.9344 241.344H32.9236Z" fill="black"/>
<path d="M24.7145 228.333L23.8071 234.935L19.1084 234.286L21.7116 215.397L26.4103 216.047L25.4922 222.725L45.3241 225.464L44.5464 231.082L24.7145 228.343V228.333Z" fill="black"/>
<path d="M50.8108 196.887C50.9728 197.915 50.9944 200.308 50.2815 203.23C48.2292 211.63 41.9426 214.639 35.1591 212.972C26.8094 210.926 23.839 203.912 25.6212 196.616C26.3125 193.791 27.2955 191.767 28.0732 190.934L32.1563 193.109C31.4001 194.181 30.6548 195.545 30.1795 197.515C29.1426 201.769 30.9357 205.731 36.2069 207.03C40.992 208.199 44.6322 206.142 45.8204 201.282C46.2092 199.669 46.3929 197.861 46.2525 196.573L50.8216 196.898L50.8108 196.887Z" fill="black"/>
<path d="M31.4646 178.713L41.1321 182.231L41.2725 181.852L33.9598 171.829L36.2929 165.399L43.6705 177.284C45.4636 174.492 48.0128 173.929 51.1885 173.994C53.9969 174.113 56.8053 174.232 59.495 174.037L57.4102 179.774C55.5415 179.958 53.5864 179.752 51.7609 179.633C48.8337 179.514 46.4573 179.936 45.4852 182.632L45.1071 183.671L54.7422 187.178L52.8303 192.471L29.5635 184.006L31.4754 178.713H31.4646Z" fill="black"/>
<path d="M41.2738 154.661L47.744 157.908C51.2869 159.694 54.8299 161.556 57.6275 163.288L57.7247 163.169C55.802 160.603 53.4581 157.735 51.7406 155.267L45.4756 146.272L48.122 140.979L70.2439 152.095L67.8891 156.804L61.4837 153.589C58.0704 151.868 55.0675 150.233 52.3779 148.48L52.2915 148.567C54.4086 150.991 56.623 153.871 58.308 156.328L63.8925 164.782L61.0301 170.508L38.9082 159.391L41.263 154.682L41.2738 154.661Z" fill="black"/>
<path d="M80.3865 136.205L75.461 135.599C73.5707 135.404 72.1125 135.144 70.557 134.96L70.5354 134.993C71.4212 136.194 72.1773 137.439 73.1386 139.052L75.7742 143.209L72.2205 148.621L65.6854 135.761L51.6973 134.765L55.2726 129.321L60.209 129.981C61.84 130.176 63.1363 130.414 64.6053 130.717L64.6701 130.63C63.7195 129.126 63.0282 128.314 62.2397 126.907L59.5933 122.783L63.1038 117.435L69.412 129.84L84.0267 130.685L80.3865 136.216V136.205Z" fill="black"/>
<path d="M100.358 102.162L103.534 107.899L99.321 112.012L87.4932 88.9343L92.786 83.771L115.578 96.1434L111.138 100.484L105.413 97.2367L100.358 102.162ZM101.935 94.8228L97.1175 92.1275L92.9156 89.5513L92.894 89.5729C93.6069 90.9368 94.7303 92.5064 95.4864 93.827L98.0464 98.6222L101.935 94.8228V94.8228Z" fill="black"/>
<path d="M118.7 62.1543L133.844 81.8225L129.393 85.2647L117.079 69.266L112.662 72.6866L116.226 77.3195C120.158 82.4178 122.448 86.726 120.925 90.8393C120.277 92.1707 119.402 93.5562 117.738 94.8335L114.39 91.5645C115.243 90.6228 115.654 89.6594 115.74 88.8043C115.934 86.6502 114.422 83.9657 112.154 81.0214L105.489 72.3727L118.689 62.1651L118.7 62.1543Z" fill="black"/>
<path d="M142.118 47.4224L154.896 68.7034L150.079 71.6044L139.687 54.2959L134.902 57.1861L137.916 62.1978C141.232 67.7183 143.014 72.2647 141.038 76.1723C140.249 77.4171 139.212 78.6944 137.419 79.7769L134.47 76.1398C135.431 75.3063 135.95 74.3863 136.134 73.5528C136.576 71.4312 135.388 68.5951 133.476 65.4127L127.849 56.0495L142.139 47.4332L142.118 47.4224Z" fill="black"/>
<path d="M169.262 50.2259L160.967 54.0903L163.44 59.4268L172.697 55.1186L174.631 59.2969L160.275 65.9756L149.841 43.4714L163.699 37.02L165.654 41.2199L156.894 45.3008L159.033 49.9012L167.329 46.0368L169.262 50.2043V50.2259Z" fill="black"/>
<path d="M171.206 34.3354C172.697 33.4694 174.889 32.5169 178.184 31.3695C181.446 30.2437 184.006 30.0164 185.875 30.6875C187.884 31.4344 189.558 33.0364 190.336 35.2879C191.168 37.691 191.081 39.8126 190.12 41.6311C188.91 43.8826 186.469 45.7011 183.423 46.7511C182.764 46.9784 182.083 47.1408 181.543 47.1733L184.46 55.6272L179.189 57.4566L171.206 34.3354V34.3354ZM180.117 43.0383C180.614 43.0166 181.111 42.8868 181.878 42.627C184.654 41.6636 185.929 39.6286 185.129 37.3013C184.417 35.2555 182.505 34.4328 179.869 35.3529C178.864 35.6993 178.173 36.0565 177.795 36.3379L180.117 43.0491V43.0383Z" fill="black"/>
<path d="M209.412 22.8182L210.492 27.3212L201.354 29.5186L206.052 49.1218L200.554 50.4424L194.786 26.3253L209.422 22.8074L209.412 22.8182Z" fill="black"/>
<path d="M229.633 45.1924C222.309 46.1233 217.416 41.0682 216.52 33.989C215.602 26.7582 219.598 20.5774 226.878 19.6465C234.461 18.6831 239.182 23.8681 240.046 30.655C241.061 38.6544 236.881 44.2615 229.676 45.1816H229.644L229.633 45.1924ZM229.428 40.6244C233.068 40.159 234.775 36.3487 234.17 31.5968C233.619 27.2128 231.07 23.7598 227.278 24.2361C223.487 24.7232 221.877 28.6309 222.45 33.123C223.044 37.7992 225.679 41.1007 229.395 40.6244H229.428Z" fill="black"/>
<path d="M265.204 18.0986L265.333 42.9301L259.717 42.9626L259.608 22.764L254.024 22.7965L254.056 28.6417C254.089 35.0823 253.311 39.91 249.617 42.2481C248.299 42.9193 246.754 43.4821 244.67 43.493L243.989 38.8601C245.231 38.6328 246.15 38.1132 246.733 37.4854C248.191 35.8942 248.623 32.8416 248.602 29.1288L248.548 18.1961L265.215 18.1095L265.204 18.0986Z" fill="black"/>
<path d="M281.632 44.8459C274.298 43.9908 270.755 37.9074 271.587 30.8174C272.429 23.5758 277.787 18.5315 285.078 19.3867C292.661 20.2743 296.009 26.4443 295.221 33.2421C294.292 41.2522 288.891 45.6903 281.665 44.8459H281.632V44.8459ZM282.529 40.3538C286.18 40.7759 288.74 37.4853 289.291 32.7333C289.799 28.3494 288.157 24.3768 284.365 23.933C280.574 23.4892 278.068 26.8989 277.539 31.4019C276.999 36.0781 278.77 39.9208 282.486 40.3538H282.518H282.529Z" fill="black"/>
<path d="M318.639 26.0762L317.613 30.6009L308.453 28.5117L303.982 48.1691L298.473 46.9134L303.971 22.7314L318.65 26.087L318.639 26.0762Z" fill="black"/>
<path d="M326.892 55.1293C319.914 52.7154 317.765 46.0042 320.087 39.2605C322.463 32.3761 328.771 28.5984 335.717 31.0122C342.932 33.5127 344.877 40.2672 342.652 46.7294C340.027 54.3499 333.794 57.5215 326.924 55.1401H326.892V55.1293ZM328.728 50.9294C332.196 52.1309 335.414 49.4681 336.97 44.9434C338.407 40.7651 337.661 36.5327 334.043 35.2879C330.435 34.0323 327.259 36.8358 325.779 41.1115C324.246 45.5604 325.153 49.6954 328.685 50.9185H328.717L328.728 50.9294Z" fill="black"/>
<path d="M353.615 38.741C355.019 39.0549 357.817 40.1698 360.366 41.4146C363.445 42.9084 365.259 44.2074 366.383 45.8527C367.571 47.4547 367.917 49.5871 366.912 51.6763C366.016 53.5273 363.931 54.8912 360.896 54.5664L360.831 54.6963C363.121 56.6339 364.006 59.4375 362.645 62.2518C361.684 64.2327 359.967 65.4992 358.033 65.8564C355.808 66.4084 352.73 65.7698 348.301 63.6157C345.752 62.3817 344.023 61.3317 342.976 60.6931L353.615 38.741V38.741ZM349.705 59.5457C350.17 59.8488 350.796 60.1627 351.585 60.5416C353.928 61.6781 356.316 61.7431 357.45 59.3833C358.508 57.1968 356.964 55.4216 354.415 54.1876L352.697 53.3541L349.694 59.5457H349.705ZM354.469 49.7062L356.089 50.4964C358.8 51.817 360.712 51.3948 361.522 49.7387C362.375 47.9851 361.457 46.513 359.2 45.4197C358.076 44.8785 357.482 44.662 356.985 44.5104L354.469 49.7062V49.7062Z" fill="black"/>
<path d="M401.747 66.9173L397.243 72.5893C394.769 75.7068 392.231 78.7918 389.962 81.1732L390.06 81.2922C392.965 79.9392 396.249 78.2289 399.014 77.049L409.081 72.7517L413.715 76.4429L398.312 95.8621L394.197 92.5822L398.658 86.9643C401.034 83.9659 403.249 81.3572 405.517 79.084L405.452 78.9866C402.654 80.567 399.382 82.1474 396.638 83.2948L387.24 87.0401L382.239 83.0567L397.642 63.6375L401.758 66.9173H401.747Z" fill="black"/>
<path d="M440.536 104.089L434.886 108.624C431.797 111.114 428.621 113.56 425.889 115.379L425.953 115.519C429.086 114.848 432.661 113.906 435.621 113.365L446.39 111.417L450.084 116.039L430.771 131.55L427.487 127.448L433.072 122.956C436.053 120.563 438.786 118.507 441.508 116.797L441.465 116.688C438.386 117.608 434.843 118.42 431.916 118.94L421.924 120.509L417.928 115.508L437.241 99.9861L440.525 104.089H440.536Z" fill="black"/>
<path d="M453.109 149.346C455.615 147.668 458.5 145.763 461.686 143.934L461.61 143.804C458.489 144.735 454.924 145.72 452.008 146.358L442.167 148.794L439.921 145.038L446.79 137.774C448.724 135.631 451.478 133.152 453.93 130.955L453.876 130.858C450.906 132.47 447.655 134.332 444.933 135.804L436.669 140.253L433.947 135.707L455.95 124.255L459.871 130.825L454.092 137.049C452.094 139.149 449.772 141.357 447.601 143.436L447.655 143.533C450.452 142.624 453.671 141.639 456.512 140.957L464.743 138.976L468.534 145.319L448.022 159.272L445.224 154.596L453.088 149.357L453.109 149.346Z" fill="black"/>
<path d="M467.033 179.839C469.765 178.561 472.898 177.111 476.333 175.779L476.279 175.639C473.049 176.093 469.377 176.526 466.395 176.71L456.296 177.641L454.643 173.593L462.528 167.444C464.753 165.615 467.853 163.58 470.608 161.772L470.565 161.664C467.378 162.812 463.889 164.165 460.973 165.204L452.137 168.354L450.128 163.45L473.611 155.429L476.506 162.508L469.852 167.791C467.562 169.566 464.937 171.395 462.463 173.127L462.507 173.225C465.412 172.748 468.739 172.251 471.656 172.012L480.092 171.287L482.889 178.139L460.508 188.845L458.445 183.8L467.011 179.806L467.033 179.839Z" fill="black"/>
<path d="M486.908 191.594L479.239 197.331C477.727 198.381 476.452 199.29 475.135 200.178L475.178 200.319C476.226 200.384 477.986 200.297 480.114 200.297L489.328 200.654L490.873 206.489L477.932 205.147C473.817 204.681 469.831 204.107 467.141 203.003C464.722 201.899 462.907 200.254 462.151 197.364C461.816 196.119 461.827 195.285 461.946 194.603L466.428 193.748C466.428 194.354 466.493 194.874 466.731 195.729C467.152 197.299 468.589 198.132 469.68 198.37C470.09 198.338 470.425 198.176 470.857 197.937L485.267 185.37L486.919 191.594H486.908Z" fill="black"/>
<path d="M492.848 218.179L483.397 219.565L484.715 228.592L494.166 227.207L494.987 232.814L470.5 236.408L469.679 230.801L479.886 229.296L478.568 220.268L468.361 221.762L467.551 216.187L492.038 212.594L492.848 218.168V218.179Z" fill="black"/>
<path d="M470.803 252.774C470.652 245.381 476.182 241.03 483.3 240.878C490.57 240.727 496.284 245.359 496.435 252.709C496.597 260.362 490.948 264.53 484.121 264.67C476.085 264.844 470.954 260.092 470.803 252.807V252.774V252.774ZM475.361 253.045C475.437 256.725 479.045 258.825 483.819 258.717C488.226 258.62 491.92 256.455 491.845 252.623C491.769 248.791 488.053 246.777 483.538 246.875C478.839 246.972 475.286 249.256 475.361 253.012V253.045Z" fill="black"/>
<path d="M493.929 291.093L469.258 288.603L469.82 282.996L489.878 285.021L490.44 279.457L484.629 278.872C478.234 278.223 473.524 276.935 471.602 273.005C471.073 271.62 470.684 270.029 470.9 267.939L475.566 267.745C475.663 269.011 476.084 269.974 476.646 270.624C478.072 272.248 481.064 272.995 484.747 273.363L495.603 274.456L493.929 291.082V291.093Z" fill="black"/>
<path d="M465.661 304.624C467.281 297.404 473.697 294.514 480.643 296.083C487.739 297.685 492.179 303.552 490.558 310.74C488.884 318.209 482.403 320.893 475.739 319.388C467.897 317.613 464.051 311.768 465.65 304.656V304.624H465.661ZM470.035 305.988C469.225 309.581 472.228 312.482 476.884 313.532C481.183 314.507 485.298 313.283 486.141 309.549C486.983 305.814 483.861 302.957 479.454 301.961C474.864 300.922 470.867 302.286 470.046 305.955V305.988H470.035Z" fill="black"/>
<path d="M480.351 343.527L475.977 342.023L479.023 333.114L459.99 326.576L461.827 321.218L485.234 329.26L480.351 343.538V343.527Z" fill="black"/>
<path d="M450.647 348.658C453.79 341.968 460.671 340.529 467.12 343.57C473.698 346.677 476.765 353.367 473.644 360.024C470.392 366.951 463.49 368.175 457.312 365.252C450.031 361.821 447.547 355.283 450.647 348.69V348.658ZM454.622 350.931C453.056 354.265 455.356 357.751 459.677 359.786C463.663 361.669 467.94 361.366 469.571 357.902C471.203 354.438 468.761 350.974 464.678 349.048C460.422 347.045 456.231 347.5 454.633 350.899V350.931H454.622Z" fill="black"/>
<path d="M464.051 377.029C463.587 378.393 462.182 381.067 460.681 383.47C458.866 386.371 457.387 388.048 455.626 388.99C453.908 389.997 451.759 390.127 449.793 388.893C448.054 387.8 446.93 385.57 447.579 382.593L447.46 382.517C445.299 384.595 442.415 385.18 439.769 383.513C437.9 382.344 436.842 380.504 436.68 378.534C436.366 376.25 437.339 373.251 439.942 369.073C441.443 366.67 442.675 365.057 443.409 364.083L464.051 377.029V377.029ZM443.83 370.902C443.474 371.335 443.107 371.92 442.642 372.678C441.26 374.897 440.946 377.256 443.161 378.653C445.213 379.941 447.147 378.588 448.648 376.185L449.663 374.561L443.841 370.913L443.83 370.902ZM453.077 376.704L452.126 378.231C450.527 380.785 450.733 382.744 452.288 383.719C453.941 384.758 455.496 384 456.825 381.868C457.484 380.807 457.754 380.233 457.97 379.757L453.087 376.694L453.077 376.704Z" fill="black"/>
<path d="M434.51 417.773C433.57 419.223 432.047 421.063 429.616 423.585C427.219 426.075 425.026 427.439 423.06 427.677C420.932 427.915 418.718 427.255 417 425.588C415.175 423.823 414.289 421.886 414.332 419.829C414.397 417.275 415.747 414.547 418.005 412.22C418.491 411.722 419.031 411.267 419.495 410.996L413.079 404.772L416.957 400.756L434.51 417.773V417.773ZM422.628 414.038C422.196 414.276 421.807 414.623 421.245 415.207C419.204 417.329 418.988 419.721 420.748 421.431C422.304 422.947 424.378 422.806 426.322 420.793C427.067 420.024 427.521 419.396 427.715 418.974L422.617 414.038H422.628Z" fill="black"/>
<path d="M392.825 423.109C398.529 418.411 405.355 420.078 409.881 425.599C414.494 431.227 414.396 438.599 408.726 443.264C402.817 448.124 396.066 446.252 391.734 440.959C386.625 434.724 387.187 427.753 392.804 423.131L392.836 423.109H392.825ZM395.429 426.865C392.588 429.203 393.171 433.338 396.206 437.029C399.004 440.439 403.001 442.009 405.949 439.584C408.898 437.159 408.185 432.981 405.323 429.485C402.342 425.848 398.356 424.462 395.461 426.843L395.429 426.865V426.865Z" fill="black"/>
<path d="M364.709 444.184C365.292 443.329 366.923 441.576 369.462 439.952C376.731 435.287 383.353 437.452 387.112 443.34C391.746 450.593 389.078 457.726 382.769 461.785C380.328 463.355 378.211 464.145 377.088 464.21L375.63 459.815C376.904 459.566 378.395 459.09 380.091 457.997C383.774 455.637 385.2 451.523 382.262 446.945C379.605 442.788 375.554 441.771 371.341 444.466C369.948 445.353 368.576 446.544 367.788 447.573L364.698 444.184H364.709Z" fill="black"/>
<path d="M344.206 454.662C344.876 453.872 346.69 452.314 349.38 450.96C357.103 447.107 363.455 449.975 366.576 456.232C370.411 463.939 366.987 470.748 360.279 474.103C357.687 475.402 355.494 475.954 354.36 475.911L353.377 471.386C354.673 471.278 356.207 470.964 358.011 470.055C361.921 468.096 363.779 464.166 361.359 459.295C359.166 454.879 355.235 453.428 350.773 455.658C349.294 456.394 347.803 457.434 346.906 458.364L344.206 454.662V454.662Z" fill="black"/>
<path d="M343.008 481.183L340.556 474.363C339.206 470.618 337.921 466.829 337.089 463.647H336.938C336.56 466.851 336.29 470.553 335.847 473.53L334.205 484.376L328.642 486.389L320.238 463.052L325.175 461.266L327.605 468.02C328.901 471.625 329.96 474.883 330.694 478.011H330.813C330.943 474.796 331.321 471.17 331.785 468.226L333.535 458.235L339.552 456.059L347.955 479.397L343.019 481.183H343.008Z" fill="black"/>
<path d="M314.967 490.037L313.368 482.969C312.493 479.093 311.683 475.164 311.24 471.906H311.089C310.322 475.023 309.598 478.66 308.788 481.561L305.828 492.126L300.06 493.436L294.595 469.243L299.715 468.085L301.303 475.088C302.145 478.823 302.793 482.189 303.139 485.393H303.258C303.787 482.233 304.597 478.682 305.418 475.814L308.388 466.115L314.621 464.697L320.087 488.89L314.967 490.048V490.037Z" fill="black"/>
<path d="M226.21 220.246C226.21 220.246 205.524 254.788 165.385 247.881C125.246 240.975 136.188 179.611 136.188 179.611C136.188 179.611 135.778 151.164 164.575 139.376C193.373 127.589 214.285 135.642 218.098 137.341C223.995 139.972 238.718 151.933 242.25 174.881C243.795 184.894 241.775 195.134 236.342 203.685L226.21 220.246" fill="#C5E5F4"/>
<path d="M229.255 134.17C229.082 134.17 228.909 134.127 228.747 134.04C228.218 133.759 228.023 133.098 228.304 132.579C240.143 110.367 253.926 100.322 254.498 99.8996C254.984 99.5532 255.654 99.6615 256.01 100.149C256.356 100.636 256.248 101.307 255.762 101.664C255.622 101.761 241.795 111.861 230.216 133.596C230.022 133.964 229.644 134.17 229.265 134.17H229.255Z" fill="black"/>
<path d="M134.827 153.979C134.46 153.979 134.104 153.795 133.909 153.459C133.834 153.34 127.428 143.512 101.126 141.173C100.532 141.119 100.089 140.6 100.143 140.004C100.197 139.409 100.716 138.965 101.31 139.019C128.908 141.477 135.486 151.901 135.745 152.334C136.059 152.842 135.886 153.513 135.378 153.817C135.205 153.925 135.011 153.968 134.817 153.968L134.827 153.979Z" fill="black"/>
<path d="M132.601 218.06C132.731 217.573 132.202 217.172 131.77 217.432C127.546 219.943 113.58 229.22 118.084 239.427C121.357 246.853 127.87 236.094 132.601 218.049V218.06Z" fill="black"/>
<path d="M137.408 231.255C137.311 230.497 136.284 230.324 135.939 231.006C134.005 234.827 131.218 242.145 137.753 242.859C141.329 243.249 141.21 238.518 140.108 237.252C138.693 235.639 137.689 233.344 137.408 231.255Z" fill="black"/>
<path d="M132.083 157.919C132.515 157.161 130.592 156.209 129.717 156.425C122.664 158.168 101.212 161.729 106.245 177.782C109.756 188.985 116.421 176.516 127.417 163.634C129.199 161.545 131.284 159.326 132.083 157.93V157.919Z" fill="black"/>
<path d="M107.758 145.124C104.01 144.226 97.1187 143.598 99.0954 152.896C101.072 162.195 111.561 146.034 107.758 145.124Z" fill="black"/>
<path d="M134.643 144.259C134.028 144.984 132.883 144.616 132.775 143.641C131.954 136.389 130.377 115.4 140.217 120.196C150.057 124.991 138.942 139.225 134.654 144.259H134.643Z" fill="black"/>
<path d="M244.161 117.749C243.319 117.792 242.822 118.702 243.265 119.405C246.289 124.298 258.56 138.511 263.399 128.032C268.195 117.641 249.703 117.5 244.172 117.749H244.161Z" fill="black"/>
<path d="M226.899 89.4539C226.899 89.4539 226.953 97.7347 239.483 111.179C239.764 111.482 240.272 111.482 240.531 111.157C241.395 110.096 241.395 107.769 240.531 105.95C239.667 104.132 238.587 101.166 237.917 98.3408C237.517 96.6414 236.902 96.6414 237.669 92.4415C239.699 81.2381 227.418 81.801 226.899 89.4539V89.4539Z" fill="black"/>
<path d="M254.941 105.853C254.876 106.946 255.384 107.986 256.205 108.7C259.078 111.2 266.564 116.169 264.177 97.6265C263.744 94.2709 258.246 97.6265 258.862 102.811C259.327 106.784 255.136 102.714 254.941 105.853Z" fill="black"/>
<path d="M294.659 275.679C296.409 262.592 303.214 231.418 329.354 201.044C331.914 198.067 335.544 196.173 339.443 195.891C347.393 195.318 359.318 198.186 356.974 221.372C353.766 253.142 315.658 258.262 297.846 277.314C296.593 278.656 294.411 277.53 294.659 275.679Z" fill="black"/>
<path d="M349.078 199.528C349.078 199.528 329.613 197.396 334.787 208.978C338.114 216.436 360.841 208.978 349.078 199.528Z" fill="#C5E5F4"/>
<path d="M346.702 428.814C346.702 428.814 293.838 315.567 237.886 353.919C237.886 353.919 222.763 369.809 253.019 382.539C254.834 383.307 256.616 384.162 258.333 385.126L344.131 433.317C345.708 434.204 347.598 432.819 347.21 431.065L346.713 428.814H346.702Z" fill="black"/>
<path d="M247.834 354.352C247.834 354.352 234.699 354.633 238.685 364.104C239.905 367.016 243.545 372.028 249.324 371.725C255.103 371.422 258.754 356.484 247.834 354.352Z" fill="#C5E5F4"/>
<path d="M257.988 490.979C262.515 490.979 266.186 487.3 266.186 482.763C266.186 478.225 262.515 474.547 257.988 474.547C253.46 474.547 249.789 478.225 249.789 482.763C249.789 487.3 253.46 490.979 257.988 490.979Z" fill="black"/>
<path d="M186.977 219.445C180.442 210.981 173.907 202.797 179.373 200.838C182.159 199.842 188.91 204.41 195.456 212.864C201.991 221.329 205.394 229.653 203.061 231.471C200.727 233.29 193.523 227.899 186.977 219.445V219.445Z" fill="black"/>
<path d="M223.167 216.37C225.17 214.188 220.19 206.333 212.044 198.827C203.898 191.321 195.671 187.005 193.668 189.188C191.666 191.37 196.645 199.225 204.791 206.731C212.937 214.238 221.164 218.553 223.167 216.37Z" fill="black"/>
<path d="M214.738 191.962C206.226 185.489 202.1 178.172 203.277 175.455C205.524 170.259 213.366 176.851 221.586 183.692C229.806 190.533 235.888 199.388 233.047 200.199C227.635 201.758 222.288 197.71 214.738 191.962Z" fill="black"/>
<path d="M185.001 151.955C185.249 157.821 185.433 170.464 178.768 182.133C174.199 190.133 160.837 195.372 145.38 195.902C144.754 195.924 144.494 195.047 145.034 194.701C148.102 192.731 156.949 189.083 162.349 183.876C167.75 178.669 176.748 165.301 183.769 151.673C184.104 151.034 184.979 151.218 185.011 151.955H185.001Z" fill="black"/>
<path d="M172.33 152.29C172.579 151.749 173.41 151.879 173.432 152.474C173.659 158.817 170.516 179.178 144.548 185.132C143.965 185.262 143.717 184.526 144.246 184.233C154.432 178.572 153.859 178.919 159.941 171.699C164.402 166.416 167.275 163.407 172.319 152.279L172.33 152.29Z" fill="black"/>
<path d="M160.393 153.135C160.577 152.561 161.42 152.702 161.409 153.308C161.344 155.971 161.117 159.922 160.361 163.797C159.367 168.906 157.779 170.421 155.047 173.268C155.047 173.268 151.784 176.57 146.837 176.072C146.124 175.996 145.768 175.152 146.254 174.632C147.183 173.647 149.527 172.446 153.016 168.549C157.445 163.602 159.248 156.782 160.393 153.135V153.135Z" fill="black"/>
<path d="M362.051 434.68C361.565 434.68 361.122 434.356 361.003 433.858C343.256 361.875 307.384 307.882 280.423 275.257C254.294 243.649 231.264 225.453 226.479 221.816C222.612 227.499 201.7 255.242 165.201 248.953C155.858 247.351 148.459 242.718 143.187 235.195C129.221 215.246 134.687 181.949 135.108 179.514C135.129 177.511 135.95 149.93 164.164 138.381C193.426 126.409 214.597 134.603 218.54 136.367C224.179 138.889 239.614 150.688 243.319 174.729C244.918 185.121 242.768 195.621 237.249 204.28L227.646 219.976C232.204 223.44 255.557 241.787 282.043 273.806C309.166 306.615 345.255 360.922 363.11 433.327C363.25 433.912 362.905 434.496 362.321 434.637C362.235 434.659 362.148 434.67 362.062 434.67L362.051 434.68ZM195.154 134.148C186.815 134.148 176.565 135.653 164.985 140.394C137.247 151.749 137.268 179.33 137.268 179.611C137.268 179.676 137.268 179.752 137.247 179.817C137.182 180.163 131.273 214.445 144.959 233.961C149.885 240.986 156.819 245.316 165.569 246.821C204.498 253.51 225.086 220.041 225.291 219.694L235.412 203.133C240.651 194.906 242.703 184.937 241.18 175.065C237.648 152.095 222.634 140.567 217.654 138.348C215.397 137.341 207.296 134.148 195.144 134.148H195.154Z" fill="black"/>
</g>
<defs>
<clipPath id="clip0_179_79">
<rect width="512" height="512" rx="256" fill="white"/>
</clipPath>
</defs>
</svg>
