<svg width="50" height="50" viewBox="0 0 50 50" fill="none" xmlns="http://www.w3.org/2000/svg">
<path d="M38.0937 18.2969H11.9219C9.35893 18.2969 7.28125 20.3746 7.28125 22.9375V39.1875C7.28125 41.7504 9.35893 43.8281 11.9219 43.8281H38.0937C40.6567 43.8281 42.7344 41.7504 42.7344 39.1875V22.9375C42.7344 20.3746 40.6567 18.2969 38.0937 18.2969Z" fill="#68C7D3" stroke="#68C7D3" stroke-width="2" stroke-miterlimit="10"/>
<path d="M8.65625 19.6406L25.25 31.2813" stroke="#D1E6E9" stroke-width="2" stroke-linecap="round" stroke-linejoin="round"/>
<path d="M25.25 31.2813L41.1875 19.5" stroke="#D1E6E9" stroke-width="2" stroke-linecap="round" stroke-linejoin="round"/>
<path d="M15.5781 42.2188L18.5312 45.4376L17.7344 46.172C14.1875 49.4376 8.65625 49.1876 5.39062 45.6407L2.4375 42.422L3.23437 41.6876C6.78125 38.422 12.3125 38.672 15.5781 42.2188V42.2188Z" fill="#A1D8DF"/>
<path d="M18.8128 41.0156L18.6253 45.375L17.5316 45.3281C12.7191 45.125 8.96907 41.0469 9.18782 36.2344L9.37532 31.875L10.4691 31.9219C15.2816 32.125 19.0316 36.2031 18.8128 41.0156V41.0156Z" fill="#D1E6E9"/>
<path d="M25 21.875C29.3147 21.875 32.8125 18.3772 32.8125 14.0625C32.8125 9.74778 29.3147 6.25 25 6.25C20.6853 6.25 17.1875 9.74778 17.1875 14.0625C17.1875 18.3772 20.6853 21.875 25 21.875Z" fill="#30ACC2"/>
<path d="M29.6875 12.5H20.3125V15.625H29.6875V12.5Z" fill="#D1E6E9"/>
<path d="M26.5625 9.375H23.4375V18.75H26.5625V9.375Z" fill="#D1E6E9"/>
</svg>
