<svg width="50" height="50" viewBox="0 0 50 50" fill="none" xmlns="http://www.w3.org/2000/svg">
<path d="M30.5004 44.79L26.1104 41.97L26.8904 40.88C30.0804 36.1 36.3604 34.68 41.1404 37.87L45.5303 40.69L44.7504 41.78C41.7104 46.59 35.3104 47.83 30.5004 44.79Z" fill="#A1D8DF"/>
<path d="M32.31 41.15L27.71 40.8L27.81 39.69C28.27 34.56 32.7 30.79 37.77 31.36L42.37 31.71L42.27 32.82C41.87 37.83 37.43 41.61 32.31 41.15Z" fill="#D1E6E9"/>
<path d="M11.5496 21.62H16.3296C18.5696 21.62 20.3596 21.02 21.4096 19.98C22.4596 18.93 23.0496 17.59 23.0496 15.8C23.0496 14.16 22.4496 12.81 21.4096 11.92C20.3596 11.02 18.8696 10.58 16.9296 10.58C15.1396 10.58 13.7896 11.03 12.5996 11.92C11.3996 12.67 10.8096 13.71 10.8096 15.21H1.83965C1.83965 12.97 2.58965 11.03 3.77965 9.22996C5.11965 7.43996 6.76965 6.08996 9.15965 5.19996C11.3996 4.14996 13.9396 3.70996 16.7796 3.70996C21.5596 3.70996 25.2996 4.75996 27.9796 6.84996C30.6696 8.93996 32.0096 11.93 32.0096 15.66C32.0096 17.6 31.4096 19.39 30.0696 20.89C28.8696 22.53 27.0796 23.73 25.1396 24.62C27.6796 25.52 29.6196 26.71 30.8196 28.35C32.0196 29.99 32.7596 32.08 32.7596 34.33C32.7596 38.06 31.2696 41.05 28.4296 43.29C25.4396 45.53 21.5596 46.73 16.7796 46.73C12.2996 46.73 8.55965 45.68 5.71965 43.44C2.87965 41.2 1.38965 38.36 1.38965 34.63H10.3596C10.3596 36.27 10.9596 37.47 12.2996 38.51C13.6396 39.56 15.1396 40 16.9296 40C19.0196 40 20.6596 39.55 22.0096 38.36C23.2096 37.31 23.7996 35.97 23.7996 34.18C23.7996 30 21.2596 27.91 16.3296 27.91H11.5496V21.64V21.62Z" fill="#30ACC2"/>
</svg>
