<svg width="50" height="50" viewBox="0 0 50 50" fill="none" xmlns="http://www.w3.org/2000/svg">
<path d="M31.7696 45.67L27.3096 42.69L28.1296 41.59C31.4896 36.73 37.9696 35.39 42.8196 38.75L47.2796 41.73L46.4596 42.83C43.2496 47.71 36.6196 49.03 31.7696 45.67V45.67Z" fill="#A1D8DF"/>
<path d="M34.5904 42.4601L30.1504 42.0601L30.2604 40.9901C30.7704 36.0401 35.1104 32.4501 40.0004 33.0801L44.4404 33.4801L44.3304 34.5501C43.8704 39.3801 39.5404 42.9801 34.5904 42.4601V42.4601Z" fill="#D1E6E9"/>
<path d="M31.1398 30.6499H36.5098V37.7099H31.1398V47.2299H21.6198V37.7099H1.96977L1.50977 32.1799L21.4698 3.17993H30.9898V30.6499H31.1398V30.6499ZM11.0298 30.6499H21.6198V15.1499L21.0098 16.2199L11.0298 30.6499Z" fill="#30ACC2"/>
</svg>
