<svg width="50" height="50" viewBox="0 0 50 50" fill="none" xmlns="http://www.w3.org/2000/svg">
<path d="M31.2499 45.1L27.1699 41.86L27.9799 40.84C31.5499 36.22 38.1899 35.48 42.7099 38.86L46.7899 42.1L45.9799 43.12C42.4099 47.74 35.8599 48.67 31.2499 45.1V45.1Z" fill="#A1D8DF"/>
<path d="M33.6797 42.14L28.8897 42.17L28.8497 40.96C28.7397 35.69 33.0197 31.25 38.3597 31.32L43.1497 31.29L43.1897 32.5C43.2397 37.89 39.0197 42.21 33.6797 42.14Z" fill="#D1E6E9"/>
<path d="M2.90992 25.2799L5.64992 3.17993H32.1699V10.3399H13.2699L12.0499 19.6399C14.3399 18.5699 16.6199 17.9599 19.2099 17.9599C23.7799 17.9599 27.2899 19.1799 29.8799 21.7699C32.4699 24.3599 33.6899 28.0199 33.6899 32.5899C33.6899 35.3299 33.0799 37.9299 31.7099 40.2099C30.4899 42.4999 28.5099 44.1699 26.2199 45.3899C23.7799 46.6099 21.0399 47.2199 17.6799 47.2199C14.7799 47.2199 12.1899 46.6099 9.74992 45.5399C7.30992 44.4699 5.32992 42.9499 3.95992 40.9699C2.58992 38.9899 1.82992 36.8499 1.66992 34.4199H10.9899C11.1399 36.2499 11.8999 37.6199 13.1199 38.6899C14.3399 39.7599 15.8599 40.2099 17.6899 40.2099C19.8199 40.2099 21.4999 39.4499 22.5699 38.0799C23.7899 36.7099 24.2499 34.7299 24.2499 32.1399C24.2499 29.6999 23.6399 27.7199 22.2699 26.4999C20.8999 25.1299 19.0699 24.5199 16.6299 24.5199C14.3399 24.5199 12.5099 25.1299 11.1399 26.1999L10.2299 26.9599L2.90992 25.2799V25.2799Z" fill="#30ACC2"/>
</svg>
