<svg width="50" height="50" viewBox="0 0 50 50" fill="none" xmlns="http://www.w3.org/2000/svg">
<path d="M32.4597 45.5001L28.1797 42.5301L28.9197 41.4601C32.1897 36.6301 38.7797 35.4701 43.4997 38.5601L47.7797 41.5301L47.0397 42.6001C43.9197 47.4701 37.2897 48.7701 32.4597 45.5001Z" fill="#A1D8DF"/>
<path d="M34.9197 42.34L29.9997 42.47L29.9397 41.23C29.7197 35.82 34.0297 31.17 39.5197 31.14L44.4397 31.01L44.4997 32.25C44.6597 37.79 40.2797 42.25 34.9197 42.34V42.34Z" fill="#D1E6E9"/>
<path d="M27.8202 3.17992V10.1899H26.9102C22.4902 10.1899 18.9802 11.2599 16.3902 13.2399C13.8002 15.2199 12.1202 17.9699 11.5102 21.4699C14.1002 19.1799 17.3002 17.9599 21.2702 17.9599C25.5402 17.9599 28.8902 19.3299 31.3302 21.9199C33.7702 24.6599 35.1402 28.1699 35.1402 32.5899C35.1402 35.3299 34.3802 37.9299 33.0102 40.2099C31.6402 42.4899 29.6602 44.3299 27.2202 45.5499C24.7802 46.7699 21.8802 47.3799 18.6802 47.3799C13.5002 47.3799 9.38019 45.8599 6.18019 42.6499C2.98019 39.4399 1.4502 35.3399 1.4502 29.9999V26.9499C1.4502 22.2199 2.5202 18.1099 4.5002 14.5999C6.4802 10.9399 9.3802 8.19992 13.0402 6.21992C16.8502 4.23992 21.1202 3.31992 26.0002 3.16992H27.8302L27.8202 3.17992ZM18.3702 24.8199C16.8502 24.8199 15.3202 25.1199 14.1002 25.8899C12.8802 26.6599 11.8102 27.5699 11.3602 28.7899V31.3799C11.3602 34.2799 11.9702 36.4099 13.3402 38.0899C14.5602 39.7699 16.3902 40.5299 18.6802 40.5299C20.8102 40.5299 22.4902 39.7699 23.7102 38.3999C24.9302 36.8799 25.6902 35.0499 25.6902 32.7599C25.6902 30.4699 25.0802 28.4899 23.7102 27.1199C22.3402 25.5999 20.5102 24.8299 18.3702 24.8299V24.8199Z" fill="#30ACC2"/>
</svg>
