<svg width="699" height="1067" viewBox="0 0 699 1067" fill="none" xmlns="http://www.w3.org/2000/svg">
<path d="M194.617 791.44L194.677 791.47L222.167 807.04V838.25L222.107 838.28L194.617 853.85L194.557 853.82L167.067 838.25V807.04L167.127 807.01L194.617 791.44ZM221.937 807.18L194.617 791.71L167.297 807.18V838.12L194.617 853.59L221.937 838.12V807.18V807.18Z" stroke="#D1E6E9" stroke-miterlimit="10"/>
<path d="M139.747 791.44L139.807 791.47L167.297 807.04V838.25L167.237 838.28L139.747 853.85L139.687 853.82L112.197 838.25V807.04L112.257 807.01L139.747 791.44ZM167.067 807.18L139.747 791.71L112.427 807.18V838.12L139.747 853.59L167.067 838.12V807.18V807.18Z" stroke="#D1E6E9" stroke-miterlimit="10"/>
<path d="M84.8781 791.44L84.9381 791.47L112.428 807.04V838.25L112.368 838.28L84.8781 853.85L84.8181 853.82L57.3281 838.25V807.04L57.3881 807.01L84.8781 791.44ZM112.198 807.18L84.8781 791.71L57.5581 807.18V838.12L84.8781 853.59L112.198 838.12V807.18V807.18Z" stroke="#D1E6E9" stroke-miterlimit="10"/>
<path d="M29.7678 791.44L29.8279 791.47L57.3179 807.04V838.25L57.2578 838.28L29.7678 853.85L29.7078 853.82L2.21777 838.25V807.04L2.27783 807.01L29.7678 791.44ZM57.0878 807.18L29.7678 791.71L2.44788 807.18V838.12L29.7678 853.59L57.0878 838.12V807.18V807.18Z" stroke="#D1E6E9" stroke-miterlimit="10"/>
<path d="M249.718 791.44L249.778 791.47L277.268 807.04V838.25L277.208 838.28L249.718 853.85L249.658 853.82L222.168 838.25V807.04L222.228 807.01L249.718 791.44ZM277.038 807.18L249.718 791.71L222.398 807.18V838.12L249.718 853.59L277.038 838.12V807.18V807.18Z" stroke="#D1E6E9" stroke-miterlimit="10"/>
<path d="M415.058 791.44L415.118 791.47L442.608 807.04V838.25L442.548 838.28L415.058 853.85L414.998 853.82L387.508 838.25V807.04L387.568 807.01L415.058 791.44ZM442.378 807.18L415.058 791.71L387.738 807.18V838.12L415.058 853.59L442.378 838.12V807.18V807.18Z" stroke="#D1E6E9" stroke-miterlimit="10"/>
<path d="M441.648 837.8L441.708 837.83L469.198 853.4V884.61L469.138 884.64L441.648 900.21L441.588 900.18L414.098 884.61V853.4L414.158 853.37L441.648 837.8V837.8ZM468.968 853.54L441.648 838.07L414.328 853.54V884.48L441.648 899.95L468.968 884.48V853.54Z" stroke="#D1E6E9" stroke-miterlimit="10"/>
<path opacity="0.6" d="M414.087 884.1L414.147 884.13L441.637 899.7V930.91L441.577 930.94L414.087 946.51L414.027 946.48L386.537 930.91V899.7L386.597 899.67L414.087 884.1ZM441.407 899.84L414.087 884.37L386.767 899.84V930.78L414.087 946.25L441.407 930.78V899.84V899.84Z" stroke="#D1E6E9" stroke-miterlimit="10"/>
<path d="M496.747 837.23L496.807 837.26L524.297 852.83V884.04L524.237 884.07L496.747 899.64L496.687 899.61L469.197 884.04V852.83L469.257 852.8L496.747 837.23ZM524.067 852.97L496.747 837.5L469.427 852.97V883.91L496.747 899.38L524.067 883.91V852.97V852.97Z" stroke="#D1E6E9" stroke-miterlimit="10"/>
<path opacity="0.6" d="M468.667 884.1L468.727 884.13L496.217 899.7V930.91L496.157 930.94L468.667 946.51L468.607 946.48L441.117 930.91V899.7L441.177 899.67L468.667 884.1ZM495.987 899.84L468.667 884.37L441.347 899.84V930.78L468.667 946.25L495.987 930.78V899.84V899.84Z" stroke="#D1E6E9" stroke-miterlimit="10"/>
<path d="M616.228 737.23L616.358 737.3L674.398 770.17V836.06L674.268 836.13L616.228 869L616.098 868.93L558.058 836.06V770.18L558.188 770.11L616.228 737.24V737.23ZM673.898 770.46L616.228 737.8L558.558 770.46V835.78L616.228 868.44L673.898 835.78V770.46Z" stroke="#A1D8DF" stroke-miterlimit="10"/>
<path d="M557.558 835.54L557.688 835.61L615.728 868.48V934.37L615.598 934.44L557.558 967.31L557.428 967.24L499.388 934.37V868.48L499.518 868.41L557.558 835.54V835.54ZM615.228 868.77L557.558 836.11L499.888 868.77V934.09L557.558 966.75L615.228 934.09V868.77V868.77Z" stroke="#A1D8DF" stroke-miterlimit="10"/>
<path d="M615.228 933.97L615.358 934.04L673.398 966.91V1032.8L673.268 1032.87L615.228 1065.74L615.098 1065.67L557.058 1032.8V966.91L557.188 966.84L615.228 933.97V933.97ZM672.898 967.2L615.228 934.54L557.558 967.2V1032.52L615.228 1065.18L672.898 1032.52V967.2Z" stroke="#A1D8DF" stroke-miterlimit="10"/>
<path d="M499.898 737.23L500.028 737.3L558.068 770.17V836.06L557.938 836.13L499.898 869L499.768 868.93L441.728 836.06V770.18L441.858 770.11L499.898 737.24V737.23ZM557.568 770.46L499.898 737.8L442.228 770.46V835.78L499.898 868.44L557.568 835.78V770.46Z" stroke="#A1D8DF" stroke-miterlimit="10"/>
<path d="M634.037 791.44L634.097 791.47L661.587 807.04V838.25L661.527 838.28L634.037 853.85L633.977 853.82L606.487 838.25V807.04L606.547 807.01L634.037 791.44ZM661.357 807.18L634.037 791.71L606.717 807.18V838.12L634.037 853.59L661.357 838.12V807.18V807.18Z" stroke="#D1E6E9" stroke-miterlimit="10"/>
<path d="M606.247 837.8L606.307 837.83L633.797 853.4V884.61L633.737 884.64L606.247 900.21L606.187 900.18L578.697 884.61V853.4L578.757 853.37L606.247 837.8V837.8ZM633.567 853.54L606.247 838.07L578.927 853.54V884.48L606.247 899.95L633.567 884.48V853.54Z" stroke="#D1E6E9" stroke-miterlimit="10"/>
<path d="M634.037 884.1L634.097 884.13L661.587 899.7V930.91L661.527 930.94L634.037 946.51L633.977 946.48L606.487 930.91V899.7L606.547 899.67L634.037 884.1ZM661.357 899.84L634.037 884.37L606.717 899.84V930.78L634.037 946.25L661.357 930.78V899.84V899.84Z" stroke="#D1E6E9" stroke-miterlimit="10"/>
<path d="M540.008 744.07L576.298 764.62V805.73L540.008 826.28L503.718 805.73V764.62L540.008 744.07ZM575.058 765.32L540.008 745.47L504.958 765.32V805.03L516.818 811.75L540.008 824.89L575.058 805.04V765.32Z" stroke="white" stroke-width="0.75" stroke-miterlimit="10"/>
<path d="M468.668 744.07L504.958 764.62V805.73L468.668 826.28L432.378 805.73V764.62L468.668 744.07ZM503.718 765.32L468.668 745.47L433.618 765.32V805.03L445.478 811.75L468.668 824.89L503.718 805.04V765.32Z" stroke="white" stroke-width="0.75" stroke-miterlimit="10"/>
<path opacity="0.6" d="M254.548 744.07L290.838 764.62V805.73L254.548 826.28L218.258 805.73V764.62L254.548 744.07ZM289.598 765.32L254.548 745.47L219.498 765.32V805.03L231.358 811.75L254.548 824.89L289.598 805.04V765.32Z" stroke="white" stroke-width="0.75" stroke-miterlimit="10"/>
<path opacity="0.6" d="M325.888 744.07L362.178 764.62V805.73L325.888 826.28L289.598 805.73V764.62L325.888 744.07ZM360.938 765.32L325.888 745.47L290.838 765.32V805.03L302.698 811.75L325.888 824.89L360.938 805.04V765.32Z" stroke="white" stroke-width="0.75" stroke-miterlimit="10"/>
<path opacity="0.3" d="M183.208 744.07L219.498 764.62V805.73L183.208 826.28L146.918 805.73V764.62L183.208 744.07ZM218.258 765.32L183.208 745.47L148.158 765.32V805.03L160.018 811.75L183.208 824.89L218.258 805.04V765.32Z" stroke="white" stroke-width="0.75" stroke-miterlimit="10"/>
<path opacity="0.3" d="M112.197 744.07L148.487 764.62V805.73L112.197 826.28L75.9072 805.73V764.62L112.197 744.07ZM147.247 765.32L112.197 745.47L77.1472 765.32V805.03L89.0072 811.75L112.197 824.89L147.247 805.04V765.32Z" stroke="white" stroke-width="0.75" stroke-miterlimit="10"/>
<path d="M384.058 737.23L384.188 737.3L442.228 770.17V836.06L442.098 836.13L384.058 869L383.928 868.93L325.888 836.06V770.18L326.018 770.11L384.058 737.24V737.23ZM441.728 770.46L384.058 737.8L326.388 770.46V835.78L384.058 868.44L441.728 835.78V770.46Z" stroke="#A1D8DF" stroke-miterlimit="10"/>
<path opacity="0.6" d="M441.648 835.54L441.778 835.61L499.818 868.48V934.37L499.688 934.44L441.648 967.31L441.518 967.24L383.478 934.37V868.48L383.608 868.41L441.648 835.54V835.54ZM499.318 868.77L441.648 836.11L383.978 868.77V934.09L441.648 966.75L499.318 934.09V868.77V868.77Z" stroke="#A1D8DF" stroke-miterlimit="10"/>
<path d="M268.218 737.23L268.348 737.3L326.388 770.17V836.06L326.258 836.13L268.218 869L268.088 868.93L210.048 836.06V770.18L210.178 770.11L268.218 737.24V737.23ZM325.888 770.46L268.218 737.8L210.548 770.46V835.78L268.218 868.44L325.888 835.78V770.46Z" stroke="#A1D8DF" stroke-miterlimit="10"/>
<path opacity="0.5" d="M542.556 357.91L542.616 357.94L570.105 373.51V404.72L570.046 404.75L542.556 420.32L542.496 420.29L515.006 404.72V373.51L515.066 373.48L542.556 357.91ZM569.875 373.65L542.556 358.18L515.236 373.65V404.59L542.556 420.06L569.875 404.59V373.65Z" stroke="white" stroke-width="0.75" stroke-miterlimit="10"/>
<path opacity="0.5" d="M569.745 311.17L569.805 311.2L597.295 326.77V357.98L597.235 358.01L569.745 373.58L569.685 373.55L542.195 357.98V326.77L542.255 326.74L569.745 311.17ZM597.065 326.91L569.745 311.44L542.425 326.91V357.85L569.745 373.32L597.065 357.85V326.91Z" stroke="white" stroke-width="0.75" stroke-miterlimit="10"/>
<path opacity="0.5" d="M597.294 357.64L597.354 357.67L624.844 373.24V404.45L624.784 404.48L597.294 420.05L597.234 420.02L569.744 404.45V373.24L569.804 373.21L597.294 357.64ZM624.614 373.38L597.294 357.91L569.974 373.38V404.32L597.294 419.79L624.614 404.32V373.38Z" stroke="white" stroke-width="0.75" stroke-miterlimit="10"/>
<path d="M575.024 299.23L575.084 299.26L602.574 314.83V346.04L602.514 346.07L575.024 361.64L574.964 361.61L547.475 346.04V314.83L547.535 314.8L575.024 299.23ZM602.344 314.97L575.024 299.5L547.705 314.97V345.91L575.024 361.38L602.344 345.91V314.97Z" stroke="#D1E6E9" stroke-miterlimit="10"/>
<path d="M629.663 299.23L629.723 299.26L657.213 314.83V346.04L657.153 346.07L629.663 361.64L629.603 361.61L602.113 346.04V314.83L602.173 314.8L629.663 299.23ZM656.983 314.97L629.663 299.5L602.343 314.97V345.91L629.663 361.38L656.983 345.91V314.97Z" stroke="#D1E6E9" stroke-miterlimit="10"/>
<path d="M602.585 345.79L602.645 345.82L630.135 361.39V392.6L630.075 392.63L602.585 408.2L602.525 408.17L575.035 392.6V361.39L575.095 361.36L602.585 345.79ZM629.905 361.53L602.585 346.06L575.265 361.53V392.47L602.585 407.94L629.905 392.47V361.53Z" stroke="#D1E6E9" stroke-miterlimit="10"/>
<path d="M575.265 392.69L575.325 392.72L602.815 408.29V439.5L602.755 439.53L575.265 455.1L575.205 455.07L547.715 439.5V408.29L547.775 408.26L575.265 392.69ZM602.584 408.43L575.265 392.96L547.945 408.43V439.37L575.265 454.84L602.584 439.37V408.43Z" stroke="#D1E6E9" stroke-miterlimit="10"/>
<path d="M630.134 392.69L630.194 392.72L657.684 408.29V439.5L657.624 439.53L630.134 455.1L630.074 455.07L602.584 439.5V408.29L602.644 408.26L630.134 392.69ZM657.454 408.43L630.134 392.96L602.814 408.43V439.37L630.134 454.84L657.454 439.37V408.43Z" stroke="#D1E6E9" stroke-miterlimit="10"/>
<path d="M602.825 439.45L602.885 439.48L630.375 455.05V486.26L630.315 486.29L602.825 501.86L602.765 501.83L575.275 486.26V455.05L575.335 455.02L602.825 439.45ZM630.145 455.19L602.825 439.72L575.505 455.19V486.13L602.825 501.6L630.145 486.13V455.19Z" stroke="#D1E6E9" stroke-miterlimit="10"/>
<path d="M630.374 485.92L630.434 485.95L657.924 501.52V532.73L657.864 532.76L630.374 548.33L630.314 548.3L602.824 532.73V501.52L602.884 501.49L630.374 485.92ZM657.694 501.66L630.374 486.19L603.054 501.66V532.6L630.374 548.07L657.694 532.6V501.66Z" stroke="#D1E6E9" stroke-miterlimit="10"/>
<path d="M520.395 392.96L520.455 392.99L547.944 408.56V439.77L547.884 439.8L520.395 455.37L520.335 455.34L492.845 439.77V408.56L492.905 408.53L520.395 392.96ZM547.714 408.7L520.395 393.23L493.075 408.7V439.64L520.395 455.11L547.714 439.64V408.7Z" stroke="#D1E6E9" stroke-miterlimit="10"/>
<path opacity="0.6" d="M493.086 439.45L493.146 439.48L520.636 455.05V486.26L520.576 486.29L493.086 501.86L493.026 501.83L465.536 486.26V455.05L465.596 455.02L493.086 439.45ZM520.406 455.19L493.086 439.72L465.766 455.19V486.13L493.086 501.6L520.406 486.13V455.19Z" stroke="#D1E6E9" stroke-miterlimit="10"/>
<path opacity="0.6" d="M465.535 485.92L465.595 485.95L493.085 501.52V532.73L493.025 532.76L465.535 548.33L465.475 548.3L437.985 532.73V501.52L438.045 501.49L465.535 485.92ZM492.855 501.66L465.535 486.19L438.215 501.66V532.6L465.535 548.07L492.855 532.6V501.66Z" stroke="#D1E6E9" stroke-miterlimit="10"/>
<path opacity="0.5" d="M410.666 485.92L410.726 485.95L438.216 501.52V532.73L438.156 532.76L410.666 548.33L410.606 548.3L383.116 532.73V501.52L383.176 501.49L410.666 485.92ZM437.986 501.66L410.666 486.19L383.346 501.66V532.6L410.666 548.07L437.986 532.6V501.66Z" stroke="#D1E6E9" stroke-miterlimit="10"/>
<path opacity="0.6" d="M438.217 439.72L438.277 439.75L465.767 455.32V486.53L465.707 486.56L438.217 502.13L438.157 502.1L410.667 486.53V455.32L410.727 455.29L438.217 439.72ZM465.537 455.46L438.217 439.99L410.897 455.46V486.4L438.217 501.87L465.537 486.4V455.46Z" stroke="#D1E6E9" stroke-miterlimit="10"/>
<path d="M496.495 652.02L496.555 652.05L524.045 667.62V698.83L523.985 698.86L496.495 714.43L496.435 714.4L468.945 698.83V667.62L469.005 667.59L496.495 652.02ZM523.815 667.76L496.495 652.29L469.175 667.76V698.7L496.495 714.17L523.815 698.7V667.76Z" stroke="#D1E6E9" stroke-miterlimit="10"/>
<path d="M524.056 698.78L524.116 698.81L551.605 714.38V745.59L551.546 745.62L524.056 761.19L523.996 761.16L496.506 745.59V714.38L496.566 714.35L524.056 698.78ZM551.375 714.52L524.056 699.05L496.736 714.52V745.46L524.056 760.93L551.375 745.46V714.52Z" stroke="#D1E6E9" stroke-miterlimit="10"/>
<path d="M469.187 699.05L469.247 699.08L496.736 714.65V745.86L496.676 745.89L469.187 761.46L469.127 761.43L441.637 745.86V714.65L441.697 714.62L469.187 699.05ZM496.506 714.79L469.187 699.32L441.867 714.79V745.73L469.187 761.2L496.506 745.73V714.79Z" stroke="#D1E6E9" stroke-miterlimit="10"/>
<path d="M414.317 698.78L414.377 698.81L441.867 714.38V745.59L441.807 745.62L414.317 761.19L414.257 761.16L386.768 745.59V714.38L386.828 714.35L414.317 698.78ZM441.637 714.52L414.317 699.05L386.998 714.52V745.46L414.317 760.93L441.637 745.46V714.52Z" stroke="#D1E6E9" stroke-miterlimit="10"/>
<path d="M386.767 745.24L386.827 745.27L414.317 760.84V792.05L414.256 792.08L386.767 807.65L386.707 807.62L359.217 792.05V760.84L359.277 760.81L386.767 745.24ZM414.086 760.98L386.767 745.51L359.447 760.98V791.92L386.767 807.39L414.086 791.92V760.98Z" stroke="#D1E6E9" stroke-miterlimit="10"/>
<path d="M331.897 745.24L331.956 745.27L359.446 760.84V792.05L359.386 792.08L331.897 807.65L331.836 807.62L304.347 792.05V760.84L304.407 760.81L331.897 745.24ZM359.216 760.98L331.897 745.51L304.577 760.98V791.92L331.897 807.39L359.216 791.92V760.98Z" stroke="#D1E6E9" stroke-miterlimit="10"/>
<path opacity="0.6" d="M359.445 699.05L359.505 699.08L386.995 714.65V745.86L386.935 745.89L359.445 761.46L359.385 761.43L331.896 745.86V714.65L331.955 714.62L359.445 699.05ZM386.765 714.79L359.445 699.32L332.125 714.79V745.73L359.445 761.2L386.765 745.73V714.79Z" stroke="#D1E6E9" stroke-miterlimit="10"/>
<path opacity="0.6" d="M386.648 651.95L386.707 651.98L414.197 667.55V698.76L414.137 698.79L386.648 714.36L386.587 714.33L359.098 698.76V667.55L359.158 667.52L386.648 651.95ZM413.967 667.69L386.648 652.22L359.328 667.69V698.63L386.648 714.1L413.967 698.63V667.69Z" stroke="#D1E6E9" stroke-miterlimit="10"/>
<path d="M194.607 791.44L194.667 791.47L222.157 807.04V838.25L222.097 838.28L194.607 853.85L194.547 853.82L167.058 838.25V807.04L167.118 807.01L194.607 791.44ZM221.927 807.18L194.607 791.71L167.288 807.18V838.12L194.607 853.59L221.927 838.12V807.18Z" stroke="#D1E6E9" stroke-miterlimit="10"/>
<path d="M139.738 791.44L139.798 791.47L167.288 807.04V838.25L167.228 838.28L139.738 853.85L139.678 853.82L112.188 838.25V807.04L112.248 807.01L139.738 791.44ZM167.058 807.18L139.738 791.71L112.418 807.18V838.12L139.738 853.59L167.058 838.12V807.18Z" stroke="#D1E6E9" stroke-miterlimit="10"/>
<path d="M84.8681 791.44L84.9282 791.47L112.418 807.04V838.25L112.358 838.28L84.8681 853.85L84.8082 853.82L57.3184 838.25V807.04L57.3783 807.01L84.8681 791.44ZM112.188 807.18L84.8681 791.71L57.5483 807.18V838.12L84.8681 853.59L112.188 838.12V807.18Z" stroke="#D1E6E9" stroke-miterlimit="10"/>
<path d="M29.7588 791.44L29.8189 791.47L57.3087 807.04V838.25L57.2486 838.28L29.7588 853.85L29.6988 853.82L2.20898 838.25V807.04L2.26904 807.01L29.7588 791.44ZM57.0786 807.18L29.7588 791.71L2.43909 807.18V838.12L29.7588 853.59L57.0786 838.12V807.18Z" stroke="#D1E6E9" stroke-miterlimit="10"/>
<path opacity="0.5" d="M331.775 651.95L331.835 651.98L359.325 667.55V698.76L359.265 698.79L331.775 714.36L331.715 714.33L304.226 698.76V667.55L304.286 667.52L331.775 651.95ZM359.095 667.69L331.775 652.22L304.456 667.69V698.63L331.775 714.1L359.095 698.63V667.69Z" stroke="#D1E6E9" stroke-miterlimit="10"/>
<path opacity="0.5" d="M167.289 745.24L167.349 745.27L194.839 760.84V792.05L194.779 792.08L167.289 807.65L167.229 807.62L139.739 792.05V760.84L139.799 760.81L167.289 745.24ZM194.609 760.98L167.289 745.51L139.969 760.98V791.92L167.289 807.39L194.609 791.92V760.98Z" stroke="#D1E6E9" stroke-miterlimit="10"/>
<path opacity="0.5" d="M112.187 744.97L112.247 745L139.736 760.57V791.78L139.676 791.81L112.187 807.38L112.127 807.35L84.6367 791.78V760.57L84.6967 760.54L112.187 744.97ZM139.506 760.71L112.187 745.24L84.8667 760.71V791.65L112.187 807.12L139.506 791.65V760.71Z" stroke="#D1E6E9" stroke-miterlimit="10"/>
<path opacity="0.5" d="M57.3174 744.97L57.3774 745L84.8672 760.57V791.78L84.8072 791.81L57.3174 807.38L57.2574 807.35L29.7676 791.78V760.57L29.8275 760.54L57.3174 744.97ZM84.6372 760.71L57.3174 745.24L29.9976 760.71V791.65L57.3174 807.12L84.6372 791.65V760.71Z" stroke="#D1E6E9" stroke-miterlimit="10"/>
<path opacity="0.6" d="M359.326 605.75L359.386 605.78L386.876 621.35V652.56L386.816 652.59L359.326 668.16L359.266 668.13L331.776 652.56V621.35L331.836 621.32L359.326 605.75ZM386.646 621.49L359.326 606.02L332.006 621.49V652.43L359.326 667.9L386.646 652.43V621.49Z" stroke="#D1E6E9" stroke-miterlimit="10"/>
<path opacity="0.6" d="M332.016 559.24L332.076 559.27L359.566 574.84V606.05L359.505 606.08L332.016 621.65L331.956 621.62L304.466 606.05V574.84L304.526 574.81L332.016 559.24ZM359.335 574.98L332.016 559.51L304.696 574.98V605.92L332.016 621.39L359.335 605.92V574.98V574.98Z" stroke="#D1E6E9" stroke-miterlimit="10"/>
<path d="M249.706 791.44L249.766 791.47L277.256 807.04V838.25L277.196 838.28L249.706 853.85L249.646 853.82L222.156 838.25V807.04L222.216 807.01L249.706 791.44ZM277.026 807.18L249.706 791.71L222.386 807.18V838.12L249.706 853.59L277.026 838.12V807.18Z" stroke="#D1E6E9" stroke-miterlimit="10"/>
<path d="M415.047 791.44L415.107 791.47L442.597 807.04V838.25L442.537 838.28L415.047 853.85L414.987 853.82L387.497 838.25V807.04L387.557 807.01L415.047 791.44ZM442.367 807.18L415.047 791.71L387.727 807.18V838.12L415.047 853.59L442.367 838.12V807.18Z" stroke="#D1E6E9" stroke-miterlimit="10"/>
<path opacity="0.6" d="M277.268 745.24L277.328 745.27L304.817 760.84V792.05L304.757 792.08L277.268 807.65L277.208 807.62L249.718 792.05V760.84L249.778 760.81L277.268 745.24ZM304.587 760.98L277.268 745.51L249.948 760.98V791.92L277.268 807.39L304.587 791.92V760.98Z" stroke="#D1E6E9" stroke-miterlimit="10"/>
<path opacity="0.6" d="M547.476 252.74L547.536 252.77L575.025 268.34V299.55L574.965 299.58L547.476 315.15L547.416 315.12L519.926 299.55V268.34L519.986 268.31L547.476 252.74ZM574.795 268.48L547.476 253.01L520.156 268.48V299.42L547.476 314.89L574.795 299.42V268.48Z" stroke="#D1E6E9" stroke-miterlimit="10"/>
<path d="M519.925 206.45L519.985 206.48L547.475 222.05V253.26L547.415 253.29L519.925 268.86L519.865 268.83L492.375 253.26V222.05L492.435 222.02L519.925 206.45ZM547.245 222.19L519.925 206.72L492.605 222.19V253.13L519.925 268.6L547.245 253.13V222.19Z" stroke="#D1E6E9" stroke-miterlimit="10"/>
<path opacity="0.6" d="M465.296 206.18L465.356 206.21L492.846 221.78V252.99L492.786 253.02L465.296 268.59L465.236 268.56L437.746 252.99V221.78L437.806 221.75L465.296 206.18V206.18ZM492.616 221.92L465.296 206.45L437.976 221.92V252.86L465.296 268.33L492.616 252.86V221.92Z" stroke="#D1E6E9" stroke-miterlimit="10"/>
<path opacity="0.5" d="M437.526 252.74L437.586 252.77L465.076 268.34V299.55L465.016 299.58L437.526 315.15L437.466 315.12L409.977 299.55V268.34L410.037 268.31L437.526 252.74ZM464.846 268.48L437.526 253.01L410.207 268.48V299.42L437.526 314.89L464.846 299.42V268.48Z" stroke="#D1E6E9" stroke-miterlimit="10"/>
<path opacity="0.6" d="M377.777 128.42L377.837 128.45L405.327 144.02V175.23L405.267 175.26L377.777 190.83L377.717 190.8L350.228 175.23V144.02L350.288 143.99L377.777 128.42ZM405.097 144.16L377.777 128.69L350.458 144.16V175.1L377.777 190.57L405.097 175.1V144.16V144.16Z" stroke="#D1E6E9" stroke-miterlimit="10"/>
<path opacity="0.5" d="M350.016 174.97L350.076 175L377.566 190.57V221.78L377.505 221.81L350.016 237.38L349.956 237.35L322.466 221.78V190.57L322.526 190.54L350.016 174.97V174.97ZM377.335 190.71L350.016 175.24L322.696 190.71V221.65L350.016 237.12L377.335 221.65V190.71Z" stroke="#D1E6E9" stroke-miterlimit="10"/>
<path opacity="0.5" d="M322.697 221.8L322.757 221.83L350.247 237.4V268.61L350.187 268.64L322.697 284.21L322.637 284.18L295.147 268.61V237.4L295.207 237.37L322.697 221.8ZM350.017 237.54L322.697 222.07L295.377 237.54V268.48L322.697 283.95L350.017 268.48V237.54Z" stroke="#D1E6E9" stroke-miterlimit="10"/>
<path opacity="0.5" d="M322.697 128.42L322.757 128.45L350.247 144.02V175.23L350.187 175.26L322.697 190.83L322.637 190.8L295.147 175.23V144.02L295.207 143.99L322.697 128.42ZM350.017 144.16L322.697 128.69L295.377 144.16V175.1L322.697 190.57L350.017 175.1V144.16V144.16Z" stroke="#D1E6E9" stroke-miterlimit="10"/>
<path opacity="0.5" d="M295.387 82.1899L295.447 82.2199L322.937 97.7899V129L322.877 129.03L295.387 144.6L295.327 144.57L267.837 129V97.7999L267.897 97.7699L295.387 82.1899ZM322.707 97.9299L295.387 82.4699L268.067 97.9399V128.88L295.387 144.35L322.707 128.88V97.9299V97.9299Z" stroke="#D1E6E9" stroke-miterlimit="10"/>
<path opacity="0.5" d="M240.517 81.9199L240.577 81.9499L268.067 97.5199V128.73L268.006 128.76L240.517 144.33L240.457 144.3L212.967 128.73V97.5299L213.027 97.4999L240.517 81.9299V81.9199ZM267.836 97.6599L240.517 82.1899L213.197 97.6599V128.6L240.517 144.07L267.836 128.6V97.6599Z" stroke="#D1E6E9" stroke-miterlimit="10"/>
<path opacity="0.5" d="M185.648 82.1899L185.707 82.2199L213.197 97.7899V129L213.137 129.03L185.648 144.6L185.587 144.57L158.098 129V97.7999L158.158 97.7699L185.648 82.1899ZM212.967 97.9299L185.648 82.4699L158.328 97.9399V128.88L185.648 144.35L212.967 128.88V97.9299V97.9299Z" stroke="#D1E6E9" stroke-miterlimit="10"/>
<path opacity="0.5" d="M158.327 128.77L158.387 128.8L185.877 144.37V175.58L185.817 175.61L158.327 191.18L158.267 191.15L130.777 175.58V144.37L130.837 144.34L158.327 128.77V128.77ZM185.647 144.51L158.327 129.04L131.007 144.51V175.45L158.327 190.92L185.647 175.45V144.51Z" stroke="#D1E6E9" stroke-miterlimit="10"/>
<path d="M575.024 206.18L575.084 206.21L602.574 221.78V252.99L602.514 253.02L575.024 268.59L574.964 268.56L547.475 252.99V221.78L547.535 221.75L575.024 206.18V206.18ZM602.344 221.92L575.024 206.45L547.705 221.92V252.86L575.024 268.33L602.344 252.86V221.92Z" stroke="#D1E6E9" stroke-miterlimit="10"/>
<path d="M602.345 252.74L602.405 252.77L629.895 268.34V299.55L629.834 299.58L602.345 315.15L602.285 315.12L574.795 299.55V268.34L574.855 268.31L602.345 252.74ZM629.665 268.48L602.345 253.01L575.025 268.48V299.42L602.345 314.89L629.665 299.42V268.48Z" stroke="#D1E6E9" stroke-miterlimit="10"/>
<path d="M602.585 159.5L602.645 159.53L630.135 175.1V206.31L630.075 206.34L602.585 221.91L602.525 221.88L575.035 206.31V175.1L575.095 175.07L602.585 159.5V159.5ZM629.905 175.24L602.585 159.77L575.265 175.24V206.18L602.585 221.65L629.905 206.18V175.24Z" stroke="#D1E6E9" stroke-miterlimit="10"/>
<path d="M547.716 159.5L547.776 159.53L575.266 175.1V206.31L575.206 206.34L547.716 221.91L547.656 221.88L520.166 206.31V175.1L520.226 175.07L547.716 159.5V159.5ZM575.036 175.24L547.716 159.77L520.396 175.24V206.18L547.716 221.65L575.036 206.18V175.24Z" stroke="#D1E6E9" stroke-miterlimit="10"/>
<path d="M575.265 113.13L575.325 113.16L602.815 128.73V159.94L602.755 159.97L575.265 175.54L575.205 175.51L547.715 159.94V128.73L547.775 128.7L575.265 113.13V113.13ZM602.584 128.87L575.265 113.4L547.945 128.87V159.81L575.265 175.28L602.584 159.81V128.87Z" stroke="#D1E6E9" stroke-miterlimit="10"/>
<path d="M520.165 113.13L520.225 113.16L547.715 128.73V159.94L547.655 159.97L520.165 175.54L520.105 175.51L492.615 159.94V128.73L492.675 128.7L520.165 113.13V113.13ZM547.485 128.87L520.165 113.4L492.845 128.87V159.81L520.165 175.28L547.485 159.81V128.87Z" stroke="#D1E6E9" stroke-miterlimit="10"/>
<path d="M492.606 66.6199L492.666 66.6499L520.166 82.2299V113.43L520.106 113.46L492.616 129.03L492.556 129L465.066 113.43V82.2299L465.126 82.1999L492.616 66.6299L492.606 66.6199ZM519.926 82.3599L492.606 66.8899L465.296 82.3599V113.3L492.616 128.77L519.936 113.3V82.3599H519.926Z" stroke="#D1E6E9" stroke-miterlimit="10"/>
<path d="M437.737 66.3501L437.797 66.3801L465.287 81.9501V113.16L465.227 113.19L437.737 128.76L437.677 128.73L410.188 113.16V81.9501L410.247 81.9201L437.737 66.3501ZM465.057 82.0901L437.737 66.6201L410.427 82.0901V113.03L437.747 128.5L465.067 113.03V82.0901H465.057Z" stroke="#D1E6E9" stroke-miterlimit="10"/>
<path opacity="0.6" d="M465.296 113.13L465.356 113.16L492.846 128.73V159.94L492.786 159.97L465.296 175.54L465.236 175.51L437.746 159.94V128.73L437.806 128.7L465.296 113.13V113.13ZM492.616 128.87L465.296 113.4L437.976 128.87V159.81L465.296 175.28L492.616 159.81V128.87Z" stroke="#D1E6E9" stroke-miterlimit="10"/>
<path d="M629.894 113.13L629.954 113.16L657.443 128.73V159.94L657.383 159.97L629.894 175.54L629.834 175.51L602.344 159.94V128.73L602.404 128.7L629.894 113.13V113.13ZM657.213 128.87L629.894 113.4L602.574 128.87V159.81L629.894 175.28L657.213 159.81V128.87Z" stroke="#D1E6E9" stroke-miterlimit="10"/>
<path d="M547.716 66.6199L547.776 66.6499L575.266 82.2299V113.43L575.206 113.46L547.716 129.03L547.656 129L520.166 113.43V82.2299L520.226 82.1999L547.716 66.6299V66.6199ZM575.026 82.3599L547.706 66.8899L520.396 82.3599V113.3L547.716 128.77L575.036 113.3V82.3599H575.026Z" stroke="#D1E6E9" stroke-miterlimit="10"/>
<path d="M602.345 66.3501L602.405 66.3801L629.895 81.9501V113.16L629.834 113.19L602.345 128.76L602.285 128.73L574.795 113.16V81.9501L574.855 81.9201L602.345 66.3501ZM629.665 82.0901L602.345 66.6201L575.025 82.0901V113.03L602.345 128.5L629.665 113.03V82.0901V82.0901Z" stroke="#D1E6E9" stroke-miterlimit="10"/>
<path d="M581.714 100.29L581.844 100.36L639.884 133.23V199.12L639.754 199.19L581.714 232.06L581.584 231.99L523.545 199.12V133.24L523.675 133.17L581.714 100.3V100.29ZM639.384 133.52L581.714 100.86L524.045 133.52V198.84L581.714 231.5L639.384 198.84V133.52V133.52Z" stroke="#A1D8DF" stroke-miterlimit="10"/>
<path d="M524.045 198.78L524.175 198.85L582.214 231.72V297.61L582.084 297.68L524.045 330.55L523.915 330.48L465.875 297.61V231.72L466.005 231.65L524.045 198.78V198.78ZM581.714 232.01L524.045 199.35L466.375 232.01V297.33L524.045 329.99L581.714 297.33V232.01Z" stroke="#A1D8DF" stroke-miterlimit="10"/>
<path opacity="0.6" d="M467.026 297.55L467.156 297.62L525.196 330.49V396.38L525.066 396.45L467.026 429.32L466.896 429.25L408.856 396.38V330.49L408.986 330.42L467.026 297.55ZM524.696 330.78L467.026 298.12L409.356 330.78V396.1L467.026 428.76L524.696 396.1V330.78V330.78Z" stroke="#A1D8DF" stroke-miterlimit="10"/>
<path opacity="0.3" d="M408.857 395.87L408.987 395.94L467.937 428.81V494.7L467.807 494.77L408.857 527.64L408.727 527.57L349.777 494.7V428.81L349.907 428.74L408.857 395.87ZM467.417 429.1L408.857 396.44L350.297 429.1V494.42L408.857 527.08L467.417 494.42V429.1V429.1Z" stroke="#A1D8DF" stroke-miterlimit="10"/>
<path d="M639.884 198.78L640.014 198.85L698.053 231.72V297.61L697.923 297.68L639.884 330.55L639.753 330.48L581.714 297.61V231.72L581.844 231.65L639.884 198.78V198.78ZM697.553 232.01L639.884 199.35L582.214 232.01V297.33L639.884 329.99L697.553 297.33V232.01Z" stroke="#A1D8DF" stroke-miterlimit="10"/>
<path d="M582.214 297.41L582.344 297.48L640.384 330.35V396.24L640.254 396.31L582.214 429.18L582.084 429.11L524.045 396.24V330.35L524.175 330.28L582.214 297.41ZM639.884 330.64L582.214 297.98L524.545 330.64V395.96L582.214 428.62L639.884 395.96V330.64V330.64Z" stroke="#A1D8DF" stroke-miterlimit="10"/>
<path d="M465.846 100.29L465.976 100.36L524.016 133.23V199.12L523.886 199.19L465.846 232.06L465.716 231.99L407.677 199.12V133.24L407.807 133.17L465.846 100.3V100.29ZM523.516 133.52L465.846 100.86L408.177 133.52V198.84L465.846 231.5L523.516 198.84V133.52V133.52Z" stroke="#A1D8DF" stroke-miterlimit="10"/>
<path d="M523.515 1.71997L523.645 1.78997L581.685 34.66V100.55L581.555 100.62L523.515 133.49L523.385 133.42L465.346 100.55V34.66L465.476 34.59L523.515 1.71997V1.71997ZM581.185 34.95L523.515 2.28997L465.846 34.95V100.27L523.515 132.93L581.185 100.27V34.95V34.95Z" stroke="#A1D8DF" stroke-miterlimit="10"/>
<path d="M407.677 1.71997L407.807 1.78997L465.847 34.66V100.55L465.717 100.62L407.677 133.49L407.547 133.42L349.508 100.55V34.66L349.638 34.59L407.677 1.71997V1.71997ZM465.347 34.95L407.677 2.28997L350.008 34.95V100.27L407.677 132.93L465.347 100.27V34.95V34.95Z" stroke="#A1D8DF" stroke-miterlimit="10"/>
<path d="M291.346 1.71997L291.476 1.78997L349.516 34.66V100.55L349.386 100.62L291.346 133.49L291.216 133.42L233.177 100.55V34.66L233.307 34.59L291.346 1.71997V1.71997ZM349.016 34.95L291.346 2.28997L233.677 34.95V100.27L291.346 132.93L349.016 100.27V34.95V34.95Z" stroke="#A1D8DF" stroke-miterlimit="10"/>
<path opacity="0.6" d="M175.508 1.71997L175.638 1.78997L233.677 34.66V100.55L233.547 100.62L175.508 133.49L175.378 133.42L117.338 100.55V34.66L117.468 34.59L175.508 1.71997V1.71997ZM233.177 34.95L175.508 2.28997L117.838 34.95V100.27L175.508 132.93L233.177 100.27V34.95V34.95Z" stroke="#A1D8DF" stroke-miterlimit="10"/>
<path opacity="0.6" d="M59.1696 1L59.2996 1.07L117.339 33.94V99.83L117.209 99.9L59.1696 132.77L59.0396 132.7L1 99.83V33.95L1.13 33.88L59.1696 1.01V1ZM116.839 34.23L59.1696 1.57L1.5 34.23V99.55L59.1696 132.21L116.839 99.55V34.23V34.23Z" stroke="#A1D8DF" stroke-miterlimit="10"/>
<path opacity="0.3" d="M233.177 100.29L233.307 100.36L291.347 133.23V199.12L291.217 199.19L233.177 232.06L233.047 231.99L175.008 199.12V133.24L175.138 133.17L233.177 100.3V100.29ZM290.847 133.52L233.177 100.86L175.508 133.52V198.84L233.177 231.5L290.847 198.84V133.52V133.52Z" stroke="#A1D8DF" stroke-miterlimit="10"/>
<path d="M616.213 737.23L616.343 737.3L674.383 770.17V836.06L674.253 836.13L616.213 869L616.083 868.93L558.044 836.06V770.17L558.174 770.1L616.213 737.23ZM673.883 770.46L616.213 737.8L558.544 770.46V835.78L616.213 868.44L673.883 835.78V770.46Z" stroke="#A1D8DF" stroke-miterlimit="10"/>
<path d="M499.885 737.23L500.015 737.3L558.055 770.17V836.06L557.925 836.13L499.885 869L499.755 868.93L441.716 836.06V770.17L441.846 770.1L499.885 737.23ZM557.555 770.46L499.885 737.8L442.216 770.46V835.78L499.885 868.44L557.555 835.78V770.46Z" stroke="#A1D8DF" stroke-miterlimit="10"/>
<path opacity="0.6" d="M325.878 638.88L326.008 638.95L384.047 671.82V737.71L383.917 737.78L325.878 770.65L325.748 770.58L267.708 737.71V671.82L267.838 671.75L325.878 638.88ZM383.547 672.11L325.878 639.45L268.208 672.11V737.43L325.878 770.09L383.547 737.43V672.11V672.11Z" stroke="#A1D8DF" stroke-miterlimit="10"/>
<path opacity="0.6" d="M500.385 539.86L500.515 539.93L558.555 572.8V638.69L558.425 638.76L500.385 671.63L500.255 671.56L442.216 638.69V572.8L442.346 572.73L500.385 539.86V539.86ZM558.055 573.09L500.385 540.43L442.716 573.09V638.41L500.385 671.07L558.055 638.41V573.09V573.09Z" stroke="#A1D8DF" stroke-miterlimit="10"/>
<path opacity="0.5" d="M542.255 264.67L542.316 264.7L569.745 280.23V311.37L569.685 311.4L542.255 326.93L542.195 326.9L514.766 311.37V280.23L514.826 280.2L542.255 264.67ZM569.505 280.37L542.255 264.94L515.006 280.37V311.24L542.255 326.67L569.505 311.24V280.37Z" stroke="white" stroke-width="0.75" stroke-miterlimit="10"/>
<path d="M634.995 204.94L671.285 225.49V266.59L634.995 287.14L598.705 266.59V225.49L634.995 204.94ZM670.045 226.19L634.995 206.34L599.945 226.19V265.89L634.995 285.74L670.045 265.89V226.19Z" stroke="white" stroke-width="0.75" stroke-miterlimit="10"/>
<path d="M630.015 642.89L630.075 642.92L657.565 658.49V689.7L657.505 689.73L630.015 705.3L629.955 705.27L602.465 689.7V658.49L602.525 658.46L630.015 642.89ZM657.334 658.63L630.015 643.16L602.695 658.63V689.57L630.015 705.04L657.334 689.57V658.63Z" stroke="white" stroke-miterlimit="10"/>
<path d="M602.825 596.52L602.885 596.55L630.375 612.12V643.33L630.315 643.36L602.825 658.93L602.765 658.9L575.275 643.33V612.12L575.335 612.09L602.825 596.52ZM630.145 612.26L602.825 596.79L575.505 612.26V643.2L602.825 658.67L630.145 643.2V612.26Z" stroke="white" stroke-miterlimit="10"/>
<path opacity="0.6" d="M547.476 596.52L547.536 596.55L575.025 612.12V643.33L574.965 643.36L547.476 658.93L547.416 658.9L519.926 643.33V612.12L519.986 612.09L547.476 596.52ZM574.795 612.26L547.476 596.79L520.156 612.26V643.2L547.476 658.67L574.795 643.2V612.26Z" stroke="white" stroke-miterlimit="10"/>
<path d="M465.535 642.89L465.595 642.92L493.085 658.49V689.7L493.025 689.73L465.535 705.3L465.475 705.27L437.985 689.7V658.49L438.045 658.46L465.535 642.89ZM492.855 658.63L465.535 643.16L438.215 658.63V689.57L465.535 705.04L492.855 689.57V658.63Z" stroke="white" stroke-miterlimit="10"/>
<path d="M438.217 689.32L438.277 689.35L465.767 704.92V736.13L465.707 736.16L438.217 751.73L438.157 751.7L410.667 736.13V704.92L410.727 704.89L438.217 689.32ZM465.537 705.06L438.217 689.59L410.897 705.06V736L438.217 751.47L465.537 736V705.06Z" stroke="white" stroke-miterlimit="10"/>
<path opacity="0.3" d="M410.666 642.89L410.726 642.92L438.216 658.49V689.7L438.156 689.73L410.666 705.3L410.606 705.27L383.116 689.7V658.49L383.176 658.46L410.666 642.89ZM437.986 658.63L410.666 643.16L383.346 658.63V689.57L410.666 705.04L437.986 689.57V658.63Z" stroke="white" stroke-miterlimit="10"/>
<path opacity="0.5" d="M437.507 596.52L437.567 596.55L465.057 612.12V643.33L464.997 643.36L437.507 658.93L437.447 658.9L409.957 643.33V612.12L410.017 612.09L437.507 596.52ZM464.827 612.26L437.507 596.79L410.187 612.26V643.2L437.507 658.67L464.827 643.2V612.26Z" stroke="white" stroke-miterlimit="10"/>
<path opacity="0.3" d="M382.396 596.52L382.456 596.55L409.945 612.12V643.33L409.885 643.36L382.396 658.93L382.336 658.9L354.846 643.33V612.12L354.906 612.09L382.396 596.52ZM409.715 612.26L382.396 596.79L355.076 612.26V643.2L382.396 658.67L409.715 643.2V612.26Z" stroke="white" stroke-miterlimit="10"/>
<path opacity="0.3" d="M520.635 549.74L520.695 549.77L548.185 565.34V596.55L548.125 596.58L520.635 612.15L520.575 612.12L493.085 596.55V565.34L493.145 565.31L520.635 549.74ZM547.955 565.48L520.635 550.01L493.315 565.48V596.42L520.635 611.89L547.955 596.42V565.48V565.48Z" stroke="white" stroke-miterlimit="10"/>
<path d="M606.474 745.31L606.534 745.34L634.023 760.91V792.12L633.963 792.15L606.474 807.72L606.414 807.69L578.924 792.12V760.91L578.984 760.88L606.474 745.31ZM633.793 761.05L606.474 745.58L579.154 761.05V791.99L606.474 807.46L633.793 791.99V761.05Z" stroke="#D1E6E9" stroke-miterlimit="10"/>
<path d="M634.024 791.44L634.084 791.47L661.574 807.04V838.25L661.514 838.28L634.024 853.85L633.964 853.82L606.475 838.25V807.04L606.535 807.01L634.024 791.44ZM661.344 807.18L634.024 791.71L606.705 807.18V838.12L634.024 853.59L661.344 838.12V807.18Z" stroke="#D1E6E9" stroke-miterlimit="10"/>
<path d="M578.925 698.63L578.985 698.66L606.475 714.23V745.44L606.415 745.47L578.925 761.04L578.865 761.01L551.375 745.44V714.23L551.435 714.2L578.925 698.63ZM606.245 714.37L578.925 698.9L551.605 714.37V745.31L578.925 760.78L606.245 745.31V714.37Z" stroke="#D1E6E9" stroke-miterlimit="10"/>
<path d="M606.233 652.26L606.293 652.29L633.783 667.86V699.07L633.723 699.1L606.233 714.67L606.173 714.64L578.684 699.07V667.86L578.744 667.83L606.233 652.26ZM633.553 668L606.233 652.53L578.914 668V698.94L606.233 714.41L633.553 698.94V668Z" stroke="#D1E6E9" stroke-miterlimit="10"/>
<path d="M578.686 605.48L578.746 605.51L606.235 621.08V652.29L606.175 652.32L578.686 667.89L578.626 667.86L551.136 652.29V621.08L551.196 621.05L578.686 605.48ZM606.005 621.22L578.686 605.75L551.366 621.22V652.16L578.686 667.63L606.005 652.16V621.22Z" stroke="#D1E6E9" stroke-miterlimit="10"/>
<path d="M633.555 605.48L633.615 605.51L661.104 621.08V652.29L661.045 652.32L633.555 667.89L633.495 667.86L606.005 652.29V621.08L606.065 621.05L633.555 605.48ZM660.875 621.22L633.555 605.75L606.235 621.22V652.16L633.555 667.63L660.875 652.16V621.22Z" stroke="#D1E6E9" stroke-miterlimit="10"/>
<path d="M606.233 558.74L606.293 558.77L633.783 574.34V605.55L633.723 605.58L606.233 621.15L606.173 621.12L578.684 605.55V574.34L578.744 574.31L606.233 558.74ZM633.553 574.48L606.233 559.01L578.914 574.48V605.42L606.233 620.89L633.553 605.42V574.48V574.48Z" stroke="#D1E6E9" stroke-miterlimit="10"/>
<path d="M558.054 639.42L558.184 639.49L616.224 672.36V738.25L616.094 738.32L558.054 771.19L557.924 771.12L499.885 738.25V672.36L500.015 672.29L558.054 639.42ZM615.724 672.65L558.054 639.99L500.385 672.65V737.97L558.054 770.63L615.724 737.97V672.65Z" stroke="#A1D8DF" stroke-miterlimit="10"/>
<path d="M441.865 638.88L441.995 638.95L500.035 671.82V737.71L499.905 737.78L441.865 770.65L441.735 770.58L383.695 737.71V671.82L383.825 671.75L441.865 638.88ZM499.535 672.11L441.865 639.45L384.195 672.11V737.43L441.865 770.09L499.535 737.43V672.11V672.11Z" stroke="#A1D8DF" stroke-miterlimit="10"/>
<path d="M616.213 541.29L616.343 541.36L674.383 574.23V640.12L674.253 640.19L616.213 673.06L616.083 672.99L558.044 640.12V574.23L558.174 574.16L616.213 541.29ZM673.883 574.52L616.213 541.86L558.544 574.52V639.84L616.213 672.5L673.883 639.84V574.52V574.52Z" stroke="#A1D8DF" stroke-miterlimit="10"/>
<path d="M539.996 744.07L576.286 764.62V805.72L539.996 826.27L503.706 805.72V764.62L539.996 744.07ZM575.046 765.32L539.996 745.47L504.946 765.32V805.02L516.806 811.74L539.996 824.88L575.046 805.03V765.33V765.32Z" stroke="white" stroke-width="0.75" stroke-miterlimit="10"/>
<path d="M468.655 744.07L504.945 764.62V805.72L468.655 826.27L432.365 805.72V764.62L468.655 744.07ZM503.705 765.32L468.655 745.47L433.605 765.32V805.02L445.465 811.74L468.655 824.88L503.705 805.03V765.33V765.32Z" stroke="white" stroke-width="0.75" stroke-miterlimit="10"/>
<path opacity="0.6" d="M254.538 744.07L290.828 764.62V805.72L254.538 826.27L218.248 805.72V764.62L254.538 744.07ZM289.588 765.32L254.538 745.47L219.488 765.32V805.02L231.348 811.74L254.538 824.88L289.588 805.03V765.33V765.32Z" stroke="white" stroke-width="0.75" stroke-miterlimit="10"/>
<path opacity="0.6" d="M325.877 744.07L362.167 764.62V805.72L325.877 826.27L289.587 805.72V764.62L325.877 744.07ZM360.927 765.32L325.877 745.47L290.827 765.32V805.02L302.687 811.74L325.877 824.88L360.927 805.03V765.33V765.32Z" stroke="white" stroke-width="0.75" stroke-miterlimit="10"/>
<path opacity="0.3" d="M290.087 683.5L326.376 704.05V745.15L290.087 765.7L253.797 745.15V704.05L290.087 683.5ZM325.136 704.75L290.087 684.9L255.037 704.75V744.45L266.897 751.17L290.087 764.31L325.136 744.46V704.76V704.75Z" stroke="white" stroke-width="0.75" stroke-miterlimit="10"/>
<path opacity="0.3" d="M361.595 684.09L397.885 704.64V745.74L361.595 766.29L325.306 745.74V704.64L361.595 684.09ZM396.645 705.34L361.595 685.49L326.546 705.34V745.04L338.406 751.76L361.595 764.9L396.645 745.05V705.35V705.34Z" stroke="white" stroke-width="0.75" stroke-miterlimit="10"/>
<path opacity="0.3" d="M183.197 744.07L219.487 764.62V805.72L183.197 826.27L146.907 805.72V764.62L183.197 744.07ZM218.247 765.32L183.197 745.47L148.147 765.32V805.02L160.007 811.74L183.197 824.88L218.247 805.03V765.33V765.32Z" stroke="white" stroke-width="0.75" stroke-miterlimit="10"/>
<path opacity="0.3" d="M112.187 744.07L148.477 764.62V805.72L112.187 826.27L75.8975 805.72V764.62L112.187 744.07ZM147.237 765.32L112.187 745.47L77.1374 765.32V805.02L88.9974 811.74L112.187 824.88L147.237 805.03V765.33V765.32Z" stroke="white" stroke-width="0.75" stroke-miterlimit="10"/>
<path opacity="0.5" d="M492.315 204.94L528.605 225.49V266.59L492.315 287.14L456.025 266.59V225.49L492.315 204.94ZM527.365 226.19L492.315 206.34L457.265 226.19V265.89L492.315 285.74L527.365 265.89V226.19Z" stroke="white" stroke-width="0.75" stroke-miterlimit="10"/>
<path opacity="0.5" d="M456.676 265.6L492.965 286.15V327.25L456.676 347.8L420.386 327.25V286.15L456.676 265.6V265.6ZM491.725 286.85L456.676 267L421.626 286.85V326.55L456.676 346.4L491.725 326.55V286.85Z" stroke="white" stroke-width="0.75" stroke-miterlimit="10"/>
<path opacity="0.5" d="M421.625 326.68L457.915 347.23V388.33L421.625 408.88L385.335 388.33V347.23L421.625 326.68ZM456.675 347.93L421.625 328.08L386.575 347.93V387.63L421.625 407.48L456.675 387.63V347.93Z" stroke="white" stroke-width="0.75" stroke-miterlimit="10"/>
<path opacity="0.5" d="M350.286 326.68L386.576 347.23V388.33L350.286 408.88L313.996 388.33V347.23L350.286 326.68ZM385.336 347.93L350.286 328.08L315.236 347.93V387.63L350.286 407.48L385.336 387.63V347.93Z" stroke="white" stroke-width="0.75" stroke-miterlimit="10"/>
<path opacity="0.5" d="M315.238 265.6L351.528 286.15V327.25L315.238 347.8L278.948 327.25V286.15L315.238 265.6V265.6ZM350.288 286.85L315.238 267L280.188 286.85V326.55L315.238 346.4L350.288 326.55V286.85Z" stroke="white" stroke-width="0.75" stroke-miterlimit="10"/>
<path opacity="0.3" d="M278.948 325.83L315.238 346.38V387.48L278.948 408.03L242.658 387.48V346.38L278.948 325.83V325.83ZM313.998 347.08L278.948 327.23L243.898 347.08V386.78L278.948 406.63L313.998 386.78V347.08Z" stroke="white" stroke-width="0.75" stroke-miterlimit="10"/>
<path d="M491.726 83.97L528.016 104.52V145.63L491.726 166.18L455.437 145.63V104.52L491.726 83.97V83.97ZM526.776 105.22L491.726 85.37L456.677 105.22V144.93L491.726 164.78L526.776 144.93V105.22Z" stroke="white" stroke-width="0.75" stroke-miterlimit="10"/>
<path d="M528.014 144.19L564.304 164.74V205.84L528.014 226.39L491.725 205.84V164.74L528.014 144.19V144.19ZM563.064 165.44L528.014 145.59L492.965 165.44V205.14L528.014 224.99L563.064 205.14V165.44V165.44Z" stroke="white" stroke-width="0.75" stroke-miterlimit="10"/>
<path d="M563.065 83.29L599.355 103.84V144.95L563.065 165.5L526.775 144.95V103.84L563.065 83.29V83.29ZM598.115 104.54L563.065 84.69L528.015 104.54V144.25L563.065 164.1L598.115 144.25V104.55V104.54Z" stroke="white" stroke-width="0.75" stroke-miterlimit="10"/>
<path d="M634.404 83.29L670.694 103.84V144.95L634.404 165.5L598.114 144.95V103.84L634.404 83.29V83.29ZM669.454 104.54L634.404 84.69L599.354 104.54V144.25L634.404 164.1L669.454 144.25V104.55V104.54Z" stroke="white" stroke-width="0.75" stroke-miterlimit="10"/>
<path opacity="0.6" d="M420.386 83.97L456.675 104.52V145.63L420.386 166.18L384.096 145.63V104.52L420.386 83.97V83.97ZM455.435 105.22L420.386 85.37L385.336 105.22V144.93L420.386 164.78L455.435 144.93V105.22Z" stroke="white" stroke-width="0.75" stroke-miterlimit="10"/>
<path opacity="0.5" d="M313.757 144.72L350.046 165.27V206.37L313.757 226.92L277.467 206.37V165.27L313.757 144.72V144.72ZM348.806 165.97L313.757 146.12L278.707 165.97V205.67L313.757 225.52L348.806 205.67V165.97V165.97Z" stroke="white" stroke-width="0.75" stroke-miterlimit="10"/>
<path opacity="0.5" d="M349.047 83.97L385.336 104.52V145.63L349.047 166.18L312.757 145.63V104.52L349.047 83.97V83.97ZM384.096 105.22L349.047 85.37L313.997 105.22V144.93L349.047 164.78L384.096 144.93V105.22Z" stroke="white" stroke-width="0.75" stroke-miterlimit="10"/>
<path d="M563.654 204.94L599.944 225.49V266.59L563.654 287.14L527.364 266.59V225.49L563.654 204.94ZM598.704 226.19L563.654 206.34L528.604 226.19V265.89L563.654 285.74L598.704 265.89V226.19Z" stroke="white" stroke-width="0.75" stroke-miterlimit="10"/>
<path opacity="0.6" d="M210.037 638.88L210.167 638.95L268.206 671.82V737.71L268.076 737.78L210.037 770.65L209.907 770.58L151.867 737.71V671.82L151.997 671.75L210.037 638.88ZM267.706 672.11L210.037 639.45L152.367 672.11V737.43L210.037 770.09L267.706 737.43V672.11V672.11Z" stroke="#A1D8DF" stroke-miterlimit="10"/>
<path d="M384.047 737.23L384.177 737.3L442.216 770.17V836.06L442.086 836.13L384.047 869L383.917 868.93L325.877 836.06V770.17L326.007 770.1L384.047 737.23ZM441.716 770.46L384.047 737.8L326.377 770.46V835.78L384.047 868.44L441.716 835.78V770.46Z" stroke="#A1D8DF" stroke-miterlimit="10"/>
<path d="M268.209 737.23L268.339 737.3L326.378 770.17V836.06L326.248 836.13L268.209 869L268.079 868.93L210.039 836.06V770.17L210.169 770.1L268.209 737.23ZM325.878 770.46L268.209 737.8L210.539 770.46V835.78L268.209 868.44L325.878 835.78V770.46Z" stroke="#A1D8DF" stroke-miterlimit="10"/>
</svg>
