<svg width="628" height="1107" viewBox="0 0 628 1107" fill="none" xmlns="http://www.w3.org/2000/svg">
<path d="M206.44 845.55L206.38 845.52L178.89 829.95V798.73L178.95 798.7L206.44 783.13L206.5 783.16L233.99 798.73V829.94L233.93 829.97L206.44 845.54V845.55ZM179.12 829.81L206.44 845.28L233.76 829.81V798.87L206.44 783.4L179.12 798.87V829.81V829.81Z" stroke="#D1E6E9" stroke-miterlimit="10"/>
<path d="M261.31 845.82L261.25 845.79L233.76 830.22V799L233.82 798.97L261.31 783.4L261.37 783.43L288.86 799V830.21L288.8 830.24L261.31 845.81V845.82ZM233.99 830.08L261.31 845.55L288.63 830.08V799.14L261.31 783.67L233.99 799.14V830.08Z" stroke="#D1E6E9" stroke-miterlimit="10"/>
<path d="M316.39 845.82L316.33 845.79L288.84 830.22V799L288.9 798.97L316.39 783.4L316.45 783.43L343.94 799V830.21L343.88 830.24L316.39 845.81V845.82ZM289.07 830.08L316.39 845.55L343.71 830.08V799.14L316.39 783.67L289.07 799.14V830.08Z" stroke="#D1E6E9" stroke-miterlimit="10"/>
<path opacity="0.3" d="M151.329 938.97L151.269 938.94L123.779 923.37V892.16L123.839 892.13L151.329 876.56L151.389 876.59L178.879 892.16V923.37L178.819 923.4L151.329 938.97V938.97ZM124.009 923.23L151.329 938.7L178.649 923.23V892.29L151.329 876.82L124.009 892.29V923.23Z" stroke="#D1E6E9" stroke-miterlimit="10"/>
<path opacity="0.3" d="M233.699 892.45L233.639 892.42L206.149 876.85V845.64L206.209 845.61L233.699 830.04L233.759 830.07L261.249 845.64V876.85L261.189 876.88L233.699 892.45ZM206.379 876.71L233.699 892.18L261.019 876.71V845.77L233.699 830.3L206.379 845.77V876.71V876.71Z" stroke="#D1E6E9" stroke-miterlimit="10"/>
<path opacity="0.3" d="M343.699 892.45L343.639 892.42L316.149 876.85V845.64L316.209 845.61L343.699 830.04L343.759 830.07L371.249 845.64V876.85L371.189 876.88L343.699 892.45ZM316.379 876.71L343.699 892.18L371.019 876.71V845.77L343.699 830.3L316.379 845.77V876.71V876.71Z" stroke="#D1E6E9" stroke-miterlimit="10"/>
<path opacity="0.3" d="M179.13 985.61L179.07 985.58L151.58 970.01V938.8L151.64 938.77L179.13 923.2L179.19 923.23L206.68 938.8V970.01L206.62 970.04L179.13 985.61ZM151.81 969.87L179.13 985.34L206.45 969.87V938.93L179.13 923.46L151.81 938.93V969.87Z" stroke="#D1E6E9" stroke-miterlimit="10"/>
<path opacity="0.3" d="M178.89 892.32L178.83 892.29L151.34 876.72V845.51L151.4 845.48L178.89 829.91L178.95 829.94L206.44 845.51V876.72L206.38 876.75L178.89 892.32ZM151.57 876.58L178.89 892.05L206.21 876.58V845.65L178.89 830.18L151.57 845.65V876.59V876.58Z" stroke="#D1E6E9" stroke-miterlimit="10"/>
<path opacity="0.6" d="M123.779 985.61L123.719 985.58L96.2295 970.01V938.8L96.2895 938.77L123.779 923.2L123.839 923.23L151.329 938.8V970.01L151.269 970.04L123.779 985.61ZM96.4595 969.87L123.779 985.34L151.099 969.87V938.93L123.779 923.46L96.4595 938.93V969.87V969.87Z" stroke="#D1E6E9" stroke-miterlimit="10"/>
<path d="M96.6994 938.97L96.6394 938.94L69.1494 923.37V892.16L69.2094 892.13L96.6994 876.56L96.7594 876.59L124.249 892.16V923.37L124.189 923.4L96.6994 938.97V938.97ZM69.3794 923.23L96.6994 938.7L124.019 923.23V892.29L96.6994 876.82L69.3794 892.29V923.23V923.23Z" stroke="#D1E6E9" stroke-miterlimit="10"/>
<path d="M151.329 845.55L151.269 845.52L123.779 829.95V798.73L123.839 798.7L151.329 783.13L151.389 783.16L178.879 798.73V829.94L178.819 829.97L151.329 845.54V845.55ZM124.009 829.81L151.329 845.28L178.649 829.81V798.87L151.329 783.4L124.009 798.87V829.81V829.81Z" stroke="#D1E6E9" stroke-miterlimit="10"/>
<path d="M124.26 892.45L124.2 892.42L96.71 876.85V845.64L96.77 845.61L124.26 830.04L124.32 830.07L151.81 845.64V876.85L151.75 876.88L124.26 892.45ZM96.94 876.71L124.26 892.18L151.58 876.71V845.77L124.26 830.3L96.94 845.77V876.71V876.71Z" stroke="#D1E6E9" stroke-miterlimit="10"/>
<path d="M96.6994 845.82L96.6394 845.79L69.1494 830.21V799L69.2094 798.97L96.6994 783.4L96.7594 783.43L124.249 799V830.21L124.189 830.24L96.6994 845.81V845.82ZM69.3894 830.08L96.7094 845.55L124.029 830.08V799.14L96.7094 783.67L69.3894 799.14V830.08Z" stroke="#D1E6E9" stroke-miterlimit="10"/>
<path d="M69.1496 892.45L69.0896 892.42L41.5996 876.85V845.64L41.6596 845.61L69.1496 830.03L69.2096 830.06L96.6996 845.63V876.84L96.6396 876.87L69.1496 892.44V892.45ZM41.8296 876.71L69.1496 892.18L96.4696 876.71V845.77L69.1496 830.3L41.8296 845.77V876.71V876.71Z" stroke="#D1E6E9" stroke-miterlimit="10"/>
<path d="M41.5998 938.97L41.5398 938.94L14.0498 923.37V892.16L14.1098 892.13L41.5998 876.56L41.6598 876.59L69.1498 892.16V923.37L69.0898 923.4L41.5998 938.97V938.97ZM14.2798 923.23L41.5998 938.7L68.9198 923.23V892.29L41.5998 876.82L14.2798 892.29V923.23Z" stroke="#D1E6E9" stroke-miterlimit="10"/>
<path d="M175.529 910.45L175.399 910.38L117.359 877.51V811.62L117.489 811.55L175.529 778.68L175.659 778.75L233.699 811.62V877.51L233.569 877.58L175.529 910.45V910.45ZM117.859 877.22L175.529 909.88L233.199 877.22V811.9L175.529 779.24L117.869 811.9V877.22H117.859Z" stroke="#A1D8DF" stroke-miterlimit="10"/>
<path d="M116.83 1008.33L116.7 1008.26L58.6699 975.38V909.5L58.7999 909.43L116.84 876.56L116.97 876.63L175.01 909.5V975.39L174.88 975.46L116.84 1008.33H116.83ZM59.1699 975.1L116.84 1007.76L174.51 975.1V909.78L116.84 877.12L59.1699 909.78V975.1V975.1Z" stroke="#A1D8DF" stroke-miterlimit="10"/>
<path d="M291.369 910.45L291.239 910.38L233.199 877.51V811.62L233.329 811.55L291.369 778.68L291.499 778.75L349.539 811.62V877.51L349.409 877.58L291.369 910.45ZM233.699 877.22L291.369 909.88L349.039 877.22V811.9L291.369 779.24L233.699 811.9V877.22V877.22Z" stroke="#A1D8DF" stroke-miterlimit="10"/>
<path opacity="0.6" d="M407.21 910.45L407.08 910.38L349.04 877.51V811.62L349.17 811.55L407.21 778.68L407.34 778.75L465.37 811.62V877.51L465.24 877.58L407.2 910.45H407.21ZM349.54 877.22L407.21 909.88L464.88 877.22V811.9L407.21 779.24L349.54 811.9V877.22V877.22Z" stroke="#A1D8DF" stroke-miterlimit="10"/>
<path opacity="0.6" d="M233.199 1008.33L233.069 1008.26L175.029 975.39V909.5L175.159 909.43L233.199 876.56L233.329 876.63L291.369 909.5V975.39L291.239 975.46L233.199 1008.33ZM175.529 975.1L233.199 1007.76L290.869 975.1V909.78L233.199 877.12L175.529 909.78V975.1V975.1Z" stroke="#A1D8DF" stroke-miterlimit="10"/>
<path opacity="0.3" d="M523.04 910.45L522.91 910.38L464.87 877.51V811.62L465 811.55L523.04 778.68L523.17 778.75L581.21 811.62V877.51L581.08 877.58L523.04 910.45V910.45ZM465.37 877.22L523.04 909.88L580.71 877.22V811.9L523.04 779.24L465.37 811.9V877.22V877.22Z" stroke="#A1D8DF" stroke-miterlimit="10"/>
<path opacity="0.3" d="M174.5 1106.12L174.37 1106.05L116.33 1073.18V1007.29L116.46 1007.22L174.5 974.35L174.63 974.42L232.67 1007.29V1073.18L232.54 1073.25L174.5 1106.12V1106.12ZM116.83 1072.89L174.5 1105.55L232.17 1072.89V1007.57L174.5 974.91L116.83 1007.57V1072.89Z" stroke="#A1D8DF" stroke-miterlimit="10"/>
<path d="M207.319 828.2L171.029 807.65V766.54L207.319 745.99L243.609 766.54V807.65L207.319 828.2V828.2ZM172.269 806.94L207.319 826.79L242.369 806.94V767.24L207.319 747.39L172.269 767.24V806.94V806.94Z" stroke="white" stroke-width="0.75" stroke-miterlimit="10"/>
<path d="M135.979 828.78L99.6895 808.23V767.12L135.979 746.57L172.269 767.12V808.23L135.979 828.78ZM100.929 807.52L135.979 827.38L171.029 807.52V767.82L135.979 747.97L100.929 767.82V807.52V807.52Z" stroke="white" stroke-width="0.75" stroke-miterlimit="10"/>
<path d="M64.6396 828.78L28.3496 808.23V767.12L64.6396 746.57L100.93 767.12V808.23L64.6396 828.78ZM29.5896 807.52L64.6396 827.38L99.6896 807.52V767.82L64.6396 747.97L29.5896 767.82V807.52Z" stroke="white" stroke-width="0.75" stroke-miterlimit="10"/>
<path d="M278.66 828.2L242.37 807.65V766.54L278.66 745.99L314.95 766.54V807.65L278.66 828.2V828.2ZM243.61 806.95L278.66 826.8L313.71 806.95V767.24L278.66 747.39L243.61 767.24V806.94V806.95Z" stroke="white" stroke-width="0.75" stroke-miterlimit="10"/>
<path opacity="0.5" d="M350 827.54L313.71 806.99V765.88L350 745.33L386.29 765.88V806.99L350 827.54V827.54ZM314.95 806.29L350 826.14L385.05 806.29V766.58L350 746.73L314.95 766.58V806.29Z" stroke="white" stroke-width="0.75" stroke-miterlimit="10"/>
<path opacity="0.5" d="M184.049 601L183.989 600.97L156.499 585.4V554.19L156.559 554.16L184.049 538.59L184.109 538.62L211.599 554.19V585.4L211.539 585.43L184.049 601ZM156.729 585.26L184.049 600.73L211.369 585.26V554.32L184.049 538.85L156.729 554.32V585.26Z" stroke="white" stroke-width="0.75" stroke-miterlimit="10"/>
<path opacity="0.3" d="M239.089 601L239.029 600.97L211.539 585.4V554.19L211.599 554.16L239.089 538.59L239.149 538.62L266.639 554.19V585.4L266.579 585.43L239.089 601ZM211.769 585.26L239.089 600.73L266.409 585.26V554.32L239.089 538.85L211.769 554.32V585.26Z" stroke="white" stroke-width="0.75" stroke-miterlimit="10"/>
<path opacity="0.5" d="M129.309 601L129.249 600.97L101.759 585.4V554.19L101.819 554.16L129.309 538.59L129.369 538.62L156.858 554.19V585.4L156.798 585.43L129.309 601ZM101.989 585.26L129.309 600.73L156.628 585.26V554.32L129.309 538.85L101.989 554.32V585.26V585.26Z" stroke="white" stroke-width="0.75" stroke-miterlimit="10"/>
<path opacity="0.5" d="M74.4395 601L74.3795 600.97L46.8896 585.4V554.19L46.9496 554.16L74.4395 538.59L74.4995 538.62L101.989 554.19V585.4L101.929 585.43L74.4395 601V601ZM47.1196 585.26L74.4395 600.73L101.759 585.26V554.32L74.4395 538.85L47.1196 554.32V585.26V585.26Z" stroke="white" stroke-width="0.75" stroke-miterlimit="10"/>
<path opacity="0.5" d="M101.749 554.36L101.689 554.33L74.1992 538.76V507.55L74.2592 507.52L101.749 491.95L101.809 491.98L129.299 507.55V538.76L129.239 538.79L101.749 554.36ZM74.4292 538.62L101.749 554.09L129.069 538.62V507.68L101.749 492.21L74.4292 507.68V538.62V538.62Z" stroke="white" stroke-width="0.75" stroke-miterlimit="10"/>
<path opacity="0.5" d="M46.8897 554.36L46.8297 554.33L19.3398 538.76V507.55L19.3998 507.52L46.8897 491.95L46.9497 491.98L74.4395 507.55V538.76L74.3795 538.79L46.8897 554.36ZM19.5698 538.62L46.8897 554.09L74.2095 538.62V507.68L46.8897 492.21L19.5698 507.68V538.62Z" stroke="white" stroke-width="0.75" stroke-miterlimit="10"/>
<path opacity="0.5" d="M74.4395 507.94L74.3795 507.91L46.8896 492.34V461.13L46.9496 461.1L74.4395 445.53L74.4995 445.56L101.989 461.13V492.34L101.929 492.37L74.4395 507.94V507.94ZM47.1196 492.2L74.4395 507.67L101.759 492.2V461.26L74.4395 445.79L47.1196 461.26V492.2V492.2Z" stroke="white" stroke-width="0.75" stroke-miterlimit="10"/>
<path opacity="0.5" d="M46.8897 461.63L46.8297 461.6L19.3398 446.03V414.82L19.3998 414.79L46.8897 399.22L46.9497 399.25L74.4395 414.82V446.03L74.3795 446.06L46.8897 461.63ZM19.5698 445.89L46.8897 461.36L74.2095 445.89V414.95L46.8897 399.48L19.5698 414.95V445.89Z" stroke="white" stroke-width="0.75" stroke-miterlimit="10"/>
<path opacity="0.5" d="M101.749 647.57L101.689 647.54L74.1992 631.97V600.76L74.2592 600.73L101.749 585.16L101.809 585.19L129.299 600.76V631.97L129.239 632L101.749 647.57ZM74.4292 631.83L101.749 647.3L129.069 631.83V600.89L101.749 585.42L74.4292 600.89V631.83V631.83Z" stroke="white" stroke-width="0.75" stroke-miterlimit="10"/>
<path d="M124.02 612.93L123.96 612.9L96.4697 597.33V566.12L96.5297 566.09L124.02 550.52L124.08 550.55L151.569 566.12V597.33L151.509 597.36L124.02 612.93ZM96.6997 597.19L124.02 612.66L151.339 597.19V566.25L124.02 550.78L96.6997 566.25V597.19Z" stroke="#D1E6E9" stroke-miterlimit="10"/>
<path d="M96.4697 566.37L96.4097 566.34L68.9199 550.77V519.56L68.9799 519.53L96.4697 503.96L96.5297 503.99L124.02 519.56V550.77L123.96 550.8L96.4697 566.37ZM69.1499 550.63L96.4697 566.1L123.79 550.63V519.69L96.4697 504.22L69.1499 519.69V550.63V550.63Z" stroke="#D1E6E9" stroke-miterlimit="10"/>
<path opacity="0.6" d="M151.569 659.43L151.509 659.4L124.02 643.83V612.62L124.08 612.59L151.569 597.02L151.629 597.05L179.119 612.62V643.83L179.059 643.86L151.569 659.43V659.43ZM124.25 643.69L151.569 659.16L178.889 643.69V612.75L151.569 597.28L124.25 612.75V643.69Z" stroke="#D1E6E9" stroke-miterlimit="10"/>
<path d="M179.129 705.71L179.069 705.68L151.579 690.11V658.9L151.639 658.87L179.129 643.3L179.189 643.33L206.679 658.9V690.11L206.619 690.14L179.129 705.71ZM151.809 689.97L179.129 705.44L206.449 689.97V659.03L179.129 643.56L151.809 659.03V689.97Z" stroke="#D1E6E9" stroke-miterlimit="10"/>
<path opacity="0.6" d="M233.759 705.98L233.699 705.95L206.209 690.38V659.17L206.269 659.14L233.759 643.57L233.819 643.6L261.309 659.17V690.38L261.249 690.41L233.759 705.98ZM206.439 690.24L233.759 705.71L261.079 690.24V659.3L233.759 643.83L206.439 659.3V690.24Z" stroke="#D1E6E9" stroke-miterlimit="10"/>
<path opacity="0.5" d="M261.519 659.43L261.459 659.4L233.969 643.83V612.62L234.029 612.59L261.519 597.02L261.579 597.05L289.068 612.62V643.83L289.008 643.86L261.519 659.43ZM234.199 643.69L261.519 659.16L288.838 643.69V612.75L261.519 597.28L234.199 612.75V643.69Z" stroke="#D1E6E9" stroke-miterlimit="10"/>
<path opacity="0.5" d="M316.388 659.43L316.328 659.4L288.838 643.83V612.62L288.898 612.59L316.388 597.02L316.448 597.05L343.938 612.62V643.83L343.878 643.86L316.388 659.43ZM289.068 643.69L316.388 659.16L343.708 643.69V612.75L316.388 597.28L289.068 612.75V643.69Z" stroke="#D1E6E9" stroke-miterlimit="10"/>
<path d="M124.02 705.98L123.96 705.95L96.4697 690.38V659.17L96.5297 659.14L124.02 643.57L124.08 643.6L151.569 659.17V690.38L151.509 690.41L124.02 705.98ZM96.6997 690.24L124.02 705.71L151.339 690.24V659.3L124.02 643.83L96.6997 659.3V690.24Z" stroke="#D1E6E9" stroke-miterlimit="10"/>
<path d="M96.6992 659.43L96.6392 659.4L69.1494 643.83V612.62L69.2094 612.59L96.6992 597.02L96.7592 597.05L124.249 612.62V643.83L124.189 643.86L96.6992 659.43ZM69.3794 643.69L96.6992 659.16L124.019 643.69V612.75L96.6992 597.28L69.3794 612.75V643.69V643.69Z" stroke="#D1E6E9" stroke-miterlimit="10"/>
<path d="M68.9092 705.98L68.8492 705.95L41.3594 690.38V659.17L41.4194 659.14L68.9092 643.57L68.9692 643.6L96.459 659.17V690.38L96.399 690.41L68.9092 705.98ZM41.5894 690.24L68.9092 705.71L96.229 690.24V659.3L68.9092 643.83L41.5894 659.3V690.24V690.24Z" stroke="#D1E6E9" stroke-miterlimit="10"/>
<path d="M96.4697 752.67L96.4097 752.64L68.9199 737.07V705.86L68.9799 705.83L96.4697 690.26L96.5297 690.29L124.02 705.86V737.07L123.96 737.1L96.4697 752.67ZM69.1499 736.93L96.4697 752.4L123.79 736.93V705.99L96.4697 690.52L69.1499 705.99V736.93V736.93Z" stroke="#D1E6E9" stroke-miterlimit="10"/>
<path d="M151.329 752.67L151.269 752.64L123.779 737.07V705.86L123.839 705.83L151.329 690.26L151.389 690.29L178.879 705.86V737.07L178.819 737.1L151.329 752.67ZM124.009 736.93L151.329 752.4L178.649 736.93V705.99L151.329 690.52L124.009 705.99V736.93Z" stroke="#D1E6E9" stroke-miterlimit="10"/>
<path d="M123.779 799.03L123.719 799L96.2295 783.43V752.22L96.2895 752.19L123.779 736.62L123.839 736.65L151.329 752.22V783.43L151.269 783.46L123.779 799.03ZM96.4595 783.29L123.779 798.76L151.099 783.29V752.35L123.779 736.88L96.4595 752.35V783.29V783.29Z" stroke="#D1E6E9" stroke-miterlimit="10"/>
<path d="M178.889 799.03L178.829 799L151.339 783.43V752.22L151.399 752.19L178.889 736.62L178.949 736.65L206.438 752.22V783.43L206.379 783.46L178.889 799.03ZM151.569 783.29L178.889 798.76L206.209 783.29V752.35L178.889 736.88L151.569 752.35V783.29Z" stroke="#D1E6E9" stroke-miterlimit="10"/>
<path d="M206.438 845.55L206.378 845.52L178.889 829.95V798.74L178.949 798.71L206.438 783.14L206.498 783.17L233.988 798.74V829.95L233.928 829.98L206.438 845.55ZM179.119 829.81L206.438 845.28L233.758 829.81V798.87L206.438 783.4L179.119 798.87V829.81Z" stroke="#D1E6E9" stroke-miterlimit="10"/>
<path d="M261.309 845.82L261.249 845.79L233.759 830.22V799.01L233.819 798.98L261.309 783.41L261.369 783.44L288.858 799.01V830.22L288.798 830.25L261.309 845.82ZM233.989 830.08L261.309 845.55L288.628 830.08V799.14L261.309 783.67L233.989 799.14V830.08Z" stroke="#D1E6E9" stroke-miterlimit="10"/>
<path d="M316.388 845.82L316.328 845.79L288.838 830.22V799.01L288.898 798.98L316.388 783.41L316.448 783.44L343.938 799.01V830.22L343.878 830.25L316.388 845.82ZM289.068 830.08L316.388 845.55L343.708 830.08V799.14L316.388 783.67L289.068 799.14V830.08Z" stroke="#D1E6E9" stroke-miterlimit="10"/>
<path opacity="0.6" d="M343.697 799.19L343.637 799.16L316.147 783.59V752.38L316.207 752.35L343.697 736.78L343.757 736.81L371.247 752.38V783.59L371.187 783.62L343.697 799.19ZM316.377 783.45L343.697 798.92L371.017 783.45V752.51L343.697 737.04L316.377 752.51V783.45Z" stroke="#D1E6E9" stroke-miterlimit="10"/>
<path opacity="0.5" d="M398.567 799.19L398.507 799.16L371.018 783.59V752.38L371.078 752.35L398.567 736.78L398.627 736.81L426.117 752.38V783.59L426.057 783.62L398.567 799.19ZM371.248 783.45L398.567 798.92L425.887 783.45V752.51L398.567 737.04L371.248 752.51V783.45Z" stroke="#D1E6E9" stroke-miterlimit="10"/>
<path opacity="0.6" d="M233.759 799.03L233.699 799L206.209 783.43V752.22L206.269 752.19L233.759 736.62L233.819 736.65L261.309 752.22V783.43L261.249 783.46L233.759 799.03ZM206.439 783.29L233.759 798.76L261.079 783.29V752.35L233.759 736.88L206.439 752.35V783.29Z" stroke="#D1E6E9" stroke-miterlimit="10"/>
<path d="M69.1494 799.03L69.0894 799L41.5996 783.43V752.22L41.6596 752.19L69.1494 736.62L69.2094 736.65L96.6992 752.22V783.43L96.6392 783.46L69.1494 799.03ZM41.8296 783.29L69.1494 798.76L96.4692 783.29V752.35L69.1494 736.88L41.8296 752.35V783.29V783.29Z" stroke="#D1E6E9" stroke-miterlimit="10"/>
<path d="M151.329 845.55L151.269 845.52L123.779 829.95V798.74L123.839 798.71L151.329 783.14L151.389 783.17L178.879 798.74V829.95L178.819 829.98L151.329 845.55ZM124.009 829.81L151.329 845.28L178.649 829.81V798.87L151.329 783.4L124.009 798.87V829.81Z" stroke="#D1E6E9" stroke-miterlimit="10"/>
<path d="M96.6992 845.82L96.6392 845.79L69.1494 830.22V799.01L69.2094 798.98L96.6992 783.41L96.7592 783.44L124.249 799.01V830.22L124.189 830.25L96.6992 845.82ZM69.3794 830.08L96.6992 845.55L124.019 830.08V799.14L96.6992 783.67L69.3794 799.14V830.08V830.08Z" stroke="#D1E6E9" stroke-miterlimit="10"/>
<path d="M117.34 811.88L117.21 811.81L59.1699 778.94V713.05L59.2999 712.98L117.34 680.11L117.47 680.18L175.509 713.05V778.94L175.379 779.01L117.34 811.88V811.88ZM59.6699 778.65L117.34 811.31L175.009 778.65V713.33L117.34 680.67L59.6699 713.33V778.65V778.65Z" stroke="#A1D8DF" stroke-miterlimit="10"/>
<path d="M59.1696 713.38L59.0396 713.31L1 680.44V614.55L1.13 614.48L59.1696 581.61L59.2996 581.68L117.339 614.55V680.44L117.209 680.51L59.1696 713.38V713.38ZM1.5 680.15L59.1696 712.81L116.839 680.15V614.83L59.1696 582.17L1.5 614.83V680.15V680.15Z" stroke="#A1D8DF" stroke-miterlimit="10"/>
<path opacity="0.6" d="M117.34 614.9L117.21 614.83L59.1699 581.96V516.07L59.2999 516L117.34 483.13L117.47 483.2L175.509 516.07V581.96L175.379 582.03L117.34 614.9V614.9ZM59.6699 581.67L117.34 614.33L175.009 581.67V516.35L117.34 483.69L59.6699 516.35V581.67V581.67Z" stroke="#A1D8DF" stroke-miterlimit="10"/>
<path d="M175.529 910.45L175.399 910.38L117.359 877.51V811.62L117.489 811.55L175.529 778.68L175.659 778.75L233.699 811.62V877.51L233.569 877.58L175.529 910.45V910.45ZM117.859 877.22L175.529 909.88L233.199 877.22V811.9L175.529 779.24L117.859 811.9V877.22V877.22Z" stroke="#A1D8DF" stroke-miterlimit="10"/>
<path d="M291.368 910.45L291.238 910.38L233.198 877.51V811.62L233.328 811.55L291.368 778.68L291.498 778.75L349.537 811.62V877.51L349.407 877.58L291.368 910.45ZM233.698 877.22L291.368 909.88L349.037 877.22V811.9L291.368 779.24L233.698 811.9V877.22V877.22Z" stroke="#A1D8DF" stroke-miterlimit="10"/>
<path opacity="0.6" d="M407.207 910.45L407.077 910.38L349.037 877.51V811.62L349.167 811.55L407.207 778.68L407.337 778.75L465.376 811.62V877.51L465.246 877.58L407.207 910.45ZM349.537 877.22L407.207 909.88L464.876 877.22V811.9L407.207 779.24L349.537 811.9V877.22V877.22Z" stroke="#A1D8DF" stroke-miterlimit="10"/>
<path opacity="0.3" d="M523.036 910.45L522.906 910.38L464.866 877.51V811.62L464.996 811.55L523.036 778.68L523.166 778.75L581.205 811.62V877.51L581.075 877.58L523.036 910.45V910.45ZM465.366 877.22L523.036 909.88L580.705 877.22V811.9L523.036 779.24L465.366 811.9V877.22V877.22Z" stroke="#A1D8DF" stroke-miterlimit="10"/>
<path opacity="0.3" d="M233.199 614.9L233.069 614.83L175.029 581.96V516.07L175.159 516L233.199 483.13L233.329 483.2L291.368 516.07V581.96L291.238 582.03L233.199 614.9V614.9ZM175.529 581.67L233.199 614.33L290.868 581.67V516.35L233.199 483.69L175.529 516.35V581.67V581.67Z" stroke="#A1D8DF" stroke-miterlimit="10"/>
<path opacity="0.3" d="M59.6696 516.54L59.5396 516.47L1.5 483.6V417.71L1.63 417.64L59.6696 384.77L59.7996 384.84L117.839 417.71V483.6L117.709 483.67L59.6696 516.54V516.54ZM2 483.31L59.6696 515.97L117.339 483.31V417.99L59.6696 385.33L2 417.99V483.31V483.31Z" stroke="#A1D8DF" stroke-miterlimit="10"/>
<path opacity="0.5" d="M156.798 647.5L156.738 647.47L129.309 631.94V600.8L129.369 600.77L156.798 585.24L156.858 585.27L184.288 600.8V631.94L184.228 631.97L156.798 647.5ZM129.549 631.8L156.798 647.23L184.048 631.8V600.93L156.798 585.5L129.549 600.93V631.8Z" stroke="white" stroke-width="0.75" stroke-miterlimit="10"/>
<path opacity="0.5" d="M129.549 694.21L129.489 694.18L102.06 678.65V647.51L102.12 647.48L129.549 631.95L129.609 631.98L157.039 647.51V678.65L156.979 678.68L129.549 694.21ZM102.3 678.51L129.549 693.94L156.799 678.51V647.64L129.549 632.21L102.3 647.64V678.51Z" stroke="white" stroke-width="0.75" stroke-miterlimit="10"/>
<path opacity="0.5" d="M102.29 740.82L102.23 740.79L74.7998 725.26V694.12L74.8598 694.09L102.29 678.56L102.35 678.59L129.779 694.12V725.26L129.719 725.29L102.29 740.82V740.82ZM75.0398 725.12L102.29 740.55L129.539 725.12V694.25L102.29 678.82L75.0398 694.25V725.12V725.12Z" stroke="white" stroke-width="0.75" stroke-miterlimit="10"/>
<path opacity="0.5" d="M75.0396 694.21L74.9796 694.18L47.5498 678.65V647.51L47.6098 647.48L75.0396 631.95L75.0996 631.98L102.529 647.51V678.65L102.469 678.68L75.0396 694.21ZM47.7898 678.51L75.0396 693.94L102.289 678.51V647.64L75.0396 632.21L47.7898 647.64V678.51Z" stroke="white" stroke-width="0.75" stroke-miterlimit="10"/>
<path opacity="0.5" d="M211.598 740.82L211.538 740.79L184.108 725.26V694.12L184.168 694.09L211.598 678.56L211.658 678.59L239.088 694.12V725.26L239.028 725.29L211.598 740.82ZM184.348 725.12L211.598 740.55L238.848 725.12V694.25L211.598 678.82L184.348 694.25V725.12Z" stroke="white" stroke-width="0.75" stroke-miterlimit="10"/>
<path opacity="0.5" d="M157.469 740.63L157.409 740.6L129.979 725.07V693.93L130.039 693.9L157.469 678.37L157.529 678.4L184.959 693.93V725.07L184.899 725.1L157.469 740.63V740.63ZM130.219 724.93L157.469 740.36L184.719 724.93V694.06L157.469 678.63L130.219 694.06V724.93V724.93Z" stroke="white" stroke-width="0.75" stroke-miterlimit="10"/>
<path opacity="0.5" d="M184.718 694.21L184.658 694.18L157.229 678.65V647.51L157.289 647.48L184.718 631.95L184.778 631.98L212.208 647.51V678.65L212.148 678.68L184.718 694.21ZM157.469 678.51L184.718 693.94L211.968 678.51V647.64L184.718 632.21L157.469 647.64V678.51Z" stroke="white" stroke-width="0.75" stroke-miterlimit="10"/>
<path opacity="0.3" d="M239.888 694.21L239.828 694.18L212.398 678.65V647.51L212.458 647.48L239.888 631.95L239.948 631.98L267.378 647.51V678.65L267.318 678.68L239.888 694.21ZM212.638 678.51L239.888 693.94L267.138 678.51V647.64L239.888 632.21L212.638 647.64V678.51Z" stroke="white" stroke-width="0.75" stroke-miterlimit="10"/>
<path d="M99.6892 767.98L63.3994 747.43V706.33L99.6892 685.78L135.979 706.33V747.43L99.6892 767.98V767.98ZM64.6394 746.73L99.6892 766.58L134.739 746.73V707.03L99.6892 687.18L64.6394 707.03V746.73Z" stroke="white" stroke-width="0.75" stroke-miterlimit="10"/>
<path opacity="0.5" d="M206.728 707.23L170.438 686.68V645.58L206.728 625.03L243.018 645.58V686.68L206.728 707.23ZM171.678 685.98L206.728 705.83L241.778 685.98V646.28L206.728 626.43L171.678 646.28V685.98V685.98Z" stroke="white" stroke-width="0.75" stroke-miterlimit="10"/>
<path opacity="0.5" d="M242.368 767.98L206.078 747.43V706.33L242.368 685.78L278.658 706.33V747.43L242.368 767.98ZM207.318 746.73L242.368 766.58L277.418 746.73V707.03L242.368 687.18L207.318 707.03V746.73Z" stroke="white" stroke-width="0.75" stroke-miterlimit="10"/>
<path opacity="0.5" d="M313.718 767.38L277.429 746.83V705.73L313.718 685.18L350.008 705.73V746.83L313.718 767.38ZM278.669 746.13L313.718 765.98L348.768 746.13V706.43L313.718 686.58L278.669 706.43V746.13Z" stroke="white" stroke-width="0.75" stroke-miterlimit="10"/>
<path d="M207.319 828.2L171.029 807.65V766.55L207.319 746L243.609 766.55V807.65L207.319 828.2ZM172.269 806.95L207.319 826.8L242.369 806.95V767.25L207.319 747.4L172.269 767.25V806.95Z" stroke="white" stroke-width="0.75" stroke-miterlimit="10"/>
<path d="M135.979 828.78L99.6895 808.23V767.13L135.979 746.58L172.269 767.13V808.23L135.979 828.78ZM100.929 807.53L135.979 827.38L171.029 807.53V767.83L135.979 747.98L100.929 767.83V807.53Z" stroke="white" stroke-width="0.75" stroke-miterlimit="10"/>
<path d="M64.6394 828.78L28.3496 808.23V767.13L64.6394 746.58L100.929 767.13V808.23L64.6394 828.78ZM29.5896 807.53L64.6394 827.38L99.6891 807.53V767.83L64.6394 747.98L29.5896 767.83V807.53Z" stroke="white" stroke-width="0.75" stroke-miterlimit="10"/>
<path opacity="0.6" d="M171.029 767.98L134.739 747.43V706.33L171.029 685.78L207.319 706.33V747.43L171.029 767.98V767.98ZM135.979 746.73L171.029 766.58L206.079 746.73V707.03L171.029 687.18L135.979 707.03V746.73Z" stroke="white" stroke-width="0.75" stroke-miterlimit="10"/>
<path d="M278.658 828.2L242.368 807.65V766.55L278.658 746L314.948 766.55V807.65L278.658 828.2ZM243.608 806.95L278.658 826.8L313.708 806.95V767.25L278.658 747.4L243.608 767.25V806.95Z" stroke="white" stroke-width="0.75" stroke-miterlimit="10"/>
<path opacity="0.5" d="M349.998 827.54L313.708 806.99V765.89L349.998 745.34L386.288 765.89V806.99L349.998 827.54ZM314.948 806.29L349.998 826.14L385.048 806.29V766.59L349.998 746.74L314.948 766.59V806.29Z" stroke="white" stroke-width="0.75" stroke-miterlimit="10"/>
<path opacity="0.3" d="M385.057 766.42L348.768 745.87V704.77L385.057 684.22L421.347 704.77V745.87L385.057 766.42ZM350.008 745.17L385.057 765.02L420.107 745.17V705.47L385.057 685.62L350.008 705.47V745.17Z" stroke="white" stroke-width="0.75" stroke-miterlimit="10"/>
<path opacity="0.5" d="M171.149 646.57L134.859 626.02V584.92L171.149 564.37L207.439 584.92V626.02L171.149 646.57V646.57ZM136.099 625.32L171.149 645.17L206.199 625.32V585.62L171.149 565.77L136.099 585.62V625.32Z" stroke="white" stroke-width="0.75" stroke-miterlimit="10"/>
<path opacity="0.5" d="M96.1394 503.93V503.86L95.1094 472.28L121.749 456.02L121.809 456.05L149.419 471.41V471.48L150.449 503.06L123.809 519.32L123.749 519.29L96.1394 503.93ZM95.3494 472.41L96.3694 503.78L123.799 519.04L150.209 502.92L149.189 471.55L121.759 456.29L95.3494 472.41V472.41Z" stroke="#D1E6E9" stroke-miterlimit="10"/>
<path opacity="0.5" d="M150.069 502.5V502.43L149.039 470.85L175.679 454.59L175.739 454.62L203.349 469.98V470.05L204.379 501.63L177.739 517.89L177.679 517.86L150.069 502.5ZM149.279 470.98L150.299 502.35L177.729 517.61L204.139 501.49L203.119 470.12L175.689 454.86L149.279 470.98V470.98Z" stroke="#D1E6E9" stroke-miterlimit="10"/>
<path opacity="0.5" d="M175.709 454.83V454.76L174.679 423.18L201.319 406.92L201.379 406.95L228.988 422.31V422.38L230.018 453.96L203.379 470.22L203.319 470.19L175.709 454.83V454.83ZM174.919 423.31L175.939 454.68L203.369 469.94L229.778 453.82L228.758 422.45L201.329 407.19L174.919 423.31V423.31Z" stroke="#D1E6E9" stroke-miterlimit="10"/>
<path opacity="0.5" d="M255.128 322.64L255.188 322.67L282.678 338.24V369.45L282.618 369.48L255.128 385.05L255.068 385.02L227.578 369.45V338.24L227.638 338.21L255.128 322.64V322.64ZM282.448 338.38L255.128 322.91L227.808 338.38V369.32L255.128 384.79L282.448 369.32V338.38Z" stroke="white" stroke-width="0.75" stroke-miterlimit="10"/>
<path opacity="0.3" d="M309.868 322.64L309.928 322.67L337.418 338.24V369.45L337.358 369.48L309.868 385.05L309.808 385.02L282.318 369.45V338.24L282.378 338.21L309.868 322.64V322.64ZM337.188 338.38L309.868 322.91L282.548 338.38V369.32L309.868 384.79L337.188 369.32V338.38Z" stroke="white" stroke-width="0.75" stroke-miterlimit="10"/>
<path opacity="0.5" d="M118.079 182.22L118.139 182.25L145.629 197.82V229.03L145.569 229.06L118.079 244.63L118.019 244.6L90.5293 229.03V197.82L90.5893 197.79L118.079 182.22V182.22ZM145.399 197.96L118.079 182.49L90.7593 197.96V228.9L118.079 244.37L145.399 228.9V197.96Z" stroke="white" stroke-width="0.75" stroke-miterlimit="10"/>
<path opacity="0.5" d="M90.3897 135.65L90.4497 135.68L117.939 151.25V182.46L117.879 182.49L90.3897 198.06L90.3297 198.03L62.8398 182.46V151.25L62.8998 151.22L90.3897 135.65V135.65ZM117.709 151.39L90.3897 135.92L63.0698 151.39V182.33L90.3897 197.8L117.709 182.33V151.39Z" stroke="white" stroke-width="0.75" stroke-miterlimit="10"/>
<path opacity="0.5" d="M117.709 88.9399L117.769 88.9699L145.259 104.54V135.75L145.199 135.78L117.709 151.35L117.649 151.32L90.1592 135.75V104.55L90.2192 104.52L117.709 88.9499V88.9399ZM145.029 104.68L117.709 89.2099L90.3892 104.68V135.62L117.709 151.09L145.029 135.62V104.68Z" stroke="white" stroke-width="0.75" stroke-miterlimit="10"/>
<path opacity="0.5" d="M145.639 42.0701L145.699 42.1001L173.188 57.6701V88.8901L173.128 88.9201L145.639 104.49L145.579 104.46L118.089 88.8901V57.6801L118.149 57.6501L145.639 42.0801V42.0701ZM172.958 57.8101L145.639 42.3401L118.319 57.8101V88.7501L145.639 104.22L172.958 88.7501V57.8101Z" stroke="white" stroke-width="0.75" stroke-miterlimit="10"/>
<path opacity="0.5" d="M145.019 135.65L145.079 135.68L172.568 151.25V182.46L172.508 182.49L145.019 198.06L144.959 198.03L117.469 182.46V151.25L117.529 151.22L145.019 135.65V135.65ZM172.338 151.39L145.019 135.92L117.699 151.39V182.33L145.019 197.8L172.338 182.33V151.39Z" stroke="white" stroke-width="0.75" stroke-miterlimit="10"/>
<path opacity="0.5" d="M62.8399 89.21L62.8999 89.24L90.3897 104.81V136.02L90.3297 136.05L62.8399 151.62L62.7799 151.59L35.29 136.02V104.82L35.35 104.79L62.8399 89.21ZM90.1597 104.95L62.8399 89.48L35.52 104.95V135.89L62.8399 151.36L90.1597 135.89V104.95V104.95Z" stroke="white" stroke-width="0.75" stroke-miterlimit="10"/>
<path opacity="0.5" d="M90.7698 41.8601L90.8298 41.8901L118.32 57.4601V88.6701L118.26 88.7001L90.7698 104.27L90.7098 104.24L63.21 88.6701V57.4601L63.27 57.4301L90.7598 41.8601H90.7698ZM118.09 57.6001L90.7698 42.1301L63.45 57.6001V88.5301L90.7698 104L118.09 88.5301V57.6001V57.6001Z" stroke="white" stroke-width="0.75" stroke-miterlimit="10"/>
<path opacity="0.5" d="M63.0693 182.44L63.1293 182.47L90.6192 198.04V229.25L90.5592 229.28L63.0693 244.85L63.0093 244.82L35.5195 229.25V198.04L35.5795 198.01L63.0693 182.44V182.44ZM90.3892 198.18L63.0693 182.71L35.7495 198.18V229.12L63.0693 244.59L90.3892 229.12V198.18Z" stroke="white" stroke-width="0.75" stroke-miterlimit="10"/>
<path opacity="0.5" d="M172.818 182.22L172.878 182.25L200.368 197.82V229.03L200.308 229.06L172.818 244.63L172.758 244.6L145.269 229.03V197.82L145.329 197.79L172.818 182.22V182.22ZM200.138 197.96L172.818 182.49L145.499 197.96V228.9L172.818 244.37L200.138 228.9V197.96Z" stroke="white" stroke-width="0.75" stroke-miterlimit="10"/>
<path opacity="0.5" d="M200.079 229.28L200.139 229.31L227.629 244.88V276.09L227.569 276.12L200.079 291.69L200.019 291.66L172.529 276.09V244.88L172.589 244.85L200.079 229.28ZM227.399 245.02L200.079 229.55L172.759 245.02V275.96L200.079 291.43L227.399 275.96V245.02Z" stroke="white" stroke-width="0.75" stroke-miterlimit="10"/>
<path opacity="0.5" d="M254.948 229.28L255.008 229.31L282.498 244.88V276.09L282.438 276.12L254.948 291.69L254.888 291.66L227.398 276.09V244.88L227.458 244.85L254.948 229.28ZM282.268 245.02L254.948 229.55L227.628 245.02V275.96L254.948 291.43L282.268 275.96V245.02Z" stroke="white" stroke-width="0.75" stroke-miterlimit="10"/>
<path opacity="0.5" d="M90.709 229.28L90.769 229.31L118.259 244.88V276.09L118.199 276.12L90.709 291.69L90.649 291.66L63.1592 276.09V244.88L63.2192 244.85L90.709 229.28V229.28ZM118.029 245.02L90.709 229.55L63.3892 245.02V275.96L90.709 291.43L118.029 275.96V245.02Z" stroke="white" stroke-width="0.75" stroke-miterlimit="10"/>
<path opacity="0.5" d="M63.1592 276.07L63.2192 276.1L90.709 291.67V322.88L90.649 322.91L63.1592 338.48L63.0992 338.45L35.6094 322.88V291.67L35.6694 291.64L63.1592 276.07V276.07ZM90.479 291.81L63.1592 276.34L35.8394 291.81V322.75L63.1592 338.22L90.479 322.75V291.81V291.81Z" stroke="white" stroke-width="0.75" stroke-miterlimit="10"/>
<path opacity="0.5" d="M145.449 229.28L145.509 229.31L172.999 244.88V276.09L172.939 276.12L145.449 291.69L145.389 291.66L117.899 276.09V244.88L117.959 244.85L145.449 229.28ZM172.769 245.02L145.449 229.55L118.129 245.02V275.96L145.449 291.43L172.769 275.96V245.02Z" stroke="white" stroke-width="0.75" stroke-miterlimit="10"/>
<path opacity="0.5" d="M118.029 276.14L118.089 276.17L145.579 291.74V322.95L145.519 322.98L118.029 338.55L117.969 338.52L90.4795 322.95V291.74L90.5395 291.71L118.029 276.14V276.14ZM145.349 291.88L118.029 276.41L90.7095 291.88V322.82L118.029 338.29L145.349 322.82V291.88V291.88Z" stroke="white" stroke-width="0.75" stroke-miterlimit="10"/>
<path opacity="0.5" d="M172.769 276.14L172.829 276.17L200.318 291.74V322.95L200.258 322.98L172.769 338.55L172.709 338.52L145.219 322.95V291.74L145.279 291.71L172.769 276.14V276.14ZM200.088 291.88L172.769 276.41L145.449 291.88V322.82L172.769 338.29L200.088 322.82V291.88V291.88Z" stroke="white" stroke-width="0.75" stroke-miterlimit="10"/>
<path d="M325.348 298.52L325.408 298.55L352.897 314.12V345.33L352.837 345.36L325.348 360.93L325.288 360.9L297.798 345.33V314.12L297.858 314.09L325.348 298.52ZM352.667 314.26L325.348 298.79L298.028 314.26V345.2L325.348 360.67L352.667 345.2V314.26Z" stroke="#D1E6E9" stroke-miterlimit="10"/>
<path d="M105.43 205.65L105.49 205.68L132.98 221.25V252.46L132.92 252.49L105.43 268.06L105.37 268.03L77.8799 252.46V221.25L77.9399 221.22L105.43 205.65V205.65ZM132.75 221.39L105.43 205.92L78.1099 221.39V252.33L105.43 267.8L132.75 252.33V221.39Z" stroke="#D1E6E9" stroke-miterlimit="10"/>
<path d="M160.299 205.83L160.359 205.86L187.849 221.43V252.64L187.789 252.67L160.299 268.24L160.239 268.21L132.749 252.64V221.43L132.809 221.4L160.299 205.83V205.83ZM187.619 221.57L160.299 206.1L132.979 221.57V252.51L160.299 267.98L187.619 252.51V221.57Z" stroke="#D1E6E9" stroke-miterlimit="10"/>
<path d="M78.3506 252.73L78.4106 252.76L105.9 268.33V299.54L105.84 299.57L78.3506 315.14L78.2906 315.11L50.8008 299.55V268.34L50.8608 268.31L78.3506 252.74V252.73ZM105.67 268.47L78.3506 253L51.0408 268.47V299.41L78.3606 314.88L105.68 299.41V268.47H105.67Z" stroke="#D1E6E9" stroke-miterlimit="10"/>
<path d="M51.04 299.78L51.1 299.81L78.5899 315.38V346.59L78.5299 346.62L51.04 362.2L50.98 362.17L23.4902 346.6V315.39L23.5502 315.36L51.04 299.78ZM78.3599 315.52L51.04 300.05L23.7202 315.52V346.46L51.04 361.93L78.3599 346.46V315.52Z" stroke="#D1E6E9" stroke-miterlimit="10"/>
<path opacity="0.6" d="M297.798 252.02L297.858 252.05L325.348 267.62V298.83L325.288 298.86L297.798 314.43L297.738 314.4L270.248 298.83V267.62L270.308 267.59L297.798 252.02V252.02ZM325.118 267.76L297.798 252.29L270.478 267.76V298.7L297.798 314.17L325.118 298.7V267.76Z" stroke="#D1E6E9" stroke-miterlimit="10"/>
<path d="M270.238 205.74L270.298 205.77L297.788 221.34V252.55L297.728 252.58L270.238 268.15L270.178 268.12L242.688 252.55V221.34L242.748 221.31L270.238 205.74ZM297.558 221.48L270.238 206.01L242.918 221.48V252.42L270.238 267.89L297.558 252.42V221.48Z" stroke="#D1E6E9" stroke-miterlimit="10"/>
<path opacity="0.6" d="M379.978 298.52L380.038 298.55L407.527 314.12V345.33L407.467 345.36L379.978 360.93L379.918 360.9L352.428 345.33V314.12L352.488 314.09L379.978 298.52ZM407.297 314.26L379.978 298.79L352.658 314.26V345.2L379.978 360.67L407.297 345.2V314.26Z" stroke="#D1E6E9" stroke-miterlimit="10"/>
<path opacity="0.5" d="M407.298 345.26L407.358 345.29L434.848 360.86V392.07L434.788 392.1L407.298 407.67L407.238 407.64L379.748 392.07V360.86L379.808 360.83L407.298 345.26ZM434.618 361L407.298 345.53L379.978 361V391.94L407.298 407.41L434.618 391.94V361Z" stroke="#D1E6E9" stroke-miterlimit="10"/>
<path opacity="0.5" d="M379.737 392.18L379.797 392.21L407.287 407.78V438.99L407.227 439.02L379.737 454.59L379.677 454.56L352.188 438.99V407.78L352.247 407.75L379.737 392.18ZM407.057 407.92L379.737 392.45L352.418 407.92V438.86L379.737 454.33L407.057 438.86V407.92Z" stroke="#D1E6E9" stroke-miterlimit="10"/>
<path d="M325.348 205.47L325.408 205.5L352.897 221.07V252.28L352.837 252.31L325.348 267.88L325.288 267.85L297.798 252.28V221.07L297.858 221.04L325.348 205.47V205.47ZM352.667 221.21L325.348 205.74L298.028 221.21V252.15L325.348 267.62L352.667 252.15V221.21Z" stroke="#D1E6E9" stroke-miterlimit="10"/>
<path opacity="0.6" d="M352.668 252.02L352.728 252.05L380.218 267.62V298.83L380.158 298.86L352.668 314.43L352.608 314.4L325.118 298.83V267.62L325.178 267.59L352.668 252.02ZM379.988 267.76L352.668 252.29L325.348 267.76V298.7L352.668 314.17L379.988 298.7V267.76Z" stroke="#D1E6E9" stroke-miterlimit="10"/>
<path d="M77.8791 158.79L77.9391 158.82L105.429 174.39V205.6L105.369 205.63L77.8791 221.2L77.8191 221.17L50.3193 205.6V174.39L50.3793 174.36L77.8691 158.79H77.8791ZM105.199 174.53L77.8791 159.06L50.5593 174.52V205.46L77.8791 220.93L105.199 205.46V174.52V174.53Z" stroke="#D1E6E9" stroke-miterlimit="10"/>
<path d="M352.897 158.79L352.957 158.82L380.447 174.39V205.6L380.387 205.63L352.897 221.2L352.837 221.17L325.348 205.6V174.39L325.408 174.36L352.897 158.79V158.79ZM380.217 174.53L352.897 159.06L325.578 174.53V205.47L352.897 220.94L380.217 205.47V174.53Z" stroke="#D1E6E9" stroke-miterlimit="10"/>
<path d="M298.038 158.79L298.098 158.82L325.588 174.39V205.6L325.528 205.63L298.038 221.2L297.978 221.17L270.488 205.6V174.39L270.548 174.36L298.038 158.79V158.79ZM325.358 174.53L298.038 159.06L270.718 174.53V205.47L298.038 220.94L325.358 205.47V174.53Z" stroke="#D1E6E9" stroke-miterlimit="10"/>
<path d="M325.588 112.42L325.648 112.45L353.138 128.02V159.23L353.078 159.26L325.588 174.83L325.528 174.8L298.038 159.23V128.02L298.098 127.99L325.588 112.42V112.42ZM352.908 128.16L325.588 112.69L298.268 128.16V159.1L325.588 174.57L352.908 159.1V128.16Z" stroke="#D1E6E9" stroke-miterlimit="10"/>
<path d="M270.479 112.42L270.539 112.45L298.028 128.02V159.23L297.968 159.26L270.479 174.83L270.419 174.8L242.929 159.23V128.02L242.989 127.99L270.479 112.42V112.42ZM297.798 128.16L270.479 112.69L243.159 128.16V159.1L270.479 174.57L297.798 159.1V128.16Z" stroke="#D1E6E9" stroke-miterlimit="10"/>
<path d="M242.929 158.79L242.989 158.82L270.479 174.39V205.6L270.419 205.63L242.929 221.2L242.869 221.17L215.379 205.6V174.39L215.439 174.36L242.929 158.79V158.79ZM270.249 174.53L242.929 159.06L215.609 174.53V205.47L242.929 220.94L270.249 205.47V174.53Z" stroke="#D1E6E9" stroke-miterlimit="10"/>
<path d="M242.929 65.8999L242.989 65.9299L270.479 81.5099V112.72L270.419 112.75L242.929 128.32L242.869 128.29L215.379 112.72V81.5099L215.439 81.4799L242.929 65.9099V65.8999ZM270.239 81.6399L242.919 66.1699L215.609 81.6399V112.58L242.929 128.05L270.249 112.58V81.6399H270.239Z" stroke="#D1E6E9" stroke-miterlimit="10"/>
<path d="M517.506 65.8999L517.566 65.9299L545.056 81.5099V112.72L544.996 112.75L517.506 128.32L517.446 128.29L489.956 112.72V81.5099L490.016 81.4799L517.506 65.9099V65.8999ZM544.826 81.6399L517.506 66.1699L490.196 81.6399V112.58L517.516 128.05L544.836 112.58V81.6399H544.826Z" stroke="#D1E6E9" stroke-miterlimit="10"/>
<path d="M572.376 65.8999L572.436 65.9299L599.926 81.5099V112.72L599.866 112.75L572.376 128.32L572.316 128.29L544.826 112.72V81.5099L544.886 81.4799L572.376 65.9099V65.8999ZM599.686 81.6399L572.366 66.1699L545.056 81.6399V112.58L572.376 128.05L599.696 112.58V81.6399H599.686Z" stroke="#D1E6E9" stroke-miterlimit="10"/>
<path d="M188.059 65.6301L188.119 65.6601L215.608 81.2401V112.45L215.548 112.48L188.059 128.05L187.999 128.02L160.509 112.45V81.2401L160.569 81.2101L188.059 65.6401V65.6301ZM215.378 81.3701L188.059 65.9001L160.739 81.3701V112.31L188.059 127.78L215.378 112.31V81.3701V81.3701Z" stroke="#D1E6E9" stroke-miterlimit="10"/>
<path opacity="0.6" d="M407.527 252.02L407.587 252.05L435.077 267.62V298.83L435.017 298.86L407.527 314.43L407.467 314.4L379.978 298.83V267.62L380.038 267.59L407.527 252.02ZM434.847 267.76L407.527 252.29L380.208 267.76V298.7L407.527 314.17L434.847 298.7V267.76Z" stroke="#D1E6E9" stroke-miterlimit="10"/>
<path opacity="0.6" d="M407.527 158.79L407.587 158.82L435.077 174.39V205.6L435.017 205.63L407.527 221.2L407.467 221.17L379.978 205.6V174.39L380.038 174.36L407.527 158.79V158.79ZM434.847 174.53L407.527 159.06L380.208 174.53V205.47L407.527 220.94L434.847 205.47V174.53Z" stroke="#D1E6E9" stroke-miterlimit="10"/>
<path opacity="0.5" d="M435.087 112.42L435.147 112.45L462.637 128.02V159.23L462.577 159.26L435.087 174.83L435.027 174.8L407.537 159.23V128.02L407.597 127.99L435.087 112.42V112.42ZM462.407 128.16L435.087 112.69L407.767 128.16V159.1L435.087 174.57L462.407 159.1V128.16Z" stroke="#D1E6E9" stroke-miterlimit="10"/>
<path opacity="0.5" d="M490.196 112.42L490.256 112.45L517.746 128.02V159.23L517.686 159.26L490.196 174.83L490.136 174.8L462.646 159.23V128.02L462.706 127.99L490.196 112.42V112.42ZM517.516 128.16L490.196 112.69L462.876 128.16V159.1L490.196 174.57L517.516 159.1V128.16Z" stroke="#D1E6E9" stroke-miterlimit="10"/>
<path opacity="0.5" d="M599.686 112.42L599.746 112.45L627.235 128.02V159.23L627.175 159.26L599.686 174.83L599.626 174.8L572.136 159.23V128.02L572.196 127.99L599.686 112.42V112.42ZM627.005 128.16L599.686 112.69L572.366 128.16V159.1L599.686 174.57L627.005 159.1V128.16Z" stroke="#D1E6E9" stroke-miterlimit="10"/>
<path d="M132.979 158.79L133.04 158.82L160.529 174.39V205.6L160.469 205.63L132.979 221.2L132.919 221.17L105.43 205.6V174.39L105.49 174.36L132.979 158.79V158.79ZM160.299 174.53L132.979 159.06L105.66 174.53V205.47L132.979 220.94L160.299 205.47V174.53Z" stroke="#D1E6E9" stroke-miterlimit="10"/>
<path d="M105.669 112.15L105.729 112.18L133.219 127.75V158.96L133.159 158.99L105.669 174.56L105.609 174.53L78.1191 158.96V127.75L78.1791 127.72L105.669 112.15V112.15ZM132.989 127.89L105.669 112.42L78.3491 127.89V158.83L105.669 174.3L132.989 158.83V127.89V127.89Z" stroke="#D1E6E9" stroke-miterlimit="10"/>
<path d="M132.739 65.8999L132.799 65.9299L160.299 81.5099V112.72L160.239 112.75L132.749 128.32L132.689 128.29L105.199 112.72V81.5099L105.259 81.4799L132.749 65.9099L132.739 65.8999ZM160.059 81.6399L132.739 66.1699L105.429 81.6399V112.58L132.749 128.05L160.069 112.58V81.6399H160.059Z" stroke="#D1E6E9" stroke-miterlimit="10"/>
<path d="M77.8791 65.8999L77.9391 65.9299L105.429 81.5099V112.72L105.369 112.75L77.8791 128.32L77.8191 128.29L50.3193 112.72V81.5099L50.3793 81.4799L77.8791 65.8999ZM105.189 81.6399L77.8791 66.1699L50.5593 81.6399V112.58L77.8791 128.05L105.199 112.58V81.6399H105.189Z" stroke="#D1E6E9" stroke-miterlimit="10"/>
<path d="M298.038 65.8999L298.098 65.9299L325.588 81.5099V112.72L325.528 112.75L298.038 128.32L297.978 128.29L270.488 112.72V81.5099L270.548 81.4799L298.038 65.9099V65.8999ZM325.348 81.6399L298.028 66.1699L270.718 81.6399V112.58L298.038 128.05L325.358 112.58V81.6399H325.348Z" stroke="#D1E6E9" stroke-miterlimit="10"/>
<path d="M352.668 65.6301L352.728 65.6601L380.218 81.2401V112.45L380.158 112.48L352.668 128.05L352.608 128.02L325.118 112.45V81.2401L325.178 81.2101L352.668 65.6401V65.6301ZM379.978 81.3701L352.658 65.9001L325.348 81.3701V112.31L352.668 127.78L379.988 112.31V81.3701H379.978Z" stroke="#D1E6E9" stroke-miterlimit="10"/>
<path d="M100.33 99.5801L100.46 99.6501L158.499 132.52V198.41L158.369 198.48L100.33 231.35L100.2 231.28L42.1602 198.41V132.52L42.2902 132.45L100.33 99.5801ZM157.999 132.81L100.33 100.15L42.6702 132.8V198.12L100.34 230.78L158.009 198.12V132.8L157.999 132.81Z" stroke="#A1D8DF" stroke-miterlimit="10"/>
<path opacity="0.6" d="M216.169 99.5801L216.299 99.6501L274.338 132.52V198.41L274.208 198.48L216.169 231.35L216.039 231.28L157.999 198.41V132.52L158.129 132.45L216.169 99.5801V99.5801ZM273.838 132.81L216.169 100.15L158.499 132.81V198.12L216.169 230.78L273.838 198.12V132.8V132.81Z" stroke="#A1D8DF" stroke-miterlimit="10"/>
<path opacity="0.3" d="M274.339 198.07L274.469 198.14L332.508 231.01V296.9L332.378 296.97L274.339 329.84L274.209 329.77L216.169 296.9V231.01L216.299 230.94L274.339 198.07V198.07ZM332.008 231.3L274.339 198.64L216.669 231.3V296.62L274.339 329.28L332.008 296.62V231.3Z" stroke="#A1D8DF" stroke-miterlimit="10"/>
<path opacity="0.3" d="M216.669 296.31L216.799 296.38L274.838 329.25V395.14L274.708 395.21L216.669 428.08L216.539 428.01L158.499 395.14V329.25L158.629 329.18L216.669 296.31V296.31ZM274.338 329.54L216.669 296.88L158.999 329.54V394.86L216.669 427.52L274.338 394.86V329.54V329.54Z" stroke="#A1D8DF" stroke-miterlimit="10"/>
<path opacity="0.6" d="M158.499 198.07L158.629 198.14L216.668 231.01V296.9L216.538 296.97L158.499 329.84L158.369 329.77L100.329 296.9V231.01L100.459 230.94L158.499 198.07V198.07ZM216.168 231.3L158.499 198.64L100.829 231.3V296.62L158.499 329.28L216.168 296.62V231.3Z" stroke="#A1D8DF" stroke-miterlimit="10"/>
<path d="M273.838 1L273.968 1.07L332.007 33.94V99.83L331.877 99.9L273.838 132.77L273.708 132.7L215.668 99.83V33.95L215.798 33.88L273.838 1.00999V1ZM331.507 34.23L273.838 1.57L216.168 34.23V99.55L273.838 132.21L331.507 99.55V34.23Z" stroke="#A1D8DF" stroke-miterlimit="10"/>
<path d="M389.567 1L389.697 1.07L447.737 33.94V99.83L447.607 99.9L389.567 132.77L389.437 132.7L331.397 99.83V33.95L331.527 33.88L389.567 1.00999V1ZM447.237 34.23L389.567 1.57L331.897 34.23V99.55L389.567 132.21L447.237 99.55V34.23Z" stroke="#A1D8DF" stroke-miterlimit="10"/>
<path d="M157.999 1L158.129 1.07L216.168 33.94V99.83L216.038 99.9L157.999 132.77L157.869 132.7L99.8291 99.83V33.95L99.9591 33.88L157.999 1.00999V1ZM215.668 34.23L157.999 1.57L100.329 34.23V99.55L157.999 132.21L215.668 99.55V34.23Z" stroke="#A1D8DF" stroke-miterlimit="10"/>
<path opacity="0.3" d="M282.388 276.14L282.448 276.17L309.878 291.7V322.84L309.818 322.87L282.388 338.4L282.328 338.37L254.898 322.84V291.7L254.958 291.67L282.388 276.14ZM309.638 291.84L282.388 276.41L255.138 291.84V322.71L282.388 338.14L309.638 322.71V291.84Z" stroke="white" stroke-width="0.75" stroke-miterlimit="10"/>
<path d="M242.688 204.22L278.978 224.77V265.87L242.688 286.42L206.398 265.87V224.77L242.688 204.22ZM277.738 225.47L242.688 205.62L207.638 225.47V265.17L242.688 285.02L277.738 265.17V225.47Z" stroke="white" stroke-width="0.75" stroke-miterlimit="10"/>
<path opacity="0.5" d="M385.477 204.22L421.767 224.77V265.87L385.477 286.42L349.188 265.87V224.77L385.477 204.22ZM420.527 225.47L385.477 205.62L350.428 225.47V265.17L385.477 285.02L420.527 265.17V225.47Z" stroke="white" stroke-width="0.75" stroke-miterlimit="10"/>
<path opacity="0.5" d="M406.977 29.73L443.267 50.28V91.39L406.977 111.94L370.688 91.39V50.28L406.977 29.73ZM442.027 50.98L406.977 31.13L371.928 50.98V90.69L406.977 110.54L442.027 90.69V50.99V50.98Z" stroke="white" stroke-width="0.75" stroke-miterlimit="10"/>
<path opacity="0.5" d="M478.327 29.73L514.617 50.28V91.39L478.327 111.94L442.037 91.39V50.28L478.327 29.73ZM513.377 50.98L478.327 31.13L443.277 50.98V90.69L478.327 110.54L513.377 90.69V50.99V50.98Z" stroke="white" stroke-width="0.75" stroke-miterlimit="10"/>
<path d="M242.049 83.25L278.338 103.8V144.91L242.049 165.46L205.759 144.91V103.81L242.049 83.25ZM277.098 104.5L242.049 84.66L206.999 104.51V144.21L242.049 164.06L277.098 144.21V104.51V104.5Z" stroke="white" stroke-width="0.75" stroke-miterlimit="10"/>
<path opacity="0.5" d="M314.028 204.22L350.318 224.77V265.87L314.028 286.42L277.738 265.87V224.77L314.028 204.22ZM349.078 225.47L314.028 205.62L278.978 225.47V265.17L314.028 285.02L349.078 265.17V225.47Z" stroke="white" stroke-width="0.75" stroke-miterlimit="10"/>
<path d="M170.709 83.25L206.998 103.8V144.91L170.709 165.46L134.419 144.91V103.81L170.709 83.25ZM205.758 104.5L170.709 84.66L135.659 104.51V144.21L170.709 164.06L205.758 144.21V104.51V104.5Z" stroke="white" stroke-width="0.75" stroke-miterlimit="10"/>
<path d="M99.3591 83.25L135.649 103.8V144.91L99.3591 165.46L63.0693 144.91V103.81L99.3591 83.25ZM134.409 104.5L99.3591 84.66L64.3093 104.51V144.21L99.3591 164.06L134.409 144.21V104.51V104.5Z" stroke="white" stroke-width="0.75" stroke-miterlimit="10"/>
<path opacity="0.5" d="M278.218 264.88L314.508 285.43V326.53L278.218 347.08L241.929 326.53V285.43L278.218 264.88V264.88ZM313.268 286.13L278.218 266.28L243.169 286.13V325.83L278.218 345.68L313.268 325.83V286.13Z" stroke="white" stroke-width="0.75" stroke-miterlimit="10"/>
<path opacity="0.5" d="M206.879 264.62L243.168 285.17V326.27L206.879 346.82L170.589 326.27V285.17L206.879 264.62ZM241.928 285.87L206.879 266.02L171.829 285.87V325.57L206.879 345.42L241.928 325.57V285.87V285.87Z" stroke="white" stroke-width="0.75" stroke-miterlimit="10"/>
<path opacity="0.5" d="M242.459 325.47L278.748 346.02V387.12L242.459 407.67L206.169 387.12V346.02L242.459 325.47ZM277.508 346.72L242.459 326.87L207.409 346.72V386.42L242.459 406.27L277.508 386.42V346.72Z" stroke="white" stroke-width="0.75" stroke-miterlimit="10"/>
<path opacity="0.5" d="M278.339 143.63L314.628 164.18V205.28L278.339 225.83L242.049 205.28V164.18L278.339 143.63V143.63ZM313.388 164.88L278.339 145.03L243.289 164.88V204.58L278.339 224.43L313.388 204.58V164.88Z" stroke="white" stroke-width="0.75" stroke-miterlimit="10"/>
<path opacity="0.5" d="M189.608 315.17V315.24L190.638 346.82L163.999 363.08L163.939 363.05L136.329 347.69V347.62L135.299 316.04L161.939 299.78L161.999 299.81L189.608 315.17V315.17ZM190.398 346.69L189.378 315.32L161.949 300.06L135.539 316.18L136.559 347.55L163.989 362.81L190.398 346.69V346.69Z" stroke="#D1E6E9" stroke-miterlimit="10"/>
<path opacity="0.5" d="M215.049 267.68V267.75L216.079 299.33L189.439 315.59L189.379 315.56L161.769 300.2V300.13L160.739 268.55L187.379 252.29L187.439 252.32L215.049 267.68V267.68ZM215.839 299.2L214.819 267.83L187.389 252.57L160.979 268.69L161.999 300.06L189.429 315.32L215.839 299.2V299.2Z" stroke="#D1E6E9" stroke-miterlimit="10"/>
<path opacity="0.6" d="M233.199 811.88L233.069 811.81L175.029 778.94V713.05L175.159 712.98L233.199 680.11L233.329 680.18L291.368 713.05V778.94L291.238 779.01L233.199 811.88ZM175.529 778.65L233.199 811.31L290.868 778.65V713.33L233.199 680.67L175.529 713.33V778.65V778.65Z" stroke="#A1D8DF" stroke-miterlimit="10"/>
</svg>
