<svg width="187" height="306" viewBox="0 0 187 306" fill="none" xmlns="http://www.w3.org/2000/svg">
<g clip-path="url(#clip0_207_4)">
<path opacity="0.3" d="M112.699 78.387L112.666 78.369L97.8052 69.9264V53.0028L97.8385 52.9848L112.699 44.5422L112.732 44.5602L127.593 53.0028V69.9264L127.56 69.9444L112.699 78.387ZM97.9332 69.852L112.699 78.2406L127.465 69.852V53.0747L112.699 44.6861L97.9332 53.0747V69.852V69.852Z" stroke="#A1D8DF" stroke-miterlimit="10"/>
<path opacity="0.5" d="M123.197 199.953L123.212 199.961L130.302 203.867L130.404 211.883L130.389 211.891L123.402 215.983L123.386 215.975L116.297 212.068L116.194 204.052L116.209 204.044L123.197 199.953ZM130.243 203.903L123.199 200.022L116.258 204.086L116.361 212.032L123.404 215.913L130.346 211.85L130.243 203.903Z" stroke="white" stroke-width="0.75" stroke-miterlimit="10"/>
<path opacity="0.5" d="M115.951 188.084L115.966 188.092L123.056 191.998L123.159 200.015L123.143 200.022L116.156 204.114L116.14 204.106L109.051 200.199L108.948 192.183L108.964 192.176L115.951 188.084ZM122.997 192.034L115.954 188.153L109.012 192.217L109.115 200.163L116.158 204.044L123.1 199.981L122.997 192.034Z" stroke="white" stroke-width="0.75" stroke-miterlimit="10"/>
<path opacity="0.5" d="M139.863 12.1487L139.878 12.1564L146.916 16.1555V24.1717L146.901 24.1794L139.863 28.1785L139.847 28.1708L132.809 24.1717V16.1555L132.824 16.1478L139.863 12.1487V12.1487ZM146.858 16.1915L139.863 12.218L132.867 16.1915V24.1383L139.863 28.1117L146.858 24.1383V16.1915V16.1915Z" stroke="white" stroke-width="0.75" stroke-miterlimit="10"/>
<path opacity="0.5" d="M147.014 0.110352L147.029 0.118057L154.068 4.11717V12.1334L154.052 12.1411L147.014 16.1402L146.999 16.1325L139.96 12.1334V4.11974L139.975 4.11203L147.014 0.110352ZM154.009 4.15313L147.014 0.1797L140.019 4.15313V12.1L147.014 16.0734L154.009 12.1V4.15313Z" stroke="white" stroke-width="0.75" stroke-miterlimit="10"/>
<path opacity="0.5" d="M146.855 24.146L146.871 24.1537L153.909 28.1528V36.169L153.894 36.1767L146.855 40.1758L146.84 40.1681L139.801 36.169V28.1528L139.817 28.1451L146.855 24.146V24.146ZM153.85 28.1888L146.855 24.2153L139.86 28.1888V36.1356L146.855 40.109L153.85 36.1356V28.1888Z" stroke="white" stroke-width="0.75" stroke-miterlimit="10"/>
<path opacity="0.5" d="M125.814 12.218L125.829 12.2257L132.868 16.2248V24.241L132.852 24.2487L125.814 28.2479L125.798 28.2401L118.76 24.241V16.2248L118.775 16.2171L125.814 12.218V12.218ZM132.809 16.2608L125.814 12.2874L118.819 16.2608V24.2076L125.814 28.1811L132.809 24.2076V16.2608Z" stroke="white" stroke-width="0.75" stroke-miterlimit="10"/>
<path opacity="0.5" d="M115.736 163.994L115.751 164.002L122.841 167.908L122.943 175.925L122.928 175.932L115.941 180.024L115.925 180.016L108.836 176.11L108.733 168.093L108.749 168.086L115.736 163.994ZM122.782 167.944L115.738 164.063L108.797 168.127L108.9 176.074L115.943 179.955L122.885 175.891L122.782 167.944Z" stroke="white" stroke-width="0.75" stroke-miterlimit="10"/>
<path opacity="0.5" d="M125.875 36.1641L125.89 36.1718L132.929 40.1709V48.1871L132.914 48.1948L125.875 52.1939L125.86 52.1862L118.821 48.1871V40.1709L118.836 40.1632L125.875 36.1641ZM132.87 40.2068L125.875 36.2334L118.88 40.2068V48.1537L125.875 52.1271L132.87 48.1537V40.2068Z" stroke="white" stroke-width="0.75" stroke-miterlimit="10"/>
<path opacity="0.5" d="M153.973 36.1074L153.988 36.1151L161.027 40.1142V48.1304L161.012 48.1381L153.973 52.1373L153.958 52.1295L146.919 48.1304V40.1142L146.935 40.1065L153.973 36.1074ZM160.968 40.1502L153.973 36.1768L146.978 40.1502V48.097L153.973 52.0705L160.968 48.097V40.1502Z" stroke="white" stroke-width="0.75" stroke-miterlimit="10"/>
<path opacity="0.5" d="M160.953 48.1948L160.968 48.2025L168.007 52.2016V60.2178L167.991 60.2255L160.953 64.2247L160.938 64.217L153.899 60.2178V52.2016L153.914 52.1939L160.953 48.1948ZM167.948 52.2376L160.953 48.2642L153.958 52.2376V60.1845L160.953 64.1579L167.948 60.1845V52.2376Z" stroke="white" stroke-width="0.75" stroke-miterlimit="10"/>
<path opacity="0.5" d="M132.949 48.1948L132.965 48.2025L140.003 52.2016V60.2178L139.988 60.2255L132.949 64.2247L132.934 64.217L125.896 60.2178V52.2016L125.911 52.1939L132.949 48.1948ZM139.945 52.2376L132.949 48.2642L125.954 52.2376V60.1845L132.949 64.1579L139.945 60.1845V52.2376Z" stroke="white" stroke-width="0.75" stroke-miterlimit="10"/>
<path opacity="0.5" d="M125.896 60.2126L125.911 60.2204L132.949 64.2195V72.2357L132.934 72.2434L125.896 76.2425L125.88 76.2348L118.842 72.2357V64.2195L118.857 64.2118L125.896 60.2126V60.2126ZM132.891 64.2554L125.896 60.282L118.9 64.2554V72.2023L125.896 76.1757L132.891 72.2023V64.2554Z" stroke="white" stroke-width="0.75" stroke-miterlimit="10"/>
<path opacity="0.5" d="M130.361 211.948L130.376 211.955L137.466 215.862L137.568 223.878L137.553 223.886L130.566 227.977L130.55 227.97L123.461 224.063L123.358 216.047L123.374 216.039L130.361 211.948V211.948ZM137.407 215.898L130.363 212.017L123.422 216.08L123.525 224.027L130.568 227.908L137.51 223.845L137.407 215.898Z" stroke="white" stroke-width="0.75" stroke-miterlimit="10"/>
<path opacity="0.5" d="M139.945 60.2305L139.96 60.2382L146.999 64.2373V72.2535L146.983 72.2612L139.945 76.2603L139.929 76.2526L132.891 72.2535V64.2373L132.906 64.2296L139.945 60.2305ZM146.94 64.2732L139.945 60.2998L132.95 64.2732V72.2201L139.945 76.1935L146.94 72.2201V64.2732Z" stroke="white" stroke-width="0.75" stroke-miterlimit="10"/>
<path opacity="0.5" d="M153.96 60.2305L153.976 60.2382L161.014 64.2373V72.2535L160.999 72.2612L153.96 76.2603L153.945 76.2526L146.906 72.2535V64.2373L146.922 64.2296L153.96 60.2305ZM160.955 64.2732L153.96 60.2998L146.965 64.2732V72.2201L153.96 76.1935L160.955 72.2201V64.2732Z" stroke="white" stroke-width="0.75" stroke-miterlimit="10"/>
<path opacity="0.6" d="M120.035 206.012L120.05 206.02L127.14 209.926L127.242 217.943L127.227 217.95L120.24 222.042L120.224 222.034L113.134 218.127L113.032 210.111L113.047 210.104L120.035 206.012ZM127.081 209.962L120.037 206.081L113.096 210.145L113.198 218.091L120.242 221.972L127.183 217.909L127.081 209.962Z" stroke="#D1E6E9" stroke-miterlimit="10"/>
<path d="M134.084 205.876L134.099 205.883L141.189 209.79L141.291 217.806L141.276 217.814L134.289 221.906L134.273 221.898L127.183 217.991L127.081 209.975L127.096 209.967L134.084 205.876V205.876ZM141.13 209.826L134.086 205.945L127.145 210.008L127.247 217.955L134.291 221.836L141.232 217.773L141.13 209.826Z" stroke="#D1E6E9" stroke-miterlimit="10"/>
<path opacity="0.6" d="M113.26 218.194L113.275 218.202L120.365 222.108L120.467 230.125L120.452 230.132L113.465 234.224L113.449 234.216L106.359 230.31L106.257 222.293L106.272 222.286L113.26 218.194ZM120.306 222.144L113.262 218.263L106.321 222.327L106.424 230.274L113.467 234.155L120.408 230.091L120.306 222.144Z" stroke="#D1E6E9" stroke-miterlimit="10"/>
<path opacity="0.3" d="M106.421 230.369L106.436 230.376L113.526 234.283L113.629 242.299L113.613 242.307L106.626 246.398L106.61 246.391L99.5206 242.484L99.4182 234.468L99.4336 234.46L106.421 230.369ZM113.467 234.319L106.424 230.438L99.4822 234.501L99.5846 242.448L106.628 246.329L113.57 242.266L113.467 234.319Z" stroke="#D1E6E9" stroke-miterlimit="10"/>
<path d="M112.825 194.069L112.84 194.076L119.93 197.983L120.032 205.999L120.017 206.007L113.029 210.098L113.014 210.091L105.924 206.184L105.822 198.168L105.837 198.16L112.825 194.069ZM119.871 198.019L112.827 194.138L105.886 198.201L105.988 206.148L113.032 210.029L119.973 205.966L119.871 198.019Z" stroke="#D1E6E9" stroke-miterlimit="10"/>
<path d="M140.725 169.779L140.741 169.786L147.831 173.693L147.933 181.709L147.918 181.717L140.93 185.808L140.915 185.801L133.825 181.894L133.723 173.878L133.738 173.87L140.725 169.779ZM147.772 173.729L140.728 169.848L133.787 173.911L133.889 181.858L140.933 185.739L147.874 181.676L147.772 173.729Z" stroke="#D1E6E9" stroke-miterlimit="10"/>
<path d="M126.932 193.884L126.948 193.891L134.038 197.798L134.14 205.814L134.125 205.822L127.137 209.913L127.122 209.906L120.032 205.999L119.93 197.983L119.945 197.975L126.932 193.884V193.884ZM133.979 197.834L126.935 193.953L119.994 198.016L120.096 205.963L127.14 209.844L134.081 205.781L133.979 197.834Z" stroke="#D1E6E9" stroke-miterlimit="10"/>
<path d="M119.786 181.997L119.802 182.004L126.892 185.911L126.994 193.927L126.979 193.935L119.991 198.026L119.976 198.019L112.886 194.112L112.784 186.096L112.799 186.088L119.786 181.997ZM126.833 185.947L119.789 182.066L112.848 186.129L112.95 194.076L119.994 197.957L126.935 193.894L126.833 185.947Z" stroke="#D1E6E9" stroke-miterlimit="10"/>
<path d="M126.564 170.03L126.579 170.038L133.669 173.945L133.771 181.961L133.756 181.969L126.769 186.06L126.753 186.052L119.663 182.146L119.561 174.13L119.576 174.122L126.564 170.03V170.03ZM133.61 173.981L126.566 170.1L119.625 174.163L119.727 182.11L126.771 185.991L133.712 181.927L133.61 173.981Z" stroke="#D1E6E9" stroke-miterlimit="10"/>
<path d="M112.517 170.212L112.533 170.22L119.623 174.127L119.725 182.143L119.71 182.151L112.722 186.242L112.707 186.235L105.617 182.328L105.515 174.312L105.53 174.304L112.517 170.212ZM119.564 174.163L112.52 170.282L105.579 174.345L105.681 182.292L112.725 186.173L119.666 182.11L119.564 174.163Z" stroke="#D1E6E9" stroke-miterlimit="10"/>
<path opacity="0.6" d="M171.978 280.51L171.945 280.492L157.084 272.05V255.126L157.117 255.108L171.978 246.666L172.011 246.684L186.872 255.126V272.05L186.839 272.068L171.978 280.51ZM157.212 271.975L171.978 280.364L186.744 271.975V255.198L171.978 246.809L157.212 255.198V271.975Z" stroke="#A1D8DF" stroke-miterlimit="10"/>
<path opacity="0.6" d="M142.577 280.544L142.544 280.526L127.683 272.083V255.16L127.716 255.142L142.577 246.699L142.61 246.717L157.471 255.16V272.083L157.437 272.101L142.577 280.544ZM127.811 272.009L142.577 280.397L157.343 272.009V255.231L142.577 246.843L127.811 255.231V272.009Z" stroke="#A1D8DF" stroke-miterlimit="10"/>
<path opacity="0.3" d="M127.895 305.851L127.862 305.833L113.001 297.39V280.467L113.035 280.449L127.895 272.006L127.928 272.024L142.789 280.467V297.39L142.756 297.408L127.895 305.851V305.851ZM113.129 297.316L127.895 305.704L142.661 297.316V280.539L127.895 272.15L113.129 280.539V297.316V297.316Z" stroke="#A1D8DF" stroke-miterlimit="10"/>
<path opacity="0.3" d="M157.471 305.851L157.437 305.833L142.577 297.39V280.467L142.61 280.449L157.471 272.006L157.504 272.024L172.365 280.467V297.39L172.331 297.408L157.471 305.851ZM142.705 297.316L157.471 305.704L172.237 297.316V280.539L157.471 272.15L142.705 280.539V297.316Z" stroke="#A1D8DF" stroke-miterlimit="10"/>
<path opacity="0.3" d="M97.7465 204.789L97.7132 204.771L82.8525 196.329V179.405L82.8858 179.387L97.7465 170.945L97.7798 170.963L112.64 179.405V196.329L112.607 196.347L97.7465 204.789ZM82.9806 196.254L97.7465 204.643L112.512 196.254V179.477L97.7465 171.088L82.9806 179.477V196.254V196.254Z" stroke="#A1D8DF" stroke-miterlimit="10"/>
<path opacity="0.3" d="M53.4716 179.654L53.4383 179.636L38.5776 171.194V154.27L38.6109 154.252L53.4716 145.81L53.5049 145.828L68.3655 154.27V171.194L68.3322 171.212L53.4716 179.654ZM38.7057 171.119L53.4716 179.508L68.2375 171.119V154.342L53.4716 145.953L38.7057 154.342V171.119Z" stroke="#A1D8DF" stroke-miterlimit="10"/>
<path d="M171.847 179.508L171.814 179.49L156.953 171.047V154.124L156.987 154.106L171.847 145.663L171.881 145.681L186.741 154.124V171.047L186.708 171.065L171.847 179.508ZM157.081 170.973L171.847 179.361L186.613 170.973V154.196L171.847 145.807L157.081 154.196V170.973V170.973Z" stroke="#A1D8DF" stroke-miterlimit="10"/>
<path d="M157.084 255.319L157.051 255.301L142.19 246.858V229.935L142.223 229.917L157.084 221.474L157.117 221.492L171.978 229.935V246.858L171.945 246.876L157.084 255.319ZM142.318 246.784L157.084 255.172L171.85 246.784V230.007L157.084 221.618L142.318 230.007V246.784Z" stroke="#A1D8DF" stroke-miterlimit="10"/>
<path d="M171.847 230.024L171.814 230.006L156.953 221.564V204.64L156.987 204.622L171.847 196.18L171.881 196.198L186.741 204.64V221.564L186.708 221.582L171.847 230.024ZM157.081 221.489L171.847 229.878L186.613 221.489V204.712L171.847 196.324L157.081 204.712V221.489V221.489Z" stroke="#A1D8DF" stroke-miterlimit="10"/>
<path d="M161.89 105.564L171.182 110.842V121.399L161.89 126.677L152.598 121.399V110.842L161.89 105.564ZM170.864 111.022L161.89 105.924L152.916 111.022V121.219L161.89 126.317L170.864 121.219V111.022Z" stroke="white" stroke-width="0.75" stroke-miterlimit="10"/>
<path d="M143.624 105.564L152.916 110.842V121.399L143.624 126.677L134.332 121.399V110.842L143.624 105.564ZM152.598 111.022L143.624 105.924L134.65 111.022V121.219L143.624 126.317L152.598 121.219V111.022Z" stroke="white" stroke-width="0.75" stroke-miterlimit="10"/>
<path opacity="0.5" d="M162.694 57.2717L171.986 62.5499V73.1064L162.694 78.3846L153.402 73.1064V62.5499L162.694 57.2717ZM171.668 62.7297L162.694 57.6313L153.72 62.7297V72.9266L162.694 78.025L171.668 72.9266V62.7297V62.7297Z" stroke="white" stroke-width="0.75" stroke-miterlimit="10"/>
<path opacity="0.5" d="M141.949 233.859V233.877L142.318 241.983L135.551 246.247L135.536 246.239L128.415 242.387V242.369L128.046 234.262L134.814 229.999L134.829 230.006L141.949 233.859ZM142.257 241.95L141.891 233.895L134.816 230.068L128.108 234.296L128.474 242.351L135.548 246.178L142.257 241.95V241.95Z" stroke="#D1E6E9" stroke-miterlimit="10"/>
<path opacity="0.5" d="M148.307 221.579V221.597L148.676 229.703L141.908 233.967L141.893 233.959L134.773 230.107V230.089L134.404 221.983L141.171 217.719L141.186 217.727L148.307 221.579ZM148.614 229.67L148.248 221.615L141.174 217.788L134.465 222.016L134.831 230.071L141.906 233.898L148.614 229.67Z" stroke="#D1E6E9" stroke-miterlimit="10"/>
<path d="M126.689 98.5239L126.705 98.5316L133.743 102.531V110.547L133.728 110.555L126.689 114.554L126.674 114.546L119.635 110.547V102.531L119.651 102.523L126.689 98.5239V98.5239ZM133.684 102.567L126.689 98.5933L119.694 102.567V110.514L126.689 114.487L133.684 110.514V102.567Z" stroke="#D1E6E9" stroke-miterlimit="10"/>
<path d="M133.743 110.534L133.759 110.542L140.797 114.541V122.557L140.782 122.565L133.743 126.564L133.728 126.556L126.689 122.557V114.541L126.705 114.533L133.743 110.534ZM140.738 114.577L133.743 110.604L126.748 114.577V122.524L133.743 126.497L140.738 122.524V114.577Z" stroke="#D1E6E9" stroke-miterlimit="10"/>
<path d="M119.694 110.604L119.71 110.611L126.748 114.61V122.627L126.733 122.634L119.694 126.633L119.679 126.626L112.64 122.627V114.61L112.656 114.603L119.694 110.604ZM126.689 114.646L119.694 110.673L112.699 114.646V122.593L119.694 126.567L126.689 122.593V114.646Z" stroke="#D1E6E9" stroke-miterlimit="10"/>
<path d="M105.645 110.534L105.661 110.542L112.699 114.541V122.557L112.684 122.565L105.645 126.564L105.63 126.556L98.5913 122.557V114.541L98.6067 114.533L105.645 110.534ZM112.64 114.577L105.645 110.604L98.6502 114.577V122.524L105.645 126.497L112.64 122.524V114.577Z" stroke="#D1E6E9" stroke-miterlimit="10"/>
<path d="M98.5913 122.467L98.6067 122.475L105.645 126.474V134.49L105.63 134.498L98.5913 138.497L98.5759 138.489L91.5374 134.49V126.474L91.5527 126.466L98.5913 122.467V122.467ZM105.586 126.51L98.5913 122.537L91.5962 126.51V134.457L98.5913 138.43L105.586 134.457V126.51Z" stroke="#D1E6E9" stroke-miterlimit="10"/>
<path d="M84.5422 122.467L84.5576 122.475L91.5962 126.474V134.49L91.5808 134.498L84.5422 138.497L84.5269 138.489L77.4883 134.49V126.474L77.5036 126.466L84.5422 122.467V122.467ZM91.5373 126.51L84.5422 122.537L77.5472 126.51V134.457L84.5422 138.43L91.5373 134.457V126.51Z" stroke="#D1E6E9" stroke-miterlimit="10"/>
<path opacity="0.6" d="M91.5962 110.604L91.6115 110.611L98.6501 114.61V122.627L98.6348 122.634L91.5962 126.633L91.5808 126.626L84.5422 122.627V114.61L84.5576 114.603L91.5962 110.604ZM98.5912 114.646L91.5962 110.673L84.6011 114.646V122.593L91.5962 126.567L98.5912 122.593V114.646Z" stroke="#D1E6E9" stroke-miterlimit="10"/>
<path opacity="0.6" d="M98.5605 98.5059L98.5759 98.5136L105.614 102.513V110.529L105.599 110.537L98.5605 114.536L98.5452 114.528L91.5066 110.529V102.513L91.522 102.505L98.5605 98.5059ZM105.556 102.549L98.5605 98.5752L91.5655 102.549V110.495L98.5605 114.469L105.556 110.495V102.549Z" stroke="#D1E6E9" stroke-miterlimit="10"/>
<path d="M49.3904 134.333L49.4057 134.341L56.4443 138.34V146.357L56.429 146.364L49.3904 150.363L49.375 150.356L42.3364 146.357V138.34L42.3518 138.333L49.3904 134.333ZM56.3854 138.376L49.3904 134.403L42.3953 138.376V146.323L49.3904 150.297L56.3854 146.323V138.376Z" stroke="#D1E6E9" stroke-miterlimit="10"/>
<path d="M35.3413 134.333L35.3567 134.341L42.3952 138.34V146.357L42.3799 146.364L35.3413 150.363L35.3259 150.356L28.2874 146.357V138.34L28.3027 138.333L35.3413 134.333ZM42.3364 138.376L35.3413 134.403L28.3462 138.376V146.323L35.3413 150.297L42.3364 146.323V138.376Z" stroke="#D1E6E9" stroke-miterlimit="10"/>
<path d="M21.2922 134.333L21.3076 134.341L28.3462 138.34V146.357L28.3308 146.364L21.2922 150.363L21.2769 150.356L14.2383 146.357V138.34L14.2536 138.333L21.2922 134.333ZM28.2873 138.376L21.2922 134.403L14.2972 138.376V146.323L21.2922 150.297L28.2873 146.323V138.376Z" stroke="#D1E6E9" stroke-miterlimit="10"/>
<path d="M7.18188 134.333L7.19724 134.341L14.2358 138.34V146.357L14.2205 146.364L7.18188 150.363L7.16651 150.356L0.12793 146.357V138.34L0.143292 138.333L7.18188 134.333V134.333ZM14.1769 138.376L7.18188 134.403L0.186819 138.376V146.323L7.18188 150.297L14.1769 146.323V138.376Z" stroke="#D1E6E9" stroke-miterlimit="10"/>
<path opacity="0.5" d="M84.5115 98.5059L84.5268 98.5136L91.5654 102.513V110.529L91.5501 110.537L84.5115 114.536L84.4961 114.528L77.4575 110.529V102.513L77.4729 102.505L84.5115 98.5059ZM91.5065 102.549L84.5115 98.5752L77.5164 102.549V110.495L84.5115 114.469L91.5065 110.495V102.549Z" stroke="#D1E6E9" stroke-miterlimit="10"/>
<path opacity="0.5" d="M42.3953 122.467L42.4106 122.475L49.4492 126.474V134.49L49.4338 134.498L42.3953 138.497L42.3799 138.489L35.3413 134.49V126.474L35.3567 126.466L42.3953 122.467V122.467ZM49.3903 126.51L42.3953 122.537L35.4002 126.51V134.457L42.3953 138.43L49.3903 134.457V126.51Z" stroke="#D1E6E9" stroke-miterlimit="10"/>
<path opacity="0.5" d="M28.2873 122.398L28.3027 122.406L35.3413 126.405V134.421L35.3259 134.429L28.2873 138.428L28.272 138.42L21.2334 134.421V126.405L21.2488 126.397L28.2873 122.398V122.398ZM35.2824 126.441L28.2873 122.467L21.2923 126.441V134.388L28.2873 138.361L35.2824 134.388V126.441Z" stroke="#D1E6E9" stroke-miterlimit="10"/>
<path opacity="0.5" d="M14.2383 122.398L14.2536 122.406L21.2922 126.405V134.421L21.2769 134.429L14.2383 138.428L14.2229 138.42L7.18433 134.421V126.405L7.19969 126.397L14.2383 122.398V122.398ZM21.2333 126.441L14.2383 122.467L7.24322 126.441V134.388L14.2383 138.361L21.2333 134.388V126.441Z" stroke="#D1E6E9" stroke-miterlimit="10"/>
<path opacity="0.6" d="M91.5654 86.6396L91.5808 86.6474L98.6194 90.6465V98.6627L98.604 98.6704L91.5654 102.669L91.5501 102.662L84.5115 98.6627V90.6465L84.5268 90.6388L91.5654 86.6396ZM98.5605 90.6824L91.5654 86.709L84.5704 90.6824V98.6293L91.5654 102.603L98.5605 98.6293V90.6824Z" stroke="#D1E6E9" stroke-miterlimit="10"/>
<path opacity="0.6" d="M84.573 74.6936L84.5883 74.7013L91.6269 78.7004V86.7166L91.6116 86.7243L84.573 90.7234L84.5576 90.7157L77.519 86.7166V78.7004L77.5344 78.6927L84.573 74.6936ZM91.568 78.7364L84.573 74.7629L77.5779 78.7364V86.6832L84.573 90.6567L91.568 86.6832V78.7364Z" stroke="#D1E6E9" stroke-miterlimit="10"/>
<path d="M63.4983 134.333L63.5136 134.341L70.5522 138.34V146.357L70.5369 146.364L63.4983 150.363L63.4829 150.356L56.4443 146.357V138.34L56.4597 138.333L63.4983 134.333ZM70.4933 138.376L63.4983 134.403L56.5032 138.376V146.323L63.4983 150.297L70.4933 146.323V138.376Z" stroke="#D1E6E9" stroke-miterlimit="10"/>
<path d="M105.832 134.333L105.848 134.341L112.886 138.34V146.357L112.871 146.364L105.832 150.363L105.817 150.356L98.7783 146.357V138.34L98.7937 138.333L105.832 134.333ZM112.827 138.376L105.832 134.403L98.8372 138.376V146.323L105.832 150.297L112.827 146.323V138.376Z" stroke="#D1E6E9" stroke-miterlimit="10"/>
<path d="M112.64 146.241L112.656 146.249L119.694 150.248V158.264L119.679 158.272L112.64 162.271L112.625 162.263L105.586 158.264V150.248L105.602 150.24L112.64 146.241ZM119.635 150.284L112.64 146.31L105.645 150.284V158.231L112.64 162.204L119.635 158.231V150.284Z" stroke="#D1E6E9" stroke-miterlimit="10"/>
<path opacity="0.6" d="M105.584 158.133L105.599 158.141L112.638 162.14V170.156L112.622 170.164L105.584 174.163L105.568 174.155L98.5298 170.156V162.14L98.5451 162.132L105.584 158.133ZM112.579 162.176L105.584 158.202L98.5887 162.176V170.123L105.584 174.096L112.579 170.123V162.176Z" stroke="#D1E6E9" stroke-miterlimit="10"/>
<path d="M126.748 146.094L126.764 146.102L133.802 150.101V158.117L133.787 158.125L126.748 162.124L126.733 162.117L119.694 158.117V150.101L119.71 150.094L126.748 146.094ZM133.743 150.137L126.748 146.164L119.753 150.137V158.084L126.748 162.058L133.743 158.084V150.137Z" stroke="#D1E6E9" stroke-miterlimit="10"/>
<path opacity="0.6" d="M119.559 158.133L119.574 158.141L126.613 162.14V170.156L126.597 170.164L119.559 174.163L119.543 174.155L112.505 170.156V162.14L112.52 162.132L119.559 158.133ZM126.554 162.176L119.559 158.202L112.564 162.176V170.123L119.559 174.096L126.554 170.123V162.176Z" stroke="#D1E6E9" stroke-miterlimit="10"/>
<path opacity="0.6" d="M70.5547 122.467L70.57 122.475L77.6086 126.474V134.49L77.5933 134.498L70.5547 138.497L70.5393 138.489L63.5007 134.49V126.474L63.5161 126.466L70.5547 122.467V122.467ZM77.5497 126.51L70.5547 122.537L63.5596 126.51V134.457L70.5547 138.43L77.5497 134.457V126.51Z" stroke="#D1E6E9" stroke-miterlimit="10"/>
<path d="M157.34 120.41L157.373 120.428L172.234 128.87V145.794L172.201 145.812L157.34 154.255L157.307 154.237L142.446 145.794V128.87L142.479 128.852L157.34 120.41ZM172.106 128.945L157.34 120.556L142.574 128.945V145.722L157.34 154.111L172.106 145.722V128.945V128.945Z" stroke="#A1D8DF" stroke-miterlimit="10"/>
<path d="M142.318 145.66L142.351 145.678L157.212 154.121V171.045L157.179 171.063L142.318 179.505L142.285 179.487L127.424 171.045V154.121L127.457 154.103L142.318 145.66ZM157.084 154.195L142.318 145.807L127.552 154.195V170.973L142.318 179.361L157.084 170.973V154.195V154.195Z" stroke="#A1D8DF" stroke-miterlimit="10"/>
<path d="M157.084 170.942L157.117 170.96L171.978 179.402V196.326L171.945 196.344L157.084 204.787L157.051 204.769L142.19 196.326V179.402L142.223 179.384L157.084 170.942ZM171.85 179.477L157.084 171.088L142.318 179.477V196.254L157.084 204.643L171.85 196.254V179.477Z" stroke="#A1D8DF" stroke-miterlimit="10"/>
<path d="M127.555 120.41L127.588 120.428L142.449 128.87V145.794L142.415 145.812L127.555 154.255L127.522 154.237L112.661 145.794V128.87L112.694 128.852L127.555 120.41ZM142.321 128.945L127.555 120.556L112.789 128.945V145.722L127.555 154.111L142.321 145.722V128.945V128.945Z" stroke="#A1D8DF" stroke-miterlimit="10"/>
<path opacity="0.6" d="M83.0009 95.1489L83.0342 95.1669L97.8948 103.609V120.533L97.8615 120.551L83.0009 128.994L82.9676 128.976L68.1069 120.533V103.609L68.1402 103.591L83.0009 95.1489ZM97.7668 103.684L83.0009 95.2953L68.235 103.684V120.461L83.0009 128.85L97.7668 120.461V103.684Z" stroke="#A1D8DF" stroke-miterlimit="10"/>
<path opacity="0.6" d="M127.683 69.7158L127.716 69.7338L142.577 78.1764V95.1L142.543 95.118L127.683 103.561L127.649 103.543L112.789 95.1V78.1764L112.822 78.1584L127.683 69.7158ZM142.449 78.2509L127.683 69.8622L112.917 78.2509V95.0281L127.683 103.417L142.449 95.0281V78.2509Z" stroke="#A1D8DF" stroke-miterlimit="10"/>
<path d="M160.874 96.179L160.889 96.1867L167.927 100.186V108.202L167.912 108.21L160.874 112.209L160.858 112.201L153.82 108.202V100.186L153.835 100.178L160.874 96.179ZM167.869 100.222L160.874 96.2483L153.878 100.222V108.169L160.874 112.142L167.869 108.169V100.222Z" stroke="white" stroke-miterlimit="10"/>
<path d="M153.912 84.2688L153.927 84.2765L160.966 88.2756V96.2918L160.95 96.2995L153.912 100.299L153.896 100.291L146.858 96.2918V88.2756L146.873 88.2679L153.912 84.2688ZM160.907 88.3116L153.912 84.3381L146.917 88.3116V96.2584L153.912 100.232L160.907 96.2584V88.3116Z" stroke="white" stroke-miterlimit="10"/>
<path opacity="0.6" d="M139.74 84.2688L139.755 84.2765L146.794 88.2756V96.2918L146.778 96.2995L139.74 100.299L139.724 100.291L132.686 96.2918V88.2756L132.701 88.2679L139.74 84.2688ZM146.735 88.3116L139.74 84.3381L132.745 88.3116V96.2584L139.74 100.232L146.735 96.2584V88.3116Z" stroke="white" stroke-miterlimit="10"/>
<path d="M118.76 96.179L118.775 96.1867L125.814 100.186V108.202L125.798 108.21L118.76 112.209L118.744 112.201L111.706 108.202V100.186L111.721 100.178L118.76 96.179ZM125.755 100.222L118.76 96.2483L111.765 100.222V108.169L118.76 112.142L125.755 108.169V100.222Z" stroke="white" stroke-miterlimit="10"/>
<path d="M111.765 108.104L111.78 108.112L118.819 112.111V120.127L118.803 120.135L111.765 124.134L111.749 124.126L104.711 120.127V112.111L104.726 112.103L111.765 108.104ZM118.76 112.147L111.765 108.174L104.77 112.147V120.094L111.765 124.067L118.76 120.094V112.147Z" stroke="white" stroke-miterlimit="10"/>
<path opacity="0.3" d="M104.711 96.179L104.726 96.1867L111.765 100.186V108.202L111.749 108.21L104.711 112.209L104.695 112.201L97.6567 108.202V100.186L97.6721 100.178L104.711 96.179ZM111.706 100.222L104.711 96.2483L97.7156 100.222V108.169L104.711 112.142L111.706 108.169V100.222Z" stroke="white" stroke-miterlimit="10"/>
<path opacity="0.5" d="M111.583 84.2688L111.598 84.2765L118.637 88.2756V96.2918L118.621 96.2995L111.583 100.299L111.567 100.291L104.529 96.2918V88.2756L104.544 88.2679L111.583 84.2688ZM118.578 88.3116L111.583 84.3381L104.588 88.3116V96.2584L111.583 100.232L118.578 96.2584V88.3116Z" stroke="white" stroke-miterlimit="10"/>
<path opacity="0.3" d="M97.4724 84.2688L97.4878 84.2765L104.526 88.2756V96.2918L104.511 96.2995L97.4724 100.299L97.457 100.291L90.4185 96.2918V88.2756L90.4338 88.2679L97.4724 84.2688ZM104.467 88.3116L97.4724 84.3381L90.4773 88.3116V96.2584L97.4724 100.232L104.467 96.2584V88.3116Z" stroke="white" stroke-miterlimit="10"/>
<path opacity="0.3" d="M132.868 72.2537L132.883 72.2614L139.922 76.2605V84.2767L139.906 84.2844L132.868 88.2835L132.852 88.2758L125.814 84.2767V76.2605L125.829 76.2528L132.868 72.2537ZM139.863 76.2964L132.868 72.323L125.873 76.2964V84.2433L132.868 88.2167L139.863 84.2433V76.2964Z" stroke="white" stroke-miterlimit="10"/>
<path d="M154.846 122.485L154.862 122.493L161.9 126.492V134.508L161.885 134.516L154.846 138.515L154.831 138.507L147.792 134.508V126.492L147.808 126.484L154.846 122.485ZM161.841 126.528L154.846 122.554L147.851 126.528V134.475L154.846 138.448L161.841 134.475V126.528V126.528Z" stroke="#D1E6E9" stroke-miterlimit="10"/>
<path d="M161.9 134.333L161.915 134.341L168.954 138.34V146.357L168.939 146.364L161.9 150.363L161.885 150.356L154.846 146.357V138.34L154.862 138.333L161.9 134.333ZM168.895 138.376L161.9 134.403L154.905 138.376V146.323L161.9 150.297L168.895 146.323V138.376Z" stroke="#D1E6E9" stroke-miterlimit="10"/>
<path d="M154.785 146.241L154.8 146.249L161.839 150.248V158.264L161.823 158.272L154.785 162.271L154.769 162.263L147.731 158.264V150.248L147.746 150.24L154.785 146.241ZM161.78 150.284L154.785 146.31L147.79 150.284V158.231L154.785 162.204L161.78 158.231V150.284Z" stroke="#D1E6E9" stroke-miterlimit="10"/>
<path d="M161.9 158.133L161.915 158.141L168.954 162.14V170.156L168.939 170.164L161.9 174.163L161.885 174.155L154.846 170.156V162.14L154.862 162.132L161.9 158.133ZM168.895 162.176L161.9 158.202L154.905 162.176V170.123L161.9 174.096L168.895 170.123V162.176Z" stroke="#D1E6E9" stroke-miterlimit="10"/>
<path d="M147.792 110.496L147.808 110.503L154.846 114.502V122.519L154.831 122.526L147.792 126.525L147.777 126.518L140.738 122.519V114.502L140.754 114.495L147.792 110.496ZM154.787 114.538L147.792 110.565L140.797 114.538V122.485L147.792 126.459L154.787 122.485V114.538Z" stroke="#D1E6E9" stroke-miterlimit="10"/>
<path d="M154.785 98.5854L154.8 98.5932L161.839 102.592V110.608L161.823 110.616L154.785 114.615L154.769 114.608L147.731 110.608V102.592L147.746 102.585L154.785 98.5854ZM161.78 102.628L154.785 98.6548L147.79 102.628V110.575L154.785 114.549L161.78 110.575V102.628Z" stroke="#D1E6E9" stroke-miterlimit="10"/>
<path d="M147.731 86.5703L147.746 86.578L154.785 90.5771V98.5933L154.769 98.601L147.731 102.6L147.715 102.592L140.677 98.5933V90.5771L140.692 90.5694L147.731 86.5703ZM154.726 90.6131L147.731 86.6397L140.736 90.6131V98.5599L147.731 102.533L154.726 98.5599V90.6131Z" stroke="#D1E6E9" stroke-miterlimit="10"/>
<path d="M161.78 86.5703L161.795 86.578L168.834 90.5771V98.5933L168.818 98.601L161.78 102.6L161.764 102.592L154.726 98.5933V90.5771L154.741 90.5694L161.78 86.5703ZM168.775 90.6131L161.78 86.6397L154.785 90.6131V98.5599L161.78 102.533L168.775 98.5599V90.6131Z" stroke="#D1E6E9" stroke-miterlimit="10"/>
<path d="M154.785 74.5652L154.8 74.5729L161.839 78.572V86.5882L161.823 86.5959L154.785 90.595L154.769 90.5873L147.731 86.5882V78.572L147.746 78.5643L154.785 74.5652ZM161.78 78.608L154.785 74.6345L147.79 78.608V86.5548L154.785 90.5282L161.78 86.5548V78.608Z" stroke="#D1E6E9" stroke-miterlimit="10"/>
<path d="M142.449 95.2876L142.482 95.3056L157.343 103.748V120.672L157.309 120.69L142.449 129.132L142.415 129.114L127.555 120.672V103.748L127.588 103.73L142.449 95.2876ZM157.215 103.823L142.449 95.434L127.683 103.823V120.6L142.449 128.989L157.215 120.6V103.823V103.823Z" stroke="#A1D8DF" stroke-miterlimit="10"/>
<path d="M112.699 95.1489L112.732 95.1669L127.593 103.609V120.533L127.56 120.551L112.699 128.994L112.666 128.976L97.8052 120.533V103.609L97.8385 103.591L112.699 95.1489ZM127.465 103.684L112.699 95.2953L97.9332 103.684V120.461L112.699 128.85L127.465 120.461V103.684Z" stroke="#A1D8DF" stroke-miterlimit="10"/>
<path d="M157.34 70.0833L157.373 70.1012L172.234 78.5438V95.4675L172.201 95.4854L157.34 103.928L157.307 103.91L142.446 95.4675V78.5438L142.479 78.5258L157.34 70.0833ZM172.106 78.6183L157.34 70.2297L142.574 78.6183V95.3955L157.34 103.784L172.106 95.3955V78.6183V78.6183Z" stroke="#A1D8DF" stroke-miterlimit="10"/>
<path opacity="0.6" d="M64.7349 122.167L74.0266 127.445V138.001L64.7349 143.28L55.4431 138.001V127.445L64.7349 122.167V122.167ZM73.7091 127.625L64.7349 122.526L55.7606 127.625V137.822L58.7973 139.548L64.7349 142.923L73.7091 137.824V127.627V127.625Z" stroke="white" stroke-width="0.75" stroke-miterlimit="10"/>
<path opacity="0.6" d="M83.001 122.167L92.2927 127.445V138.001L83.001 143.28L73.7092 138.001V127.445L83.001 122.167V122.167ZM91.9752 127.625L83.001 122.526L74.0267 127.625V137.822L77.0634 139.548L83.001 142.923L91.9752 137.824V127.627V127.625Z" stroke="white" stroke-width="0.75" stroke-miterlimit="10"/>
<path opacity="0.3" d="M73.8372 106.609L83.1289 111.888V122.444L73.8372 127.722L64.5454 122.444V111.888L73.8372 106.609ZM82.8114 112.067L73.8372 106.969L64.8629 112.067V122.264L67.8996 123.99L73.8372 127.365L82.8114 122.267V112.07V112.067Z" stroke="white" stroke-width="0.75" stroke-miterlimit="10"/>
<path opacity="0.3" d="M92.1467 106.761L101.438 112.039V122.596L92.1467 127.874L82.855 122.596V112.039L92.1467 106.761ZM101.121 112.219L92.1467 107.121L83.1725 112.219V122.416L86.2091 124.142L92.1467 127.517L101.121 122.418V112.222V112.219Z" stroke="white" stroke-width="0.75" stroke-miterlimit="10"/>
<path opacity="0.3" d="M46.469 122.167L55.7607 127.445V138.001L46.469 143.28L37.1772 138.001V127.445L46.469 122.167V122.167ZM55.4433 127.625L46.469 122.526L37.4947 127.625V137.822L40.5314 139.548L46.469 142.923L55.4433 137.824V127.627V127.625Z" stroke="white" stroke-width="0.75" stroke-miterlimit="10"/>
<path opacity="0.3" d="M28.2874 122.167L37.5791 127.445V138.001L28.2874 143.28L18.9956 138.001V127.445L28.2874 122.167V122.167ZM37.2616 127.625L28.2874 122.526L19.3131 127.625V137.822L22.3498 139.548L28.2874 142.923L37.2616 137.824V127.627V127.625Z" stroke="white" stroke-width="0.75" stroke-miterlimit="10"/>
<path d="M97.8949 120.41L97.9282 120.428L112.789 128.87V145.794L112.756 145.812L97.8949 154.255L97.8616 154.237L83.001 145.794V128.87L83.0343 128.852L97.8949 120.41ZM112.661 128.945L97.8949 120.556L83.129 128.945V145.722L97.8949 154.111L112.661 145.722V128.945V128.945Z" stroke="#A1D8DF" stroke-miterlimit="10"/>
<path opacity="0.6" d="M112.64 145.66L112.674 145.678L127.534 154.121V171.045L127.501 171.063L112.64 179.505L112.607 179.487L97.7463 171.045V154.121L97.7796 154.103L112.64 145.66ZM127.406 154.195L112.64 145.807L97.8744 154.195V170.973L112.64 179.361L127.406 170.973V154.195V154.195Z" stroke="#A1D8DF" stroke-miterlimit="10"/>
<path opacity="0.6" d="M68.235 120.41L68.2683 120.428L83.129 128.87V145.794L83.0957 145.812L68.235 154.255L68.2017 154.237L53.3411 145.794V128.87L53.3744 128.852L68.235 120.41ZM83.0009 128.945L68.235 120.556L53.4691 128.945V145.722L68.235 154.111L83.0009 145.722V128.945V128.945Z" stroke="#A1D8DF" stroke-miterlimit="10"/>
</g>
<defs>
<clipPath id="clip0_207_4">
<rect width="187" height="306" fill="white"/>
</clipPath>
</defs>
</svg>
