<svg width="167" height="273" viewBox="0 0 167 273" fill="none" xmlns="http://www.w3.org/2000/svg">
<path opacity="0.3" d="M66.354 203.066L66.3837 203.082L79.655 210.615L79.655 225.713L79.6253 225.729L66.354 233.261L66.3243 233.245L53.053 225.713L53.053 210.615L53.0827 210.598L66.354 203.066ZM79.5407 210.681L66.354 203.197L53.1673 210.681L53.1673 225.649L66.354 233.133L79.5407 225.649L79.5407 210.681V210.681Z" stroke="#A1D8DF" stroke-miterlimit="10"/>
<path opacity="0.5" d="M56.9791 94.6106L56.9654 94.6037L50.6339 91.1184L50.5424 83.9667L50.5561 83.9598L56.7962 80.3095L56.8099 80.3163L63.1414 83.8017L63.2329 90.9534L63.2192 90.9603L56.9791 94.6106ZM50.6865 91.0863L56.9768 94.5487L63.1757 90.9236L63.0843 83.8338L56.7939 80.3713L50.595 83.9965L50.6865 91.0863Z" stroke="white" stroke-width="0.75" stroke-miterlimit="10"/>
<path opacity="0.5" d="M63.4501 105.199L63.4364 105.193L57.1048 101.707L57.0134 94.5556L57.0271 94.5487L63.2672 90.8983L63.2809 90.9052L69.6124 94.3906L69.7039 101.542L69.6901 101.549L63.4501 105.199ZM57.1574 101.675L63.4478 105.138L69.6467 101.512L69.5552 94.4226L63.2649 90.9602L57.066 94.5853L57.1574 101.675Z" stroke="white" stroke-width="0.75" stroke-miterlimit="10"/>
<path opacity="0.5" d="M42.0958 262.161L42.082 262.155L35.7962 258.587V251.435L35.81 251.428L42.0958 247.86L42.1095 247.867L48.3953 251.435L48.3953 258.587L48.3815 258.594L42.0958 262.161V262.161ZM35.8488 258.555L42.0958 262.1L48.3427 258.555L48.3427 251.465L42.0958 247.92L35.8488 251.465V258.555V258.555Z" stroke="white" stroke-width="0.75" stroke-miterlimit="10"/>
<path opacity="0.5" d="M35.7093 272.901L35.6956 272.895L29.4098 269.327L29.4098 262.175L29.4235 262.168L35.7093 258.6L35.723 258.607L42.0088 262.175L42.0088 269.324L41.9951 269.331L35.7093 272.901ZM29.4624 269.295L35.7093 272.84L41.9562 269.295L41.9562 262.205L35.7093 258.66L29.4624 262.205L29.4624 269.295Z" stroke="white" stroke-width="0.75" stroke-miterlimit="10"/>
<path opacity="0.5" d="M35.8511 251.458L35.8374 251.451L29.5516 247.883L29.5516 240.731L29.5653 240.724L35.8511 237.157L35.8648 237.164L42.1506 240.731L42.1506 247.883L42.1369 247.89L35.8511 251.458V251.458ZM29.6042 247.851L35.8511 251.396L42.098 247.851L42.098 240.761L35.8511 237.216L29.6042 240.761L29.6042 247.851Z" stroke="white" stroke-width="0.75" stroke-miterlimit="10"/>
<path opacity="0.5" d="M54.6421 262.099L54.6284 262.093L48.3426 258.525V251.373L48.3563 251.366L54.6421 247.798L54.6559 247.805L60.9417 251.373L60.9417 258.525L60.9279 258.532L54.6421 262.099V262.099ZM48.3952 258.493L54.6421 262.038L60.8891 258.493L60.8891 251.403L54.6421 247.858L48.3952 251.403V258.493Z" stroke="white" stroke-width="0.75" stroke-miterlimit="10"/>
<path opacity="0.5" d="M63.6422 126.691L63.6285 126.685L57.297 123.199L57.2055 116.047L57.2192 116.041L63.4593 112.39L63.473 112.397L69.8045 115.883L69.896 123.034L69.8823 123.041L63.6422 126.691ZM57.3496 123.167L63.6399 126.63L69.8388 123.004L69.7474 115.915L63.457 112.452L57.2581 116.077L57.3496 123.167Z" stroke="white" stroke-width="0.75" stroke-miterlimit="10"/>
<path opacity="0.5" d="M54.5875 240.736L54.5737 240.729L48.2879 237.161V230.01L48.3017 230.003L54.5875 226.435L54.6012 226.442L60.887 230.01L60.887 237.161L60.8732 237.168L54.5875 240.736ZM48.3405 237.129L54.5875 240.674L60.8344 237.129L60.8344 230.039L54.5875 226.495L48.3405 230.039V237.129Z" stroke="white" stroke-width="0.75" stroke-miterlimit="10"/>
<path opacity="0.5" d="M29.4944 240.786L29.4807 240.78L23.1949 237.212L23.1949 230.06L23.2086 230.053L29.4944 226.485L29.5082 226.492L35.7939 230.06L35.7939 237.212L35.7802 237.219L29.4944 240.786ZM23.2475 237.18L29.4944 240.725L35.7414 237.18L35.7414 230.09L29.4944 226.545L23.2475 230.09L23.2475 237.18Z" stroke="white" stroke-width="0.75" stroke-miterlimit="10"/>
<path opacity="0.5" d="M23.2613 230.003L23.2476 229.996L16.9618 226.428L16.9618 219.276L16.9755 219.269L23.2613 215.702L23.275 215.708L29.5608 219.276L29.5608 226.428L29.5471 226.435L23.2613 230.003ZM17.0144 226.396L23.2613 229.941L29.5082 226.396L29.5082 219.306L23.2613 215.761L17.0144 219.306L17.0144 226.396Z" stroke="white" stroke-width="0.75" stroke-miterlimit="10"/>
<path opacity="0.5" d="M48.2696 230.003L48.2559 229.996L41.9701 226.428V219.276L41.9838 219.269L48.2696 215.702L48.2833 215.708L54.5691 219.276L54.5691 226.428L54.5554 226.435L48.2696 230.003ZM42.0227 226.396L48.2696 229.941L54.5165 226.396L54.5165 219.306L48.2696 215.761L42.0227 219.306V226.396Z" stroke="white" stroke-width="0.75" stroke-miterlimit="10"/>
<path opacity="0.5" d="M54.5691 219.281L54.5554 219.274L48.2696 215.706V208.554L48.2833 208.547L54.5691 204.98L54.5829 204.987L60.8687 208.554L60.8687 215.706L60.8549 215.713L54.5691 219.281V219.281ZM48.3222 215.674L54.5691 219.219L60.8161 215.674L60.8161 208.584L54.5691 205.039L48.3222 208.584V215.674Z" stroke="white" stroke-width="0.75" stroke-miterlimit="10"/>
<path opacity="0.5" d="M50.5812 83.9094L50.5675 83.9026L44.2359 80.4172L44.1445 73.2655L44.1582 73.2586L50.3983 69.6083L50.412 69.6152L56.7435 73.1005L56.835 80.2522L56.8212 80.2591L50.5812 83.9094V83.9094ZM44.2885 80.3851L50.5789 83.8475L56.7778 80.2224L56.6863 73.1326L50.396 69.6702L44.1971 73.2953L44.2885 80.3851Z" stroke="white" stroke-width="0.75" stroke-miterlimit="10"/>
<path opacity="0.5" d="M42.0225 219.265L42.0088 219.258L35.723 215.69V208.538L35.7367 208.532L42.0225 204.964L42.0362 204.971L48.322 208.538L48.322 215.69L48.3083 215.697L42.0225 219.265ZM35.7756 215.658L42.0225 219.203L48.2694 215.658L48.2694 208.568L42.0225 205.023L35.7756 208.568V215.658Z" stroke="white" stroke-width="0.75" stroke-miterlimit="10"/>
<path opacity="0.5" d="M29.5059 219.265L29.4922 219.258L23.2064 215.69L23.2064 208.538L23.2201 208.532L29.5059 204.964L29.5196 204.971L35.8054 208.538L35.8054 215.69L35.7917 215.697L29.5059 219.265ZM23.259 215.658L29.5059 219.203L35.7528 215.658L35.7528 208.568L29.5059 205.023L23.259 208.568L23.259 215.658Z" stroke="white" stroke-width="0.75" stroke-miterlimit="10"/>
<path opacity="0.6" d="M59.8031 89.2051L59.7894 89.1982L53.4579 85.7129L53.3664 78.5612L53.3801 78.5543L59.6202 74.904L59.6339 74.9108L65.9654 78.3962L66.0569 85.5479L66.0432 85.5548L59.8031 89.2051ZM53.5104 85.6808L59.8008 89.1432L65.9997 85.5181L65.9083 78.4283L59.6179 74.9658L53.419 78.5909L53.5104 85.6808Z" stroke="#D1E6E9" stroke-miterlimit="10"/>
<path d="M47.2567 89.3264L47.243 89.3195L40.9115 85.8342L40.82 78.6825L40.8337 78.6756L47.0738 75.0253L47.0875 75.0322L53.419 78.5175L53.5105 85.6692L53.4968 85.6761L47.2567 89.3264V89.3264ZM40.9641 85.8021L47.2544 89.2645L53.4533 85.6394L53.3619 78.5496L47.0715 75.0872L40.8726 78.7123L40.9641 85.8021Z" stroke="#D1E6E9" stroke-miterlimit="10"/>
<path opacity="0.6" d="M65.8534 78.3364L65.8397 78.3296L59.5081 74.8442L59.4167 67.6925L59.4304 67.6856L65.6705 64.0353L65.6842 64.0422L72.0157 67.5275L72.1072 74.6792L72.0935 74.6861L65.8534 78.3364ZM59.5607 74.8121L65.8511 78.2746L72.05 74.6494L71.9586 67.5596L65.6682 64.0972L59.4693 67.7223L59.5607 74.8121Z" stroke="#D1E6E9" stroke-miterlimit="10"/>
<path opacity="0.3" d="M71.9608 67.4749L71.9471 67.468L65.6156 63.9826L65.5241 56.8309L65.5378 56.824L71.7779 53.1737L71.7916 53.1806L78.1231 56.6659L78.2146 63.8176L78.2009 63.8245L71.9608 67.4749ZM65.6682 63.9506L71.9585 67.413L78.1574 63.7879L78.066 56.698L71.7756 53.2356L65.5767 56.8607L65.6682 63.9506Z" stroke="#D1E6E9" stroke-miterlimit="10"/>
<path d="M66.2421 99.8604L66.2283 99.8535L59.8968 96.3681L59.8054 89.2164L59.8191 89.2096L66.0591 85.5592L66.0729 85.5661L72.4044 89.0514L72.4958 96.2032L72.4821 96.21L66.2421 99.8604ZM59.9494 96.3361L66.2398 99.7985L72.4387 96.1734L72.3472 89.0835L66.0569 85.6211L59.8579 89.2462L59.9494 96.3361Z" stroke="#D1E6E9" stroke-miterlimit="10"/>
<path d="M41.3253 121.531L41.3116 121.524L34.9801 118.039L34.8886 110.887L34.9023 110.88L41.1424 107.23L41.1561 107.237L47.4876 110.722L47.5791 117.874L47.5654 117.881L41.3253 121.531ZM35.0327 118.007L41.323 121.469L47.5219 117.844L47.4305 110.754L41.1401 107.292L34.9412 110.917L35.0327 118.007Z" stroke="#D1E6E9" stroke-miterlimit="10"/>
<path d="M53.6429 100.025L53.6292 100.019L47.2977 96.5332L47.2062 89.3815L47.22 89.3746L53.46 85.7243L53.4737 85.7311L59.8053 89.2165L59.8967 96.3682L59.883 96.3751L53.6429 100.025V100.025ZM47.3503 96.5011L53.6407 99.9635L59.8396 96.3384L59.7481 89.2486L53.4577 85.7861L47.2588 89.4113L47.3503 96.5011Z" stroke="#D1E6E9" stroke-miterlimit="10"/>
<path d="M60.0248 110.63L60.0111 110.624L53.6795 107.138L53.5881 99.9864L53.6018 99.9796L59.8419 96.3293L59.8556 96.3361L66.1871 99.8215L66.2786 106.973L66.2648 106.98L60.0248 110.63ZM53.7321 107.106L60.0225 110.569L66.2214 106.943L66.1299 99.8536L59.8396 96.3911L53.6407 100.016L53.7321 107.106Z" stroke="#D1E6E9" stroke-miterlimit="10"/>
<path d="M53.9723 121.306L53.9586 121.3L47.627 117.814L47.5356 110.662L47.5493 110.656L53.7894 107.005L53.8031 107.012L60.1346 110.497L60.2261 117.649L60.2124 117.656L53.9723 121.306V121.306ZM47.6796 117.782L53.97 121.245L60.1689 117.619L60.0774 110.53L53.7871 107.067L47.5882 110.692L47.6796 117.782Z" stroke="#D1E6E9" stroke-miterlimit="10"/>
<path d="M66.5165 121.144L66.5028 121.137L60.1712 117.651L60.0798 110.5L60.0935 110.493L66.3336 106.842L66.3473 106.849L72.6788 110.335L72.7703 117.486L72.7565 117.493L66.5165 121.144ZM60.2238 117.619L66.5142 121.082L72.7131 117.457L72.6216 110.367L66.3313 106.904L60.1324 110.529L60.2238 117.619Z" stroke="#D1E6E9" stroke-miterlimit="10"/>
<path opacity="0.6" d="M13.4153 22.7407L13.445 22.7567L26.7163 30.2889L26.7163 45.3874L26.6866 45.4035L13.4153 52.9355L13.3856 52.9195L0.114303 45.3874L0.114303 30.2889L0.14403 30.2728L13.4153 22.7407ZM26.602 30.3553L13.4153 22.8713L0.228632 30.3553L0.228632 45.3232L13.4153 52.8072L26.602 45.3232L26.602 30.3553Z" stroke="#A1D8DF" stroke-miterlimit="10"/>
<path opacity="0.6" d="M39.6721 22.7109L39.7019 22.727L52.9731 30.2591L52.9731 45.3576L52.9434 45.3737L39.6721 52.9058L39.6424 52.8897L26.3711 45.3576L26.3711 30.2591L26.4009 30.243L39.6721 22.7109ZM52.8588 30.3255L39.6721 22.8416L26.4855 30.3255L26.4855 45.2935L39.6721 52.7774L52.8588 45.2935L52.8588 30.3255Z" stroke="#A1D8DF" stroke-miterlimit="10"/>
<path opacity="0.3" d="M52.7832 0.132804L52.8129 0.14886L66.0842 7.68095L66.0842 22.7795L66.0545 22.7955L52.7832 30.3276L52.7535 30.3116L39.4822 22.7795L39.4822 7.68095L39.5119 7.6649L52.7832 0.132804V0.132804ZM65.9699 7.74739L52.7832 0.263434L39.5965 7.74739L39.5965 22.7153L52.7832 30.1993L65.9699 22.7153L65.9699 7.74739V7.74739Z" stroke="#A1D8DF" stroke-miterlimit="10"/>
<path opacity="0.3" d="M26.3711 0.132804L26.4008 0.14886L39.6721 7.68095L39.6721 22.7795L39.6424 22.7955L26.3711 30.3276L26.3414 30.3116L13.0701 22.7795L13.0701 7.68095L13.0998 7.6649L26.3711 0.132804ZM39.5578 7.74739L26.3711 0.263434L13.1844 7.74739L13.1844 22.7153L26.3711 30.1993L39.5578 22.7153L39.5578 7.74739Z" stroke="#A1D8DF" stroke-miterlimit="10"/>
<path opacity="0.3" d="M79.7078 90.2956L79.7375 90.3117L93.0088 97.8438L93.0088 112.942L92.9791 112.958L79.7078 120.49L79.6781 120.474L66.4068 112.942V97.8438L66.4365 97.8277L79.7078 90.2956ZM92.8945 97.9102L79.7078 90.4263L66.5211 97.9102V112.878L79.7078 120.362L92.8945 112.878L92.8945 97.9102V97.9102Z" stroke="#A1D8DF" stroke-miterlimit="10"/>
<path opacity="0.3" d="M119.247 112.72L119.277 112.736L132.548 120.268V135.367L132.518 135.383L119.247 142.915L119.217 142.899L105.946 135.367V120.268L105.976 120.252L119.247 112.72ZM132.434 120.335L119.247 112.851L106.06 120.335V135.303L119.247 142.787L132.434 135.303V120.335Z" stroke="#A1D8DF" stroke-miterlimit="10"/>
<path d="M13.532 112.851L13.5617 112.867L26.833 120.399L26.833 135.498L26.8033 135.514L13.532 143.046L13.5023 143.03L0.230988 135.498L0.230988 120.399L0.260715 120.383L13.532 112.851ZM26.7187 120.465L13.532 112.981L0.345317 120.465L0.345317 135.433L13.532 142.917L26.7187 135.433L26.7187 120.465V120.465Z" stroke="#A1D8DF" stroke-miterlimit="10"/>
<path d="M26.7163 45.2156L26.7461 45.2316L40.0173 52.7637L40.0173 67.8623L39.9876 67.8783L26.7163 75.4104L26.6866 75.3944L13.4153 67.8623L13.4153 52.7637L13.4451 52.7477L26.7163 45.2156ZM39.903 52.8302L26.7163 45.3462L13.5297 52.8302L13.5297 67.7981L26.7163 75.2821L39.903 67.7981L39.903 52.8302Z" stroke="#A1D8DF" stroke-miterlimit="10"/>
<path d="M13.532 67.782L13.5617 67.798L26.833 75.3301L26.833 90.4287L26.8033 90.4447L13.532 97.9768L13.5023 97.9608L0.230988 90.4287L0.230988 75.3301L0.260715 75.3141L13.532 67.782ZM26.7187 75.3966L13.532 67.9126L0.345317 75.3966L0.345317 90.3645L13.532 97.8485L26.7187 90.3645L26.7187 75.3966V75.3966Z" stroke="#A1D8DF" stroke-miterlimit="10"/>
<path d="M22.4244 178.82L14.1264 174.111L14.1264 164.693L22.4244 159.984L30.7224 164.693L30.7224 174.111L22.4244 178.82ZM14.41 173.951L22.4244 178.5L30.4389 173.951L30.4389 164.854L22.4244 160.305L14.41 164.854L14.41 173.951Z" stroke="white" stroke-width="0.75" stroke-miterlimit="10"/>
<path d="M38.7367 178.82L30.4387 174.111L30.4387 164.693L38.7367 159.984L47.0347 164.693L47.0347 174.111L38.7367 178.82ZM30.7222 173.951L38.7367 178.5L46.7511 173.951L46.7511 164.854L38.7367 160.305L30.7222 164.854L30.7222 173.951Z" stroke="white" stroke-width="0.75" stroke-miterlimit="10"/>
<path opacity="0.5" d="M21.7064 221.905L13.4084 217.196L13.4084 207.778L21.7064 203.069L30.0044 207.778L30.0044 217.196L21.7064 221.905ZM13.692 217.035L21.7064 221.584L29.7209 217.035L29.7209 207.938L21.7064 203.389L13.692 207.938L13.692 217.035V217.035Z" stroke="white" stroke-width="0.75" stroke-miterlimit="10"/>
<path opacity="0.5" d="M40.2323 64.3608V64.3448L39.9031 57.1129L45.9465 53.309L45.9602 53.3159L52.3192 56.7531V56.7692L52.6484 64.0011L46.605 67.8049L46.5913 67.7981L40.2323 64.3608ZM39.958 57.1427L40.2849 64.3287L46.6027 67.7431L52.5936 63.9713L52.2666 56.7852L45.9488 53.3709L39.958 57.1427V57.1427Z" stroke="#D1E6E9" stroke-miterlimit="10"/>
<path opacity="0.5" d="M34.5546 75.3164V75.3004L34.2253 68.0684L40.2688 64.2646L40.2825 64.2715L46.6414 67.7087V67.7247L46.9707 74.9566L40.9273 78.7605L40.9136 78.7536L34.5546 75.3164ZM34.2802 68.0982L34.6072 75.2843L40.925 78.6986L46.9158 74.9268L46.5888 67.7408L40.271 64.3265L34.2802 68.0982Z" stroke="#D1E6E9" stroke-miterlimit="10"/>
<path d="M53.8602 185.101L53.8464 185.094L47.5606 181.526V174.375L47.5744 174.368L53.8602 170.8L53.8739 170.807L60.1597 174.375L60.1597 181.526L60.1459 181.533L53.8602 185.101V185.101ZM47.6132 181.494L53.8602 185.039L60.1071 181.494L60.1071 174.404L53.8602 170.86L47.6132 174.404V181.494Z" stroke="#D1E6E9" stroke-miterlimit="10"/>
<path d="M47.5606 174.386L47.5469 174.379L41.2611 170.812V163.66L41.2748 163.653L47.5606 160.085L47.5743 160.092L53.8601 163.66L53.8601 170.812L53.8464 170.818L47.5606 174.386ZM41.3137 170.779L47.5606 174.324L53.8075 170.779L53.8075 163.69L47.5606 160.145L41.3137 163.69V170.779Z" stroke="#D1E6E9" stroke-miterlimit="10"/>
<path d="M60.1072 174.324L60.0935 174.317L53.8077 170.75V163.598L53.8214 163.591L60.1072 160.023L60.1209 160.03L66.4067 163.598V170.75L66.393 170.756L60.1072 174.324ZM53.8603 170.717L60.1072 174.262L66.3541 170.717V163.628L60.1072 160.083L53.8603 163.628V170.717Z" stroke="#D1E6E9" stroke-miterlimit="10"/>
<path d="M72.6536 174.386L72.6399 174.379L66.3541 170.812V163.66L66.3678 163.653L72.6536 160.085L72.6673 160.092L78.9531 163.66V170.812L78.9394 170.818L72.6536 174.386ZM66.4067 170.779L72.6536 174.324L78.9005 170.779V163.69L72.6536 160.145L66.4067 163.69V170.779Z" stroke="#D1E6E9" stroke-miterlimit="10"/>
<path d="M78.9532 163.74L78.9395 163.733L72.6537 160.165V153.014L72.6674 153.007L78.9532 149.439L78.9669 149.446L85.2527 153.014V160.165L85.239 160.172L78.9532 163.74V163.74ZM72.7062 160.133L78.9532 163.678L85.2001 160.133V153.043L78.9532 149.498L72.7062 153.043V160.133Z" stroke="#D1E6E9" stroke-miterlimit="10"/>
<path d="M91.4996 163.74L91.4858 163.733L85.2 160.165V153.014L85.2138 153.007L91.4996 149.439L91.5133 149.446L97.7991 153.014V160.165L97.7854 160.172L91.4996 163.74V163.74ZM85.2526 160.133L91.4996 163.678L97.7465 160.133V153.043L91.4996 149.498L85.2526 153.043V160.133Z" stroke="#D1E6E9" stroke-miterlimit="10"/>
<path opacity="0.6" d="M85.2 174.324L85.1863 174.317L78.9005 170.75V163.598L78.9142 163.591L85.2 160.023L85.2137 160.03L91.4995 163.598V170.75L91.4858 170.756L85.2 174.324ZM78.9531 170.717L85.2 174.262L91.4469 170.717V163.628L85.2 160.083L78.9531 163.628V170.717Z" stroke="#D1E6E9" stroke-miterlimit="10"/>
<path opacity="0.6" d="M78.9805 185.117L78.9668 185.11L72.681 181.542V174.391L72.6947 174.384L78.9805 170.816L78.9942 170.823L85.28 174.391V181.542L85.2663 181.549L78.9805 185.117ZM72.7336 181.51L78.9805 185.055L85.2274 181.51V174.421L78.9805 170.876L72.7336 174.421V181.51Z" stroke="#D1E6E9" stroke-miterlimit="10"/>
<path d="M122.892 153.153L122.878 153.146L116.592 149.579V142.427L116.606 142.42L122.892 138.852L122.906 138.859L129.191 142.427V149.579L129.178 149.585L122.892 153.153ZM116.645 149.547L122.892 153.091L129.139 149.547V142.457L122.892 138.912L116.645 142.457V149.547Z" stroke="#D1E6E9" stroke-miterlimit="10"/>
<path d="M135.438 153.153L135.425 153.146L129.139 149.579V142.427L129.153 142.42L135.438 138.852L135.452 138.859L141.738 142.427V149.579L141.724 149.585L135.438 153.153ZM129.191 149.547L135.438 153.091L141.685 149.547V142.457L135.438 138.912L129.191 142.457V149.547Z" stroke="#D1E6E9" stroke-miterlimit="10"/>
<path d="M147.985 153.153L147.971 153.146L141.685 149.579V142.427L141.699 142.42L147.985 138.852L147.999 138.859L154.284 142.427V149.579L154.271 149.585L147.985 153.153ZM141.738 149.547L147.985 153.091L154.232 149.547V142.457L147.985 138.912L141.738 142.457V149.547Z" stroke="#D1E6E9" stroke-miterlimit="10"/>
<path d="M160.586 153.153L160.572 153.146L154.287 149.579V142.427L154.3 142.42L160.586 138.852L160.6 138.859L166.886 142.427V149.579L166.872 149.585L160.586 153.153V153.153ZM154.339 149.547L160.586 153.091L166.833 149.547V142.457L160.586 138.912L154.339 142.457V149.547Z" stroke="#D1E6E9" stroke-miterlimit="10"/>
<path opacity="0.5" d="M91.5269 185.117L91.5132 185.11L85.2274 181.542V174.391L85.2411 174.384L91.5269 170.816L91.5406 170.823L97.8264 174.391V181.542L97.8127 181.549L91.5269 185.117ZM85.28 181.51L91.5269 185.055L97.7738 181.51V174.421L91.5269 170.876L85.28 174.421V181.51Z" stroke="#D1E6E9" stroke-miterlimit="10"/>
<path opacity="0.5" d="M129.139 163.74L129.125 163.733L122.839 160.165V153.014L122.853 153.007L129.139 149.439L129.153 149.446L135.438 153.014V160.165L135.425 160.172L129.139 163.74V163.74ZM122.892 160.133L129.139 163.678L135.386 160.133V153.043L129.139 149.498L122.892 153.043V160.133Z" stroke="#D1E6E9" stroke-miterlimit="10"/>
<path opacity="0.5" d="M141.738 163.802L141.724 163.795L135.438 160.227V153.075L135.452 153.068L141.738 149.501L141.752 149.508L148.037 153.075V160.227L148.024 160.234L141.738 163.802V163.802ZM135.491 160.195L141.738 163.74L147.985 160.195V153.105L141.738 149.56L135.491 153.105V160.195Z" stroke="#D1E6E9" stroke-miterlimit="10"/>
<path opacity="0.5" d="M154.284 163.802L154.271 163.795L147.985 160.227V153.075L147.999 153.068L154.284 149.501L154.298 149.508L160.584 153.075V160.227L160.57 160.234L154.284 163.802V163.802ZM148.037 160.195L154.284 163.74L160.531 160.195V153.105L154.284 149.56L148.037 153.105V160.195Z" stroke="#D1E6E9" stroke-miterlimit="10"/>
<path opacity="0.6" d="M85.2273 195.704L85.2136 195.697L78.9278 192.129V184.977L78.9416 184.971L85.2273 181.403L85.2411 181.41L91.5269 184.977V192.129L91.5131 192.136L85.2273 195.704ZM78.9804 192.097L85.2273 195.642L91.4743 192.097V185.007L85.2273 181.462L78.9804 185.007V192.097Z" stroke="#D1E6E9" stroke-miterlimit="10"/>
<path opacity="0.6" d="M91.472 206.362L91.4583 206.355L85.1725 202.787V195.635L85.1862 195.628L91.472 192.06L91.4857 192.067L97.7715 195.635V202.787L97.7578 202.794L91.472 206.362ZM85.225 202.755L91.472 206.3L97.7189 202.755V195.665L91.472 192.12L85.225 195.665V202.755Z" stroke="#D1E6E9" stroke-miterlimit="10"/>
<path d="M110.293 153.153L110.279 153.146L103.993 149.579V142.427L104.007 142.42L110.293 138.852L110.306 138.859L116.592 142.427V149.579L116.579 149.585L110.293 153.153ZM104.046 149.547L110.293 153.091L116.54 149.547V142.457L110.293 138.912L104.046 142.457V149.547Z" stroke="#D1E6E9" stroke-miterlimit="10"/>
<path d="M72.4866 153.153L72.4729 153.146L66.1871 149.579V142.427L66.2008 142.42L72.4866 138.852L72.5003 138.859L78.7861 142.427V149.579L78.7724 149.585L72.4866 153.153ZM66.2397 149.547L72.4866 153.091L78.7335 149.547V142.457L72.4866 138.912L66.2397 142.457V149.547Z" stroke="#D1E6E9" stroke-miterlimit="10"/>
<path d="M66.4065 142.53L66.3928 142.523L60.107 138.955V131.804L60.1207 131.797L66.4065 128.229L66.4203 128.236L72.7061 131.804V138.955L72.6923 138.962L66.4065 142.53ZM60.1596 138.923L66.4065 142.468L72.6535 138.923V131.833L66.4065 128.288L60.1596 131.833V138.923Z" stroke="#D1E6E9" stroke-miterlimit="10"/>
<path opacity="0.6" d="M72.7085 131.92L72.6948 131.914L66.409 128.346V121.194L66.4228 121.187L72.7085 117.619L72.7223 117.626L79.0081 121.194V128.346L78.9943 128.353L72.7085 131.92ZM66.4616 128.314L72.7085 131.859L78.9555 128.314V121.224L72.7085 117.679L66.4616 121.224V128.314Z" stroke="#D1E6E9" stroke-miterlimit="10"/>
<path d="M53.8077 142.661L53.7939 142.654L47.5081 139.086V131.934L47.5219 131.927L53.8077 128.36L53.8214 128.366L60.1072 131.934L60.1072 139.086L60.0935 139.093L53.8077 142.661ZM47.5607 139.054L53.8077 142.599L60.0546 139.054L60.0546 131.964L53.8077 128.419L47.5607 131.964V139.054Z" stroke="#D1E6E9" stroke-miterlimit="10"/>
<path opacity="0.6" d="M60.2283 131.92L60.2146 131.914L53.9288 128.346V121.194L53.9425 121.187L60.2283 117.619L60.242 117.626L66.5278 121.194V128.346L66.5141 128.353L60.2283 131.92ZM53.9814 128.314L60.2283 131.859L66.4752 128.314V121.224L60.2283 117.679L53.9814 121.224V128.314Z" stroke="#D1E6E9" stroke-miterlimit="10"/>
<path opacity="0.6" d="M103.991 163.74L103.977 163.733L97.6915 160.165V153.014L97.7052 153.007L103.991 149.439L104.005 149.446L110.291 153.014V160.165L110.277 160.172L103.991 163.74V163.74ZM97.7441 160.133L103.991 163.678L110.238 160.133V153.043L103.991 149.498L97.7441 153.043V160.133Z" stroke="#D1E6E9" stroke-miterlimit="10"/>
<path d="M26.4876 165.575L26.4578 165.559L13.1866 158.027L13.1866 142.929L13.2163 142.913L26.4876 135.381L26.5173 135.397L39.7886 142.929L39.7886 158.027L39.7589 158.043L26.4876 165.575ZM13.3009 157.961L26.4876 165.445L39.6742 157.961L39.6742 142.993L26.4876 135.509L13.3009 142.993L13.3009 157.961V157.961Z" stroke="#A1D8DF" stroke-miterlimit="10"/>
<path d="M39.9028 143.048L39.8731 143.032L26.6018 135.5L26.6018 120.401L26.6316 120.385L39.9028 112.853L39.9326 112.869L53.2039 120.401L53.2039 135.5L53.1741 135.516L39.9028 143.048ZM26.7162 135.433L39.9028 142.917L53.0895 135.433L53.0895 120.465L39.9028 112.981L26.7162 120.465L26.7162 135.433V135.433Z" stroke="#A1D8DF" stroke-miterlimit="10"/>
<path d="M26.7163 120.493L26.6866 120.477L13.4153 112.945L13.4153 97.8462L13.4451 97.8302L26.7163 90.2981L26.7461 90.3141L40.0173 97.8462L40.0173 112.945L39.9876 112.961L26.7163 120.493ZM13.5297 112.878L26.7163 120.362L39.903 112.878L39.903 97.9104L26.7163 90.4264L13.5297 97.9104L13.5297 112.878Z" stroke="#A1D8DF" stroke-miterlimit="10"/>
<path d="M53.0874 165.575L53.0577 165.559L39.7864 158.027L39.7864 142.929L39.8161 142.913L53.0874 135.381L53.1172 135.397L66.3884 142.929L66.3884 158.027L66.3587 158.043L53.0874 165.575ZM39.9008 157.961L53.0874 165.445L66.2741 157.961L66.2741 142.993L53.0874 135.509L39.9008 142.993L39.9008 157.961V157.961Z" stroke="#A1D8DF" stroke-miterlimit="10"/>
<path opacity="0.6" d="M92.876 188.112L92.8463 188.096L79.575 180.564V165.465L79.6047 165.449L92.876 157.917L92.9057 157.933L106.177 165.465L106.177 180.564L106.147 180.58L92.876 188.112ZM79.6893 180.497L92.876 187.981L106.063 180.497L106.063 165.53L92.876 158.046L79.6893 165.53V180.497Z" stroke="#A1D8DF" stroke-miterlimit="10"/>
<path opacity="0.6" d="M52.9729 210.802L52.9432 210.786L39.6719 203.254L39.6719 188.156L39.7016 188.14L52.9729 180.608L53.0026 180.624L66.2739 188.156L66.2739 203.254L66.2442 203.27L52.9729 210.802ZM39.7862 203.188L52.9729 210.672L66.1596 203.188L66.1596 188.22L52.9729 180.736L39.7862 188.22L39.7862 203.188Z" stroke="#A1D8DF" stroke-miterlimit="10"/>
<path d="M23.3321 187.193L23.3184 187.186L17.0326 183.619L17.0326 176.467L17.0463 176.46L23.3321 172.892L23.3458 172.899L29.6316 176.467L29.6316 183.619L29.6179 183.626L23.3321 187.193ZM17.0852 183.587L23.3321 187.131L29.579 183.587L29.579 176.497L23.3321 172.952L17.0852 176.497L17.0852 183.587Z" stroke="white" stroke-miterlimit="10"/>
<path d="M29.5494 197.819L29.5356 197.812L23.2499 194.244L23.2499 187.092L23.2636 187.086L29.5494 183.518L29.5631 183.525L35.8489 187.092L35.8489 194.244L35.8352 194.251L29.5494 197.819ZM23.3024 194.212L29.5494 197.757L35.7963 194.212L35.7963 187.122L29.5494 183.577L23.3024 187.122L23.3024 194.212Z" stroke="white" stroke-miterlimit="10"/>
<path opacity="0.6" d="M42.2056 197.819L42.1919 197.812L35.9061 194.244V187.092L35.9198 187.086L42.2056 183.518L42.2193 183.525L48.5051 187.092L48.5051 194.244L48.4914 194.251L42.2056 197.819ZM35.9587 194.212L42.2056 197.757L48.4525 194.212L48.4525 187.122L42.2056 183.577L35.9587 187.122V194.212Z" stroke="white" stroke-miterlimit="10"/>
<path d="M60.9417 187.193L60.928 187.186L54.6422 183.619V176.467L54.6559 176.46L60.9417 172.892L60.9554 172.899L67.2412 176.467V183.619L67.2275 183.626L60.9417 187.193ZM54.6948 183.587L60.9417 187.131L67.1886 183.587V176.497L60.9417 172.952L54.6948 176.497V183.587Z" stroke="white" stroke-miterlimit="10"/>
<path d="M67.1888 176.554L67.175 176.547L60.8893 172.979V165.828L60.903 165.821L67.1888 162.253L67.2025 162.26L73.4883 165.828V172.979L73.4746 172.986L67.1888 176.554ZM60.9418 172.947L67.1888 176.492L73.4357 172.947V165.857L67.1888 162.312L60.9418 165.857V172.947Z" stroke="white" stroke-miterlimit="10"/>
<path opacity="0.3" d="M73.4881 187.193L73.4744 187.186L67.1886 183.619V176.467L67.2023 176.46L73.4881 172.892L73.5018 172.899L79.7876 176.467V183.619L79.7739 183.626L73.4881 187.193ZM67.2412 183.587L73.4881 187.131L79.735 183.587V176.497L73.4881 172.952L67.2412 176.497V183.587Z" stroke="white" stroke-miterlimit="10"/>
<path opacity="0.5" d="M67.3511 197.819L67.3374 197.812L61.0516 194.244V187.092L61.0653 187.086L67.3511 183.518L67.3648 183.525L73.6506 187.092V194.244L73.6369 194.251L67.3511 197.819ZM61.1042 194.212L67.3511 197.757L73.598 194.212V187.122L67.3511 183.577L61.1042 187.122V194.212Z" stroke="white" stroke-miterlimit="10"/>
<path opacity="0.3" d="M79.9524 197.819L79.9387 197.812L73.6529 194.244V187.092L73.6666 187.086L79.9524 183.518L79.9662 183.525L86.252 187.092V194.244L86.2382 194.251L79.9524 197.819ZM73.7055 194.212L79.9524 197.757L86.1994 194.212V187.122L79.9524 183.577L73.7055 187.122V194.212Z" stroke="white" stroke-miterlimit="10"/>
<path opacity="0.3" d="M48.3428 208.538L48.3291 208.531L42.0433 204.964V197.812L42.057 197.805L48.3428 194.237L48.3565 194.244L54.6423 197.812L54.6423 204.964L54.6286 204.97L48.3428 208.538ZM42.0959 204.932L48.3428 208.476L54.5897 204.932L54.5897 197.842L48.3428 194.297L42.0959 197.842V204.932Z" stroke="white" stroke-miterlimit="10"/>
<path d="M28.7146 163.724L28.7009 163.717L22.4151 160.149L22.4151 152.997L22.4288 152.991L28.7146 149.423L28.7284 149.43L35.0142 152.997L35.0142 160.149L35.0004 160.156L28.7146 163.724ZM22.4677 160.117L28.7146 163.662L34.9616 160.117L34.9616 153.027L28.7146 149.482L22.4677 153.027L22.4677 160.117V160.117Z" stroke="#D1E6E9" stroke-miterlimit="10"/>
<path d="M22.4153 153.153L22.4016 153.146L16.1158 149.579L16.1158 142.427L16.1295 142.42L22.4153 138.852L22.4291 138.859L28.7148 142.427L28.7148 149.579L28.7011 149.585L22.4153 153.153ZM16.1684 149.547L22.4153 153.091L28.6623 149.547L28.6623 142.457L22.4153 138.912L16.1684 142.457L16.1684 149.547Z" stroke="#D1E6E9" stroke-miterlimit="10"/>
<path d="M28.7696 142.53L28.7558 142.523L22.4701 138.955L22.4701 131.804L22.4838 131.797L28.7696 128.229L28.7833 128.236L35.0691 131.804L35.0691 138.955L35.0554 138.962L28.7696 142.53ZM22.5227 138.923L28.7696 142.468L35.0165 138.923L35.0165 131.833L28.7696 128.288L22.5227 131.833L22.5227 138.923Z" stroke="#D1E6E9" stroke-miterlimit="10"/>
<path d="M22.4153 131.92L22.4016 131.914L16.1158 128.346L16.1158 121.194L16.1295 121.187L22.4153 117.619L22.4291 117.626L28.7148 121.194L28.7148 128.346L28.7011 128.353L22.4153 131.92ZM16.1684 128.314L22.4153 131.859L28.6623 128.314L28.6623 121.224L22.4153 117.679L16.1684 121.224L16.1684 128.314Z" stroke="#D1E6E9" stroke-miterlimit="10"/>
<path d="M35.0142 174.421L35.0005 174.414L28.7147 170.846L28.7147 163.694L28.7284 163.687L35.0142 160.12L35.0279 160.126L41.3137 163.694L41.3137 170.846L41.3 170.853L35.0142 174.421ZM28.7673 170.814L35.0142 174.359L41.2611 170.814L41.2611 163.724L35.0142 160.179L28.7673 163.724L28.7673 170.814Z" stroke="#D1E6E9" stroke-miterlimit="10"/>
<path d="M28.7696 185.046L28.7558 185.039L22.4701 181.471L22.4701 174.32L22.4838 174.313L28.7696 170.745L28.7833 170.752L35.0691 174.32L35.0691 181.471L35.0554 181.478L28.7696 185.046ZM22.5227 181.439L28.7696 184.984L35.0165 181.439L35.0165 174.35L28.7696 170.805L22.5227 174.35L22.5227 181.439Z" stroke="#D1E6E9" stroke-miterlimit="10"/>
<path d="M35.0691 195.766L35.0554 195.759L28.7696 192.191L28.7696 185.039L28.7833 185.032L35.0691 181.464L35.0829 181.471L41.3687 185.039L41.3687 192.191L41.3549 192.198L35.0691 195.766ZM28.8222 192.159L35.0691 195.704L41.3161 192.159L41.3161 185.069L35.0691 181.524L28.8222 185.069L28.8222 192.159Z" stroke="#D1E6E9" stroke-miterlimit="10"/>
<path d="M22.5228 195.766L22.509 195.759L16.2232 192.191L16.2232 185.039L16.2369 185.032L22.5228 181.464L22.5365 181.471L28.8223 185.039L28.8223 192.191L28.8085 192.198L22.5228 195.766ZM16.2758 192.159L22.5228 195.704L28.7697 192.159L28.7697 185.069L22.5228 181.524L16.2758 185.069L16.2758 192.159Z" stroke="#D1E6E9" stroke-miterlimit="10"/>
<path d="M28.7696 206.476L28.7558 206.469L22.4701 202.901L22.4701 195.75L22.4838 195.743L28.7696 192.175L28.7833 192.182L35.0691 195.75L35.0691 202.901L35.0554 202.908L28.7696 206.476ZM22.5227 202.869L28.7696 206.414L35.0165 202.869L35.0165 195.779L28.7696 192.235L22.5227 195.779L22.5227 202.869Z" stroke="#D1E6E9" stroke-miterlimit="10"/>
<path d="M39.7864 187.989L39.7567 187.972L26.4854 180.44L26.4854 165.342L26.5151 165.326L39.7864 157.794L39.8161 157.81L53.0874 165.342L53.0874 180.44L53.0577 180.456L39.7864 187.989ZM26.5997 180.374L39.7864 187.858L52.9731 180.374L52.9731 165.406L39.7864 157.922L26.5997 165.406L26.5997 180.374V180.374Z" stroke="#A1D8DF" stroke-miterlimit="10"/>
<path d="M66.354 188.112L66.3243 188.096L53.053 180.564L53.053 165.465L53.0827 165.449L66.354 157.917L66.3837 157.933L79.655 165.465L79.655 180.564L79.6253 180.58L66.354 188.112ZM53.1673 180.497L66.354 187.981L79.5407 180.497L79.5407 165.53L66.354 158.046L53.1673 165.53L53.1673 180.497Z" stroke="#A1D8DF" stroke-miterlimit="10"/>
<path d="M26.4876 210.475L26.4578 210.459L13.1866 202.926L13.1866 187.828L13.2163 187.812L26.4876 180.28L26.5173 180.296L39.7886 187.828L39.7886 202.926L39.7589 202.943L26.4876 210.475ZM13.3009 202.86L26.4876 210.344L39.6742 202.86L39.6742 187.892L26.4876 180.408L13.3009 187.892L13.3009 202.86V202.86Z" stroke="#A1D8DF" stroke-miterlimit="10"/>
<path opacity="0.6" d="M109.189 164.008L100.891 159.299V149.881L109.189 145.172L117.487 149.881V159.299L109.189 164.008V164.008ZM101.174 159.139L109.189 163.687L117.203 159.139V150.041L114.491 148.502L109.189 145.491L101.174 150.039V159.136V159.139Z" stroke="white" stroke-width="0.75" stroke-miterlimit="10"/>
<path opacity="0.6" d="M92.8761 164.008L84.5781 159.299V149.881L92.8761 145.172L101.174 149.881V159.299L92.8761 164.008V164.008ZM84.8616 159.139L92.8761 163.687L100.891 159.139V150.041L98.1787 148.502L92.8761 145.491L84.8616 150.039V159.136V159.139Z" stroke="white" stroke-width="0.75" stroke-miterlimit="10"/>
<path opacity="0.3" d="M101.06 177.888L92.7617 173.179V163.761L101.06 159.052L109.358 163.761V173.179L101.06 177.888ZM93.0452 173.018L101.06 177.567L109.074 173.018V163.921L106.362 162.381L101.06 159.37L93.0452 163.919V173.016V173.018Z" stroke="white" stroke-width="0.75" stroke-miterlimit="10"/>
<path opacity="0.3" d="M84.7084 177.752L76.4104 173.043V163.625L84.7084 158.916L93.0063 163.625V173.043L84.7084 177.752ZM76.6939 172.883L84.7084 177.432L92.7228 172.883V163.786L90.0109 162.246L84.7084 159.235L76.6939 163.784V172.881V172.883Z" stroke="white" stroke-width="0.75" stroke-miterlimit="10"/>
<path opacity="0.3" d="M125.501 164.008L117.203 159.299V149.881L125.501 145.172L133.799 149.881V159.299L125.501 164.008V164.008ZM117.486 159.139L125.501 163.687L133.515 159.139V150.041L130.803 148.502L125.501 145.491L117.486 150.039V159.136V159.139Z" stroke="white" stroke-width="0.75" stroke-miterlimit="10"/>
<path opacity="0.3" d="M141.738 164.008L133.44 159.299V149.881L141.738 145.172L150.036 149.881V159.299L141.738 164.008V164.008ZM133.723 159.139L141.738 163.687L149.752 159.139V150.041L147.04 148.502L141.738 145.491L133.723 150.039V159.136V159.139Z" stroke="white" stroke-width="0.75" stroke-miterlimit="10"/>
<path d="M79.575 165.575L79.5452 165.559L66.274 158.027V142.929L66.3037 142.913L79.575 135.381L79.6047 135.397L92.876 142.929L92.876 158.027L92.8463 158.043L79.575 165.575ZM66.3883 157.961L79.575 165.445L92.7616 157.961L92.7616 142.993L79.575 135.509L66.3883 142.993V157.961V157.961Z" stroke="#A1D8DF" stroke-miterlimit="10"/>
<path opacity="0.6" d="M66.4068 143.048L66.377 143.032L53.1057 135.5L53.1057 120.401L53.1355 120.385L66.4068 112.853L66.4365 112.869L79.7078 120.401L79.7078 135.5L79.678 135.516L66.4068 143.048ZM53.2201 135.433L66.4068 142.917L79.5934 135.433L79.5934 120.465L66.4068 112.981L53.2201 120.465L53.2201 135.433V135.433Z" stroke="#A1D8DF" stroke-miterlimit="10"/>
<path opacity="0.6" d="M106.063 165.575L106.033 165.559L92.7618 158.027V142.929L92.7915 142.913L106.063 135.381L106.092 135.397L119.364 142.929L119.364 158.027L119.334 158.043L106.063 165.575ZM92.8761 157.961L106.063 165.445L119.249 157.961L119.249 142.993L106.063 135.509L92.8761 142.993V157.961V157.961Z" stroke="#A1D8DF" stroke-miterlimit="10"/>
</svg>
