<svg width="168" height="275" viewBox="0 0 168 275" fill="none" xmlns="http://www.w3.org/2000/svg">
<path opacity="0.3" d="M101.249 70.4461L101.219 70.4299L87.8679 62.8426V47.6335L87.8978 47.6173L101.249 40.03L101.278 40.0462L114.629 47.6335V62.8426L114.599 62.8588L101.249 70.4461ZM87.9829 62.7757L101.249 70.3145L114.514 62.7757V47.6981L101.249 40.1593L87.9829 47.6981V62.7757V62.7757Z" stroke="#A1D8DF" stroke-miterlimit="10"/>
<path opacity="0.5" d="M110.68 179.696L110.693 179.703L117.063 183.214L117.155 190.418L117.141 190.425L110.864 194.102L110.85 194.095L104.48 190.584L104.388 183.38L104.402 183.373L110.68 179.696ZM117.01 183.246L110.682 179.759L104.446 183.41L104.538 190.552L110.866 194.04L117.102 190.388L117.01 183.246Z" stroke="white" stroke-width="0.75" stroke-miterlimit="10"/>
<path opacity="0.5" d="M104.17 169.03L104.184 169.037L110.553 172.548L110.645 179.752L110.631 179.759L104.354 183.436L104.34 183.429L97.9707 179.918L97.8787 172.714L97.8925 172.707L104.17 169.03ZM110.5 172.58L104.172 169.092L97.9362 172.744L98.0282 179.886L104.356 183.373L110.592 179.722L110.5 172.58Z" stroke="white" stroke-width="0.75" stroke-miterlimit="10"/>
<path opacity="0.5" d="M125.652 10.9182L125.666 10.9251L131.989 14.5191V21.7232L131.976 21.7301L125.652 25.3241L125.638 25.3172L119.315 21.7232V14.5191L119.329 14.5122L125.652 10.9182V10.9182ZM131.937 14.5514L125.652 10.9805L119.368 14.5514V21.6932L125.652 25.2641L131.937 21.6932V14.5514V14.5514Z" stroke="white" stroke-width="0.75" stroke-miterlimit="10"/>
<path opacity="0.5" d="M132.077 0.0993652L132.091 0.10629L138.414 3.70026V10.9044L138.4 10.9113L132.077 14.5053L132.063 14.4983L125.74 10.9044V3.70257L125.753 3.69565L132.077 0.0993652ZM138.361 3.73258L132.077 0.161688L125.792 3.73258V10.8744L132.077 14.4452L138.361 10.8744V3.73258Z" stroke="white" stroke-width="0.75" stroke-miterlimit="10"/>
<path opacity="0.5" d="M131.934 21.7002L131.948 21.7071L138.271 25.3011V32.5052L138.258 32.5121L131.934 36.1061L131.92 36.0992L125.597 32.5052V25.3011L125.611 25.2942L131.934 21.7002V21.7002ZM138.218 25.3334L131.934 21.7625L125.65 25.3334V32.4752L131.934 36.0461L138.218 32.4752V25.3334Z" stroke="white" stroke-width="0.75" stroke-miterlimit="10"/>
<path opacity="0.5" d="M113.031 10.9805L113.044 10.9874L119.368 14.5814V21.7855L119.354 21.7924L113.031 25.3864L113.017 25.3794L106.693 21.7855V14.5814L106.707 14.5744L113.031 10.9805V10.9805ZM119.315 14.6137L113.031 11.0428L106.746 14.6137V21.7555L113.031 25.3263L119.315 21.7555V14.6137Z" stroke="white" stroke-width="0.75" stroke-miterlimit="10"/>
<path opacity="0.5" d="M103.977 147.381L103.991 147.388L110.36 150.898L110.452 158.103L110.438 158.109L104.161 161.787L104.147 161.78L97.7776 158.269L97.6855 151.065L97.6993 151.058L103.977 147.381ZM110.307 150.931L103.979 147.443L97.7431 151.095L97.8351 158.236L104.163 161.724L110.399 158.073L110.307 150.931Z" stroke="white" stroke-width="0.75" stroke-miterlimit="10"/>
<path opacity="0.5" d="M113.086 32.5005L113.1 32.5074L119.423 36.1014V43.3055L119.409 43.3124L113.086 46.9064L113.072 46.8995L106.749 43.3055V36.1014L106.762 36.0945L113.086 32.5005ZM119.37 36.1337L113.086 32.5628L106.801 36.1337V43.2755L113.086 46.8464L119.37 43.2755V36.1337Z" stroke="white" stroke-width="0.75" stroke-miterlimit="10"/>
<path opacity="0.5" d="M138.329 32.4497L138.343 32.4566L144.666 36.0506V43.2547L144.652 43.2616L138.329 46.8556L138.315 46.8487L131.992 43.2547V36.0506L132.006 36.0437L138.329 32.4497ZM144.613 36.0829L138.329 32.512L132.045 36.0829V43.2247L138.329 46.7956L144.613 43.2247V36.0829Z" stroke="white" stroke-width="0.75" stroke-miterlimit="10"/>
<path opacity="0.5" d="M144.599 43.3125L144.613 43.3194L150.937 46.9134V54.1175L150.923 54.1244L144.599 57.7184L144.586 57.7115L138.262 54.1175V46.9134L138.276 46.9065L144.599 43.3125ZM150.884 46.9457L144.599 43.3748L138.315 46.9457V54.0875L144.599 57.6584L150.884 54.0875V46.9457Z" stroke="white" stroke-width="0.75" stroke-miterlimit="10"/>
<path opacity="0.5" d="M119.441 43.3125L119.455 43.3194L125.778 46.9134V54.1175L125.765 54.1244L119.441 57.7184L119.427 57.7115L113.104 54.1175V46.9134L113.118 46.9065L119.441 43.3125ZM125.726 46.9457L119.441 43.3748L113.157 46.9457V54.0875L119.441 57.6584L125.726 54.0875V46.9457Z" stroke="white" stroke-width="0.75" stroke-miterlimit="10"/>
<path opacity="0.5" d="M113.104 54.1128L113.118 54.1197L119.441 57.7137V64.9178L119.428 64.9247L113.104 68.5187L113.09 68.5118L106.767 64.9178V57.7137L106.781 57.7068L113.104 54.1128V54.1128ZM119.388 57.746L113.104 54.1751L106.82 57.746V64.8878L113.104 68.4587L119.388 64.8878V57.746Z" stroke="white" stroke-width="0.75" stroke-miterlimit="10"/>
<path opacity="0.5" d="M117.116 190.476L117.129 190.483L123.499 193.994L123.591 201.198L123.577 201.205L117.3 204.882L117.286 204.875L110.916 201.364L110.824 194.16L110.838 194.153L117.116 190.476V190.476ZM123.446 194.026L117.118 190.538L110.882 194.19L110.974 201.332L117.302 204.82L123.538 201.168L123.446 194.026Z" stroke="white" stroke-width="0.75" stroke-miterlimit="10"/>
<path opacity="0.5" d="M125.726 54.1289L125.739 54.1358L132.063 57.7298V64.9339L132.049 64.9408L125.726 68.5348L125.712 68.5279L119.388 64.9339V57.7298L119.402 57.7229L125.726 54.1289ZM132.01 57.7621L125.726 54.1912L119.441 57.7621V64.9039L125.726 68.4748L132.01 64.9039V57.7621Z" stroke="white" stroke-width="0.75" stroke-miterlimit="10"/>
<path opacity="0.5" d="M138.317 54.1289L138.331 54.1358L144.654 57.7298V64.9339L144.641 64.9408L138.317 68.5348L138.303 68.5279L131.98 64.9339V57.7298L131.994 57.7229L138.317 54.1289ZM144.602 57.7621L138.317 54.1912L132.033 57.7621V64.9039L138.317 68.4748L144.602 64.9039V57.7621Z" stroke="white" stroke-width="0.75" stroke-miterlimit="10"/>
<path opacity="0.6" d="M107.839 185.142L107.853 185.149L114.222 188.659L114.314 195.864L114.3 195.87L108.023 199.547L108.009 199.541L101.64 196.03L101.548 188.826L101.561 188.819L107.839 185.142ZM114.169 188.692L107.841 185.204L101.605 188.856L101.697 195.997L108.025 199.485L114.261 195.833L114.169 188.692Z" stroke="#D1E6E9" stroke-miterlimit="10"/>
<path d="M120.46 185.019L120.474 185.026L126.844 188.537L126.936 195.741L126.922 195.748L120.644 199.425L120.631 199.418L114.261 195.907L114.169 188.703L114.183 188.696L120.46 185.019V185.019ZM126.791 188.569L120.463 185.082L114.227 188.733L114.319 195.875L120.647 199.363L126.883 195.711L126.791 188.569Z" stroke="#D1E6E9" stroke-miterlimit="10"/>
<path opacity="0.6" d="M101.752 196.09L101.766 196.097L108.135 199.607L108.227 206.812L108.214 206.818L101.936 210.495L101.922 210.489L95.5529 206.978L95.4609 199.774L95.4747 199.767L101.752 196.09ZM108.083 199.64L101.754 196.152L95.5184 199.804L95.6105 206.945L101.938 210.433L108.175 206.781L108.083 199.64Z" stroke="#D1E6E9" stroke-miterlimit="10"/>
<path opacity="0.3" d="M95.6084 207.031L95.6222 207.038L101.992 210.549L102.084 217.753L102.07 217.76L95.7924 221.437L95.7786 221.43L89.4091 217.919L89.3171 210.715L89.3309 210.708L95.6084 207.031ZM101.939 210.581L95.6107 207.093L89.3746 210.745L89.4667 217.887L95.7947 221.374L102.031 217.723L101.939 210.581Z" stroke="#D1E6E9" stroke-miterlimit="10"/>
<path d="M101.361 174.408L101.375 174.415L107.745 177.926L107.837 185.13L107.823 185.137L101.545 188.814L101.532 188.807L95.1621 185.296L95.0701 178.092L95.0839 178.085L101.361 174.408ZM107.692 177.958L101.364 174.471L95.1276 178.122L95.2196 185.264L101.548 188.752L107.784 185.1L107.692 177.958Z" stroke="#D1E6E9" stroke-miterlimit="10"/>
<path d="M126.427 152.579L126.441 152.586L132.81 156.097L132.902 163.301L132.889 163.308L126.611 166.985L126.597 166.978L120.228 163.467L120.136 156.263L120.15 156.256L126.427 152.579ZM132.758 156.129L126.43 152.641L120.193 156.293L120.285 163.435L126.614 166.922L132.85 163.271L132.758 156.129Z" stroke="#D1E6E9" stroke-miterlimit="10"/>
<path d="M114.036 174.242L114.049 174.249L120.419 177.76L120.511 184.964L120.497 184.971L114.22 188.648L114.206 188.641L107.836 185.13L107.744 177.926L107.758 177.919L114.036 174.242V174.242ZM120.366 177.792L114.038 174.304L107.802 177.956L107.894 185.098L114.222 188.586L120.458 184.934L120.366 177.792Z" stroke="#D1E6E9" stroke-miterlimit="10"/>
<path d="M107.616 163.559L107.629 163.566L113.999 167.077L114.091 174.281L114.077 174.288L107.8 177.965L107.786 177.958L101.416 174.447L101.324 167.243L101.338 167.236L107.616 163.559ZM113.946 167.109L107.618 163.622L101.382 167.273L101.474 174.415L107.802 177.903L114.038 174.251L113.946 167.109Z" stroke="#D1E6E9" stroke-miterlimit="10"/>
<path d="M113.705 152.805L113.718 152.812L120.088 156.323L120.18 163.527L120.166 163.534L113.889 167.211L113.875 167.204L107.505 163.693L107.413 156.489L107.427 156.482L113.705 152.805V152.805ZM120.035 156.355L113.707 152.868L107.471 156.519L107.563 163.661L113.891 167.149L120.127 163.497L120.035 156.355Z" stroke="#D1E6E9" stroke-miterlimit="10"/>
<path d="M101.085 152.969L101.099 152.976L107.468 156.487L107.56 163.691L107.547 163.698L101.269 167.375L101.255 167.368L94.886 163.857L94.7939 156.653L94.8077 156.646L101.085 152.969ZM107.416 156.519L101.087 153.031L94.8515 156.683L94.9435 163.825L101.271 167.313L107.508 163.661L107.416 156.519Z" stroke="#D1E6E9" stroke-miterlimit="10"/>
<path opacity="0.6" d="M154.504 252.093L154.474 252.077L141.124 244.489V229.28L141.153 229.264L154.504 221.677L154.534 221.693L167.885 229.28V244.489L167.855 244.506L154.504 252.093ZM141.239 244.422L154.504 251.961L167.77 244.422V229.345L154.504 221.806L141.239 229.345V244.422Z" stroke="#A1D8DF" stroke-miterlimit="10"/>
<path opacity="0.6" d="M128.09 252.123L128.06 252.107L114.71 244.519V229.31L114.74 229.294L128.09 221.707L128.12 221.723L141.471 229.31V244.519L141.441 244.536L128.09 252.123ZM114.825 244.452L128.09 251.991L141.356 244.452V229.375L128.09 221.836L114.825 229.375V244.452Z" stroke="#A1D8DF" stroke-miterlimit="10"/>
<path opacity="0.3" d="M114.901 274.866L114.871 274.85L101.52 267.263V252.054L101.55 252.037L114.901 244.45L114.931 244.466L128.281 252.054V267.263L128.251 267.279L114.901 274.866V274.866ZM101.635 267.196L114.901 274.735L128.166 267.196V252.118L114.901 244.579L101.635 252.118V267.196V267.196Z" stroke="#A1D8DF" stroke-miterlimit="10"/>
<path opacity="0.3" d="M141.471 274.866L141.441 274.85L128.09 267.263V252.054L128.12 252.037L141.471 244.45L141.501 244.466L154.852 252.054V267.263L154.822 267.279L141.471 274.866ZM128.205 267.196L141.471 274.735L154.737 267.196V252.118L141.471 244.579L128.205 252.118V267.196Z" stroke="#A1D8DF" stroke-miterlimit="10"/>
<path opacity="0.3" d="M87.815 184.043L87.7851 184.027L74.4343 176.439V161.23L74.4642 161.214L87.815 153.627L87.8449 153.643L101.196 161.23V176.439L101.166 176.455L87.815 184.043ZM74.5493 176.372L87.815 183.911L101.081 176.372V161.295L87.815 153.756L74.5493 161.295V176.372V176.372Z" stroke="#A1D8DF" stroke-miterlimit="10"/>
<path opacity="0.3" d="M48.0389 161.454L48.009 161.438L34.6582 153.851V138.642L34.6881 138.625L48.0389 131.038L48.0688 131.054L61.4195 138.642V153.851L61.3896 153.867L48.0389 161.454ZM34.7732 153.784L48.0389 161.323L61.3045 153.784V138.706L48.0389 131.167L34.7732 138.706V153.784Z" stroke="#A1D8DF" stroke-miterlimit="10"/>
<path d="M154.387 161.323L154.357 161.306L141.006 153.719V138.51L141.036 138.494L154.387 130.906L154.417 130.923L167.768 138.51V153.719L167.738 153.735L154.387 161.323ZM141.121 153.652L154.387 161.191L167.653 153.652V138.575L154.387 131.036L141.121 138.575V153.652V153.652Z" stroke="#A1D8DF" stroke-miterlimit="10"/>
<path d="M141.124 229.453L141.094 229.437L127.743 221.85V206.641L127.773 206.625L141.124 199.037L141.153 199.053L154.504 206.641V221.85L154.474 221.866L141.124 229.453ZM127.858 221.783L141.124 229.322L154.389 221.783V206.705L141.124 199.167L127.858 206.705V221.783Z" stroke="#A1D8DF" stroke-miterlimit="10"/>
<path d="M154.387 206.722L154.357 206.706L141.006 199.118V183.909L141.036 183.893L154.387 176.306L154.417 176.322L167.768 183.909V199.118L167.738 199.134L154.387 206.722ZM141.121 199.051L154.387 206.59L167.653 199.051V183.974L154.387 176.435L141.121 183.974V199.051V199.051Z" stroke="#A1D8DF" stroke-miterlimit="10"/>
<path d="M145.441 94.8699L153.789 99.6134V109.1L145.441 113.844L137.094 109.1V99.6134L145.441 94.8699ZM153.504 99.7749L145.441 95.193L137.379 99.7749V108.939L145.441 113.521L153.504 108.939V99.7749Z" stroke="white" stroke-width="0.75" stroke-miterlimit="10"/>
<path d="M129.031 94.8699L137.379 99.6134V109.1L129.031 113.844L120.684 109.1V99.6134L129.031 94.8699ZM137.094 99.7749L129.031 95.193L120.969 99.7749V108.939L129.031 113.521L137.094 108.939V99.7749Z" stroke="white" stroke-width="0.75" stroke-miterlimit="10"/>
<path opacity="0.5" d="M146.164 51.4697L154.511 56.2132V65.7002L146.164 70.4437L137.816 65.7002V56.2132L146.164 51.4697ZM154.226 56.3748L146.164 51.7929L138.101 56.3748V65.5386L146.164 70.1205L154.226 65.5386V56.3748V56.3748Z" stroke="white" stroke-width="0.75" stroke-miterlimit="10"/>
<path opacity="0.5" d="M127.527 210.168V210.184L127.858 217.469L121.778 221.301L121.765 221.294L115.368 217.831V217.815L115.036 210.53L121.116 206.698L121.13 206.705L127.527 210.168ZM127.803 217.439L127.474 210.2L121.118 206.761L115.092 210.56L115.421 217.799L121.776 221.238L127.803 217.439V217.439Z" stroke="#D1E6E9" stroke-miterlimit="10"/>
<path opacity="0.5" d="M133.238 199.132V199.148L133.569 206.433L127.49 210.265L127.476 210.258L121.079 206.795V206.779L120.748 199.494L126.827 195.663L126.841 195.67L133.238 199.132ZM133.514 206.403L133.185 199.164L126.83 195.725L120.803 199.524L121.132 206.763L127.488 210.202L133.514 206.403Z" stroke="#D1E6E9" stroke-miterlimit="10"/>
<path d="M113.817 88.543L113.831 88.5499L120.154 92.1439V99.348L120.141 99.3549L113.817 102.949L113.803 102.942L107.48 99.348V92.1439L107.494 92.1369L113.817 88.543V88.543ZM120.102 92.1762L113.817 88.6053L107.533 92.1762V99.318L113.817 102.889L120.102 99.318V92.1762Z" stroke="#D1E6E9" stroke-miterlimit="10"/>
<path d="M120.154 99.3364L120.168 99.3434L126.492 102.937V110.141L126.478 110.148L120.154 113.742L120.141 113.735L113.817 110.141V102.937L113.831 102.93L120.154 99.3364ZM126.439 102.97L120.154 99.3987L113.87 102.97V110.111L120.154 113.682L126.439 110.111V102.97Z" stroke="#D1E6E9" stroke-miterlimit="10"/>
<path d="M107.533 99.3987L107.547 99.4056L113.87 103V110.204L113.856 110.211L107.533 113.805L107.519 113.798L101.196 110.204V103L101.209 102.993L107.533 99.3987ZM113.817 103.032L107.533 99.461L101.248 103.032V110.174L107.533 113.745L113.817 110.174V103.032Z" stroke="#D1E6E9" stroke-miterlimit="10"/>
<path d="M94.9112 99.3364L94.925 99.3434L101.248 102.937V110.141L101.235 110.148L94.9112 113.742L94.8974 113.735L88.574 110.141V102.937L88.5878 102.93L94.9112 99.3364ZM101.196 102.97L94.9112 99.3987L88.6269 102.97V110.111L94.9112 113.682L101.196 110.111V102.97Z" stroke="#D1E6E9" stroke-miterlimit="10"/>
<path d="M88.574 110.061L88.5879 110.067L94.9113 113.661V120.866L94.8975 120.872L88.574 124.466L88.5602 124.46L82.2368 120.866V113.661L82.2506 113.655L88.574 110.061V110.061ZM94.8584 113.694L88.574 110.123L82.2897 113.694V120.836L88.574 124.406L94.8584 120.836V113.694Z" stroke="#D1E6E9" stroke-miterlimit="10"/>
<path d="M75.9525 110.061L75.9663 110.067L82.2897 113.661V120.866L82.2759 120.872L75.9525 124.466L75.9387 124.46L69.6152 120.866V113.661L69.629 113.655L75.9525 110.061V110.061ZM82.2368 113.694L75.9525 110.123L69.6681 113.694V120.836L75.9525 124.406L82.2368 120.836V113.694Z" stroke="#D1E6E9" stroke-miterlimit="10"/>
<path opacity="0.6" d="M82.2896 99.3987L82.3034 99.4056L88.6269 103V110.204L88.6131 110.211L82.2896 113.805L82.2758 113.798L75.9524 110.204V103L75.9662 102.993L82.2896 99.3987ZM88.574 103.032L82.2896 99.461L76.0053 103.032V110.174L82.2896 113.745L88.574 110.174V103.032Z" stroke="#D1E6E9" stroke-miterlimit="10"/>
<path opacity="0.6" d="M88.5465 88.5269L88.5603 88.5338L94.8837 92.1278V99.3319L94.8699 99.3388L88.5465 102.933L88.5327 102.926L82.2092 99.3319V92.1278L82.223 92.1208L88.5465 88.5269ZM94.8308 92.1601L88.5465 88.5892L82.2621 92.1601V99.3019L88.5465 102.873L94.8308 99.3019V92.1601Z" stroke="#D1E6E9" stroke-miterlimit="10"/>
<path d="M44.3721 120.725L44.3859 120.732L50.7094 124.326V131.53L50.6956 131.537L44.3721 135.131L44.3583 135.124L38.0349 131.53V124.326L38.0487 124.319L44.3721 120.725ZM50.6565 124.358L44.3721 120.787L38.0878 124.358V131.5L44.3721 135.071L50.6565 131.5V124.358Z" stroke="#D1E6E9" stroke-miterlimit="10"/>
<path d="M31.7506 120.725L31.7644 120.732L38.0878 124.326V131.53L38.074 131.537L31.7506 135.131L31.7368 135.124L25.4133 131.53V124.326L25.4271 124.319L31.7506 120.725ZM38.0349 124.358L31.7506 120.787L25.4662 124.358V131.5L31.7506 135.071L38.0349 131.5V124.358Z" stroke="#D1E6E9" stroke-miterlimit="10"/>
<path d="M19.129 120.725L19.1428 120.732L25.4662 124.326V131.53L25.4524 131.537L19.129 135.131L19.1152 135.124L12.7917 131.53V124.326L12.8055 124.319L19.129 120.725ZM25.4133 124.358L19.129 120.787L12.8447 124.358V131.5L19.129 135.071L25.4133 131.5V124.358Z" stroke="#D1E6E9" stroke-miterlimit="10"/>
<path d="M6.45223 120.725L6.46603 120.732L12.7895 124.326V131.53L12.7757 131.537L6.45223 135.131L6.43842 135.124L0.11499 131.53V124.326L0.128792 124.319L6.45223 120.725V120.725ZM12.7366 124.358L6.45223 120.787L0.167896 124.358V131.5L6.45223 135.071L12.7366 131.5V124.358Z" stroke="#D1E6E9" stroke-miterlimit="10"/>
<path opacity="0.5" d="M75.9249 88.5269L75.9387 88.5338L82.2621 92.1278V99.3319L82.2483 99.3388L75.9249 102.933L75.9111 102.926L69.5876 99.3319V92.1278L69.6014 92.1208L75.9249 88.5269ZM82.2092 92.1601L75.9249 88.5892L69.6406 92.1601V99.3019L75.9249 102.873L82.2092 99.3019V92.1601Z" stroke="#D1E6E9" stroke-miterlimit="10"/>
<path opacity="0.5" d="M38.0877 110.061L38.1015 110.067L44.425 113.661V120.866L44.4112 120.872L38.0877 124.466L38.0739 124.46L31.7505 120.866V113.661L31.7643 113.655L38.0877 110.061V110.061ZM44.3721 113.694L38.0877 110.123L31.8034 113.694V120.836L38.0877 124.406L44.3721 120.836V113.694Z" stroke="#D1E6E9" stroke-miterlimit="10"/>
<path opacity="0.5" d="M25.4134 109.998L25.4272 110.005L31.7506 113.599V120.803L31.7368 120.81L25.4134 124.404L25.3996 124.397L19.0762 120.803V113.599L19.09 113.592L25.4134 109.998V109.998ZM31.6977 113.632L25.4134 110.061L19.1291 113.632V120.773L25.4134 124.344L31.6977 120.773V113.632Z" stroke="#D1E6E9" stroke-miterlimit="10"/>
<path opacity="0.5" d="M12.7918 109.998L12.8056 110.005L19.1291 113.599V120.803L19.1153 120.81L12.7918 124.404L12.778 124.397L6.45459 120.803V113.599L6.46839 113.592L12.7918 109.998V109.998ZM19.0762 113.632L12.7918 110.061L6.5075 113.632V120.773L12.7918 124.344L19.0762 120.773V113.632Z" stroke="#D1E6E9" stroke-miterlimit="10"/>
<path opacity="0.6" d="M82.262 77.8625L82.2758 77.8695L88.5993 81.4634V88.6675L88.5855 88.6745L82.262 92.2684L82.2482 92.2615L75.9248 88.6675V81.4634L75.9386 81.4565L82.262 77.8625ZM88.5464 81.4958L82.262 77.9249L75.9777 81.4958V88.6375L82.262 92.2084L88.5464 88.6375V81.4958Z" stroke="#D1E6E9" stroke-miterlimit="10"/>
<path opacity="0.6" d="M75.9801 67.1267L75.9939 67.1336L82.3173 70.7276V77.9317L82.3035 77.9386L75.9801 81.5326L75.9663 81.5257L69.6428 77.9317V70.7276L69.6566 70.7207L75.9801 67.1267ZM82.2644 70.7599L75.9801 67.189L69.6957 70.7599V77.9017L75.9801 81.4726L82.2644 77.9017V70.7599Z" stroke="#D1E6E9" stroke-miterlimit="10"/>
<path d="M57.0467 120.725L57.0605 120.732L63.3839 124.326V131.53L63.3701 131.537L57.0467 135.131L57.0329 135.124L50.7095 131.53V124.326L50.7233 124.319L57.0467 120.725ZM63.331 124.358L57.0467 120.787L50.7624 124.358V131.5L57.0467 135.071L63.331 131.5V124.358Z" stroke="#D1E6E9" stroke-miterlimit="10"/>
<path d="M95.0792 120.725L95.093 120.732L101.416 124.326V131.53L101.403 131.537L95.0792 135.131L95.0654 135.124L88.7419 131.53V124.326L88.7557 124.319L95.0792 120.725ZM101.364 124.358L95.0792 120.787L88.7948 124.358V131.5L95.0792 135.071L101.364 131.5V124.358Z" stroke="#D1E6E9" stroke-miterlimit="10"/>
<path d="M101.196 131.426L101.209 131.433L107.533 135.027V142.231L107.519 142.238L101.196 145.832L101.182 145.825L94.8584 142.231V135.027L94.8722 135.02L101.196 131.426ZM107.48 135.059L101.196 131.488L94.9113 135.059V142.201L101.196 145.772L107.48 142.201V135.059Z" stroke="#D1E6E9" stroke-miterlimit="10"/>
<path opacity="0.6" d="M94.856 142.113L94.8698 142.12L101.193 145.714V152.918L101.179 152.925L94.856 156.519L94.8422 156.512L88.5188 152.918V145.714L88.5326 145.707L94.856 142.113ZM101.14 145.746L94.856 142.176L88.5717 145.746V152.888L94.856 156.459L101.14 152.888V145.746Z" stroke="#D1E6E9" stroke-miterlimit="10"/>
<path d="M113.87 131.294L113.884 131.301L120.207 134.895V142.099L120.194 142.106L113.87 145.7L113.856 145.693L107.533 142.099V134.895L107.547 134.888L113.87 131.294ZM120.155 134.928L113.87 131.357L107.586 134.928V142.069L113.87 145.64L120.155 142.069V134.928Z" stroke="#D1E6E9" stroke-miterlimit="10"/>
<path opacity="0.6" d="M107.411 142.113L107.425 142.12L113.748 145.714V152.918L113.734 152.925L107.411 156.519L107.397 156.512L101.074 152.918V145.714L101.088 145.707L107.411 142.113ZM113.695 145.746L107.411 142.176L101.127 145.746V152.888L107.411 156.459L113.695 152.888V145.746Z" stroke="#D1E6E9" stroke-miterlimit="10"/>
<path opacity="0.6" d="M63.3861 110.061L63.3999 110.067L69.7233 113.661V120.866L69.7095 120.872L63.3861 124.466L63.3723 124.46L57.0488 120.866V113.661L57.0626 113.655L63.3861 110.061V110.061ZM69.6704 113.694L63.3861 110.123L57.1017 113.694V120.836L63.3861 124.406L69.6704 120.836V113.694Z" stroke="#D1E6E9" stroke-miterlimit="10"/>
<path d="M141.354 108.212L141.384 108.228L154.734 115.815V131.024L154.705 131.04L141.354 138.628L141.324 138.612L127.973 131.024V115.815L128.003 115.799L141.354 108.212ZM154.619 115.882L141.354 108.343L128.088 115.882V130.96L141.354 138.498L154.619 130.96V115.882V115.882Z" stroke="#A1D8DF" stroke-miterlimit="10"/>
<path d="M127.858 130.904L127.888 130.92L141.239 138.508V153.717L141.209 153.733L127.858 161.32L127.828 161.304L114.477 153.717V138.508L114.507 138.492L127.858 130.904ZM141.124 138.575L127.858 131.036L114.592 138.575V153.652L127.858 161.191L141.124 153.652V138.575V138.575Z" stroke="#A1D8DF" stroke-miterlimit="10"/>
<path d="M141.124 153.625L141.153 153.641L154.504 161.228V176.437L154.474 176.453L141.124 184.041L141.094 184.024L127.743 176.437V161.228L127.773 161.212L141.124 153.625ZM154.389 161.295L141.124 153.756L127.858 161.295V176.372L141.124 183.911L154.389 176.372V161.295Z" stroke="#A1D8DF" stroke-miterlimit="10"/>
<path d="M114.595 108.212L114.625 108.228L127.975 115.815V131.024L127.946 131.04L114.595 138.628L114.565 138.612L101.214 131.024V115.815L101.244 115.799L114.595 108.212ZM127.86 115.882L114.595 108.343L101.329 115.882V130.96L114.595 138.498L127.86 130.96V115.882V115.882Z" stroke="#A1D8DF" stroke-miterlimit="10"/>
<path opacity="0.6" d="M74.5677 85.5098L74.5976 85.5259L87.9483 93.1132V108.322L87.9184 108.339L74.5677 115.926L74.5378 115.91L61.187 108.322V93.1132L61.2169 93.097L74.5677 85.5098ZM87.8333 93.1801L74.5677 85.6413L61.302 93.1801V108.258L74.5677 115.797L87.8333 108.258V93.1801Z" stroke="#A1D8DF" stroke-miterlimit="10"/>
<path opacity="0.6" d="M114.71 62.6533L114.74 62.6695L128.09 70.2568V85.4659L128.06 85.4821L114.71 93.0694L114.68 93.0532L101.329 85.4659V70.2568L101.359 70.2406L114.71 62.6533ZM127.975 70.3237L114.71 62.7849L101.444 70.3237V85.4013L114.71 92.9401L127.975 85.4013V70.3237Z" stroke="#A1D8DF" stroke-miterlimit="10"/>
<path d="M144.528 86.4355L144.542 86.4425L150.865 90.0364V97.2405L150.852 97.2475L144.528 100.841L144.514 100.835L138.191 97.2405V90.0364L138.205 90.0295L144.528 86.4355ZM150.812 90.0688L144.528 86.4979L138.244 90.0688V97.2105L144.528 100.781L150.812 97.2105V90.0688Z" stroke="white" stroke-miterlimit="10"/>
<path d="M138.274 75.7319L138.288 75.7389L144.611 79.3328V86.5369L144.597 86.5439L138.274 90.1378L138.26 90.1309L131.937 86.5369V79.3328L131.95 79.3259L138.274 75.7319ZM144.558 79.3651L138.274 75.7943L131.989 79.3651V86.5069L138.274 90.0778L144.558 86.5069V79.3651Z" stroke="white" stroke-miterlimit="10"/>
<path opacity="0.6" d="M125.542 75.7319L125.555 75.7389L131.879 79.3328V86.5369L131.865 86.5439L125.542 90.1378L125.528 90.1309L119.204 86.5369V79.3328L119.218 79.3259L125.542 75.7319ZM131.826 79.3651L125.542 75.7943L119.257 79.3651V86.5069L125.542 90.0778L131.826 86.5069V79.3651Z" stroke="white" stroke-miterlimit="10"/>
<path d="M106.693 86.4355L106.707 86.4425L113.03 90.0364V97.2405L113.017 97.2475L106.693 100.841L106.679 100.835L100.356 97.2405V90.0364L100.37 90.0295L106.693 86.4355ZM112.978 90.0688L106.693 86.4979L100.409 90.0688V97.2105L106.693 100.781L112.978 97.2105V90.0688Z" stroke="white" stroke-miterlimit="10"/>
<path d="M100.409 97.1528L100.423 97.1598L106.746 100.754V107.958L106.732 107.965L100.409 111.559L100.395 111.552L94.0718 107.958V100.754L94.0856 100.747L100.409 97.1528ZM106.693 100.786L100.409 97.2152L94.1247 100.786V107.928L100.409 111.499L106.693 107.928V100.786Z" stroke="white" stroke-miterlimit="10"/>
<path opacity="0.3" d="M94.0716 86.4355L94.0854 86.4425L100.409 90.0364V97.2405L100.395 97.2475L94.0716 100.841L94.0578 100.835L87.7344 97.2405V90.0364L87.7482 90.0295L94.0716 86.4355ZM100.356 90.0688L94.0716 86.4979L87.7873 90.0688V97.2105L94.0716 100.781L100.356 97.2105V90.0688Z" stroke="white" stroke-miterlimit="10"/>
<path opacity="0.5" d="M100.246 75.7319L100.259 75.7389L106.583 79.3328V86.5369L106.569 86.5439L100.246 90.1378L100.232 90.1309L93.9084 86.5369V79.3328L93.9222 79.3259L100.246 75.7319ZM106.53 79.3651L100.246 75.7943L93.9614 79.3651V86.5069L100.246 90.0778L106.53 86.5069V79.3651Z" stroke="white" stroke-miterlimit="10"/>
<path opacity="0.3" d="M87.5689 75.7319L87.5827 75.7389L93.9062 79.3328V86.5369L93.8924 86.5439L87.5689 90.1378L87.5551 90.1309L81.2317 86.5369V79.3328L81.2455 79.3259L87.5689 75.7319ZM93.8533 79.3651L87.5689 75.7943L81.2846 79.3651V86.5069L87.5689 90.0778L93.8533 86.5069V79.3651Z" stroke="white" stroke-miterlimit="10"/>
<path opacity="0.3" d="M119.368 64.9341L119.382 64.941L125.705 68.535V75.7391L125.691 75.746L119.368 79.34L119.354 79.3331L113.031 75.7391V68.535L113.044 68.5281L119.368 64.9341ZM125.652 68.5673L119.368 64.9964L113.083 68.5673V75.7091L119.368 79.28L125.652 75.7091V68.5673Z" stroke="white" stroke-miterlimit="10"/>
<path d="M139.113 110.077L139.127 110.084L145.45 113.678V120.882L145.437 120.889L139.113 124.483L139.099 124.476L132.776 120.882V113.678L132.79 113.671L139.113 110.077ZM145.397 113.71L139.113 110.139L132.829 113.71V120.852L139.113 124.423L145.397 120.852V113.71V113.71Z" stroke="#D1E6E9" stroke-miterlimit="10"/>
<path d="M145.451 120.725L145.464 120.732L151.788 124.326V131.53L151.774 131.537L145.451 135.131L145.437 135.124L139.113 131.53V124.326L139.127 124.319L145.451 120.725ZM151.735 124.358L145.451 120.787L139.166 124.358V131.5L145.451 135.071L151.735 131.5V124.358Z" stroke="#D1E6E9" stroke-miterlimit="10"/>
<path d="M139.058 131.426L139.072 131.433L145.395 135.027V142.231L145.381 142.238L139.058 145.832L139.044 145.825L132.721 142.231V135.027L132.735 135.02L139.058 131.426ZM145.342 135.059L139.058 131.488L132.774 135.059V142.201L139.058 145.772L145.342 142.201V135.059Z" stroke="#D1E6E9" stroke-miterlimit="10"/>
<path d="M145.451 142.113L145.464 142.12L151.788 145.714V152.918L151.774 152.925L145.451 156.519L145.437 156.512L139.113 152.918V145.714L139.127 145.707L145.451 142.113ZM151.735 145.746L145.451 142.176L139.166 145.746V152.888L145.451 156.459L151.735 152.888V145.746Z" stroke="#D1E6E9" stroke-miterlimit="10"/>
<path d="M132.776 99.3018L132.79 99.3087L139.113 102.903V110.107L139.099 110.114L132.776 113.708L132.762 113.701L126.439 110.107V102.903L126.453 102.896L132.776 99.3018ZM139.06 102.935L132.776 99.3641L126.492 102.935V110.077L132.776 113.648L139.06 110.077V102.935Z" stroke="#D1E6E9" stroke-miterlimit="10"/>
<path d="M139.058 88.5984L139.072 88.6053L145.395 92.1993V99.4034L145.381 99.4103L139.058 103.004L139.044 102.997L132.721 99.4034V92.1993L132.735 92.1924L139.058 88.5984ZM145.342 92.2316L139.058 88.6607L132.774 92.2316V99.3734L139.058 102.944L145.342 99.3734V92.2316Z" stroke="#D1E6E9" stroke-miterlimit="10"/>
<path d="M132.721 77.8003L132.735 77.8072L139.058 81.4012V88.6053L139.044 88.6122L132.721 92.2062L132.707 92.1993L126.384 88.6053V81.4012L126.397 81.3943L132.721 77.8003ZM139.005 81.4335L132.721 77.8626L126.436 81.4335V88.5753L132.721 92.1462L139.005 88.5753V81.4335Z" stroke="#D1E6E9" stroke-miterlimit="10"/>
<path d="M145.342 77.8003L145.356 77.8072L151.68 81.4012V88.6053L151.666 88.6122L145.342 92.2062L145.329 92.1993L139.005 88.6053V81.4012L139.019 81.3943L145.342 77.8003ZM151.627 81.4335L145.342 77.8626L139.058 81.4335V88.5753L145.342 92.1462L151.627 88.5753V81.4335Z" stroke="#D1E6E9" stroke-miterlimit="10"/>
<path d="M139.058 67.0115L139.072 67.0184L145.395 70.6124V77.8165L145.381 77.8234L139.058 81.4174L139.044 81.4104L132.721 77.8165V70.6124L132.735 70.6054L139.058 67.0115ZM145.342 70.6447L139.058 67.0738L132.774 70.6447V77.7865L139.058 81.3574L145.342 77.7865V70.6447Z" stroke="#D1E6E9" stroke-miterlimit="10"/>
<path d="M127.975 85.6345L128.005 85.6507L141.356 93.238V108.447L141.326 108.463L127.975 116.051L127.945 116.034L114.595 108.447V93.238L114.625 93.2218L127.975 85.6345ZM141.241 93.3049L127.975 85.7661L114.71 93.3049V108.382L127.975 115.921L141.241 108.382V93.3049V93.3049Z" stroke="#A1D8DF" stroke-miterlimit="10"/>
<path d="M101.249 85.5098L101.278 85.5259L114.629 93.1132V108.322L114.599 108.339L101.249 115.926L101.219 115.91L87.8679 108.322V93.1132L87.8978 93.097L101.249 85.5098ZM114.514 93.1801L101.249 85.6413L87.9829 93.1801V108.258L101.249 115.797L114.514 108.258V93.1801Z" stroke="#A1D8DF" stroke-miterlimit="10"/>
<path d="M141.354 62.9834L141.384 62.9996L154.734 70.5868V85.796L154.705 85.8122L141.354 93.3994L141.324 93.3833L127.973 85.796V70.5868L128.003 70.5707L141.354 62.9834ZM154.619 70.6538L141.354 63.115L128.088 70.6538V85.7314L141.354 93.2702L154.619 85.7314V70.6538V70.6538Z" stroke="#A1D8DF" stroke-miterlimit="10"/>
<path opacity="0.6" d="M58.1577 109.791L66.5054 114.534V124.021L58.1577 128.764L49.8101 124.021V114.534L58.1577 109.791V109.791ZM66.2202 114.696L58.1577 110.114L50.0953 114.696V123.859L52.8234 125.411L58.1577 128.444L66.2202 123.862V114.698V114.696Z" stroke="white" stroke-width="0.75" stroke-miterlimit="10"/>
<path opacity="0.6" d="M74.5676 109.791L82.9153 114.534V124.021L74.5676 128.764L66.22 124.021V114.534L74.5676 109.791V109.791ZM82.6301 114.696L74.5676 110.114L66.5052 114.696V123.859L69.2333 125.411L74.5676 128.444L82.6301 123.862V114.698V114.696Z" stroke="white" stroke-width="0.75" stroke-miterlimit="10"/>
<path opacity="0.3" d="M66.335 95.8093L74.6826 100.553V110.04L66.335 114.783L57.9873 110.04V100.553L66.335 95.8093ZM74.3974 100.714L66.335 96.1325L58.2725 100.714V109.878L61.0007 111.429L66.335 114.462L74.3974 109.881V100.717V100.714Z" stroke="white" stroke-width="0.75" stroke-miterlimit="10"/>
<path opacity="0.3" d="M82.7842 95.9456L91.1319 100.689V110.176L82.7842 114.92L74.4365 110.176V100.689L82.7842 95.9456ZM90.8466 100.851L82.7842 96.2687L74.7218 100.851V110.014L77.4499 111.566L82.7842 114.599L90.8466 110.017V100.853V100.851Z" stroke="white" stroke-width="0.75" stroke-miterlimit="10"/>
<path opacity="0.3" d="M41.7476 109.791L50.0952 114.534V124.021L41.7476 128.764L33.3999 124.021V114.534L41.7476 109.791V109.791ZM49.81 114.696L41.7476 110.114L33.6851 114.696V123.859L36.4133 125.411L41.7476 128.444L49.81 123.862V114.698V114.696Z" stroke="white" stroke-width="0.75" stroke-miterlimit="10"/>
<path opacity="0.3" d="M25.4133 109.791L33.761 114.534V124.021L25.4133 128.764L17.0657 124.021V114.534L25.4133 109.791V109.791ZM33.4758 114.696L25.4133 110.114L17.3509 114.696V123.859L20.079 125.411L25.4133 128.444L33.4758 123.862V114.698V114.696Z" stroke="white" stroke-width="0.75" stroke-miterlimit="10"/>
<path d="M87.9483 108.212L87.9782 108.228L101.329 115.815V131.024L101.299 131.04L87.9483 138.628L87.9184 138.612L74.5676 131.024V115.815L74.5975 115.799L87.9483 108.212ZM101.214 115.882L87.9483 108.343L74.6826 115.882V130.96L87.9483 138.498L101.214 130.96V115.882V115.882Z" stroke="#A1D8DF" stroke-miterlimit="10"/>
<path opacity="0.6" d="M101.196 130.904L101.225 130.92L114.576 138.508V153.717L114.546 153.733L101.196 161.32L101.166 161.304L87.8149 153.717V138.508L87.8448 138.492L101.196 130.904ZM114.461 138.575L101.196 131.036L87.93 138.575V153.652L101.196 161.191L114.461 153.652V138.575V138.575Z" stroke="#A1D8DF" stroke-miterlimit="10"/>
<path opacity="0.6" d="M61.302 108.212L61.3319 108.228L74.6827 115.815V131.024L74.6528 131.04L61.302 138.628L61.2721 138.612L47.9214 131.024V115.815L47.9513 115.799L61.302 108.212ZM74.5677 115.882L61.302 108.343L48.0364 115.882V130.96L61.302 138.498L74.5677 130.96V115.882V115.882Z" stroke="#A1D8DF" stroke-miterlimit="10"/>
</svg>
