<svg width="615" height="1040" viewBox="0 0 615 1040" fill="none" xmlns="http://www.w3.org/2000/svg">
<g clip-path="url(#clip0_156_894)">
<path d="M165.44 779.55L165.38 779.52L137.89 763.95V732.73L137.95 732.7L165.44 717.13L165.5 717.16L192.99 732.73V763.94L192.93 763.97L165.44 779.54V779.55ZM138.12 763.81L165.44 779.28L192.76 763.81V732.87L165.44 717.4L138.12 732.87V763.81V763.81Z" stroke="#D1E6E9" stroke-miterlimit="10"/>
<path d="M220.31 779.82L220.25 779.79L192.76 764.22V733L192.82 732.97L220.31 717.4L220.37 717.43L247.86 733V764.21L247.8 764.24L220.31 779.81V779.82ZM192.99 764.08L220.31 779.55L247.63 764.08V733.14L220.31 717.67L192.99 733.14V764.08Z" stroke="#D1E6E9" stroke-miterlimit="10"/>
<path d="M275.39 779.82L275.33 779.79L247.84 764.22V733L247.9 732.97L275.39 717.4L275.45 717.43L302.94 733V764.21L302.88 764.24L275.39 779.81V779.82ZM248.07 764.08L275.39 779.55L302.71 764.08V733.14L275.39 717.67L248.07 733.14V764.08Z" stroke="#D1E6E9" stroke-miterlimit="10"/>
<path opacity="0.3" d="M110.329 872.97L110.269 872.94L82.7793 857.37V826.16L82.8393 826.13L110.329 810.56L110.389 810.59L137.879 826.16V857.37L137.819 857.4L110.329 872.97V872.97ZM83.0093 857.23L110.329 872.7L137.649 857.23V826.29L110.329 810.82L83.0093 826.29V857.23Z" stroke="#D1E6E9" stroke-miterlimit="10"/>
<path opacity="0.3" d="M192.699 826.45L192.639 826.42L165.149 810.85V779.64L165.209 779.61L192.699 764.04L192.759 764.07L220.249 779.64V810.85L220.189 810.88L192.699 826.45ZM165.379 810.71L192.699 826.18L220.019 810.71V779.77L192.699 764.3L165.379 779.77V810.71V810.71Z" stroke="#D1E6E9" stroke-miterlimit="10"/>
<path opacity="0.3" d="M302.699 826.45L302.639 826.42L275.149 810.85V779.64L275.209 779.61L302.699 764.04L302.759 764.07L330.249 779.64V810.85L330.189 810.88L302.699 826.45ZM275.379 810.71L302.699 826.18L330.019 810.71V779.77L302.699 764.3L275.379 779.77V810.71V810.71Z" stroke="#D1E6E9" stroke-miterlimit="10"/>
<path opacity="0.3" d="M138.13 919.61L138.07 919.58L110.58 904.01V872.8L110.64 872.77L138.13 857.2L138.19 857.23L165.68 872.8V904.01L165.62 904.04L138.13 919.61ZM110.81 903.87L138.13 919.34L165.45 903.87V872.93L138.13 857.46L110.81 872.93V903.87Z" stroke="#D1E6E9" stroke-miterlimit="10"/>
<path opacity="0.3" d="M137.89 826.32L137.83 826.29L110.34 810.72V779.51L110.4 779.48L137.89 763.91L137.95 763.94L165.44 779.51V810.72L165.38 810.75L137.89 826.32ZM110.57 810.58L137.89 826.05L165.21 810.58V779.65L137.89 764.18L110.57 779.65V810.59V810.58Z" stroke="#D1E6E9" stroke-miterlimit="10"/>
<path opacity="0.6" d="M82.7795 919.61L82.7195 919.58L55.2295 904.01V872.8L55.2895 872.77L82.7795 857.2L82.8395 857.23L110.329 872.8V904.01L110.269 904.04L82.7795 919.61ZM55.4595 903.87L82.7795 919.34L110.099 903.87V872.93L82.7795 857.46L55.4595 872.93V903.87V903.87Z" stroke="#D1E6E9" stroke-miterlimit="10"/>
<path d="M55.6994 872.97L55.6394 872.94L28.1494 857.37V826.16L28.2094 826.13L55.6994 810.56L55.7594 810.59L83.2494 826.16V857.37L83.1894 857.4L55.6994 872.97V872.97ZM28.3794 857.23L55.6994 872.7L83.0194 857.23V826.29L55.6994 810.82L28.3794 826.29V857.23V857.23Z" stroke="#D1E6E9" stroke-miterlimit="10"/>
<path d="M110.329 779.55L110.269 779.52L82.7793 763.95V732.73L82.8393 732.7L110.329 717.13L110.389 717.16L137.879 732.73V763.94L137.819 763.97L110.329 779.54V779.55ZM83.0093 763.81L110.329 779.28L137.649 763.81V732.87L110.329 717.4L83.0093 732.87V763.81V763.81Z" stroke="#D1E6E9" stroke-miterlimit="10"/>
<path d="M83.26 826.45L83.2 826.42L55.71 810.85V779.64L55.77 779.61L83.26 764.04L83.32 764.07L110.81 779.64V810.85L110.75 810.88L83.26 826.45ZM55.94 810.71L83.26 826.18L110.58 810.71V779.77L83.26 764.3L55.94 779.77V810.71V810.71Z" stroke="#D1E6E9" stroke-miterlimit="10"/>
<path d="M55.6994 779.82L55.6394 779.79L28.1494 764.21V733L28.2094 732.97L55.6994 717.4L55.7594 717.43L83.2494 733V764.21L83.1894 764.24L55.6994 779.81V779.82ZM28.3894 764.08L55.7094 779.55L83.0294 764.08V733.14L55.7094 717.67L28.3894 733.14V764.08Z" stroke="#D1E6E9" stroke-miterlimit="10"/>
<path d="M28.1496 826.45L28.0896 826.42L0.599609 810.85V779.64L0.65961 779.61L28.1496 764.03L28.2096 764.06L55.6996 779.63V810.84L55.6396 810.87L28.1496 826.44V826.45ZM0.829609 810.71L28.1496 826.18L55.4696 810.71V779.77L28.1496 764.3L0.829609 779.77V810.71V810.71Z" stroke="#D1E6E9" stroke-miterlimit="10"/>
<path d="M0.599804 872.97L0.539804 872.94L-26.9502 857.37V826.16L-26.8902 826.13L0.599804 810.56L0.659805 810.59L28.1498 826.16V857.37L28.0898 857.4L0.599804 872.97V872.97ZM-26.7202 857.23L0.599804 872.7L27.9198 857.23V826.29L0.599804 810.82L-26.7202 826.29V857.23Z" stroke="#D1E6E9" stroke-miterlimit="10"/>
<path d="M134.529 844.45L134.399 844.38L76.3594 811.51V745.62L76.4894 745.55L134.529 712.68L134.659 712.75L192.699 745.62V811.51L192.569 811.58L134.529 844.45V844.45ZM76.8594 811.22L134.529 843.88L192.199 811.22V745.9L134.529 713.24L76.8694 745.9V811.22H76.8594Z" stroke="#A1D8DF" stroke-miterlimit="10"/>
<path d="M75.8299 942.33L75.6999 942.26L17.6699 909.38V843.5L17.7999 843.43L75.8399 810.56L75.9699 810.63L134.01 843.5V909.39L133.88 909.46L75.8399 942.33H75.8299ZM18.1699 909.1L75.8399 941.76L133.51 909.1V843.78L75.8399 811.12L18.1699 843.78V909.1V909.1Z" stroke="#A1D8DF" stroke-miterlimit="10"/>
<path d="M250.369 844.45L250.239 844.38L192.199 811.51V745.62L192.329 745.55L250.369 712.68L250.499 712.75L308.539 745.62V811.51L308.409 811.58L250.369 844.45ZM192.699 811.22L250.369 843.88L308.039 811.22V745.9L250.369 713.24L192.699 745.9V811.22V811.22Z" stroke="#A1D8DF" stroke-miterlimit="10"/>
<path opacity="0.6" d="M366.21 844.45L366.08 844.38L308.04 811.51V745.62L308.17 745.55L366.21 712.68L366.34 712.75L424.37 745.62V811.51L424.24 811.58L366.2 844.45H366.21ZM308.54 811.22L366.21 843.88L423.88 811.22V745.9L366.21 713.24L308.54 745.9V811.22V811.22Z" stroke="#A1D8DF" stroke-miterlimit="10"/>
<path opacity="0.6" d="M192.199 942.33L192.069 942.26L134.029 909.39V843.5L134.159 843.43L192.199 810.56L192.329 810.63L250.369 843.5V909.39L250.239 909.46L192.199 942.33ZM134.529 909.1L192.199 941.76L249.869 909.1V843.78L192.199 811.12L134.529 843.78V909.1V909.1Z" stroke="#A1D8DF" stroke-miterlimit="10"/>
<path opacity="0.3" d="M482.04 844.45L481.91 844.38L423.87 811.51V745.62L424 745.55L482.04 712.68L482.17 712.75L540.21 745.62V811.51L540.08 811.58L482.04 844.45V844.45ZM424.37 811.22L482.04 843.88L539.71 811.22V745.9L482.04 713.24L424.37 745.9V811.22V811.22Z" stroke="#A1D8DF" stroke-miterlimit="10"/>
<path opacity="0.3" d="M133.5 1040.12L133.37 1040.05L75.3301 1007.18V941.29L75.4601 941.22L133.5 908.35L133.63 908.42L191.67 941.29V1007.18L191.54 1007.25L133.5 1040.12V1040.12ZM75.8301 1006.89L133.5 1039.55L191.17 1006.89V941.57L133.5 908.91L75.8301 941.57V1006.89Z" stroke="#A1D8DF" stroke-miterlimit="10"/>
<path d="M166.319 762.2L130.029 741.65V700.54L166.319 679.99L202.609 700.54V741.65L166.319 762.2V762.2ZM131.269 740.94L166.319 760.79L201.369 740.94V701.24L166.319 681.39L131.269 701.24V740.94V740.94Z" stroke="white" stroke-width="0.75" stroke-miterlimit="10"/>
<path d="M94.9795 762.78L58.6895 742.23V701.12L94.9795 680.57L131.269 701.12V742.23L94.9795 762.78ZM59.9295 741.52L94.9795 761.38L130.029 741.52V701.82L94.9795 681.97L59.9295 701.82V741.52V741.52Z" stroke="white" stroke-width="0.75" stroke-miterlimit="10"/>
<path d="M23.6396 762.78L-12.6504 742.23V701.12L23.6396 680.57L59.9296 701.12V742.23L23.6396 762.78ZM-11.4104 741.52L23.6396 761.38L58.6896 741.52V701.82L23.6396 681.97L-11.4104 701.82V741.52Z" stroke="white" stroke-width="0.75" stroke-miterlimit="10"/>
<path d="M237.66 762.2L201.37 741.65V700.54L237.66 679.99L273.95 700.54V741.65L237.66 762.2V762.2ZM202.61 740.95L237.66 760.8L272.71 740.95V701.24L237.66 681.39L202.61 701.24V740.94V740.95Z" stroke="white" stroke-width="0.75" stroke-miterlimit="10"/>
<path opacity="0.5" d="M309 761.54L272.71 740.99V699.88L309 679.33L345.29 699.88V740.99L309 761.54V761.54ZM273.95 740.29L309 760.14L344.05 740.29V700.58L309 680.73L273.95 700.58V740.29Z" stroke="white" stroke-width="0.75" stroke-miterlimit="10"/>
<path opacity="0.5" d="M143.049 535L142.989 534.97L115.499 519.4V488.19L115.559 488.16L143.049 472.59L143.109 472.62L170.599 488.19V519.4L170.539 519.43L143.049 535ZM115.729 519.26L143.049 534.73L170.369 519.26V488.32L143.049 472.85L115.729 488.32V519.26Z" stroke="white" stroke-width="0.75" stroke-miterlimit="10"/>
<path opacity="0.3" d="M198.089 535L198.029 534.97L170.539 519.4V488.19L170.599 488.16L198.089 472.59L198.149 472.62L225.639 488.19V519.4L225.579 519.43L198.089 535ZM170.769 519.26L198.089 534.73L225.409 519.26V488.32L198.089 472.85L170.769 488.32V519.26Z" stroke="white" stroke-width="0.75" stroke-miterlimit="10"/>
<path opacity="0.5" d="M88.3086 535L88.2486 534.97L60.7588 519.4V488.19L60.8188 488.16L88.3086 472.59L88.3686 472.62L115.858 488.19V519.4L115.798 519.43L88.3086 535ZM60.9888 519.26L88.3086 534.73L115.628 519.26V488.32L88.3086 472.85L60.9888 488.32V519.26V519.26Z" stroke="white" stroke-width="0.75" stroke-miterlimit="10"/>
<path opacity="0.5" d="M33.4395 535L33.3795 534.97L5.88965 519.4V488.19L5.94965 488.16L33.4395 472.59L33.4995 472.62L60.9893 488.19V519.4L60.9293 519.43L33.4395 535V535ZM6.11965 519.26L33.4395 534.73L60.7593 519.26V488.32L33.4395 472.85L6.11965 488.32V519.26V519.26Z" stroke="white" stroke-width="0.75" stroke-miterlimit="10"/>
<path opacity="0.5" d="M60.749 488.36L60.689 488.33L33.1992 472.76V441.55L33.2592 441.52L60.749 425.95L60.809 425.98L88.2989 441.55V472.76L88.2388 472.79L60.749 488.36ZM33.4292 472.62L60.749 488.09L88.0688 472.62V441.68L60.749 426.21L33.4292 441.68V472.62V472.62Z" stroke="white" stroke-width="0.75" stroke-miterlimit="10"/>
<path opacity="0.5" d="M5.88966 488.36L5.82966 488.33L-21.6602 472.76V441.55L-21.6002 441.52L5.88966 425.95L5.94965 425.98L33.4395 441.55V472.76L33.3795 472.79L5.88966 488.36ZM-21.4302 472.62L5.88966 488.09L33.2095 472.62V441.68L5.88966 426.21L-21.4302 441.68V472.62Z" stroke="white" stroke-width="0.75" stroke-miterlimit="10"/>
<path opacity="0.5" d="M33.4395 441.94L33.3795 441.91L5.88965 426.34V395.13L5.94965 395.1L33.4395 379.53L33.4995 379.56L60.9893 395.13V426.34L60.9293 426.37L33.4395 441.94V441.94ZM6.11965 426.2L33.4395 441.67L60.7593 426.2V395.26L33.4395 379.79L6.11965 395.26V426.2V426.2Z" stroke="white" stroke-width="0.75" stroke-miterlimit="10"/>
<path opacity="0.5" d="M5.88966 395.63L5.82966 395.6L-21.6602 380.03V348.82L-21.6002 348.79L5.88966 333.22L5.94965 333.25L33.4395 348.82V380.03L33.3795 380.06L5.88966 395.63ZM-21.4302 379.89L5.88966 395.36L33.2095 379.89V348.95L5.88966 333.48L-21.4302 348.95V379.89Z" stroke="white" stroke-width="0.75" stroke-miterlimit="10"/>
<path opacity="0.5" d="M60.749 581.57L60.689 581.54L33.1992 565.97V534.76L33.2592 534.73L60.749 519.16L60.809 519.19L88.2989 534.76V565.97L88.2388 566L60.749 581.57ZM33.4292 565.83L60.749 581.3L88.0688 565.83V534.89L60.749 519.42L33.4292 534.89V565.83V565.83Z" stroke="white" stroke-width="0.75" stroke-miterlimit="10"/>
<path d="M83.0195 546.93L82.9595 546.9L55.4697 531.33V500.12L55.5297 500.09L83.0195 484.52L83.0795 484.55L110.569 500.12V531.33L110.509 531.36L83.0195 546.93ZM55.6997 531.19L83.0195 546.66L110.339 531.19V500.25L83.0195 484.78L55.6997 500.25V531.19Z" stroke="#D1E6E9" stroke-miterlimit="10"/>
<path d="M55.4697 500.37L55.4097 500.34L27.9199 484.77V453.56L27.9799 453.53L55.4697 437.96L55.5297 437.99L83.0195 453.56V484.77L82.9595 484.8L55.4697 500.37ZM28.1499 484.63L55.4697 500.1L82.7896 484.63V453.69L55.4697 438.22L28.1499 453.69V484.63V484.63Z" stroke="#D1E6E9" stroke-miterlimit="10"/>
<path opacity="0.6" d="M110.569 593.43L110.509 593.4L83.0195 577.83V546.62L83.0795 546.59L110.569 531.02L110.629 531.05L138.119 546.62V577.83L138.059 577.86L110.569 593.43V593.43ZM83.2495 577.69L110.569 593.16L137.889 577.69V546.75L110.569 531.28L83.2495 546.75V577.69Z" stroke="#D1E6E9" stroke-miterlimit="10"/>
<path d="M138.129 639.71L138.069 639.68L110.579 624.11V592.9L110.639 592.87L138.129 577.3L138.189 577.33L165.679 592.9V624.11L165.619 624.14L138.129 639.71ZM110.809 623.97L138.129 639.44L165.449 623.97V593.03L138.129 577.56L110.809 593.03V623.97Z" stroke="#D1E6E9" stroke-miterlimit="10"/>
<path opacity="0.6" d="M192.759 639.98L192.699 639.95L165.209 624.38V593.17L165.269 593.14L192.759 577.57L192.819 577.6L220.309 593.17V624.38L220.249 624.41L192.759 639.98ZM165.439 624.24L192.759 639.71L220.079 624.24V593.3L192.759 577.83L165.439 593.3V624.24Z" stroke="#D1E6E9" stroke-miterlimit="10"/>
<path opacity="0.5" d="M220.519 593.43L220.459 593.4L192.969 577.83V546.62L193.029 546.59L220.519 531.02L220.579 531.05L248.068 546.62V577.83L248.008 577.86L220.519 593.43ZM193.199 577.69L220.519 593.16L247.838 577.69V546.75L220.519 531.28L193.199 546.75V577.69Z" stroke="#D1E6E9" stroke-miterlimit="10"/>
<path opacity="0.5" d="M275.388 593.43L275.328 593.4L247.838 577.83V546.62L247.898 546.59L275.388 531.02L275.448 531.05L302.938 546.62V577.83L302.878 577.86L275.388 593.43ZM248.068 577.69L275.388 593.16L302.708 577.69V546.75L275.388 531.28L248.068 546.75V577.69Z" stroke="#D1E6E9" stroke-miterlimit="10"/>
<path d="M83.0195 639.98L82.9595 639.95L55.4697 624.38V593.17L55.5297 593.14L83.0195 577.57L83.0795 577.6L110.569 593.17V624.38L110.509 624.41L83.0195 639.98ZM55.6997 624.24L83.0195 639.71L110.339 624.24V593.3L83.0195 577.83L55.6997 593.3V624.24Z" stroke="#D1E6E9" stroke-miterlimit="10"/>
<path d="M55.6992 593.43L55.6392 593.4L28.1494 577.83V546.62L28.2094 546.59L55.6992 531.02L55.7592 531.05L83.249 546.62V577.83L83.189 577.86L55.6992 593.43ZM28.3794 577.69L55.6992 593.16L83.019 577.69V546.75L55.6992 531.28L28.3794 546.75V577.69V577.69Z" stroke="#D1E6E9" stroke-miterlimit="10"/>
<path d="M27.9092 639.98L27.8492 639.95L0.359375 624.38V593.17L0.419374 593.14L27.9092 577.57L27.9692 577.6L55.459 593.17V624.38L55.399 624.41L27.9092 639.98ZM0.589373 624.24L27.9092 639.71L55.229 624.24V593.3L27.9092 577.83L0.589373 593.3V624.24V624.24Z" stroke="#D1E6E9" stroke-miterlimit="10"/>
<path d="M55.4697 686.67L55.4097 686.64L27.9199 671.07V639.86L27.9799 639.83L55.4697 624.26L55.5297 624.29L83.0195 639.86V671.07L82.9595 671.1L55.4697 686.67ZM28.1499 670.93L55.4697 686.4L82.7896 670.93V639.99L55.4697 624.52L28.1499 639.99V670.93V670.93Z" stroke="#D1E6E9" stroke-miterlimit="10"/>
<path d="M110.329 686.67L110.269 686.64L82.7793 671.07V639.86L82.8393 639.83L110.329 624.26L110.389 624.29L137.879 639.86V671.07L137.819 671.1L110.329 686.67ZM83.0093 670.93L110.329 686.4L137.649 670.93V639.99L110.329 624.52L83.0093 639.99V670.93Z" stroke="#D1E6E9" stroke-miterlimit="10"/>
<path d="M82.7793 733.03L82.7193 733L55.2295 717.43V686.22L55.2895 686.19L82.7793 670.62L82.8393 670.65L110.329 686.22V717.43L110.269 717.46L82.7793 733.03ZM55.4595 717.29L82.7793 732.76L110.099 717.29V686.35L82.7793 670.88L55.4595 686.35V717.29V717.29Z" stroke="#D1E6E9" stroke-miterlimit="10"/>
<path d="M137.889 733.03L137.829 733L110.339 717.43V686.22L110.399 686.19L137.889 670.62L137.949 670.65L165.438 686.22V717.43L165.379 717.46L137.889 733.03ZM110.569 717.29L137.889 732.76L165.209 717.29V686.35L137.889 670.88L110.569 686.35V717.29Z" stroke="#D1E6E9" stroke-miterlimit="10"/>
<path d="M165.438 779.55L165.378 779.52L137.889 763.95V732.74L137.949 732.71L165.438 717.14L165.498 717.17L192.988 732.74V763.95L192.928 763.98L165.438 779.55ZM138.119 763.81L165.438 779.28L192.758 763.81V732.87L165.438 717.4L138.119 732.87V763.81Z" stroke="#D1E6E9" stroke-miterlimit="10"/>
<path d="M220.309 779.82L220.249 779.79L192.759 764.22V733.01L192.819 732.98L220.309 717.41L220.369 717.44L247.858 733.01V764.22L247.798 764.25L220.309 779.82ZM192.989 764.08L220.309 779.55L247.628 764.08V733.14L220.309 717.67L192.989 733.14V764.08Z" stroke="#D1E6E9" stroke-miterlimit="10"/>
<path d="M275.388 779.82L275.328 779.79L247.838 764.22V733.01L247.898 732.98L275.388 717.41L275.448 717.44L302.938 733.01V764.22L302.878 764.25L275.388 779.82ZM248.068 764.08L275.388 779.55L302.708 764.08V733.14L275.388 717.67L248.068 733.14V764.08Z" stroke="#D1E6E9" stroke-miterlimit="10"/>
<path opacity="0.6" d="M302.697 733.19L302.637 733.16L275.147 717.59V686.38L275.207 686.35L302.697 670.78L302.757 670.81L330.247 686.38V717.59L330.187 717.62L302.697 733.19ZM275.377 717.45L302.697 732.92L330.017 717.45V686.51L302.697 671.04L275.377 686.51V717.45Z" stroke="#D1E6E9" stroke-miterlimit="10"/>
<path opacity="0.5" d="M357.567 733.19L357.507 733.16L330.018 717.59V686.38L330.078 686.35L357.567 670.78L357.627 670.81L385.117 686.38V717.59L385.057 717.62L357.567 733.19ZM330.248 717.45L357.567 732.92L384.887 717.45V686.51L357.567 671.04L330.248 686.51V717.45Z" stroke="#D1E6E9" stroke-miterlimit="10"/>
<path opacity="0.6" d="M192.759 733.03L192.699 733L165.209 717.43V686.22L165.269 686.19L192.759 670.62L192.819 670.65L220.309 686.22V717.43L220.249 717.46L192.759 733.03ZM165.439 717.29L192.759 732.76L220.079 717.29V686.35L192.759 670.88L165.439 686.35V717.29Z" stroke="#D1E6E9" stroke-miterlimit="10"/>
<path d="M28.1494 733.03L28.0894 733L0.599609 717.43V686.22L0.659609 686.19L28.1494 670.62L28.2094 670.65L55.6992 686.22V717.43L55.6392 717.46L28.1494 733.03ZM0.829607 717.29L28.1494 732.76L55.4692 717.29V686.35L28.1494 670.88L0.829607 686.35V717.29V717.29Z" stroke="#D1E6E9" stroke-miterlimit="10"/>
<path d="M110.329 779.55L110.269 779.52L82.7793 763.95V732.74L82.8393 732.71L110.329 717.14L110.389 717.17L137.879 732.74V763.95L137.819 763.98L110.329 779.55ZM83.0093 763.81L110.329 779.28L137.649 763.81V732.87L110.329 717.4L83.0093 732.87V763.81Z" stroke="#D1E6E9" stroke-miterlimit="10"/>
<path d="M55.6992 779.82L55.6392 779.79L28.1494 764.22V733.01L28.2094 732.98L55.6992 717.41L55.7592 717.44L83.249 733.01V764.22L83.189 764.25L55.6992 779.82ZM28.3794 764.08L55.6992 779.55L83.019 764.08V733.14L55.6992 717.67L28.3794 733.14V764.08V764.08Z" stroke="#D1E6E9" stroke-miterlimit="10"/>
<path d="M76.3395 745.88L76.2095 745.81L18.1699 712.94V647.05L18.2999 646.98L76.3395 614.11L76.4695 614.18L134.509 647.05V712.94L134.379 713.01L76.3395 745.88V745.88ZM18.6699 712.65L76.3395 745.31L134.009 712.65V647.33L76.3395 614.67L18.6699 647.33V712.65V712.65Z" stroke="#A1D8DF" stroke-miterlimit="10"/>
<path d="M18.1696 647.38L18.0396 647.31L-40 614.44V548.55L-39.87 548.48L18.1696 515.61L18.2996 515.68L76.3392 548.55V614.44L76.2092 614.51L18.1696 647.38V647.38ZM-39.5 614.15L18.1696 646.81L75.8392 614.15V548.83L18.1696 516.17L-39.5 548.83V614.15V614.15Z" stroke="#A1D8DF" stroke-miterlimit="10"/>
<path opacity="0.6" d="M76.3395 548.9L76.2095 548.83L18.1699 515.96V450.07L18.2999 450L76.3395 417.13L76.4695 417.2L134.509 450.07V515.96L134.379 516.03L76.3395 548.9V548.9ZM18.6699 515.67L76.3395 548.33L134.009 515.67V450.35L76.3395 417.69L18.6699 450.35V515.67V515.67Z" stroke="#A1D8DF" stroke-miterlimit="10"/>
<path d="M134.529 844.45L134.399 844.38L76.3594 811.51V745.62L76.4894 745.55L134.529 712.68L134.659 712.75L192.699 745.62V811.51L192.569 811.58L134.529 844.45V844.45ZM76.8594 811.22L134.529 843.88L192.199 811.22V745.9L134.529 713.24L76.8594 745.9V811.22V811.22Z" stroke="#A1D8DF" stroke-miterlimit="10"/>
<path d="M250.368 844.45L250.238 844.38L192.198 811.51V745.62L192.328 745.55L250.368 712.68L250.498 712.75L308.537 745.62V811.51L308.407 811.58L250.368 844.45ZM192.698 811.22L250.368 843.88L308.037 811.22V745.9L250.368 713.24L192.698 745.9V811.22V811.22Z" stroke="#A1D8DF" stroke-miterlimit="10"/>
<path opacity="0.6" d="M366.207 844.45L366.077 844.38L308.037 811.51V745.62L308.167 745.55L366.207 712.68L366.337 712.75L424.376 745.62V811.51L424.246 811.58L366.207 844.45ZM308.537 811.22L366.207 843.88L423.876 811.22V745.9L366.207 713.24L308.537 745.9V811.22V811.22Z" stroke="#A1D8DF" stroke-miterlimit="10"/>
<path opacity="0.3" d="M482.036 844.45L481.906 844.38L423.866 811.51V745.62L423.996 745.55L482.036 712.68L482.166 712.75L540.205 745.62V811.51L540.075 811.58L482.036 844.45V844.45ZM424.366 811.22L482.036 843.88L539.705 811.22V745.9L482.036 713.24L424.366 745.9V811.22V811.22Z" stroke="#A1D8DF" stroke-miterlimit="10"/>
<path opacity="0.3" d="M192.199 548.9L192.069 548.83L134.029 515.96V450.07L134.159 450L192.199 417.13L192.329 417.2L250.368 450.07V515.96L250.238 516.03L192.199 548.9V548.9ZM134.529 515.67L192.199 548.33L249.868 515.67V450.35L192.199 417.69L134.529 450.35V515.67V515.67Z" stroke="#A1D8DF" stroke-miterlimit="10"/>
<path opacity="0.3" d="M18.6696 450.54L18.5396 450.47L-39.5 417.6V351.71L-39.37 351.64L18.6696 318.77L18.7996 318.84L76.8392 351.71V417.6L76.7092 417.67L18.6696 450.54V450.54ZM-39 417.31L18.6696 449.97L76.3392 417.31V351.99L18.6696 319.33L-39 351.99V417.31V417.31Z" stroke="#A1D8DF" stroke-miterlimit="10"/>
<path opacity="0.5" d="M115.798 581.5L115.738 581.47L88.3086 565.94V534.8L88.3686 534.77L115.798 519.24L115.858 519.27L143.288 534.8V565.94L143.228 565.97L115.798 581.5ZM88.5486 565.8L115.798 581.23L143.048 565.8V534.93L115.798 519.5L88.5486 534.93V565.8Z" stroke="white" stroke-width="0.75" stroke-miterlimit="10"/>
<path opacity="0.5" d="M88.5494 628.21L88.4894 628.18L61.0596 612.65V581.51L61.1196 581.48L88.5494 565.95L88.6094 565.98L116.039 581.51V612.65L115.979 612.68L88.5494 628.21ZM61.2996 612.51L88.5494 627.94L115.799 612.51V581.64L88.5494 566.21L61.2996 581.64V612.51Z" stroke="white" stroke-width="0.75" stroke-miterlimit="10"/>
<path opacity="0.5" d="M61.2896 674.82L61.2296 674.79L33.7998 659.26V628.12L33.8598 628.09L61.2896 612.56L61.3496 612.59L88.7795 628.12V659.26L88.7195 659.29L61.2896 674.82V674.82ZM34.0398 659.12L61.2896 674.55L88.5395 659.12V628.25L61.2896 612.82L34.0398 628.25V659.12V659.12Z" stroke="white" stroke-width="0.75" stroke-miterlimit="10"/>
<path opacity="0.5" d="M34.0396 628.21L33.9796 628.18L6.5498 612.65V581.51L6.6098 581.48L34.0396 565.95L34.0996 565.98L61.5295 581.51V612.65L61.4695 612.68L34.0396 628.21ZM6.7898 612.51L34.0396 627.94L61.2895 612.51V581.64L34.0396 566.21L6.7898 581.64V612.51Z" stroke="white" stroke-width="0.75" stroke-miterlimit="10"/>
<path opacity="0.5" d="M170.598 674.82L170.538 674.79L143.108 659.26V628.12L143.168 628.09L170.598 612.56L170.658 612.59L198.088 628.12V659.26L198.028 659.29L170.598 674.82ZM143.348 659.12L170.598 674.55L197.848 659.12V628.25L170.598 612.82L143.348 628.25V659.12Z" stroke="white" stroke-width="0.75" stroke-miterlimit="10"/>
<path opacity="0.5" d="M116.469 674.63L116.409 674.6L88.9795 659.07V627.93L89.0395 627.9L116.469 612.37L116.529 612.4L143.959 627.93V659.07L143.899 659.1L116.469 674.63V674.63ZM89.2195 658.93L116.469 674.36L143.719 658.93V628.06L116.469 612.63L89.2195 628.06V658.93V658.93Z" stroke="white" stroke-width="0.75" stroke-miterlimit="10"/>
<path opacity="0.5" d="M143.718 628.21L143.658 628.18L116.229 612.65V581.51L116.289 581.48L143.718 565.95L143.778 565.98L171.208 581.51V612.65L171.148 612.68L143.718 628.21ZM116.469 612.51L143.718 627.94L170.968 612.51V581.64L143.718 566.21L116.469 581.64V612.51Z" stroke="white" stroke-width="0.75" stroke-miterlimit="10"/>
<path opacity="0.3" d="M198.888 628.21L198.828 628.18L171.398 612.65V581.51L171.458 581.48L198.888 565.95L198.948 565.98L226.378 581.51V612.65L226.318 612.68L198.888 628.21ZM171.638 612.51L198.888 627.94L226.138 612.51V581.64L198.888 566.21L171.638 581.64V612.51Z" stroke="white" stroke-width="0.75" stroke-miterlimit="10"/>
<path d="M58.6892 701.98L22.3994 681.43V640.33L58.6892 619.78L94.9789 640.33V681.43L58.6892 701.98V701.98ZM23.6394 680.73L58.6892 700.58L93.739 680.73V641.03L58.6892 621.18L23.6394 641.03V680.73Z" stroke="white" stroke-width="0.75" stroke-miterlimit="10"/>
<path opacity="0.5" d="M165.728 641.23L129.438 620.68V579.58L165.728 559.03L202.018 579.58V620.68L165.728 641.23ZM130.678 619.98L165.728 639.83L200.778 619.98V580.28L165.728 560.43L130.678 580.28V619.98V619.98Z" stroke="white" stroke-width="0.75" stroke-miterlimit="10"/>
<path opacity="0.5" d="M201.368 701.98L165.078 681.43V640.33L201.368 619.78L237.658 640.33V681.43L201.368 701.98ZM166.318 680.73L201.368 700.58L236.418 680.73V641.03L201.368 621.18L166.318 641.03V680.73Z" stroke="white" stroke-width="0.75" stroke-miterlimit="10"/>
<path opacity="0.5" d="M272.718 701.38L236.429 680.83V639.73L272.718 619.18L309.008 639.73V680.83L272.718 701.38ZM237.669 680.13L272.718 699.98L307.768 680.13V640.43L272.718 620.58L237.669 640.43V680.13Z" stroke="white" stroke-width="0.75" stroke-miterlimit="10"/>
<path d="M166.319 762.2L130.029 741.65V700.55L166.319 680L202.609 700.55V741.65L166.319 762.2ZM131.269 740.95L166.319 760.8L201.369 740.95V701.25L166.319 681.4L131.269 701.25V740.95Z" stroke="white" stroke-width="0.75" stroke-miterlimit="10"/>
<path d="M94.9792 762.78L58.6895 742.23V701.13L94.9792 680.58L131.269 701.13V742.23L94.9792 762.78ZM59.9294 741.53L94.9792 761.38L130.029 741.53V701.83L94.9792 681.98L59.9294 701.83V741.53Z" stroke="white" stroke-width="0.75" stroke-miterlimit="10"/>
<path d="M23.6394 762.78L-12.6504 742.23V701.13L23.6394 680.58L59.9291 701.13V742.23L23.6394 762.78ZM-11.4104 741.53L23.6394 761.38L58.6891 741.53V701.83L23.6394 681.98L-11.4104 701.83V741.53Z" stroke="white" stroke-width="0.75" stroke-miterlimit="10"/>
<path opacity="0.6" d="M130.029 701.98L93.7393 681.43V640.33L130.029 619.78L166.319 640.33V681.43L130.029 701.98V701.98ZM94.9792 680.73L130.029 700.58L165.079 680.73V641.03L130.029 621.18L94.9792 641.03V680.73Z" stroke="white" stroke-width="0.75" stroke-miterlimit="10"/>
<path d="M237.658 762.2L201.368 741.65V700.55L237.658 680L273.948 700.55V741.65L237.658 762.2ZM202.608 740.95L237.658 760.8L272.708 740.95V701.25L237.658 681.4L202.608 701.25V740.95Z" stroke="white" stroke-width="0.75" stroke-miterlimit="10"/>
<path opacity="0.5" d="M308.998 761.54L272.708 740.99V699.89L308.998 679.34L345.288 699.89V740.99L308.998 761.54ZM273.948 740.29L308.998 760.14L344.048 740.29V700.59L308.998 680.74L273.948 700.59V740.29Z" stroke="white" stroke-width="0.75" stroke-miterlimit="10"/>
<path opacity="0.3" d="M344.057 700.42L307.768 679.87V638.77L344.057 618.22L380.347 638.77V679.87L344.057 700.42ZM309.008 679.17L344.057 699.02L379.107 679.17V639.47L344.057 619.62L309.008 639.47V679.17Z" stroke="white" stroke-width="0.75" stroke-miterlimit="10"/>
<path opacity="0.5" d="M130.149 580.57L93.8594 560.02V518.92L130.149 498.37L166.439 518.92V560.02L130.149 580.57V580.57ZM95.0994 559.32L130.149 579.17L165.199 559.32V519.62L130.149 499.77L95.0994 519.62V559.32Z" stroke="white" stroke-width="0.75" stroke-miterlimit="10"/>
<path opacity="0.5" d="M55.1394 437.93V437.86L54.1094 406.28L80.7492 390.02L80.8092 390.05L108.419 405.41V405.48L109.449 437.06L82.8092 453.32L82.7492 453.29L55.1394 437.93ZM54.3494 406.41L55.3694 437.78L82.7992 453.04L109.209 436.92L108.189 405.55L80.7592 390.29L54.3494 406.41V406.41Z" stroke="#D1E6E9" stroke-miterlimit="10"/>
<path opacity="0.5" d="M109.069 436.5V436.43L108.039 404.85L134.679 388.59L134.739 388.62L162.349 403.98V404.05L163.379 435.63L136.739 451.89L136.679 451.86L109.069 436.5ZM108.279 404.98L109.299 436.35L136.729 451.61L163.139 435.49L162.119 404.12L134.689 388.86L108.279 404.98V404.98Z" stroke="#D1E6E9" stroke-miterlimit="10"/>
<path opacity="0.5" d="M134.709 388.83V388.76L133.679 357.18L160.319 340.92L160.379 340.95L187.988 356.31V356.38L189.018 387.96L162.379 404.22L162.319 404.19L134.709 388.83V388.83ZM133.919 357.31L134.939 388.68L162.369 403.94L188.778 387.82L187.758 356.45L160.329 341.19L133.919 357.31V357.31Z" stroke="#D1E6E9" stroke-miterlimit="10"/>
<path opacity="0.5" d="M214.128 256.64L214.188 256.67L241.678 272.24V303.45L241.618 303.48L214.128 319.05L214.068 319.02L186.578 303.45V272.24L186.638 272.21L214.128 256.64V256.64ZM241.448 272.38L214.128 256.91L186.808 272.38V303.32L214.128 318.79L241.448 303.32V272.38Z" stroke="white" stroke-width="0.75" stroke-miterlimit="10"/>
<path opacity="0.3" d="M268.868 256.64L268.928 256.67L296.418 272.24V303.45L296.358 303.48L268.868 319.05L268.808 319.02L241.318 303.45V272.24L241.378 272.21L268.868 256.64V256.64ZM296.188 272.38L268.868 256.91L241.548 272.38V303.32L268.868 318.79L296.188 303.32V272.38Z" stroke="white" stroke-width="0.75" stroke-miterlimit="10"/>
<path opacity="0.5" d="M77.0791 116.22L77.1391 116.25L104.629 131.82V163.03L104.569 163.06L77.0791 178.63L77.0191 178.6L49.5293 163.03V131.82L49.5893 131.79L77.0791 116.22V116.22ZM104.399 131.96L77.0791 116.49L49.7593 131.96V162.9L77.0791 178.37L104.399 162.9V131.96Z" stroke="white" stroke-width="0.75" stroke-miterlimit="10"/>
<path opacity="0.5" d="M49.3897 69.6499L49.4497 69.6799L76.9395 85.2499V116.46L76.8795 116.49L49.3897 132.06L49.3297 132.03L21.8398 116.46V85.2499L21.8998 85.2199L49.3897 69.6499V69.6499ZM76.7095 85.3899L49.3897 69.9199L22.0698 85.3899V116.33L49.3897 131.8L76.7095 116.33V85.3899Z" stroke="white" stroke-width="0.75" stroke-miterlimit="10"/>
<path opacity="0.5" d="M76.709 22.9399L76.769 22.9699L104.259 38.5399V69.7499L104.199 69.7799L76.709 85.3499L76.649 85.3199L49.1592 69.7499V38.5499L49.2192 38.5199L76.709 22.9499V22.9399ZM104.029 38.6799L76.709 23.2099L49.3892 38.6799V69.6199L76.709 85.0899L104.029 69.6199V38.6799Z" stroke="white" stroke-width="0.75" stroke-miterlimit="10"/>
<path opacity="0.5" d="M104.639 -23.9299L104.699 -23.8999L132.188 -8.32993V22.8901L132.128 22.9201L104.639 38.4901L104.579 38.4601L77.0889 22.8901V-8.31993L77.1489 -8.34993L104.639 -23.9199V-23.9299ZM131.958 -8.18993L104.639 -23.6599L77.3189 -8.18993V22.7501L104.639 38.2201L131.958 22.7501V-8.18993Z" stroke="white" stroke-width="0.75" stroke-miterlimit="10"/>
<path opacity="0.5" d="M104.019 69.6499L104.079 69.6799L131.568 85.2499V116.46L131.508 116.49L104.019 132.06L103.959 132.03L76.4688 116.46V85.2499L76.5287 85.2199L104.019 69.6499V69.6499ZM131.338 85.3899L104.019 69.9199L76.6987 85.3899V116.33L104.019 131.8L131.338 116.33V85.3899Z" stroke="white" stroke-width="0.75" stroke-miterlimit="10"/>
<path opacity="0.5" d="M21.8399 23.21L21.8999 23.24L49.3897 38.81V70.02L49.3297 70.05L21.8399 85.62L21.7799 85.59L-5.70996 70.02V38.82L-5.64996 38.79L21.8399 23.21ZM49.1597 38.95L21.8399 23.48L-5.47996 38.95V69.89L21.8399 85.36L49.1597 69.89V38.95V38.95Z" stroke="white" stroke-width="0.75" stroke-miterlimit="10"/>
<path opacity="0.5" d="M49.7698 -24.1399L49.8298 -24.1099L77.3196 -8.53989V22.6701L77.2596 22.7001L49.7698 38.2701L49.7098 38.2401L22.21 22.6701V-8.53989L22.27 -8.56989L49.7598 -24.1399H49.7698ZM77.0896 -8.39989L49.7698 -23.8699L22.45 -8.39989V22.5301L49.7698 38.0001L77.0896 22.5301V-8.39989V-8.39989Z" stroke="white" stroke-width="0.75" stroke-miterlimit="10"/>
<path opacity="0.5" d="M22.0693 116.44L22.1293 116.47L49.6192 132.04V163.25L49.5592 163.28L22.0693 178.85L22.0093 178.82L-5.48047 163.25V132.04L-5.42047 132.01L22.0693 116.44V116.44ZM49.3892 132.18L22.0693 116.71L-5.25047 132.18V163.12L22.0693 178.59L49.3892 163.12V132.18Z" stroke="white" stroke-width="0.75" stroke-miterlimit="10"/>
<path opacity="0.5" d="M131.818 116.22L131.878 116.25L159.368 131.82V163.03L159.308 163.06L131.818 178.63L131.758 178.6L104.269 163.03V131.82L104.329 131.79L131.818 116.22V116.22ZM159.138 131.96L131.818 116.49L104.499 131.96V162.9L131.818 178.37L159.138 162.9V131.96Z" stroke="white" stroke-width="0.75" stroke-miterlimit="10"/>
<path opacity="0.5" d="M159.079 163.28L159.139 163.31L186.629 178.88V210.09L186.569 210.12L159.079 225.69L159.019 225.66L131.529 210.09V178.88L131.589 178.85L159.079 163.28ZM186.399 179.02L159.079 163.55L131.759 179.02V209.96L159.079 225.43L186.399 209.96V179.02Z" stroke="white" stroke-width="0.75" stroke-miterlimit="10"/>
<path opacity="0.5" d="M213.948 163.28L214.008 163.31L241.498 178.88V210.09L241.438 210.12L213.948 225.69L213.888 225.66L186.398 210.09V178.88L186.458 178.85L213.948 163.28ZM241.268 179.02L213.948 163.55L186.628 179.02V209.96L213.948 225.43L241.268 209.96V179.02Z" stroke="white" stroke-width="0.75" stroke-miterlimit="10"/>
<path opacity="0.5" d="M49.709 163.28L49.769 163.31L77.2588 178.88V210.09L77.1988 210.12L49.709 225.69L49.649 225.66L22.1592 210.09V178.88L22.2192 178.85L49.709 163.28V163.28ZM77.0288 179.02L49.709 163.55L22.3892 179.02V209.96L49.709 225.43L77.0288 209.96V179.02Z" stroke="white" stroke-width="0.75" stroke-miterlimit="10"/>
<path opacity="0.5" d="M22.1592 210.07L22.2192 210.1L49.709 225.67V256.88L49.649 256.91L22.1592 272.48L22.0992 272.45L-5.39062 256.88V225.67L-5.33063 225.64L22.1592 210.07V210.07ZM49.479 225.81L22.1592 210.34L-5.16063 225.81V256.75L22.1592 272.22L49.479 256.75V225.81V225.81Z" stroke="white" stroke-width="0.75" stroke-miterlimit="10"/>
<path opacity="0.5" d="M104.449 163.28L104.509 163.31L131.999 178.88V210.09L131.939 210.12L104.449 225.69L104.389 225.66L76.8994 210.09V178.88L76.9594 178.85L104.449 163.28ZM131.769 179.02L104.449 163.55L77.1294 179.02V209.96L104.449 225.43L131.769 209.96V179.02Z" stroke="white" stroke-width="0.75" stroke-miterlimit="10"/>
<path opacity="0.5" d="M77.0293 210.14L77.0893 210.17L104.579 225.74V256.95L104.519 256.98L77.0293 272.55L76.9693 272.52L49.4795 256.95V225.74L49.5395 225.71L77.0293 210.14V210.14ZM104.349 225.88L77.0293 210.41L49.7095 225.88V256.82L77.0293 272.29L104.349 256.82V225.88V225.88Z" stroke="white" stroke-width="0.75" stroke-miterlimit="10"/>
<path opacity="0.5" d="M131.769 210.14L131.829 210.17L159.318 225.74V256.95L159.258 256.98L131.769 272.55L131.709 272.52L104.219 256.95V225.74L104.279 225.71L131.769 210.14V210.14ZM159.088 225.88L131.769 210.41L104.449 225.88V256.82L131.769 272.29L159.088 256.82V225.88V225.88Z" stroke="white" stroke-width="0.75" stroke-miterlimit="10"/>
<path d="M284.348 232.52L284.408 232.55L311.897 248.12V279.33L311.837 279.36L284.348 294.93L284.288 294.9L256.798 279.33V248.12L256.858 248.09L284.348 232.52ZM311.667 248.26L284.348 232.79L257.028 248.26V279.2L284.348 294.67L311.667 279.2V248.26Z" stroke="#D1E6E9" stroke-miterlimit="10"/>
<path d="M64.4297 139.65L64.4897 139.68L91.9795 155.25V186.46L91.9195 186.49L64.4297 202.06L64.3697 202.03L36.8799 186.46V155.25L36.9399 155.22L64.4297 139.65V139.65ZM91.7495 155.39L64.4297 139.92L37.1099 155.39V186.33L64.4297 201.8L91.7495 186.33V155.39Z" stroke="#D1E6E9" stroke-miterlimit="10"/>
<path d="M119.299 139.83L119.359 139.86L146.849 155.43V186.64L146.789 186.67L119.299 202.24L119.239 202.21L91.749 186.64V155.43L91.809 155.4L119.299 139.83V139.83ZM146.619 155.57L119.299 140.1L91.979 155.57V186.51L119.299 201.98L146.619 186.51V155.57Z" stroke="#D1E6E9" stroke-miterlimit="10"/>
<path d="M37.3506 186.73L37.4106 186.76L64.9004 202.33V233.54L64.8404 233.57L37.3506 249.14L37.2906 249.11L9.80078 233.55V202.34L9.86078 202.31L37.3506 186.74V186.73ZM64.6704 202.47L37.3506 187L10.0408 202.47V233.41L37.3606 248.88L64.6804 233.41V202.47H64.6704Z" stroke="#D1E6E9" stroke-miterlimit="10"/>
<path d="M10.04 233.78L10.1 233.81L37.5899 249.38V280.59L37.5299 280.62L10.04 296.2L9.98005 296.17L-17.5098 280.6V249.39L-17.4498 249.36L10.04 233.78ZM37.3599 249.52L10.04 234.05L-17.2798 249.52V280.46L10.04 295.93L37.3599 280.46V249.52Z" stroke="#D1E6E9" stroke-miterlimit="10"/>
<path opacity="0.6" d="M256.798 186.02L256.858 186.05L284.348 201.62V232.83L284.288 232.86L256.798 248.43L256.738 248.4L229.248 232.83V201.62L229.308 201.59L256.798 186.02V186.02ZM284.118 201.76L256.798 186.29L229.478 201.76V232.7L256.798 248.17L284.118 232.7V201.76Z" stroke="#D1E6E9" stroke-miterlimit="10"/>
<path d="M229.238 139.74L229.298 139.77L256.788 155.34V186.55L256.728 186.58L229.238 202.15L229.178 202.12L201.688 186.55V155.34L201.748 155.31L229.238 139.74ZM256.558 155.48L229.238 140.01L201.918 155.48V186.42L229.238 201.89L256.558 186.42V155.48Z" stroke="#D1E6E9" stroke-miterlimit="10"/>
<path opacity="0.6" d="M338.978 232.52L339.038 232.55L366.527 248.12V279.33L366.467 279.36L338.978 294.93L338.918 294.9L311.428 279.33V248.12L311.488 248.09L338.978 232.52ZM366.297 248.26L338.978 232.79L311.658 248.26V279.2L338.978 294.67L366.297 279.2V248.26Z" stroke="#D1E6E9" stroke-miterlimit="10"/>
<path opacity="0.5" d="M366.298 279.26L366.358 279.29L393.848 294.86V326.07L393.788 326.1L366.298 341.67L366.238 341.64L338.748 326.07V294.86L338.808 294.83L366.298 279.26ZM393.618 295L366.298 279.53L338.978 295V325.94L366.298 341.41L393.618 325.94V295Z" stroke="#D1E6E9" stroke-miterlimit="10"/>
<path opacity="0.5" d="M338.737 326.18L338.797 326.21L366.287 341.78V372.99L366.227 373.02L338.737 388.59L338.677 388.56L311.188 372.99V341.78L311.247 341.75L338.737 326.18ZM366.057 341.92L338.737 326.45L311.418 341.92V372.86L338.737 388.33L366.057 372.86V341.92Z" stroke="#D1E6E9" stroke-miterlimit="10"/>
<path d="M284.348 139.47L284.408 139.5L311.897 155.07V186.28L311.837 186.31L284.348 201.88L284.288 201.85L256.798 186.28V155.07L256.858 155.04L284.348 139.47V139.47ZM311.667 155.21L284.348 139.74L257.028 155.21V186.15L284.348 201.62L311.667 186.15V155.21Z" stroke="#D1E6E9" stroke-miterlimit="10"/>
<path opacity="0.6" d="M311.668 186.02L311.728 186.05L339.218 201.62V232.83L339.158 232.86L311.668 248.43L311.608 248.4L284.118 232.83V201.62L284.178 201.59L311.668 186.02ZM338.988 201.76L311.668 186.29L284.348 201.76V232.7L311.668 248.17L338.988 232.7V201.76Z" stroke="#D1E6E9" stroke-miterlimit="10"/>
<path d="M36.8791 92.79L36.9391 92.82L64.4289 108.39V139.6L64.3689 139.63L36.8791 155.2L36.8191 155.17L9.31934 139.6V108.39L9.37934 108.36L36.8691 92.79H36.8791ZM64.1989 108.53L36.8791 93.06L9.55933 108.52V139.46L36.8791 154.93L64.1989 139.46V108.52V108.53Z" stroke="#D1E6E9" stroke-miterlimit="10"/>
<path d="M311.897 92.79L311.957 92.82L339.447 108.39V139.6L339.387 139.63L311.897 155.2L311.837 155.17L284.348 139.6V108.39L284.408 108.36L311.897 92.79V92.79ZM339.217 108.53L311.897 93.06L284.578 108.53V139.47L311.897 154.94L339.217 139.47V108.53Z" stroke="#D1E6E9" stroke-miterlimit="10"/>
<path d="M257.038 92.79L257.098 92.82L284.588 108.39V139.6L284.528 139.63L257.038 155.2L256.978 155.17L229.488 139.6V108.39L229.548 108.36L257.038 92.79V92.79ZM284.358 108.53L257.038 93.06L229.718 108.53V139.47L257.038 154.94L284.358 139.47V108.53Z" stroke="#D1E6E9" stroke-miterlimit="10"/>
<path d="M284.588 46.4199L284.648 46.4499L312.138 62.0199V93.2299L312.078 93.2599L284.588 108.83L284.528 108.8L257.038 93.2299V62.0199L257.098 61.9899L284.588 46.4199V46.4199ZM311.908 62.1599L284.588 46.6899L257.268 62.1599V93.0999L284.588 108.57L311.908 93.0999V62.1599Z" stroke="#D1E6E9" stroke-miterlimit="10"/>
<path d="M229.479 46.4199L229.539 46.4499L257.028 62.0199V93.2299L256.968 93.2599L229.479 108.83L229.419 108.8L201.929 93.2299V62.0199L201.989 61.9899L229.479 46.4199V46.4199ZM256.798 62.1599L229.479 46.6899L202.159 62.1599V93.0999L229.479 108.57L256.798 93.0999V62.1599Z" stroke="#D1E6E9" stroke-miterlimit="10"/>
<path d="M201.929 92.79L201.989 92.82L229.479 108.39V139.6L229.419 139.63L201.929 155.2L201.869 155.17L174.379 139.6V108.39L174.439 108.36L201.929 92.79V92.79ZM229.249 108.53L201.929 93.06L174.609 108.53V139.47L201.929 154.94L229.249 139.47V108.53Z" stroke="#D1E6E9" stroke-miterlimit="10"/>
<path d="M201.929 -0.100098L201.989 -0.0700979L229.479 15.5099V46.7199L229.419 46.7499L201.929 62.3199L201.869 62.2899L174.379 46.7199V15.5099L174.439 15.4799L201.929 -0.0900974V-0.100098ZM229.239 15.6399L201.919 0.169902L174.609 15.6399V46.5799L201.929 62.0499L229.249 46.5799V15.6399H229.239Z" stroke="#D1E6E9" stroke-miterlimit="10"/>
<path d="M476.506 -0.100098L476.566 -0.0700979L504.056 15.5099V46.7199L503.996 46.7499L476.506 62.3199L476.446 62.2899L448.956 46.7199V15.5099L449.016 15.4799L476.506 -0.0900974V-0.100098ZM503.826 15.6399L476.506 0.169902L449.196 15.6399V46.5799L476.516 62.0499L503.836 46.5799V15.6399H503.826Z" stroke="#D1E6E9" stroke-miterlimit="10"/>
<path d="M531.376 -0.100098L531.436 -0.0700979L558.926 15.5099V46.7199L558.866 46.7499L531.376 62.3199L531.316 62.2899L503.826 46.7199V15.5099L503.886 15.4799L531.376 -0.0900974V-0.100098ZM558.686 15.6399L531.366 0.169902L504.056 15.6399V46.5799L531.376 62.0499L558.696 46.5799V15.6399H558.686Z" stroke="#D1E6E9" stroke-miterlimit="10"/>
<path d="M147.059 -0.369873L147.119 -0.339872L174.608 15.2401V46.4501L174.548 46.4801L147.059 62.0501L146.999 62.0201L119.509 46.4501V15.2401L119.569 15.2101L147.059 -0.359873V-0.369873ZM174.378 15.3701L147.059 -0.0998726L119.739 15.3701V46.3101L147.059 61.7801L174.378 46.3101V15.3701V15.3701Z" stroke="#D1E6E9" stroke-miterlimit="10"/>
<path opacity="0.6" d="M366.527 186.02L366.587 186.05L394.077 201.62V232.83L394.017 232.86L366.527 248.43L366.467 248.4L338.978 232.83V201.62L339.038 201.59L366.527 186.02ZM393.847 201.76L366.527 186.29L339.208 201.76V232.7L366.527 248.17L393.847 232.7V201.76Z" stroke="#D1E6E9" stroke-miterlimit="10"/>
<path opacity="0.6" d="M366.527 92.79L366.587 92.82L394.077 108.39V139.6L394.017 139.63L366.527 155.2L366.467 155.17L338.978 139.6V108.39L339.038 108.36L366.527 92.79V92.79ZM393.847 108.53L366.527 93.06L339.208 108.53V139.47L366.527 154.94L393.847 139.47V108.53Z" stroke="#D1E6E9" stroke-miterlimit="10"/>
<path opacity="0.5" d="M394.087 46.4199L394.147 46.4499L421.637 62.0199V93.2299L421.577 93.2599L394.087 108.83L394.027 108.8L366.537 93.2299V62.0199L366.597 61.9899L394.087 46.4199V46.4199ZM421.407 62.1599L394.087 46.6899L366.767 62.1599V93.0999L394.087 108.57L421.407 93.0999V62.1599Z" stroke="#D1E6E9" stroke-miterlimit="10"/>
<path opacity="0.5" d="M449.196 46.4199L449.256 46.4499L476.746 62.0199V93.2299L476.686 93.2599L449.196 108.83L449.136 108.8L421.646 93.2299V62.0199L421.706 61.9899L449.196 46.4199V46.4199ZM476.516 62.1599L449.196 46.6899L421.876 62.1599V93.0999L449.196 108.57L476.516 93.0999V62.1599Z" stroke="#D1E6E9" stroke-miterlimit="10"/>
<path opacity="0.5" d="M558.686 46.4199L558.746 46.4499L586.235 62.0199V93.2299L586.175 93.2599L558.686 108.83L558.626 108.8L531.136 93.2299V62.0199L531.196 61.9899L558.686 46.4199V46.4199ZM586.005 62.1599L558.686 46.6899L531.366 62.1599V93.0999L558.686 108.57L586.005 93.0999V62.1599Z" stroke="#D1E6E9" stroke-miterlimit="10"/>
<path d="M91.9795 92.79L92.0395 92.82L119.529 108.39V139.6L119.469 139.63L91.9795 155.2L91.9195 155.17L64.4297 139.6V108.39L64.4897 108.36L91.9795 92.79V92.79ZM119.299 108.53L91.9795 93.06L64.6597 108.53V139.47L91.9795 154.94L119.299 139.47V108.53Z" stroke="#D1E6E9" stroke-miterlimit="10"/>
<path d="M64.669 46.1499L64.729 46.1799L92.2188 61.7499V92.9599L92.1588 92.9899L64.669 108.56L64.609 108.53L37.1191 92.9599V61.7499L37.1791 61.7199L64.669 46.1499V46.1499ZM91.9888 61.8899L64.669 46.4199L37.3491 61.8899V92.8299L64.669 108.3L91.9888 92.8299V61.8899V61.8899Z" stroke="#D1E6E9" stroke-miterlimit="10"/>
<path d="M91.739 -0.100098L91.799 -0.0700979L119.299 15.5099V46.7199L119.239 46.7499L91.749 62.3199L91.689 62.2899L64.1992 46.7199V15.5099L64.2592 15.4799L91.749 -0.0900974L91.739 -0.100098ZM119.059 15.6399L91.739 0.169902L64.4292 15.6399V46.5799L91.749 62.0499L119.069 46.5799V15.6399H119.059Z" stroke="#D1E6E9" stroke-miterlimit="10"/>
<path d="M36.8791 -0.100098L36.9391 -0.0700979L64.4289 15.5099V46.7199L64.3689 46.7499L36.8791 62.3199L36.8191 62.2899L9.31934 46.7199V15.5099L9.37934 15.4799L36.8791 -0.100098ZM64.1889 15.6399L36.8791 0.169902L9.55933 15.6399V46.5799L36.8791 62.0499L64.1989 46.5799V15.6399H64.1889Z" stroke="#D1E6E9" stroke-miterlimit="10"/>
<path d="M257.038 -0.100098L257.098 -0.0700979L284.588 15.5099V46.7199L284.528 46.7499L257.038 62.3199L256.978 62.2899L229.488 46.7199V15.5099L229.548 15.4799L257.038 -0.0900974V-0.100098ZM284.348 15.6399L257.028 0.169902L229.718 15.6399V46.5799L257.038 62.0499L284.358 46.5799V15.6399H284.348Z" stroke="#D1E6E9" stroke-miterlimit="10"/>
<path d="M311.668 -0.369873L311.728 -0.339872L339.218 15.2401V46.4501L339.158 46.4801L311.668 62.0501L311.608 62.0201L284.118 46.4501V15.2401L284.178 15.2101L311.668 -0.359873V-0.369873ZM338.978 15.3701L311.658 -0.0998726L284.348 15.3701V46.3101L311.668 61.7801L338.988 46.3101V15.3701H338.978Z" stroke="#D1E6E9" stroke-miterlimit="10"/>
<path d="M59.3297 33.5801L59.4597 33.6501L117.499 66.5201V132.41L117.369 132.48L59.3297 165.35L59.1998 165.28L1.16016 132.41V66.5201L1.29015 66.4501L59.3297 33.5801ZM116.999 66.8101L59.3297 34.1501L1.67015 66.8001V132.12L59.3398 164.78L117.009 132.12V66.8001L116.999 66.8101Z" stroke="#A1D8DF" stroke-miterlimit="10"/>
<path opacity="0.6" d="M175.169 33.5801L175.299 33.6501L233.338 66.5201V132.41L233.208 132.48L175.169 165.35L175.039 165.28L116.999 132.41V66.5201L117.129 66.4501L175.169 33.5801V33.5801ZM232.838 66.8101L175.169 34.1501L117.499 66.8101V132.12L175.169 164.78L232.838 132.12V66.8001V66.8101Z" stroke="#A1D8DF" stroke-miterlimit="10"/>
<path opacity="0.3" d="M233.339 132.07L233.469 132.14L291.508 165.01V230.9L291.378 230.97L233.339 263.84L233.209 263.77L175.169 230.9V165.01L175.299 164.94L233.339 132.07V132.07ZM291.008 165.3L233.339 132.64L175.669 165.3V230.62L233.339 263.28L291.008 230.62V165.3Z" stroke="#A1D8DF" stroke-miterlimit="10"/>
<path opacity="0.3" d="M175.669 230.31L175.799 230.38L233.838 263.25V329.14L233.708 329.21L175.669 362.08L175.539 362.01L117.499 329.14V263.25L117.629 263.18L175.669 230.31V230.31ZM233.338 263.54L175.669 230.88L117.999 263.54V328.86L175.669 361.52L233.338 328.86V263.54V263.54Z" stroke="#A1D8DF" stroke-miterlimit="10"/>
<path opacity="0.6" d="M117.499 132.07L117.629 132.14L175.668 165.01V230.9L175.538 230.97L117.499 263.84L117.369 263.77L59.3291 230.9V165.01L59.4591 164.94L117.499 132.07V132.07ZM175.168 165.3L117.499 132.64L59.8291 165.3V230.62L117.499 263.28L175.168 230.62V165.3Z" stroke="#A1D8DF" stroke-miterlimit="10"/>
<path d="M232.838 -65L232.968 -64.93L291.007 -32.06V33.83L290.877 33.9L232.838 66.77L232.708 66.7L174.668 33.83V-32.05L174.798 -32.12L232.838 -64.99V-65ZM290.507 -31.77L232.838 -64.43L175.168 -31.77V33.55L232.838 66.21L290.507 33.55V-31.77Z" stroke="#A1D8DF" stroke-miterlimit="10"/>
<path d="M348.567 -65L348.697 -64.93L406.737 -32.06V33.83L406.607 33.9L348.567 66.77L348.437 66.7L290.397 33.83V-32.05L290.527 -32.12L348.567 -64.99V-65ZM406.237 -31.77L348.567 -64.43L290.897 -31.77V33.55L348.567 66.21L406.237 33.55V-31.77Z" stroke="#A1D8DF" stroke-miterlimit="10"/>
<path d="M116.999 -65L117.129 -64.93L175.168 -32.06V33.83L175.038 33.9L116.999 66.77L116.869 66.7L58.8291 33.83V-32.05L58.9591 -32.12L116.999 -64.99V-65ZM174.668 -31.77L116.999 -64.43L59.3291 -31.77V33.55L116.999 66.21L174.668 33.55V-31.77Z" stroke="#A1D8DF" stroke-miterlimit="10"/>
<path opacity="0.3" d="M241.388 210.14L241.448 210.17L268.878 225.7V256.84L268.818 256.87L241.388 272.4L241.328 272.37L213.898 256.84V225.7L213.958 225.67L241.388 210.14ZM268.638 225.84L241.388 210.41L214.138 225.84V256.71L241.388 272.14L268.638 256.71V225.84Z" stroke="white" stroke-width="0.75" stroke-miterlimit="10"/>
<path d="M201.688 138.22L237.978 158.77V199.87L201.688 220.42L165.398 199.87V158.77L201.688 138.22ZM236.738 159.47L201.688 139.62L166.638 159.47V199.17L201.688 219.02L236.738 199.17V159.47Z" stroke="white" stroke-width="0.75" stroke-miterlimit="10"/>
<path opacity="0.5" d="M344.477 138.22L380.767 158.77V199.87L344.477 220.42L308.188 199.87V158.77L344.477 138.22ZM379.527 159.47L344.477 139.62L309.428 159.47V199.17L344.477 219.02L379.527 199.17V159.47Z" stroke="white" stroke-width="0.75" stroke-miterlimit="10"/>
<path opacity="0.5" d="M365.977 -36.27L402.267 -15.72V25.39L365.977 45.94L329.688 25.39V-15.72L365.977 -36.27ZM401.027 -15.02L365.977 -34.87L330.928 -15.02V24.69L365.977 44.54L401.027 24.69V-15.01V-15.02Z" stroke="white" stroke-width="0.75" stroke-miterlimit="10"/>
<path opacity="0.5" d="M437.327 -36.27L473.617 -15.72V25.39L437.327 45.94L401.037 25.39V-15.72L437.327 -36.27ZM472.377 -15.02L437.327 -34.87L402.277 -15.02V24.69L437.327 44.54L472.377 24.69V-15.01V-15.02Z" stroke="white" stroke-width="0.75" stroke-miterlimit="10"/>
<path d="M201.049 17.25L237.338 37.8V78.91L201.049 99.46L164.759 78.91V37.81L201.049 17.25ZM236.098 38.5L201.049 18.66L165.999 38.51V78.21L201.049 98.06L236.098 78.21V38.51V38.5Z" stroke="white" stroke-width="0.75" stroke-miterlimit="10"/>
<path opacity="0.5" d="M273.028 138.22L309.318 158.77V199.87L273.028 220.42L236.738 199.87V158.77L273.028 138.22ZM308.078 159.47L273.028 139.62L237.978 159.47V199.17L273.028 219.02L308.078 199.17V159.47Z" stroke="white" stroke-width="0.75" stroke-miterlimit="10"/>
<path d="M129.709 17.25L165.998 37.8V78.91L129.709 99.46L93.4189 78.91V37.81L129.709 17.25ZM164.758 38.5L129.709 18.66L94.6589 38.51V78.21L129.709 98.06L164.758 78.21V38.51V38.5Z" stroke="white" stroke-width="0.75" stroke-miterlimit="10"/>
<path d="M58.3591 17.25L94.6489 37.8V78.91L58.3591 99.46L22.0693 78.91V37.81L58.3591 17.25ZM93.4089 38.5L58.3591 18.66L23.3093 38.51V78.21L58.3591 98.06L93.4089 78.21V38.51V38.5Z" stroke="white" stroke-width="0.75" stroke-miterlimit="10"/>
<path opacity="0.5" d="M237.218 198.88L273.508 219.43V260.53L237.218 281.08L200.929 260.53V219.43L237.218 198.88V198.88ZM272.268 220.13L237.218 200.28L202.169 220.13V259.83L237.218 279.68L272.268 259.83V220.13Z" stroke="white" stroke-width="0.75" stroke-miterlimit="10"/>
<path opacity="0.5" d="M165.879 198.62L202.168 219.17V260.27L165.879 280.82L129.589 260.27V219.17L165.879 198.62ZM200.928 219.87L165.879 200.02L130.829 219.87V259.57L165.879 279.42L200.928 259.57V219.87V219.87Z" stroke="white" stroke-width="0.75" stroke-miterlimit="10"/>
<path opacity="0.5" d="M201.459 259.47L237.748 280.02V321.12L201.459 341.67L165.169 321.12V280.02L201.459 259.47ZM236.508 280.72L201.459 260.87L166.409 280.72V320.42L201.459 340.27L236.508 320.42V280.72Z" stroke="white" stroke-width="0.75" stroke-miterlimit="10"/>
<path opacity="0.5" d="M237.339 77.63L273.628 98.18V139.28L237.339 159.83L201.049 139.28V98.18L237.339 77.63V77.63ZM272.388 98.88L237.339 79.03L202.289 98.88V138.58L237.339 158.43L272.388 138.58V98.88Z" stroke="white" stroke-width="0.75" stroke-miterlimit="10"/>
<path opacity="0.5" d="M148.608 249.17V249.24L149.638 280.82L122.999 297.08L122.939 297.05L95.3288 281.69V281.62L94.2988 250.04L120.939 233.78L120.999 233.81L148.608 249.17V249.17ZM149.398 280.69L148.378 249.32L120.949 234.06L94.5388 250.18L95.5588 281.55L122.989 296.81L149.398 280.69V280.69Z" stroke="#D1E6E9" stroke-miterlimit="10"/>
<path opacity="0.5" d="M174.049 201.68V201.75L175.079 233.33L148.439 249.59L148.379 249.56L120.769 234.2V234.13L119.739 202.55L146.379 186.29L146.439 186.32L174.049 201.68V201.68ZM174.839 233.2L173.819 201.83L146.389 186.57L119.979 202.69L120.999 234.06L148.429 249.32L174.839 233.2V233.2Z" stroke="#D1E6E9" stroke-miterlimit="10"/>
<path opacity="0.6" d="M192.199 745.88L192.069 745.81L134.029 712.94V647.05L134.159 646.98L192.199 614.11L192.329 614.18L250.368 647.05V712.94L250.238 713.01L192.199 745.88ZM134.529 712.65L192.199 745.31L249.868 712.65V647.33L192.199 614.67L134.529 647.33V712.65V712.65Z" stroke="#A1D8DF" stroke-miterlimit="10"/>
</g>
<defs>
<clipPath id="clip0_156_894">
<rect width="615" height="1040" fill="white"/>
</clipPath>
</defs>
</svg>
