<svg width="601" height="939" viewBox="0 0 601 939" fill="none" xmlns="http://www.w3.org/2000/svg">
<g clip-path="url(#clip0_154_501)">
<path d="M193.617 681.197L193.677 681.225L221.167 695.845V725.15L221.107 725.178L193.617 739.798L193.557 739.77L166.067 725.15V695.845L166.127 695.817L193.617 681.197ZM220.937 695.976L193.617 681.451L166.297 695.976V725.028L193.617 739.554L220.937 725.028V695.976V695.976Z" stroke="#D1E6E9" stroke-miterlimit="10"/>
<path d="M138.747 681.197L138.807 681.225L166.297 695.845V725.15L166.237 725.178L138.747 739.798L138.687 739.77L111.197 725.15V695.845L111.257 695.817L138.747 681.197ZM166.067 695.976L138.747 681.451L111.427 695.976V725.028L138.747 739.554L166.067 725.028V695.976V695.976Z" stroke="#D1E6E9" stroke-miterlimit="10"/>
<path d="M83.8781 681.197L83.9381 681.225L111.428 695.845V725.15L111.368 725.178L83.8781 739.798L83.8181 739.77L56.3281 725.15V695.845L56.3881 695.817L83.8781 681.197ZM111.198 695.976L83.8781 681.451L56.5581 695.976V725.028L83.8781 739.554L111.198 725.028V695.976V695.976Z" stroke="#D1E6E9" stroke-miterlimit="10"/>
<path d="M28.7678 681.197L28.8279 681.225L56.3179 695.845V725.15L56.2578 725.178L28.7678 739.798L28.7078 739.77L1.21777 725.15V695.845L1.27783 695.817L28.7678 681.197ZM56.0878 695.976L28.7678 681.451L1.44788 695.976V725.028L28.7678 739.554L56.0878 725.028V695.976V695.976Z" stroke="#D1E6E9" stroke-miterlimit="10"/>
<path d="M248.718 681.197L248.778 681.225L276.268 695.845V725.15L276.208 725.178L248.718 739.798L248.658 739.77L221.168 725.15V695.845L221.228 695.817L248.718 681.197ZM276.038 695.976L248.718 681.451L221.398 695.976V725.028L248.718 739.554L276.038 725.028V695.976V695.976Z" stroke="#D1E6E9" stroke-miterlimit="10"/>
<path d="M414.058 681.197L414.118 681.225L441.608 695.845V725.15L441.548 725.178L414.058 739.798L413.998 739.77L386.508 725.15V695.845L386.568 695.817L414.058 681.197ZM441.378 695.976L414.058 681.451L386.738 695.976V725.028L414.058 739.554L441.378 725.028V695.976V695.976Z" stroke="#D1E6E9" stroke-miterlimit="10"/>
<path d="M440.648 724.728L440.708 724.756L468.198 739.376V768.681L468.138 768.709L440.648 783.329L440.588 783.3L413.098 768.681V739.376L413.158 739.347L440.648 724.728V724.728ZM467.968 739.507L440.648 724.981L413.328 739.507V768.559L440.648 783.084L467.968 768.559V739.507Z" stroke="#D1E6E9" stroke-miterlimit="10"/>
<path opacity="0.6" d="M413.087 768.202L413.147 768.23L440.637 782.85V812.155L440.577 812.183L413.087 826.803L413.027 826.775L385.537 812.155V782.85L385.597 782.822L413.087 768.202ZM440.407 782.981L413.087 768.455L385.767 782.981V812.033L413.087 826.559L440.407 812.033V782.981V782.981Z" stroke="#D1E6E9" stroke-miterlimit="10"/>
<path d="M495.747 724.192L495.807 724.221L523.297 738.84V768.145L523.237 768.174L495.747 782.793L495.687 782.765L468.197 768.145V738.84L468.257 738.812L495.747 724.192ZM523.067 738.972L495.747 724.446L468.427 738.972V768.023L495.747 782.549L523.067 768.023V738.972V738.972Z" stroke="#D1E6E9" stroke-miterlimit="10"/>
<path opacity="0.6" d="M467.667 768.202L467.727 768.23L495.217 782.85V812.155L495.157 812.183L467.667 826.803L467.607 826.775L440.117 812.155V782.85L440.177 782.822L467.667 768.202ZM494.987 782.981L467.667 768.455L440.347 782.981V812.033L467.667 826.559L494.987 812.033V782.981V782.981Z" stroke="#D1E6E9" stroke-miterlimit="10"/>
<path d="M615.228 630.296L615.358 630.362L673.398 661.225V723.094L673.268 723.16L615.228 754.023L615.098 753.958L557.058 723.094V661.235L557.188 661.169L615.228 630.305V630.296ZM672.898 661.498L615.228 630.831L557.558 661.498V722.831L615.228 753.498L672.898 722.831V661.498Z" stroke="#A1D8DF" stroke-miterlimit="10"/>
<path d="M556.558 722.606L556.688 722.671L614.728 753.535V815.404L614.598 815.47L556.558 846.333L556.428 846.268L498.388 815.404V753.535L498.518 753.47L556.558 722.606V722.606ZM614.228 753.808L556.558 723.141L498.888 753.808V815.141L556.558 845.808L614.228 815.141V753.808V753.808Z" stroke="#A1D8DF" stroke-miterlimit="10"/>
<path d="M614.228 815.028L614.358 815.094L672.398 845.958V907.826L672.268 907.892L614.228 938.756L614.098 938.69L556.058 907.826V845.958L556.188 845.892L614.228 815.028V815.028ZM671.898 846.23L614.228 815.563L556.558 846.23V907.563L614.228 938.23L671.898 907.563V846.23Z" stroke="#A1D8DF" stroke-miterlimit="10"/>
<path d="M498.898 630.296L499.028 630.362L557.068 661.225V723.094L556.938 723.16L498.898 754.023L498.768 753.958L440.728 723.094V661.235L440.858 661.169L498.898 630.305V630.296ZM556.568 661.498L498.898 630.831L441.228 661.498V722.831L498.898 753.498L556.568 722.831V661.498Z" stroke="#A1D8DF" stroke-miterlimit="10"/>
<path d="M605.247 724.728L605.307 724.756L632.797 739.376V768.681L632.737 768.709L605.247 783.329L605.187 783.3L577.697 768.681V739.376L577.757 739.347L605.247 724.728V724.728ZM632.567 739.507L605.247 724.981L577.927 739.507V768.559L605.247 783.084L632.567 768.559V739.507Z" stroke="#D1E6E9" stroke-miterlimit="10"/>
<path d="M539.008 636.718L575.298 656.014V694.615L539.008 713.911L502.718 694.615V656.014L539.008 636.718ZM574.058 656.671L539.008 638.033L503.958 656.671V693.958L515.818 700.268L539.008 712.606L574.058 693.967V656.671Z" stroke="white" stroke-width="0.75" stroke-miterlimit="10"/>
<path d="M467.668 636.718L503.958 656.014V694.615L467.668 713.911L431.378 694.615V656.014L467.668 636.718ZM502.718 656.671L467.668 638.033L432.618 656.671V693.958L444.478 700.268L467.668 712.606L502.718 693.967V656.671Z" stroke="white" stroke-width="0.75" stroke-miterlimit="10"/>
<path opacity="0.6" d="M253.548 636.718L289.838 656.014V694.615L253.548 713.911L217.258 694.615V656.014L253.548 636.718ZM288.598 656.671L253.548 638.033L218.498 656.671V693.958L230.358 700.268L253.548 712.606L288.598 693.967V656.671Z" stroke="white" stroke-width="0.75" stroke-miterlimit="10"/>
<path opacity="0.6" d="M324.888 636.718L361.178 656.014V694.615L324.888 713.911L288.598 694.615V656.014L324.888 636.718ZM359.938 656.671L324.888 638.033L289.838 656.671V693.958L301.698 700.268L324.888 712.606L359.938 693.967V656.671Z" stroke="white" stroke-width="0.75" stroke-miterlimit="10"/>
<path opacity="0.3" d="M182.208 636.718L218.498 656.014V694.615L182.208 713.911L145.918 694.615V656.014L182.208 636.718ZM217.258 656.671L182.208 638.033L147.158 656.671V693.958L159.018 700.268L182.208 712.606L217.258 693.967V656.671Z" stroke="white" stroke-width="0.75" stroke-miterlimit="10"/>
<path opacity="0.3" d="M111.197 636.718L147.487 656.014V694.615L111.197 713.911L74.9072 694.615V656.014L111.197 636.718ZM146.247 656.671L111.197 638.033L76.1472 656.671V693.958L88.0072 700.268L111.197 712.606L146.247 693.967V656.671Z" stroke="white" stroke-width="0.75" stroke-miterlimit="10"/>
<path d="M383.058 630.296L383.188 630.362L441.228 661.225V723.094L441.098 723.16L383.058 754.023L382.928 753.958L324.888 723.094V661.235L325.018 661.169L383.058 630.305V630.296ZM440.728 661.498L383.058 630.831L325.388 661.498V722.831L383.058 753.498L440.728 722.831V661.498Z" stroke="#A1D8DF" stroke-miterlimit="10"/>
<path opacity="0.6" d="M440.648 722.606L440.778 722.671L498.818 753.535V815.404L498.688 815.47L440.648 846.333L440.518 846.268L382.478 815.404V753.535L382.608 753.47L440.648 722.606V722.606ZM498.318 753.808L440.648 723.141L382.978 753.808V815.141L440.648 845.808L498.318 815.141V753.808V753.808Z" stroke="#A1D8DF" stroke-miterlimit="10"/>
<path d="M267.218 630.296L267.348 630.362L325.388 661.225V723.094L325.258 723.16L267.218 754.023L267.088 753.958L209.048 723.094V661.235L209.178 661.169L267.218 630.305V630.296ZM324.888 661.498L267.218 630.831L209.548 661.498V722.831L267.218 753.498L324.888 722.831V661.498Z" stroke="#A1D8DF" stroke-miterlimit="10"/>
<path opacity="0.5" d="M541.556 274.127L541.616 274.155L569.105 288.775V318.08L569.046 318.108L541.556 332.728L541.496 332.699L514.006 318.08V288.775L514.066 288.746L541.556 274.127ZM568.875 288.906L541.556 274.38L514.236 288.906V317.958L541.556 332.484L568.875 317.958V288.906Z" stroke="white" stroke-width="0.75" stroke-miterlimit="10"/>
<path opacity="0.5" d="M568.745 230.239L568.805 230.268L596.295 244.887V274.192L596.235 274.221L568.745 288.84L568.685 288.812L541.195 274.192V244.887L541.255 244.859L568.745 230.239ZM596.065 245.019L568.745 230.493L541.425 245.019V274.07L568.745 288.596L596.065 274.07V245.019Z" stroke="white" stroke-width="0.75" stroke-miterlimit="10"/>
<path opacity="0.5" d="M596.294 273.873L596.354 273.901L623.844 288.521V317.826L623.784 317.855L596.294 332.474L596.234 332.446L568.744 317.826V288.521L568.804 288.493L596.294 273.873ZM623.614 288.653L596.294 274.127L568.974 288.653V317.704L596.294 332.23L623.614 317.704V288.653Z" stroke="white" stroke-width="0.75" stroke-miterlimit="10"/>
<path d="M574.024 219.028L574.084 219.056L601.574 233.676V262.981L601.514 263.009L574.024 277.629L573.964 277.601L546.475 262.981V233.676L546.535 233.648L574.024 219.028ZM601.344 233.807L574.024 219.282L546.705 233.807V262.859L574.024 277.385L601.344 262.859V233.807Z" stroke="#D1E6E9" stroke-miterlimit="10"/>
<path d="M628.663 219.028L628.723 219.056L656.213 233.676V262.981L656.153 263.009L628.663 277.629L628.603 277.601L601.113 262.981V233.676L601.173 233.648L628.663 219.028ZM655.983 233.807L628.663 219.282L601.343 233.807V262.859L628.663 277.385L655.983 262.859V233.807Z" stroke="#D1E6E9" stroke-miterlimit="10"/>
<path d="M601.585 262.747L601.645 262.775L629.135 277.394V306.7L629.075 306.728L601.585 321.348L601.525 321.319L574.035 306.7V277.394L574.095 277.366L601.585 262.747ZM628.905 277.526L601.585 263L574.265 277.526V306.578L601.585 321.103L628.905 306.578V277.526Z" stroke="#D1E6E9" stroke-miterlimit="10"/>
<path d="M574.265 306.784L574.325 306.812L601.815 321.432V350.737L601.755 350.765L574.265 365.385L574.205 365.357L546.715 350.737V321.432L546.775 321.404L574.265 306.784ZM601.584 321.563L574.265 307.037L546.945 321.563V350.615L574.265 365.141L601.584 350.615V321.563Z" stroke="#D1E6E9" stroke-miterlimit="10"/>
<path d="M601.825 350.69L601.885 350.718L629.375 365.338V394.643L629.315 394.671L601.825 409.291L601.765 409.263L574.275 394.643V365.338L574.335 365.31L601.825 350.69ZM629.145 365.469L601.825 350.944L574.505 365.469V394.521L601.825 409.047L629.145 394.521V365.469Z" stroke="#D1E6E9" stroke-miterlimit="10"/>
<path d="M519.395 307.038L519.455 307.066L546.944 321.685V350.991L546.884 351.019L519.395 365.639L519.335 365.61L491.845 350.991V321.685L491.905 321.657L519.395 307.038ZM546.714 321.817L519.395 307.291L492.075 321.817V350.869L519.395 365.394L546.714 350.869V321.817Z" stroke="#D1E6E9" stroke-miterlimit="10"/>
<path opacity="0.6" d="M492.086 350.69L492.146 350.718L519.636 365.338V394.643L519.576 394.671L492.086 409.291L492.026 409.263L464.536 394.643V365.338L464.596 365.31L492.086 350.69ZM519.406 365.469L492.086 350.944L464.766 365.469V394.521L492.086 409.047L519.406 394.521V365.469Z" stroke="#D1E6E9" stroke-miterlimit="10"/>
<path opacity="0.6" d="M464.535 394.324L464.595 394.352L492.085 408.972V438.277L492.025 438.305L464.535 452.925L464.475 452.897L436.985 438.277V408.972L437.045 408.944L464.535 394.324ZM491.855 409.103L464.535 394.577L437.215 409.103V438.155L464.535 452.681L491.855 438.155V409.103Z" stroke="#D1E6E9" stroke-miterlimit="10"/>
<path opacity="0.5" d="M409.666 394.324L409.726 394.352L437.216 408.972V438.277L437.156 438.305L409.666 452.925L409.606 452.897L382.116 438.277V408.972L382.176 408.944L409.666 394.324ZM436.986 409.103L409.666 394.577L382.346 409.103V438.155L409.666 452.681L436.986 438.155V409.103Z" stroke="#D1E6E9" stroke-miterlimit="10"/>
<path opacity="0.6" d="M437.217 350.944L437.277 350.972L464.767 365.591V394.897L464.707 394.925L437.217 409.545L437.157 409.516L409.667 394.897V365.591L409.727 365.563L437.217 350.944ZM464.537 365.723L437.217 351.197L409.897 365.723V394.775L437.217 409.3L464.537 394.775V365.723Z" stroke="#D1E6E9" stroke-miterlimit="10"/>
<path d="M495.495 550.286L495.555 550.315L523.045 564.934V594.239L522.985 594.268L495.495 608.887L495.435 608.859L467.945 594.239V564.934L468.005 564.906L495.495 550.286ZM522.815 565.066L495.495 550.54L468.175 565.066V594.117L495.495 608.643L522.815 594.117V565.066Z" stroke="#D1E6E9" stroke-miterlimit="10"/>
<path d="M523.056 594.193L523.116 594.221L550.605 608.84V638.146L550.546 638.174L523.056 652.793L522.996 652.765L495.506 638.146V608.84L495.566 608.812L523.056 594.193ZM550.375 608.972L523.056 594.446L495.736 608.972V638.023L523.056 652.549L550.375 638.023V608.972Z" stroke="#D1E6E9" stroke-miterlimit="10"/>
<path d="M468.187 594.446L468.247 594.474L495.736 609.094V638.399L495.676 638.427L468.187 653.047L468.127 653.019L440.637 638.399V609.094L440.697 609.066L468.187 594.446ZM495.506 609.225L468.187 594.7L440.867 609.225V638.277L468.187 652.803L495.506 638.277V609.225Z" stroke="#D1E6E9" stroke-miterlimit="10"/>
<path d="M413.317 594.193L413.377 594.221L440.867 608.84V638.146L440.807 638.174L413.317 652.793L413.257 652.765L385.768 638.146V608.84L385.828 608.812L413.317 594.193ZM440.637 608.972L413.317 594.446L385.998 608.972V638.023L413.317 652.549L440.637 638.023V608.972Z" stroke="#D1E6E9" stroke-miterlimit="10"/>
<path d="M385.767 637.817L385.827 637.845L413.317 652.465V681.77L413.256 681.798L385.767 696.418L385.707 696.39L358.217 681.77V652.465L358.277 652.437L385.767 637.817ZM413.086 652.596L385.767 638.07L358.447 652.596V681.648L385.767 696.174L413.086 681.648V652.596Z" stroke="#D1E6E9" stroke-miterlimit="10"/>
<path d="M330.897 637.817L330.956 637.845L358.446 652.465V681.77L358.386 681.798L330.897 696.418L330.836 696.39L303.347 681.77V652.465L303.407 652.437L330.897 637.817ZM358.216 652.596L330.897 638.07L303.577 652.596V681.648L330.897 696.174L358.216 681.648V652.596Z" stroke="#D1E6E9" stroke-miterlimit="10"/>
<path opacity="0.6" d="M358.445 594.446L358.505 594.474L385.995 609.094V638.399L385.935 638.427L358.445 653.047L358.385 653.019L330.896 638.399V609.094L330.955 609.066L358.445 594.446ZM385.765 609.225L358.445 594.7L331.125 609.225V638.277L358.445 652.803L385.765 638.277V609.225Z" stroke="#D1E6E9" stroke-miterlimit="10"/>
<path opacity="0.6" d="M385.648 550.221L385.707 550.249L413.197 564.869V594.174L413.137 594.202L385.648 608.822L385.587 608.793L358.098 594.174V564.869L358.158 564.84L385.648 550.221ZM412.967 565L385.648 550.474L358.328 565V594.052L385.648 608.577L412.967 594.052V565Z" stroke="#D1E6E9" stroke-miterlimit="10"/>
<path d="M193.607 681.197L193.667 681.225L221.157 695.845V725.15L221.097 725.178L193.607 739.798L193.547 739.77L166.058 725.15V695.845L166.118 695.817L193.607 681.197ZM220.927 695.976L193.607 681.451L166.288 695.976V725.028L193.607 739.554L220.927 725.028V695.976Z" stroke="#D1E6E9" stroke-miterlimit="10"/>
<path d="M138.738 681.197L138.798 681.225L166.288 695.845V725.15L166.228 725.178L138.738 739.798L138.678 739.77L111.188 725.15V695.845L111.248 695.817L138.738 681.197ZM166.058 695.976L138.738 681.451L111.418 695.976V725.028L138.738 739.554L166.058 725.028V695.976Z" stroke="#D1E6E9" stroke-miterlimit="10"/>
<path d="M83.8681 681.197L83.9282 681.225L111.418 695.845V725.15L111.358 725.178L83.8681 739.798L83.8082 739.77L56.3184 725.15V695.845L56.3783 695.817L83.8681 681.197ZM111.188 695.976L83.8681 681.451L56.5483 695.976V725.028L83.8681 739.554L111.188 725.028V695.976Z" stroke="#D1E6E9" stroke-miterlimit="10"/>
<path d="M28.7588 681.197L28.8189 681.225L56.3087 695.845V725.15L56.2486 725.178L28.7588 739.798L28.6988 739.77L1.20898 725.15V695.845L1.26904 695.817L28.7588 681.197ZM56.0786 695.976L28.7588 681.451L1.43909 695.976V725.028L28.7588 739.554L56.0786 725.028V695.976Z" stroke="#D1E6E9" stroke-miterlimit="10"/>
<path opacity="0.5" d="M330.775 550.221L330.835 550.249L358.325 564.869V594.174L358.265 594.202L330.775 608.822L330.715 608.793L303.226 594.174V564.869L303.286 564.84L330.775 550.221ZM358.095 565L330.775 550.474L303.456 565V594.052L330.775 608.577L358.095 594.052V565Z" stroke="#D1E6E9" stroke-miterlimit="10"/>
<path opacity="0.5" d="M166.289 637.817L166.349 637.845L193.839 652.465V681.77L193.779 681.798L166.289 696.418L166.229 696.39L138.739 681.77V652.465L138.799 652.437L166.289 637.817ZM193.609 652.596L166.289 638.07L138.969 652.596V681.648L166.289 696.174L193.609 681.648V652.596Z" stroke="#D1E6E9" stroke-miterlimit="10"/>
<path opacity="0.5" d="M111.187 637.563L111.247 637.592L138.736 652.211V681.516L138.676 681.545L111.187 696.164L111.127 696.136L83.6367 681.516V652.211L83.6967 652.183L111.187 637.563ZM138.506 652.343L111.187 637.817L83.8667 652.343V681.394L111.187 695.92L138.506 681.394V652.343Z" stroke="#D1E6E9" stroke-miterlimit="10"/>
<path opacity="0.5" d="M56.3174 637.563L56.3774 637.592L83.8672 652.211V681.516L83.8072 681.545L56.3174 696.164L56.2574 696.136L28.7676 681.516V652.211L28.8275 652.183L56.3174 637.563ZM83.6372 652.343L56.3174 637.817L28.9976 652.343V681.394L56.3174 695.92L83.6372 681.394V652.343Z" stroke="#D1E6E9" stroke-miterlimit="10"/>
<path opacity="0.6" d="M358.326 506.84L358.386 506.868L385.876 521.488V550.793L385.816 550.822L358.326 565.441L358.266 565.413L330.776 550.793V521.488L330.836 521.46L358.326 506.84ZM385.646 521.62L358.326 507.094L331.006 521.62V550.671L358.326 565.197L385.646 550.671V521.62Z" stroke="#D1E6E9" stroke-miterlimit="10"/>
<path opacity="0.6" d="M331.016 463.169L331.076 463.197L358.566 477.817V507.122L358.505 507.15L331.016 521.77L330.956 521.742L303.466 507.122V477.817L303.526 477.789L331.016 463.169ZM358.335 477.948L331.016 463.422L303.696 477.948V507L331.016 521.526L358.335 507V477.948V477.948Z" stroke="#D1E6E9" stroke-miterlimit="10"/>
<path d="M248.706 681.197L248.766 681.225L276.256 695.845V725.15L276.196 725.178L248.706 739.798L248.646 739.77L221.156 725.15V695.845L221.216 695.817L248.706 681.197ZM276.026 695.976L248.706 681.451L221.386 695.976V725.028L248.706 739.554L276.026 725.028V695.976Z" stroke="#D1E6E9" stroke-miterlimit="10"/>
<path d="M414.047 681.197L414.107 681.225L441.597 695.845V725.15L441.537 725.178L414.047 739.798L413.987 739.77L386.497 725.15V695.845L386.557 695.817L414.047 681.197ZM441.367 695.976L414.047 681.451L386.727 695.976V725.028L414.047 739.554L441.367 725.028V695.976Z" stroke="#D1E6E9" stroke-miterlimit="10"/>
<path opacity="0.6" d="M276.268 637.817L276.328 637.845L303.817 652.465V681.77L303.757 681.798L276.268 696.418L276.208 696.39L248.718 681.77V652.465L248.778 652.437L276.268 637.817ZM303.587 652.596L276.268 638.07L248.948 652.596V681.648L276.268 696.174L303.587 681.648V652.596Z" stroke="#D1E6E9" stroke-miterlimit="10"/>
<path opacity="0.6" d="M546.476 175.376L546.536 175.404L574.025 190.024V219.329L573.965 219.357L546.476 233.977L546.416 233.948L518.926 219.329V190.024L518.986 189.995L546.476 175.376ZM573.795 190.155L546.476 175.629L519.156 190.155V219.207L546.476 233.732L573.795 219.207V190.155Z" stroke="#D1E6E9" stroke-miterlimit="10"/>
<path d="M518.925 131.911L518.985 131.939L546.475 146.559V175.864L546.415 175.892L518.925 190.512L518.865 190.484L491.375 175.864V146.559L491.435 146.53L518.925 131.911ZM546.245 146.69L518.925 132.164L491.605 146.69V175.742L518.925 190.268L546.245 175.742V146.69Z" stroke="#D1E6E9" stroke-miterlimit="10"/>
<path opacity="0.6" d="M464.296 131.657L464.356 131.685L491.846 146.305V175.61L491.786 175.638L464.296 190.258L464.236 190.23L436.746 175.61V146.305L436.806 146.277L464.296 131.657V131.657ZM491.616 146.437L464.296 131.911L436.976 146.437V175.488L464.296 190.014L491.616 175.488V146.437Z" stroke="#D1E6E9" stroke-miterlimit="10"/>
<path opacity="0.5" d="M436.526 175.376L436.586 175.404L464.076 190.024V219.329L464.016 219.357L436.526 233.977L436.466 233.948L408.977 219.329V190.024L409.037 189.995L436.526 175.376ZM463.846 190.155L436.526 175.629L409.207 190.155V219.207L436.526 233.732L463.846 219.207V190.155Z" stroke="#D1E6E9" stroke-miterlimit="10"/>
<path opacity="0.6" d="M376.777 58.6431L376.837 58.6712L404.327 73.291V102.596L404.267 102.624L376.777 117.244L376.717 117.216L349.228 102.596V73.291L349.288 73.2628L376.777 58.6431ZM404.097 73.4224L376.777 58.8966L349.458 73.4224V102.474L376.777 117L404.097 102.474V73.4224V73.4224Z" stroke="#D1E6E9" stroke-miterlimit="10"/>
<path opacity="0.5" d="M349.016 102.352L349.076 102.38L376.566 117V146.305L376.505 146.333L349.016 160.953L348.956 160.925L321.466 146.305V117L321.526 116.972L349.016 102.352V102.352ZM376.335 117.131L349.016 102.606L321.696 117.131V146.183L349.016 160.709L376.335 146.183V117.131Z" stroke="#D1E6E9" stroke-miterlimit="10"/>
<path opacity="0.5" d="M321.697 146.324L321.757 146.352L349.247 160.972V190.277L349.187 190.305L321.697 204.925L321.637 204.897L294.147 190.277V160.972L294.207 160.944L321.697 146.324ZM349.017 161.103L321.697 146.577L294.377 161.103V190.155L321.697 204.681L349.017 190.155V161.103Z" stroke="#D1E6E9" stroke-miterlimit="10"/>
<path opacity="0.5" d="M321.697 58.6431L321.757 58.6712L349.247 73.291V102.596L349.187 102.624L321.697 117.244L321.637 117.216L294.147 102.596V73.291L294.207 73.2628L321.697 58.6431ZM349.017 73.4224L321.697 58.8966L294.377 73.4224V102.474L321.697 117L349.017 102.474V73.4224V73.4224Z" stroke="#D1E6E9" stroke-miterlimit="10"/>
<path opacity="0.5" d="M294.387 15.2347L294.447 15.2629L321.937 29.8826V59.1878L321.877 59.216L294.387 73.8357L294.327 73.8075L266.837 59.1878V29.892L266.897 29.8638L294.387 15.2347ZM321.707 30.0141L294.387 15.4977L267.067 30.0235V59.0751L294.387 73.6009L321.707 59.0751V30.0141V30.0141Z" stroke="#D1E6E9" stroke-miterlimit="10"/>
<path opacity="0.5" d="M239.517 14.9812L239.577 15.0094L267.067 29.6291V58.9343L267.006 58.9624L239.517 73.5821L239.457 73.554L211.967 58.9343V29.6385L212.027 29.6103L239.517 14.9906V14.9812ZM266.836 29.7605L239.517 15.2347L212.197 29.7605V58.8122L239.517 73.338L266.836 58.8122V29.7605Z" stroke="#D1E6E9" stroke-miterlimit="10"/>
<path opacity="0.5" d="M184.648 15.2347L184.707 15.2629L212.197 29.8826V59.1878L212.137 59.216L184.648 73.8357L184.587 73.8075L157.098 59.1878V29.892L157.158 29.8638L184.648 15.2347ZM211.967 30.0141L184.648 15.4977L157.328 30.0235V59.0751L184.648 73.6009L211.967 59.0751V30.0141V30.0141Z" stroke="#D1E6E9" stroke-miterlimit="10"/>
<path opacity="0.5" d="M157.327 58.9718L157.387 59L184.877 73.6197V102.925L184.817 102.953L157.327 117.573L157.267 117.545L129.777 102.925V73.6197L129.837 73.5915L157.327 58.9718V58.9718ZM184.647 73.7511L157.327 59.2253L130.007 73.7511V102.803L157.327 117.329L184.647 102.803V73.7511Z" stroke="#D1E6E9" stroke-miterlimit="10"/>
<path d="M574.024 131.657L574.084 131.685L601.574 146.305V175.61L601.514 175.638L574.024 190.258L573.964 190.23L546.475 175.61V146.305L546.535 146.277L574.024 131.657V131.657ZM601.344 146.437L574.024 131.911L546.705 146.437V175.488L574.024 190.014L601.344 175.488V146.437Z" stroke="#D1E6E9" stroke-miterlimit="10"/>
<path d="M601.345 175.376L601.405 175.404L628.895 190.024V219.329L628.834 219.357L601.345 233.977L601.285 233.948L573.795 219.329V190.024L573.855 189.995L601.345 175.376ZM628.665 190.155L601.345 175.629L574.025 190.155V219.207L601.345 233.732L628.665 219.207V190.155Z" stroke="#D1E6E9" stroke-miterlimit="10"/>
<path d="M601.585 87.8263L601.645 87.8545L629.135 102.474V131.779L629.075 131.808L601.585 146.427L601.525 146.399L574.035 131.779V102.474L574.095 102.446L601.585 87.8263V87.8263ZM628.905 102.606L601.585 88.0798L574.265 102.606V131.657L601.585 146.183L628.905 131.657V102.606Z" stroke="#D1E6E9" stroke-miterlimit="10"/>
<path d="M546.716 87.8263L546.776 87.8545L574.266 102.474V131.779L574.206 131.808L546.716 146.427L546.656 146.399L519.166 131.779V102.474L519.226 102.446L546.716 87.8263V87.8263ZM574.036 102.606L546.716 88.0798L519.396 102.606V131.657L546.716 146.183L574.036 131.657V102.606Z" stroke="#D1E6E9" stroke-miterlimit="10"/>
<path d="M574.265 44.2863L574.325 44.3144L601.815 58.9341V88.2393L601.755 88.2675L574.265 102.887L574.205 102.859L546.715 88.2393V58.9341L546.775 58.906L574.265 44.2863V44.2863ZM601.584 59.0656L574.265 44.5398L546.945 59.0656V88.1172L574.265 102.643L601.584 88.1172V59.0656Z" stroke="#D1E6E9" stroke-miterlimit="10"/>
<path d="M519.165 44.2863L519.225 44.3144L546.715 58.9341V88.2393L546.655 88.2675L519.165 102.887L519.105 102.859L491.615 88.2393V58.9341L491.675 58.906L519.165 44.2863V44.2863ZM546.485 59.0656L519.165 44.5398L491.845 59.0656V88.1172L519.165 102.643L546.485 88.1172V59.0656Z" stroke="#D1E6E9" stroke-miterlimit="10"/>
<path d="M491.606 0.614868L491.666 0.643037L519.166 15.2721V44.5679L519.106 44.5961L491.616 59.2158L491.556 59.1876L464.066 44.5679V15.2721L464.126 15.244L491.616 0.624257L491.606 0.614868ZM518.926 15.3942L491.606 0.868389L464.296 15.3942V44.4459L491.616 58.9717L518.936 44.4459V15.3942H518.926Z" stroke="#D1E6E9" stroke-miterlimit="10"/>
<path d="M436.737 0.361572L436.797 0.389741L464.287 15.0095V44.3146L464.227 44.3428L436.737 58.9625L436.677 58.9343L409.188 44.3146V15.0095L409.247 14.9813L436.737 0.361572ZM464.057 15.1409L436.737 0.615094L409.427 15.1409V44.1926L436.747 58.7184L464.067 44.1926V15.1409H464.057Z" stroke="#D1E6E9" stroke-miterlimit="10"/>
<path opacity="0.6" d="M464.296 44.2863L464.356 44.3144L491.846 58.9341V88.2393L491.786 88.2675L464.296 102.887L464.236 102.859L436.746 88.2393V58.9341L436.806 58.906L464.296 44.2863V44.2863ZM491.616 59.0656L464.296 44.5398L436.976 59.0656V88.1172L464.296 102.643L491.616 88.1172V59.0656Z" stroke="#D1E6E9" stroke-miterlimit="10"/>
<path d="M628.894 44.2863L628.954 44.3144L656.443 58.9341V88.2393L656.383 88.2675L628.894 102.887L628.834 102.859L601.344 88.2393V58.9341L601.404 58.906L628.894 44.2863V44.2863ZM656.213 59.0656L628.894 44.5398L601.574 59.0656V88.1172L628.894 102.643L656.213 88.1172V59.0656Z" stroke="#D1E6E9" stroke-miterlimit="10"/>
<path d="M546.716 0.614868L546.776 0.643037L574.266 15.2721V44.5679L574.206 44.5961L546.716 59.2158L546.656 59.1876L519.166 44.5679V15.2721L519.226 15.244L546.716 0.624257V0.614868ZM574.026 15.3942L546.706 0.868389L519.396 15.3942V44.4459L546.716 58.9717L574.036 44.4459V15.3942H574.026Z" stroke="#D1E6E9" stroke-miterlimit="10"/>
<path d="M601.345 0.361572L601.405 0.389741L628.895 15.0095V44.3146L628.834 44.3428L601.345 58.9625L601.285 58.9343L573.795 44.3146V15.0095L573.855 14.9813L601.345 0.361572ZM628.665 15.1409L601.345 0.615094L574.025 15.1409V44.1926L601.345 58.7184L628.665 44.1926V15.1409V15.1409Z" stroke="#D1E6E9" stroke-miterlimit="10"/>
<path d="M580.714 32.2301L580.844 32.2958L638.884 63.1597V125.028L638.754 125.094L580.714 155.958L580.584 155.892L522.545 125.028V63.1691L522.675 63.1033L580.714 32.2395V32.2301ZM638.384 63.432L580.714 32.7653L523.045 63.432V124.765L580.714 155.432L638.384 124.765V63.432V63.432Z" stroke="#A1D8DF" stroke-miterlimit="10"/>
<path d="M523.045 124.709L523.175 124.775L581.214 155.639V217.507L581.084 217.573L523.045 248.437L522.915 248.371L464.875 217.507V155.639L465.005 155.573L523.045 124.709V124.709ZM580.714 155.911L523.045 125.244L465.375 155.911V217.244L523.045 247.911L580.714 217.244V155.911Z" stroke="#A1D8DF" stroke-miterlimit="10"/>
<path opacity="0.6" d="M466.026 217.451L466.156 217.516L524.196 248.38V310.249L524.066 310.315L466.026 341.178L465.896 341.113L407.856 310.249V248.38L407.986 248.315L466.026 217.451ZM523.696 248.653L466.026 217.986L408.356 248.653V309.986L466.026 340.653L523.696 309.986V248.653V248.653Z" stroke="#A1D8DF" stroke-miterlimit="10"/>
<path opacity="0.3" d="M407.857 309.77L407.987 309.836L466.937 340.7V402.568L466.807 402.634L407.857 433.498L407.727 433.432L348.777 402.568V340.7L348.907 340.634L407.857 309.77ZM466.417 340.972L407.857 310.305L349.297 340.972V402.305L407.857 432.972L466.417 402.305V340.972V340.972Z" stroke="#A1D8DF" stroke-miterlimit="10"/>
<path d="M638.884 124.709L639.014 124.775L697.053 155.639V217.507L696.923 217.573L638.884 248.437L638.753 248.371L580.714 217.507V155.639L580.844 155.573L638.884 124.709V124.709ZM696.553 155.911L638.884 125.244L581.214 155.911V217.244L638.884 247.911L696.553 217.244V155.911Z" stroke="#A1D8DF" stroke-miterlimit="10"/>
<path d="M581.214 217.319L581.344 217.385L639.384 248.249V310.117L639.254 310.183L581.214 341.047L581.084 340.981L523.045 310.117V248.249L523.175 248.183L581.214 217.319ZM638.884 248.521L581.214 217.854L523.545 248.521V309.854L581.214 340.521L638.884 309.854V248.521V248.521Z" stroke="#A1D8DF" stroke-miterlimit="10"/>
<path d="M464.846 32.2301L464.976 32.2958L523.016 63.1597V125.028L522.886 125.094L464.846 155.958L464.716 155.892L406.677 125.028V63.1691L406.807 63.1033L464.846 32.2395V32.2301ZM522.516 63.432L464.846 32.7653L407.177 63.432V124.765L464.846 155.432L522.516 124.765V63.432V63.432Z" stroke="#A1D8DF" stroke-miterlimit="10"/>
<path d="M522.515 -60.324L522.645 -60.2582L580.685 -29.3944V32.4742L580.555 32.5399L522.515 63.4037L522.385 63.338L464.346 32.4742V-29.3944L464.476 -29.4601L522.515 -60.324V-60.324ZM580.185 -29.1221L522.515 -59.7888L464.846 -29.1221V32.2112L522.515 62.8779L580.185 32.2112V-29.1221V-29.1221Z" stroke="#A1D8DF" stroke-miterlimit="10"/>
<path d="M406.677 -60.324L406.807 -60.2582L464.847 -29.3944V32.4742L464.717 32.5399L406.677 63.4037L406.547 63.338L348.508 32.4742V-29.3944L348.638 -29.4601L406.677 -60.324V-60.324ZM464.347 -29.1221L406.677 -59.7888L349.008 -29.1221V32.2112L406.677 62.8779L464.347 32.2112V-29.1221V-29.1221Z" stroke="#A1D8DF" stroke-miterlimit="10"/>
<path d="M290.346 -60.324L290.476 -60.2582L348.516 -29.3944V32.4742L348.386 32.5399L290.346 63.4037L290.216 63.338L232.177 32.4742V-29.3944L232.307 -29.4601L290.346 -60.324V-60.324ZM348.016 -29.1221L290.346 -59.7888L232.677 -29.1221V32.2112L290.346 62.8779L348.016 32.2112V-29.1221V-29.1221Z" stroke="#A1D8DF" stroke-miterlimit="10"/>
<path opacity="0.6" d="M174.508 -60.324L174.638 -60.2582L232.677 -29.3944V32.4742L232.547 32.5399L174.508 63.4037L174.378 63.338L116.338 32.4742V-29.3944L116.468 -29.4601L174.508 -60.324V-60.324ZM232.177 -29.1221L174.508 -59.7888L116.838 -29.1221V32.2112L174.508 62.8779L232.177 32.2112V-29.1221V-29.1221Z" stroke="#A1D8DF" stroke-miterlimit="10"/>
<path opacity="0.6" d="M58.1696 -61L58.2996 -60.9343L116.339 -30.0704V31.7981L116.209 31.8639L58.1696 62.7277L58.0396 62.662L0 31.7981V-30.061L0.130004 -30.1268L58.1696 -60.9906V-61ZM115.839 -29.7981L58.1696 -60.4648L0.499997 -29.7981V31.5352L58.1696 62.2019L115.839 31.5352V-29.7981V-29.7981Z" stroke="#A1D8DF" stroke-miterlimit="10"/>
<path opacity="0.3" d="M232.177 32.2301L232.307 32.2958L290.347 63.1597V125.028L290.217 125.094L232.177 155.958L232.047 155.892L174.008 125.028V63.1691L174.138 63.1033L232.177 32.2395V32.2301ZM289.847 63.432L232.177 32.7653L174.508 63.432V124.765L232.177 155.432L289.847 124.765V63.432V63.432Z" stroke="#A1D8DF" stroke-miterlimit="10"/>
<path d="M615.213 630.296L615.343 630.362L673.383 661.225V723.094L673.253 723.16L615.213 754.023L615.083 753.958L557.044 723.094V661.225L557.174 661.16L615.213 630.296ZM672.883 661.498L615.213 630.831L557.544 661.498V722.831L615.213 753.498L672.883 722.831V661.498Z" stroke="#A1D8DF" stroke-miterlimit="10"/>
<path d="M498.885 630.296L499.015 630.362L557.055 661.225V723.094L556.925 723.16L498.885 754.023L498.755 753.958L440.716 723.094V661.225L440.846 661.16L498.885 630.296ZM556.555 661.498L498.885 630.831L441.216 661.498V722.831L498.885 753.498L556.555 722.831V661.498Z" stroke="#A1D8DF" stroke-miterlimit="10"/>
<path opacity="0.6" d="M324.878 537.948L325.008 538.014L383.047 568.878V630.746L382.917 630.812L324.878 661.676L324.748 661.61L266.708 630.746V568.878L266.838 568.812L324.878 537.948ZM382.547 569.15L324.878 538.484L267.208 569.15V630.484L324.878 661.15L382.547 630.484V569.15V569.15Z" stroke="#A1D8DF" stroke-miterlimit="10"/>
<path opacity="0.6" d="M499.385 444.972L499.515 445.038L557.555 475.901V537.77L557.425 537.836L499.385 568.7L499.255 568.634L441.216 537.77V475.901L441.346 475.836L499.385 444.972V444.972ZM557.055 476.174L499.385 445.507L441.716 476.174V537.507L499.385 568.174L557.055 537.507V476.174V476.174Z" stroke="#A1D8DF" stroke-miterlimit="10"/>
<path opacity="0.5" d="M541.255 186.577L541.316 186.606L568.745 201.188V230.427L568.685 230.455L541.255 245.037L541.195 245.009L513.766 230.427V201.188L513.826 201.16L541.255 186.577ZM568.505 201.319L541.255 186.831L514.006 201.319V230.305L541.255 244.793L568.505 230.305V201.319Z" stroke="white" stroke-width="0.75" stroke-miterlimit="10"/>
<path d="M633.995 130.493L670.285 149.789V188.38L633.995 207.676L597.705 188.38V149.789L633.995 130.493ZM669.045 150.446L633.995 131.807L598.945 150.446V187.723L633.995 206.361L669.045 187.723V150.446Z" stroke="white" stroke-width="0.75" stroke-miterlimit="10"/>
<path d="M629.015 541.714L629.075 541.742L656.565 556.361V585.667L656.505 585.695L629.015 600.314L628.955 600.286L601.465 585.667V556.361L601.525 556.333L629.015 541.714ZM656.334 556.493L629.015 541.967L601.695 556.493V585.545L629.015 600.07L656.334 585.545V556.493Z" stroke="white" stroke-miterlimit="10"/>
<path d="M601.825 498.174L601.885 498.202L629.375 512.822V542.127L629.315 542.155L601.825 556.775L601.765 556.746L574.275 542.127V512.822L574.335 512.793L601.825 498.174ZM629.145 512.953L601.825 498.427L574.505 512.953V542.005L601.825 556.531L629.145 542.005V512.953Z" stroke="white" stroke-miterlimit="10"/>
<path opacity="0.6" d="M546.476 498.174L546.536 498.202L574.025 512.822V542.127L573.965 542.155L546.476 556.775L546.416 556.746L518.926 542.127V512.822L518.986 512.793L546.476 498.174ZM573.795 512.953L546.476 498.427L519.156 512.953V542.005L546.476 556.531L573.795 542.005V512.953Z" stroke="white" stroke-miterlimit="10"/>
<path d="M464.535 541.714L464.595 541.742L492.085 556.361V585.667L492.025 585.695L464.535 600.314L464.475 600.286L436.985 585.667V556.361L437.045 556.333L464.535 541.714ZM491.855 556.493L464.535 541.967L437.215 556.493V585.545L464.535 600.07L491.855 585.545V556.493Z" stroke="white" stroke-miterlimit="10"/>
<path d="M437.217 585.31L437.277 585.338L464.767 599.958V629.263L464.707 629.291L437.217 643.911L437.157 643.883L409.667 629.263V599.958L409.727 599.93L437.217 585.31ZM464.537 600.089L437.217 585.563L409.897 600.089V629.141L437.217 643.667L464.537 629.141V600.089Z" stroke="white" stroke-miterlimit="10"/>
<path opacity="0.3" d="M409.666 541.714L409.726 541.742L437.216 556.361V585.667L437.156 585.695L409.666 600.314L409.606 600.286L382.116 585.667V556.361L382.176 556.333L409.666 541.714ZM436.986 556.493L409.666 541.967L382.346 556.493V585.545L409.666 600.07L436.986 585.545V556.493Z" stroke="white" stroke-miterlimit="10"/>
<path opacity="0.5" d="M436.507 498.174L436.567 498.202L464.057 512.822V542.127L463.997 542.155L436.507 556.775L436.447 556.746L408.957 542.127V512.822L409.017 512.793L436.507 498.174ZM463.827 512.953L436.507 498.427L409.187 512.953V542.005L436.507 556.531L463.827 542.005V512.953Z" stroke="white" stroke-miterlimit="10"/>
<path opacity="0.3" d="M381.396 498.174L381.456 498.202L408.945 512.822V542.127L408.885 542.155L381.396 556.775L381.336 556.746L353.846 542.127V512.822L353.906 512.793L381.396 498.174ZM408.715 512.953L381.396 498.427L354.076 512.953V542.005L381.396 556.531L408.715 542.005V512.953Z" stroke="white" stroke-miterlimit="10"/>
<path opacity="0.3" d="M519.635 454.249L519.695 454.277L547.185 468.897V498.202L547.125 498.23L519.635 512.85L519.575 512.822L492.085 498.202V468.897L492.145 468.868L519.635 454.249ZM546.955 469.028L519.635 454.502L492.315 469.028V498.08L519.635 512.606L546.955 498.08V469.028V469.028Z" stroke="white" stroke-miterlimit="10"/>
<path d="M605.474 637.883L605.534 637.911L633.023 652.531V681.836L632.963 681.864L605.474 696.484L605.414 696.455L577.924 681.836V652.531L577.984 652.502L605.474 637.883ZM632.793 652.662L605.474 638.136L578.154 652.662V681.714L605.474 696.239L632.793 681.714V652.662Z" stroke="#D1E6E9" stroke-miterlimit="10"/>
<path d="M577.925 594.052L577.985 594.08L605.475 608.7V638.005L605.415 638.033L577.925 652.653L577.865 652.624L550.375 638.005V608.7L550.435 608.671L577.925 594.052ZM605.245 608.831L577.925 594.305L550.605 608.831V637.883L577.925 652.408L605.245 637.883V608.831Z" stroke="#D1E6E9" stroke-miterlimit="10"/>
<path d="M605.233 550.512L605.293 550.54L632.783 565.16V594.465L632.723 594.493L605.233 609.113L605.173 609.084L577.684 594.465V565.16L577.744 565.131L605.233 550.512ZM632.553 565.291L605.233 550.765L577.914 565.291V594.343L605.233 608.868L632.553 594.343V565.291Z" stroke="#D1E6E9" stroke-miterlimit="10"/>
<path d="M577.686 506.587L577.746 506.615L605.235 521.235V550.54L605.175 550.568L577.686 565.188L577.626 565.16L550.136 550.54V521.235L550.196 521.207L577.686 506.587ZM605.005 521.366L577.686 506.84L550.366 521.366V550.418L577.686 564.944L605.005 550.418V521.366Z" stroke="#D1E6E9" stroke-miterlimit="10"/>
<path d="M605.233 462.699L605.293 462.728L632.783 477.347V506.653L632.723 506.681L605.233 521.3L605.173 521.272L577.684 506.653V477.347L577.744 477.319L605.233 462.699ZM632.553 477.479L605.233 462.953L577.914 477.479V506.53L605.233 521.056L632.553 506.53V477.479V477.479Z" stroke="#D1E6E9" stroke-miterlimit="10"/>
<path d="M557.054 538.455L557.184 538.521L615.224 569.385V631.253L615.094 631.319L557.054 662.183L556.924 662.117L498.885 631.253V569.385L499.015 569.319L557.054 538.455ZM614.724 569.657L557.054 538.991L499.385 569.657V630.991L557.054 661.657L614.724 630.991V569.657Z" stroke="#A1D8DF" stroke-miterlimit="10"/>
<path d="M440.865 537.948L440.995 538.014L499.035 568.878V630.746L498.905 630.812L440.865 661.676L440.735 661.61L382.695 630.746V568.878L382.825 568.812L440.865 537.948ZM498.535 569.15L440.865 538.484L383.195 569.15V630.484L440.865 661.15L498.535 630.484V569.15V569.15Z" stroke="#A1D8DF" stroke-miterlimit="10"/>
<path d="M615.213 446.315L615.343 446.38L673.383 477.244V539.113L673.253 539.178L615.213 570.042L615.083 569.977L557.044 539.113V477.244L557.174 477.178L615.213 446.315ZM672.883 477.516L615.213 446.85L557.544 477.516V538.85L615.213 569.516L672.883 538.85V477.516V477.516Z" stroke="#A1D8DF" stroke-miterlimit="10"/>
<path d="M538.996 636.718L575.286 656.014V694.606L538.996 713.901L502.706 694.606V656.014L538.996 636.718ZM574.046 656.671L538.996 638.033L503.946 656.671V693.948L515.806 700.258L538.996 712.596L574.046 693.958V656.681V656.671Z" stroke="white" stroke-width="0.75" stroke-miterlimit="10"/>
<path d="M467.655 636.718L503.945 656.014V694.606L467.655 713.901L431.365 694.606V656.014L467.655 636.718ZM502.705 656.671L467.655 638.033L432.605 656.671V693.948L444.465 700.258L467.655 712.596L502.705 693.958V656.681V656.671Z" stroke="white" stroke-width="0.75" stroke-miterlimit="10"/>
<path opacity="0.6" d="M253.538 636.718L289.828 656.014V694.606L253.538 713.901L217.248 694.606V656.014L253.538 636.718ZM288.588 656.671L253.538 638.033L218.488 656.671V693.948L230.348 700.258L253.538 712.596L288.588 693.958V656.681V656.671Z" stroke="white" stroke-width="0.75" stroke-miterlimit="10"/>
<path opacity="0.6" d="M324.877 636.718L361.167 656.014V694.606L324.877 713.901L288.587 694.606V656.014L324.877 636.718ZM359.927 656.671L324.877 638.033L289.827 656.671V693.948L301.687 700.258L324.877 712.596L359.927 693.958V656.681V656.671Z" stroke="white" stroke-width="0.75" stroke-miterlimit="10"/>
<path opacity="0.3" d="M289.087 579.845L325.376 599.141V637.732L289.087 657.028L252.797 637.732V599.141L289.087 579.845ZM324.136 599.798L289.087 581.16L254.037 599.798V637.075L265.897 643.385L289.087 655.723L324.136 637.084V599.808V599.798Z" stroke="white" stroke-width="0.75" stroke-miterlimit="10"/>
<path opacity="0.3" d="M360.595 580.399L396.885 599.695V638.286L360.595 657.582L324.306 638.286V599.695L360.595 580.399ZM395.645 600.352L360.595 581.714L325.546 600.352V637.629L337.406 643.939L360.595 656.277L395.645 637.639V600.361V600.352Z" stroke="white" stroke-width="0.75" stroke-miterlimit="10"/>
<path opacity="0.3" d="M182.197 636.718L218.487 656.014V694.606L182.197 713.901L145.907 694.606V656.014L182.197 636.718ZM217.247 656.671L182.197 638.033L147.147 656.671V693.948L159.007 700.258L182.197 712.596L217.247 693.958V656.681V656.671Z" stroke="white" stroke-width="0.75" stroke-miterlimit="10"/>
<path opacity="0.3" d="M111.187 636.718L147.477 656.014V694.606L111.187 713.901L74.8975 694.606V656.014L111.187 636.718ZM146.237 656.671L111.187 638.033L76.1374 656.671V693.948L87.9974 700.258L111.187 712.596L146.237 693.958V656.681V656.671Z" stroke="white" stroke-width="0.75" stroke-miterlimit="10"/>
<path opacity="0.5" d="M491.315 130.493L527.605 149.789V188.38L491.315 207.676L455.025 188.38V149.789L491.315 130.493ZM526.365 150.446L491.315 131.807L456.265 150.446V187.723L491.315 206.361L526.365 187.723V150.446Z" stroke="white" stroke-width="0.75" stroke-miterlimit="10"/>
<path opacity="0.5" d="M455.676 187.451L491.965 206.746V245.338L455.676 264.634L419.386 245.338V206.746L455.676 187.451V187.451ZM490.725 207.404L455.676 188.765L420.626 207.404V244.681L455.676 263.319L490.725 244.681V207.404Z" stroke="white" stroke-width="0.75" stroke-miterlimit="10"/>
<path opacity="0.5" d="M420.625 244.803L456.915 264.099V302.69L420.625 321.986L384.335 302.69V264.099L420.625 244.803ZM455.675 264.756L420.625 246.117L385.575 264.756V302.033L420.625 320.671L455.675 302.033V264.756Z" stroke="white" stroke-width="0.75" stroke-miterlimit="10"/>
<path opacity="0.5" d="M349.286 244.803L385.576 264.099V302.69L349.286 321.986L312.996 302.69V264.099L349.286 244.803ZM384.336 264.756L349.286 246.117L314.236 264.756V302.033L349.286 320.671L384.336 302.033V264.756Z" stroke="white" stroke-width="0.75" stroke-miterlimit="10"/>
<path opacity="0.5" d="M314.238 187.451L350.528 206.746V245.338L314.238 264.634L277.948 245.338V206.746L314.238 187.451V187.451ZM349.288 207.404L314.238 188.765L279.188 207.404V244.681L314.238 263.319L349.288 244.681V207.404Z" stroke="white" stroke-width="0.75" stroke-miterlimit="10"/>
<path opacity="0.3" d="M277.948 244.005L314.238 263.3V301.892L277.948 321.188L241.658 301.892V263.3L277.948 244.005V244.005ZM312.998 263.958L277.948 245.319L242.898 263.958V301.235L277.948 319.873L312.998 301.235V263.958Z" stroke="white" stroke-width="0.75" stroke-miterlimit="10"/>
<path d="M490.726 16.9061L527.016 36.2019V74.8028L490.726 94.0986L454.437 74.8028V36.2019L490.726 16.9061V16.9061ZM525.776 36.8592L490.726 18.2207L455.677 36.8592V74.1456L490.726 92.7841L525.776 74.1456V36.8592Z" stroke="white" stroke-width="0.75" stroke-miterlimit="10"/>
<path d="M527.014 73.4507L563.304 92.7465V131.338L527.014 150.634L490.725 131.338V92.7465L527.014 73.4507V73.4507ZM562.064 93.4037L527.014 74.7652L491.965 93.4037V130.681L527.014 149.319L562.064 130.681V93.4037V93.4037Z" stroke="white" stroke-width="0.75" stroke-miterlimit="10"/>
<path d="M562.065 16.2676L598.355 35.5634V74.1643L562.065 93.4601L525.775 74.1643V35.5634L562.065 16.2676V16.2676ZM597.115 36.2206L562.065 17.5821L527.015 36.2206V73.507L562.065 92.1455L597.115 73.507V36.23V36.2206Z" stroke="white" stroke-width="0.75" stroke-miterlimit="10"/>
<path d="M633.404 16.2676L669.694 35.5634V74.1643L633.404 93.4601L597.114 74.1643V35.5634L633.404 16.2676V16.2676ZM668.454 36.2206L633.404 17.5821L598.354 36.2206V73.507L633.404 92.1455L668.454 73.507V36.23V36.2206Z" stroke="white" stroke-width="0.75" stroke-miterlimit="10"/>
<path opacity="0.6" d="M419.386 16.9061L455.675 36.2019V74.8028L419.386 94.0986L383.096 74.8028V36.2019L419.386 16.9061V16.9061ZM454.435 36.8592L419.386 18.2207L384.336 36.8592V74.1456L419.386 92.7841L454.435 74.1456V36.8592Z" stroke="white" stroke-width="0.75" stroke-miterlimit="10"/>
<path opacity="0.5" d="M312.757 73.9484L349.046 93.2441V131.836L312.757 151.131L276.467 131.836V93.2441L312.757 73.9484V73.9484ZM347.806 93.9014L312.757 75.2629L277.707 93.9014V131.178L312.757 149.817L347.806 131.178V93.9014V93.9014Z" stroke="white" stroke-width="0.75" stroke-miterlimit="10"/>
<path opacity="0.5" d="M348.047 16.9061L384.336 36.2019V74.8028L348.047 94.0986L311.757 74.8028V36.2019L348.047 16.9061V16.9061ZM383.096 36.8592L348.047 18.2207L312.997 36.8592V74.1456L348.047 92.7841L383.096 74.1456V36.8592Z" stroke="white" stroke-width="0.75" stroke-miterlimit="10"/>
<path d="M562.654 130.493L598.944 149.789V188.38L562.654 207.676L526.364 188.38V149.789L562.654 130.493ZM597.704 150.446L562.654 131.807L527.604 150.446V187.723L562.654 206.361L597.704 187.723V150.446Z" stroke="white" stroke-width="0.75" stroke-miterlimit="10"/>
<path opacity="0.6" d="M209.037 537.948L209.167 538.014L267.206 568.878V630.746L267.076 630.812L209.037 661.676L208.907 661.61L150.867 630.746V568.878L150.997 568.812L209.037 537.948ZM266.706 569.15L209.037 538.484L151.367 569.15V630.484L209.037 661.15L266.706 630.484V569.15V569.15Z" stroke="#A1D8DF" stroke-miterlimit="10"/>
<path d="M383.047 630.296L383.177 630.362L441.216 661.225V723.094L441.086 723.16L383.047 754.023L382.917 753.958L324.877 723.094V661.225L325.007 661.16L383.047 630.296ZM440.716 661.498L383.047 630.831L325.377 661.498V722.831L383.047 753.498L440.716 722.831V661.498Z" stroke="#A1D8DF" stroke-miterlimit="10"/>
<path d="M267.209 630.296L267.339 630.362L325.378 661.225V723.094L325.248 723.16L267.209 754.023L267.079 753.958L209.039 723.094V661.225L209.169 661.16L267.209 630.296ZM324.878 661.498L267.209 630.831L209.539 661.498V722.831L267.209 753.498L324.878 722.831V661.498Z" stroke="#A1D8DF" stroke-miterlimit="10"/>
</g>
<defs>
<clipPath id="clip0_154_501">
<rect width="601" height="939" fill="white"/>
</clipPath>
</defs>
</svg>
