<svg width="50" height="50" viewBox="0 0 50 50" fill="none" xmlns="http://www.w3.org/2000/svg">
<path d="M21.8816 31.2505L18.7549 28.1238L13.4184 33.4602L16.5452 36.587L21.8816 31.2505Z" fill="#30ACC2"/>
<path d="M31.25 35.9375C40.7424 35.9375 48.4375 28.2424 48.4375 18.75C48.4375 9.25761 40.7424 1.5625 31.25 1.5625C21.7576 1.5625 14.0625 9.25761 14.0625 18.75C14.0625 28.2424 21.7576 35.9375 31.25 35.9375Z" fill="#68C7D3"/>
<path d="M31.25 32.8125C39.0165 32.8125 45.3125 26.5165 45.3125 18.75C45.3125 10.9835 39.0165 4.6875 31.25 4.6875C23.4835 4.6875 17.1875 10.9835 17.1875 18.75C17.1875 26.5165 23.4835 32.8125 31.25 32.8125Z" fill="#D1E6E9"/>
<path d="M39.0622 15.3593C39.0613 16.5317 38.5948 17.6558 37.7654 18.4843L33.5935 22.6562L30.9841 25.2656C30.5789 25.6987 30.0908 26.0459 29.5487 26.2865C29.0066 26.5271 28.4216 26.6562 27.8286 26.6661C27.2356 26.676 26.6466 26.5664 26.0968 26.344C25.547 26.1217 25.0475 25.7909 24.6281 25.3715C24.2088 24.9522 23.878 24.4527 23.6556 23.9029C23.4332 23.353 23.3237 22.7641 23.3336 22.1711C23.3435 21.5781 23.4726 20.9931 23.7132 20.451C23.9538 19.9089 24.301 19.4207 24.7341 19.0156L27.3435 16.4062L31.5154 12.2343C32.1338 11.6166 32.9214 11.196 33.7787 11.0257C34.636 10.8554 35.5245 10.9429 36.3321 11.2773C37.1396 11.6117 37.83 12.1779 38.3159 12.9045C38.8018 13.631 39.0616 14.4853 39.0622 15.3593V15.3593Z" fill="#30ACC2"/>
<path d="M39.0625 15.3593C39.0616 16.5317 38.5951 17.6558 37.7656 18.4843L34.375 21.8749L28.125 15.6249L31.5156 12.2343C32.134 11.6166 32.9216 11.196 33.7789 11.0257C34.6362 10.8554 35.5248 10.9429 36.3323 11.2773C37.1399 11.6117 37.8302 12.1779 38.3162 12.9045C38.8021 13.631 39.0618 14.4853 39.0625 15.3593V15.3593Z" fill="#68C7D3"/>
<path d="M4.875 48.4375C4.44 48.4375 4.00925 48.3518 3.60736 48.1854C3.20547 48.0189 2.8403 47.7749 2.53271 47.4673C2.22512 47.1597 1.98112 46.7945 1.81465 46.3926C1.64818 45.9907 1.5625 45.56 1.5625 45.125V45.125C1.56212 44.6899 1.64748 44.2589 1.8137 43.8567C1.97992 43.4546 2.22375 43.0891 2.53125 42.7812L14.0625 31.25L18.75 35.9375L7.21875 47.4687C6.91086 47.7763 6.54541 48.0201 6.14326 48.1863C5.74111 48.3525 5.31015 48.4379 4.875 48.4375V48.4375Z" fill="#A1D8DF"/>
</svg>
