<svg width="638" height="1017" viewBox="0 0 638 1017" fill="none" xmlns="http://www.w3.org/2000/svg">
<g clip-path="url(#clip0_154_652)">
<path opacity="0.5" d="M541.56 749.19L541.62 749.22L569.11 764.79V796L569.05 796.03L541.56 811.6L541.5 811.57L514.01 796V764.79L514.07 764.76L541.56 749.19ZM568.88 764.93L541.56 749.46L514.24 764.93V795.87L541.56 811.34L568.88 795.87V764.93Z" stroke="white" stroke-width="0.75" stroke-miterlimit="10"/>
<path opacity="0.5" d="M568.75 702.46L568.81 702.49L596.3 718.06V749.27L596.24 749.3L568.75 764.87L568.69 764.84L541.2 749.27V718.06L541.26 718.03L568.75 702.46V702.46ZM596.07 718.2L568.75 702.73L541.43 718.2V749.14L568.75 764.61L596.07 749.14V718.2V718.2Z" stroke="white" stroke-width="0.75" stroke-miterlimit="10"/>
<path opacity="0.5" d="M596.3 748.92L596.36 748.95L623.85 764.52V795.73L623.79 795.76L596.3 811.33L596.24 811.3L568.75 795.73V764.52L568.81 764.49L596.3 748.92ZM623.62 764.66L596.3 749.19L568.98 764.66V795.6L596.3 811.07L623.62 795.6V764.66Z" stroke="white" stroke-width="0.75" stroke-miterlimit="10"/>
<path d="M574.04 690.52L574.1 690.55L601.59 706.12V737.33L601.53 737.36L574.04 752.93L573.98 752.9L546.49 737.33V706.12L546.55 706.09L574.04 690.52ZM601.36 706.26L574.04 690.79L546.72 706.26V737.2L574.04 752.67L601.36 737.2V706.26Z" stroke="#D1E6E9" stroke-miterlimit="10"/>
<path d="M628.67 690.52L628.73 690.55L656.22 706.12V737.33L656.16 737.36L628.67 752.93L628.61 752.9L601.12 737.33V706.12L601.18 706.09L628.67 690.52ZM655.99 706.26L628.67 690.79L601.35 706.26V737.2L628.67 752.67L655.99 737.2V706.26Z" stroke="#D1E6E9" stroke-miterlimit="10"/>
<path d="M601.59 737.08L601.65 737.11L629.14 752.68V783.89L629.08 783.92L601.59 799.49L601.53 799.46L574.04 783.89V752.68L574.1 752.65L601.59 737.08ZM628.91 752.82L601.59 737.35L574.27 752.82V783.76L601.59 799.23L628.91 783.76V752.82Z" stroke="#D1E6E9" stroke-miterlimit="10"/>
<path d="M574.28 783.98L574.34 784.01L601.83 799.58V830.79L601.77 830.82L574.28 846.39L574.22 846.36L546.73 830.79V799.58L546.79 799.55L574.28 783.98ZM601.6 799.72L574.28 784.25L546.96 799.72V830.66L574.28 846.13L601.6 830.66V799.72Z" stroke="#D1E6E9" stroke-miterlimit="10"/>
<path d="M629.14 783.98L629.2 784.01L656.69 799.58V830.79L656.63 830.82L629.14 846.39L629.08 846.36L601.59 830.79V799.58L601.65 799.55L629.14 783.98ZM656.46 799.72L629.14 784.25L601.82 799.72V830.66L629.14 846.13L656.46 830.66V799.72Z" stroke="#D1E6E9" stroke-miterlimit="10"/>
<path d="M601.83 830.74L601.89 830.77L629.38 846.34V877.55L629.32 877.58L601.83 893.15L601.77 893.12L574.28 877.55V846.34L574.34 846.31L601.83 830.74ZM629.15 846.48L601.83 831.01L574.51 846.48V877.42L601.83 892.89L629.15 877.42V846.48Z" stroke="#D1E6E9" stroke-miterlimit="10"/>
<path d="M629.38 877.2L629.44 877.23L656.93 892.8V924.01L656.87 924.04L629.38 939.61L629.32 939.58L601.83 924.01V892.8L601.89 892.77L629.38 877.2ZM656.7 892.94L629.38 877.47L602.06 892.94V923.88L629.38 939.35L656.7 923.88V892.94Z" stroke="#D1E6E9" stroke-miterlimit="10"/>
<path d="M519.41 784.25L519.47 784.28L546.96 799.85V831.06L546.9 831.09L519.41 846.66L519.35 846.63L491.86 831.06V799.85L491.92 799.82L519.41 784.25ZM546.73 799.99L519.41 784.52L492.09 799.99V830.93L519.41 846.4L546.73 830.93V799.99Z" stroke="#D1E6E9" stroke-miterlimit="10"/>
<path opacity="0.6" d="M492.09 830.74L492.15 830.77L519.64 846.34V877.55L519.58 877.58L492.09 893.15L492.03 893.12L464.54 877.55V846.34L464.6 846.31L492.09 830.74ZM519.41 846.48L492.09 831.01L464.77 846.48V877.42L492.09 892.89L519.41 877.42V846.48Z" stroke="#D1E6E9" stroke-miterlimit="10"/>
<path opacity="0.6" d="M464.54 877.2L464.6 877.23L492.09 892.8V924.01L492.03 924.04L464.54 939.61L464.48 939.58L436.99 924.01V892.8L437.05 892.77L464.54 877.2ZM491.86 892.94L464.54 877.47L437.22 892.94V923.88L464.54 939.35L491.86 923.88V892.94Z" stroke="#D1E6E9" stroke-miterlimit="10"/>
<path opacity="0.5" d="M409.67 877.2L409.73 877.23L437.22 892.8V924.01L437.16 924.04L409.67 939.61L409.61 939.58L382.12 924.01V892.8L382.18 892.77L409.67 877.2ZM436.99 892.94L409.67 877.47L382.35 892.94V923.88L409.67 939.35L436.99 923.88V892.94Z" stroke="#D1E6E9" stroke-miterlimit="10"/>
<path opacity="0.6" d="M437.22 831.01L437.28 831.04L464.77 846.61V877.82L464.71 877.85L437.22 893.42L437.16 893.39L409.67 877.82V846.61L409.73 846.58L437.22 831.01ZM464.54 846.75L437.22 831.28L409.9 846.75V877.69L437.22 893.16L464.54 877.69V846.75Z" stroke="#D1E6E9" stroke-miterlimit="10"/>
<path d="M656.46 737.26L656.52 737.29L684.01 752.86V784.07L683.95 784.1L656.46 799.67L656.4 799.64L628.91 784.07V752.86L628.97 752.83L656.46 737.26ZM683.78 753L656.46 737.53L629.14 753V783.94L656.46 799.41L683.78 783.94V753Z" stroke="#D1E6E9" stroke-miterlimit="10"/>
<path opacity="0.6" d="M546.48 644.02L546.54 644.05L574.03 659.62V690.83L573.97 690.86L546.48 706.43L546.42 706.4L518.93 690.83V659.62L518.99 659.59L546.48 644.02ZM573.8 659.76L546.48 644.29L519.16 659.76V690.7L546.48 706.17L573.8 690.7V659.76Z" stroke="#D1E6E9" stroke-miterlimit="10"/>
<path d="M518.93 597.74L518.99 597.77L546.48 613.34V644.55L546.42 644.58L518.93 660.15L518.87 660.12L491.38 644.55V613.34L491.44 613.31L518.93 597.74V597.74ZM546.25 613.48L518.93 598.01L491.61 613.48V644.42L518.93 659.89L546.25 644.42V613.48Z" stroke="#D1E6E9" stroke-miterlimit="10"/>
<path opacity="0.6" d="M464.3 597.47L464.36 597.5L491.85 613.07V644.28L491.79 644.31L464.3 659.88L464.24 659.85L436.75 644.28V613.07L436.81 613.04L464.3 597.47ZM491.62 613.21L464.3 597.74L436.98 613.21V644.15L464.3 659.62L491.62 644.15V613.21Z" stroke="#D1E6E9" stroke-miterlimit="10"/>
<path opacity="0.5" d="M436.54 644.02L436.6 644.05L464.09 659.62V690.83L464.03 690.86L436.54 706.43L436.48 706.4L408.99 690.83V659.62L409.05 659.59L436.54 644.02ZM463.86 659.76L436.54 644.29L409.22 659.76V690.7L436.54 706.17L463.86 690.7V659.76Z" stroke="#D1E6E9" stroke-miterlimit="10"/>
<path opacity="0.6" d="M376.78 519.71L376.84 519.74L404.33 535.31V566.52L404.27 566.55L376.78 582.12L376.72 582.09L349.23 566.52V535.31L349.29 535.28L376.78 519.71V519.71ZM404.1 535.45L376.78 519.98L349.46 535.45V566.39L376.78 581.86L404.1 566.39V535.45V535.45Z" stroke="#D1E6E9" stroke-miterlimit="10"/>
<path opacity="0.6" d="M409.19 411.13L409.25 411.16L436.74 426.73V457.94L436.68 457.97L409.19 473.54L409.13 473.51L381.64 457.94V426.73L381.7 426.7L409.19 411.13ZM436.51 426.87L409.19 411.4L381.87 426.87V457.81L409.19 473.28L436.51 457.81V426.87V426.87Z" stroke="#D1E6E9" stroke-miterlimit="10"/>
<path opacity="0.5" d="M349.02 566.26L349.08 566.29L376.57 581.86V613.07L376.51 613.1L349.02 628.67L348.96 628.64L321.47 613.07V581.86L321.53 581.83L349.02 566.26ZM376.34 582L349.02 566.53L321.7 582V612.94L349.02 628.41L376.34 612.94V582V582Z" stroke="#D1E6E9" stroke-miterlimit="10"/>
<path opacity="0.5" d="M321.7 613.09L321.76 613.12L349.25 628.69V659.9L349.19 659.93L321.7 675.5L321.64 675.47L294.15 659.9V628.69L294.21 628.66L321.7 613.09ZM349.02 628.83L321.7 613.36L294.38 628.83V659.77L321.7 675.24L349.02 659.77V628.83Z" stroke="#D1E6E9" stroke-miterlimit="10"/>
<path opacity="0.5" d="M321.7 519.71L321.76 519.74L349.25 535.31V566.52L349.19 566.55L321.7 582.12L321.64 582.09L294.15 566.52V535.31L294.21 535.28L321.7 519.71V519.71ZM349.02 535.45L321.7 519.98L294.38 535.45V566.39L321.7 581.86L349.02 566.39V535.45V535.45Z" stroke="#D1E6E9" stroke-miterlimit="10"/>
<path opacity="0.5" d="M294.39 473.48L294.45 473.51L321.94 489.08V520.29L321.88 520.32L294.39 535.89L294.33 535.86L266.84 520.29V489.09L266.9 489.06L294.39 473.49V473.48ZM321.71 489.22L294.39 473.75L267.07 489.22V520.16L294.39 535.63L321.71 520.16V489.22Z" stroke="#D1E6E9" stroke-miterlimit="10"/>
<path opacity="0.5" d="M239.52 473.21L239.58 473.24L267.07 488.81V520.02L267.01 520.05L239.52 535.62L239.46 535.59L211.97 520.02V488.82L212.03 488.79L239.52 473.22V473.21ZM266.84 488.95L239.52 473.48L212.2 488.95V519.89L239.52 535.36L266.84 519.89V488.95Z" stroke="#D1E6E9" stroke-miterlimit="10"/>
<path opacity="0.5" d="M184.65 473.48L184.71 473.51L212.2 489.08V520.29L212.14 520.32L184.65 535.89L184.59 535.86L157.1 520.29V489.09L157.16 489.06L184.65 473.49V473.48ZM211.97 489.22L184.65 473.75L157.33 489.22V520.16L184.65 535.63L211.97 520.16V489.22Z" stroke="#D1E6E9" stroke-miterlimit="10"/>
<path opacity="0.5" d="M157.34 520.06L157.4 520.09L184.89 535.66V566.87L184.83 566.9L157.34 582.47L157.28 582.44L129.79 566.87V535.66L129.85 535.63L157.34 520.06V520.06ZM184.66 535.8L157.34 520.33L130.02 535.8V566.74L157.34 582.21L184.66 566.74V535.8Z" stroke="#D1E6E9" stroke-miterlimit="10"/>
<path d="M574.04 597.47L574.1 597.5L601.59 613.07V644.28L601.53 644.31L574.04 659.88L573.98 659.85L546.49 644.28V613.07L546.55 613.04L574.04 597.47ZM601.36 613.21L574.04 597.74L546.72 613.21V644.15L574.04 659.62L601.36 644.15V613.21Z" stroke="#D1E6E9" stroke-miterlimit="10"/>
<path d="M601.35 644.02L601.41 644.05L628.9 659.62V690.83L628.84 690.86L601.35 706.43L601.29 706.4L573.8 690.83V659.62L573.86 659.59L601.35 644.02ZM628.67 659.76L601.35 644.29L574.03 659.76V690.7L601.35 706.17L628.67 690.7V659.76Z" stroke="#D1E6E9" stroke-miterlimit="10"/>
<path d="M601.59 550.79L601.65 550.82L629.14 566.39V597.6L629.08 597.63L601.59 613.2L601.53 613.17L574.04 597.6V566.39L574.1 566.36L601.59 550.79ZM628.91 566.53L601.59 551.06L574.27 566.53V597.47L601.59 612.94L628.91 597.47V566.53V566.53Z" stroke="#D1E6E9" stroke-miterlimit="10"/>
<path d="M546.72 550.79L546.78 550.82L574.27 566.39V597.6L574.21 597.63L546.72 613.2L546.66 613.17L519.17 597.6V566.39L519.23 566.36L546.72 550.79ZM574.04 566.53L546.72 551.06L519.4 566.53V597.47L546.72 612.94L574.04 597.47V566.53V566.53Z" stroke="#D1E6E9" stroke-miterlimit="10"/>
<path d="M574.28 504.42L574.34 504.45L601.83 520.02V551.23L601.77 551.26L574.28 566.83L574.22 566.8L546.73 551.23V520.02L546.79 519.99L574.28 504.42V504.42ZM601.6 520.16L574.28 504.69L546.96 520.16V551.1L574.28 566.57L601.6 551.1V520.16Z" stroke="#D1E6E9" stroke-miterlimit="10"/>
<path d="M519.17 504.42L519.23 504.45L546.72 520.02V551.23L546.66 551.26L519.17 566.83L519.11 566.8L491.62 551.23V520.02L491.68 519.99L519.17 504.42V504.42ZM546.49 520.16L519.17 504.69L491.85 520.16V551.1L519.17 566.57L546.49 551.1V520.16Z" stroke="#D1E6E9" stroke-miterlimit="10"/>
<path d="M491.61 457.91L491.67 457.94L519.16 473.51V504.72L519.1 504.75L491.61 520.32L491.55 520.29L464.06 504.72V473.51L464.12 473.48L491.61 457.91ZM518.93 473.65L491.61 458.18L464.29 473.65V504.59L491.61 520.06L518.93 504.59V473.65V473.65Z" stroke="#D1E6E9" stroke-miterlimit="10"/>
<path d="M436.75 457.64L436.81 457.67L464.3 473.24V504.45L464.24 504.48L436.75 520.05L436.69 520.02L409.2 504.45V473.24L409.26 473.21L436.75 457.64ZM464.07 473.38L436.75 457.91L409.43 473.38V504.32L436.75 519.79L464.07 504.32V473.38Z" stroke="#D1E6E9" stroke-miterlimit="10"/>
<path opacity="0.6" d="M464.3 504.42L464.36 504.45L491.85 520.02V551.23L491.79 551.26L464.3 566.83L464.24 566.8L436.75 551.23V520.02L436.81 519.99L464.3 504.42V504.42ZM491.62 520.16L464.3 504.69L436.98 520.16V551.1L464.3 566.57L491.62 551.1V520.16Z" stroke="#D1E6E9" stroke-miterlimit="10"/>
<path d="M628.91 504.42L628.97 504.45L656.46 520.02V551.23L656.4 551.26L628.91 566.83L628.85 566.8L601.36 551.23V520.02L601.42 519.99L628.91 504.42V504.42ZM656.23 520.16L628.91 504.69L601.59 520.16V551.1L628.91 566.57L656.23 551.1V520.16Z" stroke="#D1E6E9" stroke-miterlimit="10"/>
<path d="M546.72 457.91L546.78 457.94L574.27 473.51V504.72L574.21 504.75L546.72 520.32L546.66 520.29L519.17 504.72V473.51L519.23 473.48L546.72 457.91ZM574.04 473.65L546.72 458.18L519.4 473.65V504.59L546.72 520.06L574.04 504.59V473.65V473.65Z" stroke="#D1E6E9" stroke-miterlimit="10"/>
<path d="M601.35 457.64L601.41 457.67L628.9 473.24V504.45L628.84 504.48L601.35 520.05L601.29 520.02L573.8 504.45V473.24L573.86 473.21L601.35 457.64ZM628.67 473.38L601.35 457.91L574.03 473.38V504.32L601.35 519.79L628.67 504.32V473.38Z" stroke="#D1E6E9" stroke-miterlimit="10"/>
<path d="M628.67 411.13L628.73 411.16L656.22 426.73V457.94L656.16 457.97L628.67 473.54L628.61 473.51L601.12 457.94V426.73L601.18 426.7L628.67 411.13ZM655.99 426.87L628.67 411.4L601.35 426.87V457.81L628.67 473.28L655.99 457.81V426.87V426.87Z" stroke="#D1E6E9" stroke-miterlimit="10"/>
<path d="M573.8 411.13L573.86 411.16L601.35 426.73V457.94L601.29 457.97L573.8 473.54L573.74 473.51L546.25 457.94V426.73L546.31 426.7L573.8 411.13ZM601.12 426.87L573.8 411.4L546.48 426.87V457.81L573.8 473.28L601.12 457.81V426.87V426.87Z" stroke="#D1E6E9" stroke-miterlimit="10"/>
<path d="M518.93 411.13L518.99 411.16L546.48 426.73V457.94L546.42 457.97L518.93 473.54L518.87 473.51L491.38 457.94V426.73L491.44 426.7L518.93 411.13ZM546.25 426.87L518.93 411.4L491.61 426.87V457.81L518.93 473.28L546.25 457.81V426.87V426.87Z" stroke="#D1E6E9" stroke-miterlimit="10"/>
<path d="M464.06 411.13L464.12 411.16L491.61 426.73V457.94L491.55 457.97L464.06 473.54L464 473.51L436.51 457.94V426.73L436.57 426.7L464.06 411.13ZM491.38 426.87L464.06 411.4L436.74 426.87V457.81L464.06 473.28L491.38 457.81V426.87V426.87Z" stroke="#D1E6E9" stroke-miterlimit="10"/>
<path d="M580.72 491.58L580.85 491.65L638.89 524.52V590.41L638.76 590.48L580.72 623.35L580.59 623.28L522.55 590.41V524.52L522.68 524.45L580.72 491.58V491.58ZM638.39 524.81L580.72 492.15L523.05 524.81V590.13L580.72 622.79L638.39 590.13V524.81V524.81Z" stroke="#A1D8DF" stroke-miterlimit="10"/>
<path d="M523.05 590.07L523.18 590.14L581.22 623.01V688.9L581.09 688.97L523.05 721.84L522.92 721.77L464.88 688.9V623.01L465.01 622.94L523.05 590.07ZM580.72 623.3L523.05 590.64L465.38 623.3V688.62L523.05 721.28L580.72 688.62V623.3Z" stroke="#A1D8DF" stroke-miterlimit="10"/>
<path opacity="0.6" d="M466.03 688.84L466.16 688.91L524.2 721.78V787.67L524.07 787.74L466.03 820.61L465.9 820.54L407.86 787.67V721.78L407.99 721.71L466.03 688.84V688.84ZM523.7 722.07L466.03 689.41L408.36 722.07V787.39L466.03 820.05L523.7 787.39V722.07Z" stroke="#A1D8DF" stroke-miterlimit="10"/>
<path opacity="0.3" d="M523.55 787.16L523.68 787.23L581.72 820.1V885.99L581.59 886.06L523.55 918.93L523.42 918.86L465.38 885.99V820.1L465.51 820.03L523.55 787.16ZM581.22 820.39L523.55 787.73L465.88 820.39V885.71L523.55 918.37L581.22 885.71V820.39V820.39Z" stroke="#A1D8DF" stroke-miterlimit="10"/>
<path opacity="0.3" d="M581.22 885.66L581.35 885.73L639.39 918.6V984.49L639.26 984.56L581.22 1017.43L581.09 1017.36L523.05 984.49V918.6L523.18 918.53L581.22 885.66V885.66ZM638.89 918.89L581.22 886.23L523.55 918.89V984.21L581.22 1016.87L638.89 984.21V918.89V918.89Z" stroke="#A1D8DF" stroke-miterlimit="10"/>
<path opacity="0.3" d="M406.81 787.16L406.94 787.23L465.89 820.1V885.99L465.76 886.06L406.81 918.93L406.68 918.86L347.73 885.99V820.1L347.86 820.03L406.81 787.16ZM465.37 820.39L406.81 787.73L348.25 820.39V885.71L406.81 918.37L465.37 885.71V820.39V820.39Z" stroke="#A1D8DF" stroke-miterlimit="10"/>
<path d="M638.89 590.07L639.02 590.14L697.06 623.01V688.9L696.93 688.97L638.89 721.84L638.76 721.77L580.72 688.9V623.01L580.85 622.94L638.89 590.07ZM696.56 623.3L638.89 590.64L581.22 623.3V688.62L638.89 721.28L696.56 688.62V623.3Z" stroke="#A1D8DF" stroke-miterlimit="10"/>
<path d="M581.22 688.7L581.35 688.77L639.39 721.64V787.53L639.26 787.6L581.22 820.47L581.09 820.4L523.05 787.53V721.64L523.18 721.57L581.22 688.7ZM638.89 721.93L581.22 689.27L523.55 721.93V787.25L581.22 819.91L638.89 787.25V721.93V721.93Z" stroke="#A1D8DF" stroke-miterlimit="10"/>
<path d="M639.39 787.16L639.52 787.23L697.56 820.1V885.99L697.43 886.06L639.39 918.93L639.26 918.86L581.22 885.99V820.1L581.35 820.03L639.39 787.16ZM697.06 820.39L639.39 787.73L581.72 820.39V885.71L639.39 918.37L697.06 885.71V820.39V820.39Z" stroke="#A1D8DF" stroke-miterlimit="10"/>
<path d="M464.86 491.58L464.99 491.65L523.03 524.52V590.41L522.9 590.48L464.86 623.35L464.73 623.28L406.69 590.41V524.52L406.82 524.45L464.86 491.58V491.58ZM522.53 524.81L464.86 492.15L407.19 524.81V590.13L464.86 622.79L522.53 590.13V524.81V524.81Z" stroke="#A1D8DF" stroke-miterlimit="10"/>
<path d="M522.52 393.01L522.65 393.08L580.69 425.95V491.84L580.56 491.91L522.52 524.78L522.39 524.71L464.35 491.84V425.95L464.48 425.88L522.52 393.01ZM580.19 426.24L522.52 393.58L464.85 426.24V491.55L522.52 524.21L580.19 491.55V426.23V426.24Z" stroke="#A1D8DF" stroke-miterlimit="10"/>
<path d="M406.69 393.01L406.82 393.08L464.86 425.95V491.84L464.73 491.91L406.69 524.78L406.56 524.71L348.52 491.84V425.95L348.65 425.88L406.69 393.01ZM464.36 426.24L406.69 393.58L349.02 426.24V491.55L406.69 524.21L464.36 491.55V426.23V426.24Z" stroke="#A1D8DF" stroke-miterlimit="10"/>
<path d="M290.35 393.01L290.48 393.08L348.52 425.95V491.84L348.39 491.91L290.35 524.78L290.22 524.71L232.18 491.84V425.95L232.31 425.88L290.35 393.01ZM348.02 426.24L290.35 393.58L232.68 426.24V491.55L290.35 524.21L348.02 491.55V426.23V426.24Z" stroke="#A1D8DF" stroke-miterlimit="10"/>
<path opacity="0.6" d="M174.51 393.01L174.64 393.08L232.68 425.95V491.84L232.55 491.91L174.51 524.78L174.38 524.71L116.34 491.84V425.95L116.47 425.88L174.51 393.01ZM232.18 426.24L174.51 393.58L116.84 426.24V491.55L174.51 524.21L232.18 491.55V426.23V426.24Z" stroke="#A1D8DF" stroke-miterlimit="10"/>
<path opacity="0.6" d="M58.17 392.29L58.3 392.36L116.34 425.23V491.12L116.21 491.19L58.17 524.06L58.04 523.99L0 491.12V425.23L0.130005 425.16L58.17 392.29ZM115.84 425.52L58.17 392.86L0.5 425.52V490.84L58.17 523.5L115.84 490.84V425.52V425.52Z" stroke="#A1D8DF" stroke-miterlimit="10"/>
<path opacity="0.3" d="M232.18 491.58L232.31 491.65L290.35 524.52V590.41L290.22 590.48L232.18 623.35L232.05 623.28L174.01 590.41V524.52L174.14 524.45L232.18 491.58V491.58ZM289.85 524.81L232.18 492.15L174.51 524.81V590.13L232.18 622.79L289.85 590.13V524.81V524.81Z" stroke="#A1D8DF" stroke-miterlimit="10"/>
<path opacity="0.5" d="M541.26 655.96L541.32 655.99L568.75 671.52V702.66L568.69 702.69L541.26 718.22L541.2 718.19L513.77 702.66V671.52L513.83 671.49L541.26 655.96V655.96ZM568.51 671.66L541.26 656.23L514.01 671.66V702.53L541.26 717.96L568.51 702.53V671.66Z" stroke="white" stroke-width="0.75" stroke-miterlimit="10"/>
<path d="M634.01 596.23L670.3 616.78V657.88L634.01 678.43L597.72 657.88V616.78L634.01 596.23V596.23ZM669.06 617.48L634.01 597.63L598.96 617.48V657.18L634.01 677.03L669.06 657.18V617.48V617.48Z" stroke="white" stroke-width="0.75" stroke-miterlimit="10"/>
<path opacity="0.5" d="M491.33 596.23L527.62 616.78V657.88L491.33 678.43L455.04 657.88V616.78L491.33 596.23V596.23ZM526.38 617.48L491.33 597.63L456.28 617.48V657.18L491.33 677.03L526.38 657.18V617.48V617.48Z" stroke="white" stroke-width="0.75" stroke-miterlimit="10"/>
<path opacity="0.5" d="M455.68 656.89L491.97 677.44V718.54L455.68 739.09L419.39 718.54V677.44L455.68 656.89V656.89ZM490.73 678.14L455.68 658.29L420.63 678.14V717.84L455.68 737.69L490.73 717.84V678.14Z" stroke="white" stroke-width="0.75" stroke-miterlimit="10"/>
<path opacity="0.5" d="M420.63 717.96L456.92 738.51V779.61L420.63 800.16L384.34 779.61V738.51L420.63 717.96V717.96ZM455.68 739.21L420.63 719.36L385.58 739.21V778.91L420.63 798.76L455.68 778.91V739.21Z" stroke="white" stroke-width="0.75" stroke-miterlimit="10"/>
<path opacity="0.5" d="M455.68 778.8L491.97 799.35V840.45L455.68 861L419.39 840.45V799.35L455.68 778.8ZM490.73 800.05L455.68 780.2L420.63 800.05V839.75L455.68 859.6L490.73 839.75V800.05Z" stroke="white" stroke-width="0.75" stroke-miterlimit="10"/>
<path opacity="0.5" d="M349.29 717.96L385.58 738.51V779.61L349.29 800.16L313 779.61V738.51L349.29 717.96V717.96ZM384.34 739.21L349.29 719.36L314.24 739.21V778.91L349.29 798.76L384.34 778.91V739.21Z" stroke="white" stroke-width="0.75" stroke-miterlimit="10"/>
<path opacity="0.5" d="M314.24 656.89L350.53 677.44V718.54L314.24 739.09L277.95 718.54V677.44L314.24 656.89V656.89ZM349.29 678.14L314.24 658.29L279.19 678.14V717.84L314.24 737.69L349.29 717.84V678.14Z" stroke="white" stroke-width="0.75" stroke-miterlimit="10"/>
<path opacity="0.3" d="M277.95 717.12L314.24 737.67V778.77L277.95 799.32L241.66 778.77V737.67L277.95 717.12ZM313 738.37L277.95 718.52L242.9 738.37V778.07L277.95 797.92L313 778.07V738.37Z" stroke="white" stroke-width="0.75" stroke-miterlimit="10"/>
<path d="M490.73 475.26L527.02 495.81V536.91L490.73 557.46L454.44 536.91V495.81L490.73 475.26V475.26ZM525.78 496.51L490.73 476.66L455.68 496.51V536.21L490.73 556.06L525.78 536.21V496.51Z" stroke="white" stroke-width="0.75" stroke-miterlimit="10"/>
<path d="M527.02 535.47L563.31 556.02V597.12L527.02 617.67L490.73 597.12V556.02L527.02 535.47V535.47ZM562.07 556.72L527.02 536.87L491.97 556.72V596.42L527.02 616.27L562.07 596.42V556.72V556.72Z" stroke="white" stroke-width="0.75" stroke-miterlimit="10"/>
<path d="M562.07 474.58L598.36 495.13V536.24L562.07 556.79L525.78 536.24V495.13L562.07 474.58V474.58ZM597.12 495.83L562.07 475.98L527.02 495.83V535.53L562.07 555.38L597.12 535.53V495.83Z" stroke="white" stroke-width="0.75" stroke-miterlimit="10"/>
<path d="M633.41 474.58L669.7 495.13V536.24L633.41 556.79L597.12 536.24V495.13L633.41 474.58V474.58ZM668.46 495.83L633.41 475.98L598.36 495.83V535.53L633.41 555.38L668.46 535.53V495.83Z" stroke="white" stroke-width="0.75" stroke-miterlimit="10"/>
<path d="M597.68 413.87L633.97 434.42V475.53L597.68 496.08L561.39 475.53V434.42L597.68 413.87V413.87ZM632.73 435.12L597.68 415.27L562.63 435.12V474.83L597.68 494.68L632.73 474.83V435.12Z" stroke="white" stroke-width="0.75" stroke-miterlimit="10"/>
<path opacity="0.6" d="M419.39 475.26L455.68 495.81V536.91L419.39 557.46L383.1 536.91V495.81L419.39 475.26V475.26ZM454.44 496.51L419.39 476.66L384.34 496.51V536.21L419.39 556.06L454.44 536.21V496.51Z" stroke="white" stroke-width="0.75" stroke-miterlimit="10"/>
<path opacity="0.6" d="M454.97 414.63L491.26 435.18V476.28L454.97 496.83L418.68 476.28V435.18L454.97 414.63ZM490.02 435.88L454.97 416.03L419.92 435.88V475.58L454.97 495.43L490.02 475.58V435.88Z" stroke="white" stroke-width="0.75" stroke-miterlimit="10"/>
<path opacity="0.6" d="M383.63 414.63L419.92 435.18V476.28L383.63 496.83L347.34 476.28V435.18L383.63 414.63ZM418.68 435.88L383.63 416.03L348.58 435.88V475.58L383.63 495.43L418.68 475.58V435.88Z" stroke="white" stroke-width="0.75" stroke-miterlimit="10"/>
<path opacity="0.5" d="M312.76 536.01L349.05 556.56V597.66L312.76 618.21L276.47 597.66V556.56L312.76 536.01V536.01ZM347.81 557.26L312.76 537.41L277.71 557.26V596.96L312.76 616.81L347.81 596.96V557.26V557.26Z" stroke="white" stroke-width="0.75" stroke-miterlimit="10"/>
<path opacity="0.5" d="M348.05 475.26L384.34 495.81V536.91L348.05 557.46L311.76 536.91V495.81L348.05 475.26V475.26ZM383.1 496.51L348.05 476.66L313 496.51V536.21L348.05 556.06L383.1 536.21V496.51Z" stroke="white" stroke-width="0.75" stroke-miterlimit="10"/>
<path opacity="0.5" d="M312.23 414.63L348.52 435.18V476.28L312.23 496.83L275.94 476.28V435.18L312.23 414.63ZM347.28 435.88L312.23 416.03L277.18 435.88V475.58L312.23 495.43L347.28 475.58V435.88Z" stroke="white" stroke-width="0.75" stroke-miterlimit="10"/>
<path opacity="0.5" d="M240.89 414.63L277.18 435.18V476.28L240.89 496.83L204.6 476.28V435.18L240.89 414.63ZM275.94 435.88L240.89 416.03L205.84 435.88V475.58L240.89 495.43L275.94 475.58V435.88Z" stroke="white" stroke-width="0.75" stroke-miterlimit="10"/>
<path d="M562.67 596.23L598.96 616.78V657.88L562.67 678.43L526.38 657.88V616.78L562.67 596.23V596.23ZM597.72 617.48L562.67 597.63L527.62 617.48V657.18L562.67 677.03L597.72 657.18V617.48V617.48Z" stroke="white" stroke-width="0.75" stroke-miterlimit="10"/>
<path opacity="0.6" d="M409.19 411.76L409.25 411.79L436.74 427.36V458.57L436.68 458.6L409.19 474.17L409.13 474.14L381.64 458.57V427.36L381.7 427.33L409.19 411.76ZM436.51 427.5L409.19 412.03L381.87 427.5V458.44L409.19 473.91L436.51 458.44V427.5Z" stroke="#D1E6E9" stroke-miterlimit="10"/>
<path opacity="0.6" d="M381.88 364.96L381.94 364.99L409.43 380.56V411.77L409.37 411.8L381.88 427.37L381.82 427.34L354.33 411.77V380.56L354.39 380.53L381.88 364.96ZM409.2 380.7L381.88 365.23L354.56 380.7V411.64L381.88 427.11L409.2 411.64V380.7Z" stroke="#D1E6E9" stroke-miterlimit="10"/>
<path opacity="0.6" d="M354.32 318.38L354.38 318.41L381.87 333.98V365.19L381.81 365.22L354.32 380.79L354.26 380.76L326.77 365.19V333.98L326.83 333.95L354.32 318.38V318.38ZM381.64 334.12L354.32 318.65L327 334.12V365.06L354.32 380.53L381.64 365.06V334.12Z" stroke="#D1E6E9" stroke-miterlimit="10"/>
<path opacity="0.5" d="M327.01 364.96L327.07 364.99L354.56 380.56V411.77L354.5 411.8L327.01 427.37L326.95 427.34L299.46 411.77V380.56L299.52 380.53L327.01 364.96ZM354.33 380.7L327.01 365.23L299.69 380.7V411.64L327.01 427.11L354.33 411.64V380.7Z" stroke="#D1E6E9" stroke-miterlimit="10"/>
<path d="M491.61 458.54L491.67 458.57L519.16 474.14V505.35L519.1 505.38L491.61 520.95L491.55 520.92L464.06 505.35V474.14L464.12 474.11L491.61 458.54ZM518.93 474.28L491.61 458.81L464.29 474.28V505.22L491.61 520.69L518.93 505.22V474.28Z" stroke="#D1E6E9" stroke-miterlimit="10"/>
<path d="M436.75 458.27L436.81 458.3L464.3 473.87V505.08L464.24 505.11L436.75 520.68L436.69 520.65L409.2 505.08V473.87L409.26 473.84L436.75 458.27ZM464.07 474.01L436.75 458.54L409.43 474.01V504.95L436.75 520.42L464.07 504.95V474.01Z" stroke="#D1E6E9" stroke-miterlimit="10"/>
<path d="M546.72 458.54L546.78 458.57L574.27 474.14V505.35L574.21 505.38L546.72 520.95L546.66 520.92L519.17 505.35V474.14L519.23 474.11L546.72 458.54ZM574.04 474.28L546.72 458.81L519.4 474.28V505.22L546.72 520.69L574.04 505.22V474.28Z" stroke="#D1E6E9" stroke-miterlimit="10"/>
<path d="M601.35 458.27L601.41 458.3L628.9 473.87V505.08L628.84 505.11L601.35 520.68L601.29 520.65L573.8 505.08V473.87L573.86 473.84L601.35 458.27ZM628.67 474.01L601.35 458.54L574.03 474.01V504.95L601.35 520.42L628.67 504.95V474.01Z" stroke="#D1E6E9" stroke-miterlimit="10"/>
<path d="M628.67 411.76L628.73 411.79L656.22 427.36V458.57L656.16 458.6L628.67 474.17L628.61 474.14L601.12 458.57V427.36L601.18 427.33L628.67 411.76ZM655.99 427.5L628.67 412.03L601.35 427.5V458.44L628.67 473.91L655.99 458.44V427.5Z" stroke="#D1E6E9" stroke-miterlimit="10"/>
<path d="M601.35 364.96L601.41 364.99L628.9 380.56V411.77L628.84 411.8L601.35 427.37L601.29 427.34L573.8 411.77V380.56L573.86 380.53L601.35 364.96ZM628.67 380.7L601.35 365.23L574.03 380.7V411.64L601.35 427.11L628.67 411.64V380.7Z" stroke="#D1E6E9" stroke-miterlimit="10"/>
<path d="M629.14 318.38L629.2 318.41L656.69 333.98V365.19L656.63 365.22L629.14 380.79L629.08 380.76L601.59 365.19V333.98L601.65 333.95L629.14 318.38V318.38ZM656.46 334.12L629.14 318.65L601.82 334.12V365.06L629.14 380.53L656.46 365.06V334.12Z" stroke="#D1E6E9" stroke-miterlimit="10"/>
<path d="M656.22 365.23L656.28 365.26L683.77 380.83V412.04L683.71 412.07L656.22 427.64L656.16 427.61L628.67 412.04V380.83L628.73 380.8L656.22 365.23ZM683.54 380.97L656.22 365.5L628.9 380.97V411.91L656.22 427.38L683.54 411.91V380.97Z" stroke="#D1E6E9" stroke-miterlimit="10"/>
<path d="M546.25 364.96L546.31 364.99L573.8 380.56V411.77L573.74 411.8L546.25 427.37L546.19 427.34L518.7 411.77V380.56L518.76 380.53L546.25 364.96ZM573.57 380.7L546.25 365.23L518.93 380.7V411.64L546.25 427.11L573.57 411.64V380.7Z" stroke="#D1E6E9" stroke-miterlimit="10"/>
<path d="M573.8 411.76L573.86 411.79L601.35 427.36V458.57L601.29 458.6L573.8 474.17L573.74 474.14L546.25 458.57V427.36L546.31 427.33L573.8 411.76ZM601.12 427.5L573.8 412.03L546.48 427.5V458.44L573.8 473.91L601.12 458.44V427.5Z" stroke="#D1E6E9" stroke-miterlimit="10"/>
<path d="M518.93 411.76L518.99 411.79L546.48 427.36V458.57L546.42 458.6L518.93 474.17L518.87 474.14L491.38 458.57V427.36L491.44 427.33L518.93 411.76ZM546.25 427.5L518.93 412.03L491.61 427.5V458.44L518.93 473.91L546.25 458.44V427.5Z" stroke="#D1E6E9" stroke-miterlimit="10"/>
<path d="M491.38 364.96L491.44 364.99L518.93 380.56V411.77L518.87 411.8L491.38 427.37L491.32 427.34L463.83 411.77V380.56L463.89 380.53L491.38 364.96ZM518.7 380.7L491.38 365.23L464.06 380.7V411.64L491.38 427.11L518.7 411.64V380.7Z" stroke="#D1E6E9" stroke-miterlimit="10"/>
<path d="M464.06 411.76L464.12 411.79L491.61 427.36V458.57L491.55 458.6L464.06 474.17L464 474.14L436.51 458.57V427.36L436.57 427.33L464.06 411.76ZM491.38 427.5L464.06 412.03L436.74 427.5V458.44L464.06 473.91L491.38 458.44V427.5Z" stroke="#D1E6E9" stroke-miterlimit="10"/>
<path opacity="0.3" d="M290.85 196.79L290.98 196.86L349.02 229.73V295.62L348.89 295.69L290.85 328.56L290.72 328.49L232.68 295.62V229.73L232.81 229.66L290.85 196.79V196.79ZM348.52 230.02L290.85 197.36L233.18 230.02V295.34L290.85 328L348.52 295.34V230.02Z" stroke="#A1D8DF" stroke-miterlimit="10"/>
<path opacity="0.6" d="M579.69 98.3599L579.82 98.4299L637.86 131.3V197.19L637.73 197.26L579.69 230.13L579.56 230.06L521.52 197.19V131.3L521.65 131.23L579.69 98.3599V98.3599ZM637.36 131.59L579.69 98.9299L522.02 131.59V196.9L579.69 229.56L637.36 196.9V131.59V131.59Z" stroke="#A1D8DF" stroke-miterlimit="10"/>
<path opacity="0.3" d="M521.52 0L521.65 0.0699997L579.69 32.94V98.83L579.56 98.9L521.52 131.77L521.39 131.7L463.35 98.83V32.94L463.48 32.87L521.52 0ZM579.19 33.23L521.52 0.57L463.85 33.23V98.55L521.52 131.21L579.19 98.55V33.23Z" stroke="#A1D8DF" stroke-miterlimit="10"/>
<path opacity="0.3" d="M637.35 0L637.48 0.0699997L695.52 32.94V98.83L695.39 98.9L637.35 131.77L637.22 131.7L579.18 98.83V32.94L579.31 32.87L637.35 0ZM695.02 33.23L637.35 0.57L579.68 33.23V98.55L637.35 131.21L695.02 98.55V33.23Z" stroke="#A1D8DF" stroke-miterlimit="10"/>
<path opacity="0.6" d="M463.85 98.3599L463.98 98.4299L522.02 131.3V197.19L521.89 197.26L463.85 230.13L463.72 230.06L405.68 197.19V131.3L405.81 131.23L463.85 98.3599V98.3599ZM521.52 131.59L463.85 98.9299L406.18 131.59V196.9L463.85 229.56L521.52 196.9V131.59V131.59Z" stroke="#A1D8DF" stroke-miterlimit="10"/>
<path opacity="0.3" d="M116.85 295.33L116.98 295.4L175.02 328.27V394.16L174.89 394.23L116.85 427.1L116.72 427.03L58.6802 394.16V328.27L58.8102 328.2L116.85 295.33ZM174.52 328.56L116.85 295.9L59.1802 328.56V393.88L116.85 426.54L174.52 393.88V328.56V328.56Z" stroke="#A1D8DF" stroke-miterlimit="10"/>
<path d="M522.52 393.63L522.65 393.7L580.69 426.57V492.46L580.56 492.53L522.52 525.4L522.39 525.33L464.35 492.46V426.57L464.48 426.5L522.52 393.63ZM580.19 426.86L522.52 394.2L464.85 426.86V492.18L522.52 524.84L580.19 492.18V426.86V426.86Z" stroke="#A1D8DF" stroke-miterlimit="10"/>
<path d="M464.35 295.33L464.48 295.4L522.52 328.27V394.16L522.39 394.23L464.35 427.1L464.22 427.03L406.18 394.16V328.27L406.31 328.2L464.35 295.33ZM522.02 328.56L464.35 295.9L406.68 328.56V393.88L464.35 426.54L522.02 393.88V328.56V328.56Z" stroke="#A1D8DF" stroke-miterlimit="10"/>
<path d="M580.19 295.33L580.32 295.4L638.36 328.27V394.16L638.23 394.23L580.19 427.1L580.06 427.03L522.02 394.16V328.27L522.15 328.2L580.19 295.33ZM637.86 328.56L580.19 295.9L522.52 328.56V393.88L580.19 426.54L637.86 393.88V328.56V328.56Z" stroke="#A1D8DF" stroke-miterlimit="10"/>
<path d="M637.85 196.79L637.98 196.86L696.02 229.73V295.62L695.89 295.69L637.85 328.56L637.72 328.49L579.68 295.62V229.73L579.81 229.66L637.85 196.79V196.79ZM695.52 230.02L637.85 197.36L580.18 230.02V295.34L637.85 328L695.52 295.34V230.02Z" stroke="#A1D8DF" stroke-miterlimit="10"/>
<path d="M522.02 196.79L522.15 196.86L580.19 229.73V295.62L580.06 295.69L522.02 328.56L521.89 328.49L463.85 295.62V229.73L463.98 229.66L522.02 196.79V196.79ZM579.69 230.02L522.02 197.36L464.35 230.02V295.34L522.02 328L579.69 295.34V230.02Z" stroke="#A1D8DF" stroke-miterlimit="10"/>
<path d="M406.69 393.63L406.82 393.7L464.86 426.57V492.46L464.73 492.53L406.69 525.4L406.56 525.33L348.52 492.46V426.57L348.65 426.5L406.69 393.63ZM464.36 426.86L406.69 394.2L349.02 426.86V492.18L406.69 524.84L464.36 492.18V426.86V426.86Z" stroke="#A1D8DF" stroke-miterlimit="10"/>
<path opacity="0.6" d="M348.52 295.33L348.65 295.4L406.69 328.27V394.16L406.56 394.23L348.52 427.1L348.39 427.03L290.35 394.16V328.27L290.48 328.2L348.52 295.33ZM406.19 328.56L348.52 295.9L290.85 328.56V393.88L348.52 426.54L406.19 393.88V328.56V328.56Z" stroke="#A1D8DF" stroke-miterlimit="10"/>
<path d="M290.35 393.63L290.48 393.7L348.52 426.57V492.46L348.39 492.53L290.35 525.4L290.22 525.33L232.18 492.46V426.57L232.31 426.5L290.35 393.63ZM348.02 426.86L290.35 394.2L232.68 426.86V492.18L290.35 524.84L348.02 492.18V426.86V426.86Z" stroke="#A1D8DF" stroke-miterlimit="10"/>
<path opacity="0.6" d="M174.51 393.63L174.64 393.7L232.68 426.57V492.46L232.55 492.53L174.51 525.4L174.38 525.33L116.34 492.46V426.57L116.47 426.5L174.51 393.63ZM232.18 426.86L174.51 394.2L116.84 426.86V492.18L174.51 524.84L232.18 492.18V426.86V426.86Z" stroke="#A1D8DF" stroke-miterlimit="10"/>
<path opacity="0.6" d="M58.17 392.92L58.3 392.99L116.34 425.86V491.75L116.21 491.82L58.17 524.69L58.04 524.62L0 491.75V425.86L0.130005 425.79L58.17 392.92ZM115.84 426.15L58.17 393.49L0.5 426.15V491.47L58.17 524.13L115.84 491.47V426.15Z" stroke="#A1D8DF" stroke-miterlimit="10"/>
<path d="M597.68 414.5L633.97 435.05V476.15L597.68 496.7L561.39 476.15V435.05L597.68 414.5ZM632.73 435.75L597.68 415.9L562.63 435.75V475.45L597.68 495.3L632.73 475.45V435.75Z" stroke="white" stroke-width="0.75" stroke-miterlimit="10"/>
<path opacity="0.6" d="M454.97 415.25L491.26 435.8V476.9L454.97 497.45L418.68 476.9V435.8L454.97 415.25ZM490.02 436.5L454.97 416.65L419.92 436.5V476.2L454.97 496.05L490.02 476.2V436.5Z" stroke="white" stroke-width="0.75" stroke-miterlimit="10"/>
<path opacity="0.6" d="M383.63 415.25L419.92 435.8V476.9L383.63 497.45L347.34 476.9V435.8L383.63 415.25ZM418.68 436.5L383.63 416.65L348.58 436.5V476.2L383.63 496.05L418.68 476.2V436.5Z" stroke="white" stroke-width="0.75" stroke-miterlimit="10"/>
<path opacity="0.5" d="M312.23 415.25L348.52 435.8V476.9L312.23 497.45L275.94 476.9V435.8L312.23 415.25ZM347.28 436.5L312.23 416.65L277.18 436.5V476.2L312.23 496.05L347.28 476.2V436.5Z" stroke="white" stroke-width="0.75" stroke-miterlimit="10"/>
<path opacity="0.5" d="M240.89 415.25L277.18 435.8V476.9L240.89 497.45L204.6 476.9V435.8L240.89 415.25ZM275.94 436.5L240.89 416.65L205.84 436.5V476.2L240.89 496.05L275.94 476.2V436.5Z" stroke="white" stroke-width="0.75" stroke-miterlimit="10"/>
</g>
<defs>
<clipPath id="clip0_154_652">
<rect width="638" height="1017" fill="white"/>
</clipPath>
</defs>
</svg>
