<svg width="645" height="921" viewBox="0 0 645 921" fill="none" xmlns="http://www.w3.org/2000/svg">
<path opacity="0.5" d="M272.65 518.67L272.71 518.7L300.2 534.27V565.48L300.14 565.51L272.65 581.08L272.59 581.05L245.1 565.48V534.27L245.16 534.24L272.65 518.67V518.67ZM299.97 534.41L272.65 518.94L245.33 534.41V565.35L272.65 580.82L299.97 565.35V534.41Z" stroke="white" stroke-width="0.75" stroke-miterlimit="10"/>
<path opacity="0.3" d="M327.39 518.67L327.45 518.7L354.94 534.27V565.48L354.88 565.51L327.39 581.08L327.33 581.05L299.84 565.48V534.27L299.9 534.24L327.39 518.67V518.67ZM354.71 534.41L327.39 518.94L300.07 534.41V565.35L327.39 580.82L354.71 565.35V534.41Z" stroke="white" stroke-width="0.75" stroke-miterlimit="10"/>
<path opacity="0.5" d="M135.59 378.25L135.65 378.28L163.14 393.85V425.06L163.08 425.09L135.59 440.66L135.53 440.63L108.04 425.06V393.85L108.1 393.82L135.59 378.25ZM162.91 393.99L135.59 378.52L108.27 393.99V424.93L135.59 440.4L162.91 424.93V393.99V393.99Z" stroke="white" stroke-width="0.75" stroke-miterlimit="10"/>
<path opacity="0.5" d="M107.9 331.68L107.96 331.71L135.45 347.28V378.49L135.39 378.52L107.9 394.09L107.84 394.06L80.3496 378.49V347.28L80.4096 347.25L107.9 331.68V331.68ZM135.22 347.42L107.9 331.95L80.5796 347.42V378.36L107.9 393.83L135.22 378.36V347.42Z" stroke="white" stroke-width="0.75" stroke-miterlimit="10"/>
<path opacity="0.5" d="M135.22 284.97L135.28 285L162.77 300.57V331.78L162.71 331.81L135.22 347.38L135.16 347.35L107.67 331.78V300.58L107.73 300.55L135.22 284.98V284.97ZM162.54 300.71L135.22 285.24L107.9 300.71V331.65L135.22 347.12L162.54 331.65V300.71Z" stroke="white" stroke-width="0.75" stroke-miterlimit="10"/>
<path opacity="0.5" d="M162.529 238.64L162.589 238.67L190.079 254.24V285.46L190.019 285.49L162.529 301.06L162.469 301.03L134.979 285.46V254.25L135.039 254.22L162.529 238.65V238.64ZM189.849 254.38L162.529 238.91L135.209 254.38V285.32L162.529 300.79L189.849 285.32V254.38Z" stroke="white" stroke-width="0.75" stroke-miterlimit="10"/>
<path opacity="0.5" d="M162.529 331.68L162.589 331.71L190.079 347.28V378.49L190.019 378.52L162.529 394.09L162.469 394.06L134.979 378.49V347.28L135.039 347.25L162.529 331.68ZM189.849 347.42L162.529 331.95L135.209 347.42V378.36L162.529 393.83L189.849 378.36V347.42Z" stroke="white" stroke-width="0.75" stroke-miterlimit="10"/>
<path opacity="0.5" d="M80.3498 285.24L80.4098 285.27L107.9 300.84V332.05L107.84 332.08L80.3498 347.65L80.2898 347.62L52.7998 332.05V300.85L52.8598 300.82L80.3498 285.24ZM107.67 300.98L80.3498 285.51L53.0298 300.98V331.92L80.3498 347.39L107.67 331.92V300.98Z" stroke="white" stroke-width="0.75" stroke-miterlimit="10"/>
<path opacity="0.5" d="M107.43 238.37L107.49 238.4L134.98 253.97V285.19L134.92 285.22L107.43 300.79L107.37 300.76L79.8701 285.19V253.98L79.9301 253.95L107.42 238.38L107.43 238.37ZM134.75 254.11L107.43 238.64L80.1101 254.11V285.05L107.43 300.52L134.75 285.05V254.11V254.11Z" stroke="white" stroke-width="0.75" stroke-miterlimit="10"/>
<path opacity="0.5" d="M80.59 378.47L80.65 378.5L108.14 394.07V425.28L108.08 425.31L80.59 440.88L80.53 440.85L53.04 425.28V394.07L53.1 394.04L80.59 378.47ZM107.91 394.21L80.59 378.74L53.27 394.21V425.15L80.59 440.62L107.91 425.15V394.21V394.21Z" stroke="white" stroke-width="0.75" stroke-miterlimit="10"/>
<path opacity="0.5" d="M190.329 378.25L190.389 378.28L217.879 393.85V425.06L217.819 425.09L190.329 440.66L190.269 440.63L162.779 425.06V393.85L162.839 393.82L190.329 378.25V378.25ZM217.649 393.99L190.329 378.52L163.009 393.99V424.93L190.329 440.4L217.649 424.93V393.99V393.99Z" stroke="white" stroke-width="0.75" stroke-miterlimit="10"/>
<path opacity="0.5" d="M217.59 425.31L217.65 425.34L245.14 440.91V472.12L245.08 472.15L217.59 487.72L217.53 487.69L190.04 472.12V440.91L190.1 440.88L217.59 425.31ZM244.91 441.05L217.59 425.58L190.27 441.05V471.99L217.59 487.46L244.91 471.99V441.05Z" stroke="white" stroke-width="0.75" stroke-miterlimit="10"/>
<path opacity="0.5" d="M272.46 425.31L272.52 425.34L300.01 440.91V472.12L299.95 472.15L272.46 487.72L272.4 487.69L244.91 472.12V440.91L244.97 440.88L272.46 425.31ZM299.78 441.05L272.46 425.58L245.14 441.05V471.99L272.46 487.46L299.78 471.99V441.05Z" stroke="white" stroke-width="0.75" stroke-miterlimit="10"/>
<path opacity="0.5" d="M108.22 425.31L108.28 425.34L135.77 440.91V472.12L135.71 472.15L108.22 487.72L108.16 487.69L80.6699 472.12V440.91L80.7299 440.88L108.22 425.31ZM135.54 441.05L108.22 425.58L80.8999 441.05V471.99L108.22 487.46L135.54 471.99V441.05Z" stroke="white" stroke-width="0.75" stroke-miterlimit="10"/>
<path opacity="0.5" d="M80.6701 472.1L80.7301 472.13L108.22 487.7V518.91L108.16 518.94L80.6701 534.51L80.6101 534.48L53.1201 518.91V487.7L53.1801 487.67L80.6701 472.1V472.1ZM107.99 487.84L80.6701 472.37L53.3501 487.84V518.78L80.6701 534.25L107.99 518.78V487.84V487.84Z" stroke="white" stroke-width="0.75" stroke-miterlimit="10"/>
<path opacity="0.5" d="M162.959 425.31L163.019 425.34L190.509 440.91V472.12L190.449 472.15L162.959 487.72L162.899 487.69L135.409 472.12V440.91L135.469 440.88L162.959 425.31ZM190.279 441.05L162.959 425.58L135.639 441.05V471.99L162.959 487.46L190.279 471.99V441.05Z" stroke="white" stroke-width="0.75" stroke-miterlimit="10"/>
<path opacity="0.5" d="M135.539 472.17L135.599 472.2L163.089 487.77V518.98L163.029 519.01L135.539 534.58L135.479 534.55L107.989 518.98V487.77L108.049 487.74L135.539 472.17V472.17ZM162.859 487.91L135.539 472.44L108.219 487.91V518.85L135.539 534.32L162.859 518.85V487.91V487.91Z" stroke="white" stroke-width="0.75" stroke-miterlimit="10"/>
<path opacity="0.5" d="M190.279 472.17L190.339 472.2L217.829 487.77V518.98L217.77 519.01L190.279 534.58L190.219 534.55L162.729 518.98V487.77L162.789 487.74L190.279 472.17V472.17ZM217.6 487.91L190.279 472.44L162.959 487.91V518.85L190.279 534.32L217.6 518.85V487.91V487.91Z" stroke="white" stroke-width="0.75" stroke-miterlimit="10"/>
<path d="M341.98 494.55L342.04 494.58L369.53 510.15V541.36L369.47 541.39L341.98 556.96L341.92 556.93L314.43 541.36V510.15L314.49 510.12L341.98 494.55ZM369.3 510.29L341.98 494.82L314.66 510.29V541.23L341.98 556.7L369.3 541.23V510.29Z" stroke="#D1E6E9" stroke-miterlimit="10"/>
<path d="M122.94 401.68L123 401.71L150.49 417.28V448.49L150.43 448.52L122.94 464.09L122.88 464.06L95.3896 448.49V417.28L95.4496 417.25L122.94 401.68V401.68ZM150.26 417.42L122.94 401.95L95.6196 417.42V448.36L122.94 463.83L150.26 448.36V417.42Z" stroke="#D1E6E9" stroke-miterlimit="10"/>
<path d="M177.81 401.68L177.87 401.71L205.36 417.28V448.49L205.3 448.52L177.81 464.09L177.75 464.06L150.26 448.49V417.28L150.32 417.25L177.81 401.68V401.68ZM205.13 417.42L177.81 401.95L150.49 417.42V448.36L177.81 463.83L205.13 448.36V417.42Z" stroke="#D1E6E9" stroke-miterlimit="10"/>
<path d="M95.8596 448.76L95.9196 448.79L123.41 464.36V495.57L123.35 495.6L95.8596 511.17L95.7996 511.14L68.3096 495.57V464.36L68.3696 464.33L95.8596 448.76ZM123.18 464.5L95.8596 449.03L68.5396 464.5V495.44L95.8596 510.91L123.18 495.44V464.5Z" stroke="#D1E6E9" stroke-miterlimit="10"/>
<path d="M68.55 495.81L68.61 495.84L96.1 511.41V542.62L96.04 542.65L68.55 558.22L68.49 558.19L41 542.62V511.41L41.06 511.38L68.55 495.81V495.81ZM95.87 511.55L68.55 496.08L41.23 511.55V542.49L68.55 557.96L95.87 542.49V511.55V511.55Z" stroke="#D1E6E9" stroke-miterlimit="10"/>
<path d="M95.8596 542.86L95.9196 542.89L123.41 558.46V589.67L123.35 589.7L95.8596 605.27L95.7996 605.24L68.3096 589.67V558.46L68.3696 558.43L95.8596 542.86V542.86ZM123.18 558.6L95.8596 543.13L68.5396 558.6V589.54L95.8596 605.01L123.18 589.54V558.6Z" stroke="#D1E6E9" stroke-miterlimit="10"/>
<path d="M68.55 589.4L68.61 589.43L96.1 605V636.21L96.04 636.24L68.55 651.81L68.49 651.78L41 636.21V605L41.06 604.97L68.55 589.4ZM95.87 605.14L68.55 589.67L41.23 605.14V636.08L68.55 651.55L95.87 636.08V605.14Z" stroke="#D1E6E9" stroke-miterlimit="10"/>
<path opacity="0.6" d="M314.669 448.05L314.729 448.08L342.219 463.65V494.86L342.159 494.89L314.669 510.46L314.609 510.43L287.119 494.86V463.65L287.179 463.62L314.669 448.05V448.05ZM341.989 463.79L314.669 448.32L287.349 463.79V494.73L314.669 510.2L341.989 494.73V463.79Z" stroke="#D1E6E9" stroke-miterlimit="10"/>
<path d="M287.11 401.77L287.17 401.8L314.66 417.37V448.58L314.6 448.61L287.11 464.18L287.05 464.15L259.56 448.58V417.37L259.62 417.34L287.11 401.77V401.77ZM314.43 417.51L287.11 402.04L259.79 417.51V448.45L287.11 463.92L314.43 448.45V417.51Z" stroke="#D1E6E9" stroke-miterlimit="10"/>
<path opacity="0.6" d="M396.61 494.55L396.67 494.58L424.16 510.15V541.36L424.1 541.39L396.61 556.96L396.55 556.93L369.06 541.36V510.15L369.12 510.12L396.61 494.55ZM423.93 510.29L396.61 494.82L369.29 510.29V541.23L396.61 556.7L423.93 541.23V510.29Z" stroke="#D1E6E9" stroke-miterlimit="10"/>
<path opacity="0.5" d="M423.93 541.28L423.99 541.31L451.48 556.88V588.09L451.42 588.12L423.93 603.69L423.87 603.66L396.38 588.09V556.88L396.44 556.85L423.93 541.28ZM451.25 557.02L423.93 541.55L396.61 557.02V587.96L423.93 603.43L451.25 587.96V557.02Z" stroke="#D1E6E9" stroke-miterlimit="10"/>
<path d="M341.98 401.5L342.04 401.53L369.53 417.1V448.31L369.47 448.34L341.98 463.91L341.92 463.88L314.43 448.31V417.1L314.49 417.07L341.98 401.5ZM369.3 417.24L341.98 401.77L314.66 417.24V448.18L341.98 463.65L369.3 448.18V417.24Z" stroke="#D1E6E9" stroke-miterlimit="10"/>
<path opacity="0.6" d="M369.3 448.05L369.36 448.08L396.85 463.65V494.86L396.79 494.89L369.3 510.46L369.24 510.43L341.75 494.86V463.65L341.81 463.62L369.3 448.05ZM396.62 463.79L369.3 448.32L341.98 463.79V494.73L369.3 510.2L396.62 494.73V463.79Z" stroke="#D1E6E9" stroke-miterlimit="10"/>
<path d="M95.3901 354.81L95.4501 354.84L122.94 370.41V401.62L122.88 401.65L95.3901 417.22L95.3301 417.19L67.8301 401.63V370.42L67.8901 370.39L95.3801 354.82L95.3901 354.81ZM122.71 370.55L95.3901 355.08L68.0701 370.55V401.49L95.3901 416.96L122.71 401.49V370.55V370.55Z" stroke="#D1E6E9" stroke-miterlimit="10"/>
<path d="M369.3 354.81L369.36 354.84L396.85 370.41V401.62L396.79 401.65L369.3 417.22L369.24 417.19L341.75 401.62V370.41L341.81 370.38L369.3 354.81ZM396.62 370.55L369.3 355.08L341.98 370.55V401.49L369.3 416.96L396.62 401.49V370.55V370.55Z" stroke="#D1E6E9" stroke-miterlimit="10"/>
<path d="M314.669 355.08L314.729 355.11L342.219 370.68V401.89L342.159 401.92L314.669 417.49L314.609 417.46L287.119 401.89V370.68L287.179 370.65L314.669 355.08V355.08ZM341.989 370.82L314.669 355.35L287.349 370.82V401.76L314.669 417.23L341.989 401.76V370.82Z" stroke="#D1E6E9" stroke-miterlimit="10"/>
<path d="M341.739 308.45L341.799 308.48L369.289 324.05V355.26L369.229 355.29L341.739 370.86L341.679 370.83L314.189 355.26V324.05L314.249 324.02L341.739 308.45V308.45ZM369.059 324.19L341.739 308.72L314.419 324.19V355.13L341.739 370.6L369.059 355.13V324.19Z" stroke="#D1E6E9" stroke-miterlimit="10"/>
<path d="M287.11 308.45L287.17 308.48L314.66 324.05V355.26L314.6 355.29L287.11 370.86L287.05 370.83L259.56 355.26V324.05L259.62 324.02L287.11 308.45V308.45ZM314.43 324.19L287.11 308.72L259.79 324.19V355.13L287.11 370.6L314.43 355.13V324.19Z" stroke="#D1E6E9" stroke-miterlimit="10"/>
<path d="M259.8 355.08L259.86 355.11L287.35 370.68V401.89L287.29 401.92L259.8 417.49L259.74 417.46L232.25 401.89V370.68L232.31 370.65L259.8 355.08V355.08ZM287.12 370.82L259.8 355.35L232.48 370.82V401.76L259.8 417.23L287.12 401.76V370.82Z" stroke="#D1E6E9" stroke-miterlimit="10"/>
<path d="M259.56 261.93L259.62 261.96L287.11 277.54V308.75L287.05 308.78L259.56 324.35L259.5 324.32L232.01 308.75V277.54L232.07 277.51L259.56 261.94V261.93ZM286.87 277.67L259.55 262.2L232.24 277.67V308.61L259.56 324.08L286.88 308.61V277.67H286.87Z" stroke="#D1E6E9" stroke-miterlimit="10"/>
<path opacity="0.6" d="M232.44 215.4L232.5 215.43L259.99 231V262.21L259.93 262.24L232.44 277.82L232.38 277.79L204.89 262.22V231.01L204.95 230.98L232.44 215.41V215.4ZM259.76 231.14L232.44 215.67L205.12 231.14V262.08L232.44 277.55L259.76 262.08V231.14V231.14Z" stroke="#D1E6E9" stroke-miterlimit="10"/>
<path opacity="0.6" d="M287.11 215.4L287.17 215.43L314.66 231V262.21L314.6 262.24L287.11 277.82L287.05 277.79L259.56 262.22V231.01L259.62 230.98L287.11 215.41V215.4ZM314.43 231.14L287.11 215.67L259.79 231.14V262.08L287.11 277.55L314.43 262.08V231.14V231.14Z" stroke="#D1E6E9" stroke-miterlimit="10"/>
<path d="M533.899 261.55L533.959 261.58L561.459 277.15V308.36L561.399 308.39L533.909 323.96L533.849 323.93L506.359 308.36V277.15L506.419 277.12L533.909 261.55H533.899ZM561.219 277.29L533.899 261.82L506.589 277.29V308.23L533.909 323.7L561.229 308.23V277.29H561.219Z" stroke="#D1E6E9" stroke-miterlimit="10"/>
<path d="M479.03 261.55L479.09 261.58L506.59 277.15V308.36L506.53 308.39L479.04 323.96L478.98 323.93L451.49 308.36V277.15L451.55 277.12L479.04 261.55H479.03ZM506.35 277.29L479.03 261.82L451.72 277.29V308.23L479.04 323.7L506.36 308.23V277.29H506.35Z" stroke="#D1E6E9" stroke-miterlimit="10"/>
<path d="M588.77 261.55L588.83 261.58L616.32 277.15V308.36L616.26 308.39L588.77 323.96L588.71 323.93L561.22 308.36V277.15L561.28 277.12L588.77 261.55ZM616.09 277.29L588.77 261.82L561.46 277.29V308.23L588.78 323.7L616.1 308.23V277.29H616.09Z" stroke="#D1E6E9" stroke-miterlimit="10"/>
<path d="M204.89 261.93L204.95 261.96L232.44 277.54V308.75L232.38 308.78L204.89 324.35L204.83 324.32L177.34 308.75V277.54L177.4 277.51L204.89 261.94V261.93ZM232.2 277.67L204.88 262.2L177.57 277.67V308.61L204.89 324.08L232.21 308.61V277.67H232.2Z" stroke="#D1E6E9" stroke-miterlimit="10"/>
<path d="M177.57 215.4L177.63 215.43L205.12 231V262.21L205.06 262.24L177.57 277.82L177.51 277.79L150.02 262.22V231.01L150.08 230.98L177.57 215.41V215.4ZM204.89 231.14L177.57 215.67L150.25 231.14V262.08L177.57 277.55L204.89 262.08V231.14V231.14Z" stroke="#D1E6E9" stroke-miterlimit="10"/>
<path opacity="0.6" d="M424.159 448.05L424.219 448.08L451.709 463.65V494.86L451.649 494.89L424.159 510.46L424.099 510.43L396.609 494.86V463.65L396.669 463.62L424.159 448.05ZM451.479 463.79L424.159 448.32L396.839 463.79V494.73L424.159 510.2L451.479 494.73V463.79Z" stroke="#D1E6E9" stroke-miterlimit="10"/>
<path opacity="0.6" d="M424.159 354.81L424.219 354.84L451.709 370.41V401.62L451.649 401.65L424.159 417.22L424.099 417.19L396.609 401.62V370.41L396.669 370.38L424.159 354.81ZM451.479 370.55L424.159 355.08L396.839 370.55V401.49L424.159 416.96L451.479 401.49V370.55V370.55Z" stroke="#D1E6E9" stroke-miterlimit="10"/>
<path opacity="0.5" d="M451.48 308.18L451.54 308.21L479.03 323.78V354.99L478.97 355.02L451.48 370.59L451.42 370.56L423.93 354.99V323.78L423.99 323.75L451.48 308.18V308.18ZM478.8 323.92L451.48 308.45L424.16 323.92V354.86L451.48 370.33L478.8 354.86V323.92V323.92Z" stroke="#D1E6E9" stroke-miterlimit="10"/>
<path opacity="0.5" d="M506.35 308.18L506.41 308.21L533.9 323.78V354.99L533.84 355.02L506.35 370.59L506.29 370.56L478.8 354.99V323.78L478.86 323.75L506.35 308.18V308.18ZM533.67 323.92L506.35 308.45L479.03 323.92V354.86L506.35 370.33L533.67 354.86V323.92V323.92Z" stroke="#D1E6E9" stroke-miterlimit="10"/>
<path opacity="0.5" d="M506.589 215.26L506.649 215.29L534.139 230.86V262.07L534.079 262.1L506.589 277.67L506.529 277.64L479.039 262.07V230.86L479.099 230.83L506.589 215.26ZM533.909 231L506.589 215.53L479.269 231V261.94L506.589 277.41L533.909 261.94V231V231Z" stroke="#D1E6E9" stroke-miterlimit="10"/>
<path opacity="0.5" d="M616.089 308.06L616.149 308.09L643.639 323.66V354.87L643.579 354.9L616.089 370.47L616.029 370.44L588.539 354.87V323.66L588.599 323.63L616.089 308.06V308.06ZM643.409 323.8L616.089 308.33L588.769 323.8V354.74L616.089 370.21L643.409 354.74V323.8Z" stroke="#D1E6E9" stroke-miterlimit="10"/>
<path opacity="0.5" d="M616.32 215.26L616.38 215.29L643.87 230.86V262.07L643.81 262.1L616.32 277.67L616.26 277.64L588.77 262.07V230.86L588.83 230.83L616.32 215.26ZM643.64 231L616.32 215.53L589 231V261.94L616.32 277.41L643.64 261.94V231V231Z" stroke="#D1E6E9" stroke-miterlimit="10"/>
<path opacity="0.5" d="M561.46 215.26L561.52 215.29L589.01 230.86V262.07L588.95 262.1L561.46 277.67L561.4 277.64L533.91 262.07V230.86L533.97 230.83L561.46 215.26V215.26ZM588.78 231L561.46 215.53L534.14 231V261.94L561.46 277.41L588.78 261.94V231V231Z" stroke="#D1E6E9" stroke-miterlimit="10"/>
<path opacity="0.3" d="M451.72 215.26L451.78 215.29L479.27 230.86V262.07L479.21 262.1L451.72 277.67L451.66 277.64L424.17 262.07V230.86L424.23 230.83L451.72 215.26ZM479.04 231L451.72 215.53L424.4 231V261.94L451.72 277.41L479.04 261.94V231V231Z" stroke="#D1E6E9" stroke-miterlimit="10"/>
<path d="M150.489 354.81L150.549 354.84L178.039 370.41V401.62L177.979 401.65L150.489 417.22L150.429 417.19L122.939 401.62V370.41L122.999 370.38L150.489 354.81ZM177.809 370.55L150.489 355.08L123.169 370.55V401.49L150.489 416.96L177.809 401.49V370.55V370.55Z" stroke="#D1E6E9" stroke-miterlimit="10"/>
<path d="M123.18 308.18L123.24 308.21L150.73 323.78V354.99L150.67 355.02L123.18 370.59L123.12 370.56L95.6299 354.99V323.78L95.6899 323.75L123.18 308.18V308.18ZM150.5 323.92L123.18 308.45L95.8599 323.92V354.86L123.18 370.33L150.5 354.86V323.92V323.92Z" stroke="#D1E6E9" stroke-miterlimit="10"/>
<path d="M150.26 261.93L150.32 261.96L177.81 277.54V308.75L177.75 308.78L150.26 324.35L150.2 324.32L122.71 308.75V277.54L122.77 277.51L150.26 261.94V261.93ZM177.57 277.67L150.25 262.2L122.94 277.67V308.61L150.26 324.08L177.58 308.61V277.67H177.57Z" stroke="#D1E6E9" stroke-miterlimit="10"/>
<path d="M122.699 215.4L122.759 215.43L150.249 231V262.21L150.189 262.24L122.699 277.82L122.639 277.79L95.1494 262.21V231L95.2094 230.97L122.699 215.4ZM150.019 231.14L122.699 215.67L95.3794 231.14V262.08L122.699 277.55L150.019 262.08V231.14V231.14Z" stroke="#D1E6E9" stroke-miterlimit="10"/>
<path d="M95.3901 261.93L95.4501 261.96L122.94 277.54V308.75L122.88 308.78L95.3901 324.35L95.3301 324.32L67.8301 308.75V277.54L67.8901 277.51L95.3901 261.93ZM122.7 277.67L95.3901 262.2L68.0701 277.67V308.61L95.3901 324.08L122.71 308.61V277.67H122.7Z" stroke="#D1E6E9" stroke-miterlimit="10"/>
<path d="M67.8293 215.4L67.8893 215.43L95.3793 231V262.21L95.3193 262.24L67.8293 277.82L67.7693 277.79L40.2793 262.21V231L40.3393 230.97L67.8293 215.4ZM95.1493 231.14L67.8293 215.67L40.5093 231.14V262.08L67.8293 277.55L95.1493 262.08V231.14V231.14Z" stroke="#D1E6E9" stroke-miterlimit="10"/>
<path d="M314.43 261.93L314.49 261.96L341.98 277.54V308.75L341.92 308.78L314.43 324.35L314.37 324.32L286.88 308.75V277.54L286.94 277.51L314.43 261.94V261.93ZM341.75 277.67L314.43 262.2L287.11 277.67V308.61L314.43 324.08L341.75 308.61V277.67V277.67Z" stroke="#D1E6E9" stroke-miterlimit="10"/>
<path d="M369.3 261.93L369.36 261.96L396.85 277.54V308.75L396.79 308.78L369.3 324.35L369.24 324.32L341.75 308.75V277.54L341.81 277.51L369.3 261.94V261.93ZM396.62 277.67L369.3 262.2L341.98 277.67V308.61L369.3 324.08L396.62 308.61V277.67V277.67Z" stroke="#D1E6E9" stroke-miterlimit="10"/>
<path d="M117.85 295.6L117.98 295.67L176.02 328.54V394.44L175.89 394.51L117.85 427.38L117.72 427.31L59.6797 394.44V328.55L59.8097 328.48L117.85 295.6ZM175.52 328.83L117.85 296.17L60.1797 328.83V394.15L117.85 426.81L175.52 394.15V328.83Z" stroke="#A1D8DF" stroke-miterlimit="10"/>
<path d="M59.6798 394.1L59.8098 394.17L117.85 427.04V492.93L117.72 493L59.6798 525.87L59.5498 525.8L1.50977 492.93V427.04L1.63976 426.97L59.6798 394.1ZM117.35 427.33L59.6798 394.67L2.00977 427.33V492.65L59.6798 525.3L117.35 492.64V427.32V427.33Z" stroke="#A1D8DF" stroke-miterlimit="10"/>
<path d="M117.85 492.34L117.98 492.41L176.02 525.28V591.17L175.89 591.24L117.85 624.11L117.72 624.04L59.6797 591.17V525.28L59.8097 525.21L117.85 492.34ZM175.52 525.57L117.85 492.91L60.1797 525.57V590.89L117.85 623.55L175.52 590.89V525.57V525.57Z" stroke="#A1D8DF" stroke-miterlimit="10"/>
<path d="M60.1798 590.62L60.3098 590.69L118.35 623.56V689.45L118.22 689.52L60.1798 722.4L60.0498 722.33L2.00977 689.46V623.57L2.13976 623.5L60.1798 590.62ZM117.85 623.85L60.1798 591.19L2.50976 623.85V689.17L60.1798 721.83L117.85 689.17V623.85Z" stroke="#A1D8DF" stroke-miterlimit="10"/>
<path d="M117.34 689.12L117.47 689.19L175.51 722.06V787.95L175.38 788.02L117.34 820.89L117.21 820.82L59.1699 787.96V722.07L59.2999 722L117.34 689.13V689.12ZM175.01 722.35L117.34 689.69L59.6799 722.35V787.67L117.35 820.33L175.02 787.67V722.35H175.01Z" stroke="#A1D8DF" stroke-miterlimit="10"/>
<path opacity="0.6" d="M233.68 295.6L233.81 295.67L291.85 328.54V394.44L291.72 394.51L233.68 427.38L233.55 427.31L175.51 394.44V328.55L175.64 328.48L233.68 295.61V295.6ZM291.35 328.83L233.68 296.17L176.01 328.83V394.15L233.68 426.81L291.35 394.15V328.83Z" stroke="#A1D8DF" stroke-miterlimit="10"/>
<path opacity="0.3" d="M291.85 394.1L291.98 394.17L350.02 427.04V492.93L349.89 493L291.85 525.87L291.72 525.8L233.68 492.93V427.04L233.81 426.97L291.85 394.1ZM349.52 427.33L291.85 394.67L234.18 427.33V492.65L291.85 525.31L349.52 492.65V427.33Z" stroke="#A1D8DF" stroke-miterlimit="10"/>
<path opacity="0.3" d="M234.18 492.34L234.31 492.41L292.35 525.28V591.17L292.22 591.24L234.18 624.11L234.05 624.04L176.01 591.17V525.28L176.14 525.21L234.18 492.34ZM291.85 525.57L234.18 492.91L176.51 525.57V590.89L234.18 623.55L291.85 590.89V525.57V525.57Z" stroke="#A1D8DF" stroke-miterlimit="10"/>
<path opacity="0.3" d="M233.35 689.12L233.48 689.19L291.52 722.06V787.95L291.39 788.02L233.35 820.89L233.22 820.82L175.18 787.95V722.06L175.31 721.99L233.35 689.12V689.12ZM291.02 722.35L233.35 689.69L175.68 722.35V787.67L233.35 820.33L291.02 787.67V722.35Z" stroke="#A1D8DF" stroke-miterlimit="10"/>
<path opacity="0.3" d="M176.02 787.75L176.15 787.82L234.19 820.69V886.58L234.06 886.65L176.02 919.52L175.89 919.45L117.85 886.58V820.69L117.98 820.62L176.02 787.75V787.75ZM233.69 820.98L176.02 788.32L118.35 820.98V886.3L176.02 918.96L233.69 886.3V820.98Z" stroke="#A1D8DF" stroke-miterlimit="10"/>
<path opacity="0.6" d="M176.02 394.1L176.15 394.17L234.19 427.04V492.93L234.06 493L176.02 525.87L175.89 525.8L117.85 492.93V427.04L117.98 426.97L176.02 394.1ZM233.69 427.33L176.02 394.67L118.35 427.33V492.65L176.02 525.31L233.69 492.65V427.33Z" stroke="#A1D8DF" stroke-miterlimit="10"/>
<path opacity="0.6" d="M176.02 590.62L176.15 590.69L234.19 623.56V689.45L234.06 689.52L176.02 722.39L175.89 722.32L117.85 689.45V623.56L117.98 623.49L176.02 590.62ZM233.69 623.85L176.02 591.19L118.35 623.85V689.17L176.02 721.83L233.69 689.17V623.85Z" stroke="#A1D8DF" stroke-miterlimit="10"/>
<path d="M291.35 197.03L291.48 197.1L349.52 229.97V295.86L349.39 295.93L291.35 328.8L291.22 328.73L233.18 295.86V229.97L233.31 229.9L291.35 197.03ZM349.02 230.26L291.35 197.6L233.68 230.26V295.58L291.35 328.24L349.02 295.58V230.26Z" stroke="#A1D8DF" stroke-miterlimit="10"/>
<path d="M407.08 197.03L407.21 197.1L465.25 229.97V295.86L465.12 295.93L407.08 328.8L406.95 328.73L348.91 295.86V229.97L349.04 229.9L407.08 197.03ZM464.75 230.26L407.08 197.6L349.41 230.26V295.58L407.08 328.24L464.75 295.58V230.26Z" stroke="#A1D8DF" stroke-miterlimit="10"/>
<path d="M175.51 197.03L175.64 197.1L233.68 229.97V295.86L233.55 295.93L175.51 328.8L175.38 328.73L117.34 295.86V229.97L117.47 229.9L175.51 197.03ZM233.18 230.26L175.51 197.6L117.85 230.26V295.58L175.52 328.24L233.19 295.58V230.26H233.18Z" stroke="#A1D8DF" stroke-miterlimit="10"/>
<path opacity="0.3" d="M299.9 472.17L299.96 472.2L327.39 487.73V518.87L327.33 518.9L299.9 534.43L299.84 534.4L272.41 518.87V487.73L272.47 487.7L299.9 472.17ZM327.15 487.87L299.9 472.44L272.65 487.87V518.74L299.9 534.17L327.15 518.74V487.87Z" stroke="white" stroke-width="0.75" stroke-miterlimit="10"/>
<path d="M259.97 399.88L296.26 420.43V461.53L259.97 482.08L223.68 461.53V420.43L259.97 399.88V399.88ZM295.02 421.13L259.97 401.28L224.92 421.13V460.83L259.97 480.68L295.02 460.83V421.13V421.13Z" stroke="white" stroke-width="0.75" stroke-miterlimit="10"/>
<path opacity="0.5" d="M402.989 400.25L439.279 420.8V461.9L402.989 482.45L366.699 461.9V420.8L402.989 400.25V400.25ZM438.039 421.5L402.989 401.65L367.939 421.5V461.2L402.989 481.05L438.039 461.2V421.5V421.5Z" stroke="white" stroke-width="0.75" stroke-miterlimit="10"/>
<path opacity="0.5" d="M424.499 225.76L460.789 246.31V287.42L424.499 307.97L388.209 287.42V246.31L424.499 225.76V225.76ZM459.549 247.01L424.499 227.16L389.449 247.01V286.72L424.499 306.57L459.549 286.72V247.01Z" stroke="white" stroke-width="0.75" stroke-miterlimit="10"/>
<path opacity="0.5" d="M495.84 225.76L532.13 246.31V287.42L495.84 307.97L459.55 287.42V246.31L495.84 225.76V225.76ZM530.89 247.01L495.84 227.16L460.79 247.01V286.72L495.84 306.57L530.89 286.72V247.01Z" stroke="white" stroke-width="0.75" stroke-miterlimit="10"/>
<path d="M259.56 279.28L295.85 299.83V340.93L259.56 361.48L223.27 340.93V299.83L259.56 279.28ZM294.61 300.53L259.56 280.68L224.51 300.53V340.24L259.56 360.09L294.61 340.24V300.54V300.53Z" stroke="white" stroke-width="0.75" stroke-miterlimit="10"/>
<path opacity="0.5" d="M331.54 400.07L367.83 420.62V461.72L331.54 482.27L295.25 461.72V420.62L331.54 400.07V400.07ZM366.59 421.32L331.54 401.47L296.49 421.32V461.02L331.54 480.87L366.59 461.02V421.32V421.32Z" stroke="white" stroke-width="0.75" stroke-miterlimit="10"/>
<path d="M188.22 279.28L224.51 299.83V340.93L188.22 361.48L151.93 340.93V299.83L188.22 279.28ZM223.27 300.53L188.22 280.68L153.17 300.53V340.24L188.22 360.09L223.27 340.24V300.54V300.53Z" stroke="white" stroke-width="0.75" stroke-miterlimit="10"/>
<path d="M116.88 279.28L153.17 299.83V340.93L116.88 361.48L80.5898 340.94V299.83L116.88 279.28ZM151.93 300.53L116.88 280.68L81.8298 300.54V340.24L116.88 360.09L151.93 340.24V300.54V300.53Z" stroke="white" stroke-width="0.75" stroke-miterlimit="10"/>
<path opacity="0.5" d="M295.76 460.57L332.05 481.12V522.22L295.76 542.77L259.47 522.22V481.12L295.76 460.57V460.57ZM330.81 481.82L295.76 461.97L260.71 481.82V521.52L295.76 541.37L330.81 521.52V481.82V481.82Z" stroke="white" stroke-width="0.75" stroke-miterlimit="10"/>
<path opacity="0.5" d="M224.39 460.65L260.68 481.2V522.3L224.39 542.85L188.1 522.3V481.2L224.39 460.65V460.65ZM259.44 481.9L224.39 462.05L189.34 481.9V521.6L224.39 541.45L259.44 521.6V481.9Z" stroke="white" stroke-width="0.75" stroke-miterlimit="10"/>
<path opacity="0.5" d="M260.22 521.19L296.51 541.74V582.84L260.22 603.39L223.93 582.84V541.74L260.22 521.19V521.19ZM295.27 542.44L260.22 522.59L225.17 542.44V582.14L260.22 601.99L295.27 582.14V542.44Z" stroke="white" stroke-width="0.75" stroke-miterlimit="10"/>
<path opacity="0.5" d="M224.39 582.1L260.68 602.65V643.75L224.39 664.3L188.1 643.75V602.65L224.39 582.1ZM259.44 603.35L224.39 583.5L189.34 603.35V643.05L224.39 662.9L259.44 643.05V603.35Z" stroke="white" stroke-width="0.75" stroke-miterlimit="10"/>
<path opacity="0.5" d="M188.1 642.55L224.39 663.1V704.2L188.1 724.75L151.81 704.2V663.1L188.1 642.55V642.55ZM223.15 663.8L188.1 643.95L153.05 663.8V703.5L188.1 723.35L223.15 703.5V663.8Z" stroke="white" stroke-width="0.75" stroke-miterlimit="10"/>
<path opacity="0.3" d="M224.39 703.05L260.68 723.6V764.7L224.39 785.25L188.1 764.7V723.6L224.39 703.05ZM259.44 724.3L224.39 704.45L189.34 724.3V764L224.39 783.85L259.44 764V724.3Z" stroke="white" stroke-width="0.75" stroke-miterlimit="10"/>
<path opacity="0.5" d="M153.05 703.5L189.34 724.05V765.15L153.05 785.7L116.76 765.15V724.05L153.05 703.5ZM188.1 724.75L153.05 704.9L118 724.75V764.45L153.05 784.3L188.1 764.45V724.75Z" stroke="white" stroke-width="0.75" stroke-miterlimit="10"/>
<path opacity="0.5" d="M188.899 521.49L225.189 542.04V583.14L188.899 603.69L152.609 583.14V542.04L188.899 521.49V521.49ZM223.949 542.74L188.899 522.89L153.849 542.74V582.44L188.899 602.29L223.949 582.44V542.74Z" stroke="white" stroke-width="0.75" stroke-miterlimit="10"/>
<path opacity="0.5" d="M295.85 339.42L332.14 359.97V401.07L295.85 421.62L259.56 401.07V359.97L295.85 339.42V339.42ZM330.9 360.67L295.85 340.82L260.8 360.67V400.37L295.85 420.22L330.9 400.37V360.67V360.67Z" stroke="white" stroke-width="0.75" stroke-miterlimit="10"/>
<path opacity="0.5" d="M206.29 511.85V511.92L206.55 543.52L179.52 559.12L179.46 559.09L152.23 543.07V543L151.97 511.4L179 495.8L179.06 495.83L206.29 511.86V511.85ZM206.32 543.38L206.06 511.99L179.01 496.07L152.22 511.54L152.48 542.93L179.53 558.85L206.32 543.38Z" stroke="#D1E6E9" stroke-miterlimit="10"/>
<path opacity="0.5" d="M232.389 464.38V464.45L232.649 496.05L205.619 511.65L205.559 511.62L178.329 495.6V495.53L178.069 463.93L205.099 448.33L205.159 448.36L232.389 464.39V464.38ZM232.419 495.91L232.159 464.52L205.109 448.6L178.319 464.07L178.579 495.46L205.629 511.38L232.419 495.91Z" stroke="#D1E6E9" stroke-miterlimit="10"/>
<path opacity="0.5" d="M162.529 239.27L162.589 239.3L190.079 254.87V286.08L190.019 286.11L162.529 301.68L162.469 301.65L134.979 286.08V254.87L135.039 254.84L162.529 239.27ZM189.849 255.01L162.529 239.54L135.209 255.01V285.95L162.529 301.42L189.849 285.95V255.01Z" stroke="white" stroke-width="0.75" stroke-miterlimit="10"/>
<path opacity="0.5" d="M107.43 239L107.49 239.03L134.98 254.6V285.81L134.92 285.84L107.43 301.41L107.37 301.38L79.8799 285.81V254.6L79.9399 254.57L107.43 239V239ZM134.75 254.74L107.43 239.27L80.1099 254.74V285.68L107.43 301.15L134.75 285.68V254.74Z" stroke="white" stroke-width="0.75" stroke-miterlimit="10"/>
<path d="M259.56 262.56L259.62 262.59L287.11 278.16V309.37L287.05 309.4L259.56 324.97L259.5 324.94L232.01 309.37V278.16L232.07 278.13L259.56 262.56ZM286.88 278.3L259.56 262.83L232.24 278.3V309.24L259.56 324.71L286.88 309.24V278.3Z" stroke="#D1E6E9" stroke-miterlimit="10"/>
<path opacity="0.6" d="M232.44 216.03L232.5 216.06L259.99 231.63V262.84L259.93 262.87L232.44 278.44L232.38 278.41L204.89 262.84V231.63L204.95 231.6L232.44 216.03ZM259.76 231.77L232.44 216.3L205.12 231.77V262.71L232.44 278.18L259.76 262.71V231.77Z" stroke="#D1E6E9" stroke-miterlimit="10"/>
<path opacity="0.6" d="M287.11 216.03L287.17 216.06L314.66 231.63V262.84L314.6 262.87L287.11 278.44L287.05 278.41L259.56 262.84V231.63L259.62 231.6L287.11 216.03ZM314.43 231.77L287.11 216.3L259.79 231.77V262.71L287.11 278.18L314.43 262.71V231.77Z" stroke="#D1E6E9" stroke-miterlimit="10"/>
<path opacity="0.6" d="M259.8 169.48L259.86 169.51L287.35 185.08V216.29L287.29 216.32L259.8 231.89L259.74 231.86L232.25 216.29V185.08L232.31 185.05L259.8 169.48ZM287.12 185.22L259.8 169.75L232.48 185.22V216.16L259.8 231.63L287.12 216.16V185.22Z" stroke="#D1E6E9" stroke-miterlimit="10"/>
<path opacity="0.5" d="M232.48 122.82L232.54 122.85L260.03 138.42V169.63L259.97 169.66L232.48 185.23L232.42 185.2L204.93 169.63V138.42L204.99 138.39L232.48 122.82V122.82ZM259.8 138.56L232.48 123.09L205.16 138.56V169.5L232.48 184.97L259.8 169.5V138.56Z" stroke="#D1E6E9" stroke-miterlimit="10"/>
<path opacity="0.5" d="M287.35 122.82L287.41 122.85L314.9 138.42V169.63L314.84 169.66L287.35 185.23L287.29 185.2L259.8 169.63V138.42L259.86 138.39L287.35 122.82V122.82ZM314.67 138.56L287.35 123.09L260.03 138.56V169.5L287.35 184.97L314.67 169.5V138.56Z" stroke="#D1E6E9" stroke-miterlimit="10"/>
<path opacity="0.3" d="M315.14 76.2698L315.2 76.2998L342.69 91.8698V123.08L342.63 123.11L315.14 138.68L315.08 138.65L287.59 123.08V91.8698L287.65 91.8398L315.14 76.2698V76.2698ZM342.46 92.0098L315.14 76.5398L287.82 92.0098V122.95L315.14 138.42L342.46 122.95V92.0098V92.0098Z" stroke="#D1E6E9" stroke-miterlimit="10"/>
<path opacity="0.3" d="M342.46 123.09L342.52 123.12L370.01 138.69V169.9L369.95 169.93L342.46 185.5L342.4 185.47L314.91 169.9V138.69L314.97 138.66L342.46 123.09V123.09ZM369.78 138.83L342.46 123.36L315.14 138.83V169.77L342.46 185.24L369.78 169.77V138.83Z" stroke="#D1E6E9" stroke-miterlimit="10"/>
<path d="M533.9 262.18L533.96 262.21L561.45 277.78V308.99L561.39 309.02L533.9 324.59L533.84 324.56L506.35 308.99V277.78L506.41 277.75L533.9 262.18ZM561.22 277.92L533.9 262.45L506.58 277.92V308.86L533.9 324.33L561.22 308.86V277.92Z" stroke="#D1E6E9" stroke-miterlimit="10"/>
<path d="M479.03 262.18L479.09 262.21L506.579 277.78V308.99L506.52 309.02L479.03 324.59L478.969 324.56L451.479 308.99V277.78L451.539 277.75L479.03 262.18ZM506.349 277.92L479.03 262.45L451.71 277.92V308.86L479.03 324.33L506.349 308.86V277.92Z" stroke="#D1E6E9" stroke-miterlimit="10"/>
<path d="M588.77 262.18L588.83 262.21L616.32 277.78V308.99L616.26 309.02L588.77 324.59L588.71 324.56L561.22 308.99V277.78L561.28 277.75L588.77 262.18ZM616.09 277.92L588.77 262.45L561.45 277.92V308.86L588.77 324.33L616.09 308.86V277.92Z" stroke="#D1E6E9" stroke-miterlimit="10"/>
<path d="M204.89 262.56L204.95 262.59L232.44 278.16V309.37L232.38 309.4L204.89 324.97L204.83 324.94L177.34 309.37V278.16L177.4 278.13L204.89 262.56ZM232.21 278.3L204.89 262.83L177.57 278.3V309.24L204.89 324.71L232.21 309.24V278.3Z" stroke="#D1E6E9" stroke-miterlimit="10"/>
<path d="M177.57 216.03L177.63 216.06L205.12 231.63V262.84L205.06 262.87L177.57 278.44L177.51 278.41L150.02 262.84V231.63L150.08 231.6L177.57 216.03V216.03ZM204.89 231.77L177.57 216.3L150.25 231.77V262.71L177.57 278.18L204.89 262.71V231.77Z" stroke="#D1E6E9" stroke-miterlimit="10"/>
<path opacity="0.5" d="M506.589 215.89L506.649 215.92L534.139 231.49V262.7L534.079 262.73L506.589 278.3L506.529 278.27L479.039 262.7V231.49L479.099 231.46L506.589 215.89ZM533.909 231.63L506.589 216.16L479.269 231.63V262.57L506.589 278.04L533.909 262.57V231.63Z" stroke="#D1E6E9" stroke-miterlimit="10"/>
<path opacity="0.5" d="M616.32 215.89L616.38 215.92L643.87 231.49V262.7L643.81 262.73L616.32 278.3L616.26 278.27L588.77 262.7V231.49L588.83 231.46L616.32 215.89ZM643.64 231.63L616.32 216.16L589 231.63V262.57L616.32 278.04L643.64 262.57V231.63Z" stroke="#D1E6E9" stroke-miterlimit="10"/>
<path opacity="0.5" d="M561.46 215.89L561.52 215.92L589.01 231.49V262.7L588.95 262.73L561.46 278.3L561.4 278.27L533.91 262.7V231.49L533.97 231.46L561.46 215.89V215.89ZM588.78 231.63L561.46 216.16L534.14 231.63V262.57L561.46 278.04L588.78 262.57V231.63Z" stroke="#D1E6E9" stroke-miterlimit="10"/>
<path opacity="0.3" d="M534.14 168.79L534.2 168.82L561.69 184.39V215.6L561.63 215.63L534.14 231.2L534.08 231.17L506.59 215.6V184.39L506.65 184.36L534.14 168.79ZM561.46 184.53L534.14 169.06L506.82 184.53V215.47L534.14 230.94L561.46 215.47V184.53Z" stroke="#D1E6E9" stroke-miterlimit="10"/>
<path opacity="0.3" d="M451.72 215.89L451.78 215.92L479.27 231.49V262.7L479.21 262.73L451.72 278.3L451.66 278.27L424.17 262.7V231.49L424.23 231.46L451.72 215.89ZM479.04 231.63L451.72 216.16L424.4 231.63V262.57L451.72 278.04L479.04 262.57V231.63Z" stroke="#D1E6E9" stroke-miterlimit="10"/>
<path d="M150.26 262.56L150.32 262.59L177.81 278.16V309.37L177.75 309.4L150.26 324.97L150.2 324.94L122.71 309.37V278.16L122.77 278.13L150.26 262.56ZM177.58 278.3L150.26 262.83L122.94 278.3V309.24L150.26 324.71L177.58 309.24V278.3Z" stroke="#D1E6E9" stroke-miterlimit="10"/>
<path d="M122.699 216.03L122.759 216.06L150.249 231.63V262.84L150.189 262.87L122.699 278.44L122.639 278.41L95.1494 262.84V231.63L95.2094 231.6L122.699 216.03ZM150.019 231.77L122.699 216.3L95.3794 231.77V262.71L122.699 278.18L150.019 262.71V231.77Z" stroke="#D1E6E9" stroke-miterlimit="10"/>
<path d="M95.1496 169.48L95.2096 169.51L122.7 185.08V216.29L122.64 216.32L95.1496 231.89L95.0896 231.86L67.5996 216.29V185.08L67.6596 185.05L95.1496 169.48ZM122.47 185.22L95.1496 169.75L67.8296 185.22V216.16L95.1496 231.63L122.47 216.16V185.22Z" stroke="#D1E6E9" stroke-miterlimit="10"/>
<path d="M122.699 122.82L122.759 122.85L150.249 138.42V169.63L150.189 169.66L122.699 185.23L122.639 185.2L95.1494 169.63V138.42L95.2094 138.39L122.699 122.82V122.82ZM150.019 138.56L122.699 123.09L95.3794 138.56V169.5L122.699 184.97L150.019 169.5V138.56Z" stroke="#D1E6E9" stroke-miterlimit="10"/>
<path d="M95.1496 76.2698L95.2096 76.2998L122.7 91.8698V123.08L122.64 123.11L95.1496 138.68L95.0896 138.65L67.5996 123.08V91.8698L67.6596 91.8398L95.1496 76.2698V76.2698ZM122.47 92.0098L95.1496 76.5398L67.8296 92.0098V122.95L95.1496 138.42L122.47 122.95V92.0098V92.0098Z" stroke="#D1E6E9" stroke-miterlimit="10"/>
<path d="M67.8293 29.5398L67.8893 29.5698L95.3793 45.1398V76.3498L95.3193 76.3798L67.8293 91.9598L67.7693 91.9298L40.2793 76.3598V45.1498L40.3393 45.1198L67.8293 29.5398ZM95.1493 45.2798L67.8293 29.8098L40.5093 45.2798V76.2198L67.8293 91.6898L95.1493 76.2198V45.2798Z" stroke="#D1E6E9" stroke-miterlimit="10"/>
<path d="M67.8293 122.82L67.8893 122.85L95.3793 138.42V169.63L95.3193 169.66L67.8293 185.23L67.7693 185.2L40.2793 169.63V138.42L40.3393 138.39L67.8293 122.82ZM95.1493 138.56L67.8293 123.09L40.5093 138.56V169.5L67.8293 184.97L95.1493 169.5V138.56V138.56Z" stroke="#D1E6E9" stroke-miterlimit="10"/>
<path d="M95.3898 262.56L95.4498 262.59L122.94 278.16V309.37L122.88 309.4L95.3898 324.97L95.3298 324.94L67.8398 309.37V278.16L67.8998 278.13L95.3898 262.56V262.56ZM122.71 278.3L95.3898 262.83L68.0698 278.3V309.24L95.3898 324.71L122.71 309.24V278.3Z" stroke="#D1E6E9" stroke-miterlimit="10"/>
<path d="M67.8293 216.03L67.8893 216.06L95.3793 231.63V262.84L95.3193 262.87L67.8293 278.44L67.7693 278.41L40.2793 262.84V231.63L40.3393 231.6L67.8293 216.03V216.03ZM95.1493 231.77L67.8293 216.3L40.5093 231.77V262.71L67.8293 278.18L95.1493 262.71V231.77Z" stroke="#D1E6E9" stroke-miterlimit="10"/>
<path d="M314.43 262.56L314.49 262.59L341.98 278.16V309.37L341.92 309.4L314.43 324.97L314.37 324.94L286.88 309.37V278.16L286.94 278.13L314.43 262.56V262.56ZM341.75 278.3L314.43 262.83L287.11 278.3V309.24L314.43 324.71L341.75 309.24V278.3Z" stroke="#D1E6E9" stroke-miterlimit="10"/>
<path d="M369.3 262.56L369.36 262.59L396.85 278.16V309.37L396.79 309.4L369.3 324.97L369.24 324.94L341.75 309.37V278.16L341.81 278.13L369.3 262.56ZM396.62 278.3L369.3 262.83L341.98 278.3V309.24L369.3 324.71L396.62 309.24V278.3Z" stroke="#D1E6E9" stroke-miterlimit="10"/>
<path opacity="0.3" d="M348.91 99.4299L349.04 99.4999L407.08 132.37V198.26L406.95 198.33L348.91 231.2L348.78 231.13L290.74 198.26V132.37L290.87 132.3L348.91 99.4299V99.4299ZM406.58 132.66L348.91 99.9999L291.24 132.66V197.98L348.91 230.64L406.58 197.98V132.66V132.66Z" stroke="#A1D8DF" stroke-miterlimit="10"/>
<path opacity="0.3" d="M59.17 1L59.3 1.07001L117.34 33.94V99.83L117.21 99.9L59.17 132.77L59.04 132.7L1 99.83V33.94L1.13 33.87L59.17 1ZM116.84 34.23L59.17 1.57001L1.5 34.23V99.55L59.17 132.2L116.84 99.54V34.22V34.23Z" stroke="#A1D8DF" stroke-miterlimit="10"/>
<path opacity="0.3" d="M175.01 1.56982L175.14 1.63982L233.18 34.5098V100.4L233.05 100.47L175.01 133.34L174.88 133.27L116.84 100.4V34.5098L116.97 34.4398L175.01 1.56982V1.56982ZM232.68 34.7998L175.01 2.13982L117.34 34.7998V100.12L175.01 132.78L232.68 100.12V34.7998Z" stroke="#A1D8DF" stroke-miterlimit="10"/>
<path d="M291.35 197.66L291.48 197.73L349.52 230.6V296.49L349.39 296.56L291.35 329.43L291.22 329.36L233.18 296.49V230.6L233.31 230.53L291.35 197.66ZM349.02 230.89L291.35 198.23L233.68 230.89V296.21L291.35 328.87L349.02 296.21V230.89V230.89Z" stroke="#A1D8DF" stroke-miterlimit="10"/>
<path d="M407.08 197.66L407.21 197.73L465.25 230.6V296.49L465.12 296.56L407.08 329.43L406.95 329.36L348.91 296.49V230.6L349.04 230.53L407.08 197.66ZM464.75 230.89L407.08 198.23L349.41 230.89V296.21L407.08 328.87L464.75 296.21V230.89V230.89Z" stroke="#A1D8DF" stroke-miterlimit="10"/>
<path d="M175.51 197.66L175.64 197.73L233.68 230.6V296.49L233.55 296.56L175.51 329.43L175.38 329.36L117.34 296.49V230.6L117.47 230.53L175.51 197.66ZM233.18 230.89L175.51 198.23L117.84 230.89V296.21L175.51 328.87L233.18 296.21V230.89V230.89Z" stroke="#A1D8DF" stroke-miterlimit="10"/>
<path d="M117.34 99.4299L117.47 99.4999L175.51 132.37V198.26L175.38 198.33L117.34 231.2L117.21 231.13L59.1699 198.26V132.37L59.2999 132.3L117.34 99.4299V99.4299ZM175.01 132.66L117.34 99.9999L59.6799 132.66V197.98L117.35 230.64L175.02 197.98V132.66H175.01Z" stroke="#A1D8DF" stroke-miterlimit="10"/>
</svg>
