<svg width="584" height="919" viewBox="0 0 584 919" fill="none" xmlns="http://www.w3.org/2000/svg">
<g clip-path="url(#clip0_156_1062)">
<path opacity="0.5" d="M212.65 517.67L212.71 517.7L240.2 533.27V564.48L240.14 564.51L212.65 580.08L212.59 580.05L185.1 564.48V533.27L185.16 533.24L212.65 517.67V517.67ZM239.97 533.41L212.65 517.94L185.33 533.41V564.35L212.65 579.82L239.97 564.35V533.41Z" stroke="white" stroke-width="0.75" stroke-miterlimit="10"/>
<path opacity="0.3" d="M267.39 517.67L267.45 517.7L294.94 533.27V564.48L294.88 564.51L267.39 580.08L267.33 580.05L239.84 564.48V533.27L239.9 533.24L267.39 517.67V517.67ZM294.71 533.41L267.39 517.94L240.07 533.41V564.35L267.39 579.82L294.71 564.35V533.41Z" stroke="white" stroke-width="0.75" stroke-miterlimit="10"/>
<path opacity="0.5" d="M75.59 377.25L75.65 377.28L103.14 392.85V424.06L103.08 424.09L75.59 439.66L75.53 439.63L48.04 424.06V392.85L48.1 392.82L75.59 377.25ZM102.91 392.99L75.59 377.52L48.27 392.99V423.93L75.59 439.4L102.91 423.93V392.99V392.99Z" stroke="white" stroke-width="0.75" stroke-miterlimit="10"/>
<path opacity="0.5" d="M47.8996 330.68L47.9596 330.71L75.4496 346.28V377.49L75.3896 377.52L47.8996 393.09L47.8396 393.06L20.3496 377.49V346.28L20.4096 346.25L47.8996 330.68V330.68ZM75.2196 346.42L47.8996 330.95L20.5796 346.42V377.36L47.8996 392.83L75.2196 377.36V346.42Z" stroke="white" stroke-width="0.75" stroke-miterlimit="10"/>
<path opacity="0.5" d="M75.2199 283.97L75.2799 284L102.77 299.57V330.78L102.71 330.81L75.2199 346.38L75.1599 346.35L47.6699 330.78V299.58L47.7299 299.55L75.2199 283.98V283.97ZM102.54 299.71L75.2199 284.24L47.8999 299.71V330.65L75.2199 346.12L102.54 330.65V299.71Z" stroke="white" stroke-width="0.75" stroke-miterlimit="10"/>
<path opacity="0.5" d="M102.529 237.64L102.589 237.67L130.079 253.24V284.46L130.019 284.49L102.529 300.06L102.469 300.03L74.9795 284.46V253.25L75.0395 253.22L102.529 237.65V237.64ZM129.849 253.38L102.529 237.91L75.2095 253.38V284.32L102.529 299.79L129.849 284.32V253.38Z" stroke="white" stroke-width="0.75" stroke-miterlimit="10"/>
<path opacity="0.5" d="M102.529 330.68L102.589 330.71L130.079 346.28V377.49L130.019 377.52L102.529 393.09L102.469 393.06L74.9795 377.49V346.28L75.0395 346.25L102.529 330.68ZM129.849 346.42L102.529 330.95L75.2095 346.42V377.36L102.529 392.83L129.849 377.36V346.42Z" stroke="white" stroke-width="0.75" stroke-miterlimit="10"/>
<path opacity="0.5" d="M20.3498 284.24L20.4098 284.27L47.8998 299.84V331.05L47.8398 331.08L20.3498 346.65L20.2898 346.62L-7.2002 331.05V299.85L-7.14019 299.82L20.3498 284.24ZM47.6698 299.98L20.3498 284.51L-6.97019 299.98V330.92L20.3498 346.39L47.6698 330.92V299.98Z" stroke="white" stroke-width="0.75" stroke-miterlimit="10"/>
<path opacity="0.5" d="M47.4301 237.37L47.4901 237.4L74.9801 252.97V284.19L74.9201 284.22L47.4301 299.79L47.3701 299.76L19.8701 284.19V252.98L19.9301 252.95L47.4201 237.38L47.4301 237.37ZM74.7501 253.11L47.4301 237.64L20.1101 253.11V284.05L47.4301 299.52L74.7501 284.05V253.11V253.11Z" stroke="white" stroke-width="0.75" stroke-miterlimit="10"/>
<path opacity="0.5" d="M20.59 377.47L20.65 377.5L48.14 393.07V424.28L48.08 424.31L20.59 439.88L20.53 439.85L-6.95996 424.28V393.07L-6.89996 393.04L20.59 377.47ZM47.91 393.21L20.59 377.74L-6.72996 393.21V424.15L20.59 439.62L47.91 424.15V393.21V393.21Z" stroke="white" stroke-width="0.75" stroke-miterlimit="10"/>
<path opacity="0.5" d="M130.329 377.25L130.389 377.28L157.879 392.85V424.06L157.819 424.09L130.329 439.66L130.269 439.63L102.779 424.06V392.85L102.839 392.82L130.329 377.25V377.25ZM157.649 392.99L130.329 377.52L103.009 392.99V423.93L130.329 439.4L157.649 423.93V392.99V392.99Z" stroke="white" stroke-width="0.75" stroke-miterlimit="10"/>
<path opacity="0.5" d="M157.59 424.31L157.65 424.34L185.14 439.91V471.12L185.08 471.15L157.59 486.72L157.53 486.69L130.04 471.12V439.91L130.1 439.88L157.59 424.31ZM184.91 440.05L157.59 424.58L130.27 440.05V470.99L157.59 486.46L184.91 470.99V440.05Z" stroke="white" stroke-width="0.75" stroke-miterlimit="10"/>
<path opacity="0.5" d="M212.46 424.31L212.52 424.34L240.01 439.91V471.12L239.95 471.15L212.46 486.72L212.4 486.69L184.91 471.12V439.91L184.97 439.88L212.46 424.31ZM239.78 440.05L212.46 424.58L185.14 440.05V470.99L212.46 486.46L239.78 470.99V440.05Z" stroke="white" stroke-width="0.75" stroke-miterlimit="10"/>
<path opacity="0.5" d="M48.2199 424.31L48.2799 424.34L75.7699 439.91V471.12L75.7099 471.15L48.2199 486.72L48.1599 486.69L20.6699 471.12V439.91L20.7299 439.88L48.2199 424.31ZM75.5399 440.05L48.2199 424.58L20.8999 440.05V470.99L48.2199 486.46L75.5399 470.99V440.05Z" stroke="white" stroke-width="0.75" stroke-miterlimit="10"/>
<path opacity="0.5" d="M20.6701 471.1L20.7301 471.13L48.2201 486.7V517.91L48.1601 517.94L20.6701 533.51L20.6101 533.48L-6.87988 517.91V486.7L-6.81988 486.67L20.6701 471.1V471.1ZM47.9901 486.84L20.6701 471.37L-6.64988 486.84V517.78L20.6701 533.25L47.9901 517.78V486.84V486.84Z" stroke="white" stroke-width="0.75" stroke-miterlimit="10"/>
<path opacity="0.5" d="M102.959 424.31L103.019 424.34L130.509 439.91V471.12L130.449 471.15L102.959 486.72L102.899 486.69L75.4092 471.12V439.91L75.4692 439.88L102.959 424.31ZM130.279 440.05L102.959 424.58L75.6392 440.05V470.99L102.959 486.46L130.279 470.99V440.05Z" stroke="white" stroke-width="0.75" stroke-miterlimit="10"/>
<path opacity="0.5" d="M75.5393 471.17L75.5993 471.2L103.089 486.77V517.98L103.029 518.01L75.5393 533.58L75.4793 533.55L47.9893 517.98V486.77L48.0493 486.74L75.5393 471.17V471.17ZM102.859 486.91L75.5393 471.44L48.2193 486.91V517.85L75.5393 533.32L102.859 517.85V486.91V486.91Z" stroke="white" stroke-width="0.75" stroke-miterlimit="10"/>
<path opacity="0.5" d="M130.279 471.17L130.339 471.2L157.829 486.77V517.98L157.77 518.01L130.279 533.58L130.219 533.55L102.729 517.98V486.77L102.789 486.74L130.279 471.17V471.17ZM157.6 486.91L130.279 471.44L102.959 486.91V517.85L130.279 533.32L157.6 517.85V486.91V486.91Z" stroke="white" stroke-width="0.75" stroke-miterlimit="10"/>
<path d="M281.98 493.55L282.04 493.58L309.53 509.15V540.36L309.47 540.39L281.98 555.96L281.92 555.93L254.43 540.36V509.15L254.49 509.12L281.98 493.55ZM309.3 509.29L281.98 493.82L254.66 509.29V540.23L281.98 555.7L309.3 540.23V509.29Z" stroke="#D1E6E9" stroke-miterlimit="10"/>
<path d="M62.9396 400.68L62.9996 400.71L90.4896 416.28V447.49L90.4296 447.52L62.9396 463.09L62.8797 463.06L35.3896 447.49V416.28L35.4496 416.25L62.9396 400.68V400.68ZM90.2597 416.42L62.9396 400.95L35.6196 416.42V447.36L62.9396 462.83L90.2597 447.36V416.42Z" stroke="#D1E6E9" stroke-miterlimit="10"/>
<path d="M117.81 400.68L117.87 400.71L145.36 416.28V447.49L145.3 447.52L117.81 463.09L117.75 463.06L90.2598 447.49V416.28L90.3198 416.25L117.81 400.68V400.68ZM145.13 416.42L117.81 400.95L90.4898 416.42V447.36L117.81 462.83L145.13 447.36V416.42Z" stroke="#D1E6E9" stroke-miterlimit="10"/>
<path d="M35.8596 447.76L35.9196 447.79L63.4096 463.36V494.57L63.3496 494.6L35.8596 510.17L35.7996 510.14L8.30957 494.57V463.36L8.36957 463.33L35.8596 447.76ZM63.1796 463.5L35.8596 448.03L8.53957 463.5V494.44L35.8596 509.91L63.1796 494.44V463.5Z" stroke="#D1E6E9" stroke-miterlimit="10"/>
<path d="M8.55 494.81L8.61 494.84L36.1 510.41V541.62L36.04 541.65L8.55 557.22L8.49 557.19L-19 541.62V510.41L-18.94 510.38L8.55 494.81V494.81ZM35.87 510.55L8.55 495.08L-18.77 510.55V541.49L8.55 556.96L35.87 541.49V510.55V510.55Z" stroke="#D1E6E9" stroke-miterlimit="10"/>
<path d="M35.8596 541.86L35.9196 541.89L63.4096 557.46V588.67L63.3496 588.7L35.8596 604.27L35.7996 604.24L8.30957 588.67V557.46L8.36957 557.43L35.8596 541.86V541.86ZM63.1796 557.6L35.8596 542.13L8.53957 557.6V588.54L35.8596 604.01L63.1796 588.54V557.6Z" stroke="#D1E6E9" stroke-miterlimit="10"/>
<path d="M8.55 588.4L8.61 588.43L36.1 604V635.21L36.04 635.24L8.55 650.81L8.49 650.78L-19 635.21V604L-18.94 603.97L8.55 588.4ZM35.87 604.14L8.55 588.67L-18.77 604.14V635.08L8.55 650.55L35.87 635.08V604.14Z" stroke="#D1E6E9" stroke-miterlimit="10"/>
<path opacity="0.6" d="M254.669 447.05L254.729 447.08L282.219 462.65V493.86L282.159 493.89L254.669 509.46L254.609 509.43L227.119 493.86V462.65L227.179 462.62L254.669 447.05V447.05ZM281.989 462.79L254.669 447.32L227.349 462.79V493.73L254.669 509.2L281.989 493.73V462.79Z" stroke="#D1E6E9" stroke-miterlimit="10"/>
<path d="M227.11 400.77L227.17 400.8L254.66 416.37V447.58L254.6 447.61L227.11 463.18L227.05 463.15L199.56 447.58V416.37L199.62 416.34L227.11 400.77V400.77ZM254.43 416.51L227.11 401.04L199.79 416.51V447.45L227.11 462.92L254.43 447.45V416.51Z" stroke="#D1E6E9" stroke-miterlimit="10"/>
<path opacity="0.6" d="M336.61 493.55L336.67 493.58L364.16 509.15V540.36L364.1 540.39L336.61 555.96L336.55 555.93L309.06 540.36V509.15L309.12 509.12L336.61 493.55ZM363.93 509.29L336.61 493.82L309.29 509.29V540.23L336.61 555.7L363.93 540.23V509.29Z" stroke="#D1E6E9" stroke-miterlimit="10"/>
<path opacity="0.5" d="M363.93 540.28L363.99 540.31L391.48 555.88V587.09L391.42 587.12L363.93 602.69L363.87 602.66L336.38 587.09V555.88L336.44 555.85L363.93 540.28ZM391.25 556.02L363.93 540.55L336.61 556.02V586.96L363.93 602.43L391.25 586.96V556.02Z" stroke="#D1E6E9" stroke-miterlimit="10"/>
<path d="M281.98 400.5L282.04 400.53L309.53 416.1V447.31L309.47 447.34L281.98 462.91L281.92 462.88L254.43 447.31V416.1L254.49 416.07L281.98 400.5ZM309.3 416.24L281.98 400.77L254.66 416.24V447.18L281.98 462.65L309.3 447.18V416.24Z" stroke="#D1E6E9" stroke-miterlimit="10"/>
<path opacity="0.6" d="M309.3 447.05L309.36 447.08L336.85 462.65V493.86L336.79 493.89L309.3 509.46L309.24 509.43L281.75 493.86V462.65L281.81 462.62L309.3 447.05ZM336.62 462.79L309.3 447.32L281.98 462.79V493.73L309.3 509.2L336.62 493.73V462.79Z" stroke="#D1E6E9" stroke-miterlimit="10"/>
<path d="M35.3901 353.81L35.4501 353.84L62.9401 369.41V400.62L62.8801 400.65L35.3901 416.22L35.3301 416.19L7.83008 400.63V369.42L7.89008 369.39L35.3801 353.82L35.3901 353.81ZM62.7101 369.55L35.3901 354.08L8.07008 369.55V400.49L35.3901 415.96L62.7101 400.49V369.55V369.55Z" stroke="#D1E6E9" stroke-miterlimit="10"/>
<path d="M309.3 353.81L309.36 353.84L336.85 369.41V400.62L336.79 400.65L309.3 416.22L309.24 416.19L281.75 400.62V369.41L281.81 369.38L309.3 353.81ZM336.62 369.55L309.3 354.08L281.98 369.55V400.49L309.3 415.96L336.62 400.49V369.55V369.55Z" stroke="#D1E6E9" stroke-miterlimit="10"/>
<path d="M254.669 354.08L254.729 354.11L282.219 369.68V400.89L282.159 400.92L254.669 416.49L254.609 416.46L227.119 400.89V369.68L227.179 369.65L254.669 354.08V354.08ZM281.989 369.82L254.669 354.35L227.349 369.82V400.76L254.669 416.23L281.989 400.76V369.82Z" stroke="#D1E6E9" stroke-miterlimit="10"/>
<path d="M281.739 307.45L281.799 307.48L309.289 323.05V354.26L309.229 354.29L281.739 369.86L281.679 369.83L254.189 354.26V323.05L254.249 323.02L281.739 307.45V307.45ZM309.059 323.19L281.739 307.72L254.419 323.19V354.13L281.739 369.6L309.059 354.13V323.19Z" stroke="#D1E6E9" stroke-miterlimit="10"/>
<path d="M227.11 307.45L227.17 307.48L254.66 323.05V354.26L254.6 354.29L227.11 369.86L227.05 369.83L199.56 354.26V323.05L199.62 323.02L227.11 307.45V307.45ZM254.43 323.19L227.11 307.72L199.79 323.19V354.13L227.11 369.6L254.43 354.13V323.19Z" stroke="#D1E6E9" stroke-miterlimit="10"/>
<path d="M199.8 354.08L199.86 354.11L227.35 369.68V400.89L227.29 400.92L199.8 416.49L199.74 416.46L172.25 400.89V369.68L172.31 369.65L199.8 354.08V354.08ZM227.12 369.82L199.8 354.35L172.48 369.82V400.76L199.8 416.23L227.12 400.76V369.82Z" stroke="#D1E6E9" stroke-miterlimit="10"/>
<path d="M199.56 260.93L199.62 260.96L227.11 276.54V307.75L227.05 307.78L199.56 323.35L199.5 323.32L172.01 307.75V276.54L172.07 276.51L199.56 260.94V260.93ZM226.87 276.67L199.55 261.2L172.24 276.67V307.61L199.56 323.08L226.88 307.61V276.67H226.87Z" stroke="#D1E6E9" stroke-miterlimit="10"/>
<path opacity="0.6" d="M172.44 214.4L172.5 214.43L199.99 230V261.21L199.93 261.24L172.44 276.82L172.38 276.79L144.89 261.22V230.01L144.95 229.98L172.44 214.41V214.4ZM199.76 230.14L172.44 214.67L145.12 230.14V261.08L172.44 276.55L199.76 261.08V230.14V230.14Z" stroke="#D1E6E9" stroke-miterlimit="10"/>
<path opacity="0.6" d="M227.11 214.4L227.17 214.43L254.66 230V261.21L254.6 261.24L227.11 276.82L227.05 276.79L199.56 261.22V230.01L199.62 229.98L227.11 214.41V214.4ZM254.43 230.14L227.11 214.67L199.79 230.14V261.08L227.11 276.55L254.43 261.08V230.14V230.14Z" stroke="#D1E6E9" stroke-miterlimit="10"/>
<path d="M473.899 260.55L473.959 260.58L501.459 276.15V307.36L501.399 307.39L473.909 322.96L473.849 322.93L446.359 307.36V276.15L446.419 276.12L473.909 260.55H473.899ZM501.219 276.29L473.899 260.82L446.589 276.29V307.23L473.909 322.7L501.229 307.23V276.29H501.219Z" stroke="#D1E6E9" stroke-miterlimit="10"/>
<path d="M419.03 260.55L419.09 260.58L446.59 276.15V307.36L446.53 307.39L419.04 322.96L418.98 322.93L391.49 307.36V276.15L391.55 276.12L419.04 260.55H419.03ZM446.35 276.29L419.03 260.82L391.72 276.29V307.23L419.04 322.7L446.36 307.23V276.29H446.35Z" stroke="#D1E6E9" stroke-miterlimit="10"/>
<path d="M528.77 260.55L528.83 260.58L556.32 276.15V307.36L556.26 307.39L528.77 322.96L528.71 322.93L501.22 307.36V276.15L501.28 276.12L528.77 260.55ZM556.09 276.29L528.77 260.82L501.46 276.29V307.23L528.78 322.7L556.1 307.23V276.29H556.09Z" stroke="#D1E6E9" stroke-miterlimit="10"/>
<path d="M144.89 260.93L144.95 260.96L172.44 276.54V307.75L172.38 307.78L144.89 323.35L144.83 323.32L117.34 307.75V276.54L117.4 276.51L144.89 260.94V260.93ZM172.2 276.67L144.88 261.2L117.57 276.67V307.61L144.89 323.08L172.21 307.61V276.67H172.2Z" stroke="#D1E6E9" stroke-miterlimit="10"/>
<path d="M117.57 214.4L117.63 214.43L145.12 230V261.21L145.06 261.24L117.57 276.82L117.51 276.79L90.0195 261.22V230.01L90.0795 229.98L117.57 214.41V214.4ZM144.89 230.14L117.57 214.67L90.2495 230.14V261.08L117.57 276.55L144.89 261.08V230.14V230.14Z" stroke="#D1E6E9" stroke-miterlimit="10"/>
<path opacity="0.6" d="M364.159 447.05L364.219 447.08L391.709 462.65V493.86L391.649 493.89L364.159 509.46L364.099 509.43L336.609 493.86V462.65L336.669 462.62L364.159 447.05ZM391.479 462.79L364.159 447.32L336.839 462.79V493.73L364.159 509.2L391.479 493.73V462.79Z" stroke="#D1E6E9" stroke-miterlimit="10"/>
<path opacity="0.6" d="M364.159 353.81L364.219 353.84L391.709 369.41V400.62L391.649 400.65L364.159 416.22L364.099 416.19L336.609 400.62V369.41L336.669 369.38L364.159 353.81ZM391.479 369.55L364.159 354.08L336.839 369.55V400.49L364.159 415.96L391.479 400.49V369.55V369.55Z" stroke="#D1E6E9" stroke-miterlimit="10"/>
<path opacity="0.5" d="M391.48 307.18L391.54 307.21L419.03 322.78V353.99L418.97 354.02L391.48 369.59L391.42 369.56L363.93 353.99V322.78L363.99 322.75L391.48 307.18V307.18ZM418.8 322.92L391.48 307.45L364.16 322.92V353.86L391.48 369.33L418.8 353.86V322.92V322.92Z" stroke="#D1E6E9" stroke-miterlimit="10"/>
<path opacity="0.5" d="M446.35 307.18L446.41 307.21L473.9 322.78V353.99L473.84 354.02L446.35 369.59L446.29 369.56L418.8 353.99V322.78L418.86 322.75L446.35 307.18V307.18ZM473.67 322.92L446.35 307.45L419.03 322.92V353.86L446.35 369.33L473.67 353.86V322.92V322.92Z" stroke="#D1E6E9" stroke-miterlimit="10"/>
<path opacity="0.5" d="M446.589 214.26L446.649 214.29L474.139 229.86V261.07L474.079 261.1L446.589 276.67L446.529 276.64L419.039 261.07V229.86L419.099 229.83L446.589 214.26ZM473.909 230L446.589 214.53L419.269 230V260.94L446.589 276.41L473.909 260.94V230V230Z" stroke="#D1E6E9" stroke-miterlimit="10"/>
<path opacity="0.5" d="M556.089 307.06L556.149 307.09L583.639 322.66V353.87L583.579 353.9L556.089 369.47L556.029 369.44L528.539 353.87V322.66L528.599 322.63L556.089 307.06V307.06ZM583.409 322.8L556.089 307.33L528.769 322.8V353.74L556.089 369.21L583.409 353.74V322.8Z" stroke="#D1E6E9" stroke-miterlimit="10"/>
<path opacity="0.5" d="M556.32 214.26L556.38 214.29L583.87 229.86V261.07L583.81 261.1L556.32 276.67L556.26 276.64L528.77 261.07V229.86L528.83 229.83L556.32 214.26ZM583.64 230L556.32 214.53L529 230V260.94L556.32 276.41L583.64 260.94V230V230Z" stroke="#D1E6E9" stroke-miterlimit="10"/>
<path opacity="0.5" d="M501.46 214.26L501.52 214.29L529.01 229.86V261.07L528.95 261.1L501.46 276.67L501.4 276.64L473.91 261.07V229.86L473.97 229.83L501.46 214.26V214.26ZM528.78 230L501.46 214.53L474.14 230V260.94L501.46 276.41L528.78 260.94V230V230Z" stroke="#D1E6E9" stroke-miterlimit="10"/>
<path opacity="0.3" d="M391.72 214.26L391.78 214.29L419.27 229.86V261.07L419.21 261.1L391.72 276.67L391.66 276.64L364.17 261.07V229.86L364.23 229.83L391.72 214.26ZM419.04 230L391.72 214.53L364.4 230V260.94L391.72 276.41L419.04 260.94V230V230Z" stroke="#D1E6E9" stroke-miterlimit="10"/>
<path d="M90.4895 353.81L90.5495 353.84L118.039 369.41V400.62L117.979 400.65L90.4895 416.22L90.4295 416.19L62.9395 400.62V369.41L62.9995 369.38L90.4895 353.81ZM117.809 369.55L90.4895 354.08L63.1695 369.55V400.49L90.4895 415.96L117.809 400.49V369.55V369.55Z" stroke="#D1E6E9" stroke-miterlimit="10"/>
<path d="M63.1799 307.18L63.2399 307.21L90.7299 322.78V353.99L90.6699 354.02L63.1799 369.59L63.1199 369.56L35.6299 353.99V322.78L35.6899 322.75L63.1799 307.18V307.18ZM90.4999 322.92L63.1799 307.45L35.8599 322.92V353.86L63.1799 369.33L90.4999 353.86V322.92V322.92Z" stroke="#D1E6E9" stroke-miterlimit="10"/>
<path d="M90.26 260.93L90.32 260.96L117.81 276.54V307.75L117.75 307.78L90.26 323.35L90.2 323.32L62.71 307.75V276.54L62.77 276.51L90.26 260.94V260.93ZM117.57 276.67L90.25 261.2L62.94 276.67V307.61L90.26 323.08L117.58 307.61V276.67H117.57Z" stroke="#D1E6E9" stroke-miterlimit="10"/>
<path d="M62.6994 214.4L62.7594 214.43L90.2494 230V261.21L90.1894 261.24L62.6994 276.82L62.6394 276.79L35.1494 261.21V230L35.2094 229.97L62.6994 214.4ZM90.0194 230.14L62.6994 214.67L35.3794 230.14V261.08L62.6994 276.55L90.0194 261.08V230.14V230.14Z" stroke="#D1E6E9" stroke-miterlimit="10"/>
<path d="M35.3901 260.93L35.4501 260.96L62.9401 276.54V307.75L62.8801 307.78L35.3901 323.35L35.3301 323.32L7.83008 307.75V276.54L7.89008 276.51L35.3901 260.93ZM62.7001 276.67L35.3901 261.2L8.07008 276.67V307.61L35.3901 323.08L62.7101 307.61V276.67H62.7001Z" stroke="#D1E6E9" stroke-miterlimit="10"/>
<path d="M7.8293 214.4L7.8893 214.43L35.3793 230V261.21L35.3193 261.24L7.8293 276.82L7.7693 276.79L-19.7207 261.21V230L-19.6607 229.97L7.8293 214.4ZM35.1493 230.14L7.8293 214.67L-19.4907 230.14V261.08L7.8293 276.55L35.1493 261.08V230.14V230.14Z" stroke="#D1E6E9" stroke-miterlimit="10"/>
<path d="M254.43 260.93L254.49 260.96L281.98 276.54V307.75L281.92 307.78L254.43 323.35L254.37 323.32L226.88 307.75V276.54L226.94 276.51L254.43 260.94V260.93ZM281.75 276.67L254.43 261.2L227.11 276.67V307.61L254.43 323.08L281.75 307.61V276.67V276.67Z" stroke="#D1E6E9" stroke-miterlimit="10"/>
<path d="M309.3 260.93L309.36 260.96L336.85 276.54V307.75L336.79 307.78L309.3 323.35L309.24 323.32L281.75 307.75V276.54L281.81 276.51L309.3 260.94V260.93ZM336.62 276.67L309.3 261.2L281.98 276.67V307.61L309.3 323.08L336.62 307.61V276.67V276.67Z" stroke="#D1E6E9" stroke-miterlimit="10"/>
<path d="M57.8497 294.6L57.9797 294.67L116.02 327.54V393.44L115.89 393.51L57.8497 426.38L57.7197 426.31L-0.320312 393.44V327.55L-0.190312 327.48L57.8497 294.6ZM115.52 327.83L57.8497 295.17L0.179688 327.83V393.15L57.8497 425.81L115.52 393.15V327.83Z" stroke="#A1D8DF" stroke-miterlimit="10"/>
<path d="M-0.320236 393.1L-0.190239 393.17L57.8498 426.04V491.93L57.7198 492L-0.320236 524.87L-0.450237 524.8L-58.4902 491.93V426.04L-58.3602 425.97L-0.320236 393.1ZM57.3498 426.33L-0.320236 393.67L-57.9902 426.33V491.65L-0.320236 524.3L57.3498 491.64V426.32V426.33Z" stroke="#A1D8DF" stroke-miterlimit="10"/>
<path d="M57.8497 491.34L57.9797 491.41L116.02 524.28V590.17L115.89 590.24L57.8497 623.11L57.7197 623.04L-0.320312 590.17V524.28L-0.190312 524.21L57.8497 491.34ZM115.52 524.57L57.8497 491.91L0.179688 524.57V589.89L57.8497 622.55L115.52 589.89V524.57V524.57Z" stroke="#A1D8DF" stroke-miterlimit="10"/>
<path d="M0.179764 589.62L0.309761 589.69L58.3498 622.56V688.45L58.2198 688.52L0.179764 721.4L0.0497627 721.33L-57.9902 688.46V622.57L-57.8602 622.5L0.179764 589.62ZM57.8498 622.85L0.179764 590.19L-57.4902 622.85V688.17L0.179764 720.83L57.8498 688.17V622.85Z" stroke="#A1D8DF" stroke-miterlimit="10"/>
<path d="M57.3399 688.12L57.4699 688.19L115.51 721.06V786.95L115.38 787.02L57.3399 819.89L57.2099 819.82L-0.830078 786.96V721.07L-0.700078 721L57.3399 688.13V688.12ZM115.01 721.35L57.3399 688.69L-0.320078 721.35V786.67L57.3499 819.33L115.02 786.67V721.35H115.01Z" stroke="#A1D8DF" stroke-miterlimit="10"/>
<path opacity="0.6" d="M173.68 294.6L173.81 294.67L231.85 327.54V393.44L231.72 393.51L173.68 426.38L173.55 426.31L115.51 393.44V327.55L115.64 327.48L173.68 294.61V294.6ZM231.35 327.83L173.68 295.17L116.01 327.83V393.15L173.68 425.81L231.35 393.15V327.83Z" stroke="#A1D8DF" stroke-miterlimit="10"/>
<path opacity="0.3" d="M231.85 393.1L231.98 393.17L290.02 426.04V491.93L289.89 492L231.85 524.87L231.72 524.8L173.68 491.93V426.04L173.81 425.97L231.85 393.1ZM289.52 426.33L231.85 393.67L174.18 426.33V491.65L231.85 524.31L289.52 491.65V426.33Z" stroke="#A1D8DF" stroke-miterlimit="10"/>
<path opacity="0.3" d="M174.18 491.34L174.31 491.41L232.35 524.28V590.17L232.22 590.24L174.18 623.11L174.05 623.04L116.01 590.17V524.28L116.14 524.21L174.18 491.34ZM231.85 524.57L174.18 491.91L116.51 524.57V589.89L174.18 622.55L231.85 589.89V524.57V524.57Z" stroke="#A1D8DF" stroke-miterlimit="10"/>
<path opacity="0.3" d="M173.35 688.12L173.48 688.19L231.52 721.06V786.95L231.39 787.02L173.35 819.89L173.22 819.82L115.18 786.95V721.06L115.31 720.99L173.35 688.12V688.12ZM231.02 721.35L173.35 688.69L115.68 721.35V786.67L173.35 819.33L231.02 786.67V721.35Z" stroke="#A1D8DF" stroke-miterlimit="10"/>
<path opacity="0.3" d="M116.02 786.75L116.15 786.82L174.19 819.69V885.58L174.06 885.65L116.02 918.52L115.89 918.45L57.8496 885.58V819.69L57.9796 819.62L116.02 786.75V786.75ZM173.69 819.98L116.02 787.32L58.3496 819.98V885.3L116.02 917.96L173.69 885.3V819.98Z" stroke="#A1D8DF" stroke-miterlimit="10"/>
<path opacity="0.6" d="M116.02 393.1L116.15 393.17L174.19 426.04V491.93L174.06 492L116.02 524.87L115.89 524.8L57.8496 491.93V426.04L57.9796 425.97L116.02 393.1ZM173.69 426.33L116.02 393.67L58.3496 426.33V491.65L116.02 524.31L173.69 491.65V426.33Z" stroke="#A1D8DF" stroke-miterlimit="10"/>
<path opacity="0.6" d="M116.02 589.62L116.15 589.69L174.19 622.56V688.45L174.06 688.52L116.02 721.39L115.89 721.32L57.8496 688.45V622.56L57.9796 622.49L116.02 589.62ZM173.69 622.85L116.02 590.19L58.3496 622.85V688.17L116.02 720.83L173.69 688.17V622.85Z" stroke="#A1D8DF" stroke-miterlimit="10"/>
<path d="M231.35 196.03L231.48 196.1L289.52 228.97V294.86L289.39 294.93L231.35 327.8L231.22 327.73L173.18 294.86V228.97L173.31 228.9L231.35 196.03ZM289.02 229.26L231.35 196.6L173.68 229.26V294.58L231.35 327.24L289.02 294.58V229.26Z" stroke="#A1D8DF" stroke-miterlimit="10"/>
<path d="M347.08 196.03L347.21 196.1L405.25 228.97V294.86L405.12 294.93L347.08 327.8L346.95 327.73L288.91 294.86V228.97L289.04 228.9L347.08 196.03ZM404.75 229.26L347.08 196.6L289.41 229.26V294.58L347.08 327.24L404.75 294.58V229.26Z" stroke="#A1D8DF" stroke-miterlimit="10"/>
<path d="M115.51 196.03L115.64 196.1L173.68 228.97V294.86L173.55 294.93L115.51 327.8L115.38 327.73L57.3398 294.86V228.97L57.4698 228.9L115.51 196.03ZM173.18 229.26L115.51 196.6L57.8498 229.26V294.58L115.52 327.24L173.19 294.58V229.26H173.18Z" stroke="#A1D8DF" stroke-miterlimit="10"/>
<path opacity="0.3" d="M239.9 471.17L239.96 471.2L267.39 486.73V517.87L267.33 517.9L239.9 533.43L239.84 533.4L212.41 517.87V486.73L212.47 486.7L239.9 471.17ZM267.15 486.87L239.9 471.44L212.65 486.87V517.74L239.9 533.17L267.15 517.74V486.87Z" stroke="white" stroke-width="0.75" stroke-miterlimit="10"/>
<path d="M199.97 398.88L236.26 419.43V460.53L199.97 481.08L163.68 460.53V419.43L199.97 398.88V398.88ZM235.02 420.13L199.97 400.28L164.92 420.13V459.83L199.97 479.68L235.02 459.83V420.13V420.13Z" stroke="white" stroke-width="0.75" stroke-miterlimit="10"/>
<path opacity="0.5" d="M342.989 399.25L379.279 419.8V460.9L342.989 481.45L306.699 460.9V419.8L342.989 399.25V399.25ZM378.039 420.5L342.989 400.65L307.939 420.5V460.2L342.989 480.05L378.039 460.2V420.5V420.5Z" stroke="white" stroke-width="0.75" stroke-miterlimit="10"/>
<path opacity="0.5" d="M364.499 224.76L400.789 245.31V286.42L364.499 306.97L328.209 286.42V245.31L364.499 224.76V224.76ZM399.549 246.01L364.499 226.16L329.449 246.01V285.72L364.499 305.57L399.549 285.72V246.01Z" stroke="white" stroke-width="0.75" stroke-miterlimit="10"/>
<path opacity="0.5" d="M435.84 224.76L472.13 245.31V286.42L435.84 306.97L399.55 286.42V245.31L435.84 224.76V224.76ZM470.89 246.01L435.84 226.16L400.79 246.01V285.72L435.84 305.57L470.89 285.72V246.01Z" stroke="white" stroke-width="0.75" stroke-miterlimit="10"/>
<path d="M199.56 278.28L235.85 298.83V339.93L199.56 360.48L163.27 339.93V298.83L199.56 278.28ZM234.61 299.53L199.56 279.68L164.51 299.53V339.24L199.56 359.09L234.61 339.24V299.54V299.53Z" stroke="white" stroke-width="0.75" stroke-miterlimit="10"/>
<path opacity="0.5" d="M271.54 399.07L307.83 419.62V460.72L271.54 481.27L235.25 460.72V419.62L271.54 399.07V399.07ZM306.59 420.32L271.54 400.47L236.49 420.32V460.02L271.54 479.87L306.59 460.02V420.32V420.32Z" stroke="white" stroke-width="0.75" stroke-miterlimit="10"/>
<path d="M128.22 278.28L164.51 298.83V339.93L128.22 360.48L91.9297 339.93V298.83L128.22 278.28ZM163.27 299.53L128.22 279.68L93.1697 299.53V339.24L128.22 359.09L163.27 339.24V299.54V299.53Z" stroke="white" stroke-width="0.75" stroke-miterlimit="10"/>
<path d="M56.8798 278.28L93.1698 298.83V339.93L56.8798 360.48L20.5898 339.94V298.83L56.8798 278.28ZM91.9298 299.53L56.8798 279.68L21.8298 299.54V339.24L56.8798 359.09L91.9298 339.24V299.54V299.53Z" stroke="white" stroke-width="0.75" stroke-miterlimit="10"/>
<path opacity="0.5" d="M235.76 459.57L272.05 480.12V521.22L235.76 541.77L199.47 521.22V480.12L235.76 459.57V459.57ZM270.81 480.82L235.76 460.97L200.71 480.82V520.52L235.76 540.37L270.81 520.52V480.82V480.82Z" stroke="white" stroke-width="0.75" stroke-miterlimit="10"/>
<path opacity="0.5" d="M164.39 459.65L200.68 480.2V521.3L164.39 541.85L128.1 521.3V480.2L164.39 459.65V459.65ZM199.44 480.9L164.39 461.05L129.34 480.9V520.6L164.39 540.45L199.44 520.6V480.9Z" stroke="white" stroke-width="0.75" stroke-miterlimit="10"/>
<path opacity="0.5" d="M200.22 520.19L236.51 540.74V581.84L200.22 602.39L163.93 581.84V540.74L200.22 520.19V520.19ZM235.27 541.44L200.22 521.59L165.17 541.44V581.14L200.22 600.99L235.27 581.14V541.44Z" stroke="white" stroke-width="0.75" stroke-miterlimit="10"/>
<path opacity="0.5" d="M164.39 581.1L200.68 601.65V642.75L164.39 663.3L128.1 642.75V601.65L164.39 581.1ZM199.44 602.35L164.39 582.5L129.34 602.35V642.05L164.39 661.9L199.44 642.05V602.35Z" stroke="white" stroke-width="0.75" stroke-miterlimit="10"/>
<path opacity="0.5" d="M128.1 641.55L164.39 662.1V703.2L128.1 723.75L91.8096 703.2V662.1L128.1 641.55V641.55ZM163.15 662.8L128.1 642.95L93.0496 662.8V702.5L128.1 722.35L163.15 702.5V662.8Z" stroke="white" stroke-width="0.75" stroke-miterlimit="10"/>
<path opacity="0.3" d="M164.39 702.05L200.68 722.6V763.7L164.39 784.25L128.1 763.7V722.6L164.39 702.05ZM199.44 723.3L164.39 703.45L129.34 723.3V763L164.39 782.85L199.44 763V723.3Z" stroke="white" stroke-width="0.75" stroke-miterlimit="10"/>
<path opacity="0.5" d="M93.0498 702.5L129.34 723.05V764.15L93.0498 784.7L56.7598 764.15V723.05L93.0498 702.5ZM128.1 723.75L93.0498 703.9L57.9998 723.75V763.45L93.0498 783.3L128.1 763.45V723.75Z" stroke="white" stroke-width="0.75" stroke-miterlimit="10"/>
<path opacity="0.5" d="M128.899 520.49L165.189 541.04V582.14L128.899 602.69L92.6094 582.14V541.04L128.899 520.49V520.49ZM163.949 541.74L128.899 521.89L93.8494 541.74V581.44L128.899 601.29L163.949 581.44V541.74Z" stroke="white" stroke-width="0.75" stroke-miterlimit="10"/>
<path opacity="0.5" d="M235.85 338.42L272.14 358.97V400.07L235.85 420.62L199.56 400.07V358.97L235.85 338.42V338.42ZM270.9 359.67L235.85 339.82L200.8 359.67V399.37L235.85 419.22L270.9 399.37V359.67V359.67Z" stroke="white" stroke-width="0.75" stroke-miterlimit="10"/>
<path opacity="0.5" d="M146.29 510.85V510.92L146.55 542.52L119.52 558.12L119.46 558.09L92.2297 542.07V542L91.9697 510.4L119 494.8L119.06 494.83L146.29 510.86V510.85ZM146.32 542.38L146.06 510.99L119.01 495.07L92.2197 510.54L92.4797 541.93L119.53 557.85L146.32 542.38Z" stroke="#D1E6E9" stroke-miterlimit="10"/>
<path opacity="0.5" d="M172.389 463.38V463.45L172.649 495.05L145.619 510.65L145.559 510.62L118.329 494.6V494.53L118.069 462.93L145.099 447.33L145.159 447.36L172.389 463.39V463.38ZM172.419 494.91L172.159 463.52L145.109 447.6L118.319 463.07L118.579 494.46L145.629 510.38L172.419 494.91Z" stroke="#D1E6E9" stroke-miterlimit="10"/>
<path opacity="0.5" d="M102.529 238.27L102.589 238.3L130.079 253.87V285.08L130.019 285.11L102.529 300.68L102.469 300.65L74.9795 285.08V253.87L75.0395 253.84L102.529 238.27ZM129.849 254.01L102.529 238.54L75.2095 254.01V284.95L102.529 300.42L129.849 284.95V254.01Z" stroke="white" stroke-width="0.75" stroke-miterlimit="10"/>
<path opacity="0.5" d="M47.4299 238L47.4899 238.03L74.9799 253.6V284.81L74.9199 284.84L47.4299 300.41L47.3699 300.38L19.8799 284.81V253.6L19.9399 253.57L47.4299 238V238ZM74.7499 253.74L47.4299 238.27L20.1099 253.74V284.68L47.4299 300.15L74.7499 284.68V253.74Z" stroke="white" stroke-width="0.75" stroke-miterlimit="10"/>
<path d="M199.56 261.56L199.62 261.59L227.11 277.16V308.37L227.05 308.4L199.56 323.97L199.5 323.94L172.01 308.37V277.16L172.07 277.13L199.56 261.56ZM226.88 277.3L199.56 261.83L172.24 277.3V308.24L199.56 323.71L226.88 308.24V277.3Z" stroke="#D1E6E9" stroke-miterlimit="10"/>
<path opacity="0.6" d="M172.44 215.03L172.5 215.06L199.99 230.63V261.84L199.93 261.87L172.44 277.44L172.38 277.41L144.89 261.84V230.63L144.95 230.6L172.44 215.03ZM199.76 230.77L172.44 215.3L145.12 230.77V261.71L172.44 277.18L199.76 261.71V230.77Z" stroke="#D1E6E9" stroke-miterlimit="10"/>
<path opacity="0.6" d="M227.11 215.03L227.17 215.06L254.66 230.63V261.84L254.6 261.87L227.11 277.44L227.05 277.41L199.56 261.84V230.63L199.62 230.6L227.11 215.03ZM254.43 230.77L227.11 215.3L199.79 230.77V261.71L227.11 277.18L254.43 261.71V230.77Z" stroke="#D1E6E9" stroke-miterlimit="10"/>
<path opacity="0.6" d="M199.8 168.48L199.86 168.51L227.35 184.08V215.29L227.29 215.32L199.8 230.89L199.74 230.86L172.25 215.29V184.08L172.31 184.05L199.8 168.48ZM227.12 184.22L199.8 168.75L172.48 184.22V215.16L199.8 230.63L227.12 215.16V184.22Z" stroke="#D1E6E9" stroke-miterlimit="10"/>
<path opacity="0.5" d="M172.48 121.82L172.54 121.85L200.03 137.42V168.63L199.97 168.66L172.48 184.23L172.42 184.2L144.93 168.63V137.42L144.99 137.39L172.48 121.82V121.82ZM199.8 137.56L172.48 122.09L145.16 137.56V168.5L172.48 183.97L199.8 168.5V137.56Z" stroke="#D1E6E9" stroke-miterlimit="10"/>
<path opacity="0.5" d="M227.35 121.82L227.41 121.85L254.9 137.42V168.63L254.84 168.66L227.35 184.23L227.29 184.2L199.8 168.63V137.42L199.86 137.39L227.35 121.82V121.82ZM254.67 137.56L227.35 122.09L200.03 137.56V168.5L227.35 183.97L254.67 168.5V137.56Z" stroke="#D1E6E9" stroke-miterlimit="10"/>
<path opacity="0.3" d="M255.14 75.2698L255.2 75.2998L282.69 90.8698V122.08L282.63 122.11L255.14 137.68L255.08 137.65L227.59 122.08V90.8698L227.65 90.8398L255.14 75.2698V75.2698ZM282.46 91.0098L255.14 75.5398L227.82 91.0098V121.95L255.14 137.42L282.46 121.95V91.0098V91.0098Z" stroke="#D1E6E9" stroke-miterlimit="10"/>
<path opacity="0.3" d="M282.46 122.09L282.52 122.12L310.01 137.69V168.9L309.95 168.93L282.46 184.5L282.4 184.47L254.91 168.9V137.69L254.97 137.66L282.46 122.09V122.09ZM309.78 137.83L282.46 122.36L255.14 137.83V168.77L282.46 184.24L309.78 168.77V137.83Z" stroke="#D1E6E9" stroke-miterlimit="10"/>
<path d="M473.9 261.18L473.96 261.21L501.45 276.78V307.99L501.39 308.02L473.9 323.59L473.84 323.56L446.35 307.99V276.78L446.41 276.75L473.9 261.18ZM501.22 276.92L473.9 261.45L446.58 276.92V307.86L473.9 323.33L501.22 307.86V276.92Z" stroke="#D1E6E9" stroke-miterlimit="10"/>
<path d="M419.03 261.18L419.09 261.21L446.579 276.78V307.99L446.52 308.02L419.03 323.59L418.969 323.56L391.479 307.99V276.78L391.539 276.75L419.03 261.18ZM446.349 276.92L419.03 261.45L391.71 276.92V307.86L419.03 323.33L446.349 307.86V276.92Z" stroke="#D1E6E9" stroke-miterlimit="10"/>
<path d="M528.77 261.18L528.83 261.21L556.32 276.78V307.99L556.26 308.02L528.77 323.59L528.71 323.56L501.22 307.99V276.78L501.28 276.75L528.77 261.18ZM556.09 276.92L528.77 261.45L501.45 276.92V307.86L528.77 323.33L556.09 307.86V276.92Z" stroke="#D1E6E9" stroke-miterlimit="10"/>
<path d="M144.89 261.56L144.95 261.59L172.44 277.16V308.37L172.38 308.4L144.89 323.97L144.83 323.94L117.34 308.37V277.16L117.4 277.13L144.89 261.56ZM172.21 277.3L144.89 261.83L117.57 277.3V308.24L144.89 323.71L172.21 308.24V277.3Z" stroke="#D1E6E9" stroke-miterlimit="10"/>
<path d="M117.57 215.03L117.63 215.06L145.12 230.63V261.84L145.06 261.87L117.57 277.44L117.51 277.41L90.0195 261.84V230.63L90.0795 230.6L117.57 215.03V215.03ZM144.89 230.77L117.57 215.3L90.2495 230.77V261.71L117.57 277.18L144.89 261.71V230.77Z" stroke="#D1E6E9" stroke-miterlimit="10"/>
<path opacity="0.5" d="M446.589 214.89L446.649 214.92L474.139 230.49V261.7L474.079 261.73L446.589 277.3L446.529 277.27L419.039 261.7V230.49L419.099 230.46L446.589 214.89ZM473.909 230.63L446.589 215.16L419.269 230.63V261.57L446.589 277.04L473.909 261.57V230.63Z" stroke="#D1E6E9" stroke-miterlimit="10"/>
<path opacity="0.5" d="M556.32 214.89L556.38 214.92L583.87 230.49V261.7L583.81 261.73L556.32 277.3L556.26 277.27L528.77 261.7V230.49L528.83 230.46L556.32 214.89ZM583.64 230.63L556.32 215.16L529 230.63V261.57L556.32 277.04L583.64 261.57V230.63Z" stroke="#D1E6E9" stroke-miterlimit="10"/>
<path opacity="0.5" d="M501.46 214.89L501.52 214.92L529.01 230.49V261.7L528.95 261.73L501.46 277.3L501.4 277.27L473.91 261.7V230.49L473.97 230.46L501.46 214.89V214.89ZM528.78 230.63L501.46 215.16L474.14 230.63V261.57L501.46 277.04L528.78 261.57V230.63Z" stroke="#D1E6E9" stroke-miterlimit="10"/>
<path opacity="0.3" d="M474.14 167.79L474.2 167.82L501.69 183.39V214.6L501.63 214.63L474.14 230.2L474.08 230.17L446.59 214.6V183.39L446.65 183.36L474.14 167.79ZM501.46 183.53L474.14 168.06L446.82 183.53V214.47L474.14 229.94L501.46 214.47V183.53Z" stroke="#D1E6E9" stroke-miterlimit="10"/>
<path opacity="0.3" d="M391.72 214.89L391.78 214.92L419.27 230.49V261.7L419.21 261.73L391.72 277.3L391.66 277.27L364.17 261.7V230.49L364.23 230.46L391.72 214.89ZM419.04 230.63L391.72 215.16L364.4 230.63V261.57L391.72 277.04L419.04 261.57V230.63Z" stroke="#D1E6E9" stroke-miterlimit="10"/>
<path d="M90.26 261.56L90.32 261.59L117.81 277.16V308.37L117.75 308.4L90.26 323.97L90.2 323.94L62.71 308.37V277.16L62.77 277.13L90.26 261.56ZM117.58 277.3L90.26 261.83L62.94 277.3V308.24L90.26 323.71L117.58 308.24V277.3Z" stroke="#D1E6E9" stroke-miterlimit="10"/>
<path d="M62.6994 215.03L62.7594 215.06L90.2494 230.63V261.84L90.1894 261.87L62.6994 277.44L62.6394 277.41L35.1494 261.84V230.63L35.2094 230.6L62.6994 215.03ZM90.0194 230.77L62.6994 215.3L35.3794 230.77V261.71L62.6994 277.18L90.0194 261.71V230.77Z" stroke="#D1E6E9" stroke-miterlimit="10"/>
<path d="M35.1496 168.48L35.2096 168.51L62.6996 184.08V215.29L62.6396 215.32L35.1496 230.89L35.0896 230.86L7.59961 215.29V184.08L7.65961 184.05L35.1496 168.48ZM62.4696 184.22L35.1496 168.75L7.82961 184.22V215.16L35.1496 230.63L62.4696 215.16V184.22Z" stroke="#D1E6E9" stroke-miterlimit="10"/>
<path d="M62.6994 121.82L62.7594 121.85L90.2494 137.42V168.63L90.1894 168.66L62.6994 184.23L62.6394 184.2L35.1494 168.63V137.42L35.2094 137.39L62.6994 121.82V121.82ZM90.0194 137.56L62.6994 122.09L35.3794 137.56V168.5L62.6994 183.97L90.0194 168.5V137.56Z" stroke="#D1E6E9" stroke-miterlimit="10"/>
<path d="M35.1496 75.2698L35.2096 75.2998L62.6996 90.8698V122.08L62.6396 122.11L35.1496 137.68L35.0896 137.65L7.59961 122.08V90.8698L7.65961 90.8398L35.1496 75.2698V75.2698ZM62.4696 91.0098L35.1496 75.5398L7.82961 91.0098V121.95L35.1496 137.42L62.4696 121.95V91.0098V91.0098Z" stroke="#D1E6E9" stroke-miterlimit="10"/>
<path d="M7.8293 28.5398L7.8893 28.5698L35.3793 44.1398V75.3498L35.3193 75.3798L7.8293 90.9598L7.7693 90.9298L-19.7207 75.3598V44.1498L-19.6607 44.1198L7.8293 28.5398ZM35.1493 44.2798L7.8293 28.8098L-19.4907 44.2798V75.2198L7.8293 90.6898L35.1493 75.2198V44.2798Z" stroke="#D1E6E9" stroke-miterlimit="10"/>
<path d="M7.8293 121.82L7.8893 121.85L35.3793 137.42V168.63L35.3193 168.66L7.8293 184.23L7.7693 184.2L-19.7207 168.63V137.42L-19.6607 137.39L7.8293 121.82ZM35.1493 137.56L7.8293 122.09L-19.4907 137.56V168.5L7.8293 183.97L35.1493 168.5V137.56V137.56Z" stroke="#D1E6E9" stroke-miterlimit="10"/>
<path d="M35.3898 261.56L35.4498 261.59L62.9398 277.16V308.37L62.8798 308.4L35.3898 323.97L35.3298 323.94L7.83984 308.37V277.16L7.89984 277.13L35.3898 261.56V261.56ZM62.7098 277.3L35.3898 261.83L8.06984 277.3V308.24L35.3898 323.71L62.7098 308.24V277.3Z" stroke="#D1E6E9" stroke-miterlimit="10"/>
<path d="M7.8293 215.03L7.8893 215.06L35.3793 230.63V261.84L35.3193 261.87L7.8293 277.44L7.7693 277.41L-19.7207 261.84V230.63L-19.6607 230.6L7.8293 215.03V215.03ZM35.1493 230.77L7.8293 215.3L-19.4907 230.77V261.71L7.8293 277.18L35.1493 261.71V230.77Z" stroke="#D1E6E9" stroke-miterlimit="10"/>
<path d="M254.43 261.56L254.49 261.59L281.98 277.16V308.37L281.92 308.4L254.43 323.97L254.37 323.94L226.88 308.37V277.16L226.94 277.13L254.43 261.56V261.56ZM281.75 277.3L254.43 261.83L227.11 277.3V308.24L254.43 323.71L281.75 308.24V277.3Z" stroke="#D1E6E9" stroke-miterlimit="10"/>
<path d="M309.3 261.56L309.36 261.59L336.85 277.16V308.37L336.79 308.4L309.3 323.97L309.24 323.94L281.75 308.37V277.16L281.81 277.13L309.3 261.56ZM336.62 277.3L309.3 261.83L281.98 277.3V308.24L309.3 323.71L336.62 308.24V277.3Z" stroke="#D1E6E9" stroke-miterlimit="10"/>
<path opacity="0.3" d="M288.91 98.4299L289.04 98.4999L347.08 131.37V197.26L346.95 197.33L288.91 230.2L288.78 230.13L230.74 197.26V131.37L230.87 131.3L288.91 98.4299V98.4299ZM346.58 131.66L288.91 98.9999L231.24 131.66V196.98L288.91 229.64L346.58 196.98V131.66V131.66Z" stroke="#A1D8DF" stroke-miterlimit="10"/>
<path opacity="0.3" d="M-0.830002 0L-0.700001 0.0700073L57.34 32.94V98.83L57.21 98.9L-0.830002 131.77L-0.959999 131.7L-59 98.83V32.94L-58.87 32.87L-0.830002 0ZM56.84 33.23L-0.830002 0.570007L-58.5 33.23V98.55L-0.830002 131.2L56.84 98.54V33.22V33.23Z" stroke="#A1D8DF" stroke-miterlimit="10"/>
<path opacity="0.3" d="M115.01 0.569824L115.14 0.639824L173.18 33.5098V99.3998L173.05 99.4698L115.01 132.34L114.88 132.27L56.8398 99.3998V33.5098L56.9698 33.4398L115.01 0.569824V0.569824ZM172.68 33.7998L115.01 1.13982L57.3398 33.7998V99.1198L115.01 131.78L172.68 99.1198V33.7998Z" stroke="#A1D8DF" stroke-miterlimit="10"/>
<path d="M231.35 196.66L231.48 196.73L289.52 229.6V295.49L289.39 295.56L231.35 328.43L231.22 328.36L173.18 295.49V229.6L173.31 229.53L231.35 196.66ZM289.02 229.89L231.35 197.23L173.68 229.89V295.21L231.35 327.87L289.02 295.21V229.89V229.89Z" stroke="#A1D8DF" stroke-miterlimit="10"/>
<path d="M347.08 196.66L347.21 196.73L405.25 229.6V295.49L405.12 295.56L347.08 328.43L346.95 328.36L288.91 295.49V229.6L289.04 229.53L347.08 196.66ZM404.75 229.89L347.08 197.23L289.41 229.89V295.21L347.08 327.87L404.75 295.21V229.89V229.89Z" stroke="#A1D8DF" stroke-miterlimit="10"/>
<path d="M115.51 196.66L115.64 196.73L173.68 229.6V295.49L173.55 295.56L115.51 328.43L115.38 328.36L57.3398 295.49V229.6L57.4698 229.53L115.51 196.66ZM173.18 229.89L115.51 197.23L57.8398 229.89V295.21L115.51 327.87L173.18 295.21V229.89V229.89Z" stroke="#A1D8DF" stroke-miterlimit="10"/>
<path d="M57.3399 98.4299L57.4699 98.4999L115.51 131.37V197.26L115.38 197.33L57.3399 230.2L57.2099 230.13L-0.830078 197.26V131.37L-0.700078 131.3L57.3399 98.4299V98.4299ZM115.01 131.66L57.3399 98.9999L-0.320078 131.66V196.98L57.3499 229.64L115.02 196.98V131.66H115.01Z" stroke="#A1D8DF" stroke-miterlimit="10"/>
</g>
<defs>
<clipPath id="clip0_156_1062">
<rect width="584" height="919" fill="white"/>
</clipPath>
</defs>
</svg>
