<svg width="700" height="1020" viewBox="0 0 700 1020" fill="none" xmlns="http://www.w3.org/2000/svg">
<path opacity="0.5" d="M542.56 750.19L542.62 750.22L570.11 765.79V797L570.05 797.03L542.56 812.6L542.5 812.57L515.01 797V765.79L515.07 765.76L542.56 750.19ZM569.88 765.93L542.56 750.46L515.24 765.93V796.87L542.56 812.34L569.88 796.87V765.93Z" stroke="white" stroke-width="0.75" stroke-miterlimit="10"/>
<path opacity="0.5" d="M569.75 703.46L569.81 703.49L597.3 719.06V750.27L597.24 750.3L569.75 765.87L569.69 765.84L542.2 750.27V719.06L542.26 719.03L569.75 703.46V703.46ZM597.07 719.2L569.75 703.73L542.43 719.2V750.14L569.75 765.61L597.07 750.14V719.2V719.2Z" stroke="white" stroke-width="0.75" stroke-miterlimit="10"/>
<path opacity="0.5" d="M597.3 749.92L597.36 749.95L624.85 765.52V796.73L624.79 796.76L597.3 812.33L597.24 812.3L569.75 796.73V765.52L569.81 765.49L597.3 749.92ZM624.62 765.66L597.3 750.19L569.98 765.66V796.6L597.3 812.07L624.62 796.6V765.66Z" stroke="white" stroke-width="0.75" stroke-miterlimit="10"/>
<path d="M575.04 691.52L575.1 691.55L602.59 707.12V738.33L602.53 738.36L575.04 753.93L574.98 753.9L547.49 738.33V707.12L547.55 707.09L575.04 691.52ZM602.36 707.26L575.04 691.79L547.72 707.26V738.2L575.04 753.67L602.36 738.2V707.26Z" stroke="#D1E6E9" stroke-miterlimit="10"/>
<path d="M629.67 691.52L629.73 691.55L657.22 707.12V738.33L657.16 738.36L629.67 753.93L629.61 753.9L602.12 738.33V707.12L602.18 707.09L629.67 691.52ZM656.99 707.26L629.67 691.79L602.35 707.26V738.2L629.67 753.67L656.99 738.2V707.26Z" stroke="#D1E6E9" stroke-miterlimit="10"/>
<path d="M602.59 738.08L602.65 738.11L630.14 753.68V784.89L630.08 784.92L602.59 800.49L602.53 800.46L575.04 784.89V753.68L575.1 753.65L602.59 738.08ZM629.91 753.82L602.59 738.35L575.27 753.82V784.76L602.59 800.23L629.91 784.76V753.82Z" stroke="#D1E6E9" stroke-miterlimit="10"/>
<path d="M575.28 784.98L575.34 785.01L602.83 800.58V831.79L602.77 831.82L575.28 847.39L575.22 847.36L547.73 831.79V800.58L547.79 800.55L575.28 784.98ZM602.6 800.72L575.28 785.25L547.96 800.72V831.66L575.28 847.13L602.6 831.66V800.72Z" stroke="#D1E6E9" stroke-miterlimit="10"/>
<path d="M630.14 784.98L630.2 785.01L657.69 800.58V831.79L657.63 831.82L630.14 847.39L630.08 847.36L602.59 831.79V800.58L602.65 800.55L630.14 784.98ZM657.46 800.72L630.14 785.25L602.82 800.72V831.66L630.14 847.13L657.46 831.66V800.72Z" stroke="#D1E6E9" stroke-miterlimit="10"/>
<path d="M602.83 831.74L602.89 831.77L630.38 847.34V878.55L630.32 878.58L602.83 894.15L602.77 894.12L575.28 878.55V847.34L575.34 847.31L602.83 831.74ZM630.15 847.48L602.83 832.01L575.51 847.48V878.42L602.83 893.89L630.15 878.42V847.48Z" stroke="#D1E6E9" stroke-miterlimit="10"/>
<path d="M630.38 878.2L630.44 878.23L657.93 893.8V925.01L657.87 925.04L630.38 940.61L630.32 940.58L602.83 925.01V893.8L602.89 893.77L630.38 878.2ZM657.7 893.94L630.38 878.47L603.06 893.94V924.88L630.38 940.35L657.7 924.88V893.94Z" stroke="#D1E6E9" stroke-miterlimit="10"/>
<path d="M520.41 785.25L520.47 785.28L547.96 800.85V832.06L547.9 832.09L520.41 847.66L520.35 847.63L492.86 832.06V800.85L492.92 800.82L520.41 785.25ZM547.73 800.99L520.41 785.52L493.09 800.99V831.93L520.41 847.4L547.73 831.93V800.99Z" stroke="#D1E6E9" stroke-miterlimit="10"/>
<path opacity="0.6" d="M493.09 831.74L493.15 831.77L520.64 847.34V878.55L520.58 878.58L493.09 894.15L493.03 894.12L465.54 878.55V847.34L465.6 847.31L493.09 831.74ZM520.41 847.48L493.09 832.01L465.77 847.48V878.42L493.09 893.89L520.41 878.42V847.48Z" stroke="#D1E6E9" stroke-miterlimit="10"/>
<path opacity="0.6" d="M465.54 878.2L465.6 878.23L493.09 893.8V925.01L493.03 925.04L465.54 940.61L465.48 940.58L437.99 925.01V893.8L438.05 893.77L465.54 878.2ZM492.86 893.94L465.54 878.47L438.22 893.94V924.88L465.54 940.35L492.86 924.88V893.94Z" stroke="#D1E6E9" stroke-miterlimit="10"/>
<path opacity="0.5" d="M410.67 878.2L410.73 878.23L438.22 893.8V925.01L438.16 925.04L410.67 940.61L410.61 940.58L383.12 925.01V893.8L383.18 893.77L410.67 878.2ZM437.99 893.94L410.67 878.47L383.35 893.94V924.88L410.67 940.35L437.99 924.88V893.94Z" stroke="#D1E6E9" stroke-miterlimit="10"/>
<path opacity="0.6" d="M438.22 832.01L438.28 832.04L465.77 847.61V878.82L465.71 878.85L438.22 894.42L438.16 894.39L410.67 878.82V847.61L410.73 847.58L438.22 832.01ZM465.54 847.75L438.22 832.28L410.9 847.75V878.69L438.22 894.16L465.54 878.69V847.75Z" stroke="#D1E6E9" stroke-miterlimit="10"/>
<path d="M657.46 738.26L657.52 738.29L685.01 753.86V785.07L684.95 785.1L657.46 800.67L657.4 800.64L629.91 785.07V753.86L629.97 753.83L657.46 738.26ZM684.78 754L657.46 738.53L630.14 754V784.94L657.46 800.41L684.78 784.94V754Z" stroke="#D1E6E9" stroke-miterlimit="10"/>
<path opacity="0.6" d="M547.48 645.02L547.54 645.05L575.03 660.62V691.83L574.97 691.86L547.48 707.43L547.42 707.4L519.93 691.83V660.62L519.99 660.59L547.48 645.02ZM574.8 660.76L547.48 645.29L520.16 660.76V691.7L547.48 707.17L574.8 691.7V660.76Z" stroke="#D1E6E9" stroke-miterlimit="10"/>
<path d="M519.93 598.74L519.99 598.77L547.48 614.34V645.55L547.42 645.58L519.93 661.15L519.87 661.12L492.38 645.55V614.34L492.44 614.31L519.93 598.74V598.74ZM547.25 614.48L519.93 599.01L492.61 614.48V645.42L519.93 660.89L547.25 645.42V614.48Z" stroke="#D1E6E9" stroke-miterlimit="10"/>
<path opacity="0.6" d="M465.3 598.47L465.36 598.5L492.85 614.07V645.28L492.79 645.31L465.3 660.88L465.24 660.85L437.75 645.28V614.07L437.81 614.04L465.3 598.47ZM492.62 614.21L465.3 598.74L437.98 614.21V645.15L465.3 660.62L492.62 645.15V614.21Z" stroke="#D1E6E9" stroke-miterlimit="10"/>
<path opacity="0.5" d="M437.54 645.02L437.6 645.05L465.09 660.62V691.83L465.03 691.86L437.54 707.43L437.48 707.4L409.99 691.83V660.62L410.05 660.59L437.54 645.02ZM464.86 660.76L437.54 645.29L410.22 660.76V691.7L437.54 707.17L464.86 691.7V660.76Z" stroke="#D1E6E9" stroke-miterlimit="10"/>
<path opacity="0.6" d="M377.78 520.71L377.84 520.74L405.33 536.31V567.52L405.27 567.55L377.78 583.12L377.72 583.09L350.23 567.52V536.31L350.29 536.28L377.78 520.71V520.71ZM405.1 536.45L377.78 520.98L350.46 536.45V567.39L377.78 582.86L405.1 567.39V536.45V536.45Z" stroke="#D1E6E9" stroke-miterlimit="10"/>
<path opacity="0.6" d="M410.19 412.13L410.25 412.16L437.74 427.73V458.94L437.68 458.97L410.19 474.54L410.13 474.51L382.64 458.94V427.73L382.7 427.7L410.19 412.13ZM437.51 427.87L410.19 412.4L382.87 427.87V458.81L410.19 474.28L437.51 458.81V427.87V427.87Z" stroke="#D1E6E9" stroke-miterlimit="10"/>
<path opacity="0.5" d="M350.02 567.26L350.08 567.29L377.57 582.86V614.07L377.51 614.1L350.02 629.67L349.96 629.64L322.47 614.07V582.86L322.53 582.83L350.02 567.26ZM377.34 583L350.02 567.53L322.7 583V613.94L350.02 629.41L377.34 613.94V583V583Z" stroke="#D1E6E9" stroke-miterlimit="10"/>
<path opacity="0.5" d="M322.7 614.09L322.76 614.12L350.25 629.69V660.9L350.19 660.93L322.7 676.5L322.64 676.47L295.15 660.9V629.69L295.21 629.66L322.7 614.09ZM350.02 629.83L322.7 614.36L295.38 629.83V660.77L322.7 676.24L350.02 660.77V629.83Z" stroke="#D1E6E9" stroke-miterlimit="10"/>
<path opacity="0.5" d="M322.7 520.71L322.76 520.74L350.25 536.31V567.52L350.19 567.55L322.7 583.12L322.64 583.09L295.15 567.52V536.31L295.21 536.28L322.7 520.71V520.71ZM350.02 536.45L322.7 520.98L295.38 536.45V567.39L322.7 582.86L350.02 567.39V536.45V536.45Z" stroke="#D1E6E9" stroke-miterlimit="10"/>
<path opacity="0.5" d="M295.39 474.48L295.45 474.51L322.94 490.08V521.29L322.88 521.32L295.39 536.89L295.33 536.86L267.84 521.29V490.09L267.9 490.06L295.39 474.49V474.48ZM322.71 490.22L295.39 474.75L268.07 490.22V521.16L295.39 536.63L322.71 521.16V490.22Z" stroke="#D1E6E9" stroke-miterlimit="10"/>
<path opacity="0.5" d="M240.52 474.21L240.58 474.24L268.07 489.81V521.02L268.01 521.05L240.52 536.62L240.46 536.59L212.97 521.02V489.82L213.03 489.79L240.52 474.22V474.21ZM267.84 489.95L240.52 474.48L213.2 489.95V520.89L240.52 536.36L267.84 520.89V489.95Z" stroke="#D1E6E9" stroke-miterlimit="10"/>
<path opacity="0.5" d="M185.65 474.48L185.71 474.51L213.2 490.08V521.29L213.14 521.32L185.65 536.89L185.59 536.86L158.1 521.29V490.09L158.16 490.06L185.65 474.49V474.48ZM212.97 490.22L185.65 474.75L158.33 490.22V521.16L185.65 536.63L212.97 521.16V490.22Z" stroke="#D1E6E9" stroke-miterlimit="10"/>
<path opacity="0.5" d="M158.34 521.06L158.4 521.09L185.89 536.66V567.87L185.83 567.9L158.34 583.47L158.28 583.44L130.79 567.87V536.66L130.85 536.63L158.34 521.06V521.06ZM185.66 536.8L158.34 521.33L131.02 536.8V567.74L158.34 583.21L185.66 567.74V536.8Z" stroke="#D1E6E9" stroke-miterlimit="10"/>
<path d="M575.04 598.47L575.1 598.5L602.59 614.07V645.28L602.53 645.31L575.04 660.88L574.98 660.85L547.49 645.28V614.07L547.55 614.04L575.04 598.47ZM602.36 614.21L575.04 598.74L547.72 614.21V645.15L575.04 660.62L602.36 645.15V614.21Z" stroke="#D1E6E9" stroke-miterlimit="10"/>
<path d="M602.35 645.02L602.41 645.05L629.9 660.62V691.83L629.84 691.86L602.35 707.43L602.29 707.4L574.8 691.83V660.62L574.86 660.59L602.35 645.02ZM629.67 660.76L602.35 645.29L575.03 660.76V691.7L602.35 707.17L629.67 691.7V660.76Z" stroke="#D1E6E9" stroke-miterlimit="10"/>
<path d="M602.59 551.79L602.65 551.82L630.14 567.39V598.6L630.08 598.63L602.59 614.2L602.53 614.17L575.04 598.6V567.39L575.1 567.36L602.59 551.79ZM629.91 567.53L602.59 552.06L575.27 567.53V598.47L602.59 613.94L629.91 598.47V567.53V567.53Z" stroke="#D1E6E9" stroke-miterlimit="10"/>
<path d="M547.72 551.79L547.78 551.82L575.27 567.39V598.6L575.21 598.63L547.72 614.2L547.66 614.17L520.17 598.6V567.39L520.23 567.36L547.72 551.79ZM575.04 567.53L547.72 552.06L520.4 567.53V598.47L547.72 613.94L575.04 598.47V567.53V567.53Z" stroke="#D1E6E9" stroke-miterlimit="10"/>
<path d="M575.28 505.42L575.34 505.45L602.83 521.02V552.23L602.77 552.26L575.28 567.83L575.22 567.8L547.73 552.23V521.02L547.79 520.99L575.28 505.42V505.42ZM602.6 521.16L575.28 505.69L547.96 521.16V552.1L575.28 567.57L602.6 552.1V521.16Z" stroke="#D1E6E9" stroke-miterlimit="10"/>
<path d="M520.17 505.42L520.23 505.45L547.72 521.02V552.23L547.66 552.26L520.17 567.83L520.11 567.8L492.62 552.23V521.02L492.68 520.99L520.17 505.42V505.42ZM547.49 521.16L520.17 505.69L492.85 521.16V552.1L520.17 567.57L547.49 552.1V521.16Z" stroke="#D1E6E9" stroke-miterlimit="10"/>
<path d="M492.61 458.91L492.67 458.94L520.16 474.51V505.72L520.1 505.75L492.61 521.32L492.55 521.29L465.06 505.72V474.51L465.12 474.48L492.61 458.91ZM519.93 474.65L492.61 459.18L465.29 474.65V505.59L492.61 521.06L519.93 505.59V474.65V474.65Z" stroke="#D1E6E9" stroke-miterlimit="10"/>
<path d="M437.75 458.64L437.81 458.67L465.3 474.24V505.45L465.24 505.48L437.75 521.05L437.69 521.02L410.2 505.45V474.24L410.26 474.21L437.75 458.64ZM465.07 474.38L437.75 458.91L410.43 474.38V505.32L437.75 520.79L465.07 505.32V474.38Z" stroke="#D1E6E9" stroke-miterlimit="10"/>
<path opacity="0.6" d="M465.3 505.42L465.36 505.45L492.85 521.02V552.23L492.79 552.26L465.3 567.83L465.24 567.8L437.75 552.23V521.02L437.81 520.99L465.3 505.42V505.42ZM492.62 521.16L465.3 505.69L437.98 521.16V552.1L465.3 567.57L492.62 552.1V521.16Z" stroke="#D1E6E9" stroke-miterlimit="10"/>
<path d="M629.91 505.42L629.97 505.45L657.46 521.02V552.23L657.4 552.26L629.91 567.83L629.85 567.8L602.36 552.23V521.02L602.42 520.99L629.91 505.42V505.42ZM657.23 521.16L629.91 505.69L602.59 521.16V552.1L629.91 567.57L657.23 552.1V521.16Z" stroke="#D1E6E9" stroke-miterlimit="10"/>
<path d="M547.72 458.91L547.78 458.94L575.27 474.51V505.72L575.21 505.75L547.72 521.32L547.66 521.29L520.17 505.72V474.51L520.23 474.48L547.72 458.91ZM575.04 474.65L547.72 459.18L520.4 474.65V505.59L547.72 521.06L575.04 505.59V474.65V474.65Z" stroke="#D1E6E9" stroke-miterlimit="10"/>
<path d="M602.35 458.64L602.41 458.67L629.9 474.24V505.45L629.84 505.48L602.35 521.05L602.29 521.02L574.8 505.45V474.24L574.86 474.21L602.35 458.64ZM629.67 474.38L602.35 458.91L575.03 474.38V505.32L602.35 520.79L629.67 505.32V474.38Z" stroke="#D1E6E9" stroke-miterlimit="10"/>
<path d="M629.67 412.13L629.73 412.16L657.22 427.73V458.94L657.16 458.97L629.67 474.54L629.61 474.51L602.12 458.94V427.73L602.18 427.7L629.67 412.13ZM656.99 427.87L629.67 412.4L602.35 427.87V458.81L629.67 474.28L656.99 458.81V427.87V427.87Z" stroke="#D1E6E9" stroke-miterlimit="10"/>
<path d="M574.8 412.13L574.86 412.16L602.35 427.73V458.94L602.29 458.97L574.8 474.54L574.74 474.51L547.25 458.94V427.73L547.31 427.7L574.8 412.13ZM602.12 427.87L574.8 412.4L547.48 427.87V458.81L574.8 474.28L602.12 458.81V427.87V427.87Z" stroke="#D1E6E9" stroke-miterlimit="10"/>
<path d="M519.93 412.13L519.99 412.16L547.48 427.73V458.94L547.42 458.97L519.93 474.54L519.87 474.51L492.38 458.94V427.73L492.44 427.7L519.93 412.13ZM547.25 427.87L519.93 412.4L492.61 427.87V458.81L519.93 474.28L547.25 458.81V427.87V427.87Z" stroke="#D1E6E9" stroke-miterlimit="10"/>
<path d="M465.06 412.13L465.12 412.16L492.61 427.73V458.94L492.55 458.97L465.06 474.54L465 474.51L437.51 458.94V427.73L437.57 427.7L465.06 412.13ZM492.38 427.87L465.06 412.4L437.74 427.87V458.81L465.06 474.28L492.38 458.81V427.87V427.87Z" stroke="#D1E6E9" stroke-miterlimit="10"/>
<path d="M581.72 492.58L581.85 492.65L639.89 525.52V591.41L639.76 591.48L581.72 624.35L581.59 624.28L523.55 591.41V525.52L523.68 525.45L581.72 492.58V492.58ZM639.39 525.81L581.72 493.15L524.05 525.81V591.13L581.72 623.79L639.39 591.13V525.81V525.81Z" stroke="#A1D8DF" stroke-miterlimit="10"/>
<path d="M524.05 591.07L524.18 591.14L582.22 624.01V689.9L582.09 689.97L524.05 722.84L523.92 722.77L465.88 689.9V624.01L466.01 623.94L524.05 591.07ZM581.72 624.3L524.05 591.64L466.38 624.3V689.62L524.05 722.28L581.72 689.62V624.3Z" stroke="#A1D8DF" stroke-miterlimit="10"/>
<path opacity="0.6" d="M467.03 689.84L467.16 689.91L525.2 722.78V788.67L525.07 788.74L467.03 821.61L466.9 821.54L408.86 788.67V722.78L408.99 722.71L467.03 689.84V689.84ZM524.7 723.07L467.03 690.41L409.36 723.07V788.39L467.03 821.05L524.7 788.39V723.07Z" stroke="#A1D8DF" stroke-miterlimit="10"/>
<path opacity="0.3" d="M524.55 788.16L524.68 788.23L582.72 821.1V886.99L582.59 887.06L524.55 919.93L524.42 919.86L466.38 886.99V821.1L466.51 821.03L524.55 788.16ZM582.22 821.39L524.55 788.73L466.88 821.39V886.71L524.55 919.37L582.22 886.71V821.39V821.39Z" stroke="#A1D8DF" stroke-miterlimit="10"/>
<path opacity="0.3" d="M582.22 886.66L582.35 886.73L640.39 919.6V985.49L640.26 985.56L582.22 1018.43L582.09 1018.36L524.05 985.49V919.6L524.18 919.53L582.22 886.66V886.66ZM639.89 919.89L582.22 887.23L524.55 919.89V985.21L582.22 1017.87L639.89 985.21V919.89V919.89Z" stroke="#A1D8DF" stroke-miterlimit="10"/>
<path opacity="0.3" d="M407.81 788.16L407.94 788.23L466.89 821.1V886.99L466.76 887.06L407.81 919.93L407.68 919.86L348.73 886.99V821.1L348.86 821.03L407.81 788.16ZM466.37 821.39L407.81 788.73L349.25 821.39V886.71L407.81 919.37L466.37 886.71V821.39V821.39Z" stroke="#A1D8DF" stroke-miterlimit="10"/>
<path d="M639.89 591.07L640.02 591.14L698.06 624.01V689.9L697.93 689.97L639.89 722.84L639.76 722.77L581.72 689.9V624.01L581.85 623.94L639.89 591.07ZM697.56 624.3L639.89 591.64L582.22 624.3V689.62L639.89 722.28L697.56 689.62V624.3Z" stroke="#A1D8DF" stroke-miterlimit="10"/>
<path d="M582.22 689.7L582.35 689.77L640.39 722.64V788.53L640.26 788.6L582.22 821.47L582.09 821.4L524.05 788.53V722.64L524.18 722.57L582.22 689.7ZM639.89 722.93L582.22 690.27L524.55 722.93V788.25L582.22 820.91L639.89 788.25V722.93V722.93Z" stroke="#A1D8DF" stroke-miterlimit="10"/>
<path d="M640.39 788.16L640.52 788.23L698.56 821.1V886.99L698.43 887.06L640.39 919.93L640.26 919.86L582.22 886.99V821.1L582.35 821.03L640.39 788.16ZM698.06 821.39L640.39 788.73L582.72 821.39V886.71L640.39 919.37L698.06 886.71V821.39V821.39Z" stroke="#A1D8DF" stroke-miterlimit="10"/>
<path d="M465.86 492.58L465.99 492.65L524.03 525.52V591.41L523.9 591.48L465.86 624.35L465.73 624.28L407.69 591.41V525.52L407.82 525.45L465.86 492.58V492.58ZM523.53 525.81L465.86 493.15L408.19 525.81V591.13L465.86 623.79L523.53 591.13V525.81V525.81Z" stroke="#A1D8DF" stroke-miterlimit="10"/>
<path d="M523.52 394.01L523.65 394.08L581.69 426.95V492.84L581.56 492.91L523.52 525.78L523.39 525.71L465.35 492.84V426.95L465.48 426.88L523.52 394.01ZM581.19 427.24L523.52 394.58L465.85 427.24V492.55L523.52 525.21L581.19 492.55V427.23V427.24Z" stroke="#A1D8DF" stroke-miterlimit="10"/>
<path d="M407.69 394.01L407.82 394.08L465.86 426.95V492.84L465.73 492.91L407.69 525.78L407.56 525.71L349.52 492.84V426.95L349.65 426.88L407.69 394.01ZM465.36 427.24L407.69 394.58L350.02 427.24V492.55L407.69 525.21L465.36 492.55V427.23V427.24Z" stroke="#A1D8DF" stroke-miterlimit="10"/>
<path d="M291.35 394.01L291.48 394.08L349.52 426.95V492.84L349.39 492.91L291.35 525.78L291.22 525.71L233.18 492.84V426.95L233.31 426.88L291.35 394.01ZM349.02 427.24L291.35 394.58L233.68 427.24V492.55L291.35 525.21L349.02 492.55V427.23V427.24Z" stroke="#A1D8DF" stroke-miterlimit="10"/>
<path opacity="0.6" d="M175.51 394.01L175.64 394.08L233.68 426.95V492.84L233.55 492.91L175.51 525.78L175.38 525.71L117.34 492.84V426.95L117.47 426.88L175.51 394.01ZM233.18 427.24L175.51 394.58L117.84 427.24V492.55L175.51 525.21L233.18 492.55V427.23V427.24Z" stroke="#A1D8DF" stroke-miterlimit="10"/>
<path opacity="0.6" d="M59.17 393.29L59.3 393.36L117.34 426.23V492.12L117.21 492.19L59.17 525.06L59.04 524.99L1 492.12V426.23L1.13 426.16L59.17 393.29ZM116.84 426.52L59.17 393.86L1.5 426.52V491.84L59.17 524.5L116.84 491.84V426.52V426.52Z" stroke="#A1D8DF" stroke-miterlimit="10"/>
<path opacity="0.3" d="M233.18 492.58L233.31 492.65L291.35 525.52V591.41L291.22 591.48L233.18 624.35L233.05 624.28L175.01 591.41V525.52L175.14 525.45L233.18 492.58V492.58ZM290.85 525.81L233.18 493.15L175.51 525.81V591.13L233.18 623.79L290.85 591.13V525.81V525.81Z" stroke="#A1D8DF" stroke-miterlimit="10"/>
<path opacity="0.5" d="M542.26 656.96L542.32 656.99L569.75 672.52V703.66L569.69 703.69L542.26 719.22L542.2 719.19L514.77 703.66V672.52L514.83 672.49L542.26 656.96V656.96ZM569.51 672.66L542.26 657.23L515.01 672.66V703.53L542.26 718.96L569.51 703.53V672.66Z" stroke="white" stroke-width="0.75" stroke-miterlimit="10"/>
<path d="M635.01 597.23L671.3 617.78V658.88L635.01 679.43L598.72 658.88V617.78L635.01 597.23V597.23ZM670.06 618.48L635.01 598.63L599.96 618.48V658.18L635.01 678.03L670.06 658.18V618.48V618.48Z" stroke="white" stroke-width="0.75" stroke-miterlimit="10"/>
<path opacity="0.5" d="M492.33 597.23L528.62 617.78V658.88L492.33 679.43L456.04 658.88V617.78L492.33 597.23V597.23ZM527.38 618.48L492.33 598.63L457.28 618.48V658.18L492.33 678.03L527.38 658.18V618.48V618.48Z" stroke="white" stroke-width="0.75" stroke-miterlimit="10"/>
<path opacity="0.5" d="M456.68 657.89L492.97 678.44V719.54L456.68 740.09L420.39 719.54V678.44L456.68 657.89V657.89ZM491.73 679.14L456.68 659.29L421.63 679.14V718.84L456.68 738.69L491.73 718.84V679.14Z" stroke="white" stroke-width="0.75" stroke-miterlimit="10"/>
<path opacity="0.5" d="M421.63 718.96L457.92 739.51V780.61L421.63 801.16L385.34 780.61V739.51L421.63 718.96V718.96ZM456.68 740.21L421.63 720.36L386.58 740.21V779.91L421.63 799.76L456.68 779.91V740.21Z" stroke="white" stroke-width="0.75" stroke-miterlimit="10"/>
<path opacity="0.5" d="M456.68 779.8L492.97 800.35V841.45L456.68 862L420.39 841.45V800.35L456.68 779.8ZM491.73 801.05L456.68 781.2L421.63 801.05V840.75L456.68 860.6L491.73 840.75V801.05Z" stroke="white" stroke-width="0.75" stroke-miterlimit="10"/>
<path opacity="0.5" d="M350.29 718.96L386.58 739.51V780.61L350.29 801.16L314 780.61V739.51L350.29 718.96V718.96ZM385.34 740.21L350.29 720.36L315.24 740.21V779.91L350.29 799.76L385.34 779.91V740.21Z" stroke="white" stroke-width="0.75" stroke-miterlimit="10"/>
<path opacity="0.5" d="M315.24 657.89L351.53 678.44V719.54L315.24 740.09L278.95 719.54V678.44L315.24 657.89V657.89ZM350.29 679.14L315.24 659.29L280.19 679.14V718.84L315.24 738.69L350.29 718.84V679.14Z" stroke="white" stroke-width="0.75" stroke-miterlimit="10"/>
<path opacity="0.3" d="M278.95 718.12L315.24 738.67V779.77L278.95 800.32L242.66 779.77V738.67L278.95 718.12ZM314 739.37L278.95 719.52L243.9 739.37V779.07L278.95 798.92L314 779.07V739.37Z" stroke="white" stroke-width="0.75" stroke-miterlimit="10"/>
<path d="M491.73 476.26L528.02 496.81V537.91L491.73 558.46L455.44 537.91V496.81L491.73 476.26V476.26ZM526.78 497.51L491.73 477.66L456.68 497.51V537.21L491.73 557.06L526.78 537.21V497.51Z" stroke="white" stroke-width="0.75" stroke-miterlimit="10"/>
<path d="M528.02 536.47L564.31 557.02V598.12L528.02 618.67L491.73 598.12V557.02L528.02 536.47V536.47ZM563.07 557.72L528.02 537.87L492.97 557.72V597.42L528.02 617.27L563.07 597.42V557.72V557.72Z" stroke="white" stroke-width="0.75" stroke-miterlimit="10"/>
<path d="M563.07 475.58L599.36 496.13V537.24L563.07 557.79L526.78 537.24V496.13L563.07 475.58V475.58ZM598.12 496.83L563.07 476.98L528.02 496.83V536.53L563.07 556.38L598.12 536.53V496.83Z" stroke="white" stroke-width="0.75" stroke-miterlimit="10"/>
<path d="M634.41 475.58L670.7 496.13V537.24L634.41 557.79L598.12 537.24V496.13L634.41 475.58V475.58ZM669.46 496.83L634.41 476.98L599.36 496.83V536.53L634.41 556.38L669.46 536.53V496.83Z" stroke="white" stroke-width="0.75" stroke-miterlimit="10"/>
<path d="M598.68 414.87L634.97 435.42V476.53L598.68 497.08L562.39 476.53V435.42L598.68 414.87V414.87ZM633.73 436.12L598.68 416.27L563.63 436.12V475.83L598.68 495.68L633.73 475.83V436.12Z" stroke="white" stroke-width="0.75" stroke-miterlimit="10"/>
<path opacity="0.6" d="M420.39 476.26L456.68 496.81V537.91L420.39 558.46L384.1 537.91V496.81L420.39 476.26V476.26ZM455.44 497.51L420.39 477.66L385.34 497.51V537.21L420.39 557.06L455.44 537.21V497.51Z" stroke="white" stroke-width="0.75" stroke-miterlimit="10"/>
<path opacity="0.6" d="M455.97 415.63L492.26 436.18V477.28L455.97 497.83L419.68 477.28V436.18L455.97 415.63ZM491.02 436.88L455.97 417.03L420.92 436.88V476.58L455.97 496.43L491.02 476.58V436.88Z" stroke="white" stroke-width="0.75" stroke-miterlimit="10"/>
<path opacity="0.6" d="M384.63 415.63L420.92 436.18V477.28L384.63 497.83L348.34 477.28V436.18L384.63 415.63ZM419.68 436.88L384.63 417.03L349.58 436.88V476.58L384.63 496.43L419.68 476.58V436.88Z" stroke="white" stroke-width="0.75" stroke-miterlimit="10"/>
<path opacity="0.5" d="M313.76 537.01L350.05 557.56V598.66L313.76 619.21L277.47 598.66V557.56L313.76 537.01V537.01ZM348.81 558.26L313.76 538.41L278.71 558.26V597.96L313.76 617.81L348.81 597.96V558.26V558.26Z" stroke="white" stroke-width="0.75" stroke-miterlimit="10"/>
<path opacity="0.5" d="M349.05 476.26L385.34 496.81V537.91L349.05 558.46L312.76 537.91V496.81L349.05 476.26V476.26ZM384.1 497.51L349.05 477.66L314 497.51V537.21L349.05 557.06L384.1 537.21V497.51Z" stroke="white" stroke-width="0.75" stroke-miterlimit="10"/>
<path opacity="0.5" d="M313.23 415.63L349.52 436.18V477.28L313.23 497.83L276.94 477.28V436.18L313.23 415.63ZM348.28 436.88L313.23 417.03L278.18 436.88V476.58L313.23 496.43L348.28 476.58V436.88Z" stroke="white" stroke-width="0.75" stroke-miterlimit="10"/>
<path opacity="0.5" d="M241.89 415.63L278.18 436.18V477.28L241.89 497.83L205.6 477.28V436.18L241.89 415.63ZM276.94 436.88L241.89 417.03L206.84 436.88V476.58L241.89 496.43L276.94 476.58V436.88Z" stroke="white" stroke-width="0.75" stroke-miterlimit="10"/>
<path d="M563.67 597.23L599.96 617.78V658.88L563.67 679.43L527.38 658.88V617.78L563.67 597.23V597.23ZM598.72 618.48L563.67 598.63L528.62 618.48V658.18L563.67 678.03L598.72 658.18V618.48V618.48Z" stroke="white" stroke-width="0.75" stroke-miterlimit="10"/>
<path opacity="0.6" d="M410.19 412.76L410.25 412.79L437.74 428.36V459.57L437.68 459.6L410.19 475.17L410.13 475.14L382.64 459.57V428.36L382.7 428.33L410.19 412.76ZM437.51 428.5L410.19 413.03L382.87 428.5V459.44L410.19 474.91L437.51 459.44V428.5Z" stroke="#D1E6E9" stroke-miterlimit="10"/>
<path opacity="0.6" d="M382.88 365.96L382.94 365.99L410.43 381.56V412.77L410.37 412.8L382.88 428.37L382.82 428.34L355.33 412.77V381.56L355.39 381.53L382.88 365.96ZM410.2 381.7L382.88 366.23L355.56 381.7V412.64L382.88 428.11L410.2 412.64V381.7Z" stroke="#D1E6E9" stroke-miterlimit="10"/>
<path opacity="0.6" d="M355.32 319.38L355.38 319.41L382.87 334.98V366.19L382.81 366.22L355.32 381.79L355.26 381.76L327.77 366.19V334.98L327.83 334.95L355.32 319.38V319.38ZM382.64 335.12L355.32 319.65L328 335.12V366.06L355.32 381.53L382.64 366.06V335.12Z" stroke="#D1E6E9" stroke-miterlimit="10"/>
<path opacity="0.5" d="M328.01 365.96L328.07 365.99L355.56 381.56V412.77L355.5 412.8L328.01 428.37L327.95 428.34L300.46 412.77V381.56L300.52 381.53L328.01 365.96ZM355.33 381.7L328.01 366.23L300.69 381.7V412.64L328.01 428.11L355.33 412.64V381.7Z" stroke="#D1E6E9" stroke-miterlimit="10"/>
<path d="M492.61 459.54L492.67 459.57L520.16 475.14V506.35L520.1 506.38L492.61 521.95L492.55 521.92L465.06 506.35V475.14L465.12 475.11L492.61 459.54ZM519.93 475.28L492.61 459.81L465.29 475.28V506.22L492.61 521.69L519.93 506.22V475.28Z" stroke="#D1E6E9" stroke-miterlimit="10"/>
<path d="M437.75 459.27L437.81 459.3L465.3 474.87V506.08L465.24 506.11L437.75 521.68L437.69 521.65L410.2 506.08V474.87L410.26 474.84L437.75 459.27ZM465.07 475.01L437.75 459.54L410.43 475.01V505.95L437.75 521.42L465.07 505.95V475.01Z" stroke="#D1E6E9" stroke-miterlimit="10"/>
<path d="M547.72 459.54L547.78 459.57L575.27 475.14V506.35L575.21 506.38L547.72 521.95L547.66 521.92L520.17 506.35V475.14L520.23 475.11L547.72 459.54ZM575.04 475.28L547.72 459.81L520.4 475.28V506.22L547.72 521.69L575.04 506.22V475.28Z" stroke="#D1E6E9" stroke-miterlimit="10"/>
<path d="M602.35 459.27L602.41 459.3L629.9 474.87V506.08L629.84 506.11L602.35 521.68L602.29 521.65L574.8 506.08V474.87L574.86 474.84L602.35 459.27ZM629.67 475.01L602.35 459.54L575.03 475.01V505.95L602.35 521.42L629.67 505.95V475.01Z" stroke="#D1E6E9" stroke-miterlimit="10"/>
<path d="M629.67 412.76L629.73 412.79L657.22 428.36V459.57L657.16 459.6L629.67 475.17L629.61 475.14L602.12 459.57V428.36L602.18 428.33L629.67 412.76ZM656.99 428.5L629.67 413.03L602.35 428.5V459.44L629.67 474.91L656.99 459.44V428.5Z" stroke="#D1E6E9" stroke-miterlimit="10"/>
<path d="M602.35 365.96L602.41 365.99L629.9 381.56V412.77L629.84 412.8L602.35 428.37L602.29 428.34L574.8 412.77V381.56L574.86 381.53L602.35 365.96ZM629.67 381.7L602.35 366.23L575.03 381.7V412.64L602.35 428.11L629.67 412.64V381.7Z" stroke="#D1E6E9" stroke-miterlimit="10"/>
<path d="M630.14 319.38L630.2 319.41L657.69 334.98V366.19L657.63 366.22L630.14 381.79L630.08 381.76L602.59 366.19V334.98L602.65 334.95L630.14 319.38V319.38ZM657.46 335.12L630.14 319.65L602.82 335.12V366.06L630.14 381.53L657.46 366.06V335.12Z" stroke="#D1E6E9" stroke-miterlimit="10"/>
<path d="M657.22 366.23L657.28 366.26L684.77 381.83V413.04L684.71 413.07L657.22 428.64L657.16 428.61L629.67 413.04V381.83L629.73 381.8L657.22 366.23ZM684.54 381.97L657.22 366.5L629.9 381.97V412.91L657.22 428.38L684.54 412.91V381.97Z" stroke="#D1E6E9" stroke-miterlimit="10"/>
<path d="M547.25 365.96L547.31 365.99L574.8 381.56V412.77L574.74 412.8L547.25 428.37L547.19 428.34L519.7 412.77V381.56L519.76 381.53L547.25 365.96ZM574.57 381.7L547.25 366.23L519.93 381.7V412.64L547.25 428.11L574.57 412.64V381.7Z" stroke="#D1E6E9" stroke-miterlimit="10"/>
<path d="M574.8 412.76L574.86 412.79L602.35 428.36V459.57L602.29 459.6L574.8 475.17L574.74 475.14L547.25 459.57V428.36L547.31 428.33L574.8 412.76ZM602.12 428.5L574.8 413.03L547.48 428.5V459.44L574.8 474.91L602.12 459.44V428.5Z" stroke="#D1E6E9" stroke-miterlimit="10"/>
<path d="M519.93 412.76L519.99 412.79L547.48 428.36V459.57L547.42 459.6L519.93 475.17L519.87 475.14L492.38 459.57V428.36L492.44 428.33L519.93 412.76ZM547.25 428.5L519.93 413.03L492.61 428.5V459.44L519.93 474.91L547.25 459.44V428.5Z" stroke="#D1E6E9" stroke-miterlimit="10"/>
<path d="M492.38 365.96L492.44 365.99L519.93 381.56V412.77L519.87 412.8L492.38 428.37L492.32 428.34L464.83 412.77V381.56L464.89 381.53L492.38 365.96ZM519.7 381.7L492.38 366.23L465.06 381.7V412.64L492.38 428.11L519.7 412.64V381.7Z" stroke="#D1E6E9" stroke-miterlimit="10"/>
<path d="M465.06 412.76L465.12 412.79L492.61 428.36V459.57L492.55 459.6L465.06 475.17L465 475.14L437.51 459.57V428.36L437.57 428.33L465.06 412.76ZM492.38 428.5L465.06 413.03L437.74 428.5V459.44L465.06 474.91L492.38 459.44V428.5Z" stroke="#D1E6E9" stroke-miterlimit="10"/>
<path opacity="0.3" d="M291.85 197.79L291.98 197.86L350.02 230.73V296.62L349.89 296.69L291.85 329.56L291.72 329.49L233.68 296.62V230.73L233.81 230.66L291.85 197.79V197.79ZM349.52 231.02L291.85 198.36L234.18 231.02V296.34L291.85 329L349.52 296.34V231.02Z" stroke="#A1D8DF" stroke-miterlimit="10"/>
<path opacity="0.6" d="M580.69 99.3599L580.82 99.4299L638.86 132.3V198.19L638.73 198.26L580.69 231.13L580.56 231.06L522.52 198.19V132.3L522.65 132.23L580.69 99.3599V99.3599ZM638.36 132.59L580.69 99.9299L523.02 132.59V197.9L580.69 230.56L638.36 197.9V132.59V132.59Z" stroke="#A1D8DF" stroke-miterlimit="10"/>
<path opacity="0.3" d="M522.52 1L522.65 1.07L580.69 33.94V99.83L580.56 99.9L522.52 132.77L522.39 132.7L464.35 99.83V33.94L464.48 33.87L522.52 1ZM580.19 34.23L522.52 1.57L464.85 34.23V99.55L522.52 132.21L580.19 99.55V34.23Z" stroke="#A1D8DF" stroke-miterlimit="10"/>
<path opacity="0.3" d="M638.35 1L638.48 1.07L696.52 33.94V99.83L696.39 99.9L638.35 132.77L638.22 132.7L580.18 99.83V33.94L580.31 33.87L638.35 1ZM696.02 34.23L638.35 1.57L580.68 34.23V99.55L638.35 132.21L696.02 99.55V34.23Z" stroke="#A1D8DF" stroke-miterlimit="10"/>
<path opacity="0.6" d="M464.85 99.3599L464.98 99.4299L523.02 132.3V198.19L522.89 198.26L464.85 231.13L464.72 231.06L406.68 198.19V132.3L406.81 132.23L464.85 99.3599V99.3599ZM522.52 132.59L464.85 99.9299L407.18 132.59V197.9L464.85 230.56L522.52 197.9V132.59V132.59Z" stroke="#A1D8DF" stroke-miterlimit="10"/>
<path opacity="0.3" d="M117.85 296.33L117.98 296.4L176.02 329.27V395.16L175.89 395.23L117.85 428.1L117.72 428.03L59.6802 395.16V329.27L59.8102 329.2L117.85 296.33ZM175.52 329.56L117.85 296.9L60.1802 329.56V394.88L117.85 427.54L175.52 394.88V329.56V329.56Z" stroke="#A1D8DF" stroke-miterlimit="10"/>
<path d="M523.52 394.63L523.65 394.7L581.69 427.57V493.46L581.56 493.53L523.52 526.4L523.39 526.33L465.35 493.46V427.57L465.48 427.5L523.52 394.63ZM581.19 427.86L523.52 395.2L465.85 427.86V493.18L523.52 525.84L581.19 493.18V427.86V427.86Z" stroke="#A1D8DF" stroke-miterlimit="10"/>
<path d="M465.35 296.33L465.48 296.4L523.52 329.27V395.16L523.39 395.23L465.35 428.1L465.22 428.03L407.18 395.16V329.27L407.31 329.2L465.35 296.33ZM523.02 329.56L465.35 296.9L407.68 329.56V394.88L465.35 427.54L523.02 394.88V329.56V329.56Z" stroke="#A1D8DF" stroke-miterlimit="10"/>
<path d="M581.19 296.33L581.32 296.4L639.36 329.27V395.16L639.23 395.23L581.19 428.1L581.06 428.03L523.02 395.16V329.27L523.15 329.2L581.19 296.33ZM638.86 329.56L581.19 296.9L523.52 329.56V394.88L581.19 427.54L638.86 394.88V329.56V329.56Z" stroke="#A1D8DF" stroke-miterlimit="10"/>
<path d="M638.85 197.79L638.98 197.86L697.02 230.73V296.62L696.89 296.69L638.85 329.56L638.72 329.49L580.68 296.62V230.73L580.81 230.66L638.85 197.79V197.79ZM696.52 231.02L638.85 198.36L581.18 231.02V296.34L638.85 329L696.52 296.34V231.02Z" stroke="#A1D8DF" stroke-miterlimit="10"/>
<path d="M523.02 197.79L523.15 197.86L581.19 230.73V296.62L581.06 296.69L523.02 329.56L522.89 329.49L464.85 296.62V230.73L464.98 230.66L523.02 197.79V197.79ZM580.69 231.02L523.02 198.36L465.35 231.02V296.34L523.02 329L580.69 296.34V231.02Z" stroke="#A1D8DF" stroke-miterlimit="10"/>
<path d="M407.69 394.63L407.82 394.7L465.86 427.57V493.46L465.73 493.53L407.69 526.4L407.56 526.33L349.52 493.46V427.57L349.65 427.5L407.69 394.63ZM465.36 427.86L407.69 395.2L350.02 427.86V493.18L407.69 525.84L465.36 493.18V427.86V427.86Z" stroke="#A1D8DF" stroke-miterlimit="10"/>
<path opacity="0.6" d="M349.52 296.33L349.65 296.4L407.69 329.27V395.16L407.56 395.23L349.52 428.1L349.39 428.03L291.35 395.16V329.27L291.48 329.2L349.52 296.33ZM407.19 329.56L349.52 296.9L291.85 329.56V394.88L349.52 427.54L407.19 394.88V329.56V329.56Z" stroke="#A1D8DF" stroke-miterlimit="10"/>
<path d="M291.35 394.63L291.48 394.7L349.52 427.57V493.46L349.39 493.53L291.35 526.4L291.22 526.33L233.18 493.46V427.57L233.31 427.5L291.35 394.63ZM349.02 427.86L291.35 395.2L233.68 427.86V493.18L291.35 525.84L349.02 493.18V427.86V427.86Z" stroke="#A1D8DF" stroke-miterlimit="10"/>
<path opacity="0.6" d="M175.51 394.63L175.64 394.7L233.68 427.57V493.46L233.55 493.53L175.51 526.4L175.38 526.33L117.34 493.46V427.57L117.47 427.5L175.51 394.63ZM233.18 427.86L175.51 395.2L117.84 427.86V493.18L175.51 525.84L233.18 493.18V427.86V427.86Z" stroke="#A1D8DF" stroke-miterlimit="10"/>
<path opacity="0.6" d="M59.17 393.92L59.3 393.99L117.34 426.86V492.75L117.21 492.82L59.17 525.69L59.04 525.62L1 492.75V426.86L1.13 426.79L59.17 393.92ZM116.84 427.15L59.17 394.49L1.5 427.15V492.47L59.17 525.13L116.84 492.47V427.15Z" stroke="#A1D8DF" stroke-miterlimit="10"/>
<path d="M598.68 415.5L634.97 436.05V477.15L598.68 497.7L562.39 477.15V436.05L598.68 415.5ZM633.73 436.75L598.68 416.9L563.63 436.75V476.45L598.68 496.3L633.73 476.45V436.75Z" stroke="white" stroke-width="0.75" stroke-miterlimit="10"/>
<path opacity="0.6" d="M455.97 416.25L492.26 436.8V477.9L455.97 498.45L419.68 477.9V436.8L455.97 416.25ZM491.02 437.5L455.97 417.65L420.92 437.5V477.2L455.97 497.05L491.02 477.2V437.5Z" stroke="white" stroke-width="0.75" stroke-miterlimit="10"/>
<path opacity="0.6" d="M384.63 416.25L420.92 436.8V477.9L384.63 498.45L348.34 477.9V436.8L384.63 416.25ZM419.68 437.5L384.63 417.65L349.58 437.5V477.2L384.63 497.05L419.68 477.2V437.5Z" stroke="white" stroke-width="0.75" stroke-miterlimit="10"/>
<path opacity="0.5" d="M313.23 416.25L349.52 436.8V477.9L313.23 498.45L276.94 477.9V436.8L313.23 416.25ZM348.28 437.5L313.23 417.65L278.18 437.5V477.2L313.23 497.05L348.28 477.2V437.5Z" stroke="white" stroke-width="0.75" stroke-miterlimit="10"/>
<path opacity="0.5" d="M241.89 416.25L278.18 436.8V477.9L241.89 498.45L205.6 477.9V436.8L241.89 416.25ZM276.94 437.5L241.89 417.65L206.84 437.5V477.2L241.89 497.05L276.94 477.2V437.5Z" stroke="white" stroke-width="0.75" stroke-miterlimit="10"/>
</svg>
